<svg width="1920" height="1080" viewBox="0 0 1920 1080" fill="none" xmlns="http://www.w3.org/2000/svg">
<rect width="1920" height="1080" fill="#DDDDDD"/>
<g filter="url(#filter0_d_711_44)">
<g clip-path="url(#clip0_711_44)">
<rect x="407.598" y="516.295" width="1083" height="223.5" rx="18" transform="rotate(-9.20327 407.598 516.295)" fill="white"/>
<path d="M506.57 637.019L519.055 634.996C524.973 634.038 529.588 631.221 532.967 626.536C536.335 621.786 537.455 615.932 536.307 608.844C535.158 601.756 532.247 596.556 527.562 593.177C522.866 589.734 517.598 588.519 511.68 589.478L499.195 591.5L506.57 637.019ZM511.59 595.098C519.978 593.739 528.129 597.09 530.194 609.835C532.259 622.58 525.583 628.333 517.195 629.692L511.408 630.63L505.802 596.036L511.59 595.098ZM574.304 607.827C573.598 603.47 571.707 600.039 568.556 597.48C565.46 594.845 561.576 593.939 556.959 594.687C552.212 595.456 548.834 597.672 546.771 601.41C544.761 605.072 544.103 609.25 544.873 613.996C545.642 618.743 547.585 622.499 550.658 625.405C553.786 628.235 557.691 629.27 562.438 628.501C569.201 627.406 572.866 624.076 574.879 617.143L569.73 615.842C568.529 620.374 566.254 622.811 561.637 623.559C555.98 624.476 552.023 620.646 550.655 614.261L574.715 610.363L574.304 607.827ZM557.76 599.629C562.767 598.818 566.35 601.574 568.191 606.348L550.179 609.266C550.408 604.091 552.883 600.42 557.76 599.629ZM589.974 589.338C584.187 590.276 580.972 594.734 581.815 599.936C582.826 606.179 588.626 607.375 593.181 608.305C596.276 608.871 598.934 610.042 599.282 612.188C599.841 615.634 598.359 617.61 594.847 618.178C591.531 618.716 588.647 616.981 586.196 612.974L581.99 616.258C584.687 620.959 589.47 624.121 595.648 623.121C602.346 622.035 605.875 617.459 604.822 610.957C603.328 601.322 588.171 604.979 587.288 599.116C586.866 596.515 588.304 594.681 590.58 594.312C592.596 593.985 594.726 594.775 597.089 596.594L600.28 592.807C597.401 589.87 593.941 588.695 589.974 589.338ZM614.646 619.509L620.108 618.624L614.798 585.85L609.336 586.735L614.646 619.509ZM606.495 577.852C606.864 580.128 608.904 581.6 611.245 581.22C613.586 580.841 615.058 578.801 614.689 576.525C614.31 574.184 612.259 572.648 609.918 573.027C607.577 573.406 606.116 575.511 606.495 577.852ZM627.486 594.605C627.939 597.401 629.109 599.681 631.051 601.368C628.606 603.166 627.632 605.392 628.064 608.059C628.422 610.269 629.422 611.909 631.117 612.902C629.386 614.985 628.714 617.429 629.167 620.226C630.263 626.988 636.444 630.124 644.832 628.765C652.896 627.459 658.082 622.815 656.85 615.206C655.912 609.419 651.354 606.821 645.111 607.832L637.373 609.086C634.902 609.487 633.519 608.776 633.224 606.956C632.992 605.525 633.539 604.369 634.853 603.422C636.605 603.938 638.554 604.023 640.7 603.675C644.017 603.138 646.59 601.72 648.42 599.422C650.239 597.058 650.912 594.213 650.375 590.897C650.006 588.621 649.17 586.754 647.791 585.243L651.812 582.055L648.614 577.969L643.299 582.233C641.32 581.553 639.296 581.414 637.15 581.761C633.833 582.299 631.271 583.782 629.452 586.145C627.632 588.509 626.948 591.289 627.486 594.605ZM645.024 612.651C648.731 612.051 650.815 613.381 651.342 616.633C651.921 620.209 649.515 623.068 644.053 623.953C638.59 624.838 635.199 622.852 634.598 619.145C634.261 617.065 634.713 615.323 635.964 613.986C636.95 613.893 637.741 613.831 638.391 613.726L645.024 612.651ZM633.825 588.84C635.798 586.185 639.829 585.531 642.539 587.428C643.889 588.344 644.727 589.81 645.043 591.761C645.359 593.711 645.027 595.367 644.035 596.662C642.042 599.187 638.01 599.84 635.322 598.074C633.972 597.158 633.134 595.692 632.818 593.741C632.502 591.79 632.834 590.135 633.825 588.84ZM686.382 584.195C685.329 577.692 681.087 574.576 675.104 575.545C670.357 576.314 667.074 579.115 665.309 583.872L664.329 577.825L658.867 578.71L664.177 611.483L669.639 610.598L667.416 596.878C666.71 592.521 667.041 588.797 668.43 585.836C669.884 582.864 671.873 581.14 674.409 580.729C678.181 580.118 680.425 582.024 681.152 586.511L684.66 608.165L690.123 607.28L686.382 584.195ZM720.831 592.628C720.23 588.921 723.079 586.324 728.607 585.429L734.459 584.48L734.585 585.261C735.144 588.707 734.644 591.391 733.087 593.311C731.53 595.232 729.51 596.36 727.039 596.76C723.593 597.319 721.336 595.749 720.831 592.628ZM738.994 577.873C737.646 569.549 731.985 566.329 724.377 567.562C718.199 568.563 714.141 572.757 714.191 578.421L719.182 578.747C719.381 575.445 721.731 573.062 725.178 572.504C729.925 571.735 732.7 573.621 733.426 578.108L733.658 579.538L728.326 580.402C719.157 581.888 714.111 586.576 715.238 593.534C716.324 600.232 721.077 602.798 726.995 601.839C731.481 601.112 734.589 598.874 736.436 595.038L738.095 599.507L742.387 598.812L738.994 577.873ZM785.269 592.398C794.633 590.88 798.739 583.275 797.096 573.131C795.452 562.986 789.154 557.066 779.79 558.584C775.889 559.216 772.184 561.885 770.969 564.684L770.316 560.653L764.853 561.538L772.313 607.577L777.775 606.692L774.993 589.525C775.747 590.47 777.206 591.235 779.25 591.905C781.294 592.575 783.318 592.714 785.269 592.398ZM780.071 563.61C785.793 562.683 790.355 566.949 791.503 574.037C792.652 581.125 789.67 586.613 783.948 587.54C778.031 588.499 773.664 584.201 772.515 577.113C771.367 570.025 774.153 564.569 780.071 563.61ZM822.284 552.699C820.944 552.249 819.395 552.167 817.64 552.451C813.998 553.041 810.302 556.176 809.006 560.123L808.1 554.531L802.638 555.416L807.948 588.189L813.41 587.304L811.398 574.884C810.586 569.877 810.865 565.828 812.232 562.737C813.6 559.646 815.514 557.867 817.985 557.467C819.351 557.246 820.639 557.371 821.969 557.756L822.284 552.699ZM857.844 561.886C857.138 557.53 855.248 554.099 852.097 551.54C849.001 548.905 845.117 547.999 840.5 548.747C835.753 549.516 832.375 551.732 830.311 555.47C828.302 559.132 827.644 563.309 828.413 568.056C829.182 572.803 831.126 576.559 834.199 579.465C837.327 582.295 841.232 583.33 845.979 582.561C852.742 581.465 856.406 578.136 858.42 571.203L853.27 569.902C852.069 574.434 849.795 576.871 845.178 577.619C839.521 578.536 835.563 574.706 834.195 568.321L858.255 564.422L857.844 561.886ZM841.301 553.689C846.308 552.878 849.891 555.634 851.732 560.408L833.72 563.326C833.949 558.15 836.424 554.479 841.301 553.689ZM873.515 543.398C867.728 544.336 864.513 548.794 865.356 553.996C866.367 560.239 872.166 561.434 876.722 562.365C879.816 562.931 882.475 564.102 882.823 566.248C883.381 569.694 881.9 571.669 878.388 572.238C875.072 572.776 872.188 571.041 869.737 567.033L865.531 570.317C868.228 575.019 873.011 578.181 879.189 577.18C885.887 576.095 889.416 571.519 888.363 565.017C886.868 555.382 871.712 559.039 870.828 553.176C870.407 550.575 871.845 548.74 874.121 548.372C876.137 548.045 878.266 548.834 880.63 550.654L883.82 546.867C880.942 543.93 877.482 542.755 873.515 543.398ZM923.633 551.227C922.927 546.87 921.037 543.439 917.886 540.88C914.79 538.245 910.906 537.34 906.289 538.088C901.542 538.857 898.164 541.073 896.1 544.81C894.091 548.473 893.433 552.65 894.202 557.397C894.971 562.144 896.915 565.9 899.988 568.805C903.116 571.635 907.021 572.671 911.768 571.902C918.531 570.806 922.195 567.476 924.209 560.543L919.059 559.242C917.858 563.774 915.584 566.212 910.967 566.96C905.31 567.876 901.352 564.046 899.984 557.661L924.044 553.763L923.633 551.227ZM907.09 543.03C912.097 542.219 915.68 544.975 917.521 549.748L899.509 552.667C899.738 547.491 902.213 543.82 907.09 543.03ZM958.048 540.179C956.995 533.676 952.753 530.56 946.77 531.529C942.023 532.298 938.74 535.099 936.975 539.856L935.995 533.809L930.533 534.694L935.843 567.467L941.305 566.582L939.082 552.862C938.376 548.505 938.707 544.781 940.096 541.82C941.549 538.848 943.539 537.124 946.075 536.713C949.847 536.102 952.091 538.008 952.818 542.494L956.326 564.148L961.788 563.263L958.048 540.179ZM969.974 533.375L972.818 550.932C973.967 558.02 978.274 561.126 984.061 560.189C986.207 559.841 987.9 559.166 989.193 558.089L987.123 553.553C986.199 554.437 985.016 554.962 983.586 555.194C980.789 555.647 978.913 553.949 978.354 550.503L975.436 532.49L984.019 531.099L983.219 526.157L974.635 527.548L972.486 514.283L967.582 518.614L969.173 528.433L963.515 529.35L964.316 534.292L969.974 533.375ZM999.355 547.5C998.754 543.794 1001.6 541.197 1007.13 540.301L1012.98 539.353L1013.11 540.133C1013.67 543.58 1013.17 546.263 1011.61 548.184C1010.05 550.105 1008.03 551.233 1005.56 551.633C1002.12 552.191 999.86 550.622 999.355 547.5ZM1017.52 532.746C1016.17 524.422 1010.51 521.202 1002.9 522.434C996.723 523.435 992.665 527.63 992.715 533.294L997.706 533.62C997.905 530.318 1000.26 527.935 1003.7 527.376C1008.45 526.607 1011.22 528.493 1011.95 532.98L1012.18 534.411L1006.85 535.275C997.681 536.76 992.635 541.449 993.762 548.407C994.847 555.104 999.601 557.671 1005.52 556.712C1010.01 555.985 1013.11 553.747 1014.96 549.91L1016.62 554.38L1020.91 553.684L1017.52 532.746ZM1028.59 523.878L1031.43 541.436C1032.58 548.524 1036.89 551.63 1042.67 550.692C1044.82 550.344 1046.51 549.67 1047.81 548.592L1045.74 544.056C1044.81 544.94 1043.63 545.465 1042.2 545.697C1039.4 546.15 1037.53 544.452 1036.97 541.006L1034.05 522.993L1042.63 521.603L1041.83 516.661L1033.25 518.051L1031.1 504.786L1026.2 509.117L1027.79 518.936L1022.13 519.853L1022.93 524.795L1028.59 523.878ZM1056.31 547.949L1061.77 547.064L1056.46 514.29L1051 515.175L1056.31 547.949ZM1048.16 506.293C1048.53 508.569 1050.57 510.04 1052.91 509.661C1055.25 509.281 1056.72 507.241 1056.35 504.965C1055.97 502.624 1053.92 501.088 1051.58 501.467C1049.24 501.847 1047.78 503.952 1048.16 506.293ZM1073.99 540.547C1077.45 543.389 1081.48 544.404 1086.23 543.635C1090.98 542.866 1094.49 540.629 1096.81 536.849C1099.2 533.058 1099.98 528.795 1099.23 524.178C1098.48 519.561 1096.41 515.826 1092.94 512.984C1089.55 510.131 1085.5 509.051 1080.75 509.821C1076.01 510.59 1072.51 512.891 1070.12 516.682C1067.8 520.462 1067.01 524.66 1067.76 529.277C1068.5 533.894 1070.59 537.694 1073.99 540.547ZM1074.66 519.551C1076.09 516.85 1078.37 515.279 1081.55 514.763C1084.74 514.246 1087.4 515.016 1089.55 517.138C1091.75 519.184 1093.11 521.833 1093.64 525.084C1094.16 528.335 1093.71 531.279 1092.28 533.98C1090.9 536.605 1088.62 538.176 1085.43 538.693C1082.24 539.209 1079.58 538.439 1077.38 536.393C1075.24 534.271 1073.88 531.623 1073.35 528.371C1072.82 525.12 1073.28 522.176 1074.66 519.551ZM1133.13 511.812C1132.07 505.31 1127.83 502.193 1121.85 503.162C1117.1 503.931 1113.82 506.732 1112.05 511.49L1111.07 505.442L1105.61 506.327L1110.92 539.101L1116.38 538.216L1114.16 524.495C1113.45 520.138 1113.78 516.414 1115.17 513.453C1116.63 510.481 1118.62 508.758 1121.15 508.347C1124.92 507.736 1127.17 509.641 1127.9 514.128L1131.4 535.782L1136.87 534.897L1133.13 511.812ZM1166.95 525.484C1170.42 528.326 1174.45 529.341 1179.2 528.572C1183.95 527.802 1187.46 525.566 1189.78 521.786C1192.17 517.995 1192.95 513.732 1192.2 509.115C1191.45 504.498 1189.38 500.763 1185.91 497.921C1182.51 495.068 1178.47 493.988 1173.72 494.758C1168.97 495.527 1165.48 497.828 1163.09 501.619C1160.76 505.399 1159.98 509.597 1160.72 514.214C1161.47 518.831 1163.56 522.631 1166.95 525.484ZM1167.62 504.488C1169.05 501.787 1171.34 500.216 1174.52 499.7C1177.71 499.183 1180.37 499.953 1182.51 502.075C1184.71 504.121 1186.08 506.77 1186.61 510.021C1187.13 513.272 1186.67 516.216 1185.24 518.917C1183.87 521.542 1181.59 523.113 1178.4 523.63C1175.21 524.146 1172.55 523.376 1170.35 521.33C1168.21 519.208 1166.84 516.56 1166.32 513.308C1165.79 510.057 1166.25 507.113 1167.62 504.488ZM1226.09 496.749C1225.04 490.247 1220.8 487.13 1214.82 488.099C1210.07 488.868 1206.79 491.669 1205.02 496.427L1204.04 490.379L1198.58 491.264L1203.89 524.038L1209.35 523.153L1207.13 509.432C1206.42 505.075 1206.75 501.351 1208.14 498.39C1209.6 495.418 1211.59 493.695 1214.12 493.284C1217.89 492.673 1220.14 494.578 1220.86 499.065L1224.37 520.719L1229.83 519.834L1226.09 496.749ZM1259.14 515.085L1264.87 514.158L1261.46 493.154L1278.31 490.425L1277.42 484.963L1260.58 487.692L1258.38 474.101L1279.12 470.74L1278.23 465.278L1251.77 469.566L1259.14 515.085ZM1293.87 509.458L1299.34 508.573L1294.03 475.799L1288.56 476.684L1293.87 509.458ZM1285.72 467.802C1286.09 470.078 1288.13 471.549 1290.47 471.17C1292.81 470.79 1294.29 468.75 1293.92 466.474C1293.54 464.133 1291.49 462.597 1289.15 462.976C1286.8 463.356 1285.34 465.461 1285.72 467.802ZM1306.71 484.555C1307.17 487.351 1308.34 489.63 1310.28 491.318C1307.83 493.115 1306.86 495.342 1307.29 498.008C1307.65 500.219 1308.65 501.859 1310.35 502.852C1308.61 504.934 1307.94 507.379 1308.4 510.175C1309.49 516.938 1315.67 520.074 1324.06 518.715C1332.12 517.408 1337.31 512.764 1336.08 505.156C1335.14 499.368 1330.58 496.77 1324.34 497.782L1316.6 499.036C1314.13 499.436 1312.75 498.726 1312.45 496.905C1312.22 495.474 1312.77 494.318 1314.08 493.371C1315.83 493.888 1317.78 493.973 1319.93 493.625C1323.24 493.088 1325.82 491.67 1327.65 489.371C1329.47 487.008 1330.14 484.162 1329.6 480.846C1329.23 478.57 1328.4 476.704 1327.02 475.192L1331.04 472.004L1327.84 467.918L1322.53 472.183C1320.55 471.502 1318.52 471.363 1316.38 471.711C1313.06 472.248 1310.5 473.731 1308.68 476.095C1306.86 478.458 1306.18 481.238 1306.71 484.555ZM1324.25 502.601C1327.96 502 1330.04 503.331 1330.57 506.582C1331.15 510.159 1328.74 513.018 1323.28 513.903C1317.82 514.788 1314.43 512.801 1313.83 509.095C1313.49 507.014 1313.94 505.272 1315.19 503.935C1316.18 503.842 1316.97 503.781 1317.62 503.675L1324.25 502.601ZM1313.05 478.789C1315.03 476.134 1319.06 475.481 1321.77 477.377C1323.12 478.293 1323.95 479.759 1324.27 481.71C1324.59 483.661 1324.25 485.316 1323.26 486.611C1321.27 489.137 1317.24 489.79 1314.55 488.023C1313.2 487.107 1312.36 485.641 1312.05 483.691C1311.73 481.74 1312.06 480.084 1313.05 478.789ZM1384.01 471.163C1382.97 464.725 1379.04 461.491 1373.12 462.45C1368.44 463.208 1365.24 466.064 1363.57 471.005C1361.82 466.817 1358.17 464.873 1353.68 465.6C1349.06 466.348 1346.04 469.107 1344.54 473.822L1343.56 467.774L1338.09 468.659L1343.4 501.433L1348.87 500.548L1346.69 487.087C1345.2 477.918 1348.04 471.585 1352.99 470.784C1356.5 470.215 1358.6 472.077 1359.3 476.368L1362.85 498.283L1368.31 497.398L1366.13 483.937C1364.64 474.768 1367.49 468.435 1372.43 467.634C1375.94 467.065 1378.04 468.926 1378.74 473.218L1382.29 495.132L1387.75 494.247L1384.01 471.163ZM1400.82 482.454C1400.22 478.747 1403.07 476.15 1408.6 475.254L1414.45 474.306L1414.58 475.087C1415.13 478.533 1414.63 481.217 1413.08 483.137C1411.52 485.058 1409.5 486.186 1407.03 486.586C1403.58 487.145 1401.33 485.575 1400.82 482.454ZM1418.98 467.699C1417.64 459.375 1411.97 456.155 1404.37 457.388C1398.19 458.389 1394.13 462.583 1394.18 468.247L1399.17 468.573C1399.37 465.271 1401.72 462.888 1405.17 462.33C1409.91 461.561 1412.69 463.447 1413.42 467.934L1413.65 469.364L1408.32 470.228C1399.15 471.714 1394.1 476.402 1395.23 483.36C1396.31 490.058 1401.07 492.624 1406.98 491.665C1411.47 490.938 1414.58 488.7 1416.43 484.864L1418.08 489.333L1422.38 488.638L1418.98 467.699Z" fill="black"/>
</g>
</g>
<defs>
<filter id="filter0_d_711_44" x="404.598" y="343.082" width="1110.8" height="399.835" filterUnits="userSpaceOnUse" color-interpolation-filters="sRGB">
<feFlood flood-opacity="0" result="BackgroundImageFix"/>
<feColorMatrix in="SourceAlpha" type="matrix" values="0 0 0 0 0 0 0 0 0 0 0 0 0 0 0 0 0 0 127 0" result="hardAlpha"/>
<feOffset dy="3"/>
<feGaussianBlur stdDeviation="1.5"/>
<feComposite in2="hardAlpha" operator="out"/>
<feColorMatrix type="matrix" values="0 0 0 0 0 0 0 0 0 0 0 0 0 0 0 0 0 0 0.25 0"/>
<feBlend mode="normal" in2="BackgroundImageFix" result="effect1_dropShadow_711_44"/>
<feBlend mode="normal" in="SourceGraphic" in2="effect1_dropShadow_711_44" result="shape"/>
</filter>
<clipPath id="clip0_711_44">
<rect x="407.598" y="516.295" width="1083" height="223.5" rx="18" transform="rotate(-9.20327 407.598 516.295)" fill="white"/>
</clipPath>
</defs>
</svg>
