<svg width="1920" height="1080" viewBox="0 0 1920 1080" fill="none" xmlns="http://www.w3.org/2000/svg">
<rect width="1920" height="1080" fill="#DDDDDD"/>
<g filter="url(#filter0_d_711_40)">
<g clip-path="url(#clip0_711_40)">
<rect x="626.746" y="404.582" width="684" height="223" rx="18" transform="rotate(4.05725 626.746 404.582)" fill="white"/>
<path d="M693.506 544.656L696.79 498.358L702.565 498.767L701.145 518.788L726.557 520.591L727.977 500.57L733.752 500.98L730.468 547.278L724.693 546.868L726.188 525.789L700.777 523.986L699.281 545.066L693.506 544.656ZM752.272 549.47C742.679 548.789 737.379 541.674 738.123 531.182L738.126 531.15C738.859 520.819 745.265 514.147 754.377 514.793C763.489 515.439 768.56 522.603 767.85 532.613L767.704 534.667L743.673 532.962C743.314 539.837 746.815 544.117 752.751 544.538C756.986 544.838 760.12 542.932 761.286 540.145L761.402 539.863L766.889 540.252L766.802 540.568C765.32 546.01 759.556 549.986 752.272 549.47ZM753.995 519.732C749.15 519.388 745.129 522.424 744.078 528.605L762.335 529.9C762.249 523.381 758.872 520.078 753.995 519.732ZM772.275 550.243L774.641 516.875L780.224 517.271L779.824 522.918L779.952 522.927C781.348 519.157 784.409 516.923 788.163 517.189C789.125 517.258 789.948 517.477 790.393 517.573L790.008 522.996C789.57 522.803 788.394 522.559 787.047 522.463C782.715 522.156 779.678 524.972 779.318 530.041L777.857 550.639L772.275 550.243ZM804.635 553.184C795.042 552.503 789.742 545.388 790.486 534.896L790.488 534.864C791.221 524.533 797.628 517.861 806.74 518.507C815.852 519.153 820.922 526.317 820.212 536.327L820.067 538.381L796.035 536.676C795.676 543.552 799.178 547.831 805.114 548.252C809.349 548.552 812.483 546.646 813.648 543.859L813.765 543.577L819.251 543.966L819.164 544.282C817.682 549.724 811.918 553.7 804.635 553.184ZM806.357 523.446C801.512 523.102 797.492 526.138 796.441 532.32L814.697 533.615C814.612 527.095 811.234 523.792 806.357 523.446ZM823.343 523.103L827.28 507.614L833.119 508.028L827.322 523.385L823.343 523.103ZM843.169 555.917C835.308 555.359 830.844 551.012 830.594 544.996L830.582 544.705L836.165 545.101L836.206 545.427C836.643 548.811 838.975 550.944 843.531 551.267C848.055 551.588 850.884 549.886 851.098 546.87L851.101 546.838C851.271 544.432 850.116 542.995 846.395 541.796L841.193 540.137C835.011 538.183 832.17 535.047 832.511 530.235L832.514 530.203C832.921 524.459 838.247 520.742 845.466 521.254C852.782 521.773 857.131 526.37 857.152 531.982L857.155 532.402L851.829 532.024L851.813 531.797C851.593 528.525 849.275 526.2 845.136 525.906C841.094 525.619 838.452 527.399 838.243 530.351L838.241 530.383C838.079 532.661 839.475 534.34 843.101 535.5L848.304 537.159C854.926 539.273 857.176 542.109 856.839 546.858L856.837 546.89C856.423 552.73 850.613 556.445 843.169 555.917ZM875.749 557.583L879.033 511.284L884.615 511.68L883.32 529.937L883.449 529.946C885.512 526.319 889.294 524.363 894.268 524.715C901.358 525.218 905.814 531.049 905.24 539.134L903.791 559.572L898.208 559.176L899.589 539.701C900.017 533.669 897.19 529.889 891.992 529.52C886.826 529.154 883.116 532.824 882.713 538.503L881.331 557.979L875.749 557.583ZM924.665 561.698C915.392 561.04 909.675 553.895 910.429 543.275L910.433 543.211C911.186 532.59 917.882 526.39 927.09 527.044C936.299 527.697 942.087 534.75 941.331 545.402L941.326 545.466C940.571 556.119 933.873 562.351 924.665 561.698ZM925.047 556.759C930.919 557.175 935.06 552.89 935.615 545.061L935.62 544.997C936.175 537.168 932.644 532.403 926.74 531.985C920.933 531.573 916.697 535.819 916.144 543.616L916.14 543.68C915.582 551.541 919.144 556.34 925.047 556.759ZM952.399 563.02L945.43 528.989L950.98 529.383L955.729 557L955.857 557.009L965.322 530.4L970.712 530.783L976.359 558.464L976.488 558.473L985.087 531.802L990.605 532.194L978.934 564.902L973.255 564.499L967.547 538.136L967.418 538.127L958.078 563.423L952.399 563.02ZM1012.21 528.051C1010.29 527.914 1008.83 526.231 1008.96 524.306C1009.1 522.349 1010.78 520.92 1012.71 521.057C1014.67 521.195 1016.1 522.845 1015.96 524.802C1015.82 526.727 1014.17 528.19 1012.21 528.051ZM1006.66 566.868L1009.02 533.5L1014.6 533.896L1012.24 567.264L1006.66 566.868ZM1030.64 569.215C1024.51 568.78 1021.69 565.807 1022.15 559.422L1023.58 539.176L1018.7 538.83L1019.03 534.21L1023.91 534.556L1024.55 525.54L1030.32 525.95L1029.68 534.966L1036.04 535.416L1035.71 540.036L1029.36 539.586L1027.92 559.799C1027.67 563.361 1029.17 564.467 1032.16 564.679C1032.83 564.726 1033.48 564.676 1033.96 564.678L1033.64 569.202C1032.93 569.248 1031.73 569.292 1030.64 569.215ZM1059.76 570.635L1052.79 536.604L1058.34 536.998L1063.08 564.615L1063.21 564.624L1072.68 538.015L1078.07 538.398L1083.72 566.078L1083.84 566.088L1092.44 539.417L1097.96 539.809L1086.29 572.517L1080.61 572.114L1074.9 545.751L1074.77 545.742L1065.43 571.038L1059.76 570.635ZM1113.97 575.125C1104.69 574.467 1098.98 567.322 1099.73 556.702L1099.73 556.638C1100.49 546.018 1107.18 539.818 1116.39 540.471C1125.6 541.124 1131.39 548.177 1130.63 558.83L1130.63 558.894C1129.87 569.546 1123.17 575.778 1113.97 575.125ZM1114.35 570.186C1120.22 570.603 1124.36 566.317 1124.92 558.489L1124.92 558.424C1125.48 550.596 1121.94 545.831 1116.04 545.412C1110.23 545 1106 549.246 1105.45 557.043L1105.44 557.107C1104.88 564.968 1108.44 569.767 1114.35 570.186ZM1135.09 575.978L1137.46 542.61L1143.04 543.006L1142.64 548.653L1142.77 548.662C1144.16 544.892 1147.23 542.658 1150.98 542.924C1151.94 542.993 1152.76 543.212 1153.21 543.308L1152.82 548.73C1152.39 548.538 1151.21 548.294 1149.86 548.198C1145.53 547.891 1142.49 550.706 1142.13 555.776L1140.67 576.374L1135.09 575.978ZM1155.82 577.449L1159.1 531.15L1164.68 531.546L1162.72 559.203L1162.85 559.212L1178.53 545.523L1185.3 546.003L1169.8 559.383L1183.38 579.404L1176.9 578.944L1165.62 562.504L1162.29 565.267L1161.4 577.845L1155.82 577.449ZM1197.77 581.069C1189.91 580.512 1185.45 576.164 1185.2 570.149L1185.18 569.858L1190.77 570.254L1190.81 570.579C1191.25 573.964 1193.58 576.096 1198.13 576.419C1202.66 576.74 1205.49 575.038 1205.7 572.022L1205.7 571.99C1205.87 569.584 1204.72 568.148 1201 566.949L1195.8 565.29C1189.61 563.336 1186.77 560.2 1187.11 555.387L1187.12 555.355C1187.52 549.612 1192.85 545.894 1200.07 546.406C1207.38 546.925 1211.73 551.522 1211.76 557.135L1211.76 557.554L1206.43 557.176L1206.42 556.949C1206.2 553.677 1203.88 551.352 1199.74 551.059C1195.7 550.772 1193.05 552.551 1192.85 555.503L1192.84 555.535C1192.68 557.813 1194.08 559.493 1197.7 560.653L1202.91 562.312C1209.53 564.426 1211.78 567.262 1211.44 572.01L1211.44 572.042C1211.03 577.882 1205.22 581.597 1197.77 581.069ZM1221.75 557.618C1219.7 557.472 1218.21 555.754 1218.35 553.701C1218.5 551.647 1220.21 550.157 1222.27 550.303C1224.32 550.448 1225.81 552.166 1225.67 554.22C1225.52 556.273 1223.8 557.764 1221.75 557.618ZM1219.99 582.452C1217.93 582.306 1216.44 580.588 1216.59 578.535C1216.74 576.481 1218.45 574.991 1220.51 575.136C1222.56 575.282 1224.05 577 1223.91 579.053C1223.76 581.107 1222.04 582.597 1219.99 582.452Z" fill="black"/>
</g>
</g>
<defs>
<filter id="filter0_d_711_40" x="607.968" y="404.582" width="704.064" height="276.836" filterUnits="userSpaceOnUse" color-interpolation-filters="sRGB">
<feFlood flood-opacity="0" result="BackgroundImageFix"/>
<feColorMatrix in="SourceAlpha" type="matrix" values="0 0 0 0 0 0 0 0 0 0 0 0 0 0 0 0 0 0 127 0" result="hardAlpha"/>
<feOffset dy="3"/>
<feGaussianBlur stdDeviation="1.5"/>
<feComposite in2="hardAlpha" operator="out"/>
<feColorMatrix type="matrix" values="0 0 0 0 0 0 0 0 0 0 0 0 0 0 0 0 0 0 0.25 0"/>
<feBlend mode="normal" in2="BackgroundImageFix" result="effect1_dropShadow_711_40"/>
<feBlend mode="normal" in="SourceGraphic" in2="effect1_dropShadow_711_40" result="shape"/>
</filter>
<clipPath id="clip0_711_40">
<rect x="626.746" y="404.582" width="684" height="223" rx="18" transform="rotate(4.05725 626.746 404.582)" fill="white"/>
</clipPath>
</defs>
</svg>
