<svg width="1920" height="1080" viewBox="0 0 1920 1080" fill="none" xmlns="http://www.w3.org/2000/svg">
<rect width="1920" height="1080" fill="#DDDDDD"/>
<g filter="url(#filter0_d_711_56)">
<g clip-path="url(#clip0_711_56)">
<rect x="308.707" y="359.8" width="1333" height="223" rx="18" transform="rotate(5.96859 308.707 359.8)" fill="white"/>
<path d="M389.968 504.807C377.14 503.466 369.863 493.262 371.381 478.738L371.385 478.706C372.903 464.182 382.095 455.764 394.955 457.109C404.553 458.112 411.398 464.714 412.244 473.631L412.275 473.958L406.452 473.349L406.302 472.622C405.096 466.836 400.894 463.098 394.4 462.419C385.187 461.456 378.477 468.096 377.303 479.325L377.3 479.357C376.126 490.586 381.342 498.537 390.524 499.497C396.986 500.172 401.799 497.442 404.45 491.574L404.576 491.296L410.398 491.905L410.301 492.218C407.618 500.864 399.63 505.818 389.968 504.807ZM428.595 508.716C419.35 507.75 413.874 500.418 414.981 489.829L414.988 489.765C416.095 479.176 422.994 473.203 432.175 474.163C441.357 475.123 446.906 482.365 445.796 492.986L445.789 493.05C444.678 503.671 437.776 509.676 428.595 508.716ZM429.142 503.793C434.996 504.405 439.278 500.261 440.094 492.455L440.101 492.391C440.917 484.585 437.547 479.705 431.66 479.089C425.87 478.484 421.495 482.587 420.683 490.36L420.676 490.424C419.856 498.262 423.256 503.178 429.142 503.793ZM449.68 510.274L453.159 477.003L458.725 477.585L458.23 482.32L458.358 482.333C460.474 479.417 464.102 477.501 469.157 478.029C476.451 478.792 480.179 483.968 479.386 491.55L477.129 513.144L471.562 512.562L473.716 491.96C474.281 486.553 472.065 483.314 466.946 482.778C461.7 482.23 457.886 485.615 457.294 491.277L455.247 510.856L449.68 510.274ZM484.231 513.886L487.709 480.616L493.276 481.198L492.781 485.932L492.908 485.946C495.024 483.03 498.653 481.113 503.708 481.641C511.002 482.404 514.729 487.58 513.937 495.162L511.679 516.756L506.113 516.174L508.267 495.572C508.832 490.165 506.616 486.926 501.497 486.391C496.25 485.842 492.436 489.227 491.844 494.89L489.797 514.468L484.231 513.886ZM532.406 519.57C522.841 518.57 517.782 511.282 518.875 500.821L518.879 500.789C519.956 490.487 526.581 484.033 535.667 484.983C544.752 485.933 549.581 493.261 548.537 503.243L548.323 505.29L524.362 502.785C523.774 509.644 527.131 514.038 533.049 514.657C537.272 515.098 540.468 513.298 541.726 510.551L541.852 510.273L547.322 510.845L547.225 511.158C545.562 516.547 539.668 520.329 532.406 519.57ZM535.12 489.906C530.289 489.401 526.17 492.301 524.913 498.444L543.116 500.347C543.248 493.828 539.982 490.414 535.12 489.906ZM566.093 523.092C556.656 522.105 551.376 514.762 552.483 504.173L552.486 504.141C553.583 493.647 560.396 487.568 569.641 488.535C577.927 489.401 582.246 495.415 582.355 501.183L582.36 501.443L576.922 500.874L576.884 500.611C576.4 497.197 574.021 493.973 569.126 493.461C563.336 492.856 558.963 497.25 558.174 504.8L558.171 504.832C557.361 512.574 560.85 517.563 566.608 518.165C571.151 518.64 574.33 516.385 575.645 512.771L575.736 512.522L581.207 513.094L581.151 513.315C579.593 519.555 573.611 523.878 566.093 523.092ZM595.941 526.212C589.831 525.574 587.111 522.508 587.777 516.142L589.887 495.955L585.024 495.447L585.506 490.84L590.369 491.349L591.309 482.359L597.067 482.961L596.127 491.951L602.461 492.613L601.98 497.22L595.646 496.557L593.538 516.712C593.167 520.263 594.631 521.418 597.606 521.73C598.278 521.8 598.928 521.771 599.411 521.789L598.939 526.3C598.226 526.322 597.029 526.326 595.941 526.212ZM620.43 539.445C619.342 539.332 618.172 539.08 617.482 538.878L617.957 534.336C618.426 534.482 619.056 534.645 619.728 534.715C623.247 535.083 625.292 534.391 627.03 530.757L627.9 528.939L619.033 494.345L624.983 494.968L631.268 523.632L631.396 523.645L643.506 496.904L649.36 497.516L632.676 531.509C629.643 537.627 626.444 540.074 620.43 539.445ZM662.706 533.193C653.461 532.226 647.986 524.895 649.093 514.305L649.1 514.241C650.207 503.652 657.105 497.679 666.287 498.639C675.468 499.599 681.017 506.841 679.907 517.462L679.9 517.526C678.79 528.147 671.888 534.153 662.706 533.193ZM663.254 528.27C669.108 528.882 673.39 524.737 674.206 516.931L674.213 516.867C675.029 509.061 671.658 504.181 665.772 503.566C659.981 502.96 655.607 507.063 654.794 514.837L654.787 514.901C653.968 522.739 657.367 527.654 663.254 528.27ZM695.082 536.578C687.788 535.815 684.06 530.639 684.852 523.057L687.11 501.463L692.677 502.045L690.523 522.647C689.957 528.054 692.174 531.293 697.292 531.828C702.539 532.377 706.353 528.992 706.945 523.329L708.992 503.751L714.558 504.333L711.08 537.603L705.514 537.022L706.009 532.287L705.881 532.273C703.765 535.189 700.136 537.106 695.082 536.578ZM718.342 538.363L721.82 505.092L727.387 505.674L726.798 511.304L726.926 511.318C728.447 507.596 731.581 505.466 735.324 505.857C736.283 505.957 737.098 506.204 737.54 506.315L736.974 511.721C736.543 511.515 735.376 511.231 734.033 511.09C729.714 510.639 726.584 513.352 726.056 518.406L723.908 538.945L718.342 538.363ZM764.438 543.829C755.929 542.939 751.007 535.568 752.104 525.075L752.108 525.043C753.205 514.55 759.605 508.395 767.955 509.268C772.657 509.76 776.281 512.532 777.959 516.588L778.087 516.602L780.017 498.143L785.583 498.725L780.757 544.888L775.19 544.306L775.779 538.676L775.651 538.662C773.167 542.316 769.205 544.327 764.438 543.829ZM766.041 539.016C771.672 539.605 776.182 535.128 776.962 527.674L776.965 527.642C777.741 520.22 774.222 514.904 768.623 514.319C762.737 513.703 758.595 518.057 757.802 525.639L757.799 525.671C756.999 533.317 760.155 538.401 766.041 539.016ZM801.9 547.746C792.335 546.745 787.275 539.457 788.369 528.996L788.372 528.964C789.449 518.663 796.075 512.208 805.16 513.158C814.246 514.108 819.075 521.437 818.031 531.418L817.817 533.466L793.856 530.96C793.268 537.82 796.625 542.214 802.543 542.832C806.766 543.274 809.962 541.473 811.219 538.727L811.345 538.449L816.816 539.021L816.718 539.334C815.055 544.723 809.162 548.505 801.9 547.746ZM804.613 518.082C799.783 517.577 795.663 520.477 794.407 526.62L812.609 528.523C812.741 522.004 809.476 518.59 804.613 518.082ZM833.603 551.06C825.765 550.241 821.449 545.747 821.399 539.726L821.397 539.435L826.964 540.017L826.994 540.343C827.318 543.741 829.578 545.95 834.12 546.425C838.631 546.896 841.516 545.29 841.83 542.283L841.833 542.251C842.084 539.851 840.977 538.377 837.299 537.055L832.154 535.223C826.041 533.064 823.306 529.835 823.808 525.037L823.811 525.005C824.41 519.278 829.858 515.74 837.056 516.493C844.35 517.256 848.543 521.995 848.377 527.605L848.366 528.024L843.055 527.469L843.047 527.242C842.937 523.964 840.697 521.563 836.571 521.132C832.54 520.71 829.84 522.401 829.533 525.344L829.529 525.376C829.292 527.647 830.632 529.372 834.217 530.653L839.362 532.484C845.909 534.818 848.063 537.727 847.568 542.462L847.565 542.494C846.956 548.317 841.025 551.836 833.603 551.06ZM859.587 513.803C857.668 513.603 856.264 511.871 856.465 509.952C856.669 508 858.397 506.629 860.316 506.829C862.268 507.033 863.643 508.73 863.439 510.681C863.238 512.6 861.539 514.007 859.587 513.803ZM852.737 552.414L856.215 519.143L861.782 519.725L858.303 552.996L852.737 552.414ZM878.724 567.097C870.502 566.237 865.724 561.824 865.152 556.784L865.118 556.489L870.716 557.075L870.814 557.376C871.619 559.886 874.632 561.689 879.175 562.163C885.029 562.776 888.694 559.892 889.233 554.742L889.678 550.487L889.55 550.473C887.182 553.945 883.095 555.911 878.328 555.413C869.947 554.536 864.926 547.188 866.013 536.79L866.016 536.758C867.097 526.425 873.59 520.313 882.035 521.196C886.738 521.687 890.181 524.634 891.841 528.56L891.969 528.573L892.557 522.942L898.124 523.524L894.742 555.868C893.936 563.577 887.745 568.04 878.724 567.097ZM880.059 550.613C885.722 551.205 890.066 546.776 890.838 539.386L890.842 539.354C891.607 532.028 888.238 526.825 882.608 526.236C876.689 525.617 872.483 529.964 871.711 537.354L871.707 537.386C870.918 544.936 874.141 549.994 880.059 550.613ZM901.843 557.548L905.322 524.277L910.888 524.859L910.393 529.594L910.521 529.607C912.637 526.691 916.266 524.774 921.32 525.303C928.614 526.065 932.342 531.242 931.549 538.824L929.292 560.418L923.725 559.836L925.879 539.233C926.445 533.827 924.228 530.587 919.11 530.052C913.863 529.504 910.049 532.889 909.457 538.551L907.41 558.13L901.843 557.548ZM951.622 562.752L954.618 534.088L949.98 533.603L950.461 528.996L955.1 529.481L955.528 525.386C956.197 518.988 959.49 516.26 965.632 516.902C966.88 517.033 968.182 517.266 969 517.481L968.528 521.992C967.867 521.825 967.006 521.703 966.142 521.613C963.071 521.292 961.372 522.699 961.027 525.994L960.603 530.057L967.449 530.772L966.967 535.379L960.185 534.67L957.188 563.334L951.622 562.752ZM976.931 526.072C975.011 525.871 973.608 524.14 973.808 522.22C974.013 520.269 975.741 518.897 977.66 519.098C979.612 519.302 980.987 520.998 980.783 522.949C980.582 524.869 978.882 526.276 976.931 526.072ZM970.081 564.682L973.559 531.411L979.126 531.993L975.647 565.264L970.081 564.682ZM983.517 566.087L988.343 519.924L993.91 520.505L989.083 566.669L983.517 566.087ZM1010.23 569.526C1000.66 568.526 995.602 561.238 996.696 550.777L996.699 550.745C997.776 540.444 1004.4 533.989 1013.49 534.939C1022.57 535.889 1027.4 543.217 1026.36 553.199L1026.14 555.246L1002.18 552.741C1001.59 559.601 1004.95 563.994 1010.87 564.613C1015.09 565.054 1018.29 563.254 1019.55 560.507L1019.67 560.229L1025.14 560.801L1025.04 561.114C1023.38 566.503 1017.49 570.285 1010.23 569.526ZM1012.94 539.862C1008.11 539.357 1003.99 542.258 1002.73 548.4L1020.94 550.303C1021.07 543.784 1017.8 540.371 1012.94 539.862ZM1050.22 573.06L1044.39 538.816L1049.92 539.395L1053.75 567.155L1053.87 567.169L1064.22 540.89L1069.6 541.452L1074.32 569.306L1074.44 569.319L1083.93 542.95L1089.43 543.526L1076.68 575.826L1071.01 575.234L1066.19 548.696L1066.06 548.682L1055.88 573.652L1050.22 573.06ZM1097.73 538.701C1095.81 538.501 1094.41 536.769 1094.61 534.85C1094.81 532.898 1096.54 531.526 1098.46 531.727C1100.41 531.931 1101.79 533.627 1101.58 535.579C1101.38 537.498 1099.68 538.905 1097.73 538.701ZM1090.88 577.312L1094.36 544.041L1099.92 544.623L1096.45 577.894L1090.88 577.312ZM1114.77 580.457C1108.66 579.818 1105.94 576.752 1106.61 570.386L1108.72 550.199L1103.86 549.691L1104.34 545.084L1109.2 545.593L1110.14 536.603L1115.9 537.205L1114.96 546.195L1121.29 546.857L1120.81 551.464L1114.48 550.801L1112.37 570.956C1112 574.507 1113.46 575.662 1116.44 575.974C1117.11 576.044 1117.76 576.015 1118.24 576.033L1117.77 580.544C1117.06 580.566 1115.86 580.57 1114.77 580.457ZM1124.09 580.783L1128.91 534.62L1134.48 535.202L1132.58 553.405L1132.7 553.418C1134.89 549.863 1138.73 548.033 1143.69 548.552C1150.76 549.291 1155.02 555.266 1154.18 563.328L1152.05 583.707L1146.48 583.125L1148.51 563.706C1149.14 557.692 1146.44 553.819 1141.26 553.278C1136.11 552.739 1132.27 556.284 1131.68 561.947L1129.65 581.365L1124.09 580.783ZM1182.21 587.507C1175.59 586.815 1171.56 582.351 1172.19 576.305L1172.2 576.241C1172.79 570.578 1177.58 567.489 1185.27 567.84L1194.86 568.293L1195.15 565.51C1195.58 561.447 1193.18 558.706 1188.54 558.221C1184.25 557.773 1181.35 559.539 1180.4 562.448L1180.31 562.729L1174.93 562.167L1175 561.818C1176.05 556.398 1181.28 552.482 1189.12 553.301C1196.99 554.124 1201.47 558.894 1200.77 565.548L1198.37 588.55L1192.8 587.968L1193.37 582.561L1193.24 582.548C1190.91 585.991 1186.66 587.972 1182.21 587.507ZM1177.89 576.9C1177.55 580.099 1179.96 582.389 1183.96 582.807C1189.21 583.355 1193.62 580.162 1194.12 575.331L1194.41 572.612L1185.46 572.226C1180.98 572.017 1178.22 573.733 1177.89 576.836L1177.89 576.9ZM1239.01 593.575C1226.12 592.227 1218.85 581.991 1220.39 567.275L1220.39 567.243C1221.9 552.815 1231.11 544.528 1244 545.876C1254.62 546.987 1260.35 553.763 1261.64 562.145L1261.74 562.769L1255.69 562.137L1255.6 561.772C1254.07 555.693 1249.94 551.866 1243.45 551.187C1233.94 550.194 1227.47 556.47 1226.28 567.858L1226.27 567.89C1225.06 579.503 1230.16 587.281 1239.57 588.265C1247.76 589.121 1253.94 584.399 1254.75 576.657L1254.84 575.825L1241.82 574.464L1242.35 569.41L1261.13 571.373L1260.67 575.756C1259.37 588.232 1251.33 594.863 1239.01 593.575ZM1272.4 556.963C1270.48 556.763 1269.08 555.031 1269.28 553.112C1269.48 551.16 1271.21 549.788 1273.13 549.989C1275.08 550.193 1276.46 551.889 1276.25 553.841C1276.05 555.76 1274.35 557.167 1272.4 556.963ZM1265.55 595.573L1269.03 562.303L1274.6 562.885L1271.12 596.155L1265.55 595.573ZM1289.45 598.718C1283.34 598.08 1280.62 595.014 1281.28 588.648L1283.39 568.461L1278.53 567.953L1279.01 563.346L1283.87 563.855L1284.81 554.865L1290.57 555.467L1289.63 564.457L1295.97 565.119L1295.48 569.726L1289.15 569.063L1287.04 589.218C1286.67 592.769 1288.14 593.924 1291.11 594.235C1291.78 594.306 1292.43 594.277 1292.92 594.295L1292.44 598.806C1291.73 598.828 1290.53 598.832 1289.45 598.718ZM1299.33 599.105L1304.16 552.942L1309.92 553.544L1307.83 573.507L1333.17 576.156L1335.26 556.193L1341.01 556.795L1336.19 602.959L1330.43 602.356L1332.63 581.338L1307.29 578.689L1305.09 599.708L1299.33 599.105ZM1355.57 605.632C1348.28 604.869 1344.55 599.693 1345.34 592.111L1347.6 570.517L1353.17 571.099L1351.01 591.701C1350.45 597.108 1352.66 600.347 1357.78 600.883C1363.03 601.431 1366.84 598.046 1367.43 592.384L1369.48 572.805L1375.05 573.387L1371.57 606.658L1366 606.076L1366.5 601.341L1366.37 601.328C1364.25 604.244 1360.63 606.16 1355.57 605.632ZM1395.3 609.786C1390.54 609.288 1387.08 606.5 1385.4 602.412L1385.27 602.399L1384.69 608.029L1379.12 607.447L1383.95 561.284L1389.51 561.866L1387.58 580.325L1387.71 580.338C1390.19 576.717 1394.31 574.754 1399.01 575.246C1407.36 576.119 1412.35 583.464 1411.25 593.957L1411.25 593.989C1410.15 604.482 1403.81 610.676 1395.3 609.786ZM1394.73 604.746C1400.62 605.361 1404.76 601.04 1405.56 593.394L1405.56 593.362C1406.35 585.78 1403.2 580.664 1397.31 580.048C1391.72 579.463 1387.17 583.936 1386.4 591.358L1386.39 591.39C1385.61 598.844 1389.1 604.157 1394.73 604.746ZM1428.55 612.615L1432.02 579.344L1437.59 579.926L1437 585.556L1437.13 585.57C1438.65 581.848 1441.78 579.717 1445.53 580.109C1446.49 580.209 1447.3 580.456 1447.74 580.567L1447.18 585.973C1446.75 585.767 1445.58 585.483 1444.24 585.342C1439.92 584.891 1436.79 587.604 1436.26 592.658L1434.11 613.197L1428.55 612.615ZM1460.79 616.633C1451.22 615.633 1446.17 608.344 1447.26 597.883L1447.26 597.851C1448.34 587.55 1454.97 581.095 1464.05 582.045C1473.14 582.995 1477.96 590.324 1476.92 600.305L1476.71 602.353L1452.75 599.847C1452.16 606.707 1455.51 611.101 1461.43 611.719C1465.66 612.161 1468.85 610.36 1470.11 607.614L1470.24 607.336L1475.71 607.908L1475.61 608.221C1473.95 613.61 1468.05 617.392 1460.79 616.633ZM1463.5 586.969C1458.67 586.464 1454.55 589.364 1453.3 595.507L1471.5 597.41C1471.63 590.891 1468.37 587.477 1463.5 586.969ZM1479.59 629.27L1484.23 584.802L1489.8 585.384L1489.21 591.015L1489.34 591.028C1491.82 587.375 1495.79 585.363 1500.55 585.862C1509.06 586.751 1513.98 594.122 1512.89 604.615L1512.88 604.647C1511.79 615.14 1505.39 621.295 1497.04 620.422C1492.33 619.93 1488.71 617.158 1487.03 613.102L1486.9 613.089L1485.15 629.852L1479.59 629.27ZM1496.37 615.372C1502.25 615.987 1506.4 611.634 1507.19 604.052L1507.19 604.02C1507.99 596.374 1504.84 591.29 1498.95 590.675C1493.32 590.086 1488.81 594.562 1488.03 602.016L1488.03 602.048C1487.25 609.47 1490.77 614.786 1496.37 615.372ZM1530.5 623.921C1521.25 622.954 1515.78 615.622 1516.89 605.033L1516.89 604.969C1518 594.38 1524.9 588.407 1534.08 589.367C1543.26 590.327 1548.81 597.569 1547.7 608.19L1547.69 608.254C1546.58 618.875 1539.68 624.881 1530.5 623.921ZM1531.05 618.997C1536.9 619.609 1541.18 615.465 1542 607.659L1542.01 607.595C1542.82 599.789 1539.45 594.909 1533.56 594.293C1527.77 593.688 1523.4 597.791 1522.59 605.565L1522.58 605.629C1521.76 613.466 1525.16 618.382 1531.05 618.997Z" fill="black"/>
</g>
</g>
<defs>
<filter id="filter0_d_711_56" x="282.519" y="359.8" width="1354.96" height="366.401" filterUnits="userSpaceOnUse" color-interpolation-filters="sRGB">
<feFlood flood-opacity="0" result="BackgroundImageFix"/>
<feColorMatrix in="SourceAlpha" type="matrix" values="0 0 0 0 0 0 0 0 0 0 0 0 0 0 0 0 0 0 127 0" result="hardAlpha"/>
<feOffset dy="3"/>
<feGaussianBlur stdDeviation="1.5"/>
<feComposite in2="hardAlpha" operator="out"/>
<feColorMatrix type="matrix" values="0 0 0 0 0 0 0 0 0 0 0 0 0 0 0 0 0 0 0.25 0"/>
<feBlend mode="normal" in2="BackgroundImageFix" result="effect1_dropShadow_711_56"/>
<feBlend mode="normal" in="SourceGraphic" in2="effect1_dropShadow_711_56" result="shape"/>
</filter>
<clipPath id="clip0_711_56">
<rect x="308.707" y="359.8" width="1333" height="223" rx="18" transform="rotate(5.96859 308.707 359.8)" fill="white"/>
</clipPath>
</defs>
</svg>
