<svg width="1920" height="1080" viewBox="0 0 1920 1080" fill="none" xmlns="http://www.w3.org/2000/svg">
<rect width="1920" height="1080" fill="#DDDDDD"/>
<g filter="url(#filter0_d_711_80)">
<g clip-path="url(#clip0_711_80)">
<rect x="382.479" y="292.272" width="1220" height="302" rx="18" transform="rotate(9.31338 382.479 292.272)" fill="white"/>
<path d="M436.125 437.873L443.637 392.07L471.442 396.63L470.599 401.772L448.507 398.149L445.925 413.893L466.208 417.219L465.375 422.298L445.092 418.971L441.839 438.81L436.125 437.873ZM481.919 446.035C472.746 444.53 467.708 436.892 469.431 426.385L469.441 426.322C471.164 415.815 478.4 410.255 487.51 411.749C496.619 413.243 501.737 420.797 500.008 431.335L499.998 431.398C498.27 441.936 491.029 447.529 481.919 446.035ZM482.753 441.152C488.561 442.104 493.078 438.217 494.348 430.472L494.358 430.408C495.629 422.663 492.548 417.595 486.708 416.637C480.963 415.695 476.356 419.535 475.091 427.248L475.081 427.312C473.806 435.089 476.912 440.194 482.753 441.152ZM503.163 448.867L510.675 403.064L516.198 403.97L508.686 449.773L503.163 448.867ZM516.431 451.043L523.943 405.24L529.466 406.145L521.954 451.949L516.431 451.043ZM542.99 456.05C533.817 454.546 528.779 446.907 530.502 436.401L530.512 436.337C532.235 425.831 539.47 420.27 548.58 421.764C557.69 423.258 562.807 430.812 561.079 441.35L561.069 441.414C559.34 451.952 552.1 457.544 542.99 456.05ZM543.823 451.167C549.632 452.12 554.149 448.232 555.419 440.487L555.429 440.424C556.699 432.679 553.619 427.61 547.779 426.652C542.033 425.71 537.427 429.551 536.162 437.264L536.152 437.327C534.876 445.104 537.983 450.209 543.823 451.167ZM570.487 459.908L566.664 425.382L572.155 426.282L574.354 454.218L574.481 454.239L586.344 428.609L591.676 429.484L594.764 457.565L594.891 457.586L605.897 431.816L611.356 432.711L596.737 464.213L591.119 463.291L587.85 436.516L587.723 436.495L576.105 460.829L570.487 459.908ZM634.437 471.047C628.375 470.053 625.839 466.834 626.875 460.517L630.159 440.488L625.335 439.697L626.084 435.126L630.909 435.918L632.372 426.998L638.085 427.935L636.622 436.855L642.907 437.885L642.158 442.456L635.873 441.425L632.593 461.423C632.016 464.946 633.409 466.185 636.361 466.669C637.028 466.778 637.678 466.787 638.16 466.834L637.426 471.309C636.712 471.29 635.517 471.224 634.437 471.047ZM643.715 471.917L651.226 426.114L656.749 427.019L653.787 445.08L653.914 445.101C656.301 441.679 660.247 440.077 665.167 440.884C672.182 442.034 676.085 448.248 674.773 456.247L671.457 476.466L665.934 475.561L669.094 456.293C670.072 450.326 667.603 446.303 662.461 445.46C657.35 444.622 653.319 447.937 652.398 453.555L649.238 472.823L643.715 471.917ZM691.953 480.48C682.462 478.923 677.837 471.352 679.539 460.973L679.544 460.941C681.22 450.72 688.211 444.663 697.226 446.141C706.24 447.62 710.633 455.218 709.009 465.121L708.676 467.153L684.902 463.254C683.915 470.067 687.01 474.649 692.882 475.612C697.072 476.299 700.367 474.688 701.783 472.02L701.925 471.75L707.353 472.64L707.237 472.947C705.262 478.229 699.158 481.661 691.953 480.48ZM696.392 451.024C691.599 450.238 687.318 452.894 685.705 458.952L703.766 461.914C704.278 455.414 701.217 451.816 696.392 451.024ZM734.572 447.181C732.668 446.869 731.368 445.059 731.68 443.154C731.998 441.218 733.803 439.949 735.707 440.262C737.643 440.579 738.917 442.353 738.6 444.289C738.287 446.193 736.509 447.499 734.572 447.181ZM725.481 485.326L730.895 452.315L736.418 453.221L731.004 486.232L725.481 485.326ZM738.527 487.466L743.941 454.454L749.464 455.36L748.693 460.058L748.82 460.079C751.103 457.291 754.837 455.589 759.852 456.412C767.089 457.599 770.508 462.984 769.275 470.506L765.761 491.932L760.238 491.026L763.59 470.585C764.47 465.22 762.447 461.857 757.368 461.024C752.162 460.17 748.157 463.327 747.236 468.945L744.05 488.371L738.527 487.466ZM784.416 495.643C776.639 494.368 772.592 489.63 772.894 483.616L772.909 483.326L778.432 484.231L778.444 484.559C778.569 487.97 780.695 490.307 785.203 491.046C789.678 491.78 792.652 490.344 793.141 487.361L793.146 487.329C793.537 484.948 792.517 483.412 788.923 481.877L783.894 479.749C777.917 477.237 775.375 473.854 776.156 469.092L776.161 469.061C777.093 463.379 782.738 460.165 789.879 461.336C797.116 462.523 801.027 467.5 800.534 473.09L800.498 473.508L795.229 472.644L795.233 472.417C795.315 469.138 793.219 466.61 789.125 465.939C785.125 465.283 782.332 466.813 781.853 469.733L781.848 469.765C781.478 472.019 782.715 473.819 786.219 475.306L791.249 477.435C797.649 480.147 799.629 483.177 798.859 487.875L798.853 487.906C797.906 493.683 791.78 496.851 784.416 495.643ZM813.714 500.448C807.651 499.454 805.115 496.234 806.151 489.918L809.436 469.889L804.611 469.098L805.36 464.527L810.185 465.318L811.648 456.399L817.361 457.336L815.899 466.255L822.183 467.286L821.434 471.857L815.149 470.826L811.87 490.823C811.292 494.346 812.686 495.586 815.638 496.07C816.304 496.179 816.955 496.188 817.436 496.234L816.702 500.71C815.988 500.69 814.793 500.625 813.714 500.448ZM822.705 501.27L828.119 468.259L833.642 469.165L832.726 474.752L832.853 474.772C834.588 471.146 837.841 469.202 841.555 469.811C842.507 469.967 843.306 470.261 843.74 470.397L842.86 475.762C842.442 475.53 841.294 475.179 839.96 474.96C835.675 474.257 832.393 476.783 831.57 481.798L828.228 502.176L822.705 501.27ZM853.93 507.043C846.693 505.856 843.274 500.471 844.507 492.949L848.021 471.523L853.544 472.429L850.192 492.87C849.312 498.235 851.335 501.598 856.414 502.431C861.62 503.285 865.625 500.128 866.546 494.51L869.732 475.084L875.255 475.989L869.842 509.001L864.319 508.095L865.089 503.397L864.962 503.376C862.68 506.164 858.945 507.866 853.93 507.043ZM890.623 513.061C881.26 511.525 876.417 503.886 878.14 493.379L878.145 493.348C879.853 482.937 887.008 477.265 896.182 478.769C904.403 480.118 908.364 486.374 908.136 492.138L908.126 492.397L902.73 491.512L902.708 491.248C902.424 487.812 900.237 484.454 895.38 483.658C889.635 482.715 885.013 486.847 883.785 494.338L883.78 494.37C882.52 502.051 885.712 507.236 891.425 508.172C895.932 508.912 899.237 506.846 900.762 503.315L900.867 503.071L906.294 503.962L906.226 504.179C904.307 510.318 898.083 514.284 890.623 513.061ZM920.238 517.917C914.176 516.923 911.64 513.704 912.675 507.388L915.96 487.359L911.135 486.567L911.885 481.997L916.71 482.788L918.172 473.868L923.886 474.805L922.423 483.725L928.708 484.755L927.958 489.326L921.674 488.296L918.394 508.293C917.816 511.816 919.21 513.055 922.162 513.539C922.829 513.649 923.479 513.657 923.961 513.704L923.227 518.179C922.513 518.16 921.317 518.094 920.238 517.917ZM938.67 480.653C936.766 480.34 935.466 478.53 935.778 476.625C936.096 474.689 937.901 473.421 939.805 473.733C941.742 474.05 943.015 475.824 942.698 477.76C942.385 479.665 940.607 480.97 938.67 480.653ZM929.579 518.797L934.993 485.786L940.516 486.692L935.102 519.703L929.579 518.797ZM956.201 523.815C947.028 522.311 941.99 514.672 943.713 504.166L943.723 504.102C945.446 493.596 952.682 488.035 961.792 489.529C970.901 491.023 976.019 498.577 974.29 509.115L974.28 509.179C972.552 519.717 965.311 525.309 956.201 523.815ZM957.035 518.932C962.843 519.885 967.36 515.997 968.63 508.252L968.64 508.189C969.911 500.444 966.83 495.375 960.99 494.417C955.245 493.475 950.638 497.316 949.373 505.029L949.363 505.092C948.088 512.869 951.194 517.974 957.035 518.932ZM977.16 526.6L982.573 493.589L988.096 494.495L987.326 499.193L987.453 499.214C989.735 496.426 993.47 494.724 998.485 495.547C1005.72 496.734 1009.14 502.118 1007.91 509.641L1004.39 531.067L998.871 530.161L1002.22 509.719C1003.1 504.355 1001.08 500.992 996.001 500.159C990.795 499.305 986.79 502.462 985.868 508.08L982.683 527.506L977.16 526.6ZM1023.05 534.778C1015.27 533.503 1011.23 528.765 1011.53 522.751L1011.54 522.46L1017.07 523.366L1017.08 523.694C1017.2 527.104 1019.33 529.441 1023.84 530.181C1028.31 530.915 1031.28 529.479 1031.77 526.495L1031.78 526.464C1032.17 524.083 1031.15 522.547 1027.56 521.012L1022.53 518.884C1016.55 516.371 1014.01 512.988 1014.79 508.227L1014.79 508.196C1015.73 502.514 1021.37 499.3 1028.51 500.471C1035.75 501.658 1039.66 506.634 1039.17 512.225L1039.13 512.643L1033.86 511.779L1033.87 511.551C1033.95 508.273 1031.85 505.745 1027.76 505.074C1023.76 504.418 1020.96 505.948 1020.49 508.868L1020.48 508.9C1020.11 511.154 1021.35 512.954 1024.85 514.441L1029.88 516.569C1036.28 519.281 1038.26 522.312 1037.49 527.009L1037.49 527.041C1036.54 532.818 1030.41 535.986 1023.05 534.778ZM1065.68 541.769C1059.62 540.775 1057.08 537.556 1058.12 531.239L1061.4 511.21L1056.58 510.419L1057.32 505.848L1062.15 506.639L1063.61 497.72L1069.33 498.657L1067.86 507.576L1074.15 508.607L1073.4 513.178L1067.11 512.147L1063.83 532.144C1063.26 535.668 1064.65 536.907 1067.6 537.391C1068.27 537.5 1068.92 537.509 1069.4 537.555L1068.67 542.031C1067.95 542.012 1066.76 541.946 1065.68 541.769ZM1074.96 542.638L1082.47 496.835L1087.99 497.741L1085.03 515.802L1085.15 515.823C1087.54 512.401 1091.49 510.799 1096.41 511.606C1103.42 512.756 1107.33 518.97 1106.01 526.969L1102.7 547.188L1097.17 546.282L1100.33 527.015C1101.31 521.048 1098.84 517.025 1093.7 516.181C1088.59 515.343 1084.56 518.659 1083.64 524.277L1080.48 543.544L1074.96 542.638ZM1119.26 550.556C1112.69 549.478 1108.93 544.787 1109.91 538.788L1109.92 538.724C1110.84 533.106 1115.8 530.301 1123.46 531.101L1133.01 532.113L1133.46 529.351C1134.12 525.32 1131.89 522.444 1127.28 521.689C1123.03 520.991 1120.03 522.586 1118.91 525.433L1118.8 525.709L1113.47 524.834L1113.56 524.49C1114.92 519.14 1120.37 515.536 1128.15 516.811C1135.96 518.092 1140.15 523.115 1139.07 529.717L1135.33 552.539L1129.8 551.634L1130.68 546.269L1130.56 546.248C1128.03 549.549 1123.67 551.279 1119.26 550.556ZM1115.56 539.714C1115.04 542.889 1117.31 545.315 1121.28 545.966C1126.49 546.82 1131.07 543.889 1131.86 539.096L1132.3 536.398L1123.39 535.49C1118.94 535.02 1116.07 536.572 1115.57 539.651L1115.56 539.714ZM1152.97 556.084C1146.9 555.09 1144.37 551.871 1145.4 545.554L1148.69 525.525L1143.86 524.734L1144.61 520.163L1149.44 520.954L1150.9 512.035L1156.61 512.972L1155.15 521.891L1161.44 522.922L1160.69 527.493L1154.4 526.462L1151.12 546.459C1150.55 549.983 1151.94 551.222 1154.89 551.706C1155.56 551.815 1156.21 551.824 1156.69 551.87L1155.96 556.346C1155.24 556.327 1154.05 556.261 1152.97 556.084ZM1176.64 570.723C1175.56 570.546 1174.41 570.227 1173.73 569.985L1174.47 565.478C1174.93 565.651 1175.55 565.85 1176.22 565.96C1179.71 566.532 1181.79 565.961 1183.74 562.434L1184.71 560.671L1177.88 525.619L1183.78 526.587L1188.38 555.569L1188.51 555.59L1202.16 529.601L1207.97 530.553L1189.33 563.514C1185.95 569.446 1182.61 571.702 1176.64 570.723ZM1219.21 566.948C1210.04 565.443 1205 557.805 1206.72 547.298L1206.73 547.235C1208.46 536.728 1215.69 531.168 1224.8 532.662C1233.91 534.156 1239.03 541.71 1237.3 552.248L1237.29 552.311C1235.56 562.849 1228.32 568.442 1219.21 566.948ZM1220.05 562.065C1225.85 563.017 1230.37 559.13 1231.64 551.385L1231.65 551.321C1232.92 543.576 1229.84 538.508 1224 537.55C1218.26 536.608 1213.65 540.448 1212.38 548.161L1212.37 548.225C1211.1 556.002 1214.2 561.107 1220.05 562.065ZM1251.33 572.216C1244.1 571.029 1240.68 565.644 1241.91 558.121L1245.42 536.696L1250.95 537.602L1247.6 558.043C1246.72 563.407 1248.74 566.771 1253.82 567.604C1259.02 568.457 1263.03 565.3 1263.95 559.682L1267.14 540.256L1272.66 541.162L1267.25 574.173L1261.72 573.268L1262.49 568.57L1262.37 568.549C1260.08 571.336 1256.35 573.038 1251.33 572.216ZM1278.53 544.928L1283.87 529.864L1289.64 530.812L1282.46 545.573L1278.53 544.928ZM1287.75 577.536L1295.26 531.733L1300.79 532.639L1293.27 578.442L1287.75 577.536ZM1301.02 579.712L1308.53 533.909L1314.05 534.815L1306.54 580.618L1301.02 579.712ZM1329.11 584.319L1333.77 555.878L1329.17 555.124L1329.92 550.553L1334.52 551.308L1335.19 547.245C1336.23 540.896 1339.68 538.365 1345.77 539.365C1347.01 539.568 1348.3 539.876 1349.1 540.138L1348.37 544.614C1347.71 544.41 1346.86 544.237 1346.01 544.097C1342.96 543.597 1341.18 544.902 1340.64 548.172L1339.98 552.203L1346.78 553.317L1346.03 557.888L1339.3 556.784L1334.63 585.225L1329.11 584.319ZM1356.52 549.178C1354.61 548.865 1353.31 547.055 1353.62 545.15C1353.94 543.214 1355.75 541.946 1357.65 542.258C1359.59 542.575 1360.86 544.349 1360.54 546.285C1360.23 548.19 1358.45 549.495 1356.52 549.178ZM1347.42 587.322L1352.84 554.311L1358.36 555.217L1352.95 588.228L1347.42 587.322ZM1360.47 589.462L1365.88 556.451L1371.41 557.356L1370.64 562.054L1370.76 562.075C1373.05 559.288 1376.78 557.586 1381.8 558.408C1389.03 559.595 1392.45 564.98 1391.22 572.503L1387.7 593.928L1382.18 593.022L1385.53 572.581C1386.41 567.217 1384.39 563.853 1379.31 563.02C1374.11 562.167 1370.1 565.324 1369.18 570.942L1365.99 590.368L1360.47 589.462ZM1407.06 597.754C1398.61 596.369 1394.13 588.724 1395.84 578.313L1395.84 578.281C1397.55 567.87 1404.3 562.099 1412.58 563.457C1417.25 564.223 1420.71 567.201 1422.14 571.349L1422.27 571.37L1425.28 553.055L1430.8 553.96L1423.29 599.764L1417.76 598.858L1418.68 593.271L1418.55 593.25C1415.86 596.753 1411.79 598.53 1407.06 597.754ZM1408.94 593.043C1414.53 593.959 1419.29 589.753 1420.5 582.357L1420.51 582.326C1421.72 574.962 1418.51 569.449 1412.96 568.538C1407.12 567.58 1402.73 571.685 1401.49 579.208L1401.49 579.239C1400.25 586.825 1403.1 592.085 1408.94 593.043ZM1453.62 605.39C1447.05 604.313 1443.29 599.622 1444.27 593.622L1444.29 593.559C1445.21 587.941 1450.16 585.136 1457.82 585.935L1467.37 586.947L1467.82 584.186C1468.49 580.154 1466.25 577.278 1461.65 576.523C1457.4 575.826 1454.4 577.42 1453.28 580.268L1453.17 580.543L1447.83 579.669L1447.92 579.325C1449.29 573.975 1454.74 570.37 1462.51 571.646C1470.32 572.926 1474.52 577.95 1473.44 584.552L1469.69 607.374L1464.17 606.468L1465.05 601.104L1464.92 601.083C1462.39 604.384 1458.03 606.114 1453.62 605.39ZM1449.92 594.549C1449.4 597.723 1451.68 600.15 1455.65 600.8C1460.85 601.654 1465.44 598.723 1466.23 593.93L1466.67 591.232L1457.76 590.325C1453.3 589.855 1450.44 591.407 1449.94 594.486L1449.92 594.549ZM1487.33 610.919C1481.27 609.924 1478.73 606.705 1479.77 600.389L1483.05 580.36L1478.23 579.569L1478.98 574.998L1483.8 575.789L1485.27 566.87L1490.98 567.807L1489.52 576.726L1495.8 577.757L1495.05 582.327L1488.77 581.297L1485.49 601.294C1484.91 604.817 1486.3 606.056 1489.26 606.54C1489.92 606.65 1490.57 606.659 1491.05 606.705L1490.32 611.181C1489.61 611.161 1488.41 611.096 1487.33 610.919ZM434.524 529.726C426.366 528.388 421.854 523.704 421.576 518.639L421.559 518.343L427.114 519.254L427.194 519.56C427.851 522.112 430.754 524.088 435.262 524.827C441.07 525.78 444.897 523.115 445.735 518.005L446.428 513.783L446.301 513.762C443.734 517.09 439.54 518.814 434.81 518.039C426.494 516.675 421.911 509.045 423.603 498.729L423.608 498.698C425.289 488.445 432.128 482.722 440.507 484.096C445.173 484.861 448.439 488.004 449.866 492.019L449.993 492.04L450.91 486.454L456.433 487.359L451.17 519.45C449.915 527.1 443.475 531.194 434.524 529.726ZM436.818 513.348C442.437 514.269 447.032 510.101 448.234 502.769L448.239 502.737C449.431 495.468 446.371 490.077 440.785 489.161C434.913 488.198 430.46 492.292 429.258 499.624L429.253 499.656C428.024 507.147 430.946 512.385 436.818 513.348ZM467.601 483.454C465.697 483.142 464.397 481.332 464.709 479.427C465.026 477.491 466.832 476.222 468.736 476.535C470.672 476.852 471.946 478.626 471.629 480.562C471.316 482.466 469.538 483.772 467.601 483.454ZM458.51 521.599L463.924 488.588L469.447 489.494L464.033 522.505L458.51 521.599ZM482.18 526.133C476.118 525.139 473.582 521.92 474.617 515.603L477.902 495.574L473.077 494.783L473.827 490.212L478.652 491.003L480.114 482.084L485.828 483.021L484.365 491.94L490.65 492.971L489.9 497.542L483.616 496.511L480.336 516.508C479.758 520.032 481.152 521.271 484.104 521.755C484.771 521.864 485.421 521.873 485.903 521.919L485.169 526.395C484.455 526.376 483.259 526.31 482.18 526.133ZM491.458 527.002L498.969 481.199L504.492 482.105L501.53 500.166L501.657 500.187C504.044 496.765 507.99 495.163 512.91 495.97C519.925 497.12 523.827 503.334 522.516 511.333L519.2 531.552L513.677 530.646L516.836 511.379C517.815 505.412 515.346 501.389 510.204 500.545C505.093 499.707 501.062 503.023 500.14 508.641L496.981 527.908L491.458 527.002ZM537.379 535.185C530.142 533.998 526.722 528.614 527.956 521.091L531.47 499.665L536.993 500.571L533.64 521.013C532.761 526.377 534.784 529.74 539.863 530.573C545.068 531.427 549.074 528.27 549.995 522.652L553.181 503.226L558.704 504.132L553.29 537.143L547.767 536.237L548.538 531.539L548.411 531.518C546.128 534.306 542.394 536.008 537.379 535.185ZM576.802 541.65C572.072 540.875 568.781 537.89 567.347 533.711L567.22 533.69L566.304 539.277L560.781 538.371L568.293 492.568L573.816 493.474L570.812 511.789L570.939 511.81C573.627 508.339 577.853 506.62 582.519 507.385C590.803 508.744 595.355 516.368 593.648 526.779L593.642 526.811C591.935 537.222 585.245 543.035 576.802 541.65ZM576.524 536.585C582.365 537.543 586.748 533.471 587.992 525.884L587.998 525.853C589.231 518.33 586.383 513.039 580.543 512.081C574.988 511.17 570.192 515.37 568.984 522.734L568.979 522.766C567.766 530.162 570.938 535.669 576.524 536.585ZM597.909 544.916C595.878 544.583 594.551 542.736 594.884 540.704C595.217 538.673 597.065 537.346 599.096 537.679C601.128 538.013 602.454 539.86 602.121 541.891C601.788 543.923 599.941 545.25 597.909 544.916ZM620.224 548.772C610.86 547.236 606.018 539.597 607.741 529.09L607.746 529.059C609.454 518.647 616.609 512.976 625.783 514.48C634.004 515.829 637.965 522.085 637.737 527.849L637.727 528.108L632.331 527.223L632.309 526.959C632.025 523.522 629.837 520.165 624.981 519.369C619.236 518.426 614.614 522.558 613.386 530.049L613.38 530.08C612.121 537.762 615.312 542.946 621.026 543.883C625.533 544.623 628.838 542.557 630.362 539.026L630.467 538.782L635.895 539.672L635.827 539.889C633.908 546.029 627.683 549.995 620.224 548.772ZM652.791 554.112C643.618 552.608 638.579 544.969 640.303 534.463L640.313 534.399C642.036 523.893 649.271 518.332 658.381 519.826C667.491 521.32 672.608 528.874 670.88 539.412L670.87 539.476C669.141 550.014 661.901 555.606 652.791 554.112ZM653.624 549.229C659.433 550.182 663.949 546.294 665.22 538.549L665.23 538.486C666.5 530.741 663.42 525.672 657.58 524.715C651.834 523.772 647.228 527.613 645.963 535.326L645.953 535.39C644.677 543.166 647.784 548.272 653.624 549.229ZM673.749 556.898L679.163 523.886L684.686 524.792L683.895 529.617L684.022 529.638C686.05 526.613 689.71 524.964 693.963 525.662C698.471 526.401 701.424 529.265 702.191 533.53L702.318 533.551C704.81 529.885 709.072 528.139 713.707 528.899C720.245 529.972 723.764 534.949 722.687 541.52L718.949 564.31L713.426 563.404L716.956 541.884C717.7 537.345 715.635 534.235 711.286 533.522C706.906 532.804 703.291 535.568 702.552 540.076L699.111 561.057L693.588 560.151L697.216 538.027C697.872 534.028 695.638 530.956 691.543 530.284C687.163 529.566 683.421 532.505 682.666 537.108L679.272 557.803L673.749 556.898ZM748.108 522.057L725.856 576.851L720.587 575.987L742.839 521.193L748.108 522.057ZM753.529 530.345C751.625 530.033 750.324 528.223 750.637 526.318C750.954 524.382 752.759 523.113 754.664 523.426C756.6 523.743 757.874 525.517 757.556 527.453C757.244 529.357 755.465 530.663 753.529 530.345ZM737.913 578.861C737.564 578.804 737.214 578.747 736.871 578.658L737.667 573.801L738.524 573.942C742.111 574.53 743.594 573.632 744.198 569.95L749.851 535.479L755.374 536.385L749.732 570.793C748.633 577.49 744.959 580.017 737.913 578.861ZM767.029 572.847C760.458 571.769 756.697 567.078 757.681 561.079L757.691 561.016C758.612 555.397 763.571 552.592 771.23 553.392L780.777 554.404L781.23 551.642C781.891 547.611 779.657 544.735 775.055 543.98C770.802 543.283 767.802 544.877 766.683 547.725L766.573 548L761.24 547.125L761.329 546.781C762.696 541.432 768.143 537.827 775.92 539.102C783.728 540.383 787.924 545.406 786.842 552.008L783.099 574.83L777.576 573.925L778.456 568.56L778.329 568.54C775.799 571.841 771.441 573.571 767.029 572.847ZM763.331 562.006C762.81 565.18 765.085 567.606 769.053 568.257C774.258 569.111 778.846 566.18 779.632 561.387L780.074 558.689L771.162 557.781C766.708 557.312 763.846 558.863 763.341 561.942L763.331 562.006ZM799.414 577.506L792.671 542.501L798.479 543.454L803.139 572.087L803.266 572.108L816.858 546.468L822.603 547.41L805.064 578.433L799.414 577.506ZM830.978 543.047C829.074 542.734 827.774 540.924 828.086 539.02C828.403 537.083 830.209 535.815 832.113 536.127C834.049 536.445 835.323 538.218 835.006 540.154C834.693 542.059 832.915 543.364 830.978 543.047ZM821.887 581.192L827.301 548.18L832.824 549.086L827.41 582.097L821.887 581.192ZM848.414 586.194C838.923 584.637 834.298 577.066 836 566.687L836.005 566.655C837.681 556.434 844.672 550.377 853.687 551.856C862.701 553.334 867.094 560.932 865.47 570.835L865.137 572.867L841.363 568.968C840.376 575.781 843.47 580.363 849.343 581.326C853.533 582.014 856.828 580.403 858.244 577.734L858.386 577.464L863.813 578.354L863.698 578.661C861.723 583.944 855.619 587.375 848.414 586.194ZM852.853 556.739C848.06 555.953 843.779 558.608 842.166 564.667L860.227 567.629C860.739 561.128 857.678 557.53 852.853 556.739ZM868.261 588.797L873.675 555.786L879.198 556.691L878.282 562.278L878.409 562.299C880.145 558.672 883.397 556.728 887.111 557.337C888.063 557.493 888.862 557.787 889.296 557.924L888.416 563.288C887.998 563.056 886.85 562.705 885.516 562.486C881.231 561.784 877.949 564.309 877.126 569.324L873.784 589.703L868.261 588.797ZM897.233 594.2C890.662 593.122 886.901 588.431 887.884 582.432L887.895 582.368C888.816 576.75 893.774 573.945 901.434 574.745L910.981 575.757L911.434 572.995C912.095 568.964 909.861 566.088 905.259 565.333C901.005 564.635 898.006 566.23 896.887 569.077L896.777 569.353L891.444 568.478L891.533 568.134C892.899 562.785 898.347 559.18 906.124 560.455C913.932 561.736 918.128 566.759 917.045 573.361L913.303 596.183L907.78 595.278L908.659 589.913L908.532 589.892C906.003 593.193 901.645 594.923 897.233 594.2ZM893.534 583.358C893.014 586.533 895.289 588.959 899.256 589.61C904.462 590.464 909.05 587.533 909.836 582.74L910.278 580.042L901.366 579.134C896.912 578.665 894.05 580.216 893.545 583.295L893.534 583.358ZM920.317 597.334L925.731 564.323L931.254 565.228L930.338 570.815L930.465 570.836C932.201 567.209 935.453 565.265 939.167 565.874C940.119 566.03 940.918 566.324 941.352 566.461L940.472 571.825C940.054 571.593 938.906 571.242 937.573 571.023C933.287 570.321 930.005 572.846 929.182 577.861L925.841 598.24L920.317 597.334ZM952.368 603.242C943.004 601.706 938.161 594.067 939.884 583.561L939.89 583.529C941.597 573.118 948.753 567.446 957.926 568.951C966.147 570.299 970.108 576.555 969.88 582.319L969.87 582.578L964.474 581.693L964.452 581.429C964.168 577.993 961.981 574.635 957.124 573.839C951.379 572.897 946.758 577.028 945.529 584.519L945.524 584.551C944.264 592.232 947.456 597.417 953.169 598.354C957.677 599.093 960.981 597.027 962.506 593.496L962.611 593.253L968.039 594.143L967.971 594.36C966.051 600.499 959.827 604.465 952.368 603.242ZM984.839 608.567C975.348 607.011 970.723 599.44 972.425 589.06L972.43 589.028C974.106 578.808 981.097 572.751 990.112 574.229C999.127 575.707 1003.52 583.305 1001.9 593.209L1001.56 595.24L977.788 591.341C976.801 598.155 979.896 602.737 985.768 603.7C989.958 604.387 993.253 602.776 994.669 600.107L994.811 599.837L1000.24 600.727L1000.12 601.034C998.148 606.317 992.044 609.749 984.839 608.567ZM989.279 579.112C984.486 578.326 980.204 580.981 978.591 587.04L996.652 590.002C997.164 583.502 994.103 579.903 989.279 579.112ZM1026.8 567.761L1004.55 622.555L999.278 621.691L1021.53 566.897L1026.8 567.761ZM1036.42 617.026C1027.06 615.49 1022.21 607.851 1023.94 597.345L1023.94 597.313C1025.65 586.902 1032.8 581.23 1041.98 582.735C1050.2 584.083 1054.16 590.339 1053.93 596.103L1053.92 596.362L1048.53 595.478L1048.5 595.213C1048.22 591.777 1046.03 588.419 1041.18 587.623C1035.43 586.681 1030.81 590.812 1029.58 598.303L1029.58 598.335C1028.32 606.016 1031.51 611.201 1037.22 612.138C1041.73 612.877 1045.03 610.811 1046.56 607.28L1046.66 607.037L1052.09 607.927L1052.02 608.144C1050.1 614.283 1043.88 618.249 1036.42 617.026ZM1068.99 622.367C1059.81 620.862 1054.77 613.224 1056.5 602.717L1056.51 602.654C1058.23 592.147 1065.47 586.587 1074.58 588.081C1083.69 589.575 1088.8 597.128 1087.08 607.667L1087.06 607.73C1085.34 618.268 1078.1 623.861 1068.99 622.367ZM1069.82 617.484C1075.63 618.436 1080.14 614.549 1081.41 606.804L1081.43 606.74C1082.7 598.995 1079.61 593.927 1073.77 592.969C1068.03 592.027 1063.42 595.867 1062.16 603.58L1062.15 603.644C1060.87 611.421 1063.98 616.526 1069.82 617.484ZM1089.94 625.152L1095.36 592.141L1100.88 593.046L1099.96 598.633L1100.09 598.654C1101.83 595.027 1105.08 593.083 1108.79 593.692C1109.75 593.848 1110.55 594.142 1110.98 594.279L1110.1 599.643C1109.68 599.411 1108.53 599.06 1107.2 598.842C1102.91 598.139 1099.63 600.664 1098.81 605.68L1095.47 626.058L1089.94 625.152ZM1121.99 631.06C1112.63 629.524 1107.79 621.885 1109.51 611.379L1109.52 611.347C1111.22 600.936 1118.38 595.264 1127.55 596.769C1135.77 598.117 1139.73 604.373 1139.51 610.137L1139.5 610.396L1134.1 609.512L1134.08 609.247C1133.79 605.811 1131.61 602.453 1126.75 601.657C1121.01 600.715 1116.38 604.846 1115.16 612.337L1115.15 612.369C1113.89 620.05 1117.08 625.235 1122.8 626.172C1127.3 626.911 1130.61 624.845 1132.13 621.314L1132.24 621.071L1137.67 621.961L1137.6 622.178C1135.68 628.317 1129.45 632.283 1121.99 631.06ZM1141.27 633.569L1148.78 587.766L1154.3 588.672L1151.34 606.733L1151.47 606.754C1153.86 603.331 1157.8 601.729 1162.72 602.536C1169.74 603.687 1173.64 609.901 1172.33 617.899L1169.01 638.119L1163.49 637.213L1166.65 617.946C1167.63 611.979 1165.16 607.955 1160.02 607.112C1154.91 606.274 1150.87 609.59 1149.95 615.208L1146.79 634.475L1141.27 633.569ZM1189.6 642.148C1180.43 640.643 1175.39 633.005 1177.12 622.498L1177.13 622.435C1178.85 611.928 1186.08 606.368 1195.19 607.862C1204.3 609.355 1209.42 616.909 1207.69 627.448L1207.68 627.511C1205.95 638.049 1198.71 643.642 1189.6 642.148ZM1190.44 637.265C1196.25 638.217 1200.76 634.329 1202.03 626.584L1202.04 626.521C1203.31 618.776 1200.23 613.708 1194.39 612.75C1188.65 611.808 1184.04 615.648 1182.78 623.361L1182.77 623.425C1181.49 631.201 1184.6 636.307 1190.44 637.265Z" fill="black"/>
<path d="M416.97 526.847L1205.02 656.084L1204.39 659.893L416.346 530.656L416.97 526.847Z" fill="black"/>
</g>
</g>
<defs>
<filter id="filter0_d_711_80" x="330.604" y="292.272" width="1258.79" height="501.457" filterUnits="userSpaceOnUse" color-interpolation-filters="sRGB">
<feFlood flood-opacity="0" result="BackgroundImageFix"/>
<feColorMatrix in="SourceAlpha" type="matrix" values="0 0 0 0 0 0 0 0 0 0 0 0 0 0 0 0 0 0 127 0" result="hardAlpha"/>
<feOffset dy="3"/>
<feGaussianBlur stdDeviation="1.5"/>
<feComposite in2="hardAlpha" operator="out"/>
<feColorMatrix type="matrix" values="0 0 0 0 0 0 0 0 0 0 0 0 0 0 0 0 0 0 0.25 0"/>
<feBlend mode="normal" in2="BackgroundImageFix" result="effect1_dropShadow_711_80"/>
<feBlend mode="normal" in="SourceGraphic" in2="effect1_dropShadow_711_80" result="shape"/>
</filter>
<clipPath id="clip0_711_80">
<rect x="382.479" y="292.272" width="1220" height="302" rx="18" transform="rotate(9.31338 382.479 292.272)" fill="white"/>
</clipPath>
</defs>
</svg>
