<svg width="1920" height="1080" viewBox="0 0 1920 1080" fill="none" xmlns="http://www.w3.org/2000/svg">
<rect width="1920" height="1080" fill="#DDDDDD"/>
<g filter="url(#filter0_d_711_64)">
<g clip-path="url(#clip0_711_64)">
<rect x="330.536" y="407.092" width="1201.65" height="460" rx="18" transform="rotate(-9.02465 330.536 407.092)" fill="white"/>
<path d="M438.863 526.579L432.4 485.885L417.946 488.181L417.128 483.034L451.755 477.535L452.572 482.681L438.118 484.977L444.581 525.671L438.863 526.579ZM464.499 522.507L457.219 476.667L462.746 475.789L465.617 493.865L465.744 493.845C466.933 489.845 470.174 487.083 475.098 486.301C482.119 485.186 487.779 489.856 489.05 497.862L492.264 518.098L486.737 518.976L483.674 499.693C482.725 493.721 479.116 490.679 473.969 491.496C468.855 492.308 466.071 496.724 466.964 502.347L470.027 521.63L464.499 522.507ZM512.982 515.459C503.484 516.967 496.711 511.236 495.061 500.848L495.056 500.816C493.431 490.587 498.162 482.638 507.183 481.205C516.205 479.772 522.766 485.602 524.34 495.514L524.663 497.547L500.869 501.326C502.076 508.104 506.455 511.48 512.332 510.546C516.525 509.88 519.147 507.314 519.651 504.336L519.701 504.035L525.133 503.172L525.12 503.5C524.907 509.135 520.193 514.313 512.982 515.459ZM507.929 486.102C503.132 486.864 499.903 490.732 500.278 496.99L518.354 494.12C516.795 487.788 512.757 485.336 507.929 486.102ZM547.749 520.684L540.735 476.528L546.263 475.65L547.151 481.241L547.278 481.221C548.732 477.049 552.039 474.081 556.772 473.329C565.222 471.987 571.883 477.834 573.538 488.254L573.543 488.285C575.198 498.705 570.608 506.306 562.317 507.623C557.647 508.365 553.43 506.624 550.759 503.14L550.632 503.16L553.276 519.806L547.749 520.684ZM560.364 502.917C566.21 501.989 569.084 496.712 567.888 489.183L567.883 489.152C566.678 481.559 562.314 477.465 556.469 478.393C550.878 479.281 547.679 484.772 548.855 492.174L548.86 492.206C550.03 499.576 554.805 503.8 560.364 502.917ZM581.753 503.885L576.505 470.847L582.033 469.969L582.921 475.56L583.048 475.54C583.554 471.551 586.03 468.682 589.747 468.092C590.7 467.941 591.551 467.968 592.006 467.961L592.859 473.33C592.389 473.242 591.188 473.27 589.854 473.482C585.565 474.163 583.244 477.593 584.041 482.612L587.28 503.007L581.753 503.885ZM613.939 499.424C604.44 500.933 597.668 495.201 596.018 484.814L596.013 484.782C594.388 474.553 599.118 466.604 608.14 465.171C617.162 463.738 623.722 469.568 625.297 479.479L625.619 481.512L601.826 485.292C603.033 492.07 607.412 495.445 613.289 494.512C617.482 493.846 620.103 491.28 620.607 488.301L620.657 488L626.089 487.137L626.076 487.465C625.864 493.101 621.15 498.279 613.939 499.424ZM608.885 470.068C604.088 470.83 600.86 474.697 601.235 480.956L619.31 478.085C617.751 471.754 613.714 469.301 608.885 470.068ZM645.42 494.424C637.637 495.66 632.305 492.436 630.699 486.633L630.622 486.352L636.15 485.474L636.264 485.782C637.455 488.98 640.209 490.529 644.72 489.813C649.2 489.101 651.57 486.803 651.096 483.817L651.091 483.785C650.713 481.403 649.262 480.265 645.367 479.939L639.923 479.501C633.46 478.997 629.983 476.586 629.226 471.82L629.221 471.789C628.318 466.102 632.665 461.276 639.812 460.14C647.055 458.99 652.332 462.484 653.623 467.945L653.721 468.353L648.447 469.191L648.38 468.974C647.426 465.836 644.642 464.096 640.544 464.747C636.541 465.382 634.371 467.714 634.835 470.636L634.84 470.668C635.198 472.924 636.939 474.243 640.733 474.552L646.177 474.991C653.105 475.551 655.938 477.804 656.685 482.506L656.69 482.538C657.608 488.319 652.79 493.253 645.42 494.424ZM677.6 489.313C668.102 490.822 661.329 485.09 659.68 474.702L659.674 474.671C658.05 464.442 662.78 456.493 671.802 455.06C680.824 453.627 687.384 459.457 688.958 469.368L689.281 471.401L665.488 475.18C666.694 481.958 671.074 485.334 676.951 484.401C681.144 483.735 683.765 481.169 684.269 478.19L684.319 477.889L689.751 477.026L689.738 477.354C689.526 482.99 684.812 488.168 677.6 489.313ZM672.547 459.957C667.75 460.719 664.521 464.586 664.897 470.845L682.972 467.974C681.413 461.643 677.376 459.19 672.547 459.957ZM697.259 485.539L692.012 452.501L697.539 451.623L698.286 456.325L698.413 456.305C699.702 452.941 702.712 450.15 707.731 449.353C714.974 448.203 719.914 452.238 721.11 459.767L724.515 481.21L718.988 482.088L715.738 461.63C714.886 456.261 711.907 453.706 706.824 454.513C701.614 455.34 698.806 459.597 699.699 465.22L702.786 484.661L697.259 485.539ZM742.406 479.02C736.338 479.984 732.918 477.726 731.914 471.404L728.731 451.359L723.902 452.126L723.175 447.552L728.004 446.785L726.586 437.858L732.304 436.95L733.722 445.877L740.012 444.878L740.739 449.452L734.449 450.451L737.627 470.464C738.187 473.991 739.9 474.728 742.855 474.259C743.522 474.153 744.142 473.957 744.614 473.849L745.325 478.329C744.641 478.535 743.486 478.849 742.406 479.02ZM760.323 476.175C753.747 477.219 748.7 473.949 747.747 467.945L747.737 467.882C746.844 462.259 750.668 458.036 758.189 456.386L767.57 454.342L767.131 451.579C766.491 447.544 763.465 445.517 758.859 446.248C754.602 446.924 752.257 449.381 752.091 452.437L752.072 452.733L746.736 453.58L746.712 453.226C746.326 447.718 750.363 442.582 758.146 441.346C765.96 440.105 771.524 443.553 772.573 450.161L776.201 473.001L770.673 473.879L769.821 468.511L769.693 468.531C768.331 472.46 764.738 475.473 760.323 476.175ZM753.401 467.047C753.906 470.224 756.829 471.812 760.8 471.181C766.01 470.353 769.442 466.128 768.68 461.331L768.251 458.631L759.506 460.574C755.131 461.529 752.902 463.902 753.391 466.984L753.401 467.047ZM794.06 470.816C787.992 471.78 784.572 469.522 783.568 463.201L780.384 443.155L775.556 443.922L774.829 439.348L779.658 438.581L778.24 429.654L783.958 428.746L785.376 437.673L791.666 436.674L792.392 441.248L786.102 442.247L789.281 462.261C789.841 465.787 791.554 466.524 794.508 466.055C795.176 465.949 795.796 465.753 796.267 465.645L796.979 470.125C796.295 470.331 795.14 470.645 794.06 470.816ZM799.831 429.645C797.925 429.947 796.122 428.638 795.819 426.732C795.511 424.794 796.826 423.022 798.732 422.719C800.669 422.412 802.436 423.694 802.744 425.632C803.047 427.538 801.769 429.337 799.831 429.645ZM803.203 468.713L797.956 435.675L803.483 434.797L808.731 467.835L803.203 468.713ZM830.052 465.1C820.871 466.558 813.686 460.892 812.016 450.377L812.006 450.314C810.335 439.799 815.454 432.244 824.571 430.796C833.688 429.348 840.922 434.908 842.597 445.455L842.608 445.518C844.283 456.065 839.169 463.652 830.052 465.1ZM829.307 460.203C835.12 459.279 838.184 454.168 836.953 446.417L836.943 446.353C835.712 438.602 831.193 434.76 825.348 435.688C819.598 436.601 816.434 441.696 817.66 449.416L817.67 449.479C818.906 457.262 823.462 461.131 829.307 460.203ZM850.822 461.15L845.575 428.111L851.103 427.234L851.849 431.935L851.976 431.915C853.266 428.551 856.275 425.761 861.294 424.963C868.537 423.813 873.477 427.849 874.673 435.378L878.079 456.821L872.551 457.698L869.302 437.24C868.449 431.872 865.47 429.316 860.388 430.123C855.178 430.951 852.369 435.207 853.262 440.83L856.35 460.272L850.822 461.15ZM895.451 414.458C893.545 414.76 891.741 413.451 891.439 411.545C891.131 409.607 892.445 407.835 894.351 407.532C896.289 407.225 898.056 408.507 898.364 410.445C898.667 412.351 897.389 414.15 895.451 414.458ZM898.823 453.526L893.575 420.488L899.103 419.61L904.35 452.648L898.823 453.526ZM923.702 450.226C915.919 451.462 910.587 448.238 908.981 442.435L908.904 442.154L914.432 441.276L914.546 441.584C915.738 444.782 918.491 446.331 923.002 445.614C927.482 444.903 929.852 442.605 929.378 439.619L929.373 439.587C928.995 437.204 927.544 436.067 923.649 435.741L918.206 435.303C911.742 434.799 908.265 432.387 907.508 427.622L907.503 427.59C906.6 421.904 910.947 417.077 918.094 415.942C925.337 414.792 930.615 418.285 931.905 423.747L932.003 424.155L926.729 424.993L926.662 424.775C925.708 421.637 922.924 419.898 918.826 420.548C914.823 421.184 912.653 423.516 913.117 426.438L913.122 426.47C913.481 428.725 915.221 430.045 919.015 430.354L924.459 430.792C931.387 431.353 934.22 433.606 934.967 438.308L934.972 438.339C935.89 444.121 931.072 449.055 923.702 450.226ZM966.366 443.45C960.298 444.413 956.878 442.156 955.874 435.834L952.69 415.789L947.862 416.556L947.135 411.981L951.964 411.214L950.546 402.288L956.264 401.379L957.682 410.306L963.972 409.307L964.699 413.882L958.409 414.881L961.587 434.894C962.147 438.42 963.86 439.158 966.815 438.688C967.482 438.582 968.102 438.386 968.573 438.279L969.285 442.758C968.601 442.964 967.446 443.278 966.366 443.45ZM975.446 441.356L968.165 395.516L973.693 394.638L976.563 412.714L976.691 412.693C977.879 408.694 981.121 405.932 986.045 405.15C993.065 404.035 998.725 408.705 999.996 416.711L1003.21 436.946L997.683 437.824L994.62 418.542C993.672 412.569 990.062 409.527 984.916 410.345C979.801 411.157 977.018 415.573 977.911 421.195L980.973 440.478L975.446 441.356ZM1023.93 434.307C1014.43 435.816 1007.66 430.085 1006.01 419.697L1006 419.665C1004.38 409.436 1009.11 401.487 1018.13 400.054C1027.15 398.621 1033.71 404.451 1035.29 414.363L1035.61 416.396L1011.82 420.175C1013.02 426.953 1017.4 430.328 1023.28 429.395C1027.47 428.729 1030.09 426.163 1030.6 423.184L1030.65 422.883L1036.08 422.021L1036.07 422.348C1035.85 427.984 1031.14 433.162 1023.93 434.307ZM1018.87 404.951C1014.08 405.713 1010.85 409.58 1011.22 415.839L1029.3 412.968C1027.74 406.637 1023.7 404.184 1018.87 404.951ZM1043.59 430.534L1038.34 397.496L1043.87 396.618L1044.61 401.319L1044.74 401.299C1046.03 397.935 1049.04 395.145 1054.06 394.348C1061.3 393.197 1066.24 397.233 1067.44 404.762L1070.84 426.205L1065.32 427.083L1062.07 406.624C1061.21 401.256 1058.23 398.7 1053.15 399.507C1047.94 400.335 1045.13 404.591 1046.03 410.214L1049.11 429.656L1043.59 430.534ZM1107.08 432.499C1098.92 433.796 1093.16 430.77 1091.3 426.049L1091.2 425.773L1096.75 424.89L1096.93 425.156C1098.35 427.372 1101.73 428.334 1106.24 427.617C1112.06 426.694 1114.85 422.961 1114.04 417.846L1113.37 413.621L1113.24 413.641C1111.85 417.607 1108.41 420.564 1103.68 421.315C1095.35 422.637 1088.6 416.838 1086.96 406.513L1086.96 406.481C1085.33 396.22 1090.02 388.636 1098.41 387.304C1103.08 386.562 1107.16 388.519 1109.78 391.881L1109.91 391.86L1109.02 386.269L1114.55 385.391L1119.65 417.508C1120.87 425.164 1116.04 431.077 1107.08 432.499ZM1104.11 416.231C1109.73 415.338 1112.78 409.936 1111.62 402.598L1111.61 402.566C1110.45 395.291 1105.85 391.137 1100.26 392.025C1094.39 392.958 1091.45 398.245 1092.61 405.583L1092.62 405.615C1093.81 413.112 1098.23 417.165 1104.11 416.231ZM1140.64 415.77C1131.14 417.279 1124.37 411.548 1122.72 401.16L1122.72 401.128C1121.09 390.899 1125.82 382.95 1134.84 381.517C1143.86 380.084 1150.43 385.914 1152 395.826L1152.32 397.859L1128.53 401.638C1129.74 408.416 1134.11 411.791 1139.99 410.858C1144.18 410.192 1146.81 407.626 1147.31 404.647L1147.36 404.346L1152.79 403.484L1152.78 403.811C1152.57 409.447 1147.85 414.625 1140.64 415.77ZM1135.59 386.414C1130.79 387.176 1127.56 391.043 1127.94 397.302L1146.01 394.431C1144.45 388.1 1140.42 385.647 1135.59 386.414ZM1160.3 411.997L1155.05 378.959L1160.58 378.081L1161.33 382.782L1161.45 382.762C1162.74 379.398 1165.75 376.608 1170.77 375.811C1178.01 374.66 1182.95 378.696 1184.15 386.225L1187.56 407.668L1182.03 408.545L1178.78 388.087C1177.93 382.719 1174.95 380.163 1169.87 380.97C1164.66 381.798 1161.85 386.054 1162.74 391.677L1165.83 411.119L1160.3 411.997ZM1208.31 405.023C1198.81 406.532 1192.03 400.801 1190.39 390.413L1190.38 390.381C1188.76 380.152 1193.49 372.203 1202.51 370.77C1211.53 369.337 1218.09 375.167 1219.66 385.079L1219.99 387.112L1196.19 390.891C1197.4 397.669 1201.78 401.044 1207.66 400.111C1211.85 399.445 1214.47 396.879 1214.97 393.9L1215.02 393.599L1220.46 392.737L1220.44 393.064C1220.23 398.7 1215.52 403.878 1208.31 405.023ZM1203.25 375.667C1198.46 376.429 1195.23 380.297 1195.6 386.555L1213.68 383.684C1212.12 377.353 1208.08 374.9 1203.25 375.667ZM1227.96 401.25L1222.72 368.212L1228.24 367.334L1229.13 372.925L1229.26 372.905C1229.77 368.916 1232.24 366.048 1235.96 365.457C1236.91 365.306 1237.76 365.334 1238.22 365.326L1239.07 370.695C1238.6 370.607 1237.4 370.635 1236.07 370.847C1231.78 371.528 1229.46 374.958 1230.25 379.977L1233.49 400.372L1227.96 401.25ZM1257.16 397.263C1250.59 398.308 1245.54 395.038 1244.59 389.034L1244.58 388.971C1243.69 383.348 1247.51 379.125 1255.03 377.475L1264.41 375.431L1263.97 372.667C1263.33 368.633 1260.31 366.606 1255.7 367.337C1251.44 368.013 1249.1 370.47 1248.93 373.526L1248.91 373.822L1243.58 374.669L1243.55 374.315C1243.17 368.807 1247.2 363.671 1254.99 362.435C1262.8 361.194 1268.37 364.642 1269.41 371.249L1273.04 394.09L1267.51 394.968L1266.66 389.599L1266.54 389.62C1265.17 393.549 1261.58 396.562 1257.16 397.263ZM1250.24 388.136C1250.75 391.313 1253.67 392.9 1257.64 392.27C1262.85 391.442 1266.28 387.217 1265.52 382.42L1265.09 379.72L1256.35 381.662C1251.97 382.618 1249.74 384.991 1250.23 388.073L1250.24 388.136ZM1290.9 391.905C1284.83 392.869 1281.41 390.611 1280.41 384.289L1277.23 364.244L1272.4 365.011L1271.67 360.437L1276.5 359.67L1275.08 350.743L1280.8 349.835L1282.22 358.762L1288.51 357.763L1289.23 362.337L1282.94 363.336L1286.12 383.349C1286.68 386.876 1288.4 387.613 1291.35 387.144C1292.02 387.038 1292.64 386.842 1293.11 386.734L1293.82 391.214C1293.14 391.42 1291.98 391.734 1290.9 391.905ZM1312.44 388.484C1302.94 389.993 1296.17 384.262 1294.52 373.874L1294.51 373.842C1292.89 363.613 1297.62 355.664 1306.64 354.231C1315.66 352.798 1322.22 358.628 1323.8 368.54L1324.12 370.573L1300.33 374.352C1301.53 381.13 1305.91 384.505 1311.79 383.572C1315.98 382.906 1318.6 380.34 1319.11 377.361L1319.16 377.06L1324.59 376.198L1324.58 376.525C1324.36 382.161 1319.65 387.339 1312.44 388.484ZM1307.39 359.128C1302.59 359.89 1299.36 363.758 1299.74 370.016L1317.81 367.145C1316.25 360.814 1312.21 358.361 1307.39 359.128ZM1344.62 383.373C1336.17 384.715 1329.51 378.869 1327.85 368.449L1327.85 368.417C1326.19 357.998 1330.78 350.397 1339.08 349.08C1343.75 348.338 1347.96 350.078 1350.63 353.562L1350.76 353.542L1347.85 335.212L1353.38 334.335L1360.66 380.175L1355.13 381.053L1354.24 375.462L1354.11 375.482C1352.66 379.654 1349.35 382.622 1344.62 383.373ZM1344.92 378.31C1350.51 377.422 1353.71 371.93 1352.54 364.529L1352.53 364.497C1351.36 357.127 1346.59 352.902 1341.03 353.785C1335.18 354.714 1332.31 359.99 1333.5 367.519L1333.51 367.551C1334.71 375.143 1339.08 379.238 1344.92 378.31ZM448.56 605.681C441.985 606.725 436.938 603.455 435.985 597.451L435.975 597.388C435.081 591.765 438.905 587.542 446.427 585.892L455.808 583.848L455.369 581.085C454.728 577.05 451.703 575.023 447.097 575.754C442.84 576.43 440.494 578.887 440.328 581.943L440.31 582.239L434.973 583.086L434.95 582.732C434.563 577.224 438.6 572.088 446.383 570.852C454.198 569.611 459.761 573.059 460.811 579.667L464.438 602.507L458.911 603.385L458.058 598.017L457.931 598.037C456.569 601.966 452.976 604.979 448.56 605.681ZM441.639 596.553C442.144 599.73 445.067 601.318 449.037 600.687C454.247 599.859 457.68 595.634 456.918 590.837L456.489 588.137L447.744 590.08C443.368 591.035 441.14 593.408 441.629 596.49L441.639 596.553ZM482.837 600.236C475.594 601.387 470.654 597.351 469.459 589.822L466.053 568.379L471.58 567.501L474.83 587.96C475.682 593.328 478.661 595.884 483.744 595.077C488.954 594.249 491.763 589.993 490.87 584.37L487.782 564.928L493.309 564.05L498.557 597.088L493.029 597.966L492.282 593.265L492.155 593.285C490.866 596.649 487.857 599.439 482.837 600.236ZM516.606 594.873C510.539 595.837 507.118 593.579 506.114 587.257L502.931 567.212L498.102 567.979L497.376 563.405L502.204 562.638L500.786 553.711L506.505 552.803L507.922 561.729L514.212 560.73L514.939 565.305L508.649 566.304L511.828 586.317C512.388 589.844 514.101 590.581 517.055 590.112C517.722 590.006 518.342 589.81 518.814 589.702L519.525 594.182C518.841 594.388 517.686 594.702 516.606 594.873ZM538.24 591.437C529.059 592.895 521.873 587.23 520.203 576.715L520.193 576.651C518.523 566.136 523.642 558.581 532.759 557.133C541.876 555.685 549.11 561.246 550.785 571.792L550.795 571.856C552.47 582.403 547.357 589.989 538.24 591.437ZM537.494 586.54C543.308 585.617 546.372 580.505 545.141 572.754L545.131 572.69C543.899 564.939 539.381 561.097 533.536 562.026C527.786 562.939 524.622 568.034 525.848 575.753L525.858 575.817C527.094 583.6 531.649 587.468 537.494 586.54ZM559.01 587.487L553.763 554.449L559.29 553.571L560.057 558.4L560.184 558.379C561.158 554.87 564.113 552.154 568.37 551.477C572.881 550.761 576.585 552.55 578.655 556.358L578.782 556.337C579.994 552.074 583.491 549.076 588.129 548.339C594.673 547.3 599.58 550.917 600.624 557.493L604.247 580.302L598.719 581.18L595.298 559.642C594.577 555.099 591.638 552.797 587.286 553.489C582.902 554.185 580.341 557.946 581.057 562.457L584.392 583.456L578.865 584.334L575.348 562.192C574.712 558.189 571.625 555.976 567.527 556.627C563.143 557.323 560.516 561.29 561.248 565.897L564.537 586.609L559.01 587.487ZM621.057 578.284C614.481 579.328 609.435 576.058 608.481 570.054L608.471 569.991C607.578 564.368 611.402 560.146 618.924 558.495L628.305 556.451L627.866 553.688C627.225 549.653 624.2 547.626 619.594 548.357C615.337 549.034 612.991 551.49 612.825 554.546L612.807 554.842L607.47 555.689L607.446 555.335C607.06 549.827 611.097 544.691 618.88 543.455C626.695 542.214 632.258 545.662 633.308 552.27L636.935 575.11L631.408 575.988L630.555 570.62L630.428 570.64C629.065 574.569 625.473 577.582 621.057 578.284ZM614.136 569.156C614.641 572.333 617.563 573.921 621.534 573.29C626.744 572.463 630.177 568.237 629.415 563.44L628.986 560.74L620.24 562.683C615.865 563.638 613.636 566.011 614.126 569.093L614.136 569.156ZM654.794 572.925C648.727 573.889 645.307 571.631 644.302 565.31L641.119 545.264L636.29 546.031L635.564 541.457L640.392 540.69L638.974 531.763L644.693 530.855L646.11 539.782L652.4 538.783L653.127 543.357L646.837 544.356L650.016 564.37C650.576 567.896 652.289 568.633 655.243 568.164C655.91 568.058 656.53 567.862 657.002 567.755L657.713 572.234C657.029 572.44 655.874 572.754 654.794 572.925ZM660.566 531.754C658.66 532.056 656.856 530.747 656.553 528.841C656.246 526.903 657.56 525.131 659.466 524.828C661.404 524.521 663.171 525.803 663.479 527.741C663.781 529.647 662.504 531.446 660.566 531.754ZM663.938 570.822L658.69 537.784L664.218 536.906L669.465 569.944L663.938 570.822ZM690.787 567.209C681.415 568.697 674.415 562.97 672.745 552.455L672.74 552.423C671.085 542.003 676.093 534.368 685.274 532.91C693.502 531.603 699.23 536.295 700.827 541.839L700.899 542.088L695.499 542.946L695.395 542.702C694.044 539.529 690.911 537.03 686.051 537.802C680.301 538.716 677.214 544.091 678.405 551.588L678.41 551.62C679.631 559.308 684.291 563.225 690.01 562.317C694.521 561.6 697.008 558.6 697.344 554.768L697.367 554.504L702.799 553.641L702.803 553.869C702.912 560.3 698.252 566.023 690.787 567.209ZM719.345 562.673C712.77 563.717 707.723 560.448 706.77 554.444L706.76 554.38C705.866 548.757 709.69 544.535 717.212 542.884L726.593 540.841L726.154 538.077C725.513 534.043 722.488 532.015 717.882 532.747C713.625 533.423 711.279 535.88 711.113 538.935L711.095 539.231L705.758 540.079L705.735 539.724C705.348 534.216 709.385 529.081 717.168 527.845C724.983 526.603 730.546 530.051 731.596 536.659L735.223 559.5L729.696 560.378L728.843 555.009L728.716 555.029C727.354 558.958 723.761 561.972 719.345 562.673ZM712.424 553.546C712.929 556.722 715.852 558.31 719.822 557.679C725.032 556.852 728.465 552.626 727.703 547.83L727.274 545.129L718.529 547.072C714.153 548.027 711.925 550.401 712.414 553.482L712.424 553.546ZM742.53 558.339L735.249 512.499L740.777 511.621L748.057 557.461L742.53 558.339ZM755.809 556.23L748.528 510.39L754.056 509.512L761.336 555.352L755.809 556.23ZM773.744 564.781C772.664 564.952 771.469 565.012 770.749 564.996L770.033 560.485C770.525 560.504 771.175 560.499 771.842 560.393C775.337 559.838 777.133 558.641 777.872 554.68L778.242 552.7L760.727 521.578L766.636 520.639L780.122 546.702L780.249 546.682L785.029 517.718L790.842 516.795L783.52 553.946C782.173 560.641 779.716 563.832 773.744 564.781ZM820.328 545.983L805.837 514.413L811.332 513.54L822.208 539.366L822.336 539.346L825.532 511.285L830.869 510.437L842.635 536.122L842.762 536.102L845.101 508.177L850.565 507.309L846.6 541.81L840.977 542.703L829.45 518.316L829.323 518.337L825.951 545.09L820.328 545.983ZM857.333 500.502C855.427 500.805 853.623 499.495 853.32 497.589C853.013 495.652 854.327 493.88 856.233 493.577C858.171 493.269 859.938 494.552 860.246 496.489C860.548 498.396 859.271 500.194 857.333 500.502ZM860.705 539.57L855.457 506.532L860.985 505.654L866.232 538.692L860.705 539.57ZM884.599 536.426C878.532 537.39 875.112 535.132 874.108 528.811L870.924 508.765L866.095 509.532L865.369 504.958L870.197 504.191L868.78 495.264L874.498 494.356L875.915 503.283L882.205 502.284L882.932 506.858L876.642 507.857L879.821 527.871C880.381 531.397 882.094 532.134 885.048 531.665C885.715 531.559 886.335 531.363 886.807 531.256L887.518 535.735C886.835 535.941 885.679 536.255 884.599 536.426ZM893.679 534.333L886.398 488.493L891.926 487.615L894.797 505.69L894.924 505.67C896.113 501.671 899.354 498.909 904.278 498.127C911.299 497.012 916.958 501.682 918.23 509.687L921.444 529.923L915.916 530.801L912.854 511.518C911.905 505.546 908.295 502.504 903.149 503.322C898.035 504.134 895.251 508.549 896.144 514.172L899.207 533.455L893.679 534.333ZM952.645 525.619C946.577 526.583 943.157 524.325 942.153 518.003L938.97 497.958L934.141 498.725L933.414 494.151L938.243 493.384L936.825 484.457L942.543 483.549L943.961 492.475L950.251 491.476L950.978 496.051L944.688 497.05L947.866 517.063C948.426 520.59 950.139 521.327 953.094 520.858C953.761 520.752 954.381 520.556 954.853 520.448L955.564 524.927C954.88 525.134 953.725 525.448 952.645 525.619ZM961.725 523.526L954.444 477.685L959.972 476.807L962.843 494.883L962.97 494.863C964.158 490.863 967.4 488.101 972.324 487.319C979.344 486.204 985.004 490.875 986.275 498.88L989.489 519.116L983.962 519.994L980.899 500.711C979.951 494.739 976.341 491.697 971.195 492.514C966.08 493.327 963.297 497.742 964.19 503.365L967.252 522.648L961.725 523.526ZM1010.21 516.477C1000.71 517.985 993.936 512.254 992.286 501.866L992.281 501.834C990.657 491.605 995.387 483.656 1004.41 482.223C1013.43 480.791 1019.99 486.621 1021.57 496.532L1021.89 498.565L998.094 502.344C999.301 509.122 1003.68 512.498 1009.56 511.564C1013.75 510.898 1016.37 508.332 1016.88 505.354L1016.93 505.053L1022.36 504.19L1022.35 504.518C1022.13 510.153 1017.42 515.331 1010.21 516.477ZM1005.15 487.121C1000.36 487.883 997.128 491.75 997.504 498.009L1015.58 495.138C1014.02 488.807 1009.98 486.354 1005.15 487.121ZM1057 509.045C1047.63 510.533 1040.63 504.805 1038.96 494.29L1038.95 494.259C1037.3 483.839 1042.31 476.204 1051.49 474.746C1059.72 473.439 1065.44 478.131 1067.04 483.675L1067.11 483.924L1061.71 484.782L1061.61 484.538C1060.26 481.365 1057.13 478.866 1052.27 479.638C1046.52 480.551 1043.43 485.927 1044.62 493.424L1044.62 493.456C1045.84 501.144 1050.51 505.061 1056.22 504.153C1060.73 503.436 1063.22 500.436 1063.56 496.604L1063.58 496.34L1069.01 495.477L1069.02 495.705C1069.13 502.136 1064.47 507.859 1057 509.045ZM1089.59 503.868C1080.41 505.326 1073.23 499.661 1071.56 489.146L1071.55 489.082C1069.88 478.567 1075 471.012 1084.11 469.564C1093.23 468.116 1100.46 473.677 1102.14 484.223L1102.15 484.287C1103.82 494.834 1098.71 502.42 1089.59 503.868ZM1088.85 498.971C1094.66 498.048 1097.73 492.936 1096.49 485.185L1096.48 485.121C1095.25 477.37 1090.74 473.528 1084.89 474.457C1079.14 475.37 1075.98 480.464 1077.2 488.184L1077.21 488.247C1078.45 496.031 1083 499.899 1088.85 498.971ZM1110.36 499.918L1105.12 466.88L1110.64 466.002L1111.39 470.703L1111.52 470.683C1112.81 467.319 1115.82 464.529 1120.84 463.732C1128.08 462.581 1133.02 466.617 1134.21 474.146L1137.62 495.589L1132.09 496.467L1128.84 476.009C1127.99 470.64 1125.01 468.084 1119.93 468.891C1114.72 469.719 1111.91 473.975 1112.8 479.598L1115.89 499.04L1110.36 499.918ZM1155.51 493.399C1149.44 494.362 1146.02 492.105 1145.02 485.783L1141.84 465.738L1137.01 466.505L1136.28 461.93L1141.11 461.163L1139.69 452.237L1145.41 451.328L1146.83 460.255L1153.12 459.256L1153.84 463.831L1147.55 464.83L1150.73 484.843C1151.29 488.369 1153.01 489.107 1155.96 488.638C1156.63 488.532 1157.25 488.335 1157.72 488.228L1158.43 492.707C1157.75 492.913 1156.59 493.227 1155.51 493.399ZM1177.05 489.978C1167.55 491.486 1160.78 485.755 1159.13 475.367L1159.12 475.336C1157.5 465.106 1162.23 457.158 1171.25 455.725C1180.27 454.292 1186.83 460.122 1188.41 470.033L1188.73 472.066L1164.94 475.845C1166.14 482.623 1170.52 485.999 1176.4 485.066C1180.59 484.4 1183.21 481.834 1183.72 478.855L1183.77 478.554L1189.2 477.691L1189.19 478.019C1188.98 483.654 1184.26 488.833 1177.05 489.978ZM1172 460.622C1167.2 461.384 1163.97 465.251 1164.35 471.51L1182.42 468.639C1180.86 462.308 1176.82 459.855 1172 460.622ZM1196.71 486.204L1191.46 453.166L1196.99 452.288L1197.73 456.99L1197.86 456.97C1199.15 453.606 1202.16 450.815 1207.18 450.018C1214.42 448.868 1219.36 452.903 1220.56 460.432L1223.96 481.875L1218.44 482.753L1215.19 462.295C1214.33 456.926 1211.36 454.371 1206.27 455.178C1201.06 456.005 1198.25 460.262 1199.15 465.885L1202.24 485.326L1196.71 486.204ZM1241.85 479.685C1235.79 480.649 1232.37 478.391 1231.36 472.069L1228.18 452.024L1223.35 452.791L1222.62 448.217L1227.45 447.45L1226.04 438.523L1231.75 437.615L1233.17 446.542L1239.46 445.543L1240.19 450.117L1233.9 451.116L1237.08 471.129C1237.64 474.656 1239.35 475.393 1242.3 474.924C1242.97 474.818 1243.59 474.622 1244.06 474.514L1244.77 478.994C1244.09 479.2 1242.94 479.514 1241.85 479.685ZM1262.47 476.411C1254.69 477.647 1249.36 474.423 1247.75 468.62L1247.67 468.339L1253.2 467.461L1253.32 467.769C1254.51 470.966 1257.26 472.516 1261.77 471.799C1266.25 471.088 1268.62 468.79 1268.15 465.804L1268.14 465.772C1267.76 463.389 1266.31 462.252 1262.42 461.926L1256.98 461.488C1250.51 460.984 1247.03 458.572 1246.28 453.807L1246.27 453.775C1245.37 448.089 1249.72 443.262 1256.86 442.127C1264.11 440.977 1269.38 444.47 1270.68 449.932L1270.77 450.34L1265.5 451.178L1265.43 450.96C1264.48 447.822 1261.69 446.083 1257.6 446.733C1253.59 447.369 1251.42 449.7 1251.89 452.623L1251.89 452.655C1252.25 454.91 1253.99 456.23 1257.79 456.539L1263.23 456.977C1270.16 457.538 1272.99 459.791 1273.74 464.493L1273.74 464.524C1274.66 470.306 1269.84 475.24 1262.47 476.411ZM1308.09 469.165C1298.91 470.623 1291.72 464.958 1290.05 454.443L1290.04 454.379C1288.37 443.864 1293.49 436.31 1302.61 434.862C1311.73 433.414 1318.96 438.974 1320.64 449.521L1320.65 449.584C1322.32 460.131 1317.21 467.717 1308.09 469.165ZM1307.34 464.268C1313.16 463.345 1316.22 458.233 1314.99 450.482L1314.98 450.419C1313.75 442.667 1309.23 438.825 1303.39 439.754C1297.64 440.667 1294.47 445.762 1295.7 453.481L1295.71 453.545C1296.94 461.328 1301.5 465.196 1307.34 464.268ZM1330.64 464.933L1326.12 436.469L1321.51 437.201L1320.79 432.626L1325.39 431.895L1324.75 427.828C1323.74 421.475 1326.21 417.988 1332.31 417.019C1333.55 416.822 1334.87 416.711 1335.71 416.707L1336.43 421.186C1335.74 421.196 1334.88 421.301 1334.02 421.437C1330.97 421.921 1329.7 423.72 1330.22 426.992L1330.86 431.027L1337.65 429.947L1338.38 434.521L1331.65 435.591L1336.17 464.055L1330.64 464.933ZM1366.9 470.572C1365.82 470.743 1364.63 470.803 1363.91 470.787L1363.19 466.276C1363.68 466.296 1364.34 466.29 1365 466.184C1368.5 465.629 1370.29 464.432 1371.03 460.471L1371.4 458.491L1353.89 427.369L1359.8 426.43L1373.28 452.493L1373.41 452.473L1378.19 423.509L1384 422.586L1376.68 459.737C1375.33 466.432 1372.88 469.623 1366.9 470.572ZM1406.12 453.595C1396.94 455.053 1389.76 449.388 1388.09 438.873L1388.08 438.809C1386.41 428.294 1391.53 420.739 1400.64 419.291C1409.76 417.843 1416.99 423.403 1418.67 433.95L1418.68 434.014C1420.35 444.561 1415.24 452.147 1406.12 453.595ZM1405.38 448.698C1411.19 447.774 1414.26 442.663 1413.02 434.912L1413.01 434.848C1411.78 427.097 1407.27 423.255 1401.42 424.183C1395.67 425.097 1392.51 430.191 1393.73 437.911L1393.74 437.974C1394.98 445.757 1399.53 449.626 1405.38 448.698ZM1438.27 448.489C1431.03 449.639 1426.09 445.604 1424.89 438.075L1421.49 416.632L1427.02 415.754L1430.26 436.212C1431.12 441.581 1434.1 444.137 1439.18 443.329C1444.39 442.502 1447.2 438.245 1446.3 432.623L1443.22 413.181L1448.74 412.303L1453.99 445.341L1448.46 446.219L1447.72 441.517L1447.59 441.538C1446.3 444.902 1443.29 447.692 1438.27 448.489ZM1461.2 444.196L1455.96 411.158L1461.48 410.28L1462.37 415.871L1462.5 415.851C1463 411.862 1465.48 408.994 1469.2 408.403C1470.15 408.252 1471 408.279 1471.46 408.272L1472.31 413.641C1471.84 413.553 1470.64 413.581 1469.3 413.793C1465.02 414.474 1462.69 417.904 1463.49 422.923L1466.73 443.318L1461.2 444.196ZM452.052 684.465L444.771 638.624L472.599 634.205L473.417 639.351L451.307 642.863L453.809 658.619L474.109 655.395L474.916 660.478L454.617 663.702L457.77 683.557L452.052 684.465ZM482.544 640.018C480.638 640.321 478.834 639.012 478.532 637.106C478.224 635.168 479.538 633.396 481.444 633.093C483.382 632.785 485.149 634.068 485.457 636.006C485.76 637.912 484.482 639.71 482.544 640.018ZM485.916 679.086L480.669 646.048L486.196 645.17L491.443 678.208L485.916 679.086ZM514.817 686.547C506.652 687.843 500.896 684.817 499.039 680.096L498.93 679.82L504.489 678.937L504.661 679.203C506.088 681.419 509.465 682.381 513.976 681.664C519.79 680.741 522.584 677.008 521.771 671.893L521.1 667.668L520.973 667.689C519.584 671.655 516.145 674.611 511.412 675.363C503.089 676.684 496.338 670.885 494.698 660.56L494.693 660.529C493.063 650.268 497.754 642.683 506.14 641.351C510.81 640.61 514.899 642.566 517.517 645.928L517.644 645.908L516.756 640.317L522.284 639.439L527.385 671.556C528.601 679.211 523.775 685.124 514.817 686.547ZM511.842 670.279C517.465 669.386 520.515 663.983 519.35 656.645L519.345 656.613C518.189 649.339 513.589 645.184 507.997 646.072C502.12 647.005 499.182 652.292 500.348 659.63L500.353 659.662C501.543 667.159 505.965 671.212 511.842 670.279ZM534.679 671.342L529.431 638.303L534.959 637.426L535.726 642.254L535.853 642.234C536.826 638.725 539.782 636.008 544.039 635.332C548.55 634.616 552.254 636.405 554.324 640.212L554.451 640.192C555.663 635.929 559.16 632.93 563.798 632.194C570.342 631.154 575.248 634.772 576.293 641.348L579.915 664.157L574.388 665.035L570.967 643.496C570.246 638.954 567.307 636.652 562.955 637.343C558.571 638.04 556.009 641.801 556.726 646.312L560.061 667.31L554.533 668.188L551.017 646.046C550.381 642.044 547.294 639.831 543.196 640.482C538.812 641.178 536.185 645.145 536.917 649.751L540.206 670.464L534.679 671.342ZM596.726 662.138C590.15 663.183 585.104 659.913 584.15 653.909L584.14 653.845C583.247 648.223 587.071 644 594.593 642.35L603.974 640.306L603.535 637.542C602.894 633.508 599.869 631.48 595.262 632.212C591.006 632.888 588.66 635.345 588.494 638.4L588.476 638.696L583.139 639.544L583.115 639.19C582.729 633.682 586.766 628.546 594.549 627.31C602.364 626.069 607.927 629.517 608.976 636.124L612.604 658.965L607.077 659.843L606.224 654.474L606.097 654.494C604.734 658.424 601.142 661.437 596.726 662.138ZM589.805 653.011C590.309 656.188 593.232 657.775 597.203 657.145C602.413 656.317 605.845 652.092 605.084 647.295L604.655 644.595L595.909 646.537C591.534 647.493 589.305 649.866 589.795 652.947L589.805 653.011ZM634.746 655.448L630.225 626.985L625.619 627.716L624.892 623.142L629.499 622.41L628.853 618.344C627.844 611.991 630.319 608.503 636.418 607.535C637.657 607.338 638.975 607.226 639.821 607.222L640.532 611.701C639.85 611.712 638.987 611.817 638.129 611.953C635.08 612.437 633.802 614.236 634.322 617.508L634.963 621.542L641.761 620.463L642.487 625.037L635.753 626.107L640.273 654.57L634.746 655.448ZM649.704 613.469C647.798 613.772 645.994 612.462 645.692 610.556C645.384 608.619 646.698 606.846 648.604 606.544C650.542 606.236 652.309 607.519 652.617 609.456C652.92 611.362 651.642 613.161 649.704 613.469ZM653.076 652.537L647.828 619.499L653.356 618.621L658.603 651.659L653.076 652.537ZM666.418 650.418L659.137 604.578L664.665 603.7L671.946 649.54L666.418 650.418ZM693.108 646.83C683.61 648.339 676.837 642.608 675.187 632.22L675.182 632.188C673.558 621.959 678.288 614.01 687.31 612.577C696.332 611.144 702.892 616.974 704.466 626.886L704.789 628.919L680.995 632.698C682.202 639.476 686.581 642.851 692.458 641.918C696.652 641.252 699.273 638.686 699.777 635.707L699.827 635.406L705.259 634.544L705.246 634.871C705.034 640.507 700.319 645.685 693.108 646.83ZM688.055 617.474C683.258 618.236 680.029 622.104 680.404 628.362L698.48 625.491C696.921 619.16 692.883 616.707 688.055 617.474ZM735.867 640.039C729.291 641.084 724.245 637.814 723.291 631.81L723.281 631.746C722.388 626.124 726.212 621.901 733.734 620.25L743.115 618.207L742.676 615.443C742.035 611.409 739.01 609.381 734.403 610.113C730.147 610.789 727.801 613.246 727.635 616.301L727.617 616.597L722.28 617.445L722.256 617.09C721.87 611.582 725.907 606.447 733.69 605.211C741.505 603.969 747.068 607.418 748.117 614.025L751.745 636.866L746.218 637.744L745.365 632.375L745.238 632.395C743.875 636.325 740.283 639.338 735.867 640.039ZM728.946 630.912C729.45 634.089 732.373 635.676 736.344 635.045C741.554 634.218 744.986 629.993 744.225 625.196L743.796 622.495L735.05 624.438C730.675 625.394 728.446 627.767 728.936 630.848L728.946 630.912ZM758.766 635.751L753.518 602.713L759.046 601.835L759.793 606.536L759.92 606.516C761.209 603.152 764.218 600.362 769.238 599.565C776.481 598.414 781.421 602.45 782.616 609.979L786.022 631.422L780.495 632.3L777.245 611.842C776.393 606.473 773.414 603.917 768.331 604.724C763.121 605.552 760.312 609.808 761.205 615.431L764.293 634.873L758.766 635.751ZM805.596 628.964C797.146 630.306 790.486 624.46 788.831 614.04L788.826 614.008C787.171 603.589 791.761 595.988 800.052 594.671C804.722 593.929 808.939 595.669 811.609 599.153L811.736 599.133L808.825 580.803L814.353 579.926L821.633 625.766L816.106 626.644L815.218 621.053L815.091 621.073C813.636 625.245 810.33 628.213 805.596 628.964ZM805.899 623.901C811.491 623.013 814.69 617.521 813.514 610.12L813.509 610.088C812.338 602.718 807.564 598.493 802.004 599.376C796.159 600.305 793.284 605.581 794.48 613.11L794.485 613.142C795.691 620.734 800.054 624.829 805.899 623.901ZM847.384 633.075C846.303 633.247 845.108 633.306 844.389 633.29L843.672 628.779C844.164 628.799 844.815 628.793 845.482 628.687C848.976 628.132 850.773 626.935 851.511 622.975L851.881 620.994L834.366 589.872L840.275 588.934L853.762 614.996L853.889 614.976L858.668 586.012L864.482 585.089L857.159 622.24C855.813 628.935 853.356 632.127 847.384 633.075ZM886.603 616.098C877.422 617.556 870.237 611.891 868.567 601.376L868.557 601.312C866.887 590.797 872.005 583.243 881.122 581.795C890.24 580.347 897.474 585.907 899.149 596.454L899.159 596.517C900.834 607.064 895.72 614.65 886.603 616.098ZM885.858 611.201C891.671 610.278 894.735 605.166 893.504 597.415L893.494 597.352C892.263 589.6 887.745 585.758 881.899 586.687C876.149 587.6 872.985 592.695 874.211 600.414L874.221 600.478C875.457 608.261 880.013 612.13 885.858 611.201ZM918.752 610.992C911.509 612.143 906.569 608.107 905.373 600.578L901.967 579.135L907.495 578.257L910.744 598.716C911.597 604.084 914.576 606.64 919.658 605.833C924.868 605.005 927.677 600.749 926.784 595.126L923.696 575.684L929.224 574.806L934.471 607.844L928.943 608.722L928.197 604.021L928.07 604.041C926.78 607.405 923.771 610.195 918.752 610.992ZM941.682 606.699L936.435 573.661L941.962 572.783L942.85 578.374L942.977 578.354C943.484 574.365 945.959 571.497 949.676 570.907C950.629 570.755 951.48 570.783 951.935 570.776L952.788 576.144C952.318 576.056 951.117 576.084 949.783 576.296C945.495 576.977 943.173 580.407 943.971 585.426L947.21 605.821L941.682 606.699ZM986.925 600.165C979.142 601.401 973.809 598.177 972.204 592.374L972.127 592.093L977.654 591.215L977.768 591.523C978.96 594.721 981.714 596.27 986.225 595.553C990.704 594.842 993.075 592.544 992.6 589.558L992.595 589.526C992.217 587.144 990.766 586.006 986.871 585.68L981.428 585.242C974.964 584.738 971.487 582.326 970.73 577.561L970.725 577.529C969.822 571.843 974.169 567.016 981.317 565.881C988.56 564.731 993.837 568.224 995.128 573.686L995.225 574.094L989.952 574.932L989.885 574.714C988.93 571.577 986.146 569.837 982.048 570.488C978.045 571.123 975.875 573.455 976.34 576.377L976.345 576.409C976.703 578.664 978.443 579.984 982.238 580.293L987.681 580.731C994.61 581.292 997.443 583.545 998.189 588.247L998.194 588.279C999.113 594.06 994.295 598.994 986.925 600.165ZM1005.69 596.532L998.413 550.692L1003.94 549.814L1011.22 595.655L1005.69 596.532ZM1015.66 555.345C1013.76 555.648 1011.95 554.339 1011.65 552.433C1011.34 550.495 1012.66 548.723 1014.56 548.42C1016.5 548.112 1018.27 549.395 1018.58 551.333C1018.88 553.239 1017.6 555.037 1015.66 555.345ZM1019.04 594.413L1013.79 561.375L1019.32 560.497L1024.56 593.535L1019.04 594.413ZM1044.61 591.002C1036.16 592.344 1029.5 586.498 1027.85 576.078L1027.84 576.046C1026.19 565.626 1030.78 558.025 1039.07 556.709C1043.74 555.967 1047.96 557.707 1050.63 561.191L1050.75 561.171L1047.84 542.841L1053.37 541.963L1060.65 587.804L1055.12 588.682L1054.24 583.091L1054.11 583.111C1052.65 587.283 1049.35 590.25 1044.61 591.002ZM1044.92 585.938C1050.51 585.05 1053.71 579.559 1052.53 572.158L1052.53 572.126C1051.36 564.756 1046.58 560.531 1041.02 561.414C1035.18 562.342 1032.3 567.619 1033.5 575.148L1033.5 575.18C1034.71 582.772 1039.07 586.867 1044.92 585.938ZM1081.81 585.094C1072.32 586.603 1065.54 580.871 1063.89 570.483L1063.89 570.452C1062.26 560.223 1066.99 552.274 1076.02 550.841C1085.04 549.408 1091.6 555.238 1093.17 565.149L1093.49 567.182L1069.7 570.961C1070.91 577.739 1075.29 581.115 1081.16 580.182C1085.36 579.516 1087.98 576.95 1088.48 573.971L1088.53 573.67L1093.96 572.807L1093.95 573.135C1093.74 578.771 1089.02 583.949 1081.81 585.094ZM1076.76 555.738C1071.96 556.5 1068.73 560.367 1069.11 566.626L1087.19 563.755C1085.63 557.424 1081.59 554.971 1076.76 555.738ZM1113.3 580.094C1105.51 581.33 1100.18 578.106 1098.57 572.303L1098.5 572.022L1104.02 571.144L1104.14 571.452C1105.33 574.65 1108.08 576.199 1112.6 575.483C1117.07 574.771 1119.45 572.473 1118.97 569.487L1118.97 569.455C1118.59 567.073 1117.14 565.935 1113.24 565.609L1107.8 565.171C1101.33 564.667 1097.86 562.255 1097.1 557.49L1097.1 557.459C1096.19 551.772 1100.54 546.946 1107.69 545.81C1114.93 544.66 1120.21 548.153 1121.5 553.615L1121.6 554.023L1116.32 554.861L1116.26 554.644C1115.3 551.506 1112.52 549.766 1108.42 550.417C1104.42 551.052 1102.25 553.384 1102.71 556.306L1102.72 556.338C1103.07 558.594 1104.81 559.913 1108.61 560.222L1114.05 560.661C1120.98 561.221 1123.81 563.474 1124.56 568.176L1124.56 568.208C1125.48 573.989 1120.67 578.923 1113.3 580.094ZM1132.06 576.462L1124.78 530.621L1130.31 529.743L1133.18 547.819L1133.31 547.799C1134.5 543.799 1137.74 541.037 1142.66 540.255C1149.68 539.14 1155.34 543.811 1156.61 551.816L1159.83 572.052L1154.3 572.93L1151.24 553.647C1150.29 547.675 1146.68 544.633 1141.53 545.45C1136.42 546.263 1133.64 550.678 1134.53 556.301L1137.59 575.584L1132.06 576.462ZM1180.64 569.398C1171.46 570.856 1164.28 565.19 1162.61 554.675L1162.6 554.612C1160.93 544.097 1166.04 536.542 1175.16 535.094C1184.28 533.646 1191.51 539.206 1193.19 549.753L1193.2 549.816C1194.87 560.363 1189.76 567.949 1180.64 569.398ZM1179.9 564.5C1185.71 563.577 1188.77 558.466 1187.54 550.714L1187.53 550.651C1186.3 542.9 1181.78 539.058 1175.94 539.986C1170.19 540.899 1167.02 545.994 1168.25 553.713L1168.26 553.777C1169.5 561.56 1174.05 565.429 1179.9 564.5ZM1207.96 564.408L1193.46 532.838L1198.96 531.965L1209.84 557.791L1209.96 557.771L1213.16 529.71L1218.5 528.862L1230.26 554.547L1230.39 554.527L1232.73 526.602L1238.19 525.734L1234.23 560.235L1228.6 561.128L1217.08 536.741L1216.95 536.762L1213.58 563.515L1207.96 564.408ZM1277.17 565.465C1269.01 566.762 1263.25 563.736 1261.39 559.015L1261.28 558.739L1266.84 557.856L1267.01 558.122C1268.44 560.338 1271.82 561.3 1276.33 560.583C1282.14 559.66 1284.94 555.927 1284.12 550.812L1283.45 546.587L1283.33 546.607C1281.94 550.573 1278.5 553.53 1273.77 554.281C1265.44 555.603 1258.69 549.804 1257.05 539.479L1257.05 539.447C1255.42 529.187 1260.11 521.602 1268.49 520.27C1273.16 519.529 1277.25 521.485 1279.87 524.847L1280 524.827L1279.11 519.236L1284.64 518.358L1289.74 550.474C1290.95 558.13 1286.13 564.043 1277.17 565.465ZM1274.2 549.198C1279.82 548.305 1282.87 542.902 1281.7 535.564L1281.7 535.532C1280.54 528.257 1275.94 524.103 1270.35 524.991C1264.47 525.924 1261.54 531.211 1262.7 538.549L1262.71 538.581C1263.9 546.078 1268.32 550.131 1274.2 549.198ZM1310.73 548.736C1301.23 550.245 1294.46 544.514 1292.81 534.126L1292.8 534.094C1291.18 523.865 1295.91 515.916 1304.93 514.483C1313.95 513.05 1320.51 518.88 1322.09 528.792L1322.41 530.825L1298.62 534.604C1299.82 541.382 1304.2 544.757 1310.08 543.824C1314.27 543.158 1316.89 540.592 1317.4 537.613L1317.45 537.312L1322.88 536.45L1322.87 536.777C1322.65 542.413 1317.94 547.591 1310.73 548.736ZM1305.68 519.38C1300.88 520.142 1297.65 524.01 1298.03 530.268L1316.1 527.397C1314.54 521.066 1310.5 518.613 1305.68 519.38ZM1341.23 543.893C1335.16 544.856 1331.74 542.599 1330.73 536.277L1327.55 516.232L1322.72 516.999L1322 512.424L1326.82 511.657L1325.41 502.731L1331.12 501.822L1332.54 510.749L1338.83 509.75L1339.56 514.325L1333.27 515.324L1336.45 535.337C1337.01 538.863 1338.72 539.601 1341.67 539.132C1342.34 539.026 1342.96 538.829 1343.43 538.722L1344.14 543.201C1343.46 543.407 1342.31 543.721 1341.23 543.893ZM1361.84 540.618C1354.06 541.854 1348.73 538.63 1347.12 532.827L1347.04 532.547L1352.57 531.669L1352.69 531.976C1353.88 535.174 1356.63 536.723 1361.14 536.007C1365.62 535.295 1367.99 532.997 1367.52 530.011L1367.51 529.979C1367.14 527.597 1365.68 526.459 1361.79 526.134L1356.35 525.695C1349.88 525.191 1346.41 522.78 1345.65 518.015L1345.64 517.983C1344.74 512.296 1349.09 507.47 1356.23 506.335C1363.48 505.184 1368.76 508.678 1370.05 514.14L1370.14 514.548L1364.87 515.385L1364.8 515.168C1363.85 512.03 1361.06 510.29 1356.97 510.941C1352.96 511.577 1350.79 513.908 1351.26 516.831L1351.26 516.862C1351.62 519.118 1353.36 520.437 1357.16 520.747L1362.6 521.185C1369.53 521.745 1372.36 523.999 1373.11 528.7L1373.11 528.732C1374.03 534.514 1369.21 539.448 1361.84 540.618ZM474.964 761.467C467.721 762.618 462.781 758.582 461.586 751.053L458.18 729.61L463.707 728.732L466.957 749.191C467.809 754.559 470.788 757.115 475.871 756.308C481.081 755.48 483.89 751.224 482.997 745.601L479.909 726.159L485.436 725.281L490.684 758.319L485.156 759.197L484.409 754.496L484.282 754.516C482.993 757.88 479.984 760.67 474.964 761.467ZM499.661 768.293L492.647 724.136L498.175 723.258L499.063 728.849L499.19 728.829C500.644 724.657 503.951 721.689 508.684 720.937C517.134 719.595 523.795 725.442 525.45 735.862L525.455 735.894C527.11 746.313 522.52 753.914 514.229 755.231C509.559 755.973 505.342 754.232 502.671 750.748L502.544 750.769L505.188 767.415L499.661 768.293ZM512.276 750.526C518.122 749.597 520.996 744.32 519.801 736.792L519.795 736.76C518.59 729.167 514.226 725.073 508.381 726.001C502.79 726.889 499.591 732.38 500.767 739.782L500.772 739.814C501.942 747.184 506.717 751.409 512.276 750.526ZM546.187 750.155C537.737 751.497 531.076 745.651 529.421 735.231L529.416 735.199C527.761 724.78 532.351 717.179 540.642 715.862C545.312 715.12 549.529 716.86 552.2 720.344L552.327 720.324L549.416 701.995L554.943 701.117L562.224 746.957L556.696 747.835L555.808 742.244L555.681 742.264C554.227 746.436 550.92 749.404 546.187 750.155ZM546.49 745.092C552.081 744.204 555.28 738.713 554.104 731.311L554.099 731.279C552.929 723.909 548.154 719.684 542.595 720.567C536.75 721.496 533.875 726.772 535.071 734.301L535.076 734.333C536.281 741.925 540.645 746.02 546.49 745.092ZM579.447 744.873C572.871 745.917 567.825 742.648 566.871 736.644L566.861 736.58C565.968 730.957 569.792 726.735 577.314 725.084L586.695 723.041L586.256 720.277C585.615 716.242 582.59 714.215 577.984 714.947C573.727 715.623 571.381 718.08 571.215 721.135L571.197 721.431L565.86 722.279L565.836 721.924C565.45 716.416 569.487 711.28 577.27 710.044C585.085 708.803 590.648 712.251 591.698 718.859L595.325 741.7L589.798 742.577L588.945 737.209L588.818 737.229C587.455 741.158 583.863 744.171 579.447 744.873ZM572.526 735.745C573.031 738.922 575.953 740.51 579.924 739.879C585.134 739.052 588.567 734.826 587.805 730.029L587.376 727.329L578.63 729.272C574.255 730.227 572.026 732.6 572.516 735.682L572.526 735.745ZM613.184 739.514C607.117 740.478 603.696 738.22 602.692 731.899L599.509 711.854L594.68 712.62L593.954 708.046L598.782 707.279L597.364 698.352L603.083 697.444L604.5 706.371L610.79 705.372L611.517 709.946L605.227 710.945L608.406 730.959C608.966 734.485 610.679 735.223 613.633 734.753C614.3 734.647 614.92 734.451 615.392 734.344L616.103 738.823C615.419 739.029 614.264 739.343 613.184 739.514ZM634.722 736.094C625.224 737.602 618.451 731.871 616.801 721.483L616.796 721.451C615.172 711.222 619.902 703.273 628.924 701.84C637.946 700.407 644.506 706.238 646.08 716.149L646.403 718.182L622.609 721.961C623.816 728.739 628.195 732.115 634.072 731.181C638.266 730.515 640.887 727.949 641.391 724.971L641.441 724.67L646.873 723.807L646.86 724.135C646.648 729.77 641.934 734.948 634.722 736.094ZM629.669 706.738C624.872 707.499 621.643 711.367 622.019 717.626L640.094 714.755C638.535 708.423 634.498 705.971 629.669 706.738ZM666.903 730.983C658.453 732.325 651.792 726.478 650.137 716.058L650.132 716.027C648.477 705.607 653.067 698.006 661.358 696.689C666.028 695.947 670.245 697.688 672.916 701.172L673.043 701.152L670.131 682.822L675.659 681.944L682.94 727.784L677.412 728.662L676.524 723.071L676.397 723.091C674.943 727.263 671.636 730.231 666.903 730.983ZM667.206 725.919C672.797 725.031 675.996 719.54 674.82 712.138L674.815 712.106C673.645 704.736 668.87 700.511 663.311 701.394C657.466 702.323 654.591 707.6 655.787 715.128L655.792 715.16C656.997 722.753 661.361 726.847 667.206 725.919ZM705.513 735.598L698.5 691.441L704.027 690.563L704.915 696.154L705.043 696.134C706.497 691.962 709.804 688.995 714.537 688.243C722.987 686.901 729.648 692.747 731.303 703.167L731.308 703.199C732.963 713.619 728.373 721.22 720.081 722.536C715.411 723.278 711.194 721.538 708.524 718.054L708.397 718.074L711.041 734.72L705.513 735.598ZM718.129 717.831C723.974 716.903 726.849 711.626 725.653 704.097L725.648 704.065C724.442 696.473 720.079 692.378 714.234 693.307C708.643 694.195 705.444 699.686 706.619 707.087L706.624 707.119C707.795 714.489 712.57 718.714 718.129 717.831ZM753.215 717.274C743.716 718.783 736.944 713.051 735.294 702.664L735.289 702.632C733.664 692.403 738.394 684.454 747.416 683.021C756.438 681.588 762.998 687.418 764.573 697.329L764.895 699.362L741.102 703.142C742.309 709.92 746.688 713.295 752.565 712.362C756.758 711.696 759.379 709.13 759.883 706.151L759.933 705.85L765.365 704.987L765.352 705.315C765.14 710.951 760.426 716.129 753.215 717.274ZM748.161 687.918C743.364 688.68 740.136 692.547 740.511 698.806L758.586 695.935C757.027 689.604 752.99 687.151 748.161 687.918ZM772.873 713.5L767.626 680.462L773.153 679.584L774.041 685.176L774.168 685.155C774.675 681.167 777.15 678.298 780.867 677.708C781.82 677.557 782.671 677.584 783.126 677.577L783.979 682.946C783.509 682.858 782.308 682.885 780.974 683.097C776.685 683.778 774.364 687.209 775.161 692.228L778.401 712.623L772.873 713.5ZM789.928 671.188C788.022 671.491 786.218 670.181 785.915 668.275C785.608 666.338 786.922 664.566 788.828 664.263C790.766 663.955 792.533 665.238 792.841 667.176C793.143 669.082 791.866 670.88 789.928 671.188ZM793.299 710.256L788.052 677.218L793.58 676.34L798.827 709.378L793.299 710.256ZM820.148 706.643C810.968 708.101 803.782 702.436 802.112 691.921L802.102 691.857C800.432 681.342 805.55 673.788 814.668 672.34C823.785 670.891 831.019 676.452 832.694 686.998L832.704 687.062C834.379 697.609 829.266 705.195 820.148 706.643ZM819.403 701.746C825.217 700.823 828.281 695.711 827.049 687.96L827.039 687.897C825.808 680.145 821.29 676.303 815.445 677.232C809.695 678.145 806.53 683.24 807.757 690.959L807.767 691.023C809.003 698.806 813.558 702.674 819.403 701.746ZM853.441 701.356C844.991 702.698 838.33 696.851 836.675 686.431L836.67 686.4C835.015 675.98 839.605 668.379 847.896 667.062C852.566 666.32 856.783 668.061 859.454 671.545L859.581 671.525L856.669 653.195L862.197 652.317L869.478 698.157L863.95 699.035L863.062 693.444L862.935 693.464C861.481 697.636 858.174 700.604 853.441 701.356ZM853.744 696.292C859.335 695.404 862.534 689.913 861.358 682.511L861.353 682.479C860.183 675.109 855.408 670.885 849.849 671.767C844.003 672.696 841.129 677.973 842.324 685.501L842.33 685.533C843.535 693.126 847.899 697.22 853.744 696.292ZM873.921 657.848C872.015 658.151 870.211 656.841 869.908 654.935C869.6 652.997 870.915 651.225 872.821 650.923C874.759 650.615 876.526 651.897 876.834 653.835C877.136 655.741 875.859 657.54 873.921 657.848ZM877.292 696.916L872.045 663.878L877.573 663L882.82 696.038L877.292 696.916ZM904.141 693.303C894.77 694.791 887.77 689.064 886.1 678.549L886.095 678.517C884.44 668.097 889.448 660.463 898.629 659.004C906.856 657.698 912.585 662.39 914.182 667.933L914.254 668.182L908.853 669.04L908.749 668.796C907.399 665.623 904.266 663.125 899.406 663.897C893.656 664.81 890.569 670.185 891.76 677.682L891.765 677.714C892.986 685.402 897.646 689.319 903.364 688.411C907.875 687.694 910.363 684.694 910.699 680.863L910.722 680.598L916.154 679.736L916.157 679.963C916.267 686.394 911.607 692.117 904.141 693.303ZM932.7 688.767C926.124 689.812 921.078 686.542 920.124 680.538L920.114 680.474C919.221 674.852 923.045 670.629 930.567 668.979L939.948 666.935L939.509 664.171C938.868 660.137 935.843 658.109 931.237 658.841C926.98 659.517 924.634 661.974 924.468 665.029L924.45 665.325L919.113 666.173L919.089 665.818C918.703 660.311 922.74 655.175 930.523 653.939C938.338 652.698 943.901 656.146 944.951 662.753L948.578 685.594L943.051 686.472L942.198 681.103L942.071 681.123C940.708 685.053 937.116 688.066 932.7 688.767ZM925.779 679.64C926.284 682.817 929.206 684.404 933.177 683.774C938.387 682.946 941.82 678.721 941.058 673.924L940.629 671.224L931.883 673.166C927.508 674.122 925.28 676.495 925.769 679.576L925.779 679.64ZM955.885 684.433L948.604 638.593L954.132 637.715L961.412 683.556L955.885 684.433ZM969.164 682.324L961.883 636.484L967.41 635.606L974.691 681.447L969.164 682.324ZM987.099 690.875C986.019 691.046 984.823 691.106 984.104 691.09L983.388 686.579C983.88 686.599 984.53 686.593 985.197 686.487C988.692 685.932 990.488 684.735 991.227 680.774L991.596 678.794L974.082 647.672L979.991 646.733L993.477 672.796L993.604 672.776L998.384 643.812L1004.2 642.889L996.875 680.04C995.528 686.735 993.071 689.926 987.099 690.875ZM1012.5 675.897C1010.47 676.22 1008.63 674.884 1008.3 672.851C1007.98 670.818 1009.32 668.977 1011.35 668.654C1013.38 668.331 1015.22 669.668 1015.55 671.701C1015.87 673.734 1014.53 675.574 1012.5 675.897Z" fill="black"/>
</g>
</g>
<defs>
<filter id="filter0_d_711_64" x="327.536" y="218.602" width="1264.93" height="648.795" filterUnits="userSpaceOnUse" color-interpolation-filters="sRGB">
<feFlood flood-opacity="0" result="BackgroundImageFix"/>
<feColorMatrix in="SourceAlpha" type="matrix" values="0 0 0 0 0 0 0 0 0 0 0 0 0 0 0 0 0 0 127 0" result="hardAlpha"/>
<feOffset dy="3"/>
<feGaussianBlur stdDeviation="1.5"/>
<feComposite in2="hardAlpha" operator="out"/>
<feColorMatrix type="matrix" values="0 0 0 0 0 0 0 0 0 0 0 0 0 0 0 0 0 0 0.25 0"/>
<feBlend mode="normal" in2="BackgroundImageFix" result="effect1_dropShadow_711_64"/>
<feBlend mode="normal" in="SourceGraphic" in2="effect1_dropShadow_711_64" result="shape"/>
</filter>
<clipPath id="clip0_711_64">
<rect x="330.536" y="407.092" width="1201.65" height="460" rx="18" transform="rotate(-9.02465 330.536 407.092)" fill="white"/>
</clipPath>
</defs>
</svg>
