<svg width="777" height="254" viewBox="0 0 777 254" fill="none" xmlns="http://www.w3.org/2000/svg">
<g filter="url(#filter0_d_3_2)">
<g clip-path="url(#clip0_3_2)">
<rect x="2.00191" y="101.544" width="759.881" height="149.142" rx="12" transform="rotate(-7.67947 2.00191 101.544)" fill="white"/>
<path d="M67.4901 156.291L71.1086 183.127L74.9423 182.61L71.3237 155.774L80.1237 154.587L79.6303 150.928L58.1966 153.818L58.6901 157.478L67.4901 156.291ZM102.222 166.822C101.829 163.903 100.628 161.581 98.5719 159.818C96.5533 158.005 93.9786 157.332 90.8855 157.749C87.7053 158.178 85.4125 159.596 83.9696 162.053C82.5643 164.46 82.0513 167.235 82.4801 170.416C82.9089 173.596 84.1386 176.136 86.1372 178.128C88.1734 180.072 90.7599 180.832 93.9401 180.403C98.4708 179.792 100.975 177.636 102.44 173.047L99.0287 172.087C98.1472 175.089 96.5867 176.675 93.4937 177.092C89.7036 177.603 87.1318 174.978 86.3324 170.694L102.451 168.521L102.222 166.822ZM91.3319 161.06C94.6864 160.608 97.0276 162.51 98.1711 165.727L86.1038 167.354C86.3485 163.906 88.0646 161.501 91.3319 161.06ZM113.004 154.767C109.126 155.29 106.903 158.207 107.373 161.692C107.937 165.874 111.784 166.775 114.806 167.476C116.86 167.909 118.613 168.737 118.807 170.175C119.118 172.483 118.095 173.775 115.742 174.092C113.521 174.392 111.628 173.183 110.064 170.466L107.2 172.582C108.916 175.767 112.05 177.961 116.189 177.403C120.676 176.798 123.112 173.808 122.524 169.452C121.698 162.998 111.523 165.169 111.038 161.242C110.803 159.499 111.795 158.301 113.319 158.096C114.67 157.913 116.077 158.478 117.621 159.733L119.816 157.264C117.948 155.254 115.661 154.409 113.004 154.767ZM127.793 156.499L129.379 168.261C130.019 173.01 132.837 175.158 136.714 174.635C138.152 174.441 139.293 174.021 140.175 173.326L138.875 170.263C138.242 170.836 137.444 171.166 136.486 171.295C134.612 171.548 133.391 170.382 133.079 168.073L131.452 156.005L137.203 155.23L136.756 151.919L131.006 152.694L129.807 143.807L126.459 146.61L127.346 153.188L123.556 153.699L124.003 157.01L127.793 156.499Z" fill="black"/>
</g>
</g>
<defs>
<filter id="filter0_d_3_2" x="0" y="0" width="777" height="253.352" filterUnits="userSpaceOnUse" color-interpolation-filters="sRGB">
<feFlood flood-opacity="0" result="BackgroundImageFix"/>
<feColorMatrix in="SourceAlpha" type="matrix" values="0 0 0 0 0 0 0 0 0 0 0 0 0 0 0 0 0 0 127 0" result="hardAlpha"/>
<feOffset dy="2"/>
<feGaussianBlur stdDeviation="1"/>
<feComposite in2="hardAlpha" operator="out"/>
<feColorMatrix type="matrix" values="0 0 0 0 0 0 0 0 0 0 0 0 0 0 0 0 0 0 0.25 0"/>
<feBlend mode="normal" in2="BackgroundImageFix" result="effect1_dropShadow_3_2"/>
<feBlend mode="normal" in="SourceGraphic" in2="effect1_dropShadow_3_2" result="shape"/>
</filter>
<clipPath id="clip0_3_2">
<rect x="2.00191" y="101.544" width="759.881" height="149.142" rx="12" transform="rotate(-7.67947 2.00191 101.544)" fill="white"/>
</clipPath>
</defs>
</svg>
