<svg width="913" height="375" viewBox="0 0 913 375" fill="none" xmlns="http://www.w3.org/2000/svg">
<g filter="url(#filter0_d_4_9)">
<g clip-path="url(#clip0_4_9)">
<rect x="2.00002" y="117.975" width="882.842" height="255.002" rx="12" transform="rotate(-7.67947 2.00002 117.975)" fill="white"/>
<path d="M84.626 187.501C83.7883 192.134 81.3456 194.724 77.298 195.269C74.3819 195.663 71.8908 194.935 69.787 193.136C67.7267 191.331 66.4137 188.495 65.8972 184.664C65.3808 180.834 65.8957 177.752 67.4043 175.465C68.9565 173.173 71.1659 171.812 74.0819 171.419C78.1296 170.873 81.1709 172.723 83.2057 176.969L86.7585 175.382C85.6924 172.734 84.0003 170.702 81.6823 169.286C79.3644 167.87 76.6791 167.346 73.589 167.763C69.8024 168.273 66.7201 170.063 64.3914 173.168C62.1062 176.268 61.2735 180.28 61.9366 185.199C62.5998 190.117 64.4654 193.765 67.4901 196.149C70.5583 198.527 74.0044 199.436 77.7909 198.925C80.8811 198.509 83.3375 197.335 85.1977 195.356C87.0579 193.377 88.1455 190.926 88.4721 188.09L84.626 187.501ZM96.3853 193.05C98.6432 195.006 101.314 195.753 104.491 195.325C107.669 194.897 110.046 193.468 111.662 190.99C113.321 188.506 113.915 185.679 113.498 182.589C113.082 179.499 111.766 176.973 109.508 175.017C107.294 173.056 104.617 172.265 101.44 172.693C98.2625 173.121 95.8907 174.593 94.2315 177.077C92.6158 179.555 92.0163 182.339 92.4329 185.429C92.8496 188.519 94.171 191.089 96.3853 193.05ZM97.2033 179.069C98.2048 177.295 99.7531 176.288 101.886 176.001C104.018 175.713 105.778 176.274 107.17 177.725C108.6 179.128 109.462 180.917 109.755 183.093C110.049 185.27 109.692 187.223 108.69 188.998C107.726 190.723 106.178 191.73 104.045 192.017C101.913 192.305 100.153 191.744 98.7233 190.342C97.3311 188.89 96.4694 187.101 96.1759 184.925C95.8825 182.748 96.2395 180.795 97.2033 179.069ZM130.656 169.418C129.771 169.094 128.74 169.012 127.565 169.17C125.128 169.499 122.609 171.522 121.675 174.13L121.171 170.387L117.515 170.88L120.473 192.816L124.129 192.323L123.008 184.01C122.556 180.658 122.813 177.965 123.779 175.929C124.746 173.893 126.053 172.742 127.707 172.519C128.621 172.396 129.477 172.502 130.357 172.782L130.656 169.418ZM150.976 181.568C150.164 184.425 148.344 186.044 145.515 186.425C141.468 186.971 138.845 183.957 138.212 179.256C137.578 174.556 139.308 170.955 143.356 170.409C146.185 170.027 148.369 171.107 149.908 173.647L152.909 171.913C150.578 168.106 147.262 166.514 142.91 167.101C139.732 167.53 137.398 168.952 135.957 171.407C134.553 173.812 134.04 176.584 134.469 179.761C134.897 182.938 136.125 185.476 138.122 187.467C140.156 189.408 142.784 190.162 145.961 189.733C150.314 189.146 153.09 186.733 154.329 182.445L150.976 181.568ZM176.553 169.744C175.937 165.174 173.208 163.016 169.161 163.561C165.81 164.013 163.166 166.098 162.143 169.028L160.394 156.058L156.738 156.551L160.893 187.365L164.549 186.872L163.293 177.558C162.906 174.686 163.248 172.291 164.356 170.325C165.465 168.358 166.908 167.233 168.606 167.004C171.13 166.664 172.592 167.973 172.997 170.976L174.951 185.47L178.607 184.977L176.553 169.744ZM186.619 180.883C188.877 182.839 191.548 183.586 194.726 183.158C197.903 182.729 200.28 181.301 201.896 178.823C203.555 176.339 204.149 173.512 203.732 170.422C203.316 167.331 202 164.806 199.742 162.85C197.528 160.889 194.851 160.097 191.674 160.526C188.497 160.954 186.125 162.426 184.466 164.91C182.85 167.388 182.25 170.172 182.667 173.262C183.084 176.352 184.405 178.921 186.619 180.883ZM187.438 166.902C188.439 165.128 189.987 164.121 192.12 163.834C194.253 163.546 196.012 164.106 197.404 165.558C198.834 166.961 199.696 168.75 199.989 170.926C200.283 173.102 199.926 175.056 198.924 176.831C197.96 178.556 196.412 179.562 194.28 179.85C192.147 180.138 190.387 179.577 188.957 178.175C187.565 176.723 186.704 174.933 186.41 172.757C186.117 170.581 186.474 168.627 187.438 166.902ZM223.246 178.958L226.902 178.465L223.944 156.529L220.288 157.022L223.246 178.958ZM218.553 151.052C218.758 152.575 220.092 153.592 221.659 153.381C223.225 153.169 224.242 151.836 224.037 150.312C223.825 148.746 222.486 147.685 220.919 147.897C219.352 148.108 218.341 149.485 218.553 151.052ZM237.261 154.379C233.387 154.901 231.166 157.815 231.635 161.297C232.199 165.475 236.042 166.375 239.062 167.076C241.114 167.508 242.865 168.335 243.059 169.772C243.37 172.078 242.348 173.369 239.997 173.685C237.778 173.985 235.887 172.777 234.324 170.063L231.463 172.177C233.177 175.358 236.309 177.551 240.443 176.993C244.926 176.389 247.36 173.402 246.773 169.049C245.948 162.602 235.782 164.771 235.297 160.848C235.062 159.107 236.053 157.91 237.576 157.704C238.926 157.522 240.331 158.086 241.874 159.34L244.067 156.873C242.201 154.865 239.916 154.021 237.261 154.379ZM267.031 166.628C266.696 164.147 268.641 162.467 272.341 161.968L276.258 161.44L276.328 161.962C276.639 164.269 276.259 166.048 275.187 167.301C274.115 168.553 272.749 169.269 271.095 169.492C268.789 169.803 267.313 168.717 267.031 166.628ZM279.397 157.117C278.646 151.546 274.931 149.299 269.839 149.986C265.704 150.543 262.925 153.267 262.858 157.043L266.179 157.348C266.37 155.151 267.978 153.605 270.285 153.294C273.462 152.865 275.278 154.171 275.683 157.175L275.812 158.132L272.243 158.613C266.106 159.441 262.66 162.476 263.288 167.133C263.892 171.616 267.015 173.41 270.976 172.876C273.979 172.471 276.089 171.035 277.389 168.511L278.415 171.519L281.287 171.131L279.397 157.117ZM302.962 152.477C302.375 148.125 299.604 145.972 295.599 146.512C292.422 146.941 290.185 148.749 288.924 151.888L288.378 147.841L284.722 148.334L287.68 170.269L291.336 169.776L290.098 160.593C289.704 157.677 289.991 155.201 290.969 153.252C291.991 151.298 293.347 150.184 295.044 149.955C297.569 149.615 299.031 150.924 299.435 153.927L301.39 168.421L305.046 167.928L302.962 152.477ZM341.036 150.977C340.643 148.061 339.443 145.741 337.389 143.979C335.372 142.169 332.8 141.496 329.71 141.913C326.533 142.341 324.242 143.758 322.8 146.212C321.396 148.618 320.884 151.39 321.312 154.567C321.741 157.744 322.969 160.282 324.966 162.273C327 164.214 329.584 164.973 332.762 164.545C337.288 163.935 339.789 161.78 341.254 157.196L337.845 156.237C336.965 159.237 335.406 160.821 332.316 161.237C328.529 161.748 325.96 159.125 325.161 154.846L341.265 152.674L341.036 150.977ZM330.156 145.221C333.507 144.769 335.846 146.669 336.989 149.883L324.933 151.509C325.177 148.063 326.892 145.661 330.156 145.221ZM350.38 155.389C350.045 152.908 351.99 151.228 355.689 150.729L359.607 150.201L359.677 150.723C359.988 153.03 359.608 154.81 358.536 156.062C357.464 157.314 356.098 158.03 354.444 158.253C352.137 158.564 350.661 157.478 350.38 155.389ZM362.746 145.878C361.995 140.307 358.28 138.061 353.188 138.747C349.053 139.305 346.274 142.028 346.207 145.804L349.527 146.109C349.718 143.912 351.327 142.366 353.634 142.055C356.811 141.627 358.626 142.933 359.031 145.936L359.161 146.893L355.592 147.375C349.455 148.202 346.009 151.237 346.637 155.894C347.241 160.377 350.364 162.172 354.324 161.637C357.327 161.233 359.438 159.796 360.737 157.272L361.763 160.28L364.636 159.893L362.746 145.878ZM374.546 135.867C370.673 136.389 368.451 139.304 368.921 142.785C369.484 146.964 373.328 147.863 376.347 148.564C378.399 148.996 380.151 149.824 380.344 151.26C380.655 153.567 379.633 154.857 377.282 155.174C375.063 155.473 373.172 154.266 371.609 151.552L368.748 153.666C370.462 156.847 373.594 159.039 377.728 158.482C382.211 157.877 384.645 154.89 384.058 150.538C383.233 144.091 373.067 146.259 372.582 142.336C372.348 140.595 373.338 139.398 374.862 139.193C376.211 139.011 377.616 139.574 379.159 140.829L381.352 138.362C379.486 136.353 377.201 135.509 374.546 135.867ZM396.152 149.439L388.445 134.348L384.441 134.887L394.979 154.87L392.818 165.133L396.561 164.628L403.287 132.346L399.456 132.863L396.152 149.439ZM411.183 158.358L414.958 148.232L409.996 148.901L408.397 158.733L411.183 158.358ZM444.5 127.099C443.614 126.776 442.584 126.693 441.408 126.851C438.971 127.18 436.452 129.204 435.519 131.811L435.014 128.068L431.358 128.561L434.316 150.497L437.972 150.004L436.851 141.691C436.399 138.34 436.656 135.646 437.622 133.61C438.589 131.574 439.896 130.423 441.55 130.2C442.464 130.077 443.32 130.183 444.2 130.463L444.5 127.099ZM451.913 148.124L455.569 147.631L452.611 125.695L448.955 126.188L451.913 148.124ZM447.22 120.218C447.425 121.742 448.759 122.758 450.325 122.547C451.892 122.336 452.909 121.002 452.704 119.479C452.492 117.912 451.153 116.852 449.586 117.063C448.019 117.274 447.008 118.651 447.22 120.218ZM468.096 123.253C461.829 124.098 458.957 129.094 459.873 135.883C460.788 142.673 464.88 146.73 471.148 145.885C473.759 145.533 476.276 143.82 477.135 141.976L477.499 144.674L481.155 144.181L477 113.367L473.344 113.86L474.893 125.35C474.407 124.706 473.449 124.171 472.099 123.688C470.748 123.205 469.402 123.077 468.096 123.253ZM471.05 142.53C467.22 143.047 464.255 140.123 463.616 135.379C462.976 130.635 465.06 127.03 468.89 126.514C472.851 125.98 475.685 128.921 476.324 133.665C476.964 138.409 475.01 141.996 471.05 142.53ZM488.126 143.241L491.782 142.748L488.824 120.812L485.168 121.305L488.126 143.241ZM483.432 115.335C483.638 116.859 484.971 117.875 486.538 117.664C488.105 117.453 489.122 116.119 488.916 114.596C488.705 113.029 487.366 111.969 485.799 112.18C484.232 112.391 483.221 113.769 483.432 115.335ZM512.592 132.807C511.781 135.664 509.961 137.283 507.132 137.665C503.084 138.211 500.462 135.196 499.828 130.496C499.194 125.795 500.925 122.194 504.972 121.648C507.801 121.267 509.985 122.346 511.524 124.886L514.525 123.152C512.195 119.345 508.879 117.754 504.526 118.341C501.349 118.769 499.015 120.192 497.573 122.646C496.169 125.051 495.657 127.823 496.085 131.001C496.514 134.178 497.742 136.715 499.739 138.706C501.773 140.647 504.401 141.401 507.578 140.973C511.93 140.386 514.707 137.973 515.946 133.685L512.592 132.807ZM521.502 132.138C522.089 136.49 524.86 138.642 528.865 138.102C532.042 137.674 534.28 135.865 535.54 132.726L536.086 136.774L539.742 136.281L536.784 114.345L533.128 114.838L534.366 124.022C534.76 126.938 534.473 129.414 533.452 131.368C532.474 133.317 531.117 134.431 529.42 134.66C526.895 135 525.434 133.69 525.029 130.687L523.074 116.194L519.418 116.687L521.502 132.138ZM546.735 135.338L550.391 134.845L546.235 104.031L542.58 104.524L546.735 135.338ZM558.479 130.741C560.737 132.697 563.408 133.444 566.586 133.016C569.763 132.588 572.14 131.159 573.756 128.681C575.415 126.197 576.009 123.37 575.592 120.28C575.176 117.19 573.86 114.664 571.602 112.708C569.388 110.747 566.711 109.956 563.534 110.384C560.357 110.812 557.985 112.284 556.326 114.768C554.71 117.246 554.11 120.03 554.527 123.12C554.944 126.21 556.265 128.78 558.479 130.741ZM559.297 116.76C560.299 114.986 561.847 113.979 563.98 113.692C566.113 113.404 567.872 113.965 569.264 115.416C570.694 116.819 571.556 118.608 571.849 120.784C572.143 122.961 571.786 124.914 570.784 126.689C569.82 128.414 568.272 129.421 566.14 129.708C564.007 129.996 562.247 129.435 560.817 128.033C559.425 126.581 558.564 124.792 558.27 122.616C557.977 120.439 558.334 118.486 559.297 116.76ZM581.984 123.982C582.571 128.335 585.342 130.487 589.347 129.947C592.524 129.519 594.761 127.71 596.022 124.571L596.568 128.619L600.224 128.126L597.266 106.19L593.61 106.683L594.848 115.866C595.242 118.782 594.955 121.258 593.934 123.213C592.955 125.162 591.599 126.275 589.902 126.504C587.377 126.845 585.915 125.535 585.511 122.532L583.556 108.039L579.9 108.532L581.984 123.982ZM610.949 103.991C607.075 104.513 604.854 107.427 605.323 110.909C605.886 115.087 609.73 115.987 612.749 116.688C614.802 117.12 616.553 117.947 616.747 119.384C617.058 121.69 616.035 122.98 613.685 123.297C611.465 123.597 609.574 122.389 608.012 119.675L605.15 121.789C606.865 124.97 609.996 127.163 614.131 126.605C618.614 126.001 621.047 123.014 620.46 118.661C619.635 112.214 609.469 114.382 608.985 110.459C608.75 108.718 609.741 107.521 611.264 107.316C612.613 107.134 614.019 107.698 615.562 108.952L617.755 106.485C615.889 104.477 613.604 103.633 610.949 103.991ZM628.544 129.049L632.319 118.923L627.357 119.592L625.758 129.424L628.544 129.049ZM653.002 114.583C652.668 112.103 654.612 110.422 658.312 109.923L662.229 109.395L662.299 109.918C662.61 112.224 662.23 114.004 661.158 115.256C660.086 116.509 658.72 117.225 657.066 117.448C654.76 117.759 653.284 116.673 653.002 114.583ZM665.368 105.072C664.617 99.5013 660.902 97.2548 655.81 97.9414C651.675 98.4989 648.896 101.222 648.829 104.998L652.15 105.304C652.341 103.107 653.949 101.56 656.256 101.249C659.433 100.821 661.249 102.127 661.654 105.13L661.783 106.088L658.214 106.569C652.077 107.396 648.631 110.431 649.259 115.088C649.864 119.571 652.986 121.366 656.947 120.832C659.95 120.427 662.06 118.99 663.36 116.466L664.386 119.474L667.258 119.087L665.368 105.072ZM688.933 100.432C688.346 96.0801 685.575 93.9279 681.571 94.4678C678.393 94.8962 676.156 96.7047 674.895 99.8437L674.349 95.7961L670.693 96.2891L673.651 118.225L677.307 117.732L676.069 108.548C675.675 105.632 675.962 103.156 676.94 101.208C677.962 99.253 679.318 98.1395 681.016 97.9106C683.54 97.5702 685.002 98.8798 685.407 101.883L687.361 116.376L691.017 115.883L688.933 100.432ZM703.351 91.531C697.083 92.3761 694.212 97.372 695.127 104.162C696.043 110.951 700.135 115.008 706.403 114.163C709.014 113.811 711.53 112.098 712.39 110.254L712.754 112.952L716.409 112.459L712.254 81.6447L708.598 82.1377L710.148 93.6278C709.662 92.9843 708.704 92.4488 707.354 91.9662C706.003 91.4835 704.657 91.3549 703.351 91.531ZM706.305 110.808C702.475 111.325 699.51 108.401 698.87 103.657C698.231 98.9128 700.315 95.3082 704.145 94.7918C708.106 94.2577 710.94 97.1992 711.579 101.943C712.219 106.687 710.265 110.274 706.305 110.808ZM82.8673 229.342C81.9817 229.018 80.9513 228.936 79.7762 229.094C77.3389 229.423 74.8199 231.446 73.8864 234.054L73.3817 230.311L69.7257 230.804L72.6835 252.74L76.3395 252.247L75.2186 243.934C74.7667 240.582 75.0239 237.889 75.9902 235.853C76.9565 233.817 78.2636 232.666 79.9175 232.443C80.8315 232.32 81.6878 232.426 82.5675 232.706L82.8673 229.342ZM90.2809 250.367L93.9368 249.874L90.979 227.938L87.323 228.431L90.2809 250.367ZM85.5874 222.461C85.7928 223.984 87.1264 225.001 88.6933 224.79C90.2601 224.579 91.2768 223.245 91.0714 221.722C90.8601 220.155 89.5206 219.095 87.9538 219.306C86.387 219.517 85.3762 220.894 85.5874 222.461ZM106.464 225.496C100.196 226.341 97.3248 231.337 98.2404 238.126C99.1559 244.916 103.248 248.973 109.515 248.128C112.127 247.776 114.643 246.063 115.503 244.218L115.866 246.917L119.522 246.424L115.367 215.609L111.711 216.102L113.261 227.593C112.775 226.949 111.817 226.414 110.466 225.931C109.116 225.448 107.769 225.32 106.464 225.496ZM109.418 244.773C105.588 245.289 102.623 242.366 101.983 237.622C101.344 232.878 103.428 229.273 107.258 228.756C111.219 228.222 114.052 231.164 114.692 235.908C115.332 240.652 113.378 244.239 109.418 244.773ZM126.494 245.484L130.149 244.991L127.192 223.055L123.536 223.548L126.494 245.484ZM121.8 217.578C122.006 219.102 123.339 220.118 124.906 219.907C126.473 219.696 127.489 218.362 127.284 216.839C127.073 215.272 125.733 214.212 124.166 214.423C122.6 214.634 121.589 216.011 121.8 217.578ZM150.96 235.05C150.149 237.907 148.329 239.526 145.5 239.908C141.452 240.453 138.83 237.439 138.196 232.739C137.562 228.038 139.292 224.437 143.34 223.891C146.169 223.51 148.353 224.589 149.892 227.129L152.893 225.395C150.563 221.588 147.246 219.997 142.894 220.583C139.717 221.012 137.383 222.434 135.941 224.889C134.537 227.294 134.025 230.066 134.453 233.243C134.881 236.421 136.11 238.958 138.107 240.949C140.141 242.89 142.769 243.644 145.946 243.215C150.298 242.629 153.075 240.216 154.313 235.927L150.96 235.05ZM159.869 234.381C160.456 238.733 163.228 240.885 167.232 240.345C170.41 239.917 172.647 238.108 173.908 234.969L174.454 239.017L178.11 238.524L175.152 216.588L171.496 217.081L172.734 226.265C173.127 229.181 172.841 231.657 171.819 233.611C170.841 235.56 169.485 236.674 167.787 236.902C165.263 237.243 163.801 235.933 163.396 232.93L161.442 218.437L157.786 218.93L159.869 234.381ZM185.102 237.581L188.758 237.088L184.603 206.274L180.947 206.767L185.102 237.581ZM196.847 232.984C199.105 234.94 201.776 235.687 204.953 235.259C208.131 234.83 210.508 233.402 212.124 230.924C213.783 228.44 214.377 225.613 213.96 222.523C213.543 219.432 212.228 216.907 209.97 214.951C207.756 212.99 205.079 212.198 201.902 212.627C198.724 213.055 196.353 214.527 194.693 217.011C193.078 219.489 192.478 222.273 192.895 225.363C193.312 228.453 194.633 231.023 196.847 232.984ZM197.665 219.003C198.667 217.229 200.215 216.222 202.348 215.935C204.48 215.647 206.24 216.207 207.632 217.659C209.062 219.062 209.924 220.851 210.217 223.027C210.511 225.203 210.154 227.157 209.152 228.932C208.188 230.657 206.64 231.664 204.507 231.951C202.375 232.239 200.615 231.678 199.185 230.276C197.793 228.824 196.931 227.034 196.638 224.858C196.344 222.682 196.701 220.729 197.665 219.003ZM220.351 226.225C220.938 230.578 223.71 232.73 227.714 232.19C230.891 231.761 233.129 229.953 234.39 226.814L234.936 230.862L238.592 230.369L235.634 208.433L231.978 208.926L233.216 218.109C233.609 221.025 233.323 223.501 232.301 225.456C231.323 227.405 229.967 228.518 228.269 228.747C225.745 229.087 224.283 227.778 223.878 224.775L221.924 210.281L218.268 210.774L220.351 226.225ZM249.316 206.233C245.443 206.756 243.221 209.67 243.691 213.152C244.254 217.33 248.098 218.23 251.117 218.93C253.17 219.363 254.921 220.19 255.114 221.626C255.425 223.933 254.403 225.223 252.053 225.54C249.833 225.839 247.942 224.632 246.379 221.918L243.518 224.032C245.232 227.213 248.364 229.405 252.499 228.848C256.982 228.243 259.415 225.256 258.828 220.904C258.003 214.457 247.837 216.625 247.353 212.702C247.118 210.961 248.109 209.764 249.632 209.559C250.981 209.377 252.387 209.941 253.929 211.195L256.123 208.728C254.257 206.719 251.971 205.875 249.316 206.233ZM265.008 226.807L268.664 226.314L264.509 195.499L260.853 195.992L265.008 226.807ZM282.143 218.292L274.436 203.201L270.432 203.741L280.97 223.724L278.809 233.986L282.552 233.481L289.278 201.199L285.448 201.716L282.143 218.292ZM324.997 206.62C324.603 203.704 323.404 201.384 321.35 199.622C319.333 197.812 316.761 197.139 313.671 197.556C310.493 197.984 308.203 199.401 306.761 201.855C305.357 204.26 304.845 207.033 305.273 210.21C305.702 213.387 306.93 215.925 308.927 217.915C310.961 219.857 313.545 220.616 316.722 220.188C321.249 219.578 323.75 217.423 325.215 212.839L321.806 211.88C320.925 214.879 319.366 216.463 316.276 216.88C312.49 217.391 309.92 214.768 309.122 210.489L325.225 208.317L324.997 206.62ZM314.117 200.864C317.468 200.412 319.807 202.312 320.949 205.526L308.893 207.151C309.138 203.706 310.852 201.304 314.117 200.864ZM334.34 211.032C334.006 208.551 335.951 206.871 339.65 206.372L343.567 205.844L343.638 206.366C343.949 208.673 343.568 210.453 342.496 211.705C341.425 212.957 340.059 213.673 338.405 213.896C336.098 214.207 334.622 213.121 334.34 211.032ZM346.707 201.521C345.956 195.95 342.241 193.703 337.148 194.39C333.014 194.948 330.234 197.671 330.168 201.447L333.488 201.752C333.679 199.555 335.288 198.009 337.594 197.698C340.772 197.269 342.587 198.576 342.992 201.579L343.121 202.536L339.552 203.017C333.416 203.845 329.97 206.88 330.597 211.537C331.202 216.02 334.324 217.814 338.285 217.28C341.288 216.875 343.399 215.439 344.698 212.915L345.724 215.923L348.597 215.535L346.707 201.521ZM358.507 191.51C354.633 192.032 352.412 194.946 352.881 198.428C353.445 202.607 357.288 203.506 360.308 204.207C362.36 204.639 364.111 205.467 364.305 206.903C364.616 209.21 363.594 210.5 361.243 210.817C359.024 211.116 357.133 209.909 355.57 207.195L352.709 209.309C354.423 212.49 357.555 214.682 361.689 214.125C366.172 213.52 368.606 210.533 368.019 206.181C367.194 199.733 357.028 201.902 356.543 197.979C356.308 196.238 357.299 195.041 358.822 194.835C360.172 194.653 361.577 195.217 363.12 196.472L365.313 194.004C363.447 191.996 361.162 191.152 358.507 191.51ZM380.113 205.082L372.406 189.99L368.402 190.53L378.94 210.513L376.779 220.776L380.522 220.271L387.247 187.989L383.417 188.506L380.113 205.082ZM423.882 200.199L417.302 183.937L413.646 184.43L411.608 201.854L404.854 185.615L401.024 186.132L410.641 207.169L414.123 206.7L416.184 189.449L422.74 205.538L426.222 205.068L429.924 182.235L426.093 182.751L423.882 200.199ZM438.686 196.962C438.351 194.481 440.296 192.801 443.996 192.302L447.913 191.774L447.983 192.296C448.294 194.603 447.914 196.383 446.842 197.635C445.77 198.887 444.404 199.603 442.75 199.826C440.443 200.137 438.967 199.051 438.686 196.962ZM451.052 187.451C450.301 181.88 446.586 179.633 441.494 180.32C437.359 180.878 434.58 183.601 434.513 187.377L437.833 187.682C438.024 185.485 439.633 183.939 441.94 183.628C445.117 183.199 446.933 184.506 447.337 187.509L447.467 188.466L443.898 188.947C437.761 189.775 434.315 192.81 434.943 197.467C435.547 201.95 438.67 203.744 442.63 203.21C445.633 202.805 447.744 201.369 449.043 198.845L450.069 201.853L452.942 201.465L451.052 187.451ZM465.629 193.551L457.922 178.459L453.918 178.999L464.456 198.982L462.295 209.244L466.038 208.74L472.764 176.458L468.934 176.975L465.629 193.551ZM490.251 177.468L491.835 189.219C492.475 193.963 495.29 196.11 499.164 195.587C500.6 195.394 501.74 194.974 502.621 194.279L501.322 191.219C500.691 191.792 499.893 192.121 498.935 192.25C497.064 192.503 495.843 191.338 495.532 189.031L493.907 176.975L499.652 176.2L499.206 172.893L493.461 173.667L492.263 164.789L488.918 167.588L489.805 174.16L486.018 174.671L486.464 177.979L490.251 177.468ZM508.778 190.923C511.036 192.879 513.707 193.626 516.884 193.198C520.061 192.77 522.439 191.341 524.054 188.863C525.714 186.379 526.307 183.552 525.891 180.462C525.474 177.372 524.158 174.846 521.901 172.89C519.686 170.929 517.009 170.137 513.832 170.566C510.655 170.994 508.283 172.466 506.624 174.95C505.008 177.428 504.409 180.212 504.825 183.302C505.242 186.392 506.563 188.962 508.778 190.923ZM509.596 176.942C510.597 175.168 512.146 174.161 514.278 173.874C516.411 173.586 518.17 174.147 519.563 175.598C520.993 177.001 521.854 178.79 522.148 180.966C522.441 183.143 522.084 185.096 521.083 186.871C520.119 188.596 518.571 189.603 516.438 189.89C514.305 190.178 512.546 189.617 511.116 188.215C509.724 186.763 508.862 184.974 508.568 182.797C508.275 180.621 508.632 178.668 509.596 176.942ZM558.735 180.066C557.924 182.922 556.104 184.542 553.275 184.923C549.227 185.469 546.605 182.455 545.971 177.754C545.337 173.054 547.068 169.452 551.115 168.907C553.944 168.525 556.128 169.604 557.667 172.144L560.668 170.41C558.338 166.603 555.021 165.012 550.669 165.599C547.492 166.027 545.158 167.45 543.716 169.904C542.312 172.309 541.8 175.082 542.228 178.259C542.657 181.436 543.885 183.973 545.882 185.964C547.916 187.906 550.544 188.659 553.721 188.231C558.073 187.644 560.85 185.231 562.089 180.943L558.735 180.066ZM578.666 162.488C577.781 162.165 576.75 162.082 575.575 162.24C573.138 162.569 570.619 164.593 569.686 167.2L569.181 163.457L565.525 163.95L568.483 185.886L572.139 185.393L571.018 177.08C570.566 173.729 570.823 171.035 571.789 168.999C572.756 166.963 574.063 165.812 575.717 165.589C576.631 165.466 577.487 165.572 578.367 165.852L578.666 162.488ZM602.202 169.241C601.809 166.325 600.61 164.005 598.555 162.244C596.539 160.433 593.966 159.761 590.876 160.177C587.699 160.606 585.408 162.022 583.967 164.477C582.563 166.882 582.05 169.654 582.479 172.831C582.907 176.009 584.136 178.546 586.132 180.537C588.167 182.478 590.751 183.238 593.928 182.809C598.454 182.199 600.956 180.045 602.42 175.46L599.012 174.502C598.131 177.501 596.572 179.085 593.482 179.502C589.695 180.012 587.126 177.39 586.327 173.11L602.431 170.939L602.202 169.241ZM591.322 163.485C594.673 163.033 597.012 164.933 598.155 168.147L586.099 169.773C586.343 166.328 588.058 163.925 591.322 163.485ZM611.546 173.654C611.211 171.173 613.156 169.492 616.856 168.994L620.773 168.465L620.843 168.988C621.154 171.294 620.774 173.074 619.702 174.326C618.63 175.579 617.264 176.295 615.61 176.518C613.304 176.829 611.828 175.743 611.546 173.654ZM623.912 164.142C623.161 158.571 619.446 156.325 614.354 157.012C610.219 157.569 607.44 160.292 607.373 164.068L610.694 164.374C610.885 162.177 612.493 160.63 614.8 160.319C617.977 159.891 619.793 161.197 620.198 164.2L620.327 165.158L616.758 165.639C610.621 166.466 607.175 169.501 607.803 174.158C608.407 178.641 611.53 180.436 615.49 179.902C618.494 179.497 620.604 178.06 621.904 175.536L622.93 178.544L625.802 178.157L623.912 164.142ZM631.446 158.429L633.031 170.18C633.67 174.925 636.486 177.071 640.359 176.548C641.796 176.355 642.935 175.935 643.817 175.24L642.518 172.181C641.886 172.753 641.088 173.082 640.131 173.211C638.259 173.464 637.039 172.299 636.728 169.992L635.102 157.936L640.847 157.162L640.401 153.854L634.656 154.628L633.459 145.75L630.114 148.549L631 155.121L627.214 155.632L627.66 158.94L631.446 158.429ZM665.744 160.673C665.351 157.757 664.152 155.437 662.097 153.676C660.081 151.865 657.508 151.193 654.418 151.609C651.241 152.038 648.95 153.454 647.509 155.909C646.105 158.314 645.592 161.086 646.021 164.263C646.449 167.44 647.678 169.978 649.674 171.969C651.709 173.91 654.293 174.67 657.47 174.241C661.996 173.631 664.498 171.477 665.962 166.892L662.554 165.934C661.673 168.933 660.114 170.517 657.024 170.934C653.237 171.444 650.668 168.821 649.869 164.542L665.973 162.371L665.744 160.673ZM654.864 154.917C658.216 154.465 660.555 156.365 661.697 159.579L649.641 161.205C649.886 157.76 651.6 155.357 654.864 154.917ZM83.0286 282.136C79.1551 282.658 76.9334 285.572 77.4029 289.054C77.9663 293.232 81.8101 294.132 84.8293 294.833C86.8818 295.265 88.633 296.093 88.8267 297.529C89.1377 299.836 88.1152 301.126 85.7649 301.443C83.5452 301.742 81.6541 300.534 80.0917 297.82L77.2304 299.934C78.9445 303.116 82.0762 305.308 86.2109 304.75C90.6938 304.146 93.1272 301.159 92.5403 296.807C91.7153 290.359 81.5494 292.528 81.0648 288.605C80.83 286.864 81.8208 285.667 83.3441 285.461C84.6933 285.279 86.0988 285.843 87.6416 287.097L89.8349 284.63C87.9688 282.622 85.6835 281.778 83.0286 282.136ZM98.7204 302.709L102.376 302.216L98.2213 271.402L94.5654 271.895L98.7204 302.709ZM108.924 301.333L112.58 300.84L109.622 278.904L105.966 279.397L108.924 301.333ZM104.231 273.427C104.436 274.951 105.77 275.967 107.337 275.756C108.903 275.545 109.92 274.211 109.715 272.688C109.503 271.121 108.164 270.061 106.597 270.272C105.03 270.483 104.02 271.861 104.231 273.427ZM125.107 276.462C118.84 277.307 115.968 282.303 116.884 289.093C117.799 295.882 121.891 299.939 128.159 299.094C130.77 298.742 133.287 297.029 134.146 295.185L134.51 297.883L138.166 297.39L134.011 266.576L130.355 267.069L131.904 278.559C131.418 277.915 130.46 277.38 129.11 276.897C127.76 276.414 126.413 276.286 125.107 276.462ZM128.061 295.739C124.231 296.256 121.266 293.332 120.627 288.588C119.987 283.844 122.071 280.239 125.901 279.723C129.862 279.189 132.696 282.13 133.336 286.874C133.975 291.618 132.022 295.205 128.061 295.739ZM162.194 282.052C161.801 279.136 160.602 276.816 158.547 275.055C156.53 273.244 153.958 272.572 150.868 272.988C147.691 273.417 145.4 274.833 143.959 277.288C142.555 279.693 142.042 282.465 142.471 285.642C142.899 288.82 144.127 291.357 146.124 293.348C148.159 295.289 150.743 296.049 153.92 295.62C158.446 295.01 160.948 292.856 162.412 288.271L159.004 287.313C158.123 290.312 156.564 291.896 153.474 292.313C149.687 292.823 147.118 290.201 146.319 285.921L162.423 283.75L162.194 282.052ZM151.314 276.296C154.665 275.844 157.004 277.745 158.147 280.958L146.091 282.584C146.335 279.139 148.05 276.736 151.314 276.296ZM172.965 270.009C169.092 270.531 166.87 273.445 167.34 276.927C167.903 281.105 171.747 282.005 174.766 282.706C176.818 283.138 178.57 283.965 178.763 285.402C179.074 287.708 178.052 288.999 175.702 289.315C173.482 289.615 171.591 288.407 170.028 285.693L167.167 287.807C168.881 290.988 172.013 293.181 176.148 292.623C180.63 292.019 183.064 289.032 182.477 284.679C181.652 278.232 171.486 280.401 171.001 276.478C170.767 274.737 171.757 273.54 173.281 273.334C174.63 273.152 176.035 273.716 177.578 274.97L179.772 272.503C177.905 270.495 175.62 269.651 172.965 270.009ZM204.872 272.885C204.255 268.315 201.527 266.157 197.479 266.703C194.128 267.155 191.484 269.24 190.461 272.17L188.713 259.2L185.057 259.693L189.212 290.507L192.868 290.014L191.612 280.7C191.224 277.828 191.566 275.433 192.675 273.466C193.783 271.5 195.227 270.375 196.924 270.146C199.449 269.806 200.91 271.115 201.315 274.118L203.27 288.612L206.926 288.119L204.872 272.885ZM214.938 284.025C217.196 285.98 219.867 286.728 223.044 286.3C226.221 285.871 228.599 284.443 230.215 281.965C231.874 279.481 232.468 276.654 232.051 273.563C231.634 270.473 230.319 267.947 228.061 265.992C225.847 264.03 223.17 263.239 219.992 263.668C216.815 264.096 214.443 265.568 212.784 268.052C211.169 270.53 210.569 273.314 210.986 276.404C211.402 279.494 212.724 282.063 214.938 284.025ZM215.756 270.044C216.758 268.269 218.306 267.263 220.438 266.975C222.571 266.688 224.331 267.248 225.723 268.7C227.153 270.103 228.014 271.892 228.308 274.068C228.601 276.244 228.244 278.198 227.243 279.973C226.279 281.698 224.731 282.704 222.598 282.992C220.466 283.279 218.706 282.719 217.276 281.317C215.884 279.865 215.022 278.075 214.729 275.899C214.435 273.723 214.792 271.769 215.756 270.044ZM256.829 276.205L250.249 259.942L246.593 260.435L244.555 277.86L237.801 261.621L233.971 262.137L243.588 283.175L247.07 282.705L249.131 265.455L255.688 281.543L259.169 281.074L262.871 258.24L259.041 258.757L256.829 276.205ZM273.698 256.426C269.824 256.948 267.603 259.862 268.072 263.344C268.635 267.522 272.479 268.422 275.498 269.123C277.551 269.555 279.302 270.383 279.496 271.819C279.807 274.126 278.784 275.416 276.434 275.733C274.214 276.032 272.323 274.825 270.761 272.11L267.9 274.225C269.614 277.406 272.745 279.598 276.88 279.04C281.363 278.436 283.796 275.449 283.209 271.097C282.384 264.649 272.219 266.818 271.734 262.895C271.499 261.154 272.49 259.957 274.013 259.751C275.362 259.569 276.768 260.133 278.311 261.388L280.504 258.92C278.638 256.912 276.353 256.068 273.698 256.426ZM301.007 268.83C301.594 273.182 304.366 275.334 308.37 274.794C311.547 274.366 313.785 272.557 315.045 269.418L315.591 273.466L319.247 272.973L316.289 251.037L312.633 251.53L313.872 260.714C314.265 263.63 313.978 266.106 312.957 268.06C311.979 270.009 310.622 271.123 308.925 271.352C306.4 271.692 304.939 270.382 304.534 267.379L302.579 252.886L298.924 253.379L301.007 268.83ZM329.972 248.838C326.098 249.36 323.877 252.274 324.346 255.756C324.91 259.934 328.753 260.834 331.773 261.535C333.825 261.967 335.576 262.795 335.77 264.231C336.081 266.538 335.058 267.828 332.708 268.145C330.488 268.444 328.597 267.236 327.035 264.522L324.174 266.637C325.888 269.818 329.019 272.01 333.154 271.452C337.637 270.848 340.07 267.861 339.484 263.509C338.659 257.061 328.493 259.23 328.008 255.307C327.773 253.566 328.764 252.369 330.287 252.163C331.637 251.981 333.042 252.545 334.585 253.799L336.778 251.332C334.912 249.324 332.627 248.48 329.972 248.838ZM345.879 269.382L349.535 268.889L346.577 246.953L342.921 247.446L345.879 269.382ZM341.186 241.476C341.391 243 342.725 244.016 344.292 243.805C345.858 243.594 346.875 242.26 346.67 240.737C346.458 239.17 345.119 238.11 343.552 238.321C341.985 238.532 340.975 239.909 341.186 241.476ZM371.319 250.22C370.732 245.868 367.96 243.716 363.956 244.255C360.779 244.684 358.541 246.492 357.28 249.631L356.735 245.584L353.079 246.077L356.036 268.012L359.692 267.519L358.454 258.336C358.061 255.42 358.347 252.944 359.326 250.995C360.347 249.041 361.704 247.927 363.401 247.698C365.925 247.358 367.387 248.667 367.792 251.67L369.746 266.164L373.402 265.671L371.319 250.22ZM378.509 249.827C378.762 251.698 379.501 253.238 380.765 254.397C379.104 255.552 378.415 257.018 378.656 258.803C378.855 260.282 379.493 261.393 380.605 262.085C379.414 263.442 378.923 265.059 379.176 266.931C379.786 271.457 383.85 273.657 389.464 272.9C394.861 272.172 398.4 269.169 397.713 264.077C397.191 260.203 394.199 258.391 390.021 258.954L384.842 259.652C383.188 259.876 382.279 259.378 382.114 258.159C381.985 257.202 382.37 256.441 383.263 255.833C384.422 256.208 385.719 256.299 387.155 256.106C389.375 255.806 391.115 254.907 392.375 253.408C393.629 251.865 394.129 249.98 393.829 247.761C393.624 246.237 393.1 244.979 392.207 243.947L394.944 241.894L392.885 239.114L389.267 241.862C387.96 241.373 386.614 241.245 385.177 241.438C382.958 241.738 381.224 242.68 379.969 244.223C378.715 245.766 378.21 247.607 378.509 249.827ZM389.878 262.164C392.358 261.83 393.724 262.753 394.017 264.929C394.34 267.323 392.686 269.186 389.03 269.679C385.374 270.172 383.149 268.788 382.814 266.307C382.626 264.914 382.958 263.762 383.816 262.893C384.475 262.848 385.003 262.821 385.438 262.763L389.878 262.164ZM382.837 246.097C384.198 244.362 386.896 243.998 388.669 245.31C389.552 245.945 390.084 246.936 390.26 248.242C390.436 249.548 390.186 250.645 389.502 251.491C388.129 253.138 385.43 253.502 383.67 252.277C382.787 251.643 382.254 250.651 382.078 249.345C381.902 248.04 382.153 246.942 382.837 246.097ZM414.526 260.126L418.356 259.609L416.46 245.551L427.733 244.031L427.24 240.375L415.967 241.895L414.741 232.799L428.625 230.927L428.132 227.271L410.418 229.659L414.526 260.126ZM437.771 256.991L441.427 256.498L438.469 234.563L434.813 235.056L437.771 256.991ZM433.078 229.086C433.283 230.609 434.617 231.626 436.183 231.414C437.75 231.203 438.767 229.869 438.562 228.346C438.35 226.779 437.011 225.719 435.444 225.93C433.877 226.142 432.866 227.519 433.078 229.086ZM446.769 240.622C447.022 242.494 447.761 244.034 449.025 245.193C447.364 246.347 446.675 247.814 446.916 249.598C447.116 251.078 447.753 252.189 448.865 252.881C447.674 254.238 447.184 255.855 447.436 257.726C448.046 262.253 452.11 264.453 457.724 263.695C463.121 262.968 466.66 259.965 465.973 254.872C465.451 250.999 462.459 249.187 458.281 249.75L453.102 250.448C451.448 250.671 450.539 250.173 450.374 248.955C450.245 247.997 450.63 247.236 451.523 246.629C452.682 247.004 453.979 247.095 455.415 246.901C457.635 246.602 459.375 245.703 460.635 244.203C461.889 242.66 462.389 240.776 462.089 238.557C461.884 237.033 461.36 235.775 460.467 234.743L463.204 232.69L461.145 229.91L457.527 232.657C456.221 232.169 454.874 232.04 453.437 232.234C451.218 232.533 449.484 233.476 448.229 235.019C446.975 236.562 446.47 238.403 446.769 240.622ZM458.138 252.96C460.618 252.625 461.984 253.549 462.277 255.725C462.6 258.119 460.946 259.982 457.29 260.475C453.634 260.968 451.409 259.584 451.074 257.103C450.886 255.71 451.218 254.558 452.076 253.689C452.735 253.644 453.263 253.617 453.698 253.558L458.138 252.96ZM451.097 236.893C452.458 235.158 455.156 234.794 456.929 236.106C457.812 236.74 458.344 237.732 458.52 239.038C458.697 240.343 458.446 241.441 457.762 242.286C456.389 243.934 453.69 244.298 451.93 243.073C451.047 242.439 450.514 241.447 450.338 240.141C450.162 238.835 450.413 237.738 451.097 236.893ZM498.522 233.068C497.941 228.759 495.381 226.534 491.42 227.068C488.287 227.491 486.098 229.337 484.899 232.601C483.809 229.778 481.41 228.418 478.407 228.823C475.317 229.24 473.253 231.024 472.166 234.14L471.621 230.092L467.965 230.585L470.922 252.521L474.578 252.028L473.364 243.019C472.536 236.882 474.544 232.712 477.852 232.266C480.202 231.949 481.571 233.226 481.958 236.099L483.936 250.766L487.592 250.273L486.377 241.264C485.55 235.127 487.557 230.957 490.865 230.511C493.215 230.194 494.584 231.472 494.972 234.344L496.949 249.012L500.605 248.519L498.522 233.068ZM509.523 240.891C509.188 238.41 511.133 236.729 514.833 236.231L518.75 235.702L518.82 236.225C519.131 238.531 518.751 240.311 517.679 241.563C516.607 242.816 515.241 243.532 513.587 243.755C511.281 244.066 509.805 242.98 509.523 240.891ZM521.889 231.379C521.138 225.808 517.423 223.562 512.331 224.249C508.196 224.806 505.417 227.529 505.35 231.305L508.67 231.611C508.862 229.414 510.47 227.867 512.777 227.556C515.954 227.128 517.77 228.434 518.175 231.437L518.304 232.395L514.735 232.876C508.598 233.703 505.152 236.738 505.78 241.395C506.384 245.878 509.507 247.673 513.467 247.139C516.471 246.734 518.581 245.297 519.881 242.773L520.907 245.781L523.779 245.394L521.889 231.379Z" fill="black"/>
</g>
</g>
<defs>
<filter id="filter0_d_4_9" x="0" y="0" width="913" height="374.691" filterUnits="userSpaceOnUse" color-interpolation-filters="sRGB">
<feFlood flood-opacity="0" result="BackgroundImageFix"/>
<feColorMatrix in="SourceAlpha" type="matrix" values="0 0 0 0 0 0 0 0 0 0 0 0 0 0 0 0 0 0 127 0" result="hardAlpha"/>
<feOffset dy="2"/>
<feGaussianBlur stdDeviation="1"/>
<feComposite in2="hardAlpha" operator="out"/>
<feColorMatrix type="matrix" values="0 0 0 0 0 0 0 0 0 0 0 0 0 0 0 0 0 0 0.25 0"/>
<feBlend mode="normal" in2="BackgroundImageFix" result="effect1_dropShadow_4_9"/>
<feBlend mode="normal" in="SourceGraphic" in2="effect1_dropShadow_4_9" result="shape"/>
</filter>
<clipPath id="clip0_4_9">
<rect x="2.00002" y="117.975" width="882.842" height="255.002" rx="12" transform="rotate(-7.67947 2.00002 117.975)" fill="white"/>
</clipPath>
</defs>
</svg>
