<svg width="791" height="359" viewBox="0 0 791 359" fill="none" xmlns="http://www.w3.org/2000/svg">
<g filter="url(#filter0_d_4_9)">
<g clip-path="url(#clip0_4_9)">
<rect x="2.00146" y="101.521" width="759.71" height="255.186" rx="12" transform="rotate(-7.67947 2.00146 101.521)" fill="white"/>
<path d="M88.7962 174.933L79.3936 154.205L75.9092 154.675L72.3326 177.153L62.8003 153.161L58.7497 153.707L71.0054 183.097L75.0125 182.557L78.503 160.756L87.6433 180.854L91.6503 180.313L95.684 148.727L91.6334 149.273L88.7962 174.933ZM119.638 164.433C119.244 161.515 118.044 159.193 115.989 157.43C113.97 155.618 111.396 154.945 108.304 155.362C105.124 155.791 102.832 157.209 101.389 159.665C99.9845 162.072 99.4716 164.846 99.9003 168.026C100.329 171.205 101.558 173.744 103.557 175.737C105.592 177.68 108.178 178.439 111.358 178.011C115.887 177.4 118.391 175.244 119.856 170.656L116.445 169.697C115.564 172.699 114.004 174.284 110.911 174.701C107.122 175.212 104.551 172.587 103.752 168.305L119.867 166.132L119.638 164.433ZM108.75 158.673C112.104 158.22 114.445 160.122 115.588 163.338L103.523 164.965C103.768 161.517 105.484 159.113 108.75 158.673ZM127.065 175.538L130.723 175.045L126.565 144.208L122.907 144.701L127.065 175.538ZM151.382 165.119C150.57 167.978 148.749 169.599 145.918 169.98C141.867 170.527 139.243 167.51 138.609 162.806C137.974 158.102 139.706 154.498 143.756 153.952C146.587 153.571 148.773 154.651 150.313 157.192L153.316 155.457C150.985 151.647 147.666 150.055 143.31 150.642C140.131 151.071 137.795 152.494 136.352 154.951C134.947 157.357 134.434 160.132 134.863 163.311C135.292 166.491 136.521 169.03 138.519 171.022C140.555 172.965 143.185 173.719 146.364 173.291C150.719 172.703 153.498 170.289 154.738 165.997L151.382 165.119ZM162.425 167.755C164.684 169.712 167.357 170.46 170.536 170.031C173.716 169.602 176.095 168.173 177.712 165.693C179.373 163.208 179.967 160.378 179.55 157.286C179.133 154.193 177.816 151.666 175.557 149.709C173.341 147.746 170.662 146.954 167.483 147.383C164.303 147.811 161.93 149.284 160.269 151.77C158.652 154.25 158.052 157.036 158.469 160.128C158.886 163.221 160.209 165.792 162.425 167.755ZM163.243 153.764C164.245 151.988 165.795 150.981 167.929 150.693C170.063 150.405 171.824 150.966 173.217 152.419C174.648 153.822 175.51 155.613 175.804 157.791C176.098 159.968 175.74 161.924 174.738 163.699C173.774 165.426 172.224 166.433 170.09 166.721C167.956 167.009 166.195 166.448 164.764 165.044C163.371 163.591 162.509 161.801 162.215 159.623C161.921 157.445 162.279 155.49 163.243 153.764ZM214.531 148.001C213.95 143.689 211.388 141.462 207.424 141.997C204.289 142.42 202.099 144.267 200.898 147.533C199.808 144.709 197.407 143.348 194.402 143.753C191.309 144.17 189.244 145.956 188.157 149.074L187.611 145.023L183.952 145.517L186.912 167.468L190.571 166.975L189.355 157.959C188.527 151.818 190.536 147.644 193.846 147.198C196.198 146.881 197.568 148.16 197.956 151.034L199.935 165.712L203.593 165.219L202.378 156.203C201.55 150.062 203.559 145.888 206.869 145.442C209.221 145.125 210.591 146.404 210.978 149.278L212.958 163.956L216.616 163.463L214.531 148.001ZM240.604 148.122C240.21 145.204 239.01 142.882 236.954 141.119C234.936 139.307 232.362 138.634 229.27 139.051C226.09 139.48 223.798 140.898 222.355 143.354C220.95 145.761 220.438 148.535 220.866 151.715C221.295 154.894 222.524 157.433 224.523 159.426C226.558 161.368 229.144 162.128 232.324 161.7C236.853 161.089 239.357 158.933 240.822 154.345L237.411 153.386C236.53 156.387 234.97 157.973 231.877 158.39C228.088 158.9 225.517 156.276 224.718 151.993L240.833 149.82L240.604 148.122ZM229.716 142.361C233.07 141.909 235.411 143.811 236.554 147.027L224.489 148.654C224.734 145.206 226.45 142.802 229.716 142.361ZM258.385 138.85L259.971 150.61C260.611 155.358 263.428 157.506 267.304 156.983C268.742 156.789 269.882 156.369 270.764 155.674L269.465 152.612C268.832 153.185 268.034 153.514 267.076 153.643C265.203 153.896 263.982 152.73 263.67 150.422L262.043 138.357L267.793 137.582L267.346 134.272L261.597 135.047L260.399 126.162L257.052 128.964L257.939 135.54L254.149 136.051L254.596 139.361L258.385 138.85ZM276.925 152.315C279.185 154.272 281.858 155.02 285.037 154.592C288.217 154.163 290.596 152.734 292.213 150.254C293.873 147.768 294.467 144.939 294.051 141.846C293.634 138.754 292.317 136.226 290.058 134.269C287.842 132.306 285.163 131.515 281.983 131.943C278.804 132.372 276.43 133.845 274.77 136.331C273.153 138.81 272.553 141.596 272.97 144.689C273.387 147.781 274.709 150.352 276.925 152.315ZM277.744 138.324C278.746 136.548 280.296 135.541 282.43 135.254C284.564 134.966 286.325 135.527 287.718 136.979C289.149 138.383 290.011 140.174 290.305 142.351C290.598 144.529 290.241 146.484 289.239 148.26C288.274 149.987 286.725 150.994 284.591 151.282C282.457 151.569 280.696 151.009 279.265 149.605C277.872 148.152 277.009 146.361 276.716 144.184C276.422 142.006 276.779 140.051 277.744 138.324ZM332.573 137.672C331.735 142.308 329.291 144.899 325.24 145.446C322.322 145.839 319.829 145.111 317.724 143.311C315.662 141.504 314.348 138.666 313.831 134.833C313.314 131 313.83 127.915 315.339 125.627C316.893 123.334 319.104 121.971 322.022 121.578C326.072 121.032 329.116 122.883 331.152 127.132L334.708 125.544C333.641 122.894 331.947 120.86 329.628 119.444C327.308 118.027 324.621 117.502 321.529 117.919C317.739 118.43 314.655 120.221 312.324 123.329C310.038 126.431 309.204 130.446 309.868 135.368C310.531 140.289 312.398 143.94 315.425 146.326C318.496 148.705 321.944 149.615 325.734 149.104C328.826 148.687 331.284 147.513 333.146 145.533C335.007 143.552 336.096 141.099 336.422 138.261L332.573 137.672ZM344.341 143.225C346.601 145.182 349.274 145.93 352.453 145.501C355.633 145.073 358.012 143.643 359.629 141.163C361.289 138.678 361.883 135.848 361.467 132.756C361.05 129.664 359.733 127.136 357.474 125.179C355.258 123.216 352.579 122.424 349.399 122.853C346.22 123.282 343.846 124.755 342.186 127.24C340.569 129.72 339.969 132.506 340.386 135.598C340.803 138.691 342.125 141.262 344.341 143.225ZM345.16 129.234C346.162 127.458 347.712 126.451 349.846 126.163C351.98 125.875 353.741 126.436 355.134 127.889C356.565 129.293 357.427 131.083 357.721 133.261C358.014 135.439 357.657 137.394 356.655 139.17C355.69 140.896 354.141 141.903 352.007 142.191C349.873 142.479 348.112 141.918 346.681 140.515C345.288 139.062 344.425 137.271 344.132 135.093C343.838 132.916 344.195 130.961 345.16 129.234ZM378.637 119.576C377.751 119.252 376.72 119.169 375.544 119.328C373.105 119.657 370.584 121.682 369.65 124.291L369.145 120.545L365.486 121.039L368.446 142.99L372.105 142.497L370.983 134.178C370.531 130.824 370.788 128.129 371.755 126.091C372.722 124.054 374.03 122.902 375.685 122.679C376.6 122.556 377.457 122.662 378.337 122.942L378.637 119.576ZM398.971 131.734C398.159 134.593 396.338 136.214 393.507 136.595C389.456 137.142 386.832 134.125 386.198 129.421C385.563 124.717 387.295 121.113 391.345 120.567C394.176 120.186 396.362 121.266 397.902 123.807L400.905 122.072C398.573 118.262 395.254 116.67 390.899 117.257C387.72 117.686 385.384 119.109 383.941 121.566C382.536 123.972 382.023 126.747 382.452 129.926C382.881 133.106 384.11 135.645 386.108 137.637C388.144 139.58 390.773 140.334 393.953 139.905C398.308 139.318 401.087 136.904 402.327 132.612L398.971 131.734ZM424.567 119.901C423.95 115.328 421.22 113.169 417.169 113.715C413.815 114.167 411.17 116.253 410.146 119.185L408.396 106.206L404.737 106.699L408.895 137.536L412.554 137.043L411.297 127.722C410.91 124.847 411.252 122.451 412.361 120.483C413.471 118.515 414.915 117.389 416.614 117.16C419.14 116.819 420.603 118.13 421.008 121.135L422.964 135.639L426.622 135.146L424.567 119.901ZM434.64 131.049C436.9 133.006 439.573 133.754 442.752 133.325C445.932 132.897 448.311 131.467 449.928 128.987C451.589 126.502 452.183 123.672 451.766 120.58C451.349 117.488 450.032 114.96 447.773 113.003C445.557 111.04 442.878 110.248 439.698 110.677C436.519 111.106 434.146 112.579 432.485 115.064C430.868 117.544 430.268 120.33 430.685 123.422C431.102 126.515 432.425 129.086 434.64 131.049ZM435.459 117.058C436.461 115.282 438.011 114.275 440.145 113.987C442.279 113.699 444.04 114.26 445.433 115.713C446.864 117.117 447.726 118.907 448.02 121.085C448.314 123.263 447.956 125.218 446.954 126.994C445.99 128.72 444.44 129.727 442.306 130.015C440.172 130.303 438.411 129.742 436.98 128.339C435.587 126.886 434.725 125.095 434.431 122.917C434.137 120.74 434.494 118.785 435.459 117.058ZM460.435 135.331L464.213 125.199L459.248 125.868L457.648 135.707L460.435 135.331ZM484.911 120.856C484.576 118.373 486.522 116.692 490.225 116.192L494.144 115.664L494.215 116.186C494.526 118.495 494.145 120.276 493.073 121.529C492 122.782 490.633 123.499 488.978 123.722C486.67 124.033 485.193 122.946 484.911 120.856ZM497.286 111.338C496.534 105.763 492.817 103.515 487.721 104.202C483.583 104.76 480.802 107.485 480.735 111.263L484.058 111.569C484.249 109.37 485.859 107.823 488.167 107.512C491.347 107.083 493.164 108.39 493.569 111.395L493.698 112.354L490.127 112.835C483.985 113.663 480.537 116.7 481.165 121.361C481.77 125.847 484.895 127.643 488.858 127.108C491.864 126.703 493.976 125.265 495.276 122.74L496.303 125.75L499.177 125.362L497.286 111.338ZM527.973 99.4392C527.087 99.1152 526.056 99.0325 524.88 99.1911C522.441 99.52 519.92 101.545 518.986 104.154L518.48 100.409L514.822 100.902L517.782 122.854L521.44 122.36L520.319 114.041C519.866 110.688 520.124 107.992 521.091 105.955C522.058 103.918 523.366 102.766 525.021 102.542C525.936 102.419 526.793 102.525 527.673 102.806L527.973 99.4392ZM535.392 120.479L539.05 119.986L536.09 98.0342L532.432 98.5275L535.392 120.479ZM530.695 92.5532C530.901 94.0776 532.235 95.095 533.803 94.8836C535.371 94.6722 536.388 93.3376 536.183 91.8132C535.971 90.2453 534.631 89.1843 533.063 89.3957C531.495 89.6072 530.484 90.9853 530.695 92.5532ZM551.586 95.59C545.314 96.4357 542.441 101.435 543.357 108.23C544.273 115.024 548.368 119.084 554.64 118.238C557.254 117.886 559.772 116.172 560.632 114.326L560.996 117.027L564.654 116.533L560.496 85.6966L556.838 86.19L558.388 97.6884C557.902 97.0443 556.943 96.5085 555.592 96.0255C554.241 95.5425 552.893 95.4138 551.586 95.59ZM554.542 114.881C550.71 115.398 547.743 112.472 547.103 107.725C546.463 102.977 548.548 99.3699 552.381 98.8531C556.345 98.3187 559.181 101.262 559.821 106.01C560.461 110.757 558.506 114.347 554.542 114.881ZM571.631 115.593L575.289 115.099L572.329 93.1478L568.671 93.6411L571.631 115.593ZM566.934 87.6668C567.139 89.1912 568.474 90.2086 570.042 89.9972C571.61 89.7857 572.627 88.4512 572.422 86.9268C572.21 85.3588 570.87 84.2979 569.302 84.5093C567.734 84.7207 566.722 86.0988 566.934 87.6668ZM596.115 105.151C595.303 108.01 593.481 109.631 590.65 110.012C586.6 110.559 583.976 107.542 583.341 102.838C582.707 98.1343 584.439 94.5305 588.489 93.9843C591.32 93.6026 593.506 94.6826 595.046 97.2244L598.049 95.489C595.717 91.6793 592.398 90.0869 588.043 90.6742C584.863 91.1029 582.528 92.5265 581.085 94.9827C579.68 97.3895 579.167 100.164 579.596 103.343C580.025 106.523 581.254 109.062 583.252 111.054C585.288 112.997 587.917 113.751 591.097 113.323C595.452 112.735 598.231 110.321 599.47 106.029L596.115 105.151ZM605.031 104.481C605.618 108.837 608.392 110.99 612.399 110.45C615.578 110.021 617.818 108.212 619.079 105.07L619.625 109.121L623.284 108.628L620.324 86.6761L616.665 87.1694L617.905 96.3595C618.298 99.2776 618.011 101.755 616.989 103.711C616.01 105.662 614.653 106.776 612.954 107.005C610.428 107.346 608.965 106.035 608.56 103.03L606.604 88.5261L602.946 89.0194L605.031 104.481ZM630.282 107.684L633.94 107.191L629.782 76.3541L626.123 76.8474L630.282 107.684ZM642.035 103.084C644.294 105.041 646.967 105.789 650.147 105.36C653.326 104.931 655.706 103.502 657.323 101.022C658.983 98.5367 659.577 95.7071 659.16 92.6147C658.743 89.5224 657.427 86.9947 655.167 85.0377C652.951 83.0749 650.272 82.2831 647.093 82.7118C643.913 83.1405 641.54 84.6136 639.88 87.0991C638.263 89.5788 637.663 92.3649 638.08 95.4572C638.497 98.5496 639.819 101.121 642.035 103.084ZM642.854 89.0928C643.856 87.3169 645.405 86.3097 647.539 86.0219C649.673 85.7342 651.434 86.295 652.828 87.7479C654.259 89.1515 655.121 90.9421 655.414 93.1198C655.708 95.2975 655.351 97.2526 654.349 99.0286C653.384 100.755 651.835 101.762 649.701 102.05C647.566 102.338 645.806 101.777 644.375 100.373C642.981 98.9205 642.119 97.1299 641.825 94.9522C641.532 92.7744 641.889 90.8194 642.854 89.0928ZM665.556 96.32C666.143 100.675 668.917 102.829 672.924 102.289C676.104 101.86 678.343 100.05 679.605 96.9091L680.151 100.96L683.809 100.466L680.849 78.5148L677.191 79.0082L678.43 88.1982C678.824 91.1163 678.537 93.594 677.514 95.5501C676.536 97.5003 675.178 98.6146 673.48 98.8436C670.953 99.1843 669.491 97.8737 669.085 94.8685L667.13 80.3648L663.471 80.8581L665.556 96.32ZM694.542 76.3138C690.666 76.8365 688.442 79.7527 688.912 83.237C689.476 87.4183 693.322 88.3187 696.344 89.0199C698.398 89.4525 700.15 90.2805 700.344 91.7178C700.655 94.0262 699.632 95.3172 697.28 95.6344C695.059 95.9339 693.166 94.7256 691.603 92.0096L688.74 94.1252C690.455 97.3086 693.589 99.5024 697.726 98.9445C702.213 98.3396 704.648 95.3505 704.06 90.995C703.235 84.5431 693.062 86.713 692.577 82.7873C692.342 81.0451 693.333 79.8471 694.858 79.6415C696.208 79.4595 697.614 80.0237 699.158 81.2789L701.353 78.81C699.486 76.8002 697.199 75.9555 694.542 76.3138ZM90.2545 228.832L83.6698 212.557L80.0112 213.051L77.9721 230.488L71.2132 214.237L67.3804 214.754L77.0042 235.807L80.4886 235.337L82.5511 218.074L89.1124 234.174L92.5967 233.704L96.3006 210.854L92.4678 211.371L90.2545 228.832ZM105.069 225.592C104.734 223.11 106.681 221.428 110.383 220.929L114.303 220.4L114.373 220.923C114.684 223.232 114.304 225.012 113.231 226.266C112.158 227.519 110.791 228.235 109.136 228.459C106.828 228.77 105.351 227.683 105.069 225.592ZM117.444 216.074C116.693 210.499 112.975 208.251 107.879 208.938C103.741 209.496 100.96 212.222 100.893 216L104.216 216.306C104.407 214.107 106.017 212.56 108.325 212.248C111.505 211.82 113.322 213.127 113.727 216.132L113.856 217.09L110.285 217.572C104.144 218.4 100.695 221.437 101.323 226.097C101.928 230.584 105.053 232.38 109.016 231.845C112.022 231.44 114.134 230.002 115.434 227.476L116.461 230.487L119.335 230.099L117.444 216.074ZM132.032 222.178L124.319 207.076L120.312 207.617L130.858 227.614L128.695 237.884L132.441 237.378L139.172 205.074L135.339 205.59L132.032 222.178ZM156.671 206.084L158.257 217.844C158.897 222.591 161.714 224.739 165.591 224.217C167.028 224.023 168.169 223.603 169.051 222.907L167.751 219.845C167.119 220.419 166.32 220.748 165.362 220.877C163.489 221.13 162.268 219.964 161.957 217.656L160.33 205.591L166.079 204.816L165.633 201.506L159.883 202.281L158.685 193.396L155.338 196.197L156.225 202.774L152.436 203.285L152.882 206.595L156.671 206.084ZM175.212 219.549C177.471 221.506 180.144 222.254 183.324 221.826C186.503 221.397 188.882 219.967 190.499 217.488C192.16 215.002 192.754 212.172 192.337 209.08C191.92 205.988 190.603 203.46 188.344 201.503C186.128 199.54 183.449 198.748 180.27 199.177C177.09 199.606 174.717 201.079 173.056 203.564C171.439 206.044 170.839 208.83 171.256 211.923C171.673 215.015 172.996 217.586 175.212 219.549ZM176.03 205.558C177.032 203.782 178.582 202.775 180.716 202.487C182.85 202.2 184.611 202.76 186.004 204.213C187.435 205.617 188.298 207.407 188.591 209.585C188.885 211.763 188.528 213.718 187.525 215.494C186.561 217.22 185.011 218.228 182.877 218.515C180.743 218.803 178.982 218.242 177.551 216.839C176.158 215.386 175.296 213.595 175.002 211.417C174.708 209.24 175.066 207.285 176.03 205.558ZM225.205 208.684C224.393 211.543 222.572 213.163 219.741 213.545C215.69 214.091 213.066 211.074 212.432 206.37C211.798 201.667 213.529 198.063 217.579 197.517C220.411 197.135 222.596 198.215 224.136 200.757L227.14 199.021C224.808 195.212 221.489 193.619 217.133 194.206C213.954 194.635 211.618 196.059 210.175 198.515C208.77 200.922 208.257 203.696 208.686 206.876C209.115 210.055 210.344 212.594 212.342 214.587C214.378 216.529 217.008 217.284 220.187 216.855C224.543 216.268 227.321 213.853 228.561 209.562L225.205 208.684ZM245.151 191.094C244.264 190.77 243.233 190.687 242.057 190.846C239.618 191.175 237.097 193.2 236.163 195.809L235.658 192.063L232 192.557L234.96 214.508L238.618 214.015L237.496 205.696C237.044 202.342 237.302 199.647 238.269 197.609C239.236 195.572 240.544 194.42 242.199 194.197C243.113 194.074 243.97 194.18 244.851 194.46L245.151 191.094ZM268.703 197.852C268.31 194.933 267.11 192.612 265.054 190.849C263.036 189.037 260.461 188.364 257.369 188.781C254.19 189.21 251.897 190.627 250.455 193.084C249.05 195.49 248.537 198.265 248.966 201.444C249.394 204.624 250.624 207.163 252.622 209.155C254.658 211.098 257.243 211.858 260.423 211.429C264.953 210.819 267.456 208.663 268.921 204.075L265.51 203.116C264.629 206.117 263.069 207.702 259.977 208.119C256.187 208.63 253.616 206.006 252.817 201.723L268.932 199.55L268.703 197.852ZM257.815 192.091C261.169 191.639 263.51 193.541 264.653 196.757L252.588 198.384C252.833 194.936 254.549 192.532 257.815 192.091ZM278.054 202.267C277.719 199.784 279.665 198.103 283.367 197.604L287.287 197.075L287.358 197.598C287.669 199.906 287.288 201.687 286.216 202.94C285.143 204.194 283.776 204.91 282.121 205.133C279.813 205.445 278.336 204.358 278.054 202.267ZM290.429 192.749C289.677 187.174 285.96 184.926 280.864 185.613C276.726 186.171 273.945 188.896 273.878 192.675L277.201 192.981C277.392 190.782 279.002 189.234 281.31 188.923C284.489 188.494 286.307 189.802 286.712 192.807L286.841 193.765L283.27 194.247C277.128 195.075 273.68 198.112 274.308 202.772C274.913 207.258 278.038 209.054 282.001 208.52C285.006 208.115 287.119 206.677 288.419 204.151L289.446 207.161L292.32 206.774L290.429 192.749ZM297.968 187.032L299.554 198.791C300.194 203.539 303.011 205.687 306.888 205.164C308.325 204.97 309.466 204.55 310.348 203.855L309.048 200.793C308.416 201.366 307.617 201.695 306.659 201.825C304.786 202.077 303.565 200.911 303.254 198.603L301.627 186.538L307.376 185.763L306.93 182.453L301.181 183.228L299.982 174.343L296.635 177.145L297.522 183.722L293.733 184.233L294.179 187.543L297.968 187.032ZM332.291 189.277C331.898 186.359 330.698 184.038 328.642 182.275C326.623 180.463 324.049 179.79 320.957 180.207C317.778 180.636 315.485 182.053 314.043 184.509C312.638 186.916 312.125 189.691 312.554 192.87C312.982 196.049 314.212 198.589 316.21 200.581C318.246 202.524 320.831 203.284 324.011 202.855C328.541 202.244 331.044 200.089 332.509 195.501L329.098 194.542C328.217 197.543 326.657 199.128 323.565 199.545C319.775 200.056 317.204 197.431 316.405 193.149L332.52 190.976L332.291 189.277ZM321.403 183.517C324.757 183.065 327.098 184.966 328.241 188.183L316.176 189.809C316.421 186.362 318.137 183.957 321.403 183.517ZM354.98 175.619C351.103 176.142 348.88 179.058 349.35 182.542C349.914 186.724 353.76 187.624 356.782 188.325C358.835 188.758 360.588 189.586 360.782 191.023C361.093 193.332 360.07 194.623 357.718 194.94C355.496 195.239 353.604 194.031 352.04 191.315L349.177 193.431C350.892 196.614 354.026 198.808 358.164 198.25C362.65 197.645 365.085 194.656 364.498 190.3C363.672 183.848 353.499 186.018 353.014 182.093C352.779 180.35 353.771 179.152 355.295 178.947C356.645 178.765 358.052 179.329 359.596 180.584L361.791 178.115C359.923 176.106 357.636 175.261 354.98 175.619ZM370.683 196.207L374.341 195.714L370.183 164.877L366.525 165.371L370.683 196.207ZM380.894 194.83L384.552 194.337L381.592 172.385L377.934 172.879L380.894 194.83ZM376.197 166.904C376.403 168.429 377.737 169.446 379.305 169.235C380.873 169.023 381.89 167.689 381.685 166.164C381.473 164.597 380.133 163.536 378.565 163.747C376.997 163.958 375.986 165.337 376.197 166.904ZM397.088 169.941C390.816 170.787 387.943 175.786 388.859 182.581C389.775 189.375 393.87 193.435 400.142 192.59C402.755 192.237 405.274 190.523 406.134 188.677L406.498 191.378L410.156 190.884L405.998 160.048L402.34 160.541L403.89 172.04C403.404 171.396 402.445 170.86 401.094 170.377C399.743 169.894 398.395 169.765 397.088 169.941ZM400.044 189.232C396.212 189.749 393.245 186.823 392.605 182.076C391.965 177.328 394.05 173.721 397.883 173.204C401.847 172.67 404.683 175.614 405.323 180.361C405.963 185.108 404.008 188.698 400.044 189.232ZM434.202 175.536C433.808 172.617 432.608 170.296 430.553 168.533C428.534 166.721 425.96 166.048 422.868 166.465C419.688 166.894 417.396 168.312 415.953 170.768C414.548 173.175 414.036 175.949 414.464 179.128C414.893 182.308 416.122 184.847 418.121 186.839C420.156 188.782 422.742 189.542 425.922 189.113C430.451 188.503 432.955 186.347 434.42 181.759L431.009 180.8C430.128 183.801 428.568 185.386 425.475 185.803C421.686 186.314 419.115 183.69 418.316 179.407L434.431 177.234L434.202 175.536ZM423.314 169.775C426.668 169.323 429.009 171.225 430.152 174.441L418.087 176.068C418.332 172.62 420.048 170.216 423.314 169.775ZM444.981 163.483C441.105 164.006 438.881 166.922 439.351 170.407C439.915 174.588 443.762 175.488 446.783 176.19C448.837 176.622 450.589 177.45 450.783 178.887C451.094 181.196 450.071 182.487 447.719 182.804C445.498 183.103 443.605 181.895 442.042 179.179L439.179 181.295C440.894 184.478 444.028 186.672 448.166 186.114C452.652 185.509 455.087 182.52 454.499 178.165C453.674 171.713 443.501 173.883 443.016 169.957C442.781 168.215 443.772 167.017 445.297 166.811C446.647 166.629 448.053 167.193 449.597 168.449L451.792 165.98C449.925 163.97 447.638 163.125 444.981 163.483ZM476.91 166.362C476.294 161.789 473.563 159.629 469.513 160.175C466.159 160.628 463.513 162.714 462.49 165.646L460.74 152.667L457.081 153.16L461.239 183.996L464.898 183.503L463.641 174.182C463.253 171.308 463.595 168.911 464.705 166.944C465.814 164.976 467.259 163.85 468.957 163.621C471.483 163.28 472.946 164.591 473.351 167.596L475.307 182.1L478.966 181.606L476.91 166.362ZM486.984 177.509C489.243 179.466 491.916 180.215 495.096 179.786C498.275 179.357 500.655 177.928 502.272 175.448C503.932 172.963 504.526 170.133 504.109 167.041C503.692 163.948 502.376 161.421 500.116 159.464C497.9 157.501 495.221 156.709 492.042 157.138C488.862 157.566 486.489 159.039 484.829 161.525C483.212 164.005 482.612 166.791 483.029 169.883C483.446 172.975 484.768 175.547 486.984 177.509ZM487.803 163.519C488.805 161.743 490.354 160.736 492.488 160.448C494.622 160.16 496.383 160.721 497.777 162.174C499.208 163.577 500.07 165.368 500.363 167.546C500.657 169.723 500.3 171.678 499.298 173.454C498.333 175.181 496.784 176.188 494.65 176.476C492.515 176.764 490.755 176.203 489.324 174.799C487.93 173.346 487.068 171.556 486.774 169.378C486.481 167.2 486.838 165.245 487.803 163.519ZM528.905 169.684L522.32 153.41L518.662 153.903L516.623 171.34L509.864 155.089L506.031 155.606L515.655 176.659L519.139 176.189L521.202 158.926L527.763 175.026L531.247 174.557L534.951 151.706L531.118 152.223L528.905 169.684ZM89.9316 287.937C96.2034 287.091 99.077 282.092 98.1608 275.297C97.2446 268.503 93.1495 264.443 86.8776 265.289C84.2644 265.641 81.746 267.356 80.8862 269.201L80.5221 266.501L76.8635 266.994L81.0215 297.831L84.6801 297.337L83.1297 285.839C83.6156 286.483 84.5748 287.019 85.926 287.502C87.2772 287.985 88.6249 288.113 89.9316 287.937ZM86.9755 268.646C90.8083 268.129 93.775 271.055 94.4151 275.803C95.0553 280.55 92.9696 284.157 89.1368 284.674C85.1733 285.208 82.3373 282.265 81.6972 277.517C81.057 272.77 83.0121 269.18 86.9755 268.646ZM115.322 262.119C114.436 261.795 113.405 261.712 112.229 261.87C109.79 262.199 107.269 264.224 106.335 266.834L105.83 263.088L102.171 263.581L105.131 285.533L108.79 285.04L107.668 276.721C107.216 273.367 107.473 270.671 108.44 268.634C109.407 266.597 110.715 265.445 112.37 265.222C113.285 265.098 114.142 265.205 115.022 265.485L115.322 262.119ZM138.875 268.876C138.481 265.958 137.281 263.637 135.225 261.874C133.207 260.062 130.633 259.389 127.541 259.806C124.361 260.235 122.069 261.652 120.626 264.108C119.221 266.515 118.708 269.29 119.137 272.469C119.566 275.649 120.795 278.188 122.793 280.18C124.829 282.123 127.415 282.883 130.594 282.454C135.124 281.843 137.627 279.688 139.093 275.1L135.682 274.141C134.801 277.142 133.241 278.727 130.148 279.144C126.359 279.655 123.788 277.03 122.988 272.748L139.104 270.575L138.875 268.876ZM127.987 263.116C131.341 262.664 133.681 264.565 134.825 267.782L122.76 269.408C123.005 265.961 124.72 263.556 127.987 263.116ZM149.654 256.824C145.777 257.347 143.554 260.263 144.024 263.747C144.588 267.929 148.434 268.829 151.456 269.53C153.51 269.963 155.262 270.791 155.456 272.228C155.767 274.537 154.744 275.828 152.392 276.145C150.171 276.444 148.278 275.236 146.715 272.52L143.851 274.636C145.567 277.819 148.701 280.013 152.838 279.455C157.324 278.85 159.76 275.861 159.172 271.505C158.347 265.053 148.173 267.223 147.688 263.298C147.453 261.555 148.445 260.357 149.969 260.152C151.32 259.97 152.726 260.534 154.27 261.789L156.465 259.32C154.597 257.31 152.311 256.466 149.654 256.824ZM182.94 262.935C182.546 260.016 181.346 257.695 179.29 255.932C177.272 254.12 174.698 253.447 171.606 253.864C168.426 254.293 166.134 255.711 164.691 258.167C163.286 260.574 162.773 263.348 163.202 266.527C163.631 269.707 164.86 272.246 166.858 274.238C168.894 276.181 171.48 276.941 174.659 276.512C179.189 275.902 181.692 273.746 183.158 269.158L179.747 268.199C178.866 271.2 177.305 272.785 174.213 273.202C170.424 273.713 167.853 271.089 167.053 266.806L183.169 264.633L182.94 262.935ZM172.052 257.174C175.406 256.722 177.746 258.624 178.889 261.84L166.825 263.467C167.07 260.019 168.785 257.615 172.052 257.174ZM206.087 256.177C205.5 251.821 202.726 249.668 198.719 250.208C195.54 250.637 193.3 252.447 192.039 255.588L191.493 251.537L187.834 252.031L190.794 273.982L194.453 273.489L193.213 264.299C192.82 261.381 193.107 258.903 194.085 256.953C195.108 254.997 196.465 253.882 198.164 253.653C200.69 253.313 202.153 254.623 202.558 257.628L204.514 272.132L208.172 271.639L206.087 256.177ZM214.161 251.851L215.747 263.611C216.387 268.358 219.205 270.506 223.081 269.983C224.518 269.789 225.659 269.37 226.541 268.674L225.241 265.612C224.609 266.185 223.81 266.515 222.852 266.644C220.979 266.896 219.758 265.731 219.447 263.422L217.82 251.358L223.569 250.582L223.123 247.272L217.374 248.047L216.175 239.162L212.828 241.964L213.715 248.541L209.926 249.052L210.372 252.362L214.161 251.851ZM233.505 261.793C233.171 259.31 235.117 257.628 238.819 257.129L242.739 256.601L242.809 257.123C243.121 259.432 242.74 261.213 241.667 262.466C240.595 263.719 239.228 264.436 237.573 264.659C235.264 264.97 233.787 263.883 233.505 261.793ZM245.881 252.275C245.129 246.7 241.411 244.451 236.315 245.139C232.178 245.696 229.397 248.422 229.33 252.2L232.652 252.506C232.844 250.307 234.453 248.76 236.762 248.449C239.941 248.02 241.758 249.327 242.163 252.332L242.293 253.291L238.721 253.772C232.58 254.6 229.131 257.637 229.76 262.298C230.365 266.784 233.489 268.58 237.453 268.045C240.458 267.64 242.57 266.202 243.871 263.677L244.897 266.687L247.772 266.299L245.881 252.275ZM253.42 246.557L255.006 258.317C255.646 263.064 258.463 265.212 262.34 264.69C263.777 264.496 264.918 264.076 265.799 263.38L264.5 260.318C263.867 260.892 263.069 261.221 262.111 261.35C260.238 261.603 259.017 260.437 258.705 258.129L257.079 246.064L262.828 245.289L262.381 241.979L256.632 242.754L255.434 233.869L252.087 236.67L252.974 243.247L249.184 243.758L249.631 247.068L253.42 246.557ZM271.482 263.102L275.14 262.609L272.18 240.657L268.522 241.151L271.482 263.102ZM266.785 235.176C266.99 236.701 268.325 237.718 269.893 237.507C271.461 237.295 272.478 235.961 272.273 234.436C272.061 232.868 270.721 231.807 269.153 232.019C267.585 232.23 266.573 233.608 266.785 235.176ZM283.402 258.479C285.661 260.436 288.334 261.184 291.514 260.756C294.693 260.327 297.073 258.898 298.69 256.418C300.35 253.932 300.944 251.103 300.527 248.01C300.11 244.918 298.794 242.39 296.534 240.433C294.318 238.47 291.639 237.679 288.46 238.107C285.28 238.536 282.907 240.009 281.247 242.495C279.63 244.974 279.03 247.76 279.447 250.853C279.864 253.945 281.186 256.516 283.402 258.479ZM284.221 244.488C285.223 242.712 286.772 241.705 288.906 241.418C291.04 241.13 292.801 241.691 294.195 243.143C295.626 244.547 296.488 246.338 296.781 248.515C297.075 250.693 296.718 252.648 295.716 254.424C294.751 256.151 293.202 257.158 291.068 257.446C288.933 257.733 287.173 257.173 285.742 255.769C284.348 254.316 283.486 252.525 283.192 250.348C282.899 248.17 283.256 246.215 284.221 244.488ZM323.353 240.365C322.766 236.009 319.992 233.856 315.985 234.396C312.805 234.825 310.566 236.634 309.304 239.776L308.758 235.725L305.1 236.218L308.06 258.17L311.718 257.677L310.479 248.487C310.085 245.568 310.372 243.091 311.351 241.141C312.373 239.184 313.731 238.07 315.429 237.841C317.956 237.5 319.418 238.811 319.824 241.816L321.779 256.32L325.438 255.827L323.353 240.365ZM335.696 231.738C331.82 232.261 329.597 235.177 330.067 238.661C330.63 242.843 334.477 243.743 337.498 244.444C339.552 244.877 341.305 245.705 341.498 247.142C341.81 249.45 340.786 250.741 338.434 251.059C336.213 251.358 334.321 250.15 332.757 247.434L329.894 249.549C331.609 252.733 334.743 254.927 338.881 254.369C343.367 253.764 345.802 250.775 345.215 246.419C344.389 239.967 334.216 242.137 333.731 238.211C333.496 236.469 334.488 235.271 336.012 235.066C337.362 234.884 338.769 235.448 340.313 236.703L342.507 234.234C340.64 232.224 338.353 231.38 335.696 231.738ZM363.025 244.151C363.612 248.506 366.386 250.66 370.393 250.12C373.573 249.691 375.812 247.881 377.074 244.74L377.62 248.79L381.278 248.297L378.318 226.346L374.66 226.839L375.899 236.029C376.293 238.947 376.006 241.425 374.984 243.381C374.005 245.331 372.647 246.445 370.949 246.674C368.422 247.015 366.96 245.704 366.554 242.699L364.599 228.196L360.94 228.689L363.025 244.151ZM392.011 224.144C388.135 224.667 385.911 227.583 386.381 231.068C386.945 235.249 390.792 236.149 393.813 236.851C395.867 237.283 397.619 238.111 397.813 239.549C398.124 241.857 397.101 243.148 394.749 243.465C392.528 243.765 390.635 242.556 389.072 239.84L386.209 241.956C387.924 245.139 391.058 247.333 395.196 246.775C399.682 246.17 402.117 243.181 401.529 238.826C400.704 232.374 390.531 234.544 390.046 230.618C389.811 228.876 390.802 227.678 392.327 227.472C393.677 227.29 395.083 227.854 396.627 229.11L398.822 226.641C396.955 224.631 394.668 223.786 392.011 224.144ZM407.93 244.703L411.588 244.21L408.628 222.259L404.97 222.752L407.93 244.703ZM403.233 216.778C403.438 218.302 404.773 219.319 406.341 219.108C407.909 218.897 408.926 217.562 408.721 216.038C408.509 214.47 407.169 213.409 405.601 213.62C404.033 213.832 403.022 215.21 403.233 216.778ZM433.388 225.528C432.8 221.172 430.027 219.018 426.02 219.559C422.84 219.987 420.601 221.797 419.339 224.939L418.793 220.888L415.134 221.381L418.094 243.333L421.753 242.839L420.514 233.649C420.12 230.731 420.407 228.254 421.386 226.303C422.408 224.347 423.765 223.233 425.464 223.004C427.99 222.663 429.453 223.974 429.858 226.979L431.814 241.483L435.473 240.989L433.388 225.528ZM440.583 225.134C440.836 227.007 441.576 228.548 442.841 229.708C441.178 230.863 440.489 232.331 440.73 234.116C440.93 235.597 441.567 236.709 442.681 237.401C441.489 238.759 440.998 240.378 441.25 242.25C441.861 246.78 445.927 248.981 451.546 248.224C456.947 247.495 460.488 244.49 459.801 239.394C459.278 235.518 456.284 233.704 452.103 234.268L446.92 234.967C445.265 235.19 444.355 234.692 444.191 233.472C444.062 232.514 444.447 231.753 445.34 231.144C446.5 231.52 447.798 231.611 449.235 231.417C451.457 231.118 453.198 230.218 454.459 228.717C455.714 227.173 456.214 225.288 455.914 223.067C455.709 221.542 455.184 220.283 454.291 219.25L457.03 217.196L454.969 214.413L451.349 217.163C450.041 216.674 448.693 216.546 447.256 216.74C445.035 217.039 443.3 217.983 442.044 219.527C440.789 221.071 440.284 222.913 440.583 225.134ZM451.96 237.48C454.442 237.146 455.809 238.07 456.102 240.248C456.425 242.643 454.77 244.507 451.111 245.001C447.453 245.494 445.226 244.109 444.891 241.626C444.703 240.233 445.036 239.079 445.894 238.21C446.553 238.165 447.082 238.138 447.517 238.079L451.96 237.48ZM444.914 221.401C446.276 219.666 448.976 219.301 450.75 220.614C451.634 221.249 452.167 222.242 452.343 223.548C452.519 224.855 452.268 225.953 451.584 226.799C450.21 228.448 447.509 228.812 445.748 227.586C444.864 226.951 444.331 225.959 444.155 224.652C443.978 223.346 444.229 222.248 444.914 221.401ZM476.626 235.44L480.459 234.924L478.562 220.855L489.842 219.334L489.349 215.676L478.068 217.197L476.841 208.094L490.735 206.22L490.241 202.562L472.515 204.952L476.626 235.44ZM499.888 232.304L503.546 231.81L500.586 209.859L496.928 210.352L499.888 232.304ZM495.191 204.378C495.396 205.902 496.731 206.92 498.299 206.708C499.867 206.497 500.884 205.162 500.679 203.638C500.467 202.07 499.127 201.009 497.559 201.22C495.991 201.432 494.979 202.81 495.191 204.378ZM508.892 215.923C509.145 217.796 509.885 219.337 511.15 220.497C509.487 221.652 508.798 223.12 509.039 224.906C509.239 226.386 509.877 227.498 510.99 228.19C509.798 229.548 509.307 231.167 509.559 233.04C510.17 237.569 514.237 239.77 519.855 239.013C525.256 238.285 528.797 235.279 528.11 230.183C527.588 226.307 524.594 224.493 520.412 225.057L515.229 225.756C513.574 225.979 512.665 225.481 512.5 224.262C512.371 223.303 512.756 222.542 513.65 221.934C514.809 222.309 516.107 222.4 517.545 222.207C519.766 221.907 521.507 221.007 522.768 219.507C524.023 217.963 524.523 216.077 524.224 213.856C524.018 212.331 523.493 211.072 522.6 210.039L525.339 207.985L523.278 205.203L519.658 207.952C518.35 207.464 517.003 207.335 515.565 207.529C513.344 207.828 511.609 208.772 510.354 210.316C509.098 211.86 508.593 213.702 508.892 215.923ZM520.269 228.269C522.752 227.935 524.118 228.859 524.412 231.037C524.735 233.432 523.079 235.296 519.42 235.79C515.762 236.283 513.535 234.898 513.2 232.416C513.013 231.022 513.345 229.868 514.203 228.999C514.862 228.954 515.391 228.927 515.826 228.868L520.269 228.269ZM513.223 212.191C514.585 210.455 517.286 210.091 519.059 211.404C519.943 212.038 520.476 213.031 520.652 214.337C520.828 215.644 520.577 216.742 519.893 217.588C518.519 219.237 515.819 219.601 514.057 218.375C513.173 217.741 512.64 216.748 512.464 215.441C512.288 214.135 512.539 213.037 513.223 212.191ZM560.682 208.363C560.101 204.051 557.539 201.825 553.575 202.359C550.44 202.782 548.25 204.629 547.049 207.895C545.959 205.071 543.558 203.71 540.553 204.115C537.46 204.532 535.395 206.318 534.308 209.436L533.762 205.386L530.103 205.879L533.063 227.83L536.722 227.337L535.506 218.321C534.678 212.18 536.687 208.007 539.997 207.56C542.349 207.243 543.719 208.522 544.107 211.396L546.086 226.074L549.744 225.581L548.529 216.565C547.701 210.424 549.71 206.251 553.02 205.804C555.372 205.487 556.742 206.766 557.129 209.64L559.109 224.318L562.767 223.825L560.682 208.363ZM571.691 216.191C571.356 213.709 573.303 212.027 577.005 211.528L580.925 211L580.995 211.522C581.306 213.831 580.926 215.611 579.853 216.865C578.78 218.118 577.414 218.835 575.758 219.058C573.45 219.369 571.973 218.282 571.691 216.191ZM584.066 206.673C583.315 201.098 579.597 198.85 574.501 199.537C570.363 200.095 567.582 202.821 567.515 206.599L570.838 206.905C571.029 204.706 572.639 203.159 574.947 202.848C578.127 202.419 579.944 203.726 580.349 206.731L580.478 207.689L576.907 208.171C570.766 208.999 567.317 212.036 567.946 216.697C568.55 221.183 571.675 222.979 575.639 222.444C578.644 222.039 580.756 220.601 582.056 218.075L583.083 221.086L585.958 220.698L584.066 206.673ZM591.836 217.289C592.048 218.857 593.382 219.874 594.95 219.663C596.475 219.457 597.536 218.117 597.324 216.549C597.119 215.024 595.735 213.969 594.21 214.175C592.642 214.386 591.631 215.764 591.836 217.289Z" fill="black"/>
</g>
</g>
<defs>
<filter id="filter0_d_4_9" x="0" y="0" width="791" height="358.421" filterUnits="userSpaceOnUse" color-interpolation-filters="sRGB">
<feFlood flood-opacity="0" result="BackgroundImageFix"/>
<feColorMatrix in="SourceAlpha" type="matrix" values="0 0 0 0 0 0 0 0 0 0 0 0 0 0 0 0 0 0 127 0" result="hardAlpha"/>
<feOffset dy="2"/>
<feGaussianBlur stdDeviation="1"/>
<feComposite in2="hardAlpha" operator="out"/>
<feColorMatrix type="matrix" values="0 0 0 0 0 0 0 0 0 0 0 0 0 0 0 0 0 0 0.25 0"/>
<feBlend mode="normal" in2="BackgroundImageFix" result="effect1_dropShadow_4_9"/>
<feBlend mode="normal" in="SourceGraphic" in2="effect1_dropShadow_4_9" result="shape"/>
</filter>
<clipPath id="clip0_4_9">
<rect x="2.00146" y="101.521" width="759.71" height="255.186" rx="12" transform="rotate(-7.67947 2.00146 101.521)" fill="white"/>
</clipPath>
</defs>
</svg>
