<svg width="786" height="359" viewBox="0 0 786 359" fill="none" xmlns="http://www.w3.org/2000/svg">
<g filter="url(#filter0_d_4_9)">
<g clip-path="url(#clip0_4_9)">
<rect x="2.00147" y="100.829" width="754.53" height="256.188" rx="12" transform="rotate(-7.67947 2.00147 100.829)" fill="white"/>
<path d="M87.3875 158.2C85.0267 152.532 80.219 149.765 73.8164 150.629C69.8965 151.157 66.7307 153.003 64.3568 156.117C61.9828 159.231 61.1436 163.202 61.8072 168.124C62.4709 173.046 64.3379 176.697 67.4518 179.071C70.5658 181.445 74.1015 182.342 78.0215 181.814C84.424 180.951 88.3272 177.01 89.1024 170.918L84.42 170.397C83.3923 174.615 81.4177 176.744 77.4107 177.284C72.0099 178.012 67.6485 174.609 66.6853 167.466C65.7222 160.323 69.0264 155.887 74.4272 155.158C78.4342 154.618 80.9022 156.148 83.0105 159.944L87.3875 158.2ZM96.4143 176.008C98.6679 177.921 101.472 178.652 104.738 178.211C108.005 177.771 110.471 176.33 112.138 173.888C113.804 171.446 114.442 168.61 114.013 165.431C113.584 162.251 112.218 159.686 109.965 157.772C107.711 155.859 104.951 155.123 101.684 155.563C98.4176 156.003 95.9076 157.451 94.2413 159.893C92.575 162.335 91.9809 165.164 92.4096 168.344C92.8384 171.523 94.1607 174.094 96.4143 176.008ZM98.0756 162.347C98.9707 160.763 100.352 159.823 102.225 159.57C104.097 159.317 105.678 159.858 106.917 161.155C108.2 162.445 108.952 164.073 109.222 166.077C109.492 168.08 109.204 169.893 108.309 171.477C107.458 173.055 106.071 173.952 104.198 174.204C102.325 174.457 100.75 173.96 99.4675 172.669C98.2284 171.373 97.4708 169.701 97.2007 167.698C96.9305 165.694 97.2241 163.925 98.0756 162.347ZM123.73 167.003C123.289 163.736 123.521 161.177 124.462 159.277C125.397 157.332 126.673 156.273 128.285 156.056C129.287 155.921 130.187 156.021 130.943 156.363L131.169 152.119C130.251 151.888 129.313 151.838 128.311 151.973C125.872 152.302 123.452 154.091 122.361 156.855L121.868 153.196L117.338 153.807L120.298 175.758L124.828 175.148L123.73 167.003ZM151.144 164.016C150.352 166.695 148.693 168.205 146.21 168.539C142.508 169.039 140.285 166.367 139.692 161.968C139.099 157.569 140.535 154.404 144.237 153.905C146.719 153.57 148.719 154.587 150.192 156.96L154.008 154.672C151.676 150.862 148.27 149.281 143.697 149.898C140.386 150.344 137.963 151.78 136.471 154.198C134.973 156.573 134.466 159.391 134.901 162.614C135.336 165.837 136.571 168.42 138.65 170.357C140.724 172.25 143.44 172.993 146.75 172.546C151.324 171.93 154.189 169.503 155.429 165.212L151.144 164.016ZM161.088 170.258L165.618 169.648L164.367 160.37C164.003 157.67 164.363 155.404 165.403 153.579C166.443 151.753 167.681 150.744 169.075 150.556C171.34 150.25 172.633 150.963 173.056 154.099L174.982 168.385L179.512 167.774L177.427 152.312C176.811 147.739 174.153 145.791 170.015 146.349C166.967 146.76 164.666 148.445 163.163 151.442L161.46 138.811L156.93 139.422L161.088 170.258ZM186.756 163.826C189.01 165.74 191.814 166.47 195.08 166.03C198.347 165.589 200.813 164.148 202.48 161.706C204.146 159.264 204.783 156.428 204.355 153.249C203.926 150.069 202.56 147.504 200.307 145.591C198.053 143.677 195.293 142.941 192.026 143.381C188.76 143.822 186.25 145.269 184.583 147.711C182.917 150.153 182.323 152.982 182.752 156.162C183.18 159.341 184.503 161.913 186.756 163.826ZM188.418 150.165C189.313 148.581 190.694 147.641 192.567 147.388C194.439 147.136 196.02 147.676 197.259 148.973C198.542 150.263 199.294 151.891 199.564 153.895C199.834 155.898 199.546 157.711 198.651 159.295C197.8 160.874 196.413 161.77 194.54 162.023C192.667 162.275 191.092 161.778 189.81 160.487C188.57 159.191 187.813 157.519 187.543 155.516C187.273 153.512 187.566 151.743 188.418 150.165ZM223.663 161.821L227.322 161.327L224.362 139.376L220.703 139.869L223.663 161.821ZM218.966 133.895C219.172 135.419 220.506 136.437 222.074 136.225C223.642 136.014 224.66 134.679 224.454 133.155C224.243 131.587 222.902 130.526 221.334 130.737C219.766 130.949 218.755 132.327 218.966 133.895ZM237.688 137.224C233.812 137.747 231.588 140.663 232.058 144.147C232.622 148.329 236.468 149.229 239.49 149.93C241.544 150.363 243.296 151.191 243.49 152.628C243.801 154.937 242.778 156.228 240.426 156.545C238.205 156.844 236.312 155.636 234.749 152.92L231.886 155.036C233.601 158.219 236.735 160.413 240.873 159.855C245.359 159.25 247.794 156.261 247.206 151.905C246.381 145.453 236.208 147.623 235.723 143.698C235.488 141.956 236.479 140.757 238.004 140.552C239.354 140.37 240.76 140.934 242.304 142.189L244.499 139.72C242.632 137.711 240.345 136.866 237.688 137.224ZM267.479 149.482C267.145 147 269.091 145.318 272.793 144.819L276.713 144.29L276.783 144.813C277.095 147.121 276.714 148.902 275.641 150.156C274.569 151.409 273.202 152.125 271.547 152.349C269.238 152.66 267.761 151.573 267.479 149.482ZM279.855 139.964C279.103 134.389 275.385 132.141 270.289 132.828C266.152 133.386 263.37 136.111 263.303 139.89L266.626 140.196C266.818 137.997 268.427 136.45 270.736 136.138C273.915 135.71 275.732 137.017 276.137 140.022L276.267 140.98L272.695 141.462C266.554 142.29 263.105 145.327 263.734 149.987C264.339 154.473 267.463 156.269 271.427 155.735C274.432 155.33 276.544 153.892 277.844 151.366L278.871 154.376L281.746 153.989L279.855 139.964ZM303.437 135.321C302.849 130.966 300.076 128.812 296.069 129.352C292.889 129.781 290.65 131.591 289.388 134.732L288.842 130.681L285.183 131.175L288.143 153.126L291.802 152.633L290.563 143.443C290.169 140.525 290.456 138.047 291.435 136.097C292.457 134.141 293.815 133.026 295.513 132.797C298.039 132.457 299.502 133.767 299.907 136.773L301.863 151.276L305.522 150.783L303.437 135.321ZM341.538 133.82C341.144 130.902 339.944 128.58 337.888 126.817C335.87 125.005 333.296 124.332 330.204 124.749C327.024 125.178 324.732 126.596 323.289 129.052C321.884 131.459 321.371 134.233 321.8 137.413C322.229 140.592 323.458 143.131 325.456 145.124C327.492 147.067 330.078 147.826 333.257 147.398C337.787 146.787 340.29 144.631 341.756 140.043L338.345 139.084C337.464 142.086 335.904 143.671 332.811 144.088C329.022 144.599 326.451 141.974 325.651 137.691L341.767 135.518L341.538 133.82ZM330.65 128.059C334.004 127.607 336.344 129.509 337.488 132.725L325.423 134.352C325.668 130.904 327.383 128.5 330.65 128.059ZM350.888 138.235C350.554 135.753 352.5 134.071 356.202 133.572L360.122 133.043L360.192 133.566C360.504 135.875 360.123 137.655 359.05 138.909C357.978 140.162 356.611 140.878 354.956 141.102C352.647 141.413 351.17 140.326 350.888 138.235ZM363.264 128.717C362.512 123.142 358.794 120.894 353.698 121.581C349.561 122.139 346.779 124.865 346.712 128.643L350.035 128.949C350.227 126.75 351.836 125.203 354.145 124.891C357.324 124.463 359.141 125.77 359.546 128.775L359.676 129.733L356.104 130.215C349.963 131.043 346.514 134.08 347.143 138.74C347.748 143.227 350.872 145.023 354.836 144.488C357.841 144.083 359.953 142.645 361.253 140.119L362.28 143.13L365.155 142.742L363.264 128.717ZM375.072 118.699C371.196 119.222 368.973 122.138 369.443 125.622C370.006 129.804 373.853 130.704 376.874 131.405C378.928 131.838 380.681 132.666 380.875 134.103C381.186 136.412 380.163 137.703 377.811 138.02C375.589 138.319 373.697 137.111 372.133 134.395L369.27 136.511C370.985 139.694 374.119 141.888 378.257 141.33C382.743 140.725 385.178 137.736 384.591 133.38C383.765 126.929 373.592 129.099 373.107 125.173C372.872 123.431 373.864 122.233 375.388 122.027C376.738 121.845 378.145 122.409 379.689 123.664L381.884 121.195C380.016 119.186 377.729 118.341 375.072 118.699ZM396.694 132.281L388.981 117.178L384.974 117.719L395.52 137.716L393.357 147.986L397.103 147.481L403.833 115.176L400.001 115.693L396.694 132.281ZM411.735 141.206L415.513 131.073L410.548 131.743L408.948 141.582L411.735 141.206ZM445.076 109.925C444.19 109.601 443.159 109.518 441.983 109.677C439.544 110.006 437.023 112.031 436.089 114.64L435.584 110.895L431.925 111.388L434.885 133.339L438.544 132.846L437.422 124.527C436.97 121.173 437.227 118.478 438.194 116.441C439.161 114.403 440.469 113.251 442.124 113.028C443.039 112.905 443.896 113.011 444.776 113.291L445.076 109.925ZM452.495 130.965L456.154 130.472L453.194 108.52L449.535 109.013L452.495 130.965ZM447.798 103.039C448.004 104.563 449.339 105.581 450.907 105.369C452.474 105.158 453.492 103.823 453.286 102.299C453.075 100.731 451.734 99.6701 450.167 99.8815C448.599 100.093 447.587 101.471 447.798 103.039ZM468.69 106.076C462.418 106.921 459.544 111.921 460.461 118.716C461.377 125.51 465.472 129.57 471.744 128.724C474.357 128.372 476.875 126.658 477.735 124.812L478.099 127.512L481.758 127.019L477.6 96.1824L473.941 96.6757L475.492 108.174C475.006 107.53 474.047 106.994 472.695 106.511C471.344 106.028 469.996 105.9 468.69 106.076ZM471.646 125.367C467.813 125.884 464.846 122.958 464.206 118.21C463.566 113.463 465.652 109.856 469.485 109.339C473.448 108.804 476.284 111.748 476.924 116.496C477.564 121.243 475.609 124.833 471.646 125.367ZM488.734 126.078L492.393 125.585L489.433 103.634L485.774 104.127L488.734 126.078ZM484.037 98.1525C484.243 99.677 485.577 100.694 487.145 100.483C488.713 100.272 489.731 98.937 489.525 97.4125C489.314 95.8446 487.973 94.7836 486.405 94.995C484.837 95.2065 483.826 96.5846 484.037 98.1525ZM513.218 115.637C512.407 118.496 510.585 120.116 507.754 120.498C503.703 121.044 501.079 118.028 500.445 113.324C499.811 108.62 501.542 105.016 505.593 104.47C508.424 104.088 510.609 105.168 512.15 107.71L515.153 105.975C512.821 102.165 509.502 100.573 505.146 101.16C501.967 101.589 499.631 103.012 498.189 105.468C496.784 107.875 496.271 110.65 496.699 113.829C497.128 117.009 498.357 119.548 500.356 121.54C502.391 123.483 505.021 124.237 508.2 123.808C512.556 123.221 515.335 120.806 516.574 116.515L513.218 115.637ZM522.134 114.967C522.722 119.323 525.495 121.476 529.502 120.936C532.682 120.507 534.921 118.698 536.183 115.556L536.729 119.607L540.388 119.113L537.428 97.1619L533.769 97.6552L535.008 106.845C535.402 109.763 535.115 112.241 534.093 114.197C533.114 116.147 531.756 117.262 530.058 117.491C527.532 117.831 526.069 116.521 525.664 113.516L523.708 99.0119L520.049 99.5052L522.134 114.967ZM547.385 118.17L551.044 117.677L546.886 86.8398L543.227 87.3331L547.385 118.17ZM559.139 113.569C561.398 115.526 564.071 116.275 567.251 115.846C570.43 115.417 572.81 113.988 574.426 111.508C576.087 109.023 576.681 106.193 576.264 103.101C575.847 100.008 574.531 97.4805 572.271 95.5235C570.055 93.5606 567.376 92.7688 564.197 93.1975C561.017 93.6263 558.644 95.0993 556.983 97.5849C555.366 100.065 554.767 102.851 555.184 105.943C555.6 109.035 556.923 111.607 559.139 113.569ZM559.957 99.5786C560.96 97.8026 562.509 96.7955 564.643 96.5077C566.777 96.2199 568.538 96.7807 569.931 98.2337C571.362 99.6372 572.225 101.428 572.518 103.606C572.812 105.783 572.455 107.738 571.452 109.514C570.488 111.241 568.939 112.248 566.804 112.536C564.67 112.824 562.909 112.263 561.478 110.859C560.085 109.406 559.223 107.616 558.929 105.438C558.636 103.26 558.993 101.305 559.957 99.5786ZM582.66 106.806C583.247 111.161 586.021 113.315 590.028 112.775C593.208 112.346 595.447 110.536 596.709 107.395L597.255 111.445L600.913 110.952L597.953 89.0006L594.295 89.4939L595.534 98.6839C595.927 101.602 595.641 104.08 594.618 106.036C593.64 107.986 592.282 109.1 590.584 109.329C588.057 109.67 586.595 108.36 586.189 105.354L584.234 90.8505L580.575 91.3439L582.66 106.806ZM611.646 86.7995C607.77 87.3222 605.546 90.2384 606.016 93.7228C606.58 97.904 610.427 98.8045 613.448 99.5057C615.502 99.9383 617.254 100.766 617.448 102.204C617.759 104.512 616.736 105.803 614.384 106.12C612.163 106.42 610.27 105.211 608.707 102.495L605.844 104.611C607.559 107.794 610.693 109.988 614.831 109.43C619.317 108.825 621.752 105.836 621.164 101.481C620.339 95.0288 610.166 97.1988 609.681 93.273C609.446 91.5308 610.437 90.3328 611.962 90.1273C613.312 89.9452 614.718 90.5094 616.262 91.7647L618.457 89.2957C616.59 87.2859 614.303 86.4412 611.646 86.7995ZM629.254 111.876L633.032 101.743L628.067 102.413L626.466 112.252L629.254 111.876ZM74.0623 229.082C73.7275 226.599 75.6738 224.917 79.3759 224.418L83.2958 223.89L83.3663 224.412C83.6776 226.721 83.2969 228.502 82.2242 229.755C81.1515 231.008 79.7846 231.725 78.1295 231.948C75.8211 232.259 74.3442 231.172 74.0623 229.082ZM86.4376 219.564C85.6859 213.989 81.9681 211.74 76.8722 212.427C72.7345 212.985 69.9533 215.711 69.8863 219.489L73.2092 219.795C73.4005 217.596 75.0101 216.049 77.3185 215.738C80.498 215.309 82.3151 216.616 82.7203 219.621L82.8495 220.58L79.278 221.061C73.1368 221.889 69.6882 224.926 70.3166 229.587C70.9215 234.073 74.0462 235.869 78.0097 235.334C81.0149 234.929 83.1271 233.491 84.4274 230.966L85.4541 233.976L88.3287 233.588L86.4376 219.564ZM110.02 214.92C109.432 210.565 106.658 208.411 102.651 208.951C99.4719 209.38 97.2326 211.19 95.971 214.331L95.4248 210.281L91.7662 210.774L94.7261 232.726L98.3847 232.232L97.1456 223.042C96.7521 220.124 97.0388 217.646 98.0176 215.696C99.0399 213.74 100.397 212.626 102.096 212.397C104.622 212.056 106.085 213.367 106.49 216.372L108.446 230.876L112.104 230.382L110.02 214.92ZM124.448 206.012C118.176 206.858 115.302 211.858 116.218 218.652C117.134 225.447 121.23 229.507 127.501 228.661C130.115 228.308 132.633 226.594 133.493 224.749L133.857 227.449L137.516 226.956L133.358 196.119L129.699 196.612L131.249 208.111C130.763 207.467 129.804 206.931 128.453 206.448C127.102 205.965 125.754 205.836 124.448 206.012ZM127.404 225.304C123.571 225.821 120.604 222.895 119.964 218.147C119.324 213.4 121.409 209.792 125.242 209.276C129.206 208.741 132.042 211.685 132.682 216.432C133.322 221.18 131.367 224.769 127.404 225.304ZM167.357 200.892C166.471 200.568 165.44 200.485 164.264 200.644C161.825 200.972 159.304 202.998 158.37 205.607L157.865 201.861L154.206 202.355L157.166 224.306L160.825 223.813L159.703 215.494C159.251 212.14 159.508 209.445 160.475 207.407C161.442 205.37 162.75 204.218 164.405 203.995C165.32 203.872 166.177 203.978 167.057 204.258L167.357 200.892ZM174.776 221.932L178.435 221.438L175.475 199.487L171.816 199.98L174.776 221.932ZM170.079 194.006C170.285 195.53 171.619 196.547 173.187 196.336C174.755 196.125 175.773 194.79 175.567 193.266C175.356 191.698 174.015 190.637 172.447 190.848C170.879 191.06 169.868 192.438 170.079 194.006ZM190.971 197.042C184.699 197.888 181.825 202.888 182.741 209.682C183.657 216.477 187.753 220.537 194.024 219.691C196.638 219.338 199.156 217.624 200.016 215.779L200.38 218.479L204.039 217.986L199.881 187.149L196.222 187.642L197.772 199.141C197.286 198.497 196.327 197.961 194.976 197.478C193.625 196.995 192.277 196.866 190.971 197.042ZM193.927 216.334C190.094 216.851 187.127 213.925 186.487 209.177C185.847 204.43 187.932 200.822 191.765 200.306C195.729 199.771 198.565 202.715 199.205 207.462C199.845 212.21 197.89 215.799 193.927 216.334ZM211.015 217.045L214.673 216.552L211.713 194.6L208.055 195.094L211.015 217.045ZM206.318 189.119C206.524 190.644 207.858 191.661 209.426 191.45C210.994 191.238 212.011 189.904 211.806 188.379C211.594 186.811 210.254 185.75 208.686 185.962C207.118 186.173 206.107 187.551 206.318 189.119ZM235.499 206.604C234.687 209.463 232.866 211.083 230.035 211.465C225.984 212.011 223.36 208.995 222.726 204.291C222.092 199.587 223.823 195.983 227.874 195.437C230.705 195.055 232.89 196.135 234.43 198.677L237.434 196.941C235.102 193.132 231.783 191.539 227.427 192.127C224.248 192.555 221.912 193.979 220.469 196.435C219.064 198.842 218.551 201.616 218.98 204.796C219.409 207.975 220.638 210.515 222.636 212.507C224.672 214.45 227.302 215.204 230.481 214.775C234.837 214.188 237.615 211.773 238.855 207.482L235.499 206.604ZM244.415 205.934C245.002 210.289 247.776 212.443 251.783 211.903C254.963 211.474 257.202 209.664 258.464 206.523L259.01 210.573L262.668 210.08L259.708 188.129L256.05 188.622L257.289 197.812C257.682 200.73 257.396 203.208 256.373 205.164C255.395 207.114 254.037 208.228 252.339 208.457C249.812 208.798 248.35 207.488 247.944 204.482L245.989 189.979L242.33 190.472L244.415 205.934ZM269.666 209.137L273.325 208.643L269.167 177.806L265.508 178.3L269.666 209.137ZM281.419 204.536C283.679 206.493 286.352 207.241 289.531 206.813C292.711 206.384 295.09 204.954 296.707 202.475C298.368 199.989 298.962 197.16 298.545 194.067C298.128 190.975 296.811 188.447 294.552 186.49C292.336 184.527 289.657 183.735 286.477 184.164C283.298 184.593 280.925 186.066 279.264 188.552C277.647 191.031 277.047 193.817 277.464 196.91C277.881 200.002 279.204 202.573 281.419 204.536ZM282.238 190.545C283.24 188.769 284.79 187.762 286.924 187.474C289.058 187.187 290.819 187.747 292.212 189.2C293.643 190.604 294.505 192.395 294.799 194.572C295.093 196.75 294.735 198.705 293.733 200.481C292.769 202.208 291.219 203.215 289.085 203.502C286.951 203.79 285.19 203.229 283.759 201.826C282.366 200.373 281.504 198.582 281.21 196.405C280.916 194.227 281.273 192.272 282.238 190.545ZM304.941 197.772C305.528 202.128 308.302 204.282 312.309 203.741C315.488 203.313 317.728 201.503 318.989 198.362L319.535 202.412L323.194 201.919L320.234 179.967L316.576 180.461L317.815 189.651C318.208 192.569 317.921 195.046 316.899 197.003C315.92 198.953 314.563 200.067 312.864 200.296C310.338 200.637 308.875 199.326 308.47 196.321L306.514 181.817L302.856 182.311L304.941 197.772ZM333.927 177.766C330.05 178.289 327.827 181.205 328.297 184.689C328.861 188.871 332.707 189.771 335.729 190.472C337.783 190.905 339.535 191.733 339.729 193.17C340.04 195.479 339.017 196.77 336.665 197.087C334.444 197.386 332.551 196.178 330.988 193.462L328.124 195.578C329.839 198.761 332.973 200.955 337.111 200.397C341.597 199.792 344.032 196.803 343.445 192.447C342.62 185.995 332.446 188.165 331.961 184.24C331.726 182.497 332.718 181.299 334.242 181.094C335.592 180.912 336.999 181.476 338.543 182.731L340.738 180.262C338.87 178.253 336.583 177.408 333.927 177.766ZM349.63 198.354L353.288 197.861L349.13 167.024L345.472 167.517L349.63 198.354ZM366.777 189.833L359.064 174.731L355.057 175.272L365.603 195.269L363.44 205.539L367.186 205.034L373.917 172.729L370.084 173.245L366.777 189.833ZM409.661 178.153C409.268 175.235 408.068 172.913 406.012 171.15C403.994 169.338 401.42 168.665 398.327 169.082C395.148 169.511 392.856 170.929 391.413 173.385C390.008 175.792 389.495 178.566 389.924 181.746C390.353 184.925 391.582 187.464 393.58 189.457C395.616 191.4 398.202 192.159 401.381 191.731C405.911 191.12 408.414 188.964 409.88 184.376L406.469 183.417C405.587 186.419 404.027 188.004 400.935 188.421C397.146 188.932 394.574 186.307 393.775 182.024L409.89 179.851L409.661 178.153ZM398.774 172.392C402.127 171.94 404.468 173.842 405.611 177.058L393.547 178.685C393.791 175.237 395.507 172.833 398.774 172.392ZM419.012 182.568C418.677 180.086 420.624 178.404 424.326 177.905L428.246 177.376L428.316 177.899C428.627 180.208 428.247 181.988 427.174 183.242C426.101 184.495 424.735 185.211 423.079 185.435C420.771 185.746 419.294 184.659 419.012 182.568ZM431.388 173.05C430.636 167.475 426.918 165.227 421.822 165.914C417.684 166.472 414.903 169.198 414.836 172.976L418.159 173.282C418.35 171.083 419.96 169.536 422.268 169.224C425.448 168.796 427.265 170.103 427.67 173.108L427.799 174.066L424.228 174.548C418.087 175.376 414.638 178.413 415.266 183.073C415.871 187.56 418.996 189.356 422.96 188.821C425.965 188.416 428.077 186.978 429.377 184.452L430.404 187.463L433.279 187.075L431.388 173.05ZM443.196 163.032C439.32 163.555 437.097 166.471 437.566 169.955C438.13 174.137 441.977 175.037 444.998 175.738C447.052 176.171 448.805 176.999 448.998 178.436C449.31 180.745 448.286 182.036 445.934 182.353C443.713 182.652 441.821 181.444 440.257 178.728L437.394 180.844C439.109 184.027 442.243 186.221 446.381 185.663C450.867 185.058 453.302 182.069 452.715 177.713C451.889 171.262 441.716 173.432 441.231 169.506C440.996 167.764 441.987 166.566 443.512 166.36C444.862 166.178 446.269 166.742 447.813 167.997L450.007 165.528C448.14 163.519 445.853 162.674 443.196 163.032ZM464.818 176.614L457.105 161.511L453.098 162.052L463.644 182.049L461.481 192.319L465.227 191.814L471.957 159.509L468.124 160.026L464.818 176.614ZM508.618 171.728L502.033 155.453L498.375 155.947L496.336 173.384L489.577 157.133L485.744 157.65L495.368 178.703L498.852 178.233L500.915 160.97L507.476 177.07L510.96 176.6L514.664 153.75L510.832 154.267L508.618 171.728ZM523.433 168.488C523.098 166.006 525.044 164.324 528.747 163.825L532.666 163.296L532.737 163.819C533.048 166.127 532.667 167.908 531.595 169.162C530.522 170.415 529.155 171.131 527.5 171.354C525.192 171.666 523.715 170.579 523.433 168.488ZM535.808 158.97C535.056 153.395 531.339 151.147 526.243 151.834C522.105 152.392 519.324 155.117 519.257 158.896L522.58 159.202C522.771 157.003 524.381 155.456 526.689 155.144C529.869 154.716 531.686 156.023 532.091 159.028L532.22 159.986L528.649 160.468C522.507 161.296 519.059 164.333 519.687 168.993C520.292 173.479 523.417 175.275 527.38 174.741C530.386 174.336 532.498 172.898 533.798 170.372L534.825 173.382L537.699 172.995L535.808 158.97ZM550.396 165.074L542.683 149.972L538.676 150.512L549.222 170.51L547.059 180.779L550.805 180.274L557.535 147.969L553.703 148.486L550.396 165.074ZM575.035 148.98L576.621 160.74C577.261 165.487 580.078 167.635 583.955 167.112C585.392 166.919 586.533 166.499 587.415 165.803L586.115 162.741C585.483 163.314 584.684 163.644 583.726 163.773C581.853 164.025 580.632 162.86 580.321 160.551L578.694 148.487L584.443 147.712L583.997 144.401L578.247 145.177L577.049 136.291L573.702 139.093L574.589 145.67L570.8 146.181L571.246 149.491L575.035 148.98ZM593.576 162.445C595.835 164.402 598.508 165.15 601.688 164.721C604.867 164.293 607.246 162.863 608.863 160.383C610.524 157.898 611.118 155.068 610.701 151.976C610.284 148.883 608.967 146.356 606.708 144.399C604.492 142.436 601.813 141.644 598.634 142.073C595.454 142.502 593.081 143.975 591.42 146.46C589.803 148.94 589.203 151.726 589.62 154.818C590.037 157.911 591.36 160.482 593.576 162.445ZM594.394 148.454C595.397 146.678 596.946 145.671 599.08 145.383C601.214 145.095 602.975 145.656 604.368 147.109C605.799 148.513 606.662 150.303 606.955 152.481C607.249 154.659 606.892 156.614 605.889 158.39C604.925 160.116 603.375 161.123 601.241 161.411C599.107 161.699 597.346 161.138 595.915 159.735C594.522 158.282 593.66 156.491 593.366 154.313C593.072 152.136 593.43 150.18 594.394 148.454ZM93.2077 279.309C92.3959 282.168 90.5744 283.789 87.7434 284.17C83.6928 284.717 81.0687 281.7 80.4344 276.996C79.8001 272.292 81.5315 268.688 85.5821 268.142C88.4132 267.76 90.5987 268.841 92.1388 271.382L95.1422 269.647C92.8102 265.837 89.4912 264.245 85.1358 264.832C81.9563 265.261 79.6205 266.684 78.1778 269.141C76.7728 271.547 76.26 274.322 76.6887 277.501C77.1174 280.681 78.3468 283.22 80.3449 285.212C82.3808 287.155 85.0102 287.909 88.1897 287.481C92.5452 286.893 95.3238 284.479 96.5634 280.187L93.2077 279.309ZM113.153 261.719C112.267 261.395 111.236 261.313 110.06 261.471C107.621 261.8 105.1 263.825 104.166 266.435L103.661 262.689L100.002 263.182L102.962 285.134L106.621 284.64L105.499 276.322C105.047 272.968 105.304 270.272 106.271 268.235C107.238 266.198 108.546 265.046 110.201 264.823C111.116 264.699 111.973 264.805 112.853 265.086L113.153 261.719ZM136.706 268.477C136.312 265.559 135.112 263.237 133.057 261.475C131.038 259.663 128.464 258.99 125.372 259.407C122.192 259.835 119.9 261.253 118.457 263.709C117.052 266.116 116.54 268.89 116.968 272.07C117.397 275.249 118.626 277.789 120.625 279.781C122.66 281.724 125.246 282.484 128.426 282.055C132.955 281.444 135.459 279.289 136.924 274.701L133.513 273.741C132.632 276.743 131.072 278.328 127.979 278.745C124.19 279.256 121.619 276.631 120.82 272.349L136.935 270.176L136.706 268.477ZM125.818 262.717C129.172 262.265 131.513 264.166 132.656 267.382L120.591 269.009C120.836 265.562 122.552 263.157 125.818 262.717ZM146.057 272.893C145.722 270.41 147.668 268.729 151.37 268.229L155.29 267.701L155.361 268.223C155.672 270.532 155.291 272.313 154.219 273.566C153.146 274.819 151.779 275.536 150.124 275.759C147.816 276.07 146.339 274.983 146.057 272.893ZM158.432 263.375C157.68 257.8 153.962 255.551 148.867 256.239C144.729 256.797 141.948 259.522 141.881 263.3L145.204 263.606C145.395 261.407 147.004 259.86 149.313 259.549C152.492 259.12 154.309 260.427 154.715 263.432L154.844 264.391L151.272 264.872C145.131 265.7 141.683 268.737 142.311 273.398C142.916 277.884 146.041 279.68 150.004 279.145C153.009 278.74 155.121 277.302 156.422 274.777L157.448 277.787L160.323 277.399L158.432 263.375ZM165.971 257.657L167.557 269.417C168.197 274.165 171.014 276.312 174.891 275.79C176.328 275.596 177.469 275.176 178.351 274.481L177.051 271.419C176.419 271.992 175.62 272.321 174.662 272.45C172.789 272.703 171.568 271.537 171.257 269.229L169.63 257.164L175.379 256.389L174.933 253.079L169.183 253.854L167.985 244.969L164.638 247.77L165.525 254.347L161.736 254.858L162.182 258.168L165.971 257.657ZM200.294 259.903C199.901 256.985 198.701 254.663 196.645 252.9C194.627 251.088 192.052 250.415 188.96 250.832C185.78 251.261 183.488 252.679 182.046 255.135C180.641 257.542 180.128 260.316 180.556 263.496C180.985 266.675 182.215 269.214 184.213 271.207C186.249 273.15 188.834 273.91 192.014 273.481C196.544 272.87 199.047 270.714 200.512 266.126L197.101 265.167C196.22 268.169 194.66 269.754 191.568 270.171C187.778 270.682 185.207 268.057 184.408 263.775L200.523 261.602L200.294 259.903ZM189.406 254.143C192.76 253.69 195.101 255.592 196.244 258.808L184.179 260.435C184.424 256.987 186.14 254.583 189.406 254.143ZM222.983 246.245C219.106 246.767 216.883 249.684 217.353 253.168C217.917 257.349 221.763 258.25 224.785 258.951C226.839 259.384 228.591 260.212 228.785 261.649C229.096 263.957 228.073 265.248 225.721 265.565C223.5 265.865 221.607 264.657 220.044 261.941L217.18 264.056C218.896 267.24 222.03 269.433 226.167 268.876C230.653 268.271 233.089 265.281 232.501 260.926C231.676 254.474 221.502 256.644 221.017 252.718C220.782 250.976 221.774 249.778 223.298 249.573C224.649 249.39 226.055 249.955 227.599 251.21L229.794 248.741C227.926 246.731 225.64 245.886 222.983 246.245ZM238.686 266.833L242.344 266.339L238.186 235.503L234.528 235.996L238.686 266.833ZM248.897 265.456L252.556 264.963L249.596 243.011L245.937 243.504L248.897 265.456ZM244.2 237.53C244.406 239.054 245.74 240.072 247.308 239.86C248.876 239.649 249.894 238.314 249.688 236.79C249.477 235.222 248.136 234.161 246.568 234.373C245 234.584 243.989 235.962 244.2 237.53ZM265.092 240.567C258.82 241.412 255.946 246.412 256.862 253.207C257.778 260.001 261.874 264.061 268.145 263.215C270.759 262.863 273.277 261.148 274.137 259.303L274.501 262.003L278.16 261.51L274.002 230.673L270.343 231.167L271.893 242.665C271.408 242.021 270.448 241.485 269.097 241.002C267.746 240.519 266.398 240.391 265.092 240.567ZM268.048 259.858C264.215 260.375 261.248 257.449 260.608 252.701C259.968 247.954 262.054 244.347 265.886 243.83C269.85 243.295 272.686 246.239 273.326 250.987C273.966 255.734 272.011 259.324 268.048 259.858ZM302.205 246.161C301.812 243.243 300.612 240.921 298.556 239.159C296.538 237.347 293.964 236.674 290.871 237.091C287.692 237.519 285.399 238.937 283.957 241.393C282.552 243.8 282.039 246.574 282.468 249.754C282.896 252.933 284.126 255.473 286.124 257.465C288.16 259.408 290.746 260.168 293.925 259.739C298.455 259.128 300.958 256.973 302.424 252.385L299.013 251.425C298.131 254.427 296.571 256.012 293.479 256.429C289.69 256.94 287.118 254.315 286.319 250.033L302.434 247.86L302.205 246.161ZM291.318 240.401C294.671 239.949 297.012 241.85 298.155 245.066L286.091 246.693C286.335 243.246 288.051 240.841 291.318 240.401ZM312.984 234.109C309.108 234.632 306.885 237.548 307.355 241.032C307.918 245.213 311.765 246.114 314.786 246.815C316.84 247.248 318.593 248.076 318.787 249.513C319.098 251.821 318.075 253.112 315.723 253.43C313.501 253.729 311.609 252.521 310.045 249.805L307.182 251.92C308.897 255.104 312.031 257.298 316.169 256.74C320.655 256.135 323.09 253.146 322.503 248.79C321.677 242.338 311.504 244.508 311.019 240.582C310.784 238.84 311.776 237.642 313.3 237.437C314.65 237.255 316.057 237.819 317.601 239.074L319.796 236.605C317.928 234.595 315.641 233.751 312.984 234.109ZM344.914 236.988C344.297 232.414 341.567 230.255 337.516 230.801C334.163 231.253 331.517 233.339 330.493 236.271L328.743 223.292L325.084 223.785L329.243 254.622L332.901 254.129L331.644 244.808C331.257 241.933 331.599 239.537 332.708 237.569C333.818 235.601 335.262 234.475 336.961 234.246C339.487 233.906 340.95 235.216 341.355 238.221L343.311 252.725L346.969 252.232L344.914 236.988ZM354.988 248.135C357.247 250.092 359.92 250.84 363.1 250.412C366.279 249.983 368.658 248.553 370.275 246.074C371.936 243.588 372.53 240.758 372.113 237.666C371.696 234.574 370.379 232.046 368.12 230.089C365.904 228.126 363.225 227.334 360.046 227.763C356.866 228.192 354.493 229.665 352.832 232.15C351.215 234.63 350.615 237.416 351.032 240.509C351.449 243.601 352.772 246.172 354.988 248.135ZM355.806 234.144C356.808 232.368 358.358 231.361 360.492 231.073C362.626 230.785 364.387 231.346 365.78 232.799C367.211 234.203 368.073 235.993 368.367 238.171C368.661 240.349 368.304 242.304 367.301 244.08C366.337 245.806 364.787 246.814 362.653 247.101C360.519 247.389 358.758 246.828 357.327 245.425C355.934 243.972 355.072 242.181 354.778 240.003C354.484 237.826 354.842 235.871 355.806 234.144ZM396.909 240.309L390.324 224.035L386.665 224.528L384.626 241.966L377.867 225.715L374.035 226.232L383.658 247.285L387.143 246.815L389.205 229.552L395.767 245.652L399.251 245.182L402.955 222.332L399.122 222.849L396.909 240.309ZM413.79 220.516C409.913 221.039 407.69 223.955 408.16 227.44C408.724 231.621 412.57 232.521 415.592 233.222C417.646 233.655 419.398 234.483 419.592 235.92C419.903 238.229 418.88 239.52 416.528 239.837C414.307 240.136 412.414 238.928 410.851 236.212L407.987 238.328C409.703 241.511 412.837 243.705 416.974 243.147C421.46 242.542 423.896 239.553 423.308 235.198C422.483 228.746 412.309 230.916 411.824 226.99C411.59 225.248 412.581 224.05 414.105 223.844C415.456 223.662 416.862 224.226 418.406 225.481L420.601 223.012C418.733 221.003 416.447 220.158 413.79 220.516ZM459.774 231.833L453.189 215.558L449.53 216.052L447.491 233.489L440.732 217.238L436.9 217.755L446.523 238.808L450.008 238.338L452.07 221.075L458.632 237.175L462.116 236.705L465.82 213.855L461.987 214.372L459.774 231.833ZM473.731 235.139L477.39 234.646L474.43 212.694L470.771 213.188L473.731 235.139ZM469.034 207.213C469.24 208.738 470.574 209.755 472.142 209.544C473.71 209.332 474.728 207.998 474.522 206.473C474.311 204.905 472.97 203.844 471.402 204.056C469.834 204.267 468.823 205.645 469.034 207.213ZM483.657 214.82L485.243 226.58C485.883 231.328 488.7 233.476 492.576 232.953C494.014 232.759 495.154 232.339 496.036 231.644L494.737 228.582C494.104 229.155 493.306 229.484 492.348 229.613C490.475 229.866 489.254 228.7 488.942 226.392L487.315 214.327L493.065 213.552L492.618 210.242L486.869 211.017L485.671 202.132L482.324 204.933L483.211 211.51L479.421 212.021L479.868 215.331L483.657 214.82ZM517.133 213.765C516.517 209.192 513.787 207.033 509.736 207.579C506.382 208.031 503.737 210.117 502.713 213.049L500.963 200.07L497.304 200.563L501.462 231.4L505.121 230.907L503.864 221.586C503.476 218.711 503.818 216.315 504.928 214.347C506.037 212.379 507.482 211.253 509.181 211.024C511.707 210.683 513.17 211.994 513.575 214.999L515.53 229.503L519.189 229.01L517.133 213.765ZM538.812 226.364L542.645 225.847L540.748 211.779L552.029 210.258L551.535 206.599L540.255 208.12L539.027 199.017L552.921 197.144L552.428 193.485L534.701 195.875L538.812 226.364ZM562.074 223.227L565.733 222.734L562.773 200.782L559.114 201.275L562.074 223.227ZM557.377 195.301C557.583 196.825 558.917 197.843 560.485 197.631C562.053 197.42 563.071 196.085 562.865 194.561C562.654 192.993 561.313 191.932 559.745 192.144C558.177 192.355 557.166 193.733 557.377 195.301ZM571.079 206.846C571.331 208.719 572.071 210.26 573.336 211.42C571.674 212.575 570.985 214.043 571.226 215.829C571.425 217.31 572.063 218.421 573.176 219.113C571.985 220.471 571.493 222.09 571.746 223.963C572.357 228.492 576.423 230.694 582.042 229.936C587.442 229.208 590.984 226.202 590.297 221.107C589.774 217.23 586.78 215.417 582.599 215.98L577.416 216.679C575.761 216.902 574.851 216.404 574.687 215.185C574.557 214.227 574.942 213.465 575.836 212.857C576.995 213.233 578.294 213.324 579.731 213.13C581.952 212.83 583.694 211.93 584.955 210.43C586.21 208.886 586.71 207 586.41 204.779C586.204 203.255 585.68 201.995 584.787 200.962L587.525 198.908L585.465 196.126L581.845 198.876C580.537 198.387 579.189 198.258 577.752 198.452C575.531 198.751 573.795 199.695 572.54 201.239C571.285 202.783 570.779 204.625 571.079 206.846ZM582.455 219.193C584.938 218.858 586.304 219.782 586.598 221.96C586.921 224.356 585.266 226.22 581.607 226.713C577.948 227.206 575.722 225.821 575.387 223.339C575.199 221.945 575.531 220.792 576.39 219.922C577.049 219.877 577.577 219.85 578.013 219.792L582.455 219.193ZM575.409 203.114C576.772 201.378 579.472 201.014 581.246 202.327C582.129 202.961 582.662 203.954 582.839 205.261C583.015 206.567 582.764 207.665 582.08 208.511C580.705 210.16 578.005 210.524 576.243 209.298C575.359 208.664 574.826 207.671 574.65 206.365C574.474 205.058 574.725 203.96 575.409 203.114ZM622.869 199.286C622.287 194.974 619.726 192.748 615.762 193.282C612.626 193.705 610.436 195.552 609.236 198.819C608.145 195.994 605.744 194.633 602.739 195.038C599.647 195.455 597.582 197.241 596.494 200.359L595.948 196.309L592.29 196.802L595.249 218.754L598.908 218.26L597.692 209.244C596.864 203.103 598.874 198.93 602.184 198.483C604.536 198.166 605.906 199.445 606.293 202.32L608.272 216.998L611.931 216.504L610.715 207.488C609.887 201.347 611.896 197.174 615.207 196.727C617.559 196.41 618.928 197.689 619.316 200.564L621.295 215.242L624.954 214.748L622.869 199.286ZM633.878 207.115C633.543 204.632 635.489 202.95 639.191 202.451L643.111 201.923L643.182 202.445C643.493 204.754 643.112 206.535 642.04 207.788C640.967 209.041 639.6 209.758 637.945 209.981C635.637 210.292 634.16 209.205 633.878 207.115ZM646.253 197.597C645.501 192.022 641.784 189.773 636.688 190.461C632.55 191.018 629.769 193.744 629.702 197.522L633.025 197.828C633.216 195.629 634.826 194.082 637.134 193.771C640.314 193.342 642.131 194.649 642.536 197.654L642.665 198.613L639.094 199.094C632.952 199.922 629.504 202.959 630.132 207.62C630.737 212.106 633.862 213.902 637.825 213.367C640.831 212.962 642.943 211.524 644.243 208.999L645.27 212.009L648.144 211.621L646.253 197.597ZM654.023 208.212C654.234 209.78 655.569 210.797 657.137 210.586C658.661 210.38 659.722 209.04 659.511 207.472C659.305 205.948 657.921 204.893 656.397 205.098C654.829 205.31 653.818 206.688 654.023 208.212Z" fill="black"/>
</g>
</g>
<defs>
<filter id="filter0_d_4_9" x="0" y="0" width="786" height="358.722" filterUnits="userSpaceOnUse" color-interpolation-filters="sRGB">
<feFlood flood-opacity="0" result="BackgroundImageFix"/>
<feColorMatrix in="SourceAlpha" type="matrix" values="0 0 0 0 0 0 0 0 0 0 0 0 0 0 0 0 0 0 127 0" result="hardAlpha"/>
<feOffset dy="2"/>
<feGaussianBlur stdDeviation="1"/>
<feComposite in2="hardAlpha" operator="out"/>
<feColorMatrix type="matrix" values="0 0 0 0 0 0 0 0 0 0 0 0 0 0 0 0 0 0 0.25 0"/>
<feBlend mode="normal" in2="BackgroundImageFix" result="effect1_dropShadow_4_9"/>
<feBlend mode="normal" in="SourceGraphic" in2="effect1_dropShadow_4_9" result="shape"/>
</filter>
<clipPath id="clip0_4_9">
<rect x="2.00147" y="100.829" width="754.53" height="256.188" rx="12" transform="rotate(-7.67947 2.00147 100.829)" fill="white"/>
</clipPath>
</defs>
</svg>
