<svg width="704" height="260" viewBox="0 0 704 260" fill="none" xmlns="http://www.w3.org/2000/svg">
<g filter="url(#filter0_d_42_2)">
<g clip-path="url(#clip0_42_2)">
<rect x="2" width="699.715" height="256" rx="12" fill="white"/>
<path d="M78.8972 68.2173C77.3162 62.2886 72.9245 58.907 66.4688 58.907C62.5163 58.907 59.1347 60.3123 56.3679 63.0791C53.6012 65.8458 52.2397 69.6666 52.2397 74.6292C52.2397 79.5918 53.6012 83.4564 56.3679 86.2232C59.1347 88.9899 62.5163 90.3514 66.4688 90.3514C72.9245 90.3514 77.3162 86.9698 78.8972 81.041L74.3298 79.8992C72.7488 83.9395 70.5091 85.784 66.4688 85.784C61.0231 85.784 57.1584 81.8315 57.1584 74.6292C57.1584 67.4268 61.0231 63.4743 66.4688 63.4743C70.5091 63.4743 72.7488 65.3188 74.3298 69.3592L78.8972 68.2173ZM85.4586 87.0576C87.4349 89.2534 90.1138 90.3514 93.4075 90.3514C96.7013 90.3514 99.3363 89.2534 101.313 87.0576C103.289 84.8618 104.299 82.1389 104.299 78.933C104.299 75.7271 103.289 73.0043 101.313 70.8084C99.3363 68.6126 96.7013 67.5147 93.4075 67.5147C90.1138 67.5147 87.4349 68.6126 85.4586 70.8084C83.4824 73.0043 82.5162 75.7271 82.5162 78.933C82.5162 82.1389 83.4824 84.8618 85.4586 87.0576ZM88.928 73.7508C90.0259 72.3016 91.5191 71.555 93.4075 71.555C95.2959 71.555 96.7891 72.3016 97.8431 73.7508C98.941 75.2001 99.468 76.9128 99.468 78.933C99.468 80.9532 98.941 82.7098 97.8431 84.1591C96.7891 85.6084 95.2959 86.311 93.4075 86.311C91.5191 86.311 90.0259 85.6084 88.928 84.1591C87.874 82.7098 87.347 80.9532 87.347 78.933C87.347 76.9128 87.874 75.2001 88.928 73.7508ZM113.712 81.7876C113.712 78.4938 114.283 75.9906 115.468 74.2339C116.654 72.4333 118.06 71.555 119.684 71.555C120.695 71.555 121.573 71.7746 122.276 72.2138L123.066 68.0417C122.188 67.6903 121.265 67.5147 120.255 67.5147C117.796 67.5147 115.161 68.9639 113.712 71.555V67.866H109.144V90H113.712V81.7876ZM141.259 82.4903C140.117 85.0374 138.272 86.311 135.769 86.311C132.036 86.311 130.192 83.3686 130.192 78.933C130.192 74.4974 132.036 71.555 135.769 71.555C138.272 71.555 140.117 72.8286 141.259 75.3758L145.343 73.6191C143.542 69.5348 140.38 67.5147 135.769 67.5147C132.431 67.5147 129.84 68.6126 128.04 70.8084C126.239 72.9603 125.361 75.6832 125.361 78.933C125.361 82.1828 126.239 84.9057 128.04 87.1015C129.84 89.2534 132.431 90.3514 135.769 90.3514C140.38 90.3514 143.542 88.3312 145.343 84.2469L141.259 82.4903ZM150.273 90H154.841V80.6458C154.841 77.9229 155.5 75.7271 156.773 74.0583C158.047 72.3894 159.408 71.555 160.813 71.555C163.097 71.555 164.283 72.4333 164.283 75.5953V90H168.85V74.4096C168.85 69.7983 166.479 67.5147 162.307 67.5147C159.232 67.5147 156.729 68.8761 154.841 71.6428V58.907H150.273V90ZM176.551 87.0576C178.528 89.2534 181.207 90.3514 184.5 90.3514C187.794 90.3514 190.429 89.2534 192.405 87.0576C194.382 84.8618 195.392 82.1389 195.392 78.933C195.392 75.7271 194.382 73.0043 192.405 70.8084C190.429 68.6126 187.794 67.5147 184.5 67.5147C181.207 67.5147 178.528 68.6126 176.551 70.8084C174.575 73.0043 173.609 75.7271 173.609 78.933C173.609 82.1389 174.575 84.8618 176.551 87.0576ZM180.021 73.7508C181.119 72.3016 182.612 71.555 184.5 71.555C186.389 71.555 187.882 72.3016 188.936 73.7508C190.034 75.2001 190.561 76.9128 190.561 78.933C190.561 80.9532 190.034 82.7098 188.936 84.1591C187.882 85.6084 186.389 86.311 184.5 86.311C182.612 86.311 181.119 85.6084 180.021 84.1591C178.967 82.7098 178.44 80.9532 178.44 78.933C178.44 76.9128 178.967 75.2001 180.021 73.7508ZM213.368 90H217.057V67.866H213.368V90ZM212.446 61.7177C212.446 63.2548 213.632 64.4405 215.213 64.4405C216.794 64.4405 217.979 63.2548 217.979 61.7177C217.979 60.1367 216.794 58.907 215.213 58.907C213.632 58.907 212.446 60.1367 212.446 61.7177ZM230.541 67.5147C226.633 67.5147 224.042 70.1058 224.042 73.6191C224.042 77.8351 227.731 79.2404 230.629 80.3383C232.606 81.041 234.23 82.095 234.23 83.5443C234.23 85.8719 233.045 87.0137 230.673 87.0137C228.433 87.0137 226.721 85.5644 225.535 82.6659L222.417 84.3787C223.69 87.7603 226.501 90.3514 230.673 90.3514C235.197 90.3514 238.007 87.7164 238.007 83.3247C238.051 76.825 227.687 77.6155 227.731 73.663C227.731 71.9063 228.873 70.8523 230.41 70.8523C231.771 70.8523 233.089 71.5989 234.45 73.0482L236.953 70.8963C235.372 68.6565 233.22 67.5147 230.541 67.5147ZM258.407 83.6321C258.407 81.1288 260.559 79.7235 264.292 79.7235H268.245V80.2505C268.245 82.5781 267.63 84.2909 266.4 85.3888C265.17 86.4867 263.721 87.0137 262.052 87.0137C259.725 87.0137 258.407 85.7401 258.407 83.6321ZM271.934 75.8588C271.934 70.2375 268.552 67.5147 263.414 67.5147C259.242 67.5147 256.124 69.8423 255.553 73.5752L258.803 74.3218C259.286 72.1698 261.086 70.8523 263.414 70.8523C266.62 70.8523 268.245 72.3894 268.245 75.4197V76.3858H264.643C258.451 76.3858 254.63 78.933 254.63 83.6321C254.63 88.1555 257.485 90.3514 261.481 90.3514C264.512 90.3514 266.795 89.2095 268.42 86.8819L269.035 90H271.934V75.8588ZM295.907 74.4096C295.907 70.0179 293.448 67.5147 289.407 67.5147C286.201 67.5147 283.742 69.0078 282.073 71.9503V67.866H278.384V90H282.073V80.7336C282.073 77.7912 282.688 75.3758 283.918 73.5752C285.191 71.7746 286.685 70.8523 288.397 70.8523C290.944 70.8523 292.218 72.3455 292.218 75.3758V90H295.907V74.4096ZM333.839 78.0108C333.839 75.0683 332.961 72.609 331.16 70.5888C329.403 68.5248 326.944 67.5147 323.826 67.5147C320.62 67.5147 318.161 68.6126 316.404 70.8523C314.691 73.0482 313.813 75.7271 313.813 78.933C313.813 82.1389 314.691 84.8179 316.404 87.0576C318.161 89.2534 320.62 90.3514 323.826 90.3514C328.393 90.3514 331.16 88.5508 333.224 84.203L329.974 82.7977C328.701 85.6523 326.944 87.0137 323.826 87.0137C320.005 87.0137 317.809 84.0713 317.59 79.7235H333.839V78.0108ZM323.826 70.8523C327.208 70.8523 329.272 73.0482 329.974 76.3858H317.809C318.512 73.0043 320.532 70.8523 323.826 70.8523ZM342.509 83.6321C342.509 81.1288 344.661 79.7235 348.394 79.7235H352.347V80.2505C352.347 82.5781 351.732 84.2909 350.502 85.3888C349.273 86.4867 347.823 87.0137 346.155 87.0137C343.827 87.0137 342.509 85.7401 342.509 83.6321ZM356.036 75.8588C356.036 70.2375 352.654 67.5147 347.516 67.5147C343.344 67.5147 340.226 69.8423 339.655 73.5752L342.905 74.3218C343.388 72.1698 345.188 70.8523 347.516 70.8523C350.722 70.8523 352.347 72.3894 352.347 75.4197V76.3858H348.746C342.553 76.3858 338.733 78.933 338.733 83.6321C338.733 88.1555 341.587 90.3514 345.584 90.3514C348.614 90.3514 350.898 89.2095 352.522 86.8819L353.137 90H356.036V75.8588ZM369.068 67.5147C365.159 67.5147 362.568 70.1058 362.568 73.6191C362.568 77.8351 366.257 79.2404 369.156 80.3383C371.132 81.041 372.757 82.095 372.757 83.5443C372.757 85.8719 371.571 87.0137 369.2 87.0137C366.96 87.0137 365.247 85.5644 364.061 82.6659L360.943 84.3787C362.217 87.7603 365.027 90.3514 369.2 90.3514C373.723 90.3514 376.534 87.7164 376.534 83.3247C376.578 76.825 366.213 77.6155 366.257 73.663C366.257 71.9063 367.399 70.8523 368.936 70.8523C370.297 70.8523 371.615 71.5989 372.976 73.0482L375.48 70.8963C373.899 68.6565 371.747 67.5147 369.068 67.5147ZM388.666 83.8517L383.045 67.866H379.005L386.778 89.0778L383.265 98.959H387.041L398.021 67.866H394.156L388.666 83.8517ZM402.37 94.6991L407.464 85.1692H402.458L399.559 94.6991H402.37ZM439.565 68.1734C438.73 67.7343 437.72 67.5147 436.534 67.5147C434.075 67.5147 431.308 69.1835 430.035 71.6428V67.866H426.346V90H430.035V81.6119C430.035 78.2303 430.65 75.5953 431.879 73.7069C433.109 71.8185 434.558 70.8523 436.227 70.8523C437.149 70.8523 437.984 71.0719 438.818 71.4672L439.565 68.1734ZM444.102 90H447.791V67.866H444.102V90ZM443.18 61.7177C443.18 63.2548 444.366 64.4405 445.947 64.4405C447.528 64.4405 448.713 63.2548 448.713 61.7177C448.713 60.1367 447.528 58.907 445.947 58.907C444.366 58.907 443.18 60.1367 443.18 61.7177ZM463.463 67.5147C457.139 67.5147 453.626 72.082 453.626 78.933C453.626 85.784 457.139 90.3514 463.463 90.3514C466.098 90.3514 468.821 88.9899 469.919 87.2772V90H473.608V58.907H469.919V70.501C469.524 69.7983 468.645 69.1396 467.372 68.4808C466.098 67.8221 464.781 67.5147 463.463 67.5147ZM463.815 87.0137C459.95 87.0137 457.403 83.7199 457.403 78.933C457.403 74.1461 459.95 70.8523 463.815 70.8523C467.811 70.8523 470.226 74.1461 470.226 78.933C470.226 83.7199 467.811 87.0137 463.815 87.0137ZM480.642 90H484.331V67.866H480.642V90ZM479.72 61.7177C479.72 63.2548 480.906 64.4405 482.487 64.4405C484.068 64.4405 485.253 63.2548 485.253 61.7177C485.253 60.1367 484.068 58.907 482.487 58.907C480.906 58.907 479.72 60.1367 479.72 61.7177ZM506.283 82.9294C505.098 85.6523 503.077 87.0137 500.223 87.0137C496.139 87.0137 493.943 83.676 493.943 78.933C493.943 74.19 496.139 70.8523 500.223 70.8523C503.077 70.8523 505.098 72.2138 506.283 74.9366L509.489 73.6191C507.689 69.5348 504.615 67.5147 500.223 67.5147C497.017 67.5147 494.514 68.6126 492.757 70.8523C491.044 73.0482 490.166 75.7271 490.166 78.933C490.166 82.1389 491.044 84.8179 492.757 87.0576C494.514 89.2534 497.017 90.3514 500.223 90.3514C504.615 90.3514 507.689 88.3312 509.489 84.2469L506.283 82.9294ZM515.202 83.4564C515.202 87.8481 517.662 90.3514 521.702 90.3514C524.908 90.3514 527.367 88.8582 529.036 85.9158V90H532.725V67.866H529.036V77.1324C529.036 80.0748 528.421 82.4903 527.148 84.2909C525.918 86.0914 524.425 87.0137 522.712 87.0137C520.165 87.0137 518.891 85.5205 518.891 82.4903V67.866H515.202V83.4564ZM539.781 90H543.47V58.907H539.781V90ZM552.035 87.0137C554.011 89.2534 556.558 90.3514 559.764 90.3514C562.97 90.3514 565.517 89.2534 567.449 87.0137C569.426 84.7739 570.392 82.0511 570.392 78.933C570.392 75.8149 569.426 73.136 567.449 70.8963C565.517 68.6565 562.97 67.5147 559.764 67.5147C556.558 67.5147 554.011 68.6565 552.035 70.8963C550.102 73.136 549.136 75.8149 549.136 78.933C549.136 82.0511 550.102 84.7739 552.035 87.0137ZM554.714 73.2678C555.943 71.6428 557.612 70.8523 559.764 70.8523C561.916 70.8523 563.585 71.6428 564.77 73.2678C566 74.8488 566.615 76.7372 566.615 78.933C566.615 81.1288 566 83.0173 564.77 84.6422C563.585 86.2232 561.916 87.0137 559.764 87.0137C557.612 87.0137 555.943 86.2232 554.714 84.6422C553.528 83.0173 552.913 81.1288 552.913 78.933C552.913 76.7372 553.528 74.8488 554.714 73.2678ZM576.231 83.4564C576.231 87.8481 578.69 90.3514 582.731 90.3514C585.937 90.3514 588.396 88.8582 590.065 85.9158V90H593.754V67.866H590.065V77.1324C590.065 80.0748 589.45 82.4903 588.176 84.2909C586.947 86.0914 585.453 87.0137 583.741 87.0137C581.194 87.0137 579.92 85.5205 579.92 82.4903V67.866H576.231V83.4564ZM607.607 67.5147C603.699 67.5147 601.108 70.1058 601.108 73.6191C601.108 77.8351 604.797 79.2404 607.695 80.3383C609.672 81.041 611.296 82.095 611.296 83.5443C611.296 85.8719 610.111 87.0137 607.739 87.0137C605.499 87.0137 603.787 85.5644 602.601 82.6659L599.483 84.3787C600.756 87.7603 603.567 90.3514 607.739 90.3514C612.263 90.3514 615.073 87.7164 615.073 83.3247C615.117 76.825 604.753 77.6155 604.797 73.663C604.797 71.9063 605.939 70.8523 607.476 70.8523C608.837 70.8523 610.155 71.5989 611.516 73.0482L614.019 70.8963C612.438 68.6565 610.286 67.5147 607.607 67.5147ZM621.696 94.6991L626.79 85.1692H621.784L618.885 94.6991H621.696ZM56.2362 136.632C56.2362 134.129 58.3881 132.724 62.121 132.724H66.0735V133.251C66.0735 135.578 65.4587 137.291 64.229 138.389C62.9993 139.487 61.5501 140.014 59.8812 140.014C57.5537 140.014 56.2362 138.74 56.2362 136.632ZM69.7625 128.859C69.7625 123.238 66.3809 120.515 61.2427 120.515C57.0706 120.515 53.9525 122.842 53.3816 126.575L56.6314 127.322C57.1145 125.17 58.9151 123.852 61.2427 123.852C64.4486 123.852 66.0735 125.389 66.0735 128.42V129.386H62.4723C56.2801 129.386 52.4593 131.933 52.4593 136.632C52.4593 141.156 55.3139 143.351 59.3103 143.351C62.3406 143.351 64.6243 142.21 66.2492 139.882L66.864 143H69.7625V128.859ZM93.7359 127.41C93.7359 123.018 91.2765 120.515 87.2362 120.515C84.0303 120.515 81.5709 122.008 79.9021 124.95V120.866H76.2131V143H79.9021V133.734C79.9021 130.791 80.5169 128.376 81.7466 126.575C83.0202 124.775 84.5134 123.852 86.2261 123.852C88.7733 123.852 90.0469 125.346 90.0469 128.376V143H93.7359V127.41ZM109.213 120.515C102.889 120.515 99.3761 125.082 99.3761 131.933C99.3761 138.784 102.889 143.351 109.213 143.351C111.848 143.351 114.571 141.99 115.669 140.277V143H119.358V111.907H115.669V123.501C115.274 122.798 114.396 122.14 113.122 121.481C111.848 120.822 110.531 120.515 109.213 120.515ZM109.565 140.014C105.7 140.014 103.153 136.72 103.153 131.933C103.153 127.146 105.7 123.852 109.565 123.852C113.561 123.852 115.977 127.146 115.977 131.933C115.977 136.72 113.561 140.014 109.565 140.014ZM152.391 121.173C151.556 120.734 150.546 120.515 149.36 120.515C146.901 120.515 144.134 122.184 142.861 124.643V120.866H139.172V143H142.861V134.612C142.861 131.23 143.476 128.595 144.705 126.707C145.935 124.819 147.384 123.852 149.053 123.852C149.975 123.852 150.81 124.072 151.644 124.467L152.391 121.173ZM156.928 143H160.617V120.866H156.928V143ZM156.006 114.718C156.006 116.255 157.192 117.441 158.773 117.441C160.354 117.441 161.539 116.255 161.539 114.718C161.539 113.137 160.354 111.907 158.773 111.907C157.192 111.907 156.006 113.137 156.006 114.718ZM176.289 120.515C169.965 120.515 166.452 125.082 166.452 131.933C166.452 138.784 169.965 143.351 176.289 143.351C178.924 143.351 181.647 141.99 182.745 140.277V143H186.434V111.907H182.745V123.501C182.35 122.798 181.471 122.14 180.198 121.481C178.924 120.822 177.607 120.515 176.289 120.515ZM176.641 140.014C172.776 140.014 170.229 136.72 170.229 131.933C170.229 127.146 172.776 123.852 176.641 123.852C180.637 123.852 183.052 127.146 183.052 131.933C183.052 136.72 180.637 140.014 176.641 140.014ZM193.468 143H197.157V120.866H193.468V143ZM192.546 114.718C192.546 116.255 193.732 117.441 195.313 117.441C196.894 117.441 198.08 116.255 198.08 114.718C198.08 113.137 196.894 111.907 195.313 111.907C193.732 111.907 192.546 113.137 192.546 114.718ZM219.109 135.929C217.924 138.652 215.904 140.014 213.049 140.014C208.965 140.014 206.769 136.676 206.769 131.933C206.769 127.19 208.965 123.852 213.049 123.852C215.904 123.852 217.924 125.214 219.109 127.937L222.315 126.619C220.515 122.535 217.441 120.515 213.049 120.515C209.843 120.515 207.34 121.613 205.583 123.852C203.87 126.048 202.992 128.727 202.992 131.933C202.992 135.139 203.87 137.818 205.583 140.058C207.34 142.253 209.843 143.351 213.049 143.351C217.441 143.351 220.515 141.331 222.315 137.247L219.109 135.929ZM228.028 136.456C228.028 140.848 230.488 143.351 234.528 143.351C237.734 143.351 240.193 141.858 241.862 138.916V143H245.551V120.866H241.862V130.132C241.862 133.075 241.247 135.49 239.974 137.291C238.744 139.091 237.251 140.014 235.538 140.014C232.991 140.014 231.717 138.521 231.717 135.49V120.866H228.028V136.456ZM252.607 143H256.296V111.907H252.607V143ZM264.861 140.014C266.837 142.253 269.384 143.351 272.59 143.351C275.796 143.351 278.343 142.253 280.275 140.014C282.252 137.774 283.218 135.051 283.218 131.933C283.218 128.815 282.252 126.136 280.275 123.896C278.343 121.657 275.796 120.515 272.59 120.515C269.384 120.515 266.837 121.657 264.861 123.896C262.928 126.136 261.962 128.815 261.962 131.933C261.962 135.051 262.928 137.774 264.861 140.014ZM267.54 126.268C268.769 124.643 270.438 123.852 272.59 123.852C274.742 123.852 276.411 124.643 277.597 126.268C278.826 127.849 279.441 129.737 279.441 131.933C279.441 134.129 278.826 136.017 277.597 137.642C276.411 139.223 274.742 140.014 272.59 140.014C270.438 140.014 268.769 139.223 267.54 137.642C266.354 136.017 265.739 134.129 265.739 131.933C265.739 129.737 266.354 127.849 267.54 126.268ZM289.057 136.456C289.057 140.848 291.516 143.351 295.557 143.351C298.763 143.351 301.222 141.858 302.891 138.916V143L306.58 143V120.866L302.891 120.866V130.132C302.891 133.075 302.276 135.49 301.002 137.291C299.773 139.091 298.28 140.014 296.567 140.014C294.02 140.014 292.746 138.521 292.746 135.49V120.866H289.057V136.456ZM320.433 120.515C316.525 120.515 313.934 123.106 313.934 126.619C313.934 130.835 317.623 132.24 320.521 133.338C322.498 134.041 324.122 135.095 324.122 136.544C324.122 138.872 322.937 140.014 320.565 140.014C318.325 140.014 316.613 138.564 315.427 135.666L312.309 137.379C313.582 140.76 316.393 143.351 320.565 143.351C325.089 143.351 327.899 140.716 327.899 136.325C327.943 129.825 317.579 130.616 317.623 126.663C317.623 124.906 318.765 123.852 320.302 123.852C321.663 123.852 322.981 124.599 324.342 126.048L326.845 123.896C325.264 121.657 323.112 120.515 320.433 120.515ZM333.235 143H336.924V111.907H333.235V143ZM351.354 136.852L345.733 120.866H341.693L349.466 142.078L345.952 151.959H349.729L360.708 120.866H356.844L351.354 136.852ZM395.382 131.011C395.382 128.068 394.504 125.609 392.704 123.589C390.947 121.525 388.488 120.515 385.369 120.515C382.163 120.515 379.704 121.613 377.947 123.852C376.235 126.048 375.356 128.727 375.356 131.933C375.356 135.139 376.235 137.818 377.947 140.058C379.704 142.253 382.163 143.351 385.369 143.351C389.937 143.351 392.704 141.551 394.768 137.203L391.518 135.798C390.244 138.652 388.488 140.014 385.369 140.014C381.549 140.014 379.353 137.071 379.133 132.724H395.382V131.011ZM385.369 123.852C388.751 123.852 390.815 126.048 391.518 129.386H379.353C380.055 126.004 382.076 123.852 385.369 123.852ZM404.053 136.632C404.053 134.129 406.205 132.724 409.938 132.724H413.89V133.251C413.89 135.578 413.275 137.291 412.046 138.389C410.816 139.487 409.367 140.014 407.698 140.014C405.37 140.014 404.053 138.74 404.053 136.632ZM417.579 128.859C417.579 123.238 414.198 120.515 409.059 120.515C404.887 120.515 401.769 122.842 401.198 126.575L404.448 127.322C404.931 125.17 406.732 123.852 409.059 123.852C412.265 123.852 413.89 125.389 413.89 128.42V129.386H410.289C404.097 129.386 400.276 131.933 400.276 136.632C400.276 141.156 403.131 143.351 407.127 143.351C410.157 143.351 412.441 142.21 414.066 139.882L414.681 143H417.579V128.859ZM430.611 120.515C426.703 120.515 424.111 123.106 424.111 126.619C424.111 130.835 427.8 132.24 430.699 133.338C432.675 134.041 434.3 135.095 434.3 136.544C434.3 138.872 433.114 140.014 430.743 140.014C428.503 140.014 426.79 138.564 425.605 135.666L422.487 137.379C423.76 140.76 426.571 143.351 430.743 143.351C435.266 143.351 438.077 140.716 438.077 136.325C438.121 129.825 427.757 130.616 427.8 126.663C427.8 124.906 428.942 123.852 430.479 123.852C431.841 123.852 433.158 124.599 434.52 126.048L437.023 123.896C435.442 121.657 433.29 120.515 430.611 120.515ZM450.21 136.852L444.588 120.866H440.548L448.321 142.078L444.808 151.959H448.585L459.564 120.866H455.699L450.21 136.852ZM494.238 137.862L489.89 120.866H486.201L481.853 137.862L477.33 120.866H473.465L480.185 143H483.698L488.046 126.18L492.393 143H495.907L502.626 120.866H498.761L494.238 137.862ZM509.341 136.632C509.341 134.129 511.493 132.724 515.226 132.724H519.179V133.251C519.179 135.578 518.564 137.291 517.334 138.389C516.105 139.487 514.655 140.014 512.987 140.014C510.659 140.014 509.341 138.74 509.341 136.632ZM522.868 128.859C522.868 123.238 519.486 120.515 514.348 120.515C510.176 120.515 507.058 122.842 506.487 126.575L509.737 127.322C510.22 125.17 512.02 123.852 514.348 123.852C517.554 123.852 519.179 125.389 519.179 128.42V129.386H515.578C509.385 129.386 505.565 131.933 505.565 136.632C505.565 141.156 508.419 143.351 512.416 143.351C515.446 143.351 517.73 142.21 519.354 139.882L519.969 143H522.868V128.859ZM536.499 136.852L530.878 120.866H526.837L534.611 142.078L531.097 151.959H534.874L545.853 120.866H541.989L536.499 136.852ZM563.048 124.204V136.061C563.048 140.848 565.552 143.351 569.46 143.351C570.91 143.351 572.095 143.088 573.061 142.517L572.183 139.311C571.48 139.794 570.646 140.014 569.68 140.014C567.791 140.014 566.737 138.696 566.737 136.369V124.204H572.534V120.866H566.737V111.907L563.048 114.235V120.866H559.228V124.204H563.048ZM579.611 140.014C581.587 142.253 584.135 143.351 587.341 143.351C590.546 143.351 593.094 142.253 595.026 140.014C597.002 137.774 597.968 135.051 597.968 131.933C597.968 128.815 597.002 126.136 595.026 123.896C593.094 121.657 590.546 120.515 587.341 120.515C584.135 120.515 581.587 121.657 579.611 123.896C577.679 126.136 576.713 128.815 576.713 131.933C576.713 135.051 577.679 137.774 579.611 140.014ZM582.29 126.268C583.52 124.643 585.189 123.852 587.341 123.852C589.492 123.852 591.161 124.643 592.347 126.268C593.577 127.849 594.192 129.737 594.192 131.933C594.192 134.129 593.577 136.017 592.347 137.642C591.161 139.223 589.492 140.014 587.341 140.014C585.189 140.014 583.52 139.223 582.29 137.642C581.104 136.017 580.49 134.129 580.49 131.933C580.49 129.737 581.104 127.849 582.29 126.268ZM68.4889 188.929C67.3032 191.652 65.283 193.014 62.4284 193.014C58.3442 193.014 56.1483 189.676 56.1483 184.933C56.1483 180.19 58.3442 176.852 62.4284 176.852C65.283 176.852 67.3032 178.214 68.4889 180.937L71.6948 179.619C69.8943 175.535 66.8201 173.515 62.4284 173.515C59.2225 173.515 56.7192 174.613 54.9626 176.852C53.2498 179.048 52.3715 181.727 52.3715 184.933C52.3715 188.139 53.2498 190.818 54.9626 193.058C56.7192 195.253 59.2225 196.351 62.4284 196.351C66.8201 196.351 69.8943 194.331 71.6948 190.247L68.4889 188.929ZM90.59 174.173C89.7556 173.734 88.7455 173.515 87.5597 173.515C85.1004 173.515 82.3337 175.183 81.0601 177.643V173.866H77.3711V196H81.0601V187.612C81.0601 184.23 81.6749 181.595 82.9046 179.707C84.1342 177.818 85.5835 176.852 87.2523 176.852C88.1746 176.852 89.009 177.072 89.8434 177.467L90.59 174.173ZM113.012 184.011C113.012 181.068 112.134 178.609 110.333 176.589C108.576 174.525 106.117 173.515 102.999 173.515C99.7929 173.515 97.3336 174.613 95.5769 176.852C93.8642 179.048 92.9859 181.727 92.9859 184.933C92.9859 188.139 93.8642 190.818 95.5769 193.058C97.3336 195.253 99.7929 196.351 102.999 196.351C107.566 196.351 110.333 194.551 112.397 190.203L109.147 188.798C107.874 191.652 106.117 193.014 102.999 193.014C99.1781 193.014 96.9823 190.071 96.7627 185.724H113.012V184.011ZM102.999 176.852C106.38 176.852 108.445 179.048 109.147 182.386H96.9823C97.6849 179.004 99.7051 176.852 102.999 176.852ZM121.682 189.632C121.682 187.129 123.834 185.724 127.567 185.724H131.52V186.251C131.52 188.578 130.905 190.291 129.675 191.389C128.445 192.487 126.996 193.014 125.327 193.014C123 193.014 121.682 191.74 121.682 189.632ZM135.209 181.859C135.209 176.237 131.827 173.515 126.689 173.515C122.517 173.515 119.399 175.842 118.828 179.575L122.078 180.322C122.561 178.17 124.361 176.852 126.689 176.852C129.895 176.852 131.52 178.389 131.52 181.42V182.386H127.918C121.726 182.386 117.905 184.933 117.905 189.632C117.905 194.156 120.76 196.351 124.756 196.351C127.787 196.351 130.07 195.21 131.695 192.882L132.31 196H135.209V181.859ZM143.438 177.204V189.061C143.438 193.848 145.941 196.351 149.85 196.351C151.299 196.351 152.485 196.088 153.451 195.517L152.573 192.311C151.87 192.794 151.036 193.014 150.07 193.014C148.181 193.014 147.127 191.696 147.127 189.369V177.204H152.924V173.866H147.127V164.907L143.438 167.235V173.866H139.617V177.204H143.438ZM177.129 184.011C177.129 181.068 176.25 178.609 174.45 176.589C172.693 174.525 170.234 173.515 167.116 173.515C163.91 173.515 161.45 174.613 159.694 176.852C157.981 179.048 157.103 181.727 157.103 184.933C157.103 188.139 157.981 190.818 159.694 193.058C161.45 195.253 163.91 196.351 167.116 196.351C171.683 196.351 174.45 194.551 176.514 190.203L173.264 188.798C171.99 191.652 170.234 193.014 167.116 193.014C163.295 193.014 161.099 190.071 160.879 185.724H177.129V184.011ZM167.116 176.852C170.497 176.852 172.561 179.048 173.264 182.386H161.099C161.802 179.004 163.822 176.852 167.116 176.852ZM201.421 173.515C197.512 173.515 194.921 176.106 194.921 179.619C194.921 183.835 198.61 185.24 201.509 186.338C203.485 187.041 205.11 188.095 205.11 189.544C205.11 191.872 203.924 193.014 201.553 193.014C199.313 193.014 197.6 191.564 196.414 188.666L193.296 190.379C194.57 193.76 197.381 196.351 201.553 196.351C206.076 196.351 208.887 193.716 208.887 189.325C208.931 182.825 198.566 183.616 198.61 179.663C198.61 177.906 199.752 176.852 201.289 176.852C202.651 176.852 203.968 177.599 205.33 179.048L207.833 176.896C206.252 174.656 204.1 173.515 201.421 173.515ZM214.223 196H217.912V164.907H214.223V196ZM224.519 196H228.208V173.866H224.519V196ZM223.596 167.718C223.596 169.255 224.782 170.44 226.363 170.44C227.944 170.44 229.13 169.255 229.13 167.718C229.13 166.137 227.944 164.907 226.363 164.907C224.782 164.907 223.596 166.137 223.596 167.718ZM243.88 173.515C237.556 173.515 234.042 178.082 234.042 184.933C234.042 191.784 237.556 196.351 243.88 196.351C246.515 196.351 249.238 194.99 250.336 193.277V196H254.025V164.907H250.336V176.501C249.94 175.798 249.062 175.14 247.788 174.481C246.515 173.822 245.197 173.515 243.88 173.515ZM244.231 193.014C240.366 193.014 237.819 189.72 237.819 184.933C237.819 180.146 240.366 176.852 244.231 176.852C248.228 176.852 250.643 180.146 250.643 184.933C250.643 189.72 248.228 193.014 244.231 193.014ZM279.887 184.011C279.887 181.068 279.008 178.609 277.208 176.589C275.451 174.525 272.992 173.515 269.874 173.515C266.668 173.515 264.208 174.613 262.452 176.852C260.739 179.048 259.861 181.727 259.861 184.933C259.861 188.139 260.739 190.818 262.452 193.058C264.208 195.253 266.668 196.351 269.874 196.351C274.441 196.351 277.208 194.551 279.272 190.203L276.022 188.798C274.748 191.652 272.992 193.014 269.874 193.014C266.053 193.014 263.857 190.071 263.638 185.724H279.887V184.011ZM269.874 176.852C273.255 176.852 275.319 179.048 276.022 182.386H263.857C264.56 179.004 266.58 176.852 269.874 176.852ZM292.171 173.515C288.262 173.515 285.671 176.106 285.671 179.619C285.671 183.835 289.36 185.24 292.259 186.338C294.235 187.041 295.86 188.095 295.86 189.544C295.86 191.872 294.674 193.014 292.302 193.014C290.063 193.014 288.35 191.564 287.164 188.666L284.046 190.379C285.32 193.76 288.13 196.351 292.302 196.351C296.826 196.351 299.637 193.716 299.637 189.325C299.68 182.825 289.316 183.616 289.36 179.663C289.36 177.906 290.502 176.852 292.039 176.852C293.4 176.852 294.718 177.599 296.079 179.048L298.583 176.896C297.002 174.656 294.85 173.515 292.171 173.515ZM323.406 180.629C323.406 176.018 320.991 173.515 316.906 173.515C313.525 173.515 310.626 175.227 309.221 177.994V164.907L305.532 164.907V196H309.221V186.602C309.221 183.703 309.88 181.376 311.241 179.575C312.603 177.775 314.184 176.852 315.896 176.852C318.443 176.852 319.717 178.345 319.717 181.376V196H323.406V180.629ZM331.894 193.014C333.87 195.253 336.417 196.351 339.623 196.351C342.829 196.351 345.376 195.253 347.308 193.014C349.285 190.774 350.251 188.051 350.251 184.933C350.251 181.815 349.285 179.136 347.308 176.896C345.376 174.656 342.829 173.515 339.623 173.515C336.417 173.515 333.87 174.656 331.894 176.896C329.961 179.136 328.995 181.815 328.995 184.933C328.995 188.051 329.961 190.774 331.894 193.014ZM334.573 179.268C335.802 177.643 337.471 176.852 339.623 176.852C341.775 176.852 343.444 177.643 344.629 179.268C345.859 180.849 346.474 182.737 346.474 184.933C346.474 187.129 345.859 189.017 344.629 190.642C343.444 192.223 341.775 193.014 339.623 193.014C337.471 193.014 335.802 192.223 334.573 190.642C333.387 189.017 332.772 187.129 332.772 184.933C332.772 182.737 333.387 180.849 334.573 179.268ZM374.453 190.862L370.106 173.866H366.417L362.069 190.862L357.545 173.866H353.681L360.4 196H363.913L368.261 179.18L372.609 196H376.122L382.841 173.866H378.977L374.453 190.862ZM393.814 173.515C389.905 173.515 387.314 176.106 387.314 179.619C387.314 183.835 391.003 185.24 393.902 186.338C395.878 187.041 397.503 188.095 397.503 189.544C397.503 191.872 396.317 193.014 393.946 193.014C391.706 193.014 389.993 191.564 388.807 188.666L385.689 190.379C386.963 193.76 389.773 196.351 393.946 196.351C398.469 196.351 401.28 193.716 401.28 189.325C401.324 182.825 390.959 183.616 391.003 179.663C391.003 177.906 392.145 176.852 393.682 176.852C395.043 176.852 396.361 177.599 397.722 179.048L400.226 176.896C398.645 174.656 396.493 173.515 393.814 173.515ZM437.841 190.862L433.493 173.866H429.804L425.456 190.862L420.933 173.866H417.068L423.788 196H427.301L431.649 179.18L435.996 196H439.51L446.229 173.866H442.364L437.841 190.862ZM451.221 196H454.91V173.866H451.221V196ZM450.299 167.718C450.299 169.255 451.485 170.44 453.066 170.44C454.647 170.44 455.833 169.255 455.833 167.718C455.833 166.137 454.647 164.907 453.066 164.907C451.485 164.907 450.299 166.137 450.299 167.718ZM463.764 177.204V189.061C463.764 193.848 466.267 196.351 470.176 196.351C471.625 196.351 472.811 196.088 473.777 195.517L472.899 192.311C472.196 192.794 471.362 193.014 470.396 193.014C468.507 193.014 467.453 191.696 467.453 189.369V177.204H473.25V173.866H467.453V164.907L463.764 167.235V173.866H459.943V177.204H463.764ZM497.057 180.629C497.057 176.018 494.642 173.515 490.557 173.515C487.176 173.515 484.277 175.227 482.872 177.994V164.907H479.183V196H482.872V186.602C482.872 183.703 483.531 181.376 484.892 179.575C486.254 177.775 487.835 176.852 489.547 176.852C492.095 176.852 493.368 178.345 493.368 181.376V196H497.057V180.629ZM516.843 196H520.708V181.815H532.082V178.126H520.708V168.947H534.717V165.258H516.843V196ZM540.299 196H543.988V173.866H540.299V196ZM539.376 167.718C539.376 169.255 540.562 170.44 542.143 170.44C543.724 170.44 544.91 169.255 544.91 167.718C544.91 166.137 543.724 164.907 542.143 164.907C540.562 164.907 539.376 166.137 539.376 167.718ZM551.403 180.981C551.403 182.869 551.93 184.494 553.028 185.811C551.228 186.734 550.349 188.095 550.349 189.896C550.349 191.389 550.832 192.575 551.842 193.409C550.481 194.595 549.778 196.132 549.778 198.02C549.778 202.588 553.511 205.31 559.177 205.31C564.622 205.31 568.531 202.807 568.531 197.669C568.531 193.76 565.808 191.564 561.592 191.564H556.366C554.697 191.564 553.863 190.95 553.863 189.72C553.863 188.754 554.346 188.051 555.312 187.568C556.41 188.095 557.683 188.359 559.133 188.359C561.372 188.359 563.217 187.7 564.666 186.382C566.115 185.021 566.862 183.22 566.862 180.981C566.862 179.443 566.511 178.126 565.764 176.984L568.75 175.315L567.082 172.285L563.129 174.525C561.899 173.866 560.582 173.559 559.133 173.559C556.893 173.559 555.048 174.261 553.599 175.623C552.15 176.984 551.403 178.741 551.403 180.981ZM561.021 194.726C563.524 194.726 564.754 195.824 564.754 198.02C564.754 200.436 562.866 202.061 559.177 202.061C555.488 202.061 553.467 200.392 553.467 197.888C553.467 196.483 553.95 195.385 554.917 194.639C555.575 194.683 556.102 194.726 556.542 194.726H561.021ZM556.19 177.862C557.771 176.325 560.494 176.325 562.075 177.862C562.866 178.609 563.261 179.663 563.261 180.981C563.261 182.298 562.866 183.352 562.075 184.099C560.494 185.548 557.771 185.548 556.19 184.099C555.4 183.352 555.004 182.298 555.004 180.981C555.004 179.663 555.4 178.609 556.19 177.862ZM603.701 180.41C603.701 176.062 601.461 173.515 597.465 173.515C594.303 173.515 591.887 175.052 590.262 178.126C589.56 175.183 587.364 173.515 584.334 173.515C581.216 173.515 578.932 175.008 577.439 177.95V173.866H573.75V196H577.439V186.909C577.439 180.717 579.986 176.852 583.324 176.852C585.695 176.852 586.881 178.302 586.881 181.2V196H590.57V186.909C590.57 180.717 593.117 176.852 596.455 176.852C598.826 176.852 600.012 178.302 600.012 181.2V196H603.701V180.41ZM613.558 189.632C613.558 187.129 615.71 185.724 619.443 185.724H623.395V186.251C623.395 188.578 622.78 190.291 621.551 191.389C620.321 192.487 618.872 193.014 617.203 193.014C614.875 193.014 613.558 191.74 613.558 189.632ZM627.084 181.859C627.084 176.237 623.703 173.515 618.564 173.515C614.392 173.515 611.274 175.842 610.703 179.575L613.953 180.322C614.436 178.17 616.237 176.852 618.564 176.852C621.77 176.852 623.395 178.389 623.395 181.42V182.386H619.794C613.602 182.386 609.781 184.933 609.781 189.632C609.781 194.156 612.636 196.351 616.632 196.351C619.662 196.351 621.946 195.21 623.571 192.882L624.186 196H627.084V181.859ZM633.361 193.409C633.361 194.99 634.547 196.176 636.128 196.176C637.665 196.176 638.895 194.99 638.895 193.409C638.895 191.872 637.665 190.642 636.128 190.642C634.547 190.642 633.361 191.872 633.361 193.409Z" fill="black"/>
</g>
</g>
<defs>
<filter id="filter0_d_42_2" x="0" y="0" width="703.715" height="260" filterUnits="userSpaceOnUse" color-interpolation-filters="sRGB">
<feFlood flood-opacity="0" result="BackgroundImageFix"/>
<feColorMatrix in="SourceAlpha" type="matrix" values="0 0 0 0 0 0 0 0 0 0 0 0 0 0 0 0 0 0 127 0" result="hardAlpha"/>
<feOffset dy="2"/>
<feGaussianBlur stdDeviation="1"/>
<feComposite in2="hardAlpha" operator="out"/>
<feColorMatrix type="matrix" values="0 0 0 0 0 0 0 0 0 0 0 0 0 0 0 0 0 0 0.25 0"/>
<feBlend mode="normal" in2="BackgroundImageFix" result="effect1_dropShadow_42_2"/>
<feBlend mode="normal" in="SourceGraphic" in2="effect1_dropShadow_42_2" result="shape"/>
</filter>
<clipPath id="clip0_42_2">
<rect x="2" width="699.715" height="256" rx="12" fill="white"/>
</clipPath>
</defs>
</svg>
