<svg width="732" height="352" viewBox="0 0 732 352" fill="none" xmlns="http://www.w3.org/2000/svg">
<g filter="url(#filter0_d_4_9)">
<g clip-path="url(#clip0_4_9)">
<rect x="2.00096" y="93.5486" width="700.051" height="256.123" rx="12" transform="rotate(-7.67947 2.00096 93.5486)" fill="white"/>
<path d="M87.3654 150.906C85.0051 145.239 80.1987 142.473 73.7977 143.336C69.8788 143.865 66.7138 145.71 64.3405 148.823C61.9671 151.936 61.1281 155.907 61.7916 160.827C62.455 165.748 64.3216 169.397 67.4347 171.771C70.5479 174.144 74.0828 175.042 78.0017 174.513C84.4026 173.65 88.3049 169.71 89.0798 163.62L84.3986 163.099C83.3712 167.316 81.3971 169.445 77.3911 169.985C71.9917 170.713 67.6314 167.311 66.6685 160.169C65.7055 153.028 69.009 148.593 74.4084 147.865C78.4144 147.324 80.8817 148.854 82.9895 152.648L87.3654 150.906ZM96.3899 168.709C98.6429 170.622 101.446 171.352 104.712 170.912C107.977 170.471 110.443 169.031 112.109 166.589C113.775 164.148 114.413 161.313 113.984 158.134C113.555 154.956 112.19 152.391 109.937 150.478C107.684 148.565 104.924 147.829 101.659 148.269C98.3927 148.709 95.8834 150.156 94.2175 152.598C92.5516 155.039 91.9576 157.868 92.3863 161.047C92.8149 164.225 94.1369 166.796 96.3899 168.709ZM98.0508 155.051C98.9456 153.467 100.326 152.528 102.199 152.275C104.071 152.023 105.651 152.563 106.89 153.859C108.173 155.149 108.924 156.777 109.194 158.78C109.464 160.783 109.177 162.595 108.282 164.179C107.43 165.757 106.044 166.653 104.171 166.906C102.299 167.158 100.725 166.661 99.4423 165.371C98.2035 164.075 97.4462 162.404 97.1761 160.401C96.906 158.398 97.1995 156.629 98.0508 155.051ZM123.699 159.706C123.258 156.44 123.49 153.882 124.43 151.982C125.365 150.038 126.641 148.979 128.252 148.762C129.254 148.627 130.154 148.727 130.91 149.069L131.136 144.826C130.218 144.595 129.28 144.545 128.278 144.68C125.84 145.008 123.421 146.798 122.33 149.56L121.837 145.903L117.309 146.513L120.268 168.459L124.797 167.849L123.699 159.706ZM151.105 156.72C150.314 159.398 148.655 160.908 146.173 161.242C142.472 161.741 140.25 159.07 139.657 154.673C139.064 150.275 140.499 147.111 144.2 146.612C146.682 146.277 148.681 147.293 150.154 149.666L153.969 147.378C151.637 143.569 148.232 141.989 143.66 142.606C140.351 143.052 137.929 144.487 136.437 146.905C134.939 149.279 134.432 152.096 134.867 155.318C135.301 158.541 136.536 161.123 138.615 163.059C140.688 164.952 143.404 165.694 146.713 165.248C151.285 164.632 154.15 162.206 155.39 157.916L151.105 156.72ZM161.048 162.961L165.576 162.35L164.326 153.075C163.962 150.376 164.321 148.11 165.361 146.285C166.4 144.46 167.639 143.451 169.032 143.263C171.296 142.958 172.59 143.67 173.012 146.805L174.938 161.088L179.467 160.477L177.382 145.019C176.766 140.447 174.109 138.5 169.972 139.058C166.924 139.469 164.624 141.153 163.122 144.149L161.419 131.521L156.891 132.132L161.048 162.961ZM186.709 156.53C188.962 158.443 191.765 159.173 195.031 158.733C198.297 158.293 200.762 156.852 202.428 154.41C204.094 151.969 204.732 149.134 204.303 145.956C203.874 142.777 202.509 140.212 200.256 138.299C198.003 136.386 195.243 135.65 191.978 136.09C188.712 136.531 186.202 137.977 184.537 140.419C182.871 142.86 182.277 145.689 182.705 148.868C183.134 152.047 184.456 154.617 186.709 156.53ZM188.37 142.872C189.265 141.289 190.645 140.349 192.518 140.096C194.39 139.844 195.97 140.385 197.209 141.681C198.492 142.971 199.243 144.598 199.513 146.601C199.783 148.604 199.496 150.417 198.601 152C197.75 153.578 196.363 154.475 194.491 154.727C192.618 154.98 191.044 154.482 189.761 153.192C188.523 151.896 187.765 150.225 187.495 148.222C187.225 146.219 187.519 144.45 188.37 142.872ZM223.606 154.525L227.264 154.032L224.305 132.086L220.647 132.579L223.606 154.525ZM218.911 126.606C219.116 128.13 220.45 129.148 222.018 128.936C223.586 128.725 224.603 127.391 224.397 125.867C224.186 124.299 222.846 123.238 221.278 123.45C219.711 123.661 218.699 125.039 218.911 126.606ZM237.628 129.935C233.752 130.457 231.53 133.373 231.999 136.856C232.563 141.037 236.409 141.937 239.429 142.638C241.483 143.07 243.235 143.898 243.429 145.335C243.74 147.643 242.717 148.934 240.365 149.251C238.145 149.55 236.253 148.342 234.689 145.627L231.827 147.742C233.542 150.924 236.675 153.118 240.812 152.56C245.297 151.955 247.731 148.967 247.144 144.612C246.318 138.162 236.148 140.332 235.663 136.407C235.428 134.665 236.419 133.467 237.943 133.262C239.293 133.08 240.699 133.644 242.243 134.899L244.437 132.431C242.57 130.421 240.284 129.577 237.628 129.935ZM267.412 142.19C267.077 139.708 269.023 138.027 272.724 137.528L276.643 136.999L276.713 137.522C277.025 139.83 276.644 141.61 275.572 142.863C274.499 144.116 273.133 144.832 271.478 145.055C269.17 145.367 267.694 144.28 267.412 142.19ZM279.784 132.674C279.032 127.101 275.315 124.853 270.221 125.54C266.084 126.098 263.304 128.822 263.237 132.6L266.559 132.906C266.75 130.708 268.359 129.161 270.667 128.849C273.846 128.421 275.662 129.728 276.068 132.732L276.197 133.69L272.626 134.171C266.486 134.999 263.039 138.036 263.667 142.695C264.272 147.18 267.396 148.975 271.358 148.441C274.363 148.036 276.474 146.598 277.774 144.073L278.801 147.083L281.675 146.695L279.784 132.674ZM303.36 128.032C302.773 123.678 300 121.525 295.994 122.065C292.815 122.493 290.576 124.303 289.315 127.443L288.769 123.394L285.111 123.887L288.07 145.833L291.728 145.34L290.489 136.152C290.096 133.235 290.382 130.757 291.361 128.808C292.383 126.852 293.74 125.738 295.438 125.509C297.964 125.169 299.426 126.479 299.831 129.483L301.787 143.983L305.444 143.49L303.36 128.032ZM341.451 126.531C341.058 123.614 339.858 121.293 337.803 119.531C335.785 117.719 333.212 117.046 330.12 117.463C326.941 117.892 324.65 119.309 323.207 121.765C321.803 124.171 321.29 126.945 321.719 130.123C322.147 133.302 323.376 135.841 325.374 137.832C327.409 139.775 329.994 140.535 333.173 140.106C337.702 139.495 340.204 137.34 341.669 132.753L338.259 131.794C337.378 134.795 335.819 136.38 332.727 136.797C328.939 137.307 326.368 134.684 325.569 130.402L341.68 128.23L341.451 126.531ZM330.566 120.773C333.919 120.32 336.259 122.222 337.402 125.437L325.341 127.063C325.585 123.617 327.3 121.213 330.566 120.773ZM350.8 130.946C350.465 128.464 352.411 126.783 356.112 126.284L360.031 125.755L360.101 126.278C360.412 128.586 360.032 130.366 358.959 131.619C357.887 132.872 356.52 133.588 354.866 133.811C352.558 134.123 351.081 133.036 350.8 130.946ZM363.172 121.43C362.42 115.857 358.703 113.609 353.609 114.296C349.472 114.854 346.692 117.578 346.625 121.356L349.947 121.662C350.138 119.464 351.747 117.916 354.055 117.605C357.234 117.177 359.05 118.483 359.455 121.488L359.585 122.446L356.014 122.927C349.874 123.755 346.427 126.792 347.055 131.451C347.66 135.936 350.783 137.731 354.746 137.197C357.75 136.792 359.862 135.354 361.162 132.829L362.189 135.839L365.062 135.451L363.172 121.43ZM374.977 111.415C371.102 111.937 368.879 114.853 369.349 118.336C369.913 122.516 373.758 123.417 376.779 124.118C378.832 124.55 380.584 125.378 380.778 126.815C381.089 129.123 380.066 130.413 377.715 130.73C375.494 131.03 373.602 129.822 372.039 127.107L369.177 129.222C370.891 132.404 374.025 134.597 378.161 134.04C382.646 133.435 385.081 130.447 384.494 126.092C383.668 119.642 373.498 121.811 373.013 117.886C372.778 116.145 373.769 114.947 375.293 114.742C376.643 114.56 378.049 115.124 379.593 116.379L381.787 113.91C379.92 111.901 377.634 111.056 374.977 111.415ZM396.594 124.993L388.883 109.894L384.877 110.434L395.42 130.427L393.258 140.694L397.002 140.189L403.731 107.892L399.899 108.409L396.594 124.993ZM411.631 133.916L415.408 123.786L410.444 124.455L408.844 134.292L411.631 133.916ZM444.964 102.643C444.078 102.319 443.047 102.236 441.871 102.395C439.433 102.723 436.913 104.748 435.979 107.357L435.474 103.612L431.816 104.105L434.775 126.051L438.433 125.558L437.311 117.241C436.859 113.888 437.117 111.193 438.083 109.157C439.05 107.12 440.358 105.968 442.013 105.745C442.927 105.622 443.784 105.728 444.664 106.008L444.964 102.643ZM452.381 123.677L456.038 123.184L453.079 101.238L449.422 101.731L452.381 123.677ZM447.685 95.7584C447.891 97.2824 449.225 98.2996 450.792 98.0882C452.36 97.8768 453.377 96.5426 453.172 95.0186C452.96 93.451 451.62 92.3903 450.053 92.6017C448.485 92.8131 447.474 94.1908 447.685 95.7584ZM468.571 98.7944C462.301 99.6398 459.428 104.638 460.344 111.431C461.26 118.224 465.354 122.283 471.624 121.437C474.237 121.085 476.755 119.371 477.614 117.526L477.978 120.226L481.636 119.732L477.479 88.9035L473.821 89.3967L475.371 100.892C474.886 100.248 473.927 99.7126 472.576 99.2298C471.225 98.7469 469.878 98.6182 468.571 98.7944ZM471.526 118.081C467.695 118.597 464.729 115.672 464.089 110.926C463.449 106.18 465.534 102.573 469.366 102.057C473.328 101.522 476.164 104.465 476.804 109.212C477.443 113.958 475.489 117.546 471.526 118.081ZM488.61 118.792L492.268 118.299L489.309 96.3528L485.651 96.846L488.61 118.792ZM483.915 90.8731C484.12 92.3972 485.455 93.4143 487.022 93.203C488.59 92.9916 489.607 91.6574 489.401 90.1333C489.19 88.5658 487.85 87.5051 486.282 87.7165C484.715 87.9278 483.703 89.3056 483.915 90.8731ZM513.089 108.353C512.277 111.212 510.456 112.832 507.626 113.213C503.576 113.759 500.953 110.743 500.318 106.041C499.684 101.338 501.415 97.7351 505.465 97.1891C508.295 96.8074 510.48 97.8872 512.02 100.428L515.022 98.6935C512.691 94.8846 509.373 93.2926 505.019 93.8798C501.84 94.3084 499.505 95.7317 498.062 98.1872C496.658 100.593 496.145 103.367 496.574 106.546C497.002 109.724 498.231 112.263 500.229 114.255C502.264 116.197 504.893 116.951 508.072 116.522C512.426 115.935 515.204 113.521 516.443 109.231L513.089 108.353ZM522.002 107.683C522.589 112.038 525.362 114.191 529.368 113.651C532.547 113.222 534.786 111.413 536.047 108.272L536.593 112.322L540.251 111.829L537.292 89.8827L533.634 90.3759L534.873 99.5637C535.266 102.481 534.98 104.958 533.958 106.914C532.979 108.863 531.622 109.977 529.924 110.206C527.398 110.547 525.936 109.237 525.531 106.232L523.575 91.7322L519.918 92.2255L522.002 107.683ZM547.247 110.885L550.904 110.392L546.747 79.5633L543.09 80.0565L547.247 110.885ZM558.997 106.286C561.256 108.243 563.928 108.991 567.107 108.562C570.286 108.134 572.665 106.704 574.281 104.225C575.941 101.74 576.535 98.9115 576.118 95.8199C575.701 92.7283 574.385 90.2013 572.126 88.2448C569.911 86.2824 567.233 85.4908 564.054 85.9194C560.875 86.348 558.502 87.8207 556.842 90.3057C555.226 92.7847 554.626 95.5701 555.043 98.6617C555.46 101.753 556.782 104.324 558.997 106.286ZM559.816 92.2989C560.818 90.5233 562.367 89.5164 564.5 89.2287C566.634 88.941 568.394 89.5017 569.787 90.9543C571.218 92.3575 572.08 94.1476 572.373 96.3248C572.667 98.502 572.31 100.457 571.308 102.232C570.344 103.958 568.795 104.965 566.661 105.253C564.527 105.541 562.767 104.98 561.336 103.577C559.943 102.124 559.081 100.334 558.788 98.1567C558.494 95.9795 558.851 94.025 559.816 92.2989ZM582.513 99.5242C583.1 103.879 585.873 106.032 589.879 105.492C593.057 105.063 595.296 103.254 596.558 100.113L597.104 104.163L600.761 103.67L597.802 81.7235L594.144 82.2167L595.383 91.4044C595.777 94.3218 595.49 96.7989 594.468 98.7545C593.489 100.704 592.132 101.818 590.434 102.047C587.909 102.388 586.446 101.078 586.041 98.073L584.086 83.573L580.428 84.0662L582.513 99.5242ZM611.491 79.523C607.616 80.0455 605.393 82.961 605.863 86.4445C606.426 90.6247 610.272 91.5249 613.293 92.226C615.346 92.6585 617.098 93.4863 617.292 94.9232C617.603 97.231 616.58 98.5217 614.229 98.8387C612.008 99.1382 610.116 97.9302 608.553 95.2149L605.69 97.33C607.405 100.513 610.538 102.706 614.675 102.148C619.16 101.543 621.594 98.5549 621.007 94.2005C620.182 87.7502 610.011 89.9197 609.526 85.9949C609.291 84.2531 610.283 83.0554 611.807 82.8499C613.157 82.6679 614.563 83.232 616.106 84.4869L618.301 82.0186C616.434 80.0092 614.147 79.1648 611.491 79.523ZM629.095 104.593L632.872 94.4629L627.908 95.1322L626.308 104.969L629.095 104.593ZM74.0435 221.769C73.7089 219.287 75.6546 217.606 79.3558 217.107L83.2748 216.578L83.3452 217.101C83.6564 219.409 83.2758 221.189 82.2033 222.442C81.1309 223.695 79.7644 224.411 78.1098 224.635C75.802 224.946 74.3254 223.859 74.0435 221.769ZM86.4157 212.253C85.6642 206.68 81.9473 204.432 76.8527 205.119C72.716 205.677 69.9356 208.402 69.8686 212.179L73.1907 212.485C73.382 210.287 74.9911 208.74 77.2989 208.429C80.4776 208 82.2942 209.307 82.6994 212.311L82.8285 213.269L79.258 213.751C73.1183 214.578 69.6705 217.615 70.2988 222.274C70.9035 226.759 74.0275 228.555 77.9899 228.02C80.9944 227.615 83.1061 226.178 84.406 223.653L85.4325 226.662L88.3064 226.274L86.4157 212.253ZM109.992 207.611C109.405 203.257 106.631 201.104 102.625 201.644C99.4468 202.073 97.2079 203.882 95.9467 207.022L95.4006 202.973L91.743 203.466L94.7022 225.412L98.3598 224.919L97.121 215.731C96.7276 212.814 97.0143 210.337 97.9928 208.387C99.0148 206.431 100.372 205.317 102.07 205.088C104.596 204.748 106.058 206.058 106.463 209.063L108.418 223.563L112.076 223.069L109.992 207.611ZM124.416 198.706C118.146 199.551 115.273 204.549 116.189 211.342C117.105 218.135 121.199 222.194 127.469 221.348C130.082 220.996 132.599 219.282 133.459 217.437L133.823 220.137L137.481 219.644L133.324 188.815L129.666 189.308L131.216 200.804C130.73 200.16 129.771 199.624 128.421 199.141C127.07 198.658 125.722 198.53 124.416 198.706ZM127.371 217.992C123.539 218.509 120.574 215.584 119.934 210.837C119.294 206.091 121.379 202.485 125.211 201.968C129.173 201.434 132.008 204.377 132.648 209.123C133.288 213.869 131.334 217.458 127.371 217.992ZM167.315 193.586C166.429 193.262 165.398 193.18 164.222 193.338C161.784 193.667 159.263 195.692 158.33 198.3L157.825 194.556L154.167 195.049L157.126 216.995L160.784 216.502L159.662 208.185C159.21 204.832 159.468 202.137 160.434 200.1C161.401 198.064 162.709 196.912 164.364 196.689C165.278 196.565 166.135 196.672 167.015 196.952L167.315 193.586ZM174.732 214.621L178.389 214.128L175.43 192.182L171.773 192.675L174.732 214.621ZM170.036 186.702C170.242 188.226 171.576 189.243 173.143 189.032C174.711 188.82 175.728 187.486 175.523 185.962C175.311 184.395 173.971 183.334 172.404 183.545C170.836 183.757 169.825 185.134 170.036 186.702ZM190.922 189.738C184.652 190.583 181.779 195.582 182.695 202.375C183.611 209.167 187.705 213.226 193.975 212.381C196.588 212.028 199.106 210.315 199.965 208.47L200.329 211.169L203.987 210.676L199.83 179.847L196.172 180.34L197.722 191.836C197.237 191.192 196.278 190.656 194.927 190.173C193.576 189.691 192.228 189.562 190.922 189.738ZM193.877 209.024C190.046 209.541 187.08 206.616 186.44 201.87C185.8 197.123 187.885 193.517 191.717 193C195.679 192.466 198.514 195.409 199.154 200.155C199.794 204.901 197.84 208.49 193.877 209.024ZM210.961 209.736L214.619 209.242L211.66 187.296L208.002 187.79L210.961 209.736ZM206.266 181.817C206.471 183.341 207.806 184.358 209.373 184.147C210.941 183.935 211.958 182.601 211.752 181.077C211.541 179.509 210.201 178.449 208.633 178.66C207.066 178.871 206.054 180.249 206.266 181.817ZM235.44 199.297C234.628 202.155 232.807 203.775 229.977 204.157C225.927 204.703 223.304 201.687 222.669 196.984C222.035 192.282 223.766 188.679 227.816 188.133C230.646 187.751 232.831 188.831 234.371 191.372L237.373 189.637C235.042 185.828 231.724 184.236 227.37 184.823C224.191 185.252 221.856 186.675 220.413 189.131C219.009 191.537 218.496 194.311 218.925 197.489C219.353 200.668 220.582 203.207 222.58 205.198C224.615 207.141 227.244 207.895 230.423 207.466C234.777 206.879 237.555 204.465 238.794 200.175L235.44 199.297ZM244.353 198.627C244.94 202.981 247.713 205.135 251.719 204.594C254.898 204.166 257.137 202.357 258.398 199.216L258.944 203.266L262.602 202.772L259.643 180.826L255.985 181.32L257.224 190.507C257.617 193.425 257.331 195.902 256.309 197.857C255.33 199.807 253.973 200.921 252.275 201.15C249.749 201.491 248.287 200.18 247.882 197.176L245.926 182.676L242.269 183.169L244.353 198.627ZM269.598 201.829L273.255 201.336L269.098 170.507L265.441 171L269.598 201.829ZM281.348 197.23C283.607 199.186 286.279 199.934 289.458 199.506C292.637 199.077 295.016 197.648 296.632 195.169C298.292 192.684 298.886 189.855 298.469 186.764C298.052 183.672 296.736 181.145 294.477 179.188C292.262 177.226 289.584 176.434 286.405 176.863C283.226 177.292 280.853 178.764 279.193 181.249C277.577 183.728 276.977 186.514 277.394 189.605C277.811 192.697 279.133 195.267 281.348 197.23ZM282.167 183.242C283.169 181.467 284.718 180.46 286.851 180.172C288.985 179.885 290.745 180.445 292.138 181.898C293.569 183.301 294.431 185.091 294.724 187.268C295.018 189.446 294.661 191.4 293.659 193.176C292.695 194.902 291.146 195.909 289.012 196.196C286.878 196.484 285.118 195.923 283.687 194.52C282.294 193.068 281.432 191.278 281.139 189.1C280.845 186.923 281.202 184.969 282.167 183.242ZM304.863 190.468C305.451 194.822 308.224 196.975 312.23 196.435C315.408 196.007 317.647 194.197 318.909 191.057L319.455 195.106L323.112 194.613L320.153 172.667L316.495 173.16L317.734 182.348C318.128 185.265 317.841 187.743 316.819 189.698C315.84 191.648 314.483 192.762 312.785 192.991C310.26 193.331 308.797 192.021 308.392 189.017L306.437 174.517L302.779 175.01L304.863 190.468ZM333.842 170.467C329.967 170.989 327.744 173.905 328.214 177.388C328.777 181.568 332.623 182.469 335.644 183.17C337.697 183.602 339.449 184.43 339.643 185.867C339.954 188.175 338.931 189.465 336.58 189.782C334.359 190.082 332.467 188.874 330.904 186.159L328.041 188.274C329.756 191.456 332.889 193.649 337.026 193.092C341.511 192.487 343.945 189.499 343.358 185.144C342.533 178.694 332.362 180.863 331.877 176.938C331.642 175.197 332.634 173.999 334.158 173.794C335.508 173.612 336.914 174.176 338.457 175.431L340.652 172.962C338.785 170.953 336.498 170.108 333.842 170.467ZM349.541 191.049L353.199 190.556L349.042 159.727L345.384 160.221L349.541 191.049ZM366.684 182.531L358.974 167.433L354.968 167.973L365.511 187.965L363.348 198.232L367.093 197.727L373.822 165.43L369.99 165.947L366.684 182.531ZM409.558 170.853C409.164 167.936 407.965 165.615 405.909 163.853C403.892 162.041 401.318 161.368 398.227 161.785C395.048 162.214 392.756 163.631 391.314 166.087C389.909 168.493 389.397 171.266 389.825 174.445C390.254 177.624 391.483 180.162 393.48 182.154C395.516 184.097 398.101 184.856 401.28 184.428C405.808 183.817 408.311 181.662 409.776 177.075L406.366 176.116C405.485 179.117 403.925 180.702 400.833 181.118C397.045 181.629 394.475 179.005 393.676 174.724L409.787 172.551L409.558 170.853ZM398.673 165.094C402.026 164.642 404.366 166.543 405.509 169.759L393.447 171.385C393.692 167.938 395.407 165.535 398.673 165.094ZM418.906 175.268C418.571 172.786 420.517 171.105 424.218 170.605L428.137 170.077L428.208 170.6C428.519 172.907 428.138 174.688 427.066 175.941C425.993 177.194 424.627 177.91 422.972 178.133C420.665 178.444 419.188 177.358 418.906 175.268ZM431.278 165.752C430.527 160.178 426.81 157.931 421.715 158.618C417.579 159.176 414.798 161.9 414.731 165.678L418.053 165.984C418.245 163.785 419.854 162.238 422.162 161.927C425.34 161.498 427.157 162.805 427.562 165.81L427.691 166.768L424.121 167.249C417.981 168.077 414.533 171.113 415.161 175.773C415.766 180.258 418.89 182.053 422.853 181.519C425.857 181.114 427.969 179.676 429.269 177.151L430.295 180.161L433.169 179.773L431.278 165.752ZM443.084 155.736C439.209 156.259 436.986 159.174 437.456 162.658C438.019 166.838 441.865 167.738 444.886 168.439C446.939 168.872 448.691 169.7 448.885 171.137C449.196 173.444 448.173 174.735 445.822 175.052C443.601 175.352 441.709 174.144 440.146 171.428L437.283 173.543C438.998 176.726 442.131 178.919 446.268 178.361C450.753 177.757 453.187 174.768 452.6 170.414C451.775 163.964 441.604 166.133 441.119 162.208C440.884 160.467 441.876 159.269 443.4 159.063C444.749 158.881 446.156 159.445 447.699 160.7L449.893 158.232C448.026 156.223 445.74 155.378 443.084 155.736ZM464.7 169.314L456.989 154.216L452.983 154.756L463.527 174.749L461.364 185.016L465.109 184.511L471.838 152.214L468.006 152.731L464.7 169.314ZM508.49 164.43L501.906 148.159L498.249 148.653L496.21 166.085L489.453 149.839L485.621 150.355L495.242 171.403L498.726 170.933L500.788 153.675L507.348 169.771L510.831 169.301L514.534 146.457L510.702 146.973L508.49 164.43ZM523.3 161.191C522.966 158.709 524.911 157.028 528.613 156.529L532.532 156L532.602 156.523C532.913 158.831 532.533 160.611 531.46 161.864C530.388 163.117 529.021 163.833 527.367 164.057C525.059 164.368 523.582 163.281 523.3 161.191ZM535.673 151.675C534.921 146.102 531.204 143.854 526.11 144.541C521.973 145.099 519.192 147.824 519.125 151.601L522.448 151.907C522.639 149.709 524.248 148.162 526.556 147.85C529.734 147.422 531.551 148.729 531.956 151.733L532.085 152.691L528.515 153.173C522.375 154 518.927 157.037 519.556 161.696C520.16 166.181 523.284 167.977 527.247 167.442C530.251 167.037 532.363 165.6 533.663 163.075L534.689 166.084L537.563 165.696L535.673 151.675ZM550.257 157.778L542.546 142.68L538.54 143.22L549.083 163.212L546.921 173.479L550.665 172.974L557.394 140.677L553.563 141.194L550.257 157.778ZM574.89 141.688L576.475 153.445C577.115 158.191 579.932 160.338 583.807 159.816C585.244 159.622 586.384 159.202 587.266 158.507L585.966 155.446C585.334 156.018 584.536 156.348 583.578 156.477C581.706 156.729 580.485 155.564 580.174 153.256L578.547 141.195L584.295 140.42L583.849 137.11L578.101 137.885L576.903 129.002L573.557 131.803L574.443 138.378L570.655 138.889L571.101 142.199L574.89 141.688ZM593.425 155.149C595.684 157.106 598.357 157.854 601.535 157.425C604.714 156.997 607.093 155.567 608.709 153.088C610.369 150.603 610.963 147.774 610.546 144.683C610.129 141.591 608.813 139.064 606.554 137.108C604.339 135.145 601.661 134.354 598.482 134.782C595.303 135.211 592.931 136.684 591.271 139.169C589.654 141.648 589.054 144.433 589.471 147.525C589.888 150.616 591.21 153.187 593.425 155.149ZM594.244 141.162C595.246 139.386 596.795 138.379 598.928 138.092C601.062 137.804 602.822 138.365 604.215 139.817C605.646 141.22 606.508 143.011 606.802 145.188C607.095 147.365 606.738 149.32 605.736 151.095C604.772 152.821 603.223 153.828 601.089 154.116C598.955 154.403 597.195 153.843 595.765 152.44C594.372 150.987 593.51 149.197 593.216 147.02C592.922 144.843 593.28 142.888 594.244 141.162ZM93.1841 271.984C92.3725 274.842 90.5515 276.462 87.7211 276.844C83.6716 277.39 81.0482 274.374 80.4141 269.671C79.7799 264.969 81.5109 261.366 85.5605 260.82C88.3908 260.438 90.5758 261.518 92.1155 264.059L95.1181 262.324C92.7867 258.515 89.4686 256.923 85.1142 257.511C81.9355 257.939 79.6003 259.362 78.158 261.818C76.7534 264.224 76.2407 266.998 76.6693 270.176C77.0979 273.355 78.3269 275.894 80.3246 277.886C82.3599 279.828 84.9887 280.582 88.1674 280.153C92.5217 279.566 95.2997 277.152 96.539 272.862L93.1841 271.984ZM113.125 254.399C112.239 254.075 111.208 253.992 110.032 254.151C107.594 254.479 105.074 256.504 104.14 259.113L103.635 255.368L99.9769 255.861L102.936 277.807L106.594 277.314L105.472 268.997C105.02 265.644 105.278 262.949 106.244 260.913C107.211 258.876 108.519 257.724 110.174 257.501C111.088 257.378 111.945 257.484 112.825 257.764L113.125 254.399ZM136.671 261.155C136.278 258.237 135.078 255.916 133.023 254.154C131.005 252.342 128.432 251.67 125.34 252.086C122.161 252.515 119.87 253.932 118.427 256.388C117.023 258.794 116.51 261.568 116.939 264.746C117.367 267.925 118.596 270.464 120.594 272.456C122.629 274.398 125.215 275.158 128.393 274.729C132.922 274.119 135.424 271.963 136.89 267.377L133.479 266.418C132.598 269.418 131.039 271.003 127.947 271.42C124.159 271.931 121.588 269.307 120.789 265.025L136.9 262.853L136.671 261.155ZM125.786 255.396C129.139 254.944 131.479 256.845 132.622 260.06L120.561 261.687C120.805 258.24 122.521 255.836 125.786 255.396ZM146.02 265.569C145.685 263.087 147.631 261.406 151.332 260.907L155.251 260.378L155.321 260.901C155.633 263.209 155.252 264.989 154.179 266.242C153.107 267.495 151.741 268.211 150.086 268.435C147.778 268.746 146.302 267.659 146.02 265.569ZM158.392 256.053C157.64 250.48 153.923 248.232 148.829 248.919C144.692 249.477 141.912 252.202 141.845 255.979L145.167 256.285C145.358 254.087 146.967 252.54 149.275 252.229C152.454 251.8 154.27 253.107 154.676 256.111L154.805 257.069L151.234 257.551C145.094 258.378 141.647 261.415 142.275 266.074C142.88 270.559 146.004 272.355 149.966 271.82C152.971 271.415 155.082 269.978 156.382 267.453L157.409 270.462L160.282 270.074L158.392 256.053ZM165.929 250.338L167.514 262.094C168.154 266.841 170.971 268.988 174.847 268.465C176.283 268.272 177.424 267.852 178.306 267.157L177.006 264.095C176.374 264.668 175.576 264.998 174.618 265.127C172.746 265.379 171.524 264.214 171.213 261.906L169.587 249.844L175.335 249.069L174.888 245.76L169.141 246.535L167.943 237.652L164.596 240.453L165.483 247.028L161.695 247.539L162.141 250.848L165.929 250.338ZM200.243 252.583C199.85 249.665 198.65 247.344 196.595 245.582C194.577 243.77 192.004 243.097 188.912 243.514C185.733 243.943 183.442 245.36 182 247.816C180.595 250.222 180.082 252.996 180.511 256.174C180.939 259.353 182.168 261.892 184.166 263.884C186.201 265.826 188.787 266.586 191.965 266.157C196.494 265.546 198.996 263.391 200.462 258.804L197.052 257.846C196.17 260.846 194.611 262.431 191.519 262.848C187.731 263.359 185.16 260.735 184.361 256.453L200.472 254.281L200.243 252.583ZM189.358 246.824C192.711 246.372 195.051 248.273 196.194 251.488L184.133 253.115C184.377 249.668 186.093 247.264 189.358 246.824ZM222.926 238.928C219.051 239.45 216.828 242.366 217.298 245.849C217.862 250.03 221.707 250.93 224.728 251.631C226.781 252.063 228.533 252.891 228.727 254.328C229.038 256.636 228.015 257.927 225.664 258.244C223.443 258.543 221.551 257.335 219.988 254.62L217.125 256.735C218.84 259.917 221.973 262.111 226.11 261.553C230.595 260.948 233.03 257.96 232.442 253.605C231.617 247.155 221.446 249.325 220.961 245.4C220.727 243.658 221.718 242.46 223.242 242.255C224.592 242.073 225.998 242.637 227.541 243.892L229.736 241.423C227.869 239.414 225.582 238.57 222.926 238.928ZM238.625 259.511L242.283 259.017L238.126 228.189L234.468 228.682L238.625 259.511ZM248.834 258.134L252.492 257.641L249.532 235.695L245.875 236.188L248.834 258.134ZM244.138 230.215C244.344 231.739 245.678 232.757 247.246 232.545C248.813 232.334 249.83 231 249.625 229.476C249.414 227.908 248.073 226.847 246.506 227.059C244.938 227.27 243.927 228.648 244.138 230.215ZM265.024 233.251C258.754 234.097 255.881 239.095 256.797 245.888C257.713 252.681 261.807 256.74 268.078 255.894C270.69 255.542 273.208 253.828 274.068 251.983L274.432 254.683L278.089 254.189L273.932 223.36L270.275 223.854L271.825 235.349C271.339 234.705 270.38 234.17 269.029 233.687C267.678 233.204 266.331 233.075 265.024 233.251ZM267.98 252.538C264.148 253.054 261.182 250.129 260.542 245.383C259.902 240.637 261.987 237.03 265.819 236.514C269.782 235.979 272.617 238.922 273.257 243.668C273.897 248.415 271.942 252.003 267.98 252.538ZM302.129 238.844C301.735 235.927 300.536 233.606 298.48 231.844C296.463 230.032 293.889 229.359 290.798 229.776C287.619 230.205 285.327 231.622 283.885 234.078C282.48 236.484 281.968 239.257 282.396 242.436C282.825 245.615 284.054 248.154 286.051 250.145C288.087 252.088 290.672 252.847 293.851 252.419C298.379 251.808 300.882 249.653 302.347 245.066L298.937 244.107C298.056 247.108 296.496 248.693 293.405 249.109C289.616 249.62 287.046 246.996 286.247 242.715L302.358 240.543L302.129 238.844ZM291.244 233.085C294.597 232.633 296.937 234.534 298.08 237.75L286.018 239.376C286.263 235.929 287.978 233.526 291.244 233.085ZM312.905 226.795C309.03 227.318 306.807 230.233 307.277 233.717C307.841 237.897 311.686 238.797 314.707 239.498C316.76 239.931 318.512 240.758 318.706 242.195C319.017 244.503 317.994 245.794 315.643 246.111C313.422 246.41 311.53 245.202 309.967 242.487L307.104 244.602C308.819 247.785 311.952 249.978 316.089 249.42C320.574 248.815 323.008 245.827 322.421 241.473C321.596 235.022 311.425 237.192 310.94 233.267C310.706 231.525 311.697 230.327 313.221 230.122C314.571 229.94 315.977 230.504 317.52 231.759L319.715 229.291C317.848 227.281 315.561 226.437 312.905 226.795ZM344.826 229.673C344.21 225.101 341.48 222.942 337.431 223.488C334.078 223.94 331.433 226.026 330.41 228.957L328.66 215.981L325.002 216.474L329.159 247.303L332.817 246.81L331.56 237.492C331.173 234.618 331.515 232.222 332.624 230.254C333.733 228.287 335.177 227.161 336.876 226.932C339.401 226.592 340.863 227.902 341.269 230.907L343.224 245.407L346.881 244.913L344.826 229.673ZM354.898 240.818C357.157 242.774 359.829 243.522 363.008 243.094C366.186 242.665 368.565 241.236 370.182 238.757C371.842 236.272 372.435 233.443 372.019 230.351C371.602 227.26 370.286 224.733 368.027 222.776C365.811 220.814 363.133 220.022 359.954 220.451C356.776 220.88 354.403 222.352 352.743 224.837C351.126 227.316 350.527 230.102 350.943 233.193C351.36 236.285 352.682 238.855 354.898 240.818ZM355.716 226.83C356.718 225.055 358.267 224.048 360.401 223.76C362.534 223.473 364.295 224.033 365.688 225.486C367.118 226.889 367.98 228.679 368.274 230.856C368.567 233.033 368.21 234.988 367.208 236.764C366.244 238.49 364.695 239.497 362.561 239.784C360.428 240.072 358.667 239.511 357.237 238.108C355.844 236.656 354.982 234.865 354.688 232.688C354.395 230.511 354.752 228.556 355.716 226.83ZM396.808 232.994L390.225 216.724L386.568 217.217L384.529 234.65L377.772 218.403L373.94 218.92L383.561 239.967L387.045 239.498L389.107 222.239L395.666 238.335L399.15 237.865L402.853 215.021L399.021 215.538L396.808 232.994ZM413.685 213.206C409.81 213.728 407.587 216.644 408.057 220.127C408.62 224.308 412.466 225.208 415.487 225.909C417.54 226.341 419.292 227.169 419.486 228.606C419.797 230.914 418.774 232.205 416.423 232.522C414.202 232.821 412.31 231.613 410.747 228.898L407.884 231.013C409.599 234.195 412.732 236.389 416.869 235.831C421.354 235.226 423.788 232.238 423.201 227.883C422.376 221.433 412.205 223.603 411.72 219.678C411.485 217.936 412.477 216.738 414.001 216.533C415.35 216.351 416.757 216.915 418.3 218.17L420.494 215.701C418.627 213.692 416.341 212.848 413.685 213.206ZM459.657 224.519L453.074 208.249L449.417 208.742L447.378 226.175L440.621 209.928L436.789 210.445L446.41 231.493L449.894 231.023L451.956 213.765L458.516 229.861L461.999 229.391L465.702 206.547L461.87 207.063L459.657 224.519ZM473.611 227.825L477.269 227.332L474.31 205.386L470.652 205.879L473.611 227.825ZM468.916 199.906C469.121 201.43 470.455 202.447 472.023 202.236C473.591 202.025 474.608 200.69 474.402 199.166C474.191 197.599 472.851 196.538 471.283 196.75C469.716 196.961 468.704 198.339 468.916 199.906ZM483.534 207.511L485.12 219.268C485.76 224.015 488.576 226.162 492.452 225.639C493.889 225.446 495.029 225.026 495.911 224.331L494.611 221.269C493.979 221.842 493.181 222.171 492.223 222.301C490.351 222.553 489.13 221.388 488.819 219.08L487.192 207.018L492.94 206.243L492.494 202.934L486.746 203.709L485.548 194.826L482.202 197.627L483.088 204.202L479.3 204.713L479.746 208.022L483.534 207.511ZM517.003 206.457C516.386 201.885 513.657 199.726 509.607 200.272C506.254 200.724 503.609 202.81 502.586 205.741L500.836 192.765L497.178 193.258L501.335 224.087L504.993 223.594L503.737 214.275C503.349 211.401 503.691 209.005 504.8 207.038C505.909 205.071 507.353 203.945 509.052 203.716C511.577 203.376 513.04 204.686 513.445 207.69L515.4 222.19L519.058 221.697L517.003 206.457ZM538.676 219.052L542.508 218.535L540.611 204.47L551.889 202.95L551.396 199.292L540.118 200.813L538.891 191.712L552.781 189.839L552.288 186.181L534.566 188.571L538.676 219.052ZM561.932 215.916L565.589 215.423L562.63 193.477L558.973 193.97L561.932 215.916ZM557.236 187.997C557.442 189.521 558.776 190.538 560.343 190.327C561.911 190.115 562.928 188.781 562.723 187.257C562.511 185.69 561.171 184.629 559.604 184.84C558.036 185.052 557.025 186.429 557.236 187.997ZM570.934 199.539C571.187 201.412 571.926 202.952 573.191 204.112C571.529 205.267 570.84 206.734 571.081 208.52C571.281 210 571.918 211.111 573.031 211.803C571.84 213.161 571.349 214.779 571.601 216.651C572.212 221.18 576.277 223.381 581.894 222.623C587.294 221.895 590.834 218.891 590.147 213.796C589.625 209.921 586.632 208.107 582.451 208.671L577.27 209.37C575.615 209.593 574.705 209.095 574.541 207.876C574.412 206.918 574.797 206.156 575.69 205.548C576.849 205.924 578.147 206.015 579.584 205.821C581.805 205.522 583.546 204.622 584.807 203.122C586.062 201.578 586.561 199.693 586.262 197.473C586.056 195.949 585.532 194.689 584.639 193.657L587.377 191.603L585.317 188.822L581.697 191.571C580.39 191.082 579.043 190.953 577.606 191.147C575.385 191.446 573.65 192.39 572.395 193.933C571.14 195.477 570.635 197.319 570.934 199.539ZM582.308 211.883C584.79 211.548 586.156 212.472 586.45 214.649C586.773 217.044 585.117 218.908 581.46 219.401C577.802 219.894 575.576 218.51 575.241 216.028C575.053 214.634 575.386 213.481 576.244 212.612C576.903 212.567 577.431 212.54 577.867 212.482L582.308 211.883ZM575.264 195.808C576.626 194.072 579.325 193.708 581.098 195.021C581.982 195.655 582.515 196.648 582.691 197.954C582.867 199.26 582.616 200.358 581.932 201.204C580.558 202.852 577.859 203.216 576.097 201.991C575.214 201.356 574.681 200.364 574.505 199.058C574.329 197.752 574.58 196.654 575.264 195.808ZM622.711 191.981C622.13 187.67 619.569 185.444 615.606 185.979C612.471 186.401 610.282 188.248 609.082 191.514C607.991 188.69 605.591 187.329 602.587 187.734C599.495 188.151 597.43 189.937 596.343 193.054L595.797 189.004L592.14 189.498L595.099 211.444L598.756 210.95L597.541 201.937C596.713 195.797 598.722 191.625 602.031 191.179C604.383 190.862 605.752 192.14 606.14 195.014L608.118 209.688L611.776 209.195L610.561 200.181C609.733 194.042 611.742 189.869 615.051 189.423C617.402 189.106 618.772 190.384 619.159 193.258L621.138 207.933L624.796 207.439L622.711 191.981ZM633.717 199.808C633.383 197.326 635.329 195.645 639.03 195.145L642.949 194.617L643.019 195.14C643.33 197.447 642.95 199.228 641.877 200.481C640.805 201.734 639.438 202.45 637.784 202.673C635.476 202.984 633.999 201.898 633.717 199.808ZM646.09 190.292C645.338 184.718 641.621 182.471 636.527 183.158C632.39 183.716 629.61 186.44 629.543 190.218L632.865 190.524C633.056 188.325 634.665 186.778 636.973 186.467C640.151 186.038 641.968 187.345 642.373 190.35L642.502 191.308L638.932 191.789C632.792 192.617 629.344 195.653 629.973 200.313C630.577 204.798 633.701 206.593 637.664 206.059C640.668 205.654 642.78 204.216 644.08 201.691L645.106 204.701L647.98 204.313L646.09 190.292ZM653.858 200.905C654.069 202.472 655.403 203.49 656.971 203.278C658.495 203.073 659.555 201.733 659.344 200.165C659.139 198.641 657.755 197.586 656.231 197.792C654.663 198.003 653.652 199.381 653.858 200.905Z" fill="black"/>
</g>
</g>
<defs>
<filter id="filter0_d_4_9" x="0" y="0" width="732" height="351.376" filterUnits="userSpaceOnUse" color-interpolation-filters="sRGB">
<feFlood flood-opacity="0" result="BackgroundImageFix"/>
<feColorMatrix in="SourceAlpha" type="matrix" values="0 0 0 0 0 0 0 0 0 0 0 0 0 0 0 0 0 0 127 0" result="hardAlpha"/>
<feOffset dy="2"/>
<feGaussianBlur stdDeviation="1"/>
<feComposite in2="hardAlpha" operator="out"/>
<feColorMatrix type="matrix" values="0 0 0 0 0 0 0 0 0 0 0 0 0 0 0 0 0 0 0.25 0"/>
<feBlend mode="normal" in2="BackgroundImageFix" result="effect1_dropShadow_4_9"/>
<feBlend mode="normal" in="SourceGraphic" in2="effect1_dropShadow_4_9" result="shape"/>
</filter>
<clipPath id="clip0_4_9">
<rect x="2.00096" y="93.5486" width="700.051" height="256.123" rx="12" transform="rotate(-7.67947 2.00096 93.5486)" fill="white"/>
</clipPath>
</defs>
</svg>
