<svg width="1920" height="1080" viewBox="0 0 1920 1080" fill="none" xmlns="http://www.w3.org/2000/svg">
<rect width="1920" height="1080" fill="#DDDDDD"/>
<g filter="url(#filter0_d_711_106)">
<g clip-path="url(#clip0_711_106)">
<rect x="478.12" y="394.04" width="982" height="223" rx="18" transform="rotate(4.05725 478.12 394.04)" fill="white"/>
<path d="M545.308 534.145L548.592 487.846L565.083 489.016C573.779 489.632 579.513 496.069 578.89 504.861L578.885 504.925C578.262 513.716 571.667 519.407 562.972 518.791L552.255 518.03L551.083 534.554L545.308 534.145ZM563.243 494.045L554.003 493.389L552.619 512.897L561.86 513.552C568.469 514.021 572.545 510.666 572.977 504.57L572.981 504.506C573.414 498.41 569.853 494.513 563.243 494.045ZM582.43 536.778L584.797 503.409L590.38 503.805L589.979 509.452L590.108 509.461C591.504 505.691 594.564 503.457 598.318 503.723C599.281 503.792 600.104 504.011 600.548 504.107L600.164 509.53C599.726 509.337 598.55 509.093 597.202 508.997C592.871 508.69 589.834 511.506 589.474 516.575L588.013 537.174L582.43 536.778ZM614.79 539.718C605.197 539.037 599.897 531.922 600.642 521.43L600.644 521.398C601.377 511.067 607.783 504.395 616.895 505.041C626.007 505.687 631.078 512.851 630.368 522.862L630.222 524.915L606.191 523.21C605.832 530.086 609.333 534.365 615.269 534.786C619.504 535.086 622.638 533.18 623.804 530.393L623.92 530.111L629.407 530.5L629.32 530.817C627.838 536.258 622.074 540.235 614.79 539.718ZM616.513 509.98C611.668 509.636 607.648 512.673 606.596 518.854L624.853 520.149C624.767 513.629 621.39 510.326 616.513 509.98ZM646.587 541.973C638.726 541.416 634.262 537.068 634.011 531.053L634 530.762L639.582 531.158L639.624 531.483C640.061 534.868 642.393 537 646.949 537.323C651.473 537.644 654.302 535.942 654.516 532.926L654.518 532.894C654.689 530.488 653.533 529.052 649.813 527.852L644.61 526.194C638.428 524.24 635.588 521.104 635.929 516.291L635.931 516.259C636.339 510.516 641.665 506.798 648.884 507.31C656.199 507.829 660.549 512.426 660.57 518.039L660.573 518.458L655.247 518.08L655.23 517.853C655.011 514.581 652.693 512.256 648.554 511.962C644.511 511.676 641.87 513.455 641.66 516.407L641.658 516.439C641.497 518.717 642.893 520.396 646.519 521.557L651.722 523.215C658.344 525.33 660.593 528.166 660.257 532.914L660.254 532.946C659.84 538.786 654.03 542.501 646.587 541.973ZM677.196 544.144C669.335 543.587 664.871 539.239 664.62 533.224L664.609 532.933L670.191 533.329L670.233 533.654C670.67 537.039 673.002 539.171 677.558 539.494C682.082 539.815 684.911 538.113 685.125 535.097L685.127 535.065C685.298 532.659 684.142 531.223 680.422 530.024L675.219 528.365C669.037 526.411 666.197 523.275 666.538 518.462L666.54 518.43C666.948 512.687 672.274 508.969 679.493 509.481C686.808 510 691.158 514.597 691.179 520.21L691.182 520.629L685.856 520.251L685.839 520.025C685.62 516.752 683.302 514.427 679.163 514.134C675.12 513.847 672.479 515.627 672.269 518.578L672.267 518.61C672.106 520.888 673.502 522.568 677.128 523.728L682.331 525.387C688.953 527.501 691.202 530.337 690.866 535.085L690.863 535.117C690.449 540.957 684.639 544.672 677.196 544.144ZM710.353 545.851L713.637 499.553L741.743 501.546L741.374 506.744L719.043 505.16L717.915 521.074L738.417 522.529L738.053 527.662L717.55 526.208L716.128 546.261L710.353 545.851ZM768.477 550.619C762.349 550.184 759.529 547.211 759.982 540.826L761.418 520.581L756.541 520.235L756.868 515.615L761.745 515.96L762.385 506.945L768.16 507.354L767.521 516.37L773.873 516.821L773.546 521.441L767.193 520.99L765.759 541.204C765.507 544.765 767.008 545.871 769.992 546.083C770.666 546.131 771.314 546.08 771.798 546.082L771.477 550.606C770.764 550.652 769.568 550.696 768.477 550.619ZM790.327 552.169C781.054 551.511 775.338 544.366 776.091 533.746L776.096 533.682C776.849 523.062 783.544 516.862 792.753 517.515C801.961 518.168 807.749 525.221 806.993 535.874L806.989 535.938C806.233 546.59 799.535 552.822 790.327 552.169ZM790.71 547.23C796.581 547.647 800.722 543.361 801.278 535.533L801.282 535.468C801.838 527.64 798.306 522.875 792.402 522.456C786.595 522.044 782.36 526.29 781.807 534.087L781.802 534.151C781.245 542.012 784.806 546.811 790.71 547.23ZM835.727 555.389C829.599 554.955 826.779 551.981 827.232 545.596L828.668 525.351L823.791 525.005L824.118 520.385L828.995 520.731L829.635 511.715L835.41 512.124L834.771 521.14L841.123 521.591L840.796 526.211L834.443 525.76L833.009 545.974C832.757 549.535 834.258 550.642 837.242 550.853C837.916 550.901 838.564 550.85 839.048 550.852L838.727 555.376C838.014 555.422 836.818 555.467 835.727 555.389ZM857.577 556.939C848.305 556.281 842.588 549.136 843.341 538.516L843.346 538.452C844.099 527.832 850.794 521.632 860.003 522.285C869.211 522.938 874.999 529.991 874.243 540.644L874.239 540.708C873.483 551.36 866.785 557.592 857.577 556.939ZM857.96 552C863.831 552.417 867.972 548.131 868.528 540.303L868.532 540.239C869.088 532.41 865.556 527.645 859.652 527.226C853.845 526.814 849.61 531.061 849.057 538.857L849.052 538.921C848.495 546.782 852.056 551.581 857.96 552ZM891.978 570.665C883.732 570.08 878.809 565.829 878.069 560.811L878.025 560.518L883.64 560.916L883.748 561.214C884.636 563.695 887.708 565.397 892.264 565.72C898.136 566.136 901.702 563.132 902.069 557.967L902.371 553.699L902.243 553.69C899.992 557.239 895.973 559.34 891.193 559.001C882.786 558.405 877.523 551.227 878.263 540.8L878.265 540.768C879 530.404 885.286 524.078 893.756 524.679C898.473 525.014 902.012 527.845 903.802 531.712L903.93 531.721L904.331 526.074L909.914 526.47L907.613 558.908C907.064 566.64 901.026 571.307 891.978 570.665ZM892.762 554.146C898.441 554.549 902.635 549.977 903.161 542.566L903.163 542.534C903.684 535.186 900.144 530.098 894.497 529.698C888.561 529.277 884.502 533.761 883.977 541.173L883.974 541.205C883.437 548.777 886.827 553.725 892.762 554.146ZM928.041 573.223C919.795 572.638 914.873 568.387 914.133 563.369L914.089 563.076L919.704 563.474L919.812 563.772C920.7 566.253 923.771 567.955 928.327 568.278C934.199 568.694 937.766 565.69 938.132 560.525L938.435 556.257L938.306 556.248C936.055 559.797 932.037 561.898 927.256 561.559C918.85 560.963 913.587 553.785 914.327 543.358L914.329 543.326C915.064 532.962 921.349 526.636 929.82 527.237C934.536 527.572 938.076 530.403 939.865 534.27L939.994 534.279L940.394 528.632L945.977 529.028L943.676 561.466C943.128 569.199 937.089 573.865 928.041 573.223ZM928.826 556.704C934.505 557.107 938.699 552.535 939.224 545.124L939.227 545.092C939.748 537.744 936.207 532.656 930.56 532.256C924.624 531.835 920.566 536.319 920.04 543.731L920.038 543.763C919.501 551.335 922.89 556.283 928.826 556.704ZM951.118 562.929L954.402 516.63L959.985 517.026L956.701 563.325L951.118 562.929ZM977.928 565.476C968.334 564.795 963.035 557.68 963.779 547.188L963.781 547.156C964.514 536.825 970.92 530.153 980.033 530.799C989.145 531.445 994.215 538.609 993.505 548.619L993.359 550.673L969.328 548.968C968.969 555.843 972.471 560.123 978.406 560.544C982.642 560.844 985.776 558.938 986.941 556.151L987.058 555.869L992.544 556.258L992.457 556.574C990.975 562.016 985.211 565.992 977.928 565.476ZM979.65 535.738C974.805 535.394 970.785 538.43 969.734 544.611L987.99 545.906C987.904 539.387 984.527 536.084 979.65 535.738ZM1022.2 568.616C1016.08 568.182 1013.26 565.208 1013.71 558.823L1015.15 538.578L1010.27 538.232L1010.6 533.612L1015.47 533.958L1016.11 524.942L1021.89 525.351L1021.25 534.367L1027.6 534.818L1027.27 539.438L1020.92 538.987L1019.49 559.201C1019.23 562.762 1020.74 563.869 1023.72 564.08C1024.39 564.128 1025.04 564.077 1025.53 564.079L1025.2 568.603C1024.49 568.649 1023.3 568.694 1022.2 568.616ZM1031.52 568.632L1034.81 522.334L1040.39 522.73L1039.09 540.986L1039.22 540.995C1041.29 537.369 1045.07 535.412 1050.04 535.765C1057.13 536.268 1061.59 542.098 1061.01 550.183L1059.57 570.621L1053.98 570.225L1055.36 550.75C1055.79 544.718 1052.96 540.938 1047.77 540.569C1042.6 540.203 1038.89 543.874 1038.49 549.553L1037.11 569.028L1031.52 568.632ZM1080.34 572.74C1070.75 572.06 1065.45 564.944 1066.19 554.452L1066.2 554.42C1066.93 544.089 1073.34 537.417 1082.45 538.063C1091.56 538.71 1096.63 545.873 1095.92 555.884L1095.77 557.937L1071.74 556.233C1071.38 563.108 1074.89 567.387 1080.82 567.808C1085.06 568.108 1088.19 566.202 1089.36 563.415L1089.47 563.133L1094.96 563.522L1094.87 563.839C1093.39 569.28 1087.63 573.257 1080.34 572.74ZM1082.07 543.002C1077.22 542.658 1073.2 545.695 1072.15 551.876L1090.41 553.171C1090.32 546.651 1086.94 543.348 1082.07 543.002ZM1115.62 574.597L1117.66 545.849L1113 545.519L1113.33 540.899L1117.98 541.229L1118.28 537.122C1118.73 530.705 1121.93 527.869 1128.09 528.306C1129.34 528.394 1130.65 528.584 1131.48 528.771L1131.16 533.295C1130.49 533.151 1129.62 533.058 1128.76 532.996C1125.68 532.778 1124.03 534.241 1123.79 537.545L1123.5 541.62L1130.37 542.107L1130.04 546.728L1123.24 546.245L1121.2 574.993L1115.62 574.597ZM1145.12 577.335C1137.81 576.816 1133.91 571.767 1134.45 564.163L1135.98 542.506L1141.57 542.902L1140.1 563.564C1139.72 568.987 1142.04 572.15 1147.17 572.514C1152.44 572.888 1156.13 569.377 1156.54 563.698L1157.93 544.062L1163.51 544.458L1161.15 577.827L1155.56 577.431L1155.9 572.682L1155.77 572.673C1153.75 575.658 1150.19 577.694 1145.12 577.335ZM1168.72 578.364L1172 532.065L1177.58 532.461L1174.3 578.76L1168.72 578.364ZM1182.13 579.315L1185.41 533.016L1191 533.412L1187.71 579.711L1182.13 579.315ZM1207.05 581.727C1199.19 581.17 1194.72 576.822 1194.47 570.807L1194.46 570.516L1200.04 570.912L1200.08 571.237C1200.52 574.622 1202.85 576.754 1207.41 577.077C1211.93 577.398 1214.76 575.696 1214.98 572.68L1214.98 572.648C1215.15 570.242 1213.99 568.805 1210.27 567.606L1205.07 565.948C1198.89 563.993 1196.05 560.858 1196.39 556.045L1196.39 556.013C1196.8 550.27 1202.12 546.552 1209.34 547.064C1216.66 547.583 1221.01 552.18 1221.03 557.793L1221.03 558.212L1215.71 557.834L1215.69 557.607C1215.47 554.335 1213.15 552.01 1209.01 551.716C1204.97 551.43 1202.33 553.209 1202.12 556.161L1202.12 556.193C1201.96 558.471 1203.35 560.15 1206.98 561.31L1212.18 562.969C1218.8 565.084 1221.05 567.92 1220.72 572.668L1220.71 572.7C1220.3 578.54 1214.49 582.255 1207.05 581.727ZM1239.64 584.039C1230.18 583.368 1224.66 576.205 1225.41 565.585L1225.41 565.552C1226.16 555.029 1232.77 548.725 1242.04 549.383C1250.35 549.973 1254.87 555.839 1255.17 561.601L1255.18 561.86L1249.73 561.473L1249.68 561.211C1249.08 557.815 1246.6 554.672 1241.69 554.324C1235.88 553.912 1231.66 558.45 1231.12 566.022L1231.12 566.054C1230.57 573.818 1234.22 578.689 1239.99 579.098C1244.55 579.422 1247.65 577.062 1248.85 573.406L1248.93 573.154L1254.42 573.543L1254.37 573.765C1253.02 580.054 1247.18 584.574 1239.64 584.039ZM1258.78 584.752L1261.15 551.384L1266.73 551.78L1266.33 557.426L1266.46 557.436C1267.85 553.665 1270.91 551.431 1274.67 551.698C1275.63 551.766 1276.45 551.986 1276.9 552.082L1276.51 557.504C1276.08 557.312 1274.9 557.067 1273.55 556.971C1269.22 556.664 1266.18 559.48 1265.82 564.549L1264.36 585.148L1258.78 584.752ZM1291.14 587.692C1281.55 587.012 1276.25 579.896 1276.99 569.404L1276.99 569.372C1277.73 559.041 1284.13 552.369 1293.25 553.015C1302.36 553.662 1307.43 560.825 1306.72 570.836L1306.57 572.889L1282.54 571.185C1282.18 578.06 1285.68 582.339 1291.62 582.76C1295.85 583.061 1298.99 581.155 1300.15 578.367L1300.27 578.085L1305.76 578.475L1305.67 578.791C1304.19 584.232 1298.42 588.209 1291.14 587.692ZM1292.86 557.954C1288.02 557.611 1284 560.647 1282.95 566.828L1301.2 568.123C1301.12 561.603 1297.74 558.3 1292.86 557.954ZM1324.83 590.082C1315.24 589.401 1309.94 582.286 1310.68 571.794L1310.68 571.762C1311.42 561.431 1317.82 554.759 1326.93 555.405C1336.05 556.051 1341.12 563.215 1340.41 573.225L1340.26 575.279L1316.23 573.574C1315.87 580.45 1319.37 584.729 1325.31 585.15C1329.54 585.45 1332.68 583.544 1333.84 580.757L1333.96 580.475L1339.45 580.864L1339.36 581.18C1337.88 586.622 1332.11 590.598 1324.83 590.082ZM1326.55 560.344C1321.71 560 1317.69 563.036 1316.64 569.218L1334.89 570.513C1334.81 563.993 1331.43 560.69 1326.55 560.344ZM1344.83 590.856L1347.2 557.487L1352.78 557.883L1352.45 562.632L1352.57 562.641C1354.59 559.656 1358.15 557.619 1363.22 557.979C1370.54 558.498 1374.44 563.547 1373.9 571.151L1372.36 592.808L1366.78 592.412L1368.24 571.75C1368.63 566.327 1366.31 563.164 1361.17 562.799C1355.91 562.426 1352.21 565.937 1351.81 571.616L1350.42 591.252L1344.83 590.856Z" fill="black"/>
</g>
</g>
<defs>
<filter id="filter0_d_711_106" x="459.342" y="394.04" width="1001.32" height="297.921" filterUnits="userSpaceOnUse" color-interpolation-filters="sRGB">
<feFlood flood-opacity="0" result="BackgroundImageFix"/>
<feColorMatrix in="SourceAlpha" type="matrix" values="0 0 0 0 0 0 0 0 0 0 0 0 0 0 0 0 0 0 127 0" result="hardAlpha"/>
<feOffset dy="3"/>
<feGaussianBlur stdDeviation="1.5"/>
<feComposite in2="hardAlpha" operator="out"/>
<feColorMatrix type="matrix" values="0 0 0 0 0 0 0 0 0 0 0 0 0 0 0 0 0 0 0.25 0"/>
<feBlend mode="normal" in2="BackgroundImageFix" result="effect1_dropShadow_711_106"/>
<feBlend mode="normal" in="SourceGraphic" in2="effect1_dropShadow_711_106" result="shape"/>
</filter>
<clipPath id="clip0_711_106">
<rect x="478.12" y="394.04" width="982" height="223" rx="18" transform="rotate(4.05725 478.12 394.04)" fill="white"/>
</clipPath>
</defs>
</svg>
