<svg width="1920" height="1080" viewBox="0 0 1920 1080" fill="none" xmlns="http://www.w3.org/2000/svg">
<rect width="1920" height="1080" fill="#DDDDDD"/>
<g filter="url(#filter0_d_711_187)">
<g clip-path="url(#clip0_711_187)">
<rect x="485.775" y="487.204" width="935" height="191" rx="18" transform="rotate(-5.19282 485.775 487.204)" fill="white"/>
<path d="M569.075 599.124L582.076 551.337L587.778 550.818L609.149 595.482L603.095 596.033L597.216 583.228L578.604 584.919L575.13 598.574L569.075 599.124ZM585.492 558.003L579.921 579.858L595.04 578.484L585.62 557.991L585.492 558.003ZM613.602 595.078L610.574 561.763L616.148 561.256L616.579 565.997L616.707 565.986C618.218 562.715 621.407 560.132 626.469 559.672C633.772 559.009 638.432 563.365 639.121 570.957L641.087 592.58L635.513 593.086L633.638 572.457C633.146 567.043 630.345 564.294 625.219 564.76C619.966 565.237 616.879 569.297 617.394 574.967L619.176 594.571L613.602 595.078ZM660.781 591.436C652.26 592.21 646.005 585.932 645.05 575.425L645.048 575.393C644.093 564.886 649.18 557.608 657.541 556.849C662.25 556.421 666.342 558.439 668.773 562.094L668.901 562.082L667.221 543.599L672.795 543.092L676.996 589.316L671.422 589.823L670.91 584.185L670.782 584.197C669.052 588.262 665.554 591.002 660.781 591.436ZM661.422 586.404C667.06 585.891 670.619 580.626 669.941 573.163L669.938 573.131C669.262 565.699 664.781 561.165 659.175 561.674C653.281 562.21 650.06 567.282 650.75 574.874L650.752 574.906C651.448 582.562 655.528 586.94 661.422 586.404ZM708.864 587.066C702.745 587.622 699.484 585.141 698.904 578.766L697.067 558.553L692.198 558.996L691.779 554.383L696.648 553.94L695.83 544.939L701.596 544.415L702.414 553.416L708.757 552.84L709.176 557.453L702.833 558.029L704.668 578.21C704.991 581.766 706.651 582.616 709.63 582.346C710.302 582.285 710.934 582.13 711.412 582.055L711.822 586.571C711.126 586.731 709.953 586.967 708.864 587.066ZM718.063 585.584L713.862 539.36L719.436 538.853L721.093 557.08L721.221 557.069C722.674 553.158 726.093 550.618 731.058 550.167C738.137 549.524 743.472 554.562 744.206 562.634L746.06 583.04L740.487 583.546L738.72 564.102C738.172 558.08 734.774 554.803 729.584 555.275C724.427 555.744 721.355 559.963 721.87 565.633L723.637 585.078L718.063 585.584ZM762.936 582.152C756.305 582.755 751.489 579.155 750.939 573.101L750.933 573.037C750.417 567.367 754.515 563.409 762.13 562.265L771.627 560.853L771.373 558.066C771.004 553.998 768.121 551.773 763.476 552.195C759.183 552.585 756.679 554.88 756.309 557.917L756.271 558.211L750.889 558.7L750.889 558.345C750.872 552.824 755.243 547.969 763.092 547.256C770.972 546.54 776.292 550.352 776.898 557.015L778.991 580.047L773.417 580.554L772.925 575.14L772.797 575.152C771.175 578.981 767.389 581.747 762.936 582.152ZM756.641 572.583C756.932 575.786 759.742 577.565 763.746 577.201C768.999 576.724 772.707 572.737 772.267 567.9L772.02 565.178L763.164 566.531C758.734 567.192 756.352 569.411 756.635 572.519L756.641 572.583ZM796.956 579.06C790.837 579.616 787.576 577.135 786.997 570.761L785.16 550.547L780.291 550.99L779.871 546.377L784.74 545.935L783.922 536.933L789.688 536.409L790.506 545.41L796.849 544.834L797.268 549.447L790.926 550.023L792.76 570.204C793.083 573.76 794.743 574.611 797.722 574.34C798.395 574.279 799.027 574.124 799.504 574.049L799.915 578.565C799.219 578.726 798.045 578.961 796.956 579.06ZM825.92 575.782L813.571 543.314L819.112 542.811L828.238 569.306L828.366 569.294L833.431 541.509L838.813 541.02L848.836 567.434L848.964 567.422L853.164 539.716L858.674 539.215L852.412 573.375L846.742 573.89L836.87 548.787L836.742 548.799L831.59 575.267L825.92 575.782ZM880.147 571.5C870.889 572.341 864.098 566.208 863.135 555.605L863.129 555.541C862.165 544.938 867.777 537.742 876.971 536.907C886.164 536.071 893.011 542.102 893.977 552.737L893.983 552.801C894.95 563.437 889.341 570.664 880.147 571.5ZM879.731 566.564C885.593 566.031 888.991 561.136 888.281 553.32L888.275 553.256C887.565 545.439 883.313 541.304 877.419 541.84C871.621 542.367 868.123 547.239 868.831 555.023L868.837 555.087C869.55 562.935 873.837 567.099 879.731 566.564ZM912.565 568.554C905.261 569.217 900.602 564.861 899.912 557.269L897.947 535.646L903.521 535.14L905.396 555.769C905.888 561.183 908.689 563.932 913.814 563.466C919.068 562.989 922.155 558.929 921.64 553.259L919.858 533.655L925.432 533.148L928.459 566.463L922.886 566.97L922.455 562.229L922.327 562.24C920.815 565.511 917.626 568.094 912.565 568.554ZM936.019 565.776L931.818 519.552L937.392 519.045L941.593 565.27L936.019 565.776ZM961.704 564.088C953.183 564.862 946.928 558.584 945.973 548.077L945.971 548.045C945.016 537.538 950.103 530.26 958.464 529.5C963.173 529.072 967.265 531.091 969.696 534.745L969.824 534.734L968.144 516.25L973.718 515.744L977.919 561.968L972.345 562.475L971.833 556.837L971.705 556.849C969.975 560.914 966.477 563.654 961.704 564.088ZM962.345 559.056C967.983 558.543 971.542 553.278 970.863 545.815L970.861 545.782C970.185 538.351 965.704 533.816 960.098 534.326C954.203 534.862 950.983 539.934 951.672 547.526L951.675 547.558C952.371 555.214 956.451 559.591 962.345 559.056ZM1015.52 559.197C1010.75 559.631 1006.81 557.566 1004.38 553.879L1004.25 553.891L1004.76 559.529L999.189 560.035L994.988 513.811L1000.56 513.304L1002.24 531.788L1002.37 531.776C1004.1 527.743 1007.76 525.02 1012.47 524.592C1020.83 523.832 1027.15 530.073 1028.1 540.58L1028.11 540.612C1029.06 551.119 1024.04 558.423 1015.52 559.197ZM1013.98 554.363C1019.88 553.827 1023.1 548.786 1022.41 541.13L1022.4 541.098C1021.71 533.506 1017.63 529.097 1011.74 529.633C1006.13 530.142 1002.54 535.41 1003.21 542.842L1003.22 542.874C1003.9 550.338 1008.35 554.875 1013.98 554.363ZM1049 556.155C1039.42 557.025 1033.04 550.854 1032.09 540.379L1032.09 540.347C1031.15 530.032 1036.4 522.417 1045.5 521.591C1054.6 520.764 1060.75 527.019 1061.66 537.014L1061.85 539.064L1037.85 541.244C1038.61 548.088 1042.75 551.749 1048.68 551.21C1052.9 550.826 1055.69 548.441 1056.39 545.502L1056.46 545.205L1061.94 544.708L1061.91 545.034C1061.32 550.642 1056.27 555.494 1049 556.155ZM1045.92 526.527C1041.08 526.966 1037.6 530.609 1037.55 536.879L1055.78 535.223C1054.65 528.801 1050.78 526.084 1045.92 526.527ZM1081.92 513.243C1079.99 513.417 1078.28 511.99 1078.11 510.068C1077.93 508.114 1079.36 506.434 1081.28 506.259C1083.24 506.082 1084.91 507.479 1085.09 509.434C1085.26 511.356 1083.87 513.065 1081.92 513.243ZM1082.67 552.449L1079.64 519.134L1085.21 518.627L1088.24 551.942L1082.67 552.449ZM1106.72 550.909C1100.6 551.465 1097.34 548.984 1096.76 542.609L1094.92 522.396L1090.05 522.838L1089.64 518.225L1094.5 517.783L1093.69 508.781L1099.45 508.257L1100.27 517.259L1106.61 516.682L1107.03 521.295L1100.69 521.872L1102.52 542.053C1102.85 545.609 1104.51 546.459 1107.49 546.188C1108.16 546.127 1108.79 545.973 1109.27 545.897L1109.68 550.414C1108.98 550.574 1107.81 550.81 1106.72 550.909ZM1119.1 549.59C1117.05 549.776 1115.3 548.32 1115.12 546.27C1114.93 544.22 1116.39 542.473 1118.44 542.286C1120.49 542.1 1122.23 543.556 1122.42 545.606C1122.61 547.656 1121.15 549.404 1119.1 549.59ZM1152.53 546.099L1148.8 505.064L1134.23 506.389L1133.76 501.199L1168.67 498.026L1169.15 503.216L1154.57 504.54L1158.3 545.575L1152.53 546.099ZM1178.38 543.75L1174.18 497.525L1179.76 497.019L1181.41 515.246L1181.54 515.234C1183 511.323 1186.41 508.784 1191.38 508.333C1198.46 507.689 1203.79 512.728 1204.53 520.8L1206.38 541.205L1200.81 541.712L1199.04 522.268C1198.49 516.245 1195.1 512.969 1189.91 513.441C1184.75 513.909 1181.68 518.129 1182.19 523.799L1183.96 543.243L1178.38 543.75ZM1223.26 540.318C1216.63 540.92 1211.81 537.321 1211.26 531.266L1211.25 531.202C1210.74 525.532 1214.84 521.575 1222.45 520.431L1231.95 519.019L1231.7 516.232C1231.33 512.163 1228.44 509.938 1223.8 510.361C1219.51 510.751 1217 513.045 1216.63 516.083L1216.59 516.377L1211.21 516.866L1211.21 516.511C1211.19 510.989 1215.57 506.135 1223.41 505.422C1231.29 504.705 1236.61 508.518 1237.22 515.181L1239.31 538.213L1233.74 538.719L1233.25 533.306L1233.12 533.317C1231.5 537.147 1227.71 539.913 1223.26 540.318ZM1216.96 530.748C1217.25 533.952 1220.06 535.731 1224.07 535.367C1229.32 534.89 1233.03 530.903 1232.59 526.066L1232.34 523.343L1223.49 524.697C1219.06 525.358 1216.67 527.577 1216.96 530.684L1216.96 530.748ZM1246.39 537.569L1243.36 504.254L1248.94 503.748L1249.37 508.489L1249.5 508.477C1251.01 505.207 1254.2 502.624 1259.26 502.164C1266.56 501.5 1271.22 505.857 1271.91 513.449L1273.88 535.071L1268.3 535.578L1266.43 514.948C1265.94 509.535 1263.13 506.786 1258.01 507.251C1252.76 507.729 1249.67 511.788 1250.18 517.458L1251.97 537.063L1246.39 537.569ZM1281.44 534.384L1277.24 488.16L1282.81 487.653L1285.32 515.266L1285.45 515.255L1298.72 499.224L1305.48 498.609L1292.34 514.306L1308.95 531.884L1302.48 532.472L1288.71 518.059L1285.87 521.321L1287.01 533.878L1281.44 534.384ZM1323.43 531.214C1315.58 531.927 1310.47 528.354 1309.26 522.457L1309.2 522.172L1314.78 521.665L1314.87 521.98C1315.84 525.25 1318.49 526.98 1323.04 526.566C1327.55 526.156 1330.07 524.021 1329.8 521.01L1329.8 520.978C1329.58 518.576 1328.21 517.344 1324.34 516.758L1318.94 515.957C1312.52 515.022 1309.22 512.384 1308.78 507.579L1308.78 507.547C1308.26 501.813 1312.92 497.288 1320.12 496.633C1327.43 495.969 1332.46 499.807 1333.38 505.343L1333.45 505.757L1328.13 506.24L1328.08 506.019C1327.34 502.824 1324.68 500.902 1320.54 501.277C1316.51 501.644 1314.19 503.825 1314.46 506.772L1314.46 506.804C1314.66 509.079 1316.31 510.512 1320.08 511.074L1325.48 511.875C1332.36 512.897 1335.03 515.335 1335.46 520.076L1335.47 520.108C1336 525.938 1330.86 530.539 1323.43 531.214ZM1343.34 513.288L1340.15 482.442L1345.92 481.918L1348.34 512.834L1343.34 513.288ZM1347.26 528.725C1345.21 528.911 1343.47 527.455 1343.28 525.405C1343.09 523.323 1344.55 521.608 1346.6 521.421C1348.68 521.232 1350.39 522.659 1350.58 524.741C1350.77 526.791 1349.34 528.536 1347.26 528.725Z" fill="black"/>
</g>
</g>
<defs>
<filter id="filter0_d_711_187" x="482.775" y="402.58" width="954.449" height="280.841" filterUnits="userSpaceOnUse" color-interpolation-filters="sRGB">
<feFlood flood-opacity="0" result="BackgroundImageFix"/>
<feColorMatrix in="SourceAlpha" type="matrix" values="0 0 0 0 0 0 0 0 0 0 0 0 0 0 0 0 0 0 127 0" result="hardAlpha"/>
<feOffset dy="3"/>
<feGaussianBlur stdDeviation="1.5"/>
<feComposite in2="hardAlpha" operator="out"/>
<feColorMatrix type="matrix" values="0 0 0 0 0 0 0 0 0 0 0 0 0 0 0 0 0 0 0.25 0"/>
<feBlend mode="normal" in2="BackgroundImageFix" result="effect1_dropShadow_711_187"/>
<feBlend mode="normal" in="SourceGraphic" in2="effect1_dropShadow_711_187" result="shape"/>
</filter>
<clipPath id="clip0_711_187">
<rect x="485.775" y="487.204" width="935" height="191" rx="18" transform="rotate(-5.19282 485.775 487.204)" fill="white"/>
</clipPath>
</defs>
</svg>
