<svg width="1920" height="1080" viewBox="0 0 1920 1080" fill="none" xmlns="http://www.w3.org/2000/svg">
<rect width="1920" height="1080" fill="#DDDDDD"/>
<g filter="url(#filter0_d_717_200)">
<g clip-path="url(#clip0_717_200)">
<rect x="359.362" y="538.299" width="1186" height="191" rx="18" transform="rotate(-8.9864 359.362 538.299)" fill="white"/>
<path d="M456.553 643.864C454.52 644.185 452.68 642.848 452.358 640.814C452.037 638.781 453.374 636.941 455.408 636.62C457.441 636.298 459.281 637.636 459.602 639.669C459.924 641.702 458.586 643.542 456.553 643.864ZM468.817 641.924C466.783 642.246 464.944 640.908 464.622 638.875C464.3 636.842 465.638 635.002 467.671 634.681C469.704 634.359 471.544 635.696 471.866 637.73C472.187 639.763 470.85 641.603 468.817 641.924ZM481.08 639.985C479.047 640.306 477.207 638.969 476.885 636.936C476.564 634.902 477.901 633.063 479.935 632.741C481.968 632.42 483.808 633.757 484.129 635.79C484.451 637.824 483.113 639.663 481.08 639.985ZM518.282 634.297C513.548 635.046 509.486 633.246 506.813 629.728L506.686 629.748L507.57 635.34L502.042 636.214L494.792 590.369L500.32 589.495L503.219 607.826L503.346 607.806C504.808 603.667 508.281 600.708 512.951 599.97C521.243 598.658 527.959 604.468 529.607 614.888L529.612 614.92C531.26 625.341 526.733 632.961 518.282 634.297ZM516.428 629.575C522.274 628.651 525.157 623.408 523.956 615.815L523.951 615.783C522.761 608.253 518.395 604.124 512.549 605.048C506.989 605.927 503.755 611.421 504.921 618.792L504.926 618.824C506.096 626.227 510.836 630.46 516.428 629.575ZM549.163 629.414C541.919 630.559 536.982 626.52 535.791 618.991L532.4 597.545L537.928 596.671L541.164 617.131C542.013 622.501 544.99 625.058 550.073 624.255C555.284 623.431 558.095 619.176 557.206 613.552L554.131 594.109L559.659 593.234L564.884 626.276L559.356 627.15L558.613 622.448L558.486 622.468C557.194 625.831 554.183 628.62 549.163 629.414ZM582.935 624.073C576.867 625.032 573.449 622.772 572.449 616.45L569.279 596.403L564.449 597.166L563.726 592.591L568.555 591.828L567.143 582.9L572.862 581.996L574.274 590.923L580.564 589.929L581.288 594.503L574.997 595.498L578.163 615.514C578.72 619.04 580.433 619.779 583.387 619.312C584.055 619.206 584.675 619.011 585.146 618.903L585.855 623.383C585.171 623.589 584.016 623.902 582.935 624.073ZM610.01 630.538C608.93 630.708 607.734 630.767 607.015 630.751L606.302 626.239C606.793 626.259 607.444 626.254 608.111 626.149C611.606 625.596 613.403 624.4 614.145 620.44L614.515 618.46L597.022 587.326L602.931 586.391L616.4 612.463L616.527 612.443L621.326 583.482L627.14 582.563L619.793 619.709C618.442 626.404 615.983 629.593 610.01 630.538ZM649.241 613.587C640.059 615.039 632.877 609.369 631.214 598.853L631.204 598.789C629.541 588.273 634.665 580.722 643.783 579.28C652.901 577.838 660.131 583.403 661.799 593.951L661.81 594.014C663.478 604.562 658.359 612.145 649.241 613.587ZM648.499 608.689C654.313 607.77 657.38 602.661 656.154 594.909L656.144 594.845C654.918 587.093 650.402 583.248 644.557 584.172C638.806 585.082 635.639 590.174 636.859 597.895L636.87 597.958C638.1 605.742 642.653 609.614 648.499 608.689ZM681.393 608.503C674.149 609.648 669.212 605.609 668.021 598.08L664.63 576.634L670.158 575.76L673.393 596.22C674.243 601.59 677.22 604.147 682.303 603.344C687.513 602.52 690.325 598.265 689.436 592.641L686.361 573.198L691.889 572.323L697.114 605.365L691.586 606.239L690.843 601.537L690.715 601.557C689.424 604.92 686.413 607.709 681.393 608.503ZM727.429 601.222C720.852 602.262 715.808 598.989 714.858 592.985L714.848 592.921C713.959 587.298 717.786 583.078 725.309 581.432L734.691 579.395L734.254 576.631C733.616 572.596 730.592 570.567 725.985 571.295C721.728 571.969 719.381 574.424 719.212 577.479L719.194 577.775L713.857 578.619L713.833 578.265C713.451 572.756 717.491 567.623 725.275 566.393C733.09 565.157 738.651 568.608 739.696 575.217L743.309 598.06L737.781 598.934L736.932 593.565L736.805 593.585C735.439 597.513 731.845 600.524 727.429 601.222ZM720.514 592.09C721.016 595.268 723.938 596.857 727.909 596.229C733.119 595.405 736.555 591.182 735.796 586.385L735.369 583.684L726.622 585.621C722.246 586.573 720.016 588.945 720.504 592.027L720.514 592.09ZM750.616 596.904L743.366 551.059L748.894 550.185L756.144 596.03L750.616 596.904ZM763.61 594.849L758.385 561.808L763.913 560.933L764.798 566.525L764.925 566.505C765.434 562.517 767.911 559.65 771.628 559.062C772.581 558.911 773.433 558.94 773.887 558.933L774.737 564.302C774.267 564.214 773.066 564.241 771.732 564.452C767.443 565.13 765.119 568.558 765.913 573.578L769.138 593.975L763.61 594.849ZM795.799 590.41C786.3 591.912 779.531 586.177 777.888 575.788L777.883 575.756C776.265 565.526 781.001 557.58 790.024 556.153C799.046 554.726 805.603 560.561 807.17 570.473L807.492 572.506L783.696 576.27C784.898 583.048 789.275 586.427 795.153 585.497C799.346 584.834 801.969 582.27 802.475 579.292L802.525 578.991L807.958 578.132L807.945 578.459C807.729 584.095 803.011 589.27 795.799 590.41ZM790.766 561.051C785.968 561.809 782.737 565.675 783.108 571.934L801.185 569.075C799.63 562.743 795.595 560.287 790.766 561.051ZM825.219 585.758C818.642 586.798 813.598 583.525 812.649 577.52L812.639 577.457C811.749 571.833 815.576 567.613 823.099 565.968L832.481 563.93L832.044 561.166C831.406 557.131 828.382 555.102 823.775 555.831C819.518 556.504 817.171 558.959 817.003 562.014L816.984 562.31L811.647 563.154L811.623 562.8C811.241 557.292 815.281 552.159 823.065 550.928C830.881 549.692 836.442 553.144 837.487 559.752L841.099 582.595L835.571 583.469L834.722 578.1L834.595 578.12C833.23 582.049 829.635 585.059 825.219 585.758ZM818.304 576.626C818.806 579.803 821.728 581.392 825.699 580.764C830.91 579.94 834.345 575.717 833.586 570.92L833.159 568.219L824.413 570.156C820.037 571.109 817.806 573.48 818.294 576.562L818.304 576.626ZM860.643 580.156C852.192 581.492 845.536 575.641 843.888 565.22L843.883 565.188C842.235 554.768 846.83 547.17 855.122 545.858C859.792 545.12 864.008 546.863 866.676 550.349L866.803 550.329L863.904 531.997L869.432 531.123L876.682 576.968L871.154 577.842L870.27 572.251L870.143 572.271C868.686 576.441 865.377 579.407 860.643 580.156ZM860.95 575.092C866.541 574.208 869.744 568.719 868.573 561.316L868.568 561.285C867.403 553.914 862.631 549.686 857.071 550.565C851.225 551.49 848.347 556.764 849.538 564.294L849.543 564.326C850.744 571.919 855.104 576.017 860.95 575.092ZM889.084 586.405C888.004 586.575 886.808 586.634 886.089 586.618L885.376 582.106C885.867 582.126 886.518 582.121 887.185 582.015C890.68 581.463 892.477 580.267 893.219 576.307L893.589 574.327L876.096 543.193L882.005 542.258L895.474 568.33L895.601 568.31L900.4 539.349L906.214 538.43L898.867 575.576C897.516 582.271 895.057 585.46 889.084 586.405ZM929.581 568.603L922.331 522.757L927.859 521.883L932.19 549.27L932.317 549.249L944.498 532.376L951.202 531.315L939.129 547.846L956.872 564.287L950.454 565.302L935.754 551.832L933.139 555.274L935.109 567.728L929.581 568.603ZM960.716 563.679L955.491 530.637L961.019 529.763L961.762 534.465L961.889 534.445C963.181 531.082 966.192 528.294 971.212 527.5C978.456 526.354 983.393 530.393 984.584 537.923L987.975 559.368L982.447 560.242L979.212 539.782C978.362 534.413 975.385 531.855 970.302 532.659C965.092 533.483 962.28 537.737 963.169 543.361L966.244 562.805L960.716 563.679ZM1008.73 556.738C999.227 558.24 992.458 552.504 990.815 542.115L990.81 542.083C989.193 531.853 993.928 523.907 1002.95 522.48C1011.97 521.054 1018.53 526.888 1020.1 536.8L1020.42 538.834L996.623 542.597C997.825 549.376 1002.2 552.754 1008.08 551.825C1012.27 551.162 1014.9 548.597 1015.4 545.619L1015.45 545.318L1020.89 544.459L1020.87 544.787C1020.66 550.422 1015.94 555.597 1008.73 556.738ZM1003.69 527.378C998.896 528.137 995.664 532.002 996.035 538.261L1014.11 535.402C1012.56 529.07 1008.52 526.614 1003.69 527.378ZM1034.93 551.942L1020.46 520.363L1025.96 519.493L1036.82 545.326L1036.94 545.306L1040.16 517.248L1045.5 516.403L1057.25 542.096L1057.37 542.076L1059.73 514.153L1065.19 513.288L1061.21 547.787L1055.58 548.676L1044.07 524.282L1043.95 524.302L1040.56 551.053L1034.93 551.942ZM1098.07 542.609C1091.49 543.649 1086.45 540.376 1085.5 534.372L1085.49 534.308C1084.6 528.685 1088.42 524.465 1095.95 522.819L1105.33 520.782L1104.89 518.018C1104.25 513.983 1101.23 511.954 1096.62 512.682C1092.37 513.355 1090.02 515.811 1089.85 518.866L1089.83 519.162L1084.49 520.006L1084.47 519.652C1084.09 514.143 1088.13 509.01 1095.91 507.779C1103.73 506.544 1109.29 509.995 1110.33 516.604L1113.95 539.447L1108.42 540.321L1107.57 534.952L1107.44 534.972C1106.08 538.9 1102.48 541.911 1098.07 542.609ZM1091.15 533.477C1091.65 536.655 1094.58 538.244 1098.55 537.616C1103.76 536.792 1107.19 532.569 1106.43 527.772L1106.01 525.071L1097.26 527.008C1092.88 527.96 1090.65 530.332 1091.14 533.414L1091.15 533.477ZM1137.49 536.374C1132.76 537.123 1128.7 535.323 1126.02 531.805L1125.9 531.825L1126.78 537.417L1121.25 538.291L1114 492.446L1119.53 491.572L1122.43 509.904L1122.56 509.883C1124.02 505.744 1127.49 502.785 1132.16 502.047C1140.45 500.735 1147.17 506.545 1148.82 516.966L1148.82 516.997C1150.47 527.418 1145.94 535.038 1137.49 536.374ZM1135.64 531.652C1141.49 530.728 1144.37 525.485 1143.17 517.892L1143.16 517.86C1141.97 510.33 1137.61 506.201 1131.76 507.125C1126.2 508.005 1122.97 513.499 1124.13 520.869L1124.14 520.901C1125.31 528.304 1130.05 532.537 1135.64 531.652ZM1170.79 531.109C1161.61 532.561 1154.43 526.89 1152.76 516.374L1152.75 516.311C1151.09 505.795 1156.21 498.243 1165.33 496.801C1174.45 495.36 1181.68 500.925 1183.35 511.472L1183.36 511.536C1185.03 522.084 1179.91 529.667 1170.79 531.109ZM1170.05 526.211C1175.86 525.292 1178.93 520.182 1177.7 512.43L1177.69 512.367C1176.47 504.615 1171.95 500.77 1166.1 501.694C1160.35 502.604 1157.19 507.696 1158.41 515.416L1158.42 515.48C1159.65 523.264 1164.2 527.136 1170.05 526.211ZM1202.94 526.024C1195.7 527.17 1190.76 523.131 1189.57 515.601L1186.18 494.156L1191.71 493.282L1194.94 513.742C1195.79 519.111 1198.77 521.669 1203.85 520.865C1209.06 520.041 1211.87 515.787 1210.98 510.163L1207.91 490.719L1213.44 489.845L1218.66 522.887L1213.13 523.761L1212.39 519.059L1212.26 519.079C1210.97 522.442 1207.96 525.23 1202.94 526.024ZM1236.71 520.683C1230.65 521.643 1227.23 519.383 1226.23 513.061L1223.06 493.013L1218.23 493.777L1217.5 489.202L1222.33 488.438L1220.92 479.511L1226.64 478.606L1228.05 487.534L1234.34 486.539L1235.07 491.114L1228.78 492.109L1231.94 512.125C1232.5 515.651 1234.21 516.39 1237.17 515.923C1237.83 515.817 1238.45 515.621 1238.92 515.514L1239.63 519.994C1238.95 520.2 1237.79 520.513 1236.71 520.683ZM1269.69 515.468C1263.62 516.428 1260.2 514.168 1259.2 507.846L1256.03 487.798L1251.21 488.562L1250.48 483.987L1255.31 483.223L1253.9 474.296L1259.62 473.391L1261.03 482.319L1267.32 481.324L1268.04 485.899L1261.75 486.894L1264.92 506.909C1265.48 510.436 1267.19 511.175 1270.14 510.707C1270.81 510.602 1271.43 510.406 1271.9 510.299L1272.61 514.779C1271.93 514.984 1270.77 515.297 1269.69 515.468ZM1278.77 513.381L1271.52 467.536L1277.05 466.662L1279.91 484.739L1280.04 484.719C1281.23 480.72 1284.47 477.96 1289.4 477.182C1296.42 476.071 1302.07 480.746 1303.34 488.752L1306.54 508.99L1301.01 509.864L1297.96 490.579C1297.02 484.606 1293.41 481.562 1288.26 482.376C1283.15 483.185 1280.36 487.598 1281.25 493.222L1284.3 512.507L1278.77 513.381ZM1323.32 506.987C1316.74 508.027 1311.7 504.754 1310.75 498.75L1310.74 498.686C1309.85 493.063 1313.68 488.843 1321.2 487.197L1330.58 485.16L1330.15 482.396C1329.51 478.361 1326.48 476.332 1321.88 477.06C1317.62 477.733 1315.27 480.189 1315.1 483.244L1315.09 483.54L1309.75 484.384L1309.72 484.03C1309.34 478.521 1313.38 473.388 1321.17 472.157C1328.98 470.922 1334.54 474.373 1335.59 480.982L1339.2 503.825L1333.67 504.699L1332.82 499.33L1332.7 499.35C1331.33 503.278 1327.74 506.289 1323.32 506.987ZM1316.41 497.855C1316.91 501.032 1319.83 502.622 1323.8 501.994C1329.01 501.17 1332.45 496.947 1331.69 492.15L1331.26 489.449L1322.51 491.386C1318.14 492.338 1315.91 494.71 1316.4 497.792L1316.41 497.855ZM1357.06 501.652C1350.99 502.611 1347.57 500.351 1346.57 494.029L1343.4 473.982L1338.57 474.745L1337.85 470.17L1342.68 469.407L1341.27 460.479L1346.99 459.575L1348.4 468.502L1354.69 467.507L1355.41 472.082L1349.12 473.077L1352.29 493.093C1352.85 496.619 1354.56 497.358 1357.51 496.891C1358.18 496.785 1358.8 496.589 1359.27 496.482L1359.98 500.962C1359.3 501.168 1358.14 501.481 1357.06 501.652ZM1392.99 495.969C1383.81 497.421 1376.63 491.751 1374.97 481.235L1374.96 481.171C1373.29 470.655 1378.42 463.104 1387.54 461.662C1396.65 460.22 1403.88 465.785 1405.55 476.333L1405.56 476.396C1407.23 486.944 1402.11 494.527 1392.99 495.969ZM1392.25 491.071C1398.07 490.152 1401.13 485.043 1399.91 477.291L1399.9 477.227C1398.67 469.475 1394.16 465.63 1388.31 466.554C1382.56 467.464 1379.39 472.557 1380.61 480.277L1380.62 480.34C1381.85 488.124 1386.41 491.996 1392.25 491.071ZM1413.77 492.033L1408.54 458.991L1414.07 458.117L1414.81 462.819L1414.94 462.799C1416.23 459.436 1419.24 456.648 1424.26 455.854C1431.51 454.708 1436.44 458.747 1437.63 466.277L1441.03 487.722L1435.5 488.596L1432.26 468.136C1431.41 462.767 1428.44 460.209 1423.35 461.013C1418.14 461.837 1415.33 466.091 1416.22 471.715L1419.29 491.159L1413.77 492.033ZM1461.78 485.092C1452.28 486.594 1445.51 480.858 1443.87 470.469L1443.86 470.437C1442.24 460.207 1446.98 452.261 1456 450.835C1465.02 449.408 1471.58 455.242 1473.15 465.155L1473.47 467.188L1449.67 470.951C1450.88 477.73 1455.25 481.108 1461.13 480.179C1465.32 479.516 1467.95 476.952 1468.45 473.973L1468.5 473.672L1473.94 472.813L1473.92 473.141C1473.71 478.776 1468.99 483.951 1461.78 485.092ZM1456.74 455.732C1451.95 456.491 1448.71 460.356 1449.09 466.615L1467.16 463.756C1465.61 457.424 1461.57 454.969 1456.74 455.732Z" fill="black"/>
</g>
</g>
<defs>
<filter id="filter0_d_717_200" x="356.362" y="353.046" width="1207.28" height="379.909" filterUnits="userSpaceOnUse" color-interpolation-filters="sRGB">
<feFlood flood-opacity="0" result="BackgroundImageFix"/>
<feColorMatrix in="SourceAlpha" type="matrix" values="0 0 0 0 0 0 0 0 0 0 0 0 0 0 0 0 0 0 127 0" result="hardAlpha"/>
<feOffset dy="3"/>
<feGaussianBlur stdDeviation="1.5"/>
<feComposite in2="hardAlpha" operator="out"/>
<feColorMatrix type="matrix" values="0 0 0 0 0 0 0 0 0 0 0 0 0 0 0 0 0 0 0.25 0"/>
<feBlend mode="normal" in2="BackgroundImageFix" result="effect1_dropShadow_717_200"/>
<feBlend mode="normal" in="SourceGraphic" in2="effect1_dropShadow_717_200" result="shape"/>
</filter>
<clipPath id="clip0_717_200">
<rect x="359.362" y="538.299" width="1186" height="191" rx="18" transform="rotate(-8.9864 359.362 538.299)" fill="white"/>
</clipPath>
</defs>
</svg>
