<svg width="1920" height="1080" viewBox="0 0 1920 1080" fill="none" xmlns="http://www.w3.org/2000/svg">
<rect width="1920" height="1080" fill="#DDDDDD"/>
<g filter="url(#filter0_d_711_90)">
<g clip-path="url(#clip0_711_90)">
<rect x="360.47" y="203.32" width="1070" height="217" rx="18" transform="rotate(4.83682 360.47 203.32)" fill="white"/>
<mask id="path-2-inside-1_711_90" fill="white">
<path d="M425.873 284.323C426.439 277.627 426.723 274.278 428.242 271.831C429.579 269.678 431.563 268.003 433.91 267.047C436.578 265.961 439.926 266.244 446.623 266.811L533.911 274.197C540.608 274.764 543.956 275.047 546.404 276.567C548.557 277.903 550.231 279.887 551.187 282.234C552.274 284.902 551.991 288.251 551.424 294.947L545.808 361.31C545.242 368.007 544.958 371.355 543.439 373.803C542.102 375.956 540.118 377.63 537.771 378.586C535.103 379.673 531.755 379.39 525.058 378.823L437.77 371.437C431.073 370.87 427.725 370.587 425.277 369.067C423.124 367.73 421.45 365.746 420.494 363.399C419.407 360.731 419.69 357.383 420.257 350.686L425.873 284.323Z"/>
</mask>
<path d="M425.873 284.323C426.439 277.627 426.723 274.278 428.242 271.831C429.579 269.678 431.563 268.003 433.91 267.047C436.578 265.961 439.926 266.244 446.623 266.811L533.911 274.197C540.608 274.764 543.956 275.047 546.404 276.567C548.557 277.903 550.231 279.887 551.187 282.234C552.274 284.902 551.991 288.251 551.424 294.947L545.808 361.31C545.242 368.007 544.958 371.355 543.439 373.803C542.102 375.956 540.118 377.63 537.771 378.586C535.103 379.673 531.755 379.39 525.058 378.823L437.77 371.437C431.073 370.87 427.725 370.587 425.277 369.067C423.124 367.73 421.45 365.746 420.494 363.399C419.407 360.731 419.69 357.383 420.257 350.686L425.873 284.323Z" fill="#F6F8FA"/>
<path d="M424.487 276.98C425.139 269.276 431.913 263.559 439.617 264.211L541.254 272.811C548.959 273.463 554.676 280.237 554.024 287.942L550.038 287.604C550.504 282.101 546.42 277.263 540.917 276.797L439.28 268.196C433.777 267.731 428.938 271.814 428.473 277.318L424.487 276.98ZM546.857 372.639C546.205 380.343 539.431 386.061 531.726 385.409L430.089 376.808C422.385 376.156 416.668 369.382 417.32 361.678L421.643 358.029C421.363 361.331 425.598 364.385 431.101 364.851L532.738 373.451C538.241 373.917 542.929 371.618 543.208 368.316L546.857 372.639ZM430.089 376.808C422.385 376.156 416.668 369.382 417.32 361.678L424.487 276.98C425.139 269.276 431.913 263.559 439.617 264.211L439.28 268.196C433.777 267.731 428.938 271.814 428.473 277.318L421.643 358.029C421.363 361.331 425.598 364.385 431.101 364.851L430.089 376.808ZM541.254 272.811C548.959 273.463 554.676 280.237 554.024 287.942L546.857 372.639C546.205 380.343 539.431 386.061 531.726 385.409L532.738 373.451C538.241 373.917 542.929 371.618 543.208 368.316L550.038 287.604C550.504 282.101 546.42 277.263 540.917 276.797L541.254 272.811Z" fill="#D1D9E0" mask="url(#path-2-inside-1_711_90)"/>
<path d="M489.41 335.389L486.688 337.817L474.027 322.609L489.064 309.745L491.341 312.572L485.7 317.246L480.364 321.381L480.356 321.475L486.21 321.782L500.55 322.995L500.237 326.685L485.945 325.476L480.075 324.791L480.069 324.861L484.633 329.857L489.41 335.389Z" fill="black"/>
<mask id="path-5-inside-2_711_90" fill="white">
<path d="M566.37 296.212C566.937 289.516 567.22 286.167 568.74 283.72C570.077 281.567 572.061 279.892 574.408 278.936C577.076 277.849 580.424 278.133 587.121 278.7L674.409 286.086C681.106 286.652 684.454 286.936 686.902 288.455C689.055 289.792 690.729 291.776 691.685 294.123C692.772 296.791 692.488 300.14 691.922 306.836L686.306 373.199C685.74 379.896 685.456 383.244 683.936 385.692C682.6 387.845 680.616 389.519 678.269 390.475C675.601 391.562 672.252 391.279 665.556 390.712L578.268 383.326C571.571 382.759 568.223 382.476 565.775 380.956C563.622 379.619 561.948 377.635 560.992 375.288C559.905 372.62 560.188 369.272 560.755 362.575L566.37 296.212Z"/>
</mask>
<path d="M566.37 296.212C566.937 289.516 567.22 286.167 568.74 283.72C570.077 281.567 572.061 279.892 574.408 278.936C577.076 277.849 580.424 278.133 587.121 278.7L674.409 286.086C681.106 286.652 684.454 286.936 686.902 288.455C689.055 289.792 690.729 291.776 691.685 294.123C692.772 296.791 692.488 300.14 691.922 306.836L686.306 373.199C685.74 379.896 685.456 383.244 683.936 385.692C682.6 387.845 680.616 389.519 678.269 390.475C675.601 391.562 672.252 391.279 665.556 390.712L578.268 383.326C571.571 382.759 568.223 382.476 565.775 380.956C563.622 379.619 561.948 377.635 560.992 375.288C559.905 372.62 560.188 369.272 560.755 362.575L566.37 296.212Z" fill="#F6F8FA"/>
<path d="M564.985 288.869C565.637 281.165 572.411 275.448 580.115 276.1L681.752 284.7C689.456 285.352 695.174 292.126 694.522 299.831L690.536 299.493C691.002 293.99 686.918 289.151 681.415 288.686L579.778 280.085C574.275 279.62 569.436 283.703 568.97 289.206L564.985 288.869ZM687.355 384.528C686.703 392.232 679.929 397.95 672.224 397.298L570.587 388.697C562.883 388.045 557.166 381.271 557.818 373.567L562.141 369.918C561.861 373.22 566.096 376.274 571.599 376.74L673.236 385.34C678.739 385.806 683.427 383.507 683.706 380.205L687.355 384.528ZM570.587 388.697C562.883 388.045 557.166 381.271 557.818 373.567L564.985 288.869C565.637 281.165 572.411 275.448 580.115 276.1L579.778 280.085C574.275 279.62 569.436 283.703 568.97 289.206L562.141 369.918C561.861 373.22 566.096 376.274 571.599 376.74L570.587 388.697ZM681.752 284.7C689.456 285.352 695.174 292.126 694.522 299.831L687.355 384.528C686.703 392.232 679.929 397.95 672.224 397.298L673.236 385.34C678.739 385.806 683.427 383.507 683.706 380.205L690.536 299.493C691.002 293.99 686.918 289.151 681.415 288.686L681.752 284.7Z" fill="#D1D9E0" mask="url(#path-5-inside-2_711_90)"/>
<path d="M620.38 346.472L626.018 341.821L631.357 337.663L631.363 337.593L625.462 337.282L611.169 336.072L611.481 332.382L625.821 333.596L631.643 334.276L631.651 334.183L627.086 329.21L622.31 323.655L625.031 321.251L637.692 336.458L622.655 349.322L620.38 346.472Z" fill="black"/>
<path d="M716.48 366.563C710.358 366.045 707.579 363.034 708.118 356.656L709.83 336.431L704.958 336.019L705.348 331.404L710.22 331.816L710.982 322.81L716.751 323.298L715.989 332.304L722.335 332.841L721.945 337.457L715.599 336.92L713.89 357.112C713.589 360.669 715.076 361.796 718.056 362.048C718.729 362.105 719.378 362.063 719.862 362.072L719.48 366.591C718.766 366.627 717.57 366.655 716.48 366.563ZM738.307 368.41C729.044 367.626 723.425 360.404 724.323 349.795L724.328 349.731C725.226 339.122 732.005 333.014 741.204 333.792C750.402 334.571 756.093 341.702 755.193 352.343L755.188 352.407C754.287 363.048 747.505 369.188 738.307 368.41ZM738.756 363.477C744.622 363.973 748.821 359.745 749.483 351.924L749.488 351.86C750.15 344.04 746.683 339.227 740.786 338.728C734.985 338.237 730.692 342.425 730.033 350.214L730.028 350.278C729.363 358.13 732.859 362.978 738.756 363.477ZM772.88 370.69L775.7 337.357L781.277 337.829L780.865 342.701L780.993 342.711C782.779 339.538 786.299 337.608 790.594 337.972C795.145 338.357 798.313 340.981 799.411 345.174L799.539 345.185C801.737 341.336 805.85 339.263 810.53 339.659C817.132 340.217 821.029 344.905 820.468 351.539L818.52 374.552L812.943 374.08L814.782 352.35C815.17 347.766 812.869 344.828 808.478 344.456C804.055 344.082 800.666 347.12 800.281 351.671L798.488 372.857L792.912 372.385L794.802 350.045C795.144 346.007 792.677 343.119 788.542 342.769C784.119 342.395 780.618 345.617 780.225 350.265L778.457 371.162L772.88 370.69ZM839.395 376.964C830.133 376.18 824.514 368.958 825.411 358.349L825.417 358.285C826.315 347.676 833.094 341.568 842.292 342.346C851.491 343.125 857.182 350.256 856.282 360.897L856.276 360.961C855.376 371.602 848.594 377.742 839.395 376.964ZM839.845 372.031C845.71 372.527 849.91 368.299 850.571 360.478L850.577 360.414C851.239 352.594 847.772 347.781 841.875 347.282C836.074 346.791 831.781 350.98 831.122 358.768L831.116 358.832C830.452 366.685 833.948 371.532 839.845 372.031ZM868.616 378.791L859.161 344.419L865.026 344.916L871.906 373.098L872.034 373.108L883.584 346.486L889.385 346.977L874.321 379.274L868.616 378.791ZM903.337 382.375C893.754 381.564 888.552 374.377 889.438 363.896L889.441 363.864C890.314 353.544 896.811 346.96 905.914 347.73C915.016 348.5 919.989 355.732 919.143 365.732L918.969 367.783L894.963 365.752C894.511 372.622 897.954 376.948 903.883 377.45C908.114 377.808 911.273 375.945 912.476 373.173L912.597 372.893L918.078 373.357L917.986 373.672C916.43 379.093 910.613 382.99 903.337 382.375ZM905.464 352.663C900.624 352.253 896.563 355.235 895.428 361.401L913.665 362.944C913.668 356.424 910.336 353.075 905.464 352.663ZM953.305 386.603C948.529 386.199 945.015 383.48 943.259 379.426L943.131 379.415L942.654 385.056L937.077 384.584L940.991 338.335L946.567 338.807L945.003 357.3L945.131 357.311C947.54 353.641 951.618 351.597 956.33 351.996C964.695 352.704 969.828 359.949 968.938 370.462L968.936 370.494C968.046 381.007 961.83 387.324 953.305 386.603ZM952.633 381.575C958.53 382.074 962.582 377.672 963.231 370.011L963.233 369.979C963.876 362.383 960.624 357.331 954.726 356.832C949.117 356.357 944.664 360.919 944.035 368.355L944.032 368.387C943.4 375.855 946.992 381.098 952.633 381.575ZM986.798 389.437C977.215 388.626 972.012 381.439 972.899 370.959L972.902 370.927C973.775 360.606 980.272 354.022 989.374 354.792C998.477 355.563 1003.45 362.794 1002.6 372.794L1002.43 374.846L978.424 372.814C977.971 379.684 981.414 384.01 987.344 384.512C991.575 384.87 994.734 383.007 995.937 380.236L996.058 379.956L1001.54 380.419L1001.45 380.734C999.891 386.155 994.074 390.053 986.798 389.437ZM988.925 359.725C984.085 359.316 980.024 362.297 978.889 368.463L997.126 370.007C997.129 363.486 993.797 360.138 988.925 359.725ZM1017.57 392.041C1011.45 391.523 1008.67 388.511 1009.21 382.133L1010.92 361.909L1006.04 361.497L1006.44 356.882L1011.31 357.294L1012.07 348.287L1017.84 348.776L1017.08 357.782L1023.42 358.319L1023.03 362.934L1016.69 362.397L1014.98 382.589C1014.68 386.147 1016.16 387.274 1019.14 387.526C1019.82 387.583 1020.47 387.541 1020.95 387.55L1020.57 392.069C1019.85 392.105 1018.66 392.133 1017.57 392.041ZM1033.2 392.718L1026.69 358.596L1032.24 359.065L1036.61 386.744L1036.74 386.755L1046.56 360.277L1051.95 360.733L1057.22 388.488L1057.35 388.499L1066.31 361.948L1071.82 362.414L1059.7 394.961L1054.03 394.481L1048.68 368.042L1048.55 368.032L1038.87 393.198L1033.2 392.718ZM1087.25 397.937C1077.66 397.126 1072.46 389.939 1073.35 379.459L1073.35 379.427C1074.22 369.106 1080.72 362.522 1089.82 363.292C1098.92 364.062 1103.9 371.294 1103.05 381.294L1102.88 383.345L1078.87 381.314C1078.42 388.184 1081.86 392.51 1087.79 393.012C1092.02 393.37 1095.18 391.507 1096.39 388.736L1096.51 388.455L1101.99 388.919L1101.9 389.234C1100.34 394.655 1094.52 398.553 1087.25 397.937ZM1089.37 368.225C1084.53 367.816 1080.47 370.797 1079.34 376.963L1097.57 378.507C1097.58 371.986 1094.24 368.638 1089.37 368.225ZM1120.9 400.785C1111.32 399.974 1106.11 392.787 1107 382.306L1107 382.274C1107.88 371.954 1114.37 365.37 1123.48 366.14C1132.58 366.91 1137.55 374.142 1136.7 384.142L1136.53 386.193L1112.52 384.162C1112.07 391.032 1115.52 395.358 1121.45 395.86C1125.68 396.218 1128.84 394.355 1130.04 391.583L1130.16 391.303L1135.64 391.767L1135.55 392.082C1133.99 397.503 1128.17 401.4 1120.9 400.785ZM1123.03 371.073C1118.19 370.663 1114.13 373.645 1112.99 379.811L1131.23 381.354C1131.23 374.834 1127.9 371.485 1123.03 371.073ZM1140.89 401.831L1143.71 368.498L1149.29 368.97L1148.89 373.713L1149.01 373.724C1151.07 370.767 1154.66 368.779 1159.73 369.207C1167.03 369.826 1170.86 374.927 1170.22 382.523L1168.39 404.158L1162.81 403.686L1164.56 383.045C1165.02 377.628 1162.74 374.433 1157.61 373.999C1152.35 373.555 1148.61 377.014 1148.13 382.687L1146.47 402.303L1140.89 401.831ZM1200.74 407.541C1192.89 406.876 1188.48 402.468 1188.31 396.45L1188.31 396.159L1193.88 396.631L1193.92 396.957C1194.31 400.347 1196.61 402.511 1201.16 402.896C1205.68 403.278 1208.54 401.615 1208.79 398.602L1208.79 398.57C1209 396.167 1207.86 394.715 1204.16 393.465L1198.98 391.736C1192.82 389.698 1190.02 386.523 1190.43 381.716L1190.43 381.684C1190.92 375.947 1196.3 372.302 1203.51 372.912C1210.81 373.53 1215.1 378.186 1215.05 383.799L1215.04 384.218L1209.72 383.768L1209.71 383.541C1209.53 380.266 1207.25 377.909 1203.11 377.559C1199.08 377.218 1196.41 378.961 1196.16 381.91L1196.16 381.942C1195.97 384.218 1197.34 385.916 1200.95 387.125L1206.13 388.855C1212.72 391.059 1214.93 393.925 1214.53 398.669L1214.53 398.701C1214.03 404.534 1208.17 408.17 1200.74 407.541ZM1219.83 408.511L1223.74 362.261L1229.32 362.733L1225.41 408.983L1219.83 408.511ZM1239.38 370.912C1237.46 370.749 1236.02 369.046 1236.18 367.123C1236.35 365.167 1238.05 363.762 1239.97 363.925C1241.93 364.09 1243.33 365.759 1243.17 367.714C1243.01 369.637 1241.33 371.077 1239.38 370.912ZM1233.29 409.65L1236.11 376.317L1241.69 376.789L1238.87 410.122L1233.29 409.65ZM1258.94 412.466C1250.42 411.745 1245.35 404.472 1246.24 393.96L1246.24 393.928C1247.13 383.415 1253.41 377.135 1261.78 377.843C1266.49 378.241 1270.16 380.941 1271.92 384.964L1272.05 384.975L1273.62 366.481L1279.19 366.953L1275.28 413.203L1269.7 412.731L1270.18 407.09L1270.05 407.079C1267.64 410.781 1263.72 412.87 1258.94 412.466ZM1260.45 407.622C1266.09 408.1 1270.51 403.535 1271.14 396.067L1271.15 396.035C1271.78 388.599 1268.15 383.354 1262.54 382.879C1256.65 382.38 1252.59 386.814 1251.95 394.41L1251.95 394.442C1251.3 402.103 1254.55 407.123 1260.45 407.622ZM1296.47 415.642C1286.89 414.831 1281.69 407.644 1282.58 397.163L1282.58 397.131C1283.45 386.811 1289.95 380.227 1299.05 380.997C1308.15 381.767 1313.13 388.999 1312.28 398.999L1312.11 401.05L1288.1 399.019C1287.65 405.889 1291.09 410.215 1297.02 410.717C1301.25 411.075 1304.41 409.212 1305.61 406.441L1305.73 406.16L1311.22 406.624L1311.12 406.939C1309.57 412.36 1303.75 416.258 1296.47 415.642ZM1298.6 385.93C1293.76 385.521 1289.7 388.502 1288.57 394.668L1306.8 396.211C1306.81 389.691 1303.47 386.342 1298.6 385.93ZM1328.24 418.33C1320.38 417.665 1315.98 413.257 1315.81 407.239L1315.8 406.948L1321.38 407.42L1321.42 407.746C1321.81 411.136 1324.11 413.3 1328.66 413.685C1333.18 414.067 1336.03 412.404 1336.29 409.391L1336.29 409.359C1336.5 406.955 1335.36 405.504 1331.66 404.254L1326.48 402.525C1320.32 400.487 1317.52 397.312 1317.93 392.505L1317.93 392.473C1318.42 386.735 1323.79 383.091 1331.01 383.701C1338.31 384.319 1342.6 388.975 1342.55 394.588L1342.54 395.007L1337.22 394.557L1337.21 394.33C1337.03 391.054 1334.75 388.698 1330.61 388.348C1326.57 388.007 1323.91 389.75 1323.66 392.699L1323.66 392.731C1323.46 395.007 1324.84 396.705 1328.45 397.914L1333.63 399.643C1340.22 401.848 1342.43 404.714 1342.03 409.457L1342.03 409.489C1341.53 415.323 1335.67 418.959 1328.24 418.33Z" fill="black"/>
</g>
</g>
<g filter="url(#filter1_d_711_90)">
<g clip-path="url(#clip1_711_90)">
<rect x="342.173" y="660.575" width="1221" height="217" rx="18" transform="rotate(-5.20683 342.173 660.575)" fill="white"/>
<path d="M426.587 784.928L439.207 738.497L444.747 737.992L465.52 781.38L459.638 781.916L453.923 769.477L435.842 771.125L432.469 784.392L426.587 784.928ZM442.527 744.972L437.12 766.207L451.809 764.868L442.652 744.961L442.527 744.972ZM470.126 780.96L466.034 736.052L471.449 735.559L475.541 780.467L470.126 780.96ZM494.395 779.376C486.77 780.071 481.81 776.6 480.629 770.872L480.572 770.594L485.987 770.101L486.078 770.406C487.026 773.583 489.595 775.263 494.015 774.861C498.403 774.461 500.85 772.386 500.583 769.461L500.58 769.43C500.367 767.096 499.035 765.899 495.28 765.332L490.032 764.555C483.799 763.648 480.584 761.085 480.159 756.417L480.156 756.386C479.648 750.815 484.174 746.418 491.176 745.78C498.272 745.133 503.162 748.861 504.06 754.239L504.128 754.641L498.962 755.111L498.911 754.896C498.188 751.793 495.602 749.926 491.587 750.292C487.666 750.649 485.412 752.769 485.673 755.632L485.676 755.663C485.877 757.873 487.479 759.264 491.137 759.81L496.385 760.587C503.065 761.578 505.666 763.946 506.086 768.552L506.088 768.583C506.605 774.247 501.615 778.718 494.395 779.376ZM526.014 776.495C517.02 777.314 510.421 771.357 509.482 761.056L509.476 760.994C508.538 750.693 513.988 743.701 522.92 742.887C531.851 742.073 538.504 747.931 539.446 758.263L539.451 758.325C540.393 768.657 534.945 775.681 526.014 776.495ZM525.608 771.699C531.303 771.18 534.604 766.424 533.912 758.83L533.906 758.768C533.214 751.174 529.083 747.158 523.356 747.679C517.724 748.193 514.327 752.927 515.016 760.489L515.021 760.551C515.716 768.176 519.882 772.221 525.608 771.699ZM547.578 750.054C545.586 750.235 543.889 748.821 543.707 746.829C543.526 744.837 544.94 743.14 546.932 742.958C548.923 742.777 550.621 744.191 550.803 746.183C550.984 748.174 549.57 749.872 547.578 750.054ZM549.773 774.141C547.781 774.323 546.084 772.909 545.902 770.917C545.721 768.925 547.135 767.227 549.127 767.046C551.118 766.864 552.816 768.278 552.998 770.27C553.179 772.262 551.765 773.96 549.773 774.141Z" fill="black"/>
<mask id="path-11-inside-3_711_90" fill="white">
<path d="M567.094 715.59C566.484 708.897 566.179 705.551 567.248 702.876C568.189 700.523 569.851 698.528 571.995 697.177C574.433 695.642 577.779 695.337 584.472 694.727L790.219 675.978C796.912 675.368 800.259 675.063 802.934 676.133C805.287 677.073 807.282 678.735 808.632 680.879C810.168 683.317 810.473 686.663 811.083 693.356L817.127 759.681C817.737 766.374 818.041 769.721 816.972 772.396C816.031 774.749 814.369 776.744 812.225 778.094C809.788 779.63 806.441 779.935 799.748 780.545L594.001 799.294C587.308 799.904 583.961 800.209 581.286 799.139C578.933 798.198 576.939 796.537 575.588 794.393C574.052 791.955 573.748 788.608 573.138 781.916L567.094 715.59Z"/>
</mask>
<path d="M567.094 715.59C566.484 708.897 566.179 705.551 567.248 702.876C568.189 700.523 569.851 698.528 571.995 697.177C574.433 695.642 577.779 695.337 584.472 694.727L790.219 675.978C796.912 675.368 800.259 675.063 802.934 676.133C805.287 677.073 807.282 678.735 808.632 680.879C810.168 683.317 810.473 686.663 811.083 693.356L817.127 759.681C817.737 766.374 818.041 769.721 816.972 772.396C816.031 774.749 814.369 776.744 812.225 778.094C809.788 779.63 806.441 779.935 799.748 780.545L594.001 799.294C587.308 799.904 583.961 800.209 581.286 799.139C578.933 798.198 576.939 796.537 575.588 794.393C574.052 791.955 573.748 788.608 573.138 781.916L567.094 715.59Z" fill="#F6F8FA"/>
<path d="M564.448 708.602C563.747 700.901 569.42 694.09 577.12 693.389L797.208 673.333C804.908 672.631 811.719 678.304 812.421 686.004L808.437 686.367C807.936 680.867 803.071 676.815 797.571 677.316L577.483 697.372C571.983 697.874 567.931 702.738 568.432 708.239L564.448 708.602ZM820.135 770.654C820.836 778.354 815.163 785.165 807.463 785.866L587.375 805.923C579.675 806.624 572.864 800.951 572.162 793.251L575.783 788.904C576.083 792.204 580.786 794.473 586.286 793.972L806.374 773.916C811.874 773.415 816.089 770.333 815.788 767.033L820.135 770.654ZM587.375 805.923C579.675 806.624 572.864 800.951 572.162 793.251L564.448 708.602C563.747 700.901 569.42 694.09 577.12 693.389L577.483 697.372C571.983 697.874 567.931 702.738 568.432 708.239L575.783 788.904C576.083 792.204 580.786 794.473 586.286 793.972L587.375 805.923ZM797.208 673.333C804.908 672.631 811.719 678.304 812.421 686.004L820.135 770.654C820.836 778.354 815.163 785.165 807.463 785.866L806.374 773.916C811.874 773.415 816.089 770.333 815.788 767.033L808.437 686.367C807.936 680.867 803.071 676.815 797.571 677.316L797.208 673.333Z" fill="#D1D9E0" mask="url(#path-11-inside-3_711_90)"/>
<path d="M623.376 742.833C622.976 738.444 626.443 735.163 632.021 734.655C637.296 734.174 641.108 736.486 641.96 740.668L638.132 741.017C637.463 738.842 635.215 737.682 632.251 737.952C629.03 738.246 627.089 739.929 627.3 742.24C627.476 744.177 628.883 745.155 632.121 745.566L635.767 746.057C640.794 746.729 643.23 748.672 643.564 752.337C643.99 757.005 640.368 760.394 634.37 760.941C628.628 761.464 624.579 759.127 623.74 754.826L627.777 754.458C628.574 756.739 630.938 757.888 634.205 757.59C637.66 757.276 639.711 755.512 639.49 753.084C639.307 751.077 637.972 750.116 634.685 749.686L630.849 749.165C626.178 748.531 623.704 746.427 623.376 742.833ZM663.071 731.896C668.929 731.362 673.142 735.238 673.736 741.75L674.165 746.465C674.757 752.954 671.314 757.527 665.455 758.061C661.791 758.395 658.964 757.076 657.614 754.398L657.17 754.439L658.306 766.903L654.268 767.271L651.182 733.403L655.103 733.046L655.456 736.92L655.877 736.882C656.952 733.96 659.453 732.226 663.071 731.896ZM662.259 735.641C658.081 736.022 655.692 739.252 656.118 743.92L656.45 747.562C656.877 752.253 659.81 754.998 663.988 754.617C668.166 754.237 670.553 750.983 670.127 746.315L669.796 742.674C669.37 738.006 666.437 735.261 662.259 735.641ZM690.852 755.77C686.021 756.21 682.523 753.47 682.104 748.872C681.696 744.39 684.674 741.436 690.412 740.607L697.335 739.623L697.127 737.336C696.838 734.161 694.741 732.587 691.216 732.908C688.299 733.174 686.358 734.599 685.902 736.829L682.004 737.184C682.101 733.08 685.769 729.945 690.95 729.473C696.902 728.931 700.587 731.654 701.067 736.929L702.648 754.272L698.866 754.616L698.52 750.812L698.123 750.848C697.156 753.666 694.54 755.434 690.852 755.77ZM691.679 752.188C695.507 751.839 698.193 749.029 697.884 745.645L697.612 742.657L691.128 743.554C687.595 744.041 685.866 745.728 686.106 748.366C686.348 751.027 688.481 752.48 691.679 752.188ZM731.89 734.003L727.969 734.36C727.208 731.441 724.564 729.799 721.296 730.097C716.885 730.499 714.709 733.733 715.204 739.171L715.413 741.459C715.908 746.897 718.631 749.662 723.043 749.26C726.31 748.962 728.616 746.892 728.843 743.953L732.764 743.596C732.604 748.812 729.04 752.314 723.438 752.824C716.553 753.452 712.153 749.593 711.491 742.334L711.189 739.02C710.528 731.761 714.158 727.17 721.043 726.543C726.645 726.032 730.762 728.858 731.89 734.003ZM758.721 742.549L762.573 742.198C762.183 746.446 758.426 749.636 753.104 750.121C746.149 750.755 741.73 746.945 741.073 739.732L740.726 735.928C740.118 729.252 743.989 724.475 750.431 723.888C757.013 723.288 761.286 727.3 761.954 734.629L762.179 737.103L744.93 738.675L745.024 739.702C745.447 744.347 748.473 747.083 752.792 746.69C755.989 746.398 758.223 744.83 758.721 742.549ZM750.718 727.298C746.494 727.683 744.213 730.809 744.656 735.664L757.983 734.449C757.543 729.618 754.803 726.926 750.718 727.298Z" fill="black"/>
<path d="M844.591 747.984C837.961 748.588 833.143 744.99 832.591 738.936L832.586 738.872C832.069 733.202 836.165 729.243 843.78 728.097L853.277 726.683L853.023 723.896C852.652 719.828 849.768 717.604 845.124 718.027C840.831 718.418 838.327 720.713 837.958 723.751L837.92 724.045L832.539 724.535L832.539 724.18C832.52 718.659 836.89 713.803 844.738 713.088C852.618 712.37 857.94 716.181 858.547 722.844L860.646 745.875L855.072 746.383L854.578 740.969L854.45 740.981C852.829 744.811 849.044 747.578 844.591 747.984ZM838.293 738.416C838.585 741.619 841.396 743.398 845.4 743.033C850.653 742.555 854.36 738.567 853.919 733.73L853.671 731.007L844.815 732.363C840.386 733.025 838.004 735.245 838.287 738.352L838.293 738.416ZM867.725 745.23L864.689 711.916L870.263 711.408L870.695 716.149L870.823 716.137C872.334 712.866 875.522 710.283 880.583 709.822C887.886 709.156 892.547 713.511 893.239 721.103L895.209 742.725L889.635 743.233L887.755 722.604C887.262 717.191 884.46 714.442 879.335 714.909C874.081 715.388 870.995 719.448 871.512 725.118L873.298 744.722L867.725 745.23ZM914.903 741.577C906.383 742.353 900.126 736.076 899.169 725.569L899.166 725.537C898.208 715.03 903.294 707.752 911.655 706.99C916.364 706.561 920.456 708.578 922.888 712.232L923.016 712.221L921.332 693.738L926.906 693.23L931.118 739.453L925.544 739.961L925.03 734.323L924.902 734.335C923.173 738.401 919.676 741.142 914.903 741.577ZM915.543 736.544C921.181 736.031 924.738 730.765 924.058 723.301L924.055 723.269C923.378 715.837 918.895 711.304 913.289 711.815C907.395 712.352 904.176 717.426 904.868 725.018L904.87 725.05C905.568 732.705 909.649 737.081 915.543 736.544Z" fill="black"/>
<mask id="path-15-inside-4_711_90" fill="white">
<path d="M945.526 681.105C944.916 674.412 944.611 671.066 945.68 668.39C946.621 666.037 948.283 664.043 950.427 662.692C952.865 661.157 956.211 660.852 962.904 660.242L1168.65 641.492C1175.34 640.883 1178.69 640.578 1181.37 641.647C1183.72 642.588 1185.71 644.25 1187.06 646.394C1188.6 648.831 1188.9 652.178 1189.51 658.871L1195.56 725.196C1196.17 731.889 1196.47 735.235 1195.4 737.91C1194.46 740.263 1192.8 742.258 1190.66 743.609C1188.22 745.144 1184.87 745.449 1178.18 746.059L972.433 764.808C965.74 765.418 962.393 765.723 959.718 764.654C957.365 763.713 955.371 762.051 954.02 759.907C952.484 757.469 952.179 754.123 951.57 747.43L945.526 681.105Z"/>
</mask>
<path d="M945.526 681.105C944.916 674.412 944.611 671.066 945.68 668.39C946.621 666.037 948.283 664.043 950.427 662.692C952.865 661.157 956.211 660.852 962.904 660.242L1168.65 641.492C1175.34 640.883 1178.69 640.578 1181.37 641.647C1183.72 642.588 1185.71 644.25 1187.06 646.394C1188.6 648.831 1188.9 652.178 1189.51 658.871L1195.56 725.196C1196.17 731.889 1196.47 735.235 1195.4 737.91C1194.46 740.263 1192.8 742.258 1190.66 743.609C1188.22 745.144 1184.87 745.449 1178.18 746.059L972.433 764.808C965.74 765.418 962.393 765.723 959.718 764.654C957.365 763.713 955.371 762.051 954.02 759.907C952.484 757.469 952.179 754.123 951.57 747.43L945.526 681.105Z" fill="#F6F8FA"/>
<path d="M942.88 674.116C942.179 666.416 947.852 659.605 955.552 658.903L1175.64 638.847C1183.34 638.146 1190.15 643.819 1190.85 651.519L1186.87 651.882C1186.37 646.382 1181.5 642.33 1176 642.831L955.915 662.887C950.415 663.388 946.363 668.253 946.864 673.753L942.88 674.116ZM1198.57 736.168C1199.27 743.868 1193.6 750.679 1185.9 751.381L965.807 771.437C958.107 772.139 951.296 766.465 950.594 758.765L954.215 754.419C954.515 757.719 959.218 759.988 964.718 759.487L1184.81 739.431C1190.31 738.929 1194.52 735.848 1194.22 732.548L1198.57 736.168ZM965.807 771.437C958.107 772.139 951.296 766.465 950.594 758.765L942.88 674.116C942.179 666.416 947.852 659.605 955.552 658.903L955.915 662.887C950.415 663.388 946.363 668.253 946.864 673.753L954.215 754.419C954.515 757.719 959.218 759.988 964.718 759.487L965.807 771.437ZM1175.64 638.847C1183.34 638.146 1190.15 643.819 1190.85 651.519L1198.57 736.168C1199.27 743.868 1193.6 750.679 1185.9 751.381L1184.81 739.431C1190.31 738.929 1194.52 735.848 1194.22 732.548L1186.87 651.882C1186.37 646.382 1181.5 642.33 1176 642.831L1175.64 638.847Z" fill="#D1D9E0" mask="url(#path-15-inside-4_711_90)"/>
<path d="M1001.81 708.347C1001.41 703.959 1004.87 700.678 1010.45 700.169C1015.73 699.689 1019.54 702.001 1020.39 706.183L1016.56 706.532C1015.89 704.357 1013.65 703.197 1010.68 703.467C1007.46 703.76 1005.52 705.443 1005.73 707.754C1005.91 709.691 1007.32 710.669 1010.55 711.08L1014.2 711.572C1019.23 712.243 1021.66 714.187 1022 717.851C1022.42 722.519 1018.8 725.909 1012.8 726.455C1007.06 726.979 1003.01 724.641 1002.17 720.34L1006.21 719.972C1007.01 722.253 1009.37 723.403 1012.64 723.105C1016.09 722.79 1018.14 721.026 1017.92 718.599C1017.74 716.592 1016.4 715.631 1013.12 715.201L1009.28 714.679C1004.61 714.046 1002.14 711.942 1001.81 708.347ZM1031.88 724.247L1028.66 688.979L1032.49 688.63L1033.8 703.054L1034.13 703.025C1035.17 699.752 1037.93 697.713 1041.8 697.36C1047.31 696.858 1050.6 699.9 1051.15 705.945L1052.65 722.354L1048.68 722.715L1047.28 707.31C1046.86 702.759 1044.8 700.758 1040.83 701.12C1036.65 701.501 1034.09 704.675 1034.49 708.994L1035.84 723.885L1031.88 724.247ZM1069.38 689.033C1067.51 689.204 1065.96 687.933 1065.79 686.066C1065.62 684.222 1066.92 682.692 1068.79 682.521C1070.65 682.351 1072.21 683.622 1072.37 685.466C1072.54 687.333 1071.25 688.863 1069.38 689.033ZM1082.87 719.599L1061.89 721.511L1061.59 718.22L1070.27 717.429L1068.57 698.686L1059.95 699.471L1059.65 696.18L1072.19 695.038L1074.2 717.072L1082.57 716.308L1082.87 719.599ZM1097.63 718.255L1095.63 696.385L1088.84 697.003L1088.53 693.619L1095.32 693L1095.09 690.456C1094.65 685.554 1097.47 682.99 1103.7 682.423C1105.17 682.289 1108.71 682.084 1109.56 682.124L1109.86 685.369C1108.75 685.352 1105.47 685.556 1104.05 685.686C1100.52 686.007 1098.78 687.484 1099.01 690.029L1099.25 692.643L1110.43 691.624L1110.73 695.008L1099.6 696.023L1101.59 717.893L1097.63 718.255ZM1123.67 683.498L1127.59 683.141L1128.21 690.003L1138.48 689.067L1138.79 692.452L1128.57 693.383L1129.87 707.668C1130.12 710.422 1132.19 711.739 1135.76 711.414C1137.19 711.284 1139.73 710.982 1140.4 710.851L1140.7 714.212C1140.08 714.386 1137.01 714.783 1135.8 714.894C1129.52 715.466 1126.39 713.351 1125.91 708.076L1124.6 693.745L1117.85 694.36L1117.55 690.975L1124.29 690.361L1123.67 683.498Z" fill="black"/>
<path d="M1224.46 693.493L1225.43 704.043L1221.79 704.375L1220.82 693.825L1210.2 694.793L1209.87 691.105L1220.49 690.137L1219.52 679.564L1223.17 679.232L1224.13 689.806L1234.75 688.838L1235.08 692.526L1224.46 693.493Z" fill="black"/>
<mask id="path-19-inside-5_711_90" fill="white">
<path d="M1249.27 653.426C1248.66 646.733 1248.35 643.386 1249.42 640.711C1250.36 638.358 1252.02 636.364 1254.17 635.013C1256.61 633.477 1259.95 633.172 1266.65 632.563L1472.39 613.813C1479.09 613.203 1482.43 612.898 1485.11 613.968C1487.46 614.909 1489.45 616.57 1490.81 618.715C1492.34 621.152 1492.65 624.499 1493.26 631.192L1499.3 697.517C1499.91 704.21 1500.21 707.556 1499.15 710.231C1498.2 712.584 1496.54 714.579 1494.4 715.93C1491.96 717.465 1488.61 717.77 1481.92 718.38L1276.17 737.129C1269.48 737.739 1266.13 738.044 1263.46 736.975C1261.11 736.034 1259.11 734.372 1257.76 732.228C1256.23 729.79 1255.92 726.444 1255.31 719.751L1249.27 653.426Z"/>
</mask>
<path d="M1249.27 653.426C1248.66 646.733 1248.35 643.386 1249.42 640.711C1250.36 638.358 1252.02 636.364 1254.17 635.013C1256.61 633.477 1259.95 633.172 1266.65 632.563L1472.39 613.813C1479.09 613.203 1482.43 612.898 1485.11 613.968C1487.46 614.909 1489.45 616.57 1490.81 618.715C1492.34 621.152 1492.65 624.499 1493.26 631.192L1499.3 697.517C1499.91 704.21 1500.21 707.556 1499.15 710.231C1498.2 712.584 1496.54 714.579 1494.4 715.93C1491.96 717.465 1488.61 717.77 1481.92 718.38L1276.17 737.129C1269.48 737.739 1266.13 738.044 1263.46 736.975C1261.11 736.034 1259.11 734.372 1257.76 732.228C1256.23 729.79 1255.92 726.444 1255.31 719.751L1249.27 653.426Z" fill="#F6F8FA"/>
<path d="M1246.62 646.437C1245.92 638.737 1251.59 631.926 1259.29 631.224L1479.38 611.168C1487.08 610.466 1493.89 616.14 1494.59 623.84L1490.61 624.203C1490.11 618.703 1485.24 614.65 1479.74 615.152L1259.66 635.208C1254.16 635.709 1250.1 640.574 1250.61 646.074L1246.62 646.437ZM1502.31 708.489C1503.01 716.189 1497.34 723 1489.64 723.702L1269.55 743.758C1261.85 744.46 1255.04 738.786 1254.34 731.086L1257.96 726.74C1258.26 730.04 1262.96 732.309 1268.46 731.807L1488.55 711.751C1494.05 711.25 1498.26 708.169 1497.96 704.869L1502.31 708.489ZM1269.55 743.758C1261.85 744.46 1255.04 738.786 1254.34 731.086L1246.62 646.437C1245.92 638.737 1251.59 631.926 1259.29 631.224L1259.66 635.208C1254.16 635.709 1250.1 640.574 1250.61 646.074L1257.96 726.74C1258.26 730.04 1262.96 732.309 1268.46 731.807L1269.55 743.758ZM1479.38 611.168C1487.08 610.466 1493.89 616.14 1494.59 623.84L1502.31 708.489C1503.01 716.189 1497.34 723 1489.64 723.702L1488.55 711.751C1494.05 711.25 1498.26 708.169 1497.96 704.869L1490.61 624.203C1490.11 618.703 1485.24 614.65 1479.74 615.152L1479.38 611.168Z" fill="#D1D9E0" mask="url(#path-19-inside-5_711_90)"/>
<path d="M1305.55 680.668C1305.15 676.28 1308.62 672.999 1314.19 672.49C1319.47 672.01 1323.28 674.322 1324.13 678.504L1320.31 678.853C1319.64 676.678 1317.39 675.518 1314.42 675.788C1311.2 676.081 1309.26 677.764 1309.47 680.075C1309.65 682.012 1311.06 682.99 1314.29 683.401L1317.94 683.893C1322.97 684.564 1325.4 686.507 1325.74 690.172C1326.16 694.84 1322.54 698.23 1316.54 698.776C1310.8 699.299 1306.75 696.962 1305.91 692.661L1309.95 692.293C1310.75 694.574 1313.11 695.723 1316.38 695.426C1319.83 695.111 1321.88 693.347 1321.66 690.92C1321.48 688.912 1320.15 687.951 1316.86 687.521L1313.02 687C1308.35 686.367 1305.88 684.262 1305.55 680.668ZM1345.24 669.731C1351.1 669.197 1355.32 673.073 1355.91 679.585L1356.34 684.3C1356.93 690.789 1353.49 695.363 1347.63 695.896C1343.96 696.23 1341.14 694.911 1339.79 692.234L1339.34 692.274L1340.48 704.738L1336.44 705.106L1333.36 671.238L1337.28 670.881L1337.63 674.756L1338.05 674.717C1339.13 671.795 1341.63 670.061 1345.24 669.731ZM1344.43 673.477C1340.25 673.857 1337.87 677.088 1338.29 681.756L1338.62 685.397C1339.05 690.088 1341.98 692.834 1346.16 692.453C1350.34 692.072 1352.73 688.819 1352.3 684.15L1351.97 680.509C1351.54 675.841 1348.61 673.096 1344.43 673.477ZM1373.03 693.606C1368.19 694.046 1364.7 691.305 1364.28 686.707C1363.87 682.226 1366.85 679.271 1372.59 678.442L1379.51 677.458L1379.3 675.171C1379.01 671.997 1376.91 670.423 1373.39 670.744C1370.47 671.01 1368.53 672.434 1368.08 674.664L1364.18 675.019C1364.27 670.916 1367.94 667.781 1373.12 667.308C1379.08 666.766 1382.76 669.49 1383.24 674.765L1384.82 692.107L1381.04 692.452L1380.69 688.647L1380.3 688.683C1379.33 691.501 1376.71 693.27 1373.03 693.606ZM1373.85 690.024C1377.68 689.675 1380.37 686.865 1380.06 683.48L1379.79 680.493L1373.3 681.39C1369.77 681.876 1368.04 683.564 1368.28 686.201C1368.52 688.862 1370.65 690.315 1373.85 690.024ZM1414.06 671.838L1410.14 672.196C1409.38 669.276 1406.74 667.634 1403.47 667.932C1399.06 668.334 1396.88 671.568 1397.38 677.007L1397.59 679.294C1398.08 684.733 1400.8 687.497 1405.22 687.095C1408.48 686.797 1410.79 684.728 1411.02 681.789L1414.94 681.431C1414.78 686.647 1411.21 690.149 1405.61 690.66C1398.73 691.287 1394.33 687.428 1393.66 680.169L1393.36 676.855C1392.7 669.596 1396.33 665.005 1403.22 664.378C1408.82 663.867 1412.94 666.693 1414.06 671.838ZM1440.89 680.384L1444.75 680.033C1444.36 684.281 1440.6 687.471 1435.28 687.956C1428.32 688.59 1423.9 684.78 1423.25 677.568L1422.9 673.763C1422.29 667.088 1426.16 662.31 1432.6 661.723C1439.19 661.124 1443.46 665.135 1444.13 672.464L1444.35 674.938L1427.1 676.51L1427.2 677.537C1427.62 682.182 1430.65 684.919 1434.96 684.525C1438.16 684.234 1440.4 682.665 1440.89 680.384ZM1432.89 665.133C1428.67 665.518 1426.39 668.644 1426.83 673.499L1440.16 672.285C1439.72 667.453 1436.98 664.761 1432.89 665.133Z" fill="black"/>
</g>
</g>
<defs>
<filter id="filter0_d_711_90" x="339.173" y="203.32" width="1090.49" height="312.448" filterUnits="userSpaceOnUse" color-interpolation-filters="sRGB">
<feFlood flood-opacity="0" result="BackgroundImageFix"/>
<feColorMatrix in="SourceAlpha" type="matrix" values="0 0 0 0 0 0 0 0 0 0 0 0 0 0 0 0 0 0 127 0" result="hardAlpha"/>
<feOffset dy="3"/>
<feGaussianBlur stdDeviation="1.5"/>
<feComposite in2="hardAlpha" operator="out"/>
<feColorMatrix type="matrix" values="0 0 0 0 0 0 0 0 0 0 0 0 0 0 0 0 0 0 0.25 0"/>
<feBlend mode="normal" in2="BackgroundImageFix" result="effect1_dropShadow_711_90"/>
<feBlend mode="normal" in="SourceGraphic" in2="effect1_dropShadow_711_90" result="shape"/>
</filter>
<filter id="filter1_d_711_90" x="339.173" y="549.768" width="1241.65" height="332.912" filterUnits="userSpaceOnUse" color-interpolation-filters="sRGB">
<feFlood flood-opacity="0" result="BackgroundImageFix"/>
<feColorMatrix in="SourceAlpha" type="matrix" values="0 0 0 0 0 0 0 0 0 0 0 0 0 0 0 0 0 0 127 0" result="hardAlpha"/>
<feOffset dy="3"/>
<feGaussianBlur stdDeviation="1.5"/>
<feComposite in2="hardAlpha" operator="out"/>
<feColorMatrix type="matrix" values="0 0 0 0 0 0 0 0 0 0 0 0 0 0 0 0 0 0 0.25 0"/>
<feBlend mode="normal" in2="BackgroundImageFix" result="effect1_dropShadow_711_90"/>
<feBlend mode="normal" in="SourceGraphic" in2="effect1_dropShadow_711_90" result="shape"/>
</filter>
<clipPath id="clip0_711_90">
<rect x="360.47" y="203.32" width="1070" height="217" rx="18" transform="rotate(4.83682 360.47 203.32)" fill="white"/>
</clipPath>
<clipPath id="clip1_711_90">
<rect x="342.173" y="660.575" width="1221" height="217" rx="18" transform="rotate(-5.20683 342.173 660.575)" fill="white"/>
</clipPath>
</defs>
</svg>
