<svg width="1920" height="1080" viewBox="0 0 1920 1080" fill="none" xmlns="http://www.w3.org/2000/svg">
<rect width="1920" height="1080" fill="#DDDDDD"/>
<g filter="url(#filter0_d_711_90)">
<g clip-path="url(#clip0_711_90)">
<rect x="417.312" y="199.283" width="1003" height="249" rx="18" transform="rotate(4.83682 417.312 199.283)" fill="white"/>
<rect x="482.984" y="277.097" width="126" height="105" rx="18" transform="rotate(4.83682 482.984 277.097)" fill="#DDDDDD"/>
<path d="M544.903 347.295L542.181 349.722L529.52 334.515L544.556 321.651L546.834 324.478L541.193 329.152L535.857 333.287L535.849 333.38L541.703 333.687L556.043 334.901L555.73 338.591L541.438 337.381L535.568 336.696L535.562 336.766L540.126 341.763L544.903 347.295Z" fill="black"/>
<rect x="623.482" y="288.986" width="126" height="105" rx="18" transform="rotate(4.83682 623.482 288.986)" fill="#DDDDDD"/>
<path d="M675.873 358.377L681.511 353.727L686.85 349.568L686.856 349.498L680.955 349.187L666.662 347.978L666.974 344.288L681.314 345.501L687.136 346.182L687.144 346.088L682.578 341.116L677.803 335.56L680.524 333.156L693.185 348.364L678.148 361.228L675.873 358.377Z" fill="black"/>
<path d="M761.194 376.911L764.014 343.578L769.591 344.05L769.179 348.921L769.307 348.932C771.093 345.758 774.613 343.829 778.908 344.192C783.459 344.578 786.627 347.202 787.725 351.395L787.853 351.405C790.051 347.556 794.164 345.483 798.844 345.879C805.446 346.438 809.343 351.126 808.782 357.76L806.834 380.773L801.257 380.301L803.096 358.57C803.484 353.987 801.183 351.048 796.792 350.677C792.369 350.303 788.98 353.341 788.595 357.892L786.802 379.078L781.226 378.606L783.116 356.266C783.458 352.228 780.99 349.34 776.856 348.99C772.433 348.616 768.932 351.838 768.539 356.485L766.771 377.383L761.194 376.911ZM827.709 383.185C818.447 382.401 812.828 375.179 813.725 364.57L813.731 364.506C814.628 353.897 821.408 347.789 830.606 348.567C839.805 349.345 845.496 356.477 844.596 367.118L844.59 367.182C843.69 377.823 836.908 383.963 827.709 383.185ZM828.159 378.252C834.024 378.748 838.224 374.52 838.885 366.699L838.891 366.635C839.553 358.815 836.086 354.002 830.189 353.503C824.388 353.012 820.095 357.2 819.436 364.989L819.43 365.053C818.766 372.905 822.262 377.753 828.159 378.252ZM856.93 385.012L847.475 350.64L853.34 351.136L860.22 379.318L860.348 379.329L871.898 352.707L877.699 353.198L862.635 385.495L856.93 385.012ZM891.651 388.596C882.068 387.785 876.866 380.598 877.752 370.117L877.755 370.085C878.628 359.765 885.125 353.18 894.228 353.951C903.33 354.721 908.303 361.953 907.457 371.953L907.283 374.004L883.277 371.973C882.825 378.842 886.268 383.169 892.197 383.671C896.428 384.029 899.587 382.165 900.79 379.394L900.911 379.114L906.392 379.578L906.3 379.893C904.744 385.313 898.927 389.211 891.651 388.596ZM893.778 358.884C888.938 358.474 884.877 361.455 883.742 367.622L901.979 369.165C901.982 362.645 898.65 359.296 893.778 358.884ZM941.619 392.824C936.843 392.42 933.329 389.701 931.573 385.647L931.445 385.636L930.968 391.277L925.391 390.805L929.305 344.555L934.881 345.027L933.317 363.521L933.445 363.532C935.854 359.862 939.932 357.818 944.644 358.217C953.009 358.925 958.142 366.17 957.252 376.683L957.25 376.715C956.36 387.228 950.144 393.545 941.619 392.824ZM940.947 387.796C946.844 388.295 950.896 383.892 951.545 376.232L951.547 376.2C952.19 368.604 948.938 363.551 943.04 363.052C937.431 362.578 932.978 367.14 932.349 374.576L932.346 374.608C931.714 382.076 935.306 387.318 940.947 387.796ZM975.112 395.658C965.529 394.847 960.326 387.66 961.213 377.18L961.216 377.147C962.089 366.827 968.586 360.243 977.688 361.013C986.791 361.783 991.764 369.015 990.917 379.015L990.744 381.066L966.738 379.035C966.285 385.905 969.728 390.231 975.658 390.733C979.889 391.091 983.048 389.228 984.251 386.457L984.372 386.176L989.852 386.64L989.761 386.955C988.205 392.376 982.387 396.274 975.112 395.658ZM977.239 365.946C972.399 365.537 968.338 368.518 967.203 374.684L985.44 376.227C985.443 369.707 982.11 366.358 977.239 365.946ZM1005.88 398.262C999.759 397.744 996.98 394.732 997.519 388.354L999.231 368.13L994.359 367.718L994.749 363.102L999.621 363.515L1000.38 354.508L1006.15 354.996L1005.39 364.003L1011.74 364.54L1011.35 369.155L1005 368.618L1003.29 388.81C1002.99 392.368 1004.48 393.494 1007.46 393.747C1008.13 393.804 1008.78 393.762 1009.26 393.77L1008.88 398.29C1008.17 398.326 1006.97 398.354 1005.88 398.262ZM1021.51 398.939L1015.01 364.816L1020.55 365.286L1024.92 392.965L1025.05 392.976L1034.88 366.498L1040.26 366.954L1045.53 394.709L1045.66 394.72L1054.62 368.169L1060.13 368.635L1048.02 401.182L1042.35 400.702L1037 374.263L1036.87 374.252L1027.18 399.419L1021.51 398.939ZM1075.56 404.158C1065.98 403.347 1060.77 396.16 1061.66 385.679L1061.66 385.647C1062.54 375.327 1069.03 368.743 1078.14 369.513C1087.24 370.283 1092.21 377.515 1091.37 387.515L1091.19 389.566L1067.19 387.535C1066.73 394.405 1070.18 398.731 1076.11 399.233C1080.34 399.591 1083.5 397.728 1084.7 394.957L1084.82 394.676L1090.3 395.14L1090.21 395.455C1088.65 400.876 1082.84 404.773 1075.56 404.158ZM1077.69 374.446C1072.85 374.037 1068.79 377.018 1067.65 383.184L1085.89 384.727C1085.89 378.207 1082.56 374.858 1077.69 374.446ZM1109.21 407.006C1099.63 406.195 1094.43 399.008 1095.31 388.527L1095.32 388.495C1096.19 378.175 1102.69 371.59 1111.79 372.361C1120.89 373.131 1125.86 380.363 1125.02 390.363L1124.85 392.414L1100.84 390.383C1100.39 397.252 1103.83 401.579 1109.76 402.081C1113.99 402.439 1117.15 400.575 1118.35 397.804L1118.47 397.524L1123.95 397.988L1123.86 398.303C1122.31 403.723 1116.49 407.621 1109.21 407.006ZM1111.34 377.294C1106.5 376.884 1102.44 379.866 1101.3 386.032L1119.54 387.575C1119.54 381.055 1116.21 377.706 1111.34 377.294ZM1129.2 408.052L1132.02 374.718L1137.6 375.19L1137.2 379.934L1137.33 379.945C1139.39 376.988 1142.98 375 1148.04 375.428C1155.35 376.046 1159.18 381.148 1158.53 388.744L1156.7 410.379L1151.13 409.907L1152.87 389.266C1153.33 383.849 1151.05 380.654 1145.92 380.22C1140.67 379.775 1136.92 383.235 1136.44 388.908L1134.78 408.523L1129.2 408.052ZM1189.05 413.762C1181.2 413.097 1176.8 408.689 1176.63 402.671L1176.62 402.38L1182.2 402.852L1182.23 403.178C1182.62 406.568 1184.93 408.732 1189.48 409.117C1194 409.499 1196.85 407.836 1197.1 404.823L1197.11 404.791C1197.31 402.387 1196.17 400.935 1192.47 399.686L1187.29 397.956C1181.14 395.918 1178.34 392.744 1178.75 387.937L1178.75 387.904C1179.23 382.167 1184.61 378.523 1191.82 379.133C1199.13 379.751 1203.42 384.407 1203.36 390.019L1203.36 390.439L1198.04 389.989L1198.02 389.762C1197.85 386.486 1195.56 384.13 1191.43 383.78C1187.39 383.439 1184.72 385.182 1184.47 388.131L1184.47 388.163C1184.28 390.438 1185.65 392.136 1189.26 393.346L1194.44 395.075C1201.04 397.279 1203.25 400.146 1202.84 404.889L1202.84 404.921C1202.35 410.755 1196.49 414.391 1189.05 413.762ZM1208.14 414.732L1212.06 368.482L1217.64 368.954L1213.72 415.203L1208.14 414.732ZM1227.69 377.133C1225.77 376.97 1224.33 375.266 1224.49 373.343C1224.66 371.388 1226.36 369.983 1228.28 370.145C1230.24 370.311 1231.65 371.98 1231.48 373.935C1231.32 375.858 1229.65 377.298 1227.69 377.133ZM1221.61 415.871L1224.43 382.538L1230 383.009L1227.18 416.343L1221.61 415.871ZM1247.26 418.687C1238.73 417.965 1233.67 410.693 1234.55 400.18L1234.56 400.148C1235.45 389.636 1241.72 383.356 1250.09 384.064C1254.8 384.462 1258.48 387.162 1260.24 391.185L1260.36 391.195L1261.93 372.702L1267.51 373.174L1263.59 419.424L1258.02 418.952L1258.49 413.311L1258.37 413.3C1255.95 417.002 1252.03 419.091 1247.26 418.687ZM1248.76 413.843C1254.41 414.32 1258.83 409.756 1259.46 402.288L1259.46 402.256C1260.09 394.82 1256.47 389.574 1250.86 389.1C1244.96 388.601 1240.91 393.035 1240.26 400.631L1240.26 400.663C1239.61 408.323 1242.87 413.344 1248.76 413.843ZM1284.79 421.863C1275.21 421.052 1270 413.865 1270.89 403.384L1270.89 403.352C1271.77 393.032 1278.26 386.448 1287.37 387.218C1296.47 387.988 1301.44 395.22 1300.59 405.22L1300.42 407.271L1276.41 405.24C1275.96 412.11 1279.41 416.436 1285.33 416.938C1289.57 417.296 1292.73 415.433 1293.93 412.661L1294.05 412.381L1299.53 412.845L1299.44 413.16C1297.88 418.58 1292.06 422.478 1284.79 421.863ZM1286.92 392.151C1282.08 391.741 1278.01 394.723 1276.88 400.889L1295.12 402.432C1295.12 395.912 1291.79 392.563 1286.92 392.151ZM1316.55 424.55C1308.7 423.886 1304.29 419.478 1304.13 413.46L1304.12 413.169L1309.69 413.64L1309.73 413.966C1310.12 417.357 1312.43 419.521 1316.98 419.906C1321.5 420.288 1324.35 418.625 1324.6 415.612L1324.61 415.58C1324.81 413.176 1323.67 411.724 1319.97 410.475L1314.79 408.745C1308.64 406.707 1305.84 403.533 1306.24 398.725L1306.25 398.693C1306.73 392.956 1312.11 389.312 1319.32 389.922C1326.63 390.54 1330.91 395.196 1330.86 400.808L1330.86 401.228L1325.54 400.777L1325.52 400.55C1325.35 397.275 1323.06 394.919 1318.93 394.569C1314.89 394.227 1312.22 395.971 1311.97 398.92L1311.97 398.952C1311.78 401.227 1313.15 402.925 1316.76 404.135L1321.94 405.864C1328.53 408.068 1330.74 410.935 1330.34 415.678L1330.34 415.71C1329.85 421.544 1323.99 425.18 1316.55 424.55Z" fill="black"/>
</g>
</g>
<g filter="url(#filter1_d_711_90)">
<g clip-path="url(#clip1_711_90)">
<rect x="574.605" y="675.925" width="1111" height="249" rx="18" transform="rotate(-5.20683 574.605 675.925)" fill="white"/>
<path d="M660.472 816.211L673.092 769.78L678.631 769.276L699.405 812.663L693.523 813.199L687.808 800.76L669.726 802.408L666.354 815.675L660.472 816.211ZM676.412 776.256L671.004 797.49L685.693 796.152L676.536 776.245L676.412 776.256ZM704.011 812.243L699.918 767.336L705.333 766.842L709.426 811.75L704.011 812.243ZM728.279 810.66C720.655 811.354 715.694 807.884 714.513 802.155L714.457 801.878L719.872 801.384L719.962 801.69C720.911 804.867 723.48 806.547 727.899 806.144C732.287 805.744 734.734 803.67 734.468 800.745L734.465 800.713C734.252 798.379 732.919 797.183 729.165 796.615L723.916 795.838C717.683 794.931 714.469 792.369 714.043 787.7L714.041 787.669C713.533 782.099 718.059 777.701 725.061 777.063C732.157 776.416 737.046 780.144 737.944 785.522L738.012 785.924L732.846 786.395L732.795 786.18C732.073 783.076 729.487 781.21 725.472 781.576C721.551 781.933 719.296 784.052 719.557 786.916L719.56 786.947C719.762 789.156 721.363 790.548 725.022 791.093L730.27 791.87C736.95 792.862 739.551 795.229 739.97 799.835L739.973 799.866C740.489 805.53 735.5 810.002 728.279 810.66ZM759.898 807.778C750.904 808.598 744.305 802.641 743.367 792.34L743.361 792.278C742.422 781.976 747.873 774.984 756.804 774.17C765.736 773.356 772.389 779.214 773.331 789.546L773.336 789.609C774.278 799.941 768.83 806.964 759.898 807.778ZM759.493 802.983C765.188 802.464 768.489 797.707 767.797 790.114L767.791 790.051C767.099 782.458 762.967 778.441 757.241 778.963C751.608 779.476 748.211 784.21 748.901 791.773L748.906 791.835C749.601 799.46 753.767 803.505 759.493 802.983Z" fill="black"/>
<rect x="785.294" y="729.024" width="213" height="105" rx="18" transform="rotate(-5.20683 785.294 729.024)" fill="#DDDDDD"/>
<path d="M827.385 776.839C826.985 772.45 830.451 769.169 836.03 768.661C841.305 768.18 845.116 770.492 845.968 774.674L842.14 775.023C841.471 772.848 839.224 771.688 836.26 771.958C833.039 772.252 831.097 773.935 831.308 776.246C831.485 778.183 832.892 779.161 836.13 779.572L839.775 780.063C844.802 780.735 847.239 782.678 847.573 786.343C847.998 791.011 844.377 794.4 838.378 794.947C832.636 795.47 828.587 793.133 827.748 788.832L831.786 788.464C832.582 790.745 834.946 791.894 838.214 791.596C841.668 791.282 843.72 789.518 843.499 787.09C843.316 785.083 841.981 784.122 838.694 783.692L834.857 783.171C830.187 782.537 827.712 780.433 827.385 776.839ZM867.079 765.902C872.938 765.368 877.151 769.244 877.744 775.756L878.174 780.471C878.765 786.96 875.322 791.533 869.464 792.067C865.799 792.401 862.973 791.082 861.622 788.404L861.179 788.445L862.315 800.909L858.277 801.276L855.191 767.409L859.112 767.052L859.465 770.926L859.885 770.888C860.96 767.966 863.462 766.232 867.079 765.902ZM866.268 769.647C862.09 770.028 859.701 773.258 860.126 777.926L860.458 781.568C860.886 786.259 863.819 789.004 867.997 788.623C872.175 788.243 874.561 784.989 874.136 780.321L873.804 776.68C873.379 772.012 870.446 769.267 866.268 769.647ZM894.861 789.776C890.029 790.216 886.532 787.476 886.113 782.878C885.704 778.396 888.683 775.442 894.42 774.613L901.344 773.629L901.135 771.342C900.846 768.167 898.749 766.593 895.225 766.914C892.307 767.18 890.366 768.605 889.91 770.835L886.012 771.19C886.109 767.086 889.777 763.951 894.959 763.479C900.911 762.937 904.595 765.66 905.076 770.935L906.656 788.278L902.875 788.622L902.528 784.818L902.131 784.854C901.164 787.672 898.549 789.44 894.861 789.776ZM895.687 786.194C899.515 785.845 902.201 783.035 901.893 779.651L901.62 776.663L895.136 777.56C891.603 778.047 889.874 779.734 890.114 782.372C890.357 785.033 892.49 786.486 895.687 786.194ZM935.898 768.009L931.977 768.366C931.217 765.447 928.573 763.805 925.305 764.103C920.893 764.505 918.717 767.739 919.213 773.177L919.421 775.465C919.917 780.903 922.64 783.668 927.051 783.266C930.319 782.968 932.625 780.898 932.851 777.959L936.773 777.602C936.612 782.818 933.048 786.32 927.447 786.83C920.561 787.458 916.161 783.599 915.5 776.34L915.198 773.026C914.536 765.767 918.166 761.176 925.052 760.549C930.653 760.038 934.77 762.864 935.898 768.009ZM962.73 776.555L966.581 776.204C966.192 780.452 962.434 783.642 957.113 784.127C950.157 784.761 945.738 780.951 945.081 773.738L944.734 769.934C944.126 763.258 947.998 758.481 954.44 757.894C961.022 757.294 965.294 761.306 965.962 768.635L966.187 771.109L948.939 772.681L949.032 773.708C949.455 778.353 952.482 781.089 956.8 780.696C959.998 780.404 962.232 778.836 962.73 776.555ZM954.727 761.304C950.502 761.689 948.222 764.815 948.664 769.67L961.992 768.455C961.552 763.624 958.812 760.932 954.727 761.304Z" fill="black"/>
<path d="M1032.67 783.442C1026.04 784.046 1021.22 780.448 1020.67 774.394L1020.66 774.33C1020.14 768.66 1024.24 764.701 1031.86 763.555L1041.35 762.141L1041.1 759.354C1040.73 755.286 1037.84 753.062 1033.2 753.485C1028.91 753.876 1026.4 756.171 1026.03 759.209L1025.99 759.503L1020.61 759.993L1020.61 759.638C1020.59 754.117 1024.96 749.261 1032.81 748.546C1040.69 747.828 1046.01 751.639 1046.62 758.302L1048.72 781.333L1043.15 781.841L1042.65 776.427L1042.52 776.439C1040.9 780.269 1037.12 783.036 1032.67 783.442ZM1026.37 773.874C1026.66 777.077 1029.47 778.856 1033.47 778.491C1038.73 778.013 1042.43 774.025 1041.99 769.188L1041.75 766.465L1032.89 767.821C1028.46 768.483 1026.08 770.703 1026.36 773.81L1026.37 773.874ZM1055.8 780.688L1052.76 747.374L1058.34 746.866L1058.77 751.607L1058.9 751.595C1060.41 748.324 1063.6 745.741 1068.66 745.28C1075.96 744.614 1080.62 748.97 1081.31 756.561L1083.28 778.183L1077.71 778.691L1075.83 758.062C1075.34 752.649 1072.53 749.9 1067.41 750.367C1062.16 750.846 1059.07 754.906 1059.59 760.576L1061.37 780.18L1055.8 780.688ZM1102.98 777.035C1094.46 777.811 1088.2 771.534 1087.24 761.027L1087.24 760.995C1086.28 750.488 1091.37 743.21 1099.73 742.448C1104.44 742.019 1108.53 744.036 1110.96 747.69L1111.09 747.679L1109.41 729.196L1114.98 728.688L1119.19 774.911L1113.62 775.419L1113.1 769.781L1112.98 769.793C1111.25 773.859 1107.75 776.6 1102.98 777.035ZM1103.62 772.002C1109.26 771.489 1112.81 766.223 1112.13 758.759L1112.13 758.727C1111.45 751.295 1106.97 746.762 1101.36 747.273C1095.47 747.81 1092.25 752.884 1092.94 760.476L1092.95 760.508C1093.64 768.163 1097.72 772.54 1103.62 772.002Z" fill="black"/>
<rect x="1131.86" y="697.442" width="213" height="105" rx="18" transform="rotate(-5.20683 1131.86 697.442)" fill="#DDDDDD"/>
<path d="M1173.95 745.257C1173.55 740.869 1177.02 737.588 1182.59 737.079C1187.87 736.599 1191.68 738.911 1192.53 743.093L1188.7 743.442C1188.04 741.267 1185.79 740.107 1182.82 740.377C1179.6 740.67 1177.66 742.353 1177.87 744.664C1178.05 746.602 1179.46 747.579 1182.69 747.99L1186.34 748.482C1191.37 749.153 1193.8 751.097 1194.14 754.761C1194.56 759.429 1190.94 762.819 1184.94 763.365C1179.2 763.889 1175.15 761.551 1174.31 757.25L1178.35 756.882C1179.15 759.163 1181.51 760.313 1184.78 760.015C1188.23 759.7 1190.28 757.936 1190.06 755.509C1189.88 753.502 1188.55 752.541 1185.26 752.111L1181.42 751.589C1176.75 750.956 1174.28 748.852 1173.95 745.257ZM1204.02 761.157L1200.8 725.889L1204.63 725.54L1205.94 739.964L1206.27 739.935C1207.31 736.662 1210.07 734.623 1213.94 734.27C1219.45 733.768 1222.74 736.81 1223.29 742.855L1224.79 759.264L1220.82 759.625L1219.42 744.22C1219 739.669 1216.94 737.668 1212.97 738.03C1208.79 738.411 1206.23 741.586 1206.63 745.904L1207.98 760.795L1204.02 761.157ZM1241.52 725.944C1239.65 726.114 1238.1 724.843 1237.93 722.976C1237.76 721.132 1239.06 719.602 1240.93 719.431C1242.8 719.261 1244.35 720.532 1244.52 722.376C1244.69 724.243 1243.39 725.773 1241.52 725.944ZM1255.02 756.509L1234.03 758.421L1233.73 755.13L1242.41 754.339L1240.71 735.596L1232.09 736.381L1231.79 733.09L1244.33 731.948L1246.34 753.982L1254.72 753.218L1255.02 756.509ZM1269.77 755.165L1267.77 733.295L1260.98 733.914L1260.67 730.529L1267.47 729.91L1267.23 727.366C1266.79 722.464 1269.61 719.901 1275.84 719.333C1277.32 719.199 1280.85 718.994 1281.7 719.034L1282 722.279C1280.89 722.262 1277.61 722.466 1276.19 722.596C1272.66 722.917 1270.92 724.395 1271.15 726.939L1271.39 729.553L1282.57 728.534L1282.88 731.918L1271.74 732.933L1273.73 754.803L1269.77 755.165ZM1295.81 720.408L1299.73 720.051L1300.35 726.913L1310.62 725.977L1310.93 729.362L1300.71 730.293L1302.01 744.578C1302.26 747.332 1304.33 748.649 1307.9 748.324C1309.33 748.194 1311.87 747.892 1312.54 747.761L1312.84 751.122C1312.22 751.296 1309.15 751.693 1307.94 751.804C1301.66 752.376 1298.53 750.261 1298.05 744.986L1296.74 730.655L1289.99 731.27L1289.69 727.885L1296.43 727.271L1295.81 720.408Z" fill="black"/>
<path d="M1380.67 731.856L1381.63 742.406L1377.99 742.737L1377.03 732.187L1366.41 733.155L1366.07 729.467L1376.69 728.499L1375.73 717.926L1379.37 717.594L1380.34 728.168L1390.96 727.2L1391.29 730.888L1380.67 731.856Z" fill="black"/>
<rect x="1403.73" y="672.667" width="213" height="105" rx="18" transform="rotate(-5.20683 1403.73 672.667)" fill="#DDDDDD"/>
<path d="M1445.82 720.482C1445.42 716.094 1448.89 712.813 1454.47 712.304C1459.74 711.824 1463.55 714.136 1464.41 718.318L1460.58 718.667C1459.91 716.492 1457.66 715.332 1454.7 715.602C1451.48 715.895 1449.53 717.578 1449.75 719.889C1449.92 721.826 1451.33 722.804 1454.57 723.215L1458.21 723.707C1463.24 724.378 1465.68 726.321 1466.01 729.986C1466.44 734.654 1462.81 738.044 1456.82 738.59C1451.07 739.114 1447.02 736.776 1446.19 732.475L1450.22 732.107C1451.02 734.388 1453.38 735.538 1456.65 735.24C1460.11 734.925 1462.16 733.161 1461.94 730.734C1461.75 728.726 1460.42 727.766 1457.13 727.336L1453.29 726.814C1448.62 726.181 1446.15 724.076 1445.82 720.482ZM1485.52 709.545C1491.38 709.012 1495.59 712.887 1496.18 719.4L1496.61 724.114C1497.2 730.603 1493.76 735.177 1487.9 735.71C1484.24 736.044 1481.41 734.725 1480.06 732.048L1479.62 732.088L1480.75 744.552L1476.71 744.92L1473.63 711.052L1477.55 710.695L1477.9 714.57L1478.32 714.531C1479.4 711.609 1481.9 709.875 1485.52 709.545ZM1484.71 713.291C1480.53 713.672 1478.14 716.902 1478.56 721.57L1478.9 725.211C1479.32 729.902 1482.26 732.648 1486.43 732.267C1490.61 731.886 1493 728.633 1492.57 723.965L1492.24 720.323C1491.82 715.655 1488.88 712.91 1484.71 713.291ZM1513.3 733.42C1508.47 733.86 1504.97 731.119 1504.55 726.521C1504.14 722.04 1507.12 719.085 1512.86 718.256L1519.78 717.272L1519.57 714.985C1519.28 711.811 1517.19 710.237 1513.66 710.558C1510.74 710.824 1508.8 712.248 1508.35 714.478L1504.45 714.833C1504.55 710.73 1508.21 707.595 1513.4 707.123C1519.35 706.58 1523.03 709.304 1523.51 714.579L1525.09 731.921L1521.31 732.266L1520.97 728.461L1520.57 728.497C1519.6 731.315 1516.99 733.084 1513.3 733.42ZM1514.12 729.838C1517.95 729.489 1520.64 726.679 1520.33 723.294L1520.06 720.307L1513.57 721.204C1510.04 721.69 1508.31 723.378 1508.55 726.015C1508.79 728.676 1510.93 730.129 1514.12 729.838ZM1554.34 711.652L1550.41 712.01C1549.65 709.09 1547.01 707.448 1543.74 707.746C1539.33 708.148 1537.15 711.382 1537.65 716.821L1537.86 719.108C1538.35 724.547 1541.08 727.311 1545.49 726.909C1548.76 726.611 1551.06 724.542 1551.29 721.603L1555.21 721.246C1555.05 726.461 1551.49 729.963 1545.88 730.474C1539 731.101 1534.6 727.242 1533.94 719.983L1533.64 716.669C1532.97 709.41 1536.6 704.819 1543.49 704.192C1549.09 703.682 1553.21 706.507 1554.34 711.652ZM1581.17 720.198L1585.02 719.847C1584.63 724.095 1580.87 727.285 1575.55 727.77C1568.59 728.404 1564.18 724.594 1563.52 717.382L1563.17 713.577C1562.56 706.902 1566.44 702.125 1572.88 701.537C1579.46 700.938 1583.73 704.949 1584.4 712.278L1584.62 714.752L1567.38 716.324L1567.47 717.351C1567.89 721.996 1570.92 724.733 1575.24 724.339C1578.44 724.048 1580.67 722.479 1581.17 720.198ZM1573.16 704.947C1568.94 705.332 1566.66 708.458 1567.1 713.313L1580.43 712.099C1579.99 707.267 1577.25 704.575 1573.16 704.947Z" fill="black"/>
</g>
</g>
<defs>
<filter id="filter0_d_711_90" x="393.316" y="199.283" width="1026.42" height="338.684" filterUnits="userSpaceOnUse" color-interpolation-filters="sRGB">
<feFlood flood-opacity="0" result="BackgroundImageFix"/>
<feColorMatrix in="SourceAlpha" type="matrix" values="0 0 0 0 0 0 0 0 0 0 0 0 0 0 0 0 0 0 127 0" result="hardAlpha"/>
<feOffset dy="3"/>
<feGaussianBlur stdDeviation="1.5"/>
<feComposite in2="hardAlpha" operator="out"/>
<feColorMatrix type="matrix" values="0 0 0 0 0 0 0 0 0 0 0 0 0 0 0 0 0 0 0.25 0"/>
<feBlend mode="normal" in2="BackgroundImageFix" result="effect1_dropShadow_711_90"/>
<feBlend mode="normal" in="SourceGraphic" in2="effect1_dropShadow_711_90" result="shape"/>
</filter>
<filter id="filter1_d_711_90" x="571.605" y="575.1" width="1135.01" height="354.797" filterUnits="userSpaceOnUse" color-interpolation-filters="sRGB">
<feFlood flood-opacity="0" result="BackgroundImageFix"/>
<feColorMatrix in="SourceAlpha" type="matrix" values="0 0 0 0 0 0 0 0 0 0 0 0 0 0 0 0 0 0 127 0" result="hardAlpha"/>
<feOffset dy="3"/>
<feGaussianBlur stdDeviation="1.5"/>
<feComposite in2="hardAlpha" operator="out"/>
<feColorMatrix type="matrix" values="0 0 0 0 0 0 0 0 0 0 0 0 0 0 0 0 0 0 0.25 0"/>
<feBlend mode="normal" in2="BackgroundImageFix" result="effect1_dropShadow_711_90"/>
<feBlend mode="normal" in="SourceGraphic" in2="effect1_dropShadow_711_90" result="shape"/>
</filter>
<clipPath id="clip0_711_90">
<rect x="417.312" y="199.283" width="1003" height="249" rx="18" transform="rotate(4.83682 417.312 199.283)" fill="white"/>
</clipPath>
<clipPath id="clip1_711_90">
<rect x="574.605" y="675.925" width="1111" height="249" rx="18" transform="rotate(-5.20683 574.605 675.925)" fill="white"/>
</clipPath>
</defs>
</svg>
