<svg width="1920" height="1080" viewBox="0 0 1920 1080" fill="none" xmlns="http://www.w3.org/2000/svg">
<rect width="1920" height="1080" fill="#DDDDDD"/>
<g filter="url(#filter0_d_711_90)">
<g clip-path="url(#clip0_711_90)">
<rect x="374.297" y="207" width="1003" height="217" rx="18" transform="rotate(4.83682 374.297 207)" fill="white"/>
<rect x="441.319" y="268.871" width="126" height="105" rx="18" transform="rotate(4.83682 441.319 268.871)" fill="#DDDDDD"/>
<rect x="442.231" y="269.952" width="124" height="103" rx="17" transform="rotate(4.83682 442.231 269.952)" stroke="black" stroke-opacity="0.2" stroke-width="2"/>
<path d="M503.238 339.069L500.515 341.496L487.854 326.289L502.891 313.425L505.168 316.252L499.528 320.926L494.191 325.061L494.183 325.154L500.038 325.462L514.377 326.675L514.065 330.365L499.772 329.155L493.903 328.471L493.897 328.541L498.46 333.537L503.238 339.069Z" fill="black"/>
<rect x="581.817" y="280.76" width="126" height="105" rx="18" transform="rotate(4.83682 581.817 280.76)" fill="#DDDDDD"/>
<rect x="582.729" y="281.841" width="124" height="103" rx="17" transform="rotate(4.83682 582.729 281.841)" stroke="black" stroke-opacity="0.2" stroke-width="2"/>
<path d="M634.207 350.151L639.846 345.501L645.184 341.343L645.19 341.272L639.289 340.961L624.996 339.752L625.309 336.062L639.648 337.275L645.471 337.956L645.479 337.863L640.913 332.89L636.138 327.335L638.858 324.93L651.519 340.138L636.483 353.002L634.207 350.151Z" fill="black"/>
<path d="M719.528 368.685L722.349 335.352L727.926 335.824L727.513 340.696L727.642 340.706C729.427 337.533 732.948 335.603 737.243 335.967C741.794 336.352 744.961 338.976 746.059 343.169L746.187 343.18C748.385 339.331 752.499 337.258 757.178 337.654C763.781 338.212 767.677 342.9 767.116 349.534L765.169 372.547L759.592 372.075L761.431 350.345C761.819 345.761 759.517 342.823 755.126 342.451C750.703 342.077 747.315 345.115 746.93 349.666L745.137 370.852L739.56 370.38L741.45 348.041C741.792 344.002 739.325 341.114 735.19 340.764C730.767 340.39 727.267 343.612 726.873 348.26L725.105 369.157L719.528 368.685ZM786.044 374.959C776.781 374.175 771.162 366.953 772.06 356.344L772.065 356.28C772.963 345.671 779.742 339.563 788.941 340.341C798.139 341.12 803.831 348.251 802.93 358.892L802.925 358.956C802.024 369.597 795.242 375.738 786.044 374.959ZM786.494 370.026C792.359 370.522 796.558 366.294 797.22 358.473L797.225 358.409C797.887 350.589 794.421 345.776 788.523 345.277C782.722 344.786 778.429 348.975 777.77 356.763L777.765 356.827C777.1 364.68 780.596 369.527 786.494 370.026ZM815.264 376.786L805.81 342.414L811.675 342.911L818.555 371.093L818.683 371.104L830.232 344.481L836.034 344.972L820.97 377.269L815.264 376.786ZM849.986 380.37C840.402 379.559 835.2 372.372 836.087 361.891L836.09 361.859C836.963 351.539 843.46 344.955 852.562 345.725C861.665 346.495 866.637 353.727 865.791 363.727L865.617 365.778L841.611 363.747C841.159 370.617 844.602 374.943 850.531 375.445C854.762 375.803 857.922 373.94 859.125 371.169L859.245 370.888L864.726 371.352L864.635 371.667C863.079 377.088 857.261 380.986 849.986 380.37ZM852.112 350.658C847.273 350.249 843.211 353.23 842.076 359.396L860.313 360.939C860.316 354.419 856.984 351.07 852.112 350.658ZM899.953 384.598C895.177 384.194 891.663 381.476 889.908 377.421L889.78 377.41L889.302 383.051L883.725 382.579L887.639 336.33L893.216 336.802L891.651 355.295L891.779 355.306C894.188 351.636 898.267 349.592 902.978 349.991C911.344 350.699 916.476 357.945 915.587 368.457L915.584 368.489C914.695 379.002 908.479 385.32 899.953 384.598ZM899.281 379.57C905.178 380.069 909.231 375.667 909.879 368.007L909.882 367.975C910.525 360.378 907.272 355.326 901.375 354.827C895.766 354.352 891.312 358.914 890.683 366.35L890.68 366.382C890.049 373.85 893.64 379.093 899.281 379.57ZM933.446 387.432C923.863 386.621 918.661 379.435 919.548 368.954L919.55 368.922C920.424 358.601 926.92 352.017 936.023 352.787C945.125 353.558 950.098 360.79 949.252 370.789L949.078 372.841L925.072 370.809C924.62 377.679 928.063 382.006 933.992 382.507C938.223 382.865 941.383 381.002 942.586 378.231L942.706 377.951L948.187 378.414L948.096 378.73C946.539 384.15 940.722 388.048 933.446 387.432ZM935.573 357.721C930.733 357.311 926.672 360.292 925.537 366.459L943.774 368.002C943.777 361.481 940.445 358.133 935.573 357.721ZM964.215 390.036C958.094 389.518 955.314 386.507 955.854 380.128L957.565 359.904L952.693 359.492L953.084 354.877L957.956 355.289L958.718 346.283L964.487 346.771L963.725 355.777L970.071 356.314L969.68 360.929L963.334 360.392L961.626 380.585C961.325 384.142 962.811 385.269 965.792 385.521C966.465 385.578 967.114 385.536 967.597 385.545L967.215 390.064C966.502 390.1 965.305 390.128 964.215 390.036ZM979.846 390.713L973.34 356.591L978.885 357.06L983.257 384.739L983.385 384.75L993.212 358.272L998.596 358.728L1003.87 386.483L1003.99 386.494L1012.96 359.943L1018.47 360.409L1006.35 392.956L1000.68 392.476L995.331 366.038L995.203 366.027L985.519 391.193L979.846 390.713ZM1033.89 395.932C1024.31 395.121 1019.11 387.934 1020 377.454L1020 377.422C1020.87 367.101 1027.37 360.517 1036.47 361.287C1045.57 362.057 1050.55 369.289 1049.7 379.289L1049.53 381.341L1025.52 379.309C1025.07 386.179 1028.51 390.505 1034.44 391.007C1038.67 391.365 1041.83 389.502 1043.03 386.731L1043.15 386.45L1048.63 386.914L1048.54 387.229C1046.99 392.65 1041.17 396.548 1033.89 395.932ZM1036.02 366.22C1031.18 365.811 1027.12 368.792 1025.98 374.958L1044.22 376.502C1044.22 369.981 1040.89 366.633 1036.02 366.22ZM1067.55 398.78C1057.96 397.969 1052.76 390.782 1053.65 380.301L1053.65 380.269C1054.52 369.949 1061.02 363.365 1070.12 364.135C1079.23 364.905 1084.2 372.137 1083.35 382.137L1083.18 384.188L1059.17 382.157C1058.72 389.027 1062.16 393.353 1068.09 393.855C1072.32 394.213 1075.48 392.35 1076.69 389.579L1076.81 389.298L1082.29 389.762L1082.2 390.077C1080.64 395.498 1074.82 399.396 1067.55 398.78ZM1069.67 369.068C1064.83 368.659 1060.77 371.64 1059.64 377.806L1077.88 379.349C1077.88 372.829 1074.55 369.48 1069.67 369.068ZM1087.54 399.826L1090.36 366.493L1095.94 366.965L1095.53 371.708L1095.66 371.719C1097.72 368.762 1101.31 366.774 1106.37 367.202C1113.68 367.821 1117.51 372.922 1116.87 380.518L1115.04 402.153L1109.46 401.681L1111.21 381.04C1111.67 375.623 1109.39 372.428 1104.26 371.995C1099 371.55 1095.25 375.009 1094.77 380.683L1093.11 400.298L1087.54 399.826ZM1147.39 405.536C1139.53 404.871 1135.13 400.464 1134.96 394.445L1134.95 394.154L1140.53 394.626L1140.57 394.952C1140.96 398.342 1143.26 400.506 1147.81 400.891C1152.33 401.274 1155.18 399.61 1155.44 396.598L1155.44 396.566C1155.64 394.162 1154.51 392.71 1150.81 391.46L1145.63 389.731C1139.47 387.693 1136.67 384.518 1137.08 379.711L1137.08 379.679C1137.57 373.942 1142.94 370.297 1150.16 370.907C1157.46 371.526 1161.75 376.182 1161.69 381.794L1161.69 382.213L1156.37 381.763L1156.36 381.536C1156.18 378.261 1153.9 375.904 1149.76 375.555C1145.72 375.213 1143.06 376.956 1142.81 379.905L1142.81 379.937C1142.61 382.213 1143.99 383.911 1147.6 385.12L1152.78 386.85C1159.37 389.054 1161.58 391.92 1161.18 396.664L1161.18 396.696C1160.68 402.529 1154.82 406.165 1147.39 405.536ZM1166.48 406.506L1170.39 360.256L1175.97 360.728L1172.06 406.978L1166.48 406.506ZM1186.03 368.907C1184.1 368.744 1182.67 367.041 1182.83 365.118C1182.99 363.163 1184.7 361.757 1186.62 361.92C1188.57 362.085 1189.98 363.754 1189.82 365.709C1189.65 367.632 1187.98 369.072 1186.03 368.907ZM1179.94 407.645L1182.76 374.312L1188.34 374.784L1185.52 408.117L1179.94 407.645ZM1205.59 410.461C1197.07 409.74 1192 402.467 1192.89 391.955L1192.89 391.923C1193.78 381.41 1200.06 375.13 1208.42 375.838C1213.14 376.237 1216.81 378.936 1218.57 382.959L1218.7 382.97L1220.26 364.476L1225.84 364.948L1221.93 411.198L1216.35 410.726L1216.83 405.085L1216.7 405.074C1214.29 408.776 1210.37 410.865 1205.59 410.461ZM1207.1 405.617C1212.74 406.095 1217.16 401.53 1217.79 394.062L1217.8 394.03C1218.42 386.594 1214.8 381.349 1209.19 380.874C1203.3 380.375 1199.24 384.809 1198.6 392.405L1198.59 392.438C1197.95 400.098 1201.2 405.118 1207.1 405.617ZM1243.12 413.637C1233.54 412.826 1228.34 405.639 1229.22 395.159L1229.23 395.126C1230.1 384.806 1236.6 378.222 1245.7 378.992C1254.8 379.762 1259.77 386.994 1258.93 396.994L1258.75 399.045L1234.75 397.014C1234.3 403.884 1237.74 408.21 1243.67 408.712C1247.9 409.07 1251.06 407.207 1252.26 404.436L1252.38 404.155L1257.86 404.619L1257.77 404.934C1256.22 410.355 1250.4 414.253 1243.12 413.637ZM1245.25 383.925C1240.41 383.516 1236.35 386.497 1235.21 392.663L1253.45 394.206C1253.45 387.686 1250.12 384.337 1245.25 383.925ZM1274.89 416.325C1267.03 415.66 1262.63 411.252 1262.46 405.234L1262.45 404.943L1268.03 405.415L1268.07 405.741C1268.46 409.131 1270.76 411.295 1275.31 411.68C1279.83 412.062 1282.68 410.399 1282.94 407.386L1282.94 407.354C1283.14 404.951 1282.01 403.499 1278.3 402.249L1273.12 400.52C1266.97 398.482 1264.17 395.307 1264.58 390.5L1264.58 390.468C1265.07 384.731 1270.44 381.086 1277.65 381.696C1284.96 382.314 1289.25 386.97 1289.19 392.583L1289.19 393.002L1283.87 392.552L1283.86 392.325C1283.68 389.05 1281.4 386.693 1277.26 386.343C1273.22 386.002 1270.56 387.745 1270.31 390.694L1270.31 390.726C1270.11 393.002 1271.49 394.7 1275.1 395.909L1280.28 397.638C1286.87 399.843 1289.08 402.709 1288.68 407.453L1288.67 407.485C1288.18 413.318 1282.32 416.954 1274.89 416.325Z" fill="black"/>
</g>
</g>
<g filter="url(#filter1_d_711_90)">
<g clip-path="url(#clip1_711_90)">
<rect x="356" y="657.335" width="1207" height="217" rx="18" transform="rotate(-5.20683 356 657.335)" fill="white"/>
<path d="M440.415 781.688L453.034 735.257L458.574 734.752L479.347 778.14L473.465 778.676L467.75 766.237L449.669 767.884L446.297 781.152L440.415 781.688ZM456.355 741.732L450.947 762.967L465.636 761.628L456.479 741.721L456.355 741.732ZM483.953 777.72L479.861 732.812L485.276 732.319L489.368 777.227L483.953 777.72ZM508.222 776.136C500.597 776.831 495.637 773.36 494.456 767.631L494.399 767.354L499.814 766.861L499.905 767.166C500.853 770.343 503.423 772.023 507.842 771.621C512.23 771.221 514.677 769.146 514.41 766.221L514.407 766.19C514.195 763.856 512.862 762.659 509.107 762.091L503.859 761.315C497.626 760.408 494.411 757.845 493.986 753.177L493.983 753.146C493.475 747.575 498.001 743.178 505.004 742.539C512.099 741.893 516.989 745.621 517.887 750.999L517.955 751.401L512.789 751.871L512.738 751.656C512.016 748.553 509.429 746.686 505.415 747.052C501.493 747.409 499.239 749.529 499.5 752.392L499.503 752.423C499.704 754.633 501.306 756.024 504.964 756.57L510.213 757.347C516.893 758.338 519.493 760.706 519.913 765.312L519.916 765.343C520.432 771.007 515.442 775.478 508.222 776.136ZM539.841 773.255C530.847 774.074 524.248 768.117 523.309 757.816L523.304 757.754C522.365 747.453 527.815 740.461 536.747 739.647C545.679 738.833 552.332 744.691 553.273 755.023L553.279 755.085C554.22 765.417 548.773 772.441 539.841 773.255ZM539.435 768.459C545.131 767.94 548.431 763.184 547.739 755.59L547.734 755.528C547.042 747.934 542.91 743.918 537.184 744.439C531.551 744.953 528.154 749.687 528.843 757.249L528.849 757.311C529.544 764.936 533.709 768.981 539.435 768.459Z" fill="black"/>
<rect x="565.236" y="694.5" width="245" height="105" rx="18" transform="rotate(-5.20683 565.236 694.5)" fill="#DDDDDD"/>
<rect x="566.323" y="695.405" width="243" height="103" rx="17" transform="rotate(-5.20683 566.323 695.405)" stroke="black" stroke-opacity="0.2" stroke-width="2"/>
<path d="M623.261 740.863C622.861 736.475 626.328 733.194 631.906 732.685C637.181 732.205 640.993 734.517 641.845 738.699L638.017 739.048C637.348 736.873 635.1 735.713 632.136 735.983C628.915 736.276 626.974 737.959 627.185 740.27C627.361 742.207 628.768 743.185 632.006 743.596L635.652 744.088C640.679 744.759 643.115 746.703 643.449 750.367C643.875 755.035 640.253 758.425 634.255 758.971C628.513 759.495 624.464 757.157 623.625 752.856L627.663 752.488C628.459 754.769 630.823 755.919 634.091 755.621C637.545 755.306 639.596 753.542 639.375 751.115C639.192 749.108 637.857 748.147 634.57 747.717L630.734 747.195C626.063 746.562 623.589 744.457 623.261 740.863ZM662.956 729.926C668.814 729.393 673.027 733.268 673.621 739.781L674.05 744.495C674.642 750.984 671.199 755.558 665.34 756.091C661.676 756.425 658.849 755.106 657.499 752.429L657.055 752.469L658.191 764.933L654.153 765.301L651.067 731.433L654.988 731.076L655.341 734.951L655.762 734.912C656.837 731.99 659.338 730.256 662.956 729.926ZM662.144 733.672C657.966 734.053 655.577 737.283 656.003 741.951L656.335 745.592C656.762 750.284 659.695 753.029 663.873 752.648C668.051 752.267 670.438 749.014 670.012 744.346L669.681 740.704C669.255 736.036 666.322 733.291 662.144 733.672ZM690.737 753.801C685.906 754.241 682.408 751.5 681.989 746.902C681.581 742.421 684.559 739.466 690.297 738.637L697.22 737.653L697.012 735.366C696.723 732.192 694.626 730.618 691.101 730.939C688.184 731.205 686.243 732.629 685.787 734.859L681.889 735.214C681.986 731.111 685.654 727.976 690.835 727.504C696.787 726.961 700.472 729.685 700.952 734.96L702.533 752.302L698.751 752.647L698.405 748.842L698.008 748.878C697.041 751.696 694.425 753.465 690.737 753.801ZM691.564 750.219C695.392 749.87 698.078 747.06 697.769 743.675L697.497 740.688L691.013 741.585C687.48 742.071 685.751 743.759 685.991 746.396C686.233 749.057 688.366 750.51 691.564 750.219ZM731.775 732.034L727.854 732.391C727.093 729.471 724.449 727.829 721.181 728.127C716.77 728.529 714.594 731.763 715.089 737.202L715.298 739.489C715.793 744.928 718.516 747.692 722.928 747.29C726.195 746.992 728.501 744.923 728.728 741.984L732.649 741.627C732.489 746.842 728.925 750.344 723.323 750.855C716.438 751.482 712.038 747.623 711.376 740.364L711.074 737.05C710.413 729.791 714.043 725.2 720.928 724.573C726.53 724.063 730.647 726.888 731.775 732.034ZM758.606 740.579L762.458 740.228C762.068 744.476 758.311 747.666 752.989 748.151C746.034 748.785 741.615 744.975 740.958 737.763L740.611 733.958C740.003 727.283 743.874 722.506 750.316 721.918C756.898 721.319 761.171 725.33 761.839 732.659L762.064 735.133L744.815 736.705L744.909 737.732C745.332 742.377 748.358 745.114 752.677 744.72C755.874 744.429 758.108 742.86 758.606 740.579ZM750.603 725.328C746.379 725.713 744.098 728.839 744.541 733.694L757.868 732.48C757.428 727.648 754.688 724.956 750.603 725.328Z" fill="black"/>
<path d="M844.476 746.015C837.846 746.619 833.028 743.02 832.477 736.966L832.471 736.902C831.954 731.232 836.051 727.274 843.666 726.128L853.162 724.713L852.908 721.926C852.537 717.858 849.653 715.634 845.009 716.057C840.716 716.448 838.212 718.744 837.843 721.781L837.805 722.075L832.424 722.566L832.424 722.21C832.405 716.689 836.775 711.834 844.623 711.118C852.503 710.4 857.825 714.211 858.432 720.874L860.531 743.906L854.957 744.413L854.464 739L854.335 739.012C852.714 742.841 848.929 745.609 844.476 746.015ZM838.178 736.447C838.47 739.65 841.281 741.429 845.285 741.064C850.538 740.585 854.245 736.597 853.804 731.761L853.556 729.038L844.7 730.394C840.271 731.056 837.889 733.275 838.173 736.383L838.178 736.447ZM867.61 743.26L864.574 709.946L870.148 709.438L870.58 714.179L870.708 714.168C872.219 710.897 875.407 708.313 880.468 707.852C887.771 707.186 892.432 711.542 893.124 719.134L895.094 740.756L889.52 741.264L887.64 720.635C887.147 715.221 884.345 712.473 879.22 712.94C873.966 713.418 870.88 717.479 871.397 723.148L873.184 742.753L867.61 743.26ZM914.789 739.607C906.268 740.384 900.011 734.106 899.054 723.6L899.051 723.568C898.093 713.061 903.179 705.782 911.54 705.02C916.249 704.591 920.341 706.609 922.773 710.263L922.901 710.251L921.217 691.768L926.791 691.26L931.003 737.484L925.429 737.992L924.915 732.354L924.787 732.365C923.058 736.431 919.561 739.172 914.789 739.607ZM915.428 734.575C921.066 734.061 924.623 728.795 923.943 721.332L923.94 721.3C923.263 713.868 918.78 709.335 913.175 709.846C907.281 710.383 904.061 715.456 904.753 723.048L904.756 723.08C905.453 730.736 909.534 735.112 915.428 734.575Z" fill="black"/>
<rect x="943.668" y="660.015" width="245" height="105" rx="18" transform="rotate(-5.20683 943.668 660.015)" fill="#DDDDDD"/>
<rect x="944.755" y="660.92" width="243" height="103" rx="17" transform="rotate(-5.20683 944.755 660.92)" stroke="black" stroke-opacity="0.2" stroke-width="2"/>
<path d="M1001.69 706.378C1001.29 701.989 1004.76 698.708 1010.34 698.2C1015.61 697.719 1019.42 700.031 1020.28 704.213L1016.45 704.562C1015.78 702.387 1013.53 701.227 1010.57 701.497C1007.35 701.791 1005.41 703.474 1005.62 705.785C1005.79 707.722 1007.2 708.7 1010.44 709.111L1014.08 709.602C1019.11 710.274 1021.55 712.217 1021.88 715.882C1022.31 720.55 1018.69 723.939 1012.69 724.486C1006.94 725.009 1002.9 722.672 1002.06 718.371L1006.09 718.003C1006.89 720.284 1009.25 721.433 1012.52 721.135C1015.98 720.821 1018.03 719.057 1017.81 716.629C1017.62 714.622 1016.29 713.661 1013 713.231L1009.17 712.71C1004.5 712.076 1002.02 709.972 1001.69 706.378ZM1031.76 722.277L1028.55 687.009L1032.37 686.66L1033.69 701.085L1034.02 701.055C1035.06 697.783 1037.81 695.743 1041.69 695.39C1047.2 694.888 1050.49 697.93 1051.04 703.975L1052.53 720.384L1048.57 720.746L1047.16 705.341C1046.75 700.789 1044.68 698.789 1040.71 699.15C1036.54 699.531 1033.98 702.706 1034.37 707.024L1035.73 721.915L1031.76 722.277ZM1069.27 687.064C1067.4 687.234 1065.85 685.963 1065.68 684.096C1065.51 682.252 1066.81 680.722 1068.67 680.552C1070.54 680.382 1072.09 681.652 1072.26 683.496C1072.43 685.364 1071.13 686.894 1069.27 687.064ZM1082.76 717.63L1061.78 719.542L1061.48 716.251L1070.16 715.459L1068.45 696.717L1059.84 697.502L1059.54 694.211L1072.07 693.068L1074.08 715.102L1082.46 714.339L1082.76 717.63ZM1097.51 716.285L1095.52 694.415L1088.73 695.034L1088.42 691.65L1095.21 691.031L1094.98 688.486C1094.53 683.585 1097.36 681.021 1103.59 680.453C1105.06 680.319 1108.59 680.115 1109.45 680.155L1109.74 683.399C1108.63 683.382 1105.36 683.587 1103.93 683.717C1100.41 684.038 1098.66 685.515 1098.89 688.059L1099.13 690.673L1110.31 689.654L1110.62 693.039L1099.49 694.053L1101.48 715.924L1097.51 716.285ZM1123.55 681.529L1127.47 681.171L1128.1 688.034L1138.37 687.098L1138.68 690.482L1128.45 691.414L1129.75 705.698C1130 708.453 1132.08 709.77 1135.65 709.444C1137.07 709.315 1139.61 709.013 1140.28 708.881L1140.59 712.242C1139.97 712.416 1136.9 712.814 1135.68 712.924C1129.41 713.497 1126.27 711.382 1125.79 706.107L1124.48 691.775L1117.74 692.39L1117.43 689.006L1124.18 688.391L1123.55 681.529Z" fill="black"/>
<path d="M1224.35 691.524L1225.31 702.074L1221.67 702.406L1220.71 691.856L1210.09 692.823L1209.75 689.136L1220.37 688.168L1219.41 677.594L1223.05 677.263L1224.01 687.836L1234.63 686.868L1234.97 690.556L1224.35 691.524Z" fill="black"/>
<rect x="1247.41" y="632.335" width="245" height="105" rx="18" transform="rotate(-5.20683 1247.41 632.335)" fill="#DDDDDD"/>
<rect x="1248.5" y="633.241" width="243" height="103" rx="17" transform="rotate(-5.20683 1248.5 633.241)" stroke="black" stroke-opacity="0.2" stroke-width="2"/>
<path d="M1305.43 678.698C1305.03 674.31 1308.5 671.029 1314.08 670.521C1319.35 670.04 1323.17 672.352 1324.02 676.534L1320.19 676.883C1319.52 674.708 1317.27 673.548 1314.31 673.818C1311.09 674.112 1309.15 675.795 1309.36 678.106C1309.53 680.043 1310.94 681.021 1314.18 681.432L1317.83 681.923C1322.85 682.595 1325.29 684.538 1325.62 688.202C1326.05 692.871 1322.43 696.26 1316.43 696.807C1310.69 697.33 1306.64 694.992 1305.8 690.691L1309.84 690.323C1310.63 692.604 1313 693.754 1316.26 693.456C1319.72 693.141 1321.77 691.378 1321.55 688.95C1321.37 686.943 1320.03 685.982 1316.74 685.552L1312.91 685.031C1308.24 684.397 1305.76 682.293 1305.43 678.698ZM1345.13 667.762C1350.99 667.228 1355.2 671.104 1355.79 677.616L1356.22 682.331C1356.82 688.819 1353.37 693.393 1347.51 693.927C1343.85 694.261 1341.02 692.942 1339.67 690.264L1339.23 690.304L1340.36 702.768L1336.33 703.136L1333.24 669.269L1337.16 668.912L1337.51 672.786L1337.93 672.748C1339.01 669.826 1341.51 668.092 1345.13 667.762ZM1344.32 671.507C1340.14 671.888 1337.75 675.118 1338.18 679.786L1338.51 683.427C1338.94 688.119 1341.87 690.864 1346.05 690.483C1350.22 690.103 1352.61 686.849 1352.19 682.181L1351.85 678.54C1351.43 673.872 1348.5 671.126 1344.32 671.507ZM1372.91 691.636C1368.08 692.076 1364.58 689.336 1364.16 684.737C1363.75 680.256 1366.73 677.302 1372.47 676.473L1379.39 675.489L1379.19 673.201C1378.9 670.027 1376.8 668.453 1373.27 668.774C1370.36 669.04 1368.42 670.464 1367.96 672.695L1364.06 673.05C1364.16 668.946 1367.83 665.811 1373.01 665.339C1378.96 664.797 1382.65 667.52 1383.13 672.795L1384.71 690.138L1380.92 690.482L1380.58 686.678L1380.18 686.714C1379.21 689.532 1376.6 691.3 1372.91 691.636ZM1373.74 688.054C1377.57 687.705 1380.25 684.895 1379.94 681.511L1379.67 678.523L1373.19 679.42C1369.65 679.907 1367.92 681.594 1368.16 684.232C1368.41 686.892 1370.54 688.345 1373.74 688.054ZM1413.95 669.869L1410.03 670.226C1409.27 667.307 1406.62 665.665 1403.35 665.963C1398.94 666.365 1396.77 669.599 1397.26 675.037L1397.47 677.325C1397.97 682.763 1400.69 685.527 1405.1 685.125C1408.37 684.828 1410.67 682.758 1410.9 679.819L1414.82 679.462C1414.66 684.678 1411.1 688.18 1405.5 688.69C1398.61 689.318 1394.21 685.459 1393.55 678.2L1393.25 674.885C1392.59 667.626 1396.22 663.036 1403.1 662.408C1408.7 661.898 1412.82 664.723 1413.95 669.869ZM1440.78 678.414L1444.63 678.063C1444.24 682.312 1440.48 685.502 1435.16 685.987C1428.21 686.621 1423.79 682.811 1423.13 675.598L1422.78 671.794C1422.18 665.118 1426.05 660.341 1432.49 659.754C1439.07 659.154 1443.34 663.166 1444.01 670.495L1444.24 672.969L1426.99 674.541L1427.08 675.568C1427.51 680.212 1430.53 682.949 1434.85 682.556C1438.05 682.264 1440.28 680.696 1440.78 678.414ZM1432.78 663.164C1428.55 663.549 1426.27 666.675 1426.71 671.53L1440.04 670.315C1439.6 665.484 1436.86 662.792 1432.78 663.164Z" fill="black"/>
</g>
</g>
<defs>
<filter id="filter0_d_711_90" x="353" y="207" width="1023.73" height="306.798" filterUnits="userSpaceOnUse" color-interpolation-filters="sRGB">
<feFlood flood-opacity="0" result="BackgroundImageFix"/>
<feColorMatrix in="SourceAlpha" type="matrix" values="0 0 0 0 0 0 0 0 0 0 0 0 0 0 0 0 0 0 127 0" result="hardAlpha"/>
<feOffset dy="3"/>
<feGaussianBlur stdDeviation="1.5"/>
<feComposite in2="hardAlpha" operator="out"/>
<feColorMatrix type="matrix" values="0 0 0 0 0 0 0 0 0 0 0 0 0 0 0 0 0 0 0.25 0"/>
<feBlend mode="normal" in2="BackgroundImageFix" result="effect1_dropShadow_711_90"/>
<feBlend mode="normal" in="SourceGraphic" in2="effect1_dropShadow_711_90" result="shape"/>
</filter>
<filter id="filter1_d_711_90" x="353" y="547.798" width="1227.71" height="331.641" filterUnits="userSpaceOnUse" color-interpolation-filters="sRGB">
<feFlood flood-opacity="0" result="BackgroundImageFix"/>
<feColorMatrix in="SourceAlpha" type="matrix" values="0 0 0 0 0 0 0 0 0 0 0 0 0 0 0 0 0 0 127 0" result="hardAlpha"/>
<feOffset dy="3"/>
<feGaussianBlur stdDeviation="1.5"/>
<feComposite in2="hardAlpha" operator="out"/>
<feColorMatrix type="matrix" values="0 0 0 0 0 0 0 0 0 0 0 0 0 0 0 0 0 0 0.25 0"/>
<feBlend mode="normal" in2="BackgroundImageFix" result="effect1_dropShadow_711_90"/>
<feBlend mode="normal" in="SourceGraphic" in2="effect1_dropShadow_711_90" result="shape"/>
</filter>
<clipPath id="clip0_711_90">
<rect x="374.297" y="207" width="1003" height="217" rx="18" transform="rotate(4.83682 374.297 207)" fill="white"/>
</clipPath>
<clipPath id="clip1_711_90">
<rect x="356" y="657.335" width="1207" height="217" rx="18" transform="rotate(-5.20683 356 657.335)" fill="white"/>
</clipPath>
</defs>
</svg>
