<svg width="1920" height="1080" viewBox="0 0 1920 1080" fill="none" xmlns="http://www.w3.org/2000/svg">
<rect width="1920" height="1080" fill="#DDDDDD"/>
<g filter="url(#filter0_d_717_200)">
<g clip-path="url(#clip0_717_200)">
<rect x="432.454" y="526.74" width="1038" height="191" rx="18" transform="rotate(-8.9864 432.454 526.74)" fill="white"/>
<path d="M539.066 641.757C531.63 634.889 527.325 625.996 525.536 614.685C523.748 603.375 525.108 593.651 530.058 584.792L534.696 584.058C530.96 590.088 529.482 603.185 531.16 613.796C532.838 624.408 538.291 636.441 543.705 641.023L539.066 641.757ZM563.333 627.173C558.599 627.921 554.537 626.121 551.864 622.604L551.737 622.624L552.621 628.215L547.093 629.09L539.843 583.244L545.371 582.37L548.27 600.702L548.397 600.682C549.859 596.543 553.332 593.584 558.002 592.845C566.294 591.534 573.01 597.343 574.658 607.764L574.663 607.796C576.311 618.217 571.784 625.836 563.333 627.173ZM561.479 622.451C567.325 621.526 570.208 616.283 569.007 608.69L569.002 608.658C567.812 601.129 563.446 596.999 557.6 597.924C552.04 598.803 548.806 604.297 549.972 611.668L549.977 611.7C551.147 619.102 555.887 623.335 561.479 622.451ZM594.214 622.289C586.97 623.435 582.033 619.396 580.842 611.866L577.451 590.421L582.979 589.547L586.215 610.007C587.064 615.376 590.041 617.934 595.124 617.13C600.335 616.306 603.146 612.051 602.257 606.428L599.182 586.984L604.71 586.11L609.935 619.152L604.407 620.026L603.664 615.324L603.537 615.344C602.245 618.707 599.234 621.495 594.214 622.289ZM627.986 616.948C621.918 617.908 618.5 615.648 617.5 609.326L614.33 589.278L609.5 590.042L608.777 585.467L613.606 584.703L612.194 575.776L617.913 574.871L619.325 583.799L625.615 582.804L626.339 587.379L620.048 588.374L623.214 608.389C623.771 611.916 625.484 612.655 628.438 612.187C629.106 612.082 629.726 611.886 630.198 611.779L630.906 616.259C630.222 616.465 629.067 616.778 627.986 616.948ZM655.061 623.413C653.981 623.584 652.785 623.643 652.066 623.626L651.353 619.115C651.844 619.135 652.495 619.13 653.162 619.024C656.657 618.472 658.454 617.275 659.196 613.316L659.566 611.336L642.073 580.202L647.982 579.267L661.451 605.339L661.578 605.318L666.377 576.358L672.191 575.439L664.844 612.585C663.493 619.279 661.034 622.469 655.061 623.413ZM694.292 606.463C685.11 607.915 677.928 602.244 676.265 591.728L676.255 591.665C674.592 581.149 679.716 573.597 688.834 572.155C697.952 570.713 705.182 576.278 706.851 586.826L706.861 586.89C708.529 597.438 703.41 605.021 694.292 606.463ZM693.55 601.565C699.364 600.646 702.431 595.536 701.205 587.784L701.195 587.721C699.969 579.969 695.454 576.124 689.608 577.048C683.857 577.957 680.69 583.05 681.91 590.77L681.921 590.834C683.151 598.618 687.704 602.489 693.55 601.565ZM726.444 601.378C719.2 602.524 714.263 598.485 713.072 590.955L709.681 569.51L715.209 568.636L718.444 589.096C719.294 594.465 722.271 597.023 727.354 596.219C732.564 595.395 735.376 591.14 734.487 585.517L731.412 566.073L736.94 565.199L742.165 598.241L736.637 599.115L735.894 594.413L735.766 594.433C734.475 597.796 731.464 600.584 726.444 601.378ZM764.479 606.11L757.496 561.948L763.024 561.074L763.908 566.666L764.035 566.646C765.492 562.475 768.801 559.509 773.535 558.761C781.986 557.424 788.643 563.275 790.29 573.696L790.296 573.728C791.943 584.149 787.348 591.747 779.056 593.058C774.386 593.797 770.17 592.053 767.502 588.568L767.375 588.588L770.008 605.236L764.479 606.11ZM777.107 588.351C782.953 587.427 785.831 582.152 784.64 574.622L784.635 574.59C783.435 566.997 779.074 562.9 773.228 563.824C767.637 564.708 764.434 570.197 765.605 577.6L765.61 577.632C766.775 585.003 771.547 589.23 777.107 588.351ZM798.495 589.333L793.27 556.291L798.798 555.417L799.682 561.009L799.809 560.988C800.318 557 802.796 554.133 806.513 553.546C807.466 553.395 808.317 553.423 808.772 553.416L809.621 558.785C809.151 558.697 807.95 558.724 806.616 558.935C802.327 559.613 800.003 563.042 800.797 568.062L804.023 588.458L798.495 589.333ZM830.779 584.879C821.597 586.331 814.415 580.66 812.752 570.144L812.742 570.08C811.079 559.564 816.203 552.013 825.321 550.571C834.439 549.129 841.669 554.694 843.338 565.242L843.348 565.306C845.016 575.854 839.897 583.437 830.779 584.879ZM830.037 579.981C835.851 579.061 838.918 573.952 837.692 566.2L837.682 566.136C836.456 558.384 831.941 554.539 826.095 555.464C820.344 556.373 817.177 561.466 818.398 569.186L818.408 569.25C819.639 577.034 824.191 580.905 830.037 579.981ZM868.078 578.98C863.344 579.729 859.282 577.929 856.609 574.411L856.482 574.431L857.366 580.023L851.838 580.897L844.588 535.052L850.116 534.178L853.015 552.509L853.142 552.489C854.604 548.35 858.077 545.391 862.747 544.653C871.039 543.341 877.754 549.151 879.402 559.571L879.407 559.603C881.055 570.024 876.529 577.644 868.078 578.98ZM866.224 574.258C872.07 573.334 874.953 568.091 873.752 560.497L873.747 560.466C872.556 552.936 868.191 548.807 862.345 549.731C856.785 550.61 853.551 556.104 854.716 563.475L854.722 563.507C855.892 570.91 860.632 575.142 866.224 574.258ZM897.339 574.353C890.762 575.393 885.718 572.12 884.768 566.115L884.758 566.052C883.869 560.428 887.696 556.208 895.219 554.563L904.601 552.525L904.164 549.761C903.526 545.726 900.502 543.697 895.895 544.426C891.638 545.099 889.291 547.554 889.122 550.609L889.104 550.905L883.767 551.749L883.743 551.395C883.361 545.887 887.401 540.754 895.185 539.523C903 538.287 908.561 541.739 909.606 548.347L913.219 571.19L907.691 572.064L906.842 566.695L906.715 566.715C905.349 570.643 901.755 573.654 897.339 574.353ZM890.424 565.221C890.926 568.398 893.848 569.987 897.819 569.359C903.029 568.535 906.465 564.312 905.706 559.515L905.279 556.814L896.532 558.751C892.156 559.704 889.926 562.075 890.414 565.157L890.424 565.221ZM936.766 568.118C932.032 568.866 927.97 567.066 925.297 563.549L925.17 563.569L926.054 569.16L920.526 570.034L913.276 524.189L918.804 523.315L921.703 541.647L921.83 541.627C923.292 537.488 926.765 534.529 931.435 533.79C939.727 532.479 946.443 538.288 948.091 548.709L948.096 548.741C949.744 559.161 945.217 566.781 936.766 568.118ZM934.912 563.396C940.758 562.471 943.641 557.228 942.44 549.635L942.435 549.603C941.245 542.074 936.879 537.944 931.033 538.869C925.474 539.748 922.239 545.242 923.405 552.613L923.41 552.645C924.58 560.047 929.321 564.28 934.912 563.396ZM956.554 564.337L949.304 518.492L954.832 517.618L962.082 563.463L956.554 564.337ZM974.484 572.899C973.404 573.07 972.208 573.129 971.489 573.112L970.776 568.601C971.267 568.621 971.918 568.616 972.585 568.51C976.08 567.958 977.877 566.762 978.619 562.802L978.989 560.822L961.496 529.688L967.405 528.753L980.874 554.825L981.001 554.805L985.8 525.844L991.614 524.925L984.267 562.071C982.916 568.765 980.457 571.955 974.484 572.899ZM1014.98 555.097L1007.73 509.252L1013.26 508.378L1017.59 535.764L1017.72 535.744L1029.9 518.87L1036.6 517.81L1024.53 534.341L1042.27 550.782L1035.85 551.796L1021.15 538.327L1018.54 541.769L1020.51 554.223L1014.98 555.097ZM1046.12 550.174L1040.89 517.132L1046.42 516.258L1047.16 520.96L1047.29 520.94C1048.58 517.577 1051.59 514.788 1056.61 513.995C1063.86 512.849 1068.79 516.888 1069.98 524.418L1073.38 545.863L1067.85 546.737L1064.61 526.277C1063.76 520.907 1060.79 518.35 1055.7 519.153C1050.49 519.977 1047.68 524.232 1048.57 529.856L1051.64 549.299L1046.12 550.174ZM1094.13 543.232C1084.63 544.735 1077.86 538.999 1076.22 528.61L1076.21 528.578C1074.59 518.348 1079.33 510.402 1088.35 508.975C1097.37 507.548 1103.93 513.383 1105.5 523.295L1105.82 525.329L1082.02 529.092C1083.23 535.871 1087.6 539.249 1093.48 538.32C1097.67 537.656 1100.3 535.092 1100.8 532.114L1100.85 531.813L1106.29 530.954L1106.27 531.282C1106.06 536.917 1101.34 542.092 1094.13 543.232ZM1089.09 513.873C1084.3 514.632 1081.06 518.497 1081.44 524.756L1099.51 521.897C1097.96 515.565 1093.92 513.109 1089.09 513.873ZM1120.33 538.437L1105.86 506.857L1111.36 505.988L1122.22 531.821L1122.34 531.801L1125.56 503.742L1130.9 502.898L1142.65 528.591L1142.77 528.57L1145.13 500.647L1150.59 499.783L1146.61 534.282L1140.98 535.171L1129.47 510.776L1129.35 510.796L1125.96 537.548L1120.33 538.437ZM1184.55 528.933C1178.48 529.893 1175.06 527.633 1174.06 521.311L1170.89 501.263L1166.06 502.027L1165.34 497.452L1170.17 496.688L1168.75 487.761L1174.47 486.856L1175.88 495.784L1182.17 494.789L1182.9 499.364L1176.61 500.359L1179.77 520.374C1180.33 523.901 1182.04 524.64 1185 524.172C1185.67 524.067 1186.29 523.871 1186.76 523.764L1187.47 528.244C1186.78 528.45 1185.63 528.763 1184.55 528.933ZM1193.63 526.846L1186.38 481.001L1191.91 480.127L1194.76 498.204L1194.89 498.184C1196.08 494.185 1199.33 491.426 1204.25 490.647C1211.27 489.536 1216.93 494.211 1218.19 502.217L1221.39 522.455L1215.87 523.329L1212.82 504.044C1211.87 498.071 1208.26 495.027 1203.12 495.841C1198 496.65 1195.22 501.063 1196.11 506.687L1199.16 525.972L1193.63 526.846ZM1225.42 482.219C1223.51 482.52 1221.71 481.21 1221.41 479.303C1221.1 477.365 1222.42 475.594 1224.32 475.293C1226.26 474.986 1228.03 476.27 1228.34 478.208C1228.64 480.114 1227.36 481.912 1225.42 482.219ZM1228.77 521.289L1223.54 488.248L1229.07 487.373L1234.29 520.415L1228.77 521.289ZM1253.65 518.006C1245.86 519.237 1240.53 516.009 1238.93 510.205L1238.85 509.924L1244.38 509.05L1244.5 509.357C1245.69 512.556 1248.44 514.107 1252.95 513.394C1257.43 512.685 1259.8 510.389 1259.33 507.402L1259.33 507.371C1258.95 504.988 1257.5 503.849 1253.6 503.521L1248.16 503.079C1241.7 502.571 1238.22 500.157 1237.47 495.391L1237.46 495.359C1236.56 489.672 1240.91 484.849 1248.06 483.718C1255.31 482.573 1260.58 486.07 1261.87 491.533L1261.97 491.941L1256.69 492.775L1256.62 492.557C1255.67 489.419 1252.89 487.677 1248.79 488.325C1244.79 488.958 1242.62 491.288 1243.08 494.211L1243.08 494.243C1243.44 496.498 1245.18 497.819 1248.97 498.131L1254.42 498.573C1261.35 499.138 1264.18 501.393 1264.92 506.095L1264.93 506.127C1265.84 511.909 1261.02 516.84 1253.65 518.006ZM1299.27 510.791C1290.09 512.243 1282.91 506.572 1281.24 496.056L1281.23 495.993C1279.57 485.477 1284.69 477.925 1293.81 476.483C1302.93 475.041 1310.16 480.606 1311.83 491.154L1311.84 491.218C1313.51 501.766 1308.39 509.349 1299.27 510.791ZM1298.53 505.893C1304.34 504.974 1307.41 499.864 1306.18 492.112L1306.17 492.049C1304.95 484.297 1300.43 480.452 1294.59 481.376C1288.84 482.285 1285.67 487.378 1286.89 495.098L1286.9 495.162C1288.13 502.946 1292.68 506.817 1298.53 505.893ZM1320.04 506.854L1314.82 473.813L1320.35 472.939L1321.09 477.641L1321.22 477.621C1322.51 474.257 1325.52 471.469 1330.54 470.675C1337.78 469.53 1342.72 473.569 1343.91 481.098L1347.3 502.544L1341.77 503.418L1338.54 482.957C1337.69 477.588 1334.71 475.03 1329.63 475.834C1324.42 476.658 1321.61 480.913 1322.5 486.536L1325.57 505.98L1320.04 506.854ZM1368.05 499.913C1358.55 501.415 1351.79 495.68 1350.14 485.291L1350.14 485.259C1348.52 475.029 1353.26 467.083 1362.28 465.656C1371.3 464.229 1377.86 470.064 1379.42 479.976L1379.75 482.009L1355.95 485.773C1357.15 492.551 1361.53 495.93 1367.41 495C1371.6 494.337 1374.22 491.773 1374.73 488.795L1374.78 488.494L1380.21 487.635L1380.2 487.962C1379.98 493.598 1375.27 498.773 1368.05 499.913ZM1363.02 470.554C1358.22 471.312 1354.99 475.178 1355.36 481.437L1373.44 478.578C1371.88 472.246 1367.85 469.79 1363.02 470.554ZM1391.79 506.906L1387.15 507.639C1390.89 501.61 1392.36 488.481 1390.69 477.87C1389.01 467.258 1383.56 455.257 1378.15 450.674L1382.78 449.941C1390.23 456.84 1394.52 465.67 1396.31 476.98C1398.1 488.291 1396.75 498.079 1391.79 506.906Z" fill="black"/>
</g>
</g>
<defs>
<filter id="filter0_d_717_200" x="429.454" y="364.604" width="1061.09" height="356.791" filterUnits="userSpaceOnUse" color-interpolation-filters="sRGB">
<feFlood flood-opacity="0" result="BackgroundImageFix"/>
<feColorMatrix in="SourceAlpha" type="matrix" values="0 0 0 0 0 0 0 0 0 0 0 0 0 0 0 0 0 0 127 0" result="hardAlpha"/>
<feOffset dy="3"/>
<feGaussianBlur stdDeviation="1.5"/>
<feComposite in2="hardAlpha" operator="out"/>
<feColorMatrix type="matrix" values="0 0 0 0 0 0 0 0 0 0 0 0 0 0 0 0 0 0 0.25 0"/>
<feBlend mode="normal" in2="BackgroundImageFix" result="effect1_dropShadow_717_200"/>
<feBlend mode="normal" in="SourceGraphic" in2="effect1_dropShadow_717_200" result="shape"/>
</filter>
<clipPath id="clip0_717_200">
<rect x="432.454" y="526.74" width="1038" height="191" rx="18" transform="rotate(-8.9864 432.454 526.74)" fill="white"/>
</clipPath>
</defs>
</svg>
