<svg width="1920" height="1080" viewBox="0 0 1920 1080" fill="none" xmlns="http://www.w3.org/2000/svg">
<rect width="1920" height="1080" fill="#DDDDDD"/>
<g filter="url(#filter0_d_711_106)">
<g clip-path="url(#clip0_711_106)">
<rect x="491.368" y="363.136" width="978.005" height="217.006" rx="18" transform="rotate(8.16627 491.368 363.136)" fill="white"/>
<mask id="path-2-inside-1_711_106" fill="white">
<path d="M551.96 447.802C552.915 441.149 553.393 437.823 555.052 435.468C556.512 433.396 558.59 431.84 560.988 431.022C563.715 430.092 567.041 430.57 573.694 431.525L660.405 443.972C667.057 444.927 670.383 445.404 672.738 447.064C674.81 448.524 676.366 450.602 677.184 453C678.114 455.727 677.637 459.053 676.682 465.705L667.218 531.63C666.263 538.282 665.786 541.608 664.126 543.963C662.667 546.035 660.589 547.591 658.19 548.409C655.464 549.339 652.137 548.862 645.485 547.907L558.774 535.459C552.121 534.504 548.795 534.027 546.44 532.367C544.369 530.908 542.812 528.83 541.994 526.431C541.064 523.704 541.542 520.378 542.497 513.726L551.96 447.802Z"/>
</mask>
<path d="M551.96 447.802C552.915 441.149 553.393 437.823 555.052 435.468C556.512 433.396 558.59 431.84 560.988 431.022C563.715 430.092 567.041 430.57 573.694 431.525L660.405 443.972C667.057 444.927 670.383 445.404 672.738 447.064C674.81 448.524 676.366 450.602 677.184 453C678.114 455.727 677.637 459.053 676.682 465.705L667.218 531.63C666.263 538.282 665.786 541.608 664.126 543.963C662.667 546.035 660.589 547.591 658.19 548.409C655.464 549.339 652.137 548.862 645.485 547.907L558.774 535.459C552.121 534.504 548.795 534.027 546.44 532.367C544.369 530.908 542.812 528.83 541.994 526.431C541.064 523.704 541.542 520.378 542.497 513.726L551.96 447.802Z" fill="#F6F8FA"/>
<path d="M551.004 440.39C552.102 432.737 559.197 427.423 566.851 428.522L667.816 443.015C675.469 444.114 680.783 451.209 679.685 458.863L675.725 458.294C676.51 452.827 672.714 447.76 667.248 446.975L566.283 432.481C560.816 431.697 555.748 435.492 554.963 440.959L551.004 440.39ZM667.607 543C666.508 550.654 659.413 555.967 651.759 554.869L550.794 540.375C543.141 539.277 537.827 532.182 538.926 524.528L543.453 521.137C542.983 524.417 547.033 527.712 552.499 528.497L653.464 542.991C658.931 543.775 663.745 541.752 664.216 538.472L667.607 543ZM550.794 540.375C543.141 539.277 537.827 532.182 538.926 524.528L551.004 440.39C552.102 432.737 559.197 427.423 566.851 428.522L566.283 432.481C560.816 431.697 555.748 435.492 554.963 440.959L543.453 521.137C542.983 524.417 547.033 527.712 552.499 528.497L550.794 540.375ZM667.816 443.015C675.469 444.114 680.783 451.209 679.685 458.863L667.607 543C666.508 550.654 659.413 555.967 651.759 554.869L653.464 542.991C658.931 543.775 663.745 541.752 664.216 538.472L675.725 458.294C676.51 452.827 672.714 447.76 667.248 446.975L667.816 443.015Z" fill="#D1D9E0" mask="url(#path-2-inside-1_711_106)"/>
<path d="M603.228 506.482L606.349 484.744L599.598 483.775L600.08 480.411L606.832 481.38L607.195 478.851C607.894 473.979 611.236 472.139 617.431 473.028C618.892 473.238 622.379 473.856 623.197 474.092L622.734 477.317C621.661 477.045 618.426 476.485 617.011 476.282C613.508 475.779 611.465 476.812 611.102 479.341L610.729 481.939L621.842 483.535L621.359 486.899L610.293 485.31L607.172 507.048L603.228 506.482Z" fill="black"/>
<path d="M698.031 526.798C691.949 525.925 689.349 522.757 690.259 516.421L693.142 496.331L688.302 495.636L688.96 491.051L693.799 491.746L695.083 482.799L700.814 483.621L699.531 492.568L705.835 493.473L705.177 498.058L698.873 497.153L695.994 517.212C695.487 520.746 696.905 521.957 699.867 522.382C700.535 522.478 701.186 522.474 701.668 522.51L701.024 527C700.309 526.995 699.113 526.953 698.031 526.798ZM719.713 529.909C710.512 528.589 705.322 521.052 706.834 510.514L706.843 510.45C708.355 499.911 715.478 494.207 724.616 495.518C733.754 496.829 739.021 504.279 737.504 514.85L737.495 514.914C735.978 525.484 728.851 531.22 719.713 529.909ZM720.449 525.01C726.275 525.847 730.713 521.869 731.828 514.1L731.837 514.037C732.952 506.268 729.771 501.262 723.912 500.421C718.149 499.594 713.621 503.526 712.51 511.263L712.501 511.327C711.382 519.128 714.59 524.17 720.449 525.01ZM764.766 536.374C758.685 535.502 756.085 532.334 756.994 525.998L759.877 505.907L755.037 505.213L755.695 500.628L760.535 501.322L761.819 492.375L767.55 493.198L766.266 502.145L772.57 503.049L771.912 507.634L765.608 506.73L762.73 526.788C762.222 530.323 763.641 531.534 766.602 531.958C767.271 532.054 767.921 532.05 768.403 532.087L767.759 536.576C767.045 536.571 765.848 536.53 764.766 536.374ZM786.449 539.486C777.247 538.165 772.057 530.629 773.569 520.09L773.578 520.027C775.091 509.488 782.213 503.783 791.351 505.095C800.489 506.406 805.757 513.856 804.24 524.426L804.231 524.49C802.714 535.061 795.586 540.797 786.449 539.486ZM787.184 534.587C793.011 535.423 797.448 531.446 798.563 523.677L798.572 523.613C799.687 515.844 796.506 510.839 790.648 509.998C784.885 509.171 780.356 513.103 779.246 520.84L779.237 520.903C778.117 528.704 781.326 533.746 787.184 534.587ZM819.777 555.642C811.594 554.467 806.989 549.875 806.61 544.816L806.588 544.52L812.16 545.32L812.246 545.625C812.954 548.164 815.896 550.081 820.417 550.729C826.244 551.565 830.017 548.825 830.752 543.699L831.36 539.464L831.232 539.446C828.733 542.824 824.574 544.632 819.83 543.951C811.488 542.754 806.753 535.218 808.238 524.87L808.242 524.838C809.718 514.554 816.441 508.695 824.846 509.901C829.527 510.573 832.854 513.65 834.362 517.636L834.49 517.654L835.294 512.05L840.834 512.845L836.215 545.035C835.113 552.708 828.756 556.93 819.777 555.642ZM821.744 539.221C827.379 540.03 831.89 535.771 832.945 528.416L832.95 528.384C833.996 521.093 830.829 515.764 825.225 514.96C819.335 514.115 814.965 518.297 813.91 525.652L813.905 525.684C812.827 533.198 815.853 538.376 821.744 539.221ZM855.565 560.777C847.382 559.603 842.777 555.01 842.398 549.952L842.375 549.656L847.947 550.456L848.033 550.76C848.742 553.299 851.683 555.216 856.205 555.865C862.031 556.701 865.804 553.96 866.54 548.834L867.147 544.6L867.02 544.581C864.52 547.96 860.362 549.767 855.618 549.087C847.276 547.89 842.54 540.354 844.025 530.006L844.03 529.974C845.506 519.69 852.228 513.831 860.634 515.037C865.314 515.708 868.642 518.786 870.15 522.771L870.277 522.79L871.081 517.186L876.621 517.981L872.002 550.171C870.901 557.844 864.543 562.066 855.565 560.777ZM857.531 544.357C863.167 545.166 867.677 540.906 868.733 533.551L868.737 533.519C869.784 526.228 866.616 520.9 861.013 520.095C855.122 519.25 850.753 523.432 849.697 530.787L849.693 530.819C848.614 538.333 851.641 543.512 857.531 544.357ZM879.32 552.163L885.913 506.219L891.453 507.014L884.86 552.958L879.32 552.163ZM905.878 556.624C896.358 555.258 891.582 547.781 893.076 537.37L893.081 537.338C894.552 527.085 901.42 520.89 910.462 522.187C919.505 523.485 924.049 530.993 922.623 540.927L922.331 542.965L898.483 539.543C897.633 546.375 900.819 550.894 906.709 551.739C910.912 552.342 914.174 550.666 915.536 547.969L915.673 547.696L921.117 548.477L921.008 548.787C919.14 554.108 913.106 557.661 905.878 556.624ZM909.727 527.086C904.919 526.396 900.691 529.136 899.2 535.226L917.317 537.826C917.698 531.317 914.566 527.78 909.727 527.086ZM940.929 561.004L945.023 532.476L940.406 531.813L941.064 527.229L945.681 527.891L946.266 523.816C947.179 517.448 950.575 514.848 956.688 515.725C957.93 515.903 959.221 516.186 960.031 516.432L959.387 520.922C958.732 520.73 957.877 520.575 957.017 520.452C953.96 520.013 952.208 521.354 951.737 524.633L951.157 528.677L957.971 529.655L957.313 534.24L950.563 533.271L946.469 561.799L940.929 561.004ZM970.162 565.849C962.902 564.807 959.376 559.492 960.459 551.946L963.543 530.454L969.083 531.249L966.14 551.754C965.368 557.135 967.459 560.457 972.553 561.188C977.775 561.937 981.716 558.701 982.525 553.065L985.321 533.579L990.861 534.374L986.109 567.487L980.569 566.692L981.245 561.98L981.118 561.962C978.892 564.794 975.192 566.571 970.162 565.849ZM993.623 568.566L1000.22 522.621L1005.76 523.416L999.163 569.361L993.623 568.566ZM1006.93 570.476L1013.53 524.531L1019.07 525.326L1012.47 571.271L1006.93 570.476ZM1031.61 574.667C1023.81 573.548 1019.67 568.891 1019.85 562.873L1019.86 562.582L1025.4 563.377L1025.42 563.705C1025.61 567.112 1027.78 569.406 1032.31 570.055C1036.8 570.699 1039.74 569.204 1040.17 566.211L1040.17 566.18C1040.52 563.792 1039.47 562.276 1035.84 560.814L1030.77 558.786C1024.75 556.394 1022.14 553.063 1022.82 548.287L1022.83 548.255C1023.64 542.556 1029.22 539.23 1036.39 540.258C1043.65 541.299 1047.66 546.196 1047.27 551.796L1047.25 552.214L1041.96 551.456L1041.96 551.229C1041.98 547.949 1039.83 545.464 1035.72 544.874C1031.71 544.299 1028.95 545.884 1028.53 548.814L1028.53 548.846C1028.2 551.106 1029.47 552.881 1033.01 554.298L1038.08 556.325C1044.53 558.909 1046.57 561.899 1045.9 566.611L1045.89 566.643C1045.06 572.437 1039 575.727 1031.61 574.667ZM1063.96 579.309C1054.57 577.961 1049.57 570.421 1051.09 559.882L1051.09 559.85C1052.59 549.407 1059.63 543.593 1068.83 544.913C1077.08 546.097 1081.16 552.272 1081.05 558.04L1081.05 558.299L1075.63 557.523L1075.61 557.259C1075.25 553.829 1073 550.516 1068.13 549.817C1062.36 548.99 1057.83 553.213 1056.75 560.727L1056.74 560.759C1055.64 568.464 1058.93 573.583 1064.66 574.406C1069.19 575.055 1072.45 572.923 1073.9 569.362L1074 569.117L1079.45 569.898L1079.38 570.116C1077.59 576.293 1071.44 580.383 1063.96 579.309ZM1083 581.391L1087.75 548.278L1093.29 549.073L1092.48 554.677L1092.61 554.695C1094.27 551.034 1097.49 549.026 1101.21 549.56C1102.17 549.697 1102.97 549.975 1103.41 550.103L1102.64 555.484C1102.21 555.26 1101.06 554.932 1099.72 554.74C1095.42 554.124 1092.19 556.714 1091.47 561.745L1088.54 582.186L1083 581.391ZM1115.06 586.642C1105.54 585.276 1100.77 577.799 1102.26 567.388L1102.27 567.356C1103.74 557.104 1110.6 550.908 1119.65 552.206C1128.69 553.503 1133.23 561.012 1131.81 570.946L1131.52 572.983L1107.67 569.561C1106.82 576.393 1110 580.912 1115.89 581.757C1120.1 582.36 1123.36 580.684 1124.72 577.987L1124.86 577.714L1130.3 578.496L1130.19 578.805C1128.32 584.126 1122.29 587.679 1115.06 586.642ZM1118.91 557.104C1114.1 556.414 1109.88 559.155 1108.38 565.245L1126.5 567.844C1126.88 561.335 1123.75 557.799 1118.91 557.104ZM1148.49 591.44C1138.97 590.074 1134.2 582.597 1135.69 572.185L1135.7 572.153C1137.17 561.901 1144.04 555.705 1153.08 557.003C1162.12 558.301 1166.67 565.809 1165.24 575.743L1164.95 577.781L1141.1 574.359C1140.25 581.19 1143.43 585.71 1149.33 586.555C1153.53 587.158 1156.79 585.481 1158.15 582.785L1158.29 582.512L1163.73 583.293L1163.62 583.602C1161.76 588.923 1155.72 592.477 1148.49 591.44ZM1152.34 561.902C1147.54 561.212 1143.31 563.952 1141.82 570.042L1159.93 572.642C1160.31 566.133 1157.18 562.596 1152.34 561.902ZM1168.39 593.645L1173.14 560.532L1178.68 561.327L1178.01 566.039L1178.13 566.057C1180.36 563.225 1184.06 561.449 1189.09 562.17C1196.35 563.212 1199.87 568.528 1198.79 576.074L1195.71 597.565L1190.17 596.77L1193.11 576.266C1193.88 570.885 1191.79 567.563 1186.7 566.832C1181.48 566.082 1177.53 569.319 1176.73 574.954L1173.93 594.44L1168.39 593.645ZM1216.15 600.498L1220.9 567.385L1226.44 568.18L1225.75 573.02L1225.87 573.038C1227.84 569.974 1231.47 568.252 1235.73 568.864C1240.25 569.513 1243.26 572.317 1244.12 576.566L1244.24 576.584C1246.66 572.869 1250.89 571.039 1255.54 571.706C1262.1 572.647 1265.71 577.553 1264.77 584.144L1261.49 607.005L1255.95 606.21L1259.05 584.623C1259.7 580.069 1257.57 577.002 1253.21 576.376C1248.82 575.746 1245.26 578.582 1244.61 583.103L1241.59 604.149L1236.05 603.354L1239.23 581.162C1239.81 577.15 1237.51 574.124 1233.41 573.534C1229.01 572.904 1225.33 575.917 1224.67 580.534L1221.69 601.293L1216.15 600.498ZM1282.19 610.625C1272.99 609.305 1267.8 601.768 1269.31 591.229L1269.32 591.166C1270.83 580.627 1277.95 574.923 1287.09 576.234C1296.23 577.545 1301.5 584.995 1299.98 595.566L1299.97 595.629C1298.45 606.2 1291.33 611.936 1282.19 610.625ZM1282.92 605.726C1288.75 606.562 1293.19 602.585 1294.3 594.816L1294.31 594.752C1295.43 586.984 1292.25 581.978 1286.39 581.137C1280.62 580.31 1276.1 584.242 1274.98 591.979L1274.98 592.043C1273.86 599.843 1277.06 604.886 1282.92 605.726ZM1315.56 615.413C1307.09 614.198 1302.45 606.644 1303.95 596.201L1303.95 596.169C1305.45 585.725 1312.08 579.821 1320.39 581.013C1325.07 581.685 1328.59 584.594 1330.11 588.711L1330.24 588.73L1332.87 570.358L1338.41 571.153L1331.82 617.098L1326.28 616.303L1327.09 610.699L1326.96 610.681C1324.34 614.236 1320.3 616.094 1315.56 615.413ZM1317.34 610.665C1322.95 611.47 1327.62 607.169 1328.69 599.751L1328.69 599.719C1329.75 592.332 1326.44 586.885 1320.87 586.085C1315.01 585.245 1310.7 589.436 1309.62 596.982L1309.62 597.014C1308.53 604.623 1311.48 609.825 1317.34 610.665ZM1352.84 620.764C1343.32 619.397 1338.54 611.921 1340.04 601.509L1340.04 601.477C1341.51 591.225 1348.38 585.029 1357.42 586.327C1366.47 587.624 1371.01 595.133 1369.58 605.067L1369.29 607.105L1345.44 603.682C1344.59 610.514 1347.78 615.033 1353.67 615.879C1357.87 616.482 1361.14 614.805 1362.5 612.109L1362.63 611.836L1368.08 612.617L1367.97 612.926C1366.1 618.247 1360.07 621.801 1352.84 620.764ZM1356.69 591.225C1351.88 590.536 1347.65 593.276 1346.16 599.366L1364.28 601.966C1364.66 595.456 1361.53 591.92 1356.69 591.225Z" fill="black"/>
</g>
</g>
<defs>
<filter id="filter0_d_711_106" x="457.543" y="363.136" width="1004.91" height="359.728" filterUnits="userSpaceOnUse" color-interpolation-filters="sRGB">
<feFlood flood-opacity="0" result="BackgroundImageFix"/>
<feColorMatrix in="SourceAlpha" type="matrix" values="0 0 0 0 0 0 0 0 0 0 0 0 0 0 0 0 0 0 127 0" result="hardAlpha"/>
<feOffset dy="3"/>
<feGaussianBlur stdDeviation="1.5"/>
<feComposite in2="hardAlpha" operator="out"/>
<feColorMatrix type="matrix" values="0 0 0 0 0 0 0 0 0 0 0 0 0 0 0 0 0 0 0.25 0"/>
<feBlend mode="normal" in2="BackgroundImageFix" result="effect1_dropShadow_711_106"/>
<feBlend mode="normal" in="SourceGraphic" in2="effect1_dropShadow_711_106" result="shape"/>
</filter>
<clipPath id="clip0_711_106">
<rect x="491.368" y="363.136" width="978.005" height="217.006" rx="18" transform="rotate(8.16627 491.368 363.136)" fill="white"/>
</clipPath>
</defs>
</svg>
