<svg width="1920" height="1080" viewBox="0 0 1920 1080" fill="none" xmlns="http://www.w3.org/2000/svg">
<rect width="1920" height="1080" fill="#DDDDDD"/>
<g filter="url(#filter0_d_711_187)">
<g clip-path="url(#clip0_711_187)">
<rect x="793.074" y="406.305" width="365" height="223" rx="18" transform="rotate(7.26882 793.074 406.305)" fill="white"/>
<path d="M863.762 551.415L868.976 510.542L854.458 508.691L855.117 503.522L889.896 507.958L889.237 513.127L874.719 511.275L869.506 552.148L863.762 551.415ZM889.511 554.7L895.384 508.658L900.936 509.366L898.62 527.521L898.748 527.537C901.011 524.032 904.897 522.29 909.843 522.921C916.894 523.821 921.016 529.891 919.991 537.932L917.398 558.257L911.846 557.548L914.317 538.181C915.082 532.182 912.47 528.25 907.301 527.591C902.164 526.935 898.254 530.393 897.533 536.04L895.063 555.408L889.511 554.7ZM934.068 561.031C927.463 560.189 923.537 555.635 924.306 549.604L924.314 549.541C925.034 543.893 929.889 540.913 937.572 541.439L947.15 542.109L947.504 539.333C948.021 535.281 945.686 532.487 941.059 531.896C936.784 531.351 933.843 533.051 932.826 535.937L932.726 536.216L927.365 535.533L927.442 535.186C928.617 529.791 933.932 525.994 941.75 526.991C949.599 527.992 953.971 532.862 953.125 539.499L950.199 562.44L944.647 561.732L945.334 556.34L945.207 556.324C942.797 559.713 938.503 561.597 934.068 561.031ZM929.985 550.329C929.578 553.519 931.938 555.863 935.927 556.372C941.16 557.039 945.64 553.947 946.254 549.129L946.6 546.417L937.661 545.828C933.193 545.517 930.388 547.17 929.994 550.265L929.985 550.329ZM957.25 563.34L961.483 530.156L967.034 530.864L966.432 535.587L966.56 535.603C968.741 532.736 972.412 530.902 977.454 531.545C984.728 532.473 988.338 537.732 987.373 545.294L984.626 566.831L979.074 566.123L981.695 545.575C982.383 540.183 980.241 536.894 975.136 536.243C969.903 535.575 966.013 538.873 965.292 544.521L962.802 564.048L957.25 563.34ZM992.156 567.792L998.029 521.75L1003.58 522.458L1000.07 549.962L1000.2 549.978L1016.62 537.189L1023.35 538.048L1007.13 550.538L1019.56 571.288L1013.12 570.466L1002.78 553.42L999.303 555.992L997.708 568.5L992.156 567.792ZM1033.84 573.757C1026.02 572.76 1021.81 568.17 1021.9 562.149L1021.9 561.858L1027.45 562.566L1027.48 562.893C1027.72 566.297 1029.93 568.557 1034.46 569.135C1038.96 569.709 1041.88 568.168 1042.26 565.169L1042.27 565.137C1042.57 562.744 1041.5 561.245 1037.85 559.84L1032.75 557.892C1026.69 555.594 1024.03 552.304 1024.64 547.518L1024.64 547.486C1025.37 541.775 1030.9 538.362 1038.08 539.277C1045.35 540.205 1049.44 545.039 1049.14 550.644L1049.12 551.063L1043.83 550.387L1043.82 550.16C1043.79 546.88 1041.6 544.429 1037.49 543.904C1033.47 543.391 1030.73 545.02 1030.36 547.955L1030.35 547.987C1030.06 550.253 1031.36 552.007 1034.92 553.369L1040.02 555.317C1046.51 557.799 1048.6 560.756 1048 565.478L1047.99 565.51C1047.25 571.317 1041.24 574.702 1033.84 573.757ZM1057.15 560.55L1060.69 529.743L1066.44 530.476L1062.13 561.185L1057.15 560.55ZM1057.65 576.47C1055.61 576.21 1054.22 574.411 1054.48 572.369C1054.74 570.295 1056.54 568.935 1058.58 569.195C1060.65 569.46 1062.02 571.223 1061.75 573.297C1061.49 575.339 1059.73 576.735 1057.65 576.47Z" fill="black"/>
</g>
</g>
<defs>
<filter id="filter0_d_711_187" x="761.859" y="406.305" width="396.281" height="273.389" filterUnits="userSpaceOnUse" color-interpolation-filters="sRGB">
<feFlood flood-opacity="0" result="BackgroundImageFix"/>
<feColorMatrix in="SourceAlpha" type="matrix" values="0 0 0 0 0 0 0 0 0 0 0 0 0 0 0 0 0 0 127 0" result="hardAlpha"/>
<feOffset dy="3"/>
<feGaussianBlur stdDeviation="1.5"/>
<feComposite in2="hardAlpha" operator="out"/>
<feColorMatrix type="matrix" values="0 0 0 0 0 0 0 0 0 0 0 0 0 0 0 0 0 0 0.25 0"/>
<feBlend mode="normal" in2="BackgroundImageFix" result="effect1_dropShadow_711_187"/>
<feBlend mode="normal" in="SourceGraphic" in2="effect1_dropShadow_711_187" result="shape"/>
</filter>
<clipPath id="clip0_711_187">
<rect x="793.074" y="406.305" width="365" height="223" rx="18" transform="rotate(7.26882 793.074 406.305)" fill="white"/>
</clipPath>
</defs>
</svg>
