<svg width="1920" height="1080" viewBox="0 0 1920 1080" fill="none" xmlns="http://www.w3.org/2000/svg">
<rect width="1920" height="1080" fill="#DDDDDD"/>
<g filter="url(#filter0_d_711_99)">
<g clip-path="url(#clip0_711_99)">
<rect x="366.701" y="346.537" width="1211" height="302" rx="18" transform="rotate(4.05725 366.701 346.537)" fill="white"/>
<path d="M635.759 500.961L638.674 459.86L624.076 458.825L624.444 453.627L659.417 456.108L659.048 461.305L644.45 460.27L641.534 501.371L635.759 500.961ZM662.408 503.496C655.767 503.025 651.591 498.698 652.021 492.634L652.026 492.57C652.429 486.891 657.109 483.644 664.809 483.738L674.409 483.871L674.607 481.08C674.896 477.005 672.408 474.345 667.756 474.015C663.457 473.71 660.616 475.573 659.763 478.511L659.678 478.795L654.288 478.413L654.345 478.062C655.215 472.61 660.31 468.521 668.171 469.079C676.064 469.639 680.702 474.257 680.229 480.93L678.592 503.999L673.01 503.603L673.394 498.181L673.266 498.172C671.049 501.691 666.868 503.813 662.408 503.496ZM657.732 493.039C657.505 496.248 659.992 498.456 664.003 498.74C669.265 499.113 673.565 495.775 673.909 490.93L674.102 488.203L665.144 488.115C660.666 488.056 657.958 489.863 657.737 492.975L657.732 493.039ZM702.226 506.321C697.445 505.981 693.894 503.311 692.084 499.281L691.955 499.272L691.555 504.919L685.972 504.523L689.256 458.224L694.839 458.62L693.526 477.133L693.654 477.142C696.012 473.44 700.063 471.341 704.78 471.676C713.154 472.27 718.385 479.445 717.638 489.968L717.636 490.001C716.89 500.524 710.76 506.926 702.226 506.321ZM701.485 501.302C707.389 501.721 711.381 497.264 711.925 489.595L711.927 489.563C712.467 481.959 709.146 476.951 703.242 476.532C697.627 476.134 693.236 480.756 692.708 488.2L692.706 488.232C692.176 495.708 695.838 500.902 701.485 501.302ZM749.326 509.661C740.054 509.004 734.337 501.859 735.09 491.239L735.095 491.174C735.848 480.554 742.544 474.354 751.752 475.007C760.96 475.661 766.748 482.714 765.993 493.366L765.988 493.43C765.232 504.082 758.535 510.315 749.326 509.661ZM749.709 504.723C755.58 505.139 759.722 500.854 760.277 493.025L760.281 492.961C760.837 485.132 757.305 480.367 751.402 479.948C745.594 479.537 741.359 483.783 740.806 491.58L740.801 491.644C740.244 499.505 743.805 504.304 749.709 504.723ZM769.655 521.745L772.818 477.147L778.401 477.543L778.001 483.19L778.129 483.199C780.49 479.464 784.382 477.322 789.163 477.661C797.698 478.266 802.862 485.469 802.116 495.993L802.113 496.025C801.367 506.549 795.176 512.914 786.801 512.32C782.085 511.985 778.371 509.335 776.559 505.337L776.43 505.328L775.238 522.141L769.655 521.745ZM785.965 507.294C791.868 507.713 795.863 503.224 796.402 495.62L796.405 495.588C796.948 487.919 793.625 482.943 787.722 482.525C782.075 482.124 777.716 486.749 777.186 494.224L777.183 494.257C776.655 501.7 780.35 506.896 785.965 507.294ZM820.266 514.693C810.673 514.013 805.373 506.897 806.117 496.406L806.119 496.374C806.852 486.042 813.259 479.37 822.371 480.016C831.483 480.663 836.554 487.826 835.844 497.837L835.698 499.89L811.666 498.186C811.308 505.061 814.809 509.34 820.745 509.761C824.98 510.062 828.114 508.156 829.279 505.368L829.396 505.086L834.882 505.476L834.796 505.792C833.313 511.233 827.549 515.21 820.266 514.693ZM821.988 484.955C817.144 484.612 813.123 487.648 812.072 493.829L830.328 495.124C830.243 488.604 826.865 485.301 821.988 484.955ZM840.268 515.467L842.635 482.099L848.218 482.495L847.881 487.243L848.009 487.252C850.027 484.268 853.59 482.231 858.659 482.59C865.974 483.109 869.873 488.158 869.333 495.762L867.797 517.42L862.214 517.024L863.68 496.361C864.065 490.939 861.742 487.775 856.608 487.411C851.346 487.038 847.647 490.548 847.244 496.227L845.851 515.863L840.268 515.467ZM886.714 519.406C878.853 518.849 874.389 514.501 874.138 508.486L874.127 508.195L879.71 508.591L879.751 508.916C880.188 512.301 882.52 514.433 887.076 514.756C891.6 515.077 894.429 513.375 894.643 510.359L894.646 510.327C894.816 507.921 893.66 506.485 889.94 505.286L884.737 503.627C878.556 501.673 875.715 498.537 876.056 493.724L876.058 493.692C876.466 487.949 881.792 484.231 889.011 484.743C896.327 485.262 900.676 489.86 900.697 495.472L900.7 495.891L895.374 495.513L895.358 495.287C895.138 492.014 892.82 489.689 888.681 489.396C884.639 489.109 881.997 490.889 881.788 493.84L881.786 493.872C881.624 496.151 883.02 497.83 886.646 498.99L891.849 500.649C898.471 502.763 900.721 505.599 900.384 510.347L900.382 510.38C899.967 516.219 894.158 519.934 886.714 519.406ZM929.804 522.463C923.676 522.028 920.855 519.055 921.308 512.67L922.744 492.424L917.867 492.079L918.195 487.458L923.072 487.804L923.712 478.788L929.487 479.198L928.847 488.214L935.2 488.664L934.872 493.285L928.52 492.834L927.086 513.048C926.833 516.609 928.335 517.715 931.319 517.927C931.993 517.975 932.641 517.924 933.125 517.926L932.804 522.45C932.091 522.496 930.895 522.54 929.804 522.463ZM939.122 522.479L942.406 476.18L947.989 476.576L946.694 494.833L946.822 494.842C948.885 491.215 952.668 489.259 957.641 489.611C964.732 490.114 969.187 495.944 968.614 504.03L967.164 524.468L961.581 524.072L962.963 504.596C963.391 498.564 960.563 494.785 955.365 494.416C950.2 494.049 946.489 497.72 946.086 503.399L944.705 522.875L939.122 522.479ZM987.942 526.587C978.348 525.906 973.049 518.791 973.793 508.299L973.795 508.267C974.528 497.936 980.935 491.264 990.047 491.91C999.159 492.556 1004.23 499.72 1003.52 509.73L1003.37 511.784L979.342 510.079C978.983 516.954 982.485 521.234 988.421 521.655C992.656 521.955 995.79 520.049 996.955 517.262L997.072 516.98L1002.56 517.369L1002.47 517.685C1000.99 523.127 995.225 527.103 987.942 526.587ZM989.664 496.849C984.819 496.505 980.799 499.541 979.748 505.722L998.004 507.017C997.918 500.498 994.541 497.195 989.664 496.849ZM1021.42 528.316L1023.79 494.948L1029.37 495.344L1029.03 500.093L1029.16 500.102C1031.18 497.117 1034.74 495.08 1039.81 495.44C1047.13 495.959 1051.02 501.008 1050.48 508.612L1048.95 530.269L1043.37 529.873L1044.83 509.21C1045.22 503.788 1042.89 500.624 1037.76 500.26C1032.5 499.887 1028.8 503.397 1028.4 509.076L1027 528.712L1021.42 528.316ZM1065.78 532.108C1059.14 531.637 1054.96 527.31 1055.39 521.246L1055.4 521.182C1055.8 515.502 1060.48 512.255 1068.18 512.35L1077.78 512.483L1077.98 509.691C1078.27 505.616 1075.78 502.957 1071.13 502.627C1066.83 502.322 1063.99 504.184 1063.13 507.123L1063.05 507.407L1057.66 507.025L1057.72 506.674C1058.59 501.222 1063.68 497.133 1071.54 497.69C1079.44 498.25 1084.07 502.868 1083.6 509.542L1081.96 532.611L1076.38 532.215L1076.77 526.792L1076.64 526.783C1074.42 530.302 1070.24 532.424 1065.78 532.108ZM1061.1 521.651C1060.88 524.859 1063.36 527.067 1067.37 527.352C1072.64 527.725 1076.94 524.386 1077.28 519.541L1077.47 516.814L1068.52 516.727C1064.04 516.667 1061.33 518.474 1061.11 521.587L1061.1 521.651ZM1098.46 533.781L1088.53 499.541L1094.41 499.957L1101.67 528.043L1101.8 528.052L1112.98 501.275L1118.79 501.687L1104.17 534.186L1098.46 533.781ZM1126.73 496.575C1124.81 496.438 1123.34 494.754 1123.48 492.829C1123.62 490.872 1125.3 489.444 1127.23 489.58C1129.18 489.719 1130.61 491.368 1130.48 493.325C1130.34 495.25 1128.69 496.713 1126.73 496.575ZM1121.17 535.392L1123.54 502.024L1129.12 502.42L1126.75 535.788L1121.17 535.392ZM1147.63 549.2C1139.39 548.615 1134.47 544.364 1133.73 539.346L1133.68 539.052L1139.3 539.451L1139.4 539.749C1140.29 542.23 1143.36 543.931 1147.92 544.254C1153.79 544.671 1157.36 541.667 1157.73 536.501L1158.03 532.234L1157.9 532.225C1155.65 535.774 1151.63 537.875 1146.85 537.536C1138.44 536.939 1133.18 529.762 1133.92 519.334L1133.92 519.302C1134.66 508.939 1140.94 502.613 1149.41 503.214C1154.13 503.548 1157.67 506.379 1159.46 510.247L1159.59 510.256L1159.99 504.609L1165.57 505.005L1163.27 537.443C1162.72 545.175 1156.68 549.842 1147.63 549.2ZM1148.42 532.681C1154.1 533.084 1158.29 528.512 1158.82 521.101L1158.82 521.068C1159.34 513.721 1155.8 508.633 1150.15 508.232C1144.22 507.811 1140.16 512.296 1139.63 519.707L1139.63 519.74C1139.09 527.312 1142.48 532.26 1148.42 532.681ZM1180.13 540.219C1173.49 539.748 1169.31 535.421 1169.74 529.357L1169.75 529.293C1170.15 523.613 1174.83 520.366 1182.53 520.461L1192.13 520.594L1192.33 517.802C1192.62 513.727 1190.13 511.068 1185.48 510.738C1181.18 510.433 1178.34 512.295 1177.49 515.234L1177.4 515.518L1172.01 515.136L1172.07 514.785C1172.94 509.333 1178.03 505.244 1185.89 505.801C1193.79 506.361 1198.42 510.979 1197.95 517.653L1196.31 540.722L1190.73 540.326L1191.12 534.903L1190.99 534.894C1188.77 538.413 1184.59 540.535 1180.13 540.219ZM1175.45 529.762C1175.23 532.97 1177.71 535.178 1181.73 535.463C1186.99 535.836 1191.29 532.497 1191.63 527.652L1191.82 524.925L1182.87 524.838C1178.39 524.778 1175.68 526.585 1175.46 529.698L1175.45 529.762ZM1214.2 542.636C1208.08 542.201 1205.26 539.228 1205.71 532.843L1207.15 512.597L1202.27 512.251L1202.6 507.631L1207.47 507.977L1208.11 498.961L1213.89 499.371L1213.25 508.387L1219.6 508.837L1219.27 513.458L1212.92 513.007L1211.49 533.22C1211.23 536.782 1212.74 537.888 1215.72 538.1C1216.39 538.147 1217.04 538.097 1217.53 538.099L1217.2 542.623C1216.49 542.669 1215.3 542.713 1214.2 542.636ZM1229.15 503.839C1227.22 503.702 1225.76 502.019 1225.9 500.094C1226.04 498.136 1227.72 496.708 1229.64 496.844C1231.6 496.983 1233.03 498.633 1232.89 500.59C1232.75 502.515 1231.1 503.978 1229.15 503.839ZM1223.59 542.656L1225.95 509.288L1231.54 509.684L1229.17 543.052L1223.59 542.656ZM1250.56 545.214C1241.28 544.556 1235.57 537.412 1236.32 526.791L1236.33 526.727C1237.08 516.107 1243.77 509.907 1252.98 510.56C1262.19 511.213 1267.98 518.267 1267.22 528.919L1267.22 528.983C1266.46 539.635 1259.77 545.867 1250.56 545.214ZM1250.94 540.275C1256.81 540.692 1260.95 536.407 1261.51 528.578L1261.51 528.514C1262.07 520.685 1258.54 515.92 1252.63 515.501C1246.82 515.089 1242.59 519.336 1242.04 527.132L1242.03 527.196C1241.47 535.057 1245.04 539.857 1250.94 540.275ZM1271.68 546.068L1274.05 512.699L1279.63 513.095L1279.3 517.844L1279.42 517.853C1281.44 514.868 1285 512.831 1290.07 513.191C1297.39 513.71 1301.29 518.759 1300.75 526.363L1299.21 548.02L1293.63 547.624L1295.09 526.962C1295.48 521.539 1293.16 518.376 1288.02 518.012C1282.76 517.638 1279.06 521.149 1278.66 526.828L1277.27 546.464L1271.68 546.068ZM438.05 577.422C432.356 569.053 430.17 559.418 430.98 547.996C431.79 536.573 435.31 527.407 442.131 519.894L446.815 520.226C441.815 525.257 437.419 537.682 436.659 548.398C435.899 559.115 438.495 572.068 442.735 577.754L438.05 577.422ZM464.983 568.691C460.202 568.352 456.651 565.682 454.841 561.651L454.712 561.642L454.312 567.289L448.729 566.893L452.013 520.595L457.596 520.991L456.283 539.504L456.411 539.513C458.77 535.811 462.82 533.712 467.537 534.046C475.911 534.64 481.142 541.815 480.396 552.339L480.393 552.371C479.647 562.895 473.517 569.296 464.983 568.691ZM464.242 563.673C470.146 564.091 474.138 559.634 474.682 551.966L474.684 551.934C475.224 544.33 471.903 539.322 465.999 538.903C460.384 538.505 455.994 543.127 455.466 550.571L455.463 550.603C454.933 558.079 458.595 563.272 464.242 563.673ZM496.169 570.903C488.854 570.384 484.956 565.335 485.495 557.731L487.031 536.074L492.614 536.47L491.148 557.133C490.764 562.555 493.087 565.719 498.22 566.083C503.482 566.456 507.182 562.946 507.584 557.267L508.977 537.631L514.56 538.027L512.193 571.395L506.61 570.999L506.947 566.25L506.819 566.241C504.801 569.226 501.239 571.263 496.169 570.903ZM530.276 573.322C524.147 572.888 521.327 569.915 521.78 563.53L523.216 543.284L518.339 542.938L518.667 538.318L523.544 538.664L524.183 529.648L529.959 530.058L529.319 539.073L535.672 539.524L535.344 544.144L528.991 543.694L527.558 563.907C527.305 567.469 528.807 568.575 531.79 568.786C532.464 568.834 533.113 568.783 533.596 568.785L533.275 573.309C532.563 573.356 531.367 573.4 530.276 573.322ZM555.193 585.731C554.102 585.654 552.924 585.441 552.227 585.263L552.55 580.707C553.024 580.837 553.659 580.979 554.333 581.027C557.862 581.277 559.883 580.517 561.499 576.827L562.308 574.982L552.292 540.703L558.26 541.126L565.497 569.565L565.626 569.574L576.837 542.444L582.708 542.86L567.167 577.39C564.34 583.607 561.225 586.159 555.193 585.731ZM597.237 578.072C587.964 577.414 582.248 570.269 583.001 559.649L583.005 559.585C583.759 548.965 590.454 542.765 599.663 543.418C608.871 544.071 614.659 551.124 613.903 561.777L613.899 561.841C613.143 572.493 606.445 578.725 597.237 578.072ZM597.619 573.133C603.491 573.55 607.632 569.264 608.188 561.436L608.192 561.372C608.747 553.543 605.216 548.778 599.312 548.359C593.505 547.947 589.27 552.194 588.717 559.99L588.712 560.054C588.154 567.915 591.716 572.714 597.619 573.133ZM629.707 580.375C622.391 579.856 618.493 574.807 619.032 567.203L620.569 545.546L626.151 545.942L624.686 566.605C624.301 572.027 626.624 575.191 631.758 575.555C637.02 575.928 640.719 572.418 641.122 566.738L642.515 547.103L648.097 547.498L645.731 580.867L640.148 580.471L640.485 575.722L640.356 575.713C638.339 578.698 634.776 580.735 629.707 580.375ZM665.693 593.569L668.856 548.971L674.439 549.367L674.039 555.014L674.167 555.023C676.528 551.289 680.42 549.146 685.201 549.485C693.736 550.091 698.9 557.293 698.154 567.817L698.151 567.849C697.405 578.373 691.214 584.738 682.839 584.144C678.123 583.809 674.409 581.16 672.597 577.162L672.468 577.152L671.276 593.965L665.693 593.569ZM682.003 579.119C687.906 579.537 691.901 575.048 692.44 567.444L692.443 567.412C692.986 559.744 689.663 554.768 683.76 554.349C678.113 553.949 673.754 558.573 673.224 566.049L673.221 566.081C672.693 573.525 676.388 578.72 682.003 579.119ZM702.617 584.902L704.984 551.534L710.567 551.93L710.166 557.576L710.295 557.586C711.691 553.815 714.751 551.581 718.505 551.848C719.468 551.916 720.291 552.136 720.735 552.232L720.351 557.654C719.913 557.462 718.737 557.217 717.39 557.121C713.058 556.814 710.021 559.63 709.661 564.699L708.2 585.298L702.617 584.902ZM735.074 587.849C725.801 587.191 720.084 580.046 720.838 569.426L720.842 569.362C721.596 558.742 728.291 552.542 737.5 553.195C746.708 553.848 752.496 560.901 751.74 571.554L751.736 571.618C750.98 582.27 744.282 588.502 735.074 587.849ZM735.456 582.91C741.328 583.327 745.469 579.041 746.024 571.213L746.029 571.148C746.584 563.32 743.053 558.555 737.149 558.136C731.342 557.724 727.106 561.97 726.553 569.767L726.549 569.831C725.991 577.692 729.553 582.491 735.456 582.91ZM772.741 590.521C767.961 590.182 764.41 587.511 762.599 583.481L762.471 583.472L762.071 589.119L756.488 588.723L759.772 542.424L765.355 542.82L764.041 561.333L764.17 561.342C766.528 557.64 770.579 555.541 775.296 555.876C783.67 556.47 788.901 563.645 788.154 574.169L788.152 574.201C787.405 584.725 781.276 591.126 772.741 590.521ZM772.001 585.502C777.905 585.921 781.897 581.464 782.441 573.796L782.443 573.764C782.982 566.159 779.662 561.151 773.758 560.733C768.143 560.334 763.752 564.957 763.224 572.4L763.222 572.432C762.692 579.908 766.354 585.102 772.001 585.502ZM802.292 592.617C795.65 592.146 791.475 587.819 791.905 581.755L791.909 581.691C792.312 576.011 796.993 572.764 804.693 572.859L814.293 572.992L814.491 570.2C814.78 566.125 812.292 563.466 807.64 563.136C803.34 562.831 800.499 564.693 799.646 567.632L799.561 567.916L794.171 567.534L794.228 567.183C795.099 561.731 800.193 557.642 808.054 558.199C815.947 558.759 820.586 563.377 820.112 570.051L818.476 593.12L812.893 592.724L813.278 587.301L813.149 587.292C810.933 590.811 806.751 592.933 802.292 592.617ZM797.616 582.16C797.388 585.368 799.876 587.576 803.887 587.861C809.149 588.234 813.448 584.895 813.792 580.05L813.986 577.323L805.027 577.236C800.549 577.176 797.841 578.983 797.621 582.096L797.616 582.16ZM842.109 595.441C837.328 595.102 833.777 592.432 831.967 588.401L831.839 588.392L831.438 594.039L825.855 593.643L829.139 547.345L834.722 547.741L833.409 566.254L833.537 566.263C835.896 562.561 839.947 560.462 844.663 560.796C853.037 561.39 858.268 568.565 857.522 579.089L857.52 579.121C856.773 589.645 850.644 596.046 842.109 595.441ZM841.369 590.423C847.272 590.841 851.265 586.384 851.808 578.716L851.811 578.684C852.35 571.08 849.029 566.072 843.126 565.653C837.511 565.255 833.12 569.877 832.592 577.321L832.59 577.353C832.059 584.829 835.722 590.022 841.369 590.423ZM862.24 596.224L865.524 549.925L871.107 550.321L867.823 596.62L862.24 596.224ZM877.774 608.612C876.684 608.535 875.506 608.322 874.809 608.144L875.132 603.588C875.606 603.718 876.241 603.86 876.915 603.908C880.444 604.158 882.465 603.399 884.081 599.708L884.889 597.863L874.874 563.584L880.842 564.007L888.079 592.446L888.207 592.455L899.419 565.325L905.29 565.741L889.749 600.271C886.922 606.488 883.806 609.04 877.774 608.612ZM921.244 600.409L924.528 554.111L930.111 554.507L928.149 582.164L928.277 582.173L943.953 568.484L950.723 568.964L935.23 582.344L948.805 602.364L942.324 601.904L931.043 585.465L927.719 588.228L926.827 600.805L921.244 600.409ZM952.687 602.64L955.054 569.271L960.637 569.667L960.3 574.416L960.428 574.425C962.446 571.44 966.008 569.403 971.078 569.763C978.393 570.282 982.292 575.331 981.752 582.935L980.216 604.592L974.633 604.196L976.099 583.534C976.484 578.111 974.16 574.947 969.027 574.583C963.765 574.21 960.066 577.721 959.663 583.4L958.27 603.036L952.687 602.64ZM1001.03 606.713C991.432 606.033 986.133 598.917 986.877 588.426L986.879 588.393C987.612 578.062 994.019 571.39 1003.13 572.036C1012.24 572.683 1017.31 579.846 1016.6 589.857L1016.46 591.91L992.426 590.206C992.067 597.081 995.569 601.36 1001.5 601.781C1005.74 602.082 1008.87 600.176 1010.04 597.388L1010.16 597.106L1015.64 597.496L1015.56 597.812C1014.07 603.253 1008.31 607.23 1001.03 606.713ZM1002.75 576.975C997.903 576.632 993.883 579.668 992.832 585.849L1011.09 587.144C1011 580.624 1007.63 577.321 1002.75 576.975ZM1027.64 607.956L1020.67 573.925L1026.22 574.319L1030.97 601.936L1031.1 601.945L1040.56 575.336L1045.95 575.719L1051.6 603.4L1051.73 603.409L1060.32 576.738L1065.84 577.13L1054.17 609.838L1048.49 609.435L1042.78 583.072L1042.66 583.063L1033.32 608.359L1027.64 607.956ZM1091.25 613.113C1084.61 612.642 1080.43 608.315 1080.86 602.251L1080.87 602.187C1081.27 596.507 1085.95 593.26 1093.65 593.355L1103.25 593.488L1103.45 590.696C1103.74 586.621 1101.25 583.962 1096.6 583.632C1092.3 583.327 1089.46 585.189 1088.6 588.128L1088.52 588.412L1083.13 588.03L1083.19 587.679C1084.06 582.227 1089.15 578.138 1097.01 578.695C1104.9 579.255 1109.54 583.873 1109.07 590.547L1107.43 613.616L1101.85 613.22L1102.23 607.797L1102.11 607.788C1099.89 611.307 1095.71 613.429 1091.25 613.113ZM1086.57 602.656C1086.35 605.864 1088.83 608.072 1092.84 608.357C1098.11 608.73 1102.41 605.391 1102.75 600.546L1102.94 597.819L1093.98 597.732C1089.51 597.672 1086.8 599.479 1086.58 602.592L1086.57 602.656ZM1131.07 615.937C1126.29 615.598 1122.73 612.928 1120.92 608.897L1120.8 608.888L1120.4 614.535L1114.81 614.139L1118.1 567.841L1123.68 568.237L1122.37 586.75L1122.49 586.759C1124.85 583.057 1128.9 580.958 1133.62 581.292C1141.99 581.886 1147.23 589.061 1146.48 599.585L1146.48 599.617C1145.73 610.141 1139.6 616.542 1131.07 615.937ZM1130.33 610.919C1136.23 611.337 1140.22 606.88 1140.77 599.212L1140.77 599.18C1141.31 591.576 1137.99 586.568 1132.08 586.149C1126.47 585.751 1122.08 590.373 1121.55 597.817L1121.55 597.849C1121.02 605.325 1124.68 610.518 1130.33 610.919ZM1164.69 618.322C1155.42 617.664 1149.7 610.519 1150.46 599.899L1150.46 599.835C1151.21 589.215 1157.91 583.015 1167.12 583.668C1176.33 584.321 1182.11 591.375 1181.36 602.027L1181.35 602.091C1180.6 612.743 1173.9 618.975 1164.69 618.322ZM1165.07 613.383C1170.95 613.8 1175.09 609.515 1175.64 601.686L1175.65 601.622C1176.2 593.793 1172.67 589.028 1166.77 588.609C1160.96 588.197 1156.72 592.444 1156.17 600.24L1156.17 600.304C1155.61 608.165 1159.17 612.965 1165.07 613.383ZM1197.16 620.625C1189.85 620.106 1185.95 615.057 1186.49 607.453L1188.02 585.796L1193.61 586.192L1192.14 606.855C1191.76 612.277 1194.08 615.441 1199.21 615.805C1204.47 616.178 1208.17 612.668 1208.58 606.989L1209.97 587.353L1215.55 587.749L1213.18 621.117L1207.6 620.721L1207.94 615.972L1207.81 615.963C1205.79 618.948 1202.23 620.985 1197.16 620.625ZM1231.27 623.044C1225.14 622.61 1222.32 619.637 1222.77 613.252L1224.21 593.006L1219.33 592.66L1219.66 588.04L1224.54 588.386L1225.17 579.37L1230.95 579.78L1230.31 588.795L1236.66 589.246L1236.34 593.866L1229.98 593.416L1228.55 613.629C1228.3 617.191 1229.8 618.297 1232.78 618.508C1233.46 618.556 1234.1 618.505 1234.59 618.508L1234.27 623.031C1233.55 623.078 1232.36 623.122 1231.27 623.044ZM1264.57 625.407C1258.44 624.972 1255.62 621.999 1256.08 615.614L1257.51 595.368L1252.63 595.022L1252.96 590.402L1257.84 590.748L1258.48 581.732L1264.25 582.142L1263.61 591.158L1269.97 591.608L1269.64 596.229L1263.29 595.778L1261.85 615.991C1261.6 619.553 1263.1 620.659 1266.09 620.871C1266.76 620.919 1267.41 620.868 1267.89 620.87L1267.57 625.394C1266.86 625.44 1265.66 625.484 1264.57 625.407ZM1273.89 625.423L1277.17 579.124L1282.76 579.52L1281.46 597.777L1281.59 597.786C1283.65 594.159 1287.44 592.202 1292.41 592.555C1299.5 593.058 1303.95 598.888 1303.38 606.974L1301.93 627.412L1296.35 627.016L1297.73 607.54C1298.16 601.508 1295.33 597.728 1290.13 597.36C1284.97 596.993 1281.26 600.664 1280.85 606.343L1279.47 625.819L1273.89 625.423ZM1314.93 589.123C1313.01 588.986 1311.55 587.302 1311.68 585.377C1311.82 583.42 1313.51 581.991 1315.43 582.128C1317.39 582.267 1318.82 583.916 1318.68 585.873C1318.54 587.798 1316.89 589.261 1314.93 589.123ZM1309.38 627.94L1311.74 594.571L1317.32 594.967L1314.96 628.336L1309.38 627.94ZM1334.36 630.357C1326.5 629.799 1322.03 625.452 1321.78 619.436L1321.77 619.145L1327.35 619.541L1327.39 619.866C1327.83 623.251 1330.16 625.383 1334.72 625.707C1339.24 626.027 1342.07 624.326 1342.29 621.31L1342.29 621.278C1342.46 618.871 1341.3 617.435 1337.58 616.236L1332.38 614.577C1326.2 612.623 1323.36 609.487 1323.7 604.674L1323.7 604.642C1324.11 598.899 1329.43 595.181 1336.65 595.694C1343.97 596.212 1348.32 600.81 1348.34 606.422L1348.34 606.841L1343.02 606.464L1343 606.237C1342.78 602.964 1340.46 600.639 1336.32 600.346C1332.28 600.059 1329.64 601.839 1329.43 604.791L1329.43 604.823C1329.27 607.101 1330.66 608.78 1334.29 609.94L1339.49 611.599C1346.11 613.713 1348.36 616.549 1348.03 621.298L1348.02 621.33C1347.61 627.169 1341.8 630.885 1334.36 630.357ZM1380.43 633.625C1371.16 632.967 1365.44 625.822 1366.19 615.202L1366.2 615.138C1366.95 604.518 1373.65 598.318 1382.86 598.971C1392.06 599.624 1397.85 606.677 1397.1 617.329L1397.09 617.394C1396.34 628.046 1389.64 634.278 1380.43 633.625ZM1380.81 628.686C1386.68 629.102 1390.83 624.817 1391.38 616.988L1391.39 616.924C1391.94 609.096 1388.41 604.331 1382.51 603.912C1376.7 603.5 1372.46 607.746 1371.91 615.543L1371.91 615.607C1371.35 623.468 1374.91 628.267 1380.81 628.686ZM1401.56 634.478L1403.92 601.11L1409.51 601.506L1409.17 606.254L1409.3 606.264C1411.31 603.279 1414.88 601.242 1419.95 601.602C1427.26 602.12 1431.16 607.169 1430.62 614.774L1429.08 636.431L1423.5 636.035L1424.97 615.372C1425.35 609.95 1423.03 606.786 1417.9 606.422C1412.63 606.049 1408.93 609.559 1408.53 615.238L1407.14 634.874L1401.56 634.478ZM1449.89 638.552C1440.3 637.871 1435 630.756 1435.75 620.264L1435.75 620.232C1436.48 609.901 1442.89 603.229 1452 603.875C1461.11 604.521 1466.18 611.685 1465.47 621.696L1465.33 623.749L1441.29 622.044C1440.94 628.92 1444.44 633.199 1450.37 633.62C1454.61 633.92 1457.74 632.014 1458.91 629.227L1459.02 628.945L1464.51 629.334L1464.42 629.651C1462.94 635.092 1457.18 639.068 1449.89 638.552ZM1451.62 608.814C1446.77 608.47 1442.75 611.506 1441.7 617.688L1459.96 618.983C1459.87 612.463 1456.49 609.16 1451.62 608.814ZM1471.44 650.722L1466.76 650.389C1471.76 645.359 1476.16 632.901 1476.92 622.185C1477.68 611.469 1475.08 598.547 1470.84 592.861L1475.52 593.193C1481.21 601.594 1483.41 611.165 1482.6 622.588C1481.79 634.01 1478.26 643.24 1471.44 650.722Z" fill="black"/>
</g>
</g>
<defs>
<filter id="filter0_d_711_99" x="342.334" y="346.537" width="1235.33" height="392.925" filterUnits="userSpaceOnUse" color-interpolation-filters="sRGB">
<feFlood flood-opacity="0" result="BackgroundImageFix"/>
<feColorMatrix in="SourceAlpha" type="matrix" values="0 0 0 0 0 0 0 0 0 0 0 0 0 0 0 0 0 0 127 0" result="hardAlpha"/>
<feOffset dy="3"/>
<feGaussianBlur stdDeviation="1.5"/>
<feComposite in2="hardAlpha" operator="out"/>
<feColorMatrix type="matrix" values="0 0 0 0 0 0 0 0 0 0 0 0 0 0 0 0 0 0 0.25 0"/>
<feBlend mode="normal" in2="BackgroundImageFix" result="effect1_dropShadow_711_99"/>
<feBlend mode="normal" in="SourceGraphic" in2="effect1_dropShadow_711_99" result="shape"/>
</filter>
<clipPath id="clip0_711_99">
<rect x="366.701" y="346.537" width="1211" height="302" rx="18" transform="rotate(4.05725 366.701 346.537)" fill="white"/>
</clipPath>
</defs>
</svg>
