<svg width="1920" height="1080" viewBox="0 0 1920 1080" fill="none" xmlns="http://www.w3.org/2000/svg">
<rect width="1920" height="1080" fill="#DDDDDD"/>
<g filter="url(#filter0_d_711_90)">
<g clip-path="url(#clip0_711_90)">
<rect x="326.778" y="242" width="854" height="223" rx="18" transform="rotate(4.05725 326.778 242)" fill="white"/>
<path d="M397.106 359.046C397.156 358.34 397.525 357.689 398.141 357.184L415.869 341.835C416.485 341.33 417.145 341.119 417.819 341.167C419.231 341.267 420.246 342.403 420.144 343.847C420.096 344.521 419.824 345.179 419.311 345.594L414.557 349.868L404.863 357.435L411.119 357.428L441.407 359.576C442.915 359.683 443.897 360.849 443.79 362.357C443.683 363.865 442.547 364.881 441.039 364.774L410.75 362.625L404.526 361.733L413.087 370.595L417.19 375.497C417.639 375.98 417.816 376.67 417.768 377.344C417.666 378.788 416.5 379.769 415.088 379.669C414.414 379.621 413.791 379.319 413.252 378.733L397.868 361.035C397.329 360.448 397.056 359.752 397.106 359.046ZM503.339 366.581C503.289 367.287 502.921 367.938 502.304 368.442L484.577 383.792C483.96 384.296 483.3 384.507 482.627 384.46C481.215 384.359 480.199 383.223 480.302 381.779C480.349 381.106 480.622 380.448 481.135 380.033L485.888 375.759L495.615 368.194L489.326 368.199L459.038 366.051C457.53 365.944 456.549 364.778 456.656 363.27C456.763 361.762 457.899 360.746 459.407 360.853L489.695 363.001L495.888 363.892L487.358 355.032L483.256 350.13C482.807 349.646 482.63 348.957 482.678 348.283C482.78 346.839 483.946 345.858 485.358 345.958C486.031 346.005 486.655 346.308 487.194 346.894L502.578 364.592C503.116 365.179 503.389 365.875 503.339 366.581ZM525.247 391.417L527.613 358.048L533.196 358.444L532.85 363.321L532.979 363.33C534.721 360.133 538.215 358.155 542.514 358.46C547.07 358.784 550.273 361.365 551.428 365.542L551.556 365.551C553.702 361.672 557.787 359.544 562.471 359.876C569.081 360.345 573.041 364.979 572.57 371.621L570.936 394.657L565.353 394.262L566.896 372.508C567.221 367.92 564.88 365.013 560.484 364.701C556.057 364.387 552.71 367.471 552.387 372.027L550.882 393.235L545.3 392.839L546.886 370.476C547.173 366.433 544.666 363.579 540.527 363.285C536.1 362.971 532.643 366.241 532.313 370.893L530.829 391.813L525.247 391.417ZM591.841 396.785C582.569 396.128 576.852 388.983 577.605 378.362L577.61 378.298C578.363 367.678 585.059 361.478 594.267 362.131C603.476 362.784 609.263 369.838 608.508 380.49L608.503 380.554C607.748 391.206 601.05 397.438 591.841 396.785ZM592.224 391.847C598.096 392.263 602.237 387.978 602.792 380.149L602.797 380.085C603.352 372.256 599.82 367.491 593.917 367.072C588.109 366.66 583.874 370.907 583.321 378.703L583.317 378.768C582.759 386.628 586.32 391.428 592.224 391.847ZM621.084 398.215L611.163 363.975L617.034 364.391L624.297 392.477L624.425 392.486L635.611 365.709L641.419 366.121L626.795 398.62L621.084 398.215ZM655.851 401.326C646.257 400.645 640.958 393.53 641.702 383.038L641.704 383.006C642.437 372.674 648.844 366.002 657.956 366.649C667.068 367.295 672.138 374.459 671.428 384.469L671.283 386.523L647.251 384.818C646.892 391.693 650.394 395.973 656.33 396.394C660.565 396.694 663.699 394.788 664.864 392.001L664.981 391.719L670.467 392.108L670.38 392.424C668.898 397.866 663.134 401.842 655.851 401.326ZM657.573 371.588C652.728 371.244 648.708 374.28 647.657 380.461L665.913 381.756C665.827 375.236 662.45 371.934 657.573 371.588ZM705.871 404.874C701.091 404.534 697.539 401.864 695.729 397.834L695.601 397.825L695.2 403.472L689.618 403.076L692.902 356.777L698.484 357.173L697.171 375.686L697.3 375.695C699.658 371.993 703.709 369.894 708.425 370.229C716.8 370.823 722.031 377.998 721.284 388.522L721.282 388.554C720.535 399.077 714.406 405.479 705.871 404.874ZM705.131 399.855C711.035 400.274 715.027 395.817 715.571 388.149L715.573 388.116C716.112 380.512 712.791 375.504 706.888 375.086C701.273 374.687 696.882 379.31 696.354 386.753L696.352 386.785C695.822 394.261 699.484 399.455 705.131 399.855ZM739.4 407.252C729.807 406.571 724.507 399.456 725.251 388.964L725.253 388.932C725.986 378.601 732.393 371.929 741.505 372.575C750.617 373.221 755.688 380.385 754.978 390.395L754.832 392.449L730.8 390.744C730.442 397.62 733.943 401.899 739.879 402.32C744.114 402.62 747.248 400.714 748.413 397.927L748.53 397.645L754.017 398.034L753.93 398.351C752.447 403.792 746.683 407.768 739.4 407.252ZM741.122 377.514C736.278 377.17 732.257 380.206 731.206 386.388L749.462 387.683C749.377 381.163 745.999 377.86 741.122 377.514ZM770.202 409.437C764.073 409.002 761.253 406.029 761.706 399.644L763.142 379.398L758.265 379.052L758.593 374.432L763.47 374.778L764.109 365.762L769.885 366.172L769.245 375.188L775.598 375.638L775.27 380.258L768.917 379.808L767.484 400.021C767.231 403.583 768.733 404.689 771.716 404.901C772.39 404.948 773.039 404.898 773.522 404.9L773.201 409.424C772.489 409.47 771.292 409.514 770.202 409.437ZM785.84 409.901L778.871 375.87L784.421 376.264L789.17 403.881L789.298 403.89L798.763 377.281L804.153 377.664L809.8 405.345L809.928 405.354L818.527 378.683L824.046 379.075L812.375 411.783L806.696 411.38L800.988 385.017L800.859 385.008L791.519 410.304L785.84 409.901ZM839.954 414.384C830.361 413.704 825.061 406.588 825.805 396.097L825.808 396.064C826.54 385.733 832.947 379.061 842.059 379.707C851.171 380.354 856.242 387.517 855.532 397.528L855.386 399.581L831.354 397.877C830.996 404.752 834.497 409.031 840.433 409.452C844.668 409.753 847.802 407.847 848.967 405.059L849.084 404.777L854.571 405.167L854.484 405.483C853.001 410.924 847.238 414.901 839.954 414.384ZM841.677 384.646C836.832 384.303 832.811 387.339 831.76 393.52L850.017 394.815C849.931 388.295 846.554 384.992 841.677 384.646ZM873.643 416.774C864.05 416.093 858.75 408.978 859.495 398.486L859.497 398.454C860.23 388.123 866.636 381.451 875.748 382.097C884.86 382.743 889.931 389.907 889.221 399.918L889.075 401.971L865.044 400.266C864.685 407.142 868.187 411.421 874.122 411.842C878.357 412.142 881.492 410.236 882.657 407.449L882.773 407.167L888.26 407.556L888.173 407.873C886.691 413.314 880.927 417.29 873.643 416.774ZM875.366 387.036C870.521 386.692 866.501 389.728 865.449 395.91L883.706 397.205C883.62 390.685 880.243 387.382 875.366 387.036ZM893.646 417.548L896.013 384.179L901.595 384.575L901.259 389.324L901.387 389.333C903.404 386.348 906.967 384.311 912.036 384.671C919.352 385.19 923.25 390.239 922.711 397.843L921.175 419.5L915.592 419.104L917.057 398.442C917.442 393.019 915.119 389.856 909.985 389.491C904.724 389.118 901.024 392.629 900.621 398.308L899.229 417.944L893.646 417.548ZM953.567 422.443C945.706 421.885 941.242 417.538 940.992 411.522L940.98 411.231L946.563 411.627L946.604 411.953C947.041 415.337 949.373 417.47 953.929 417.793C958.453 418.114 961.282 416.412 961.496 413.396L961.499 413.364C961.669 410.957 960.514 409.521 956.794 408.322L951.591 406.663C945.409 404.709 942.568 401.573 942.909 396.76L942.912 396.728C943.319 390.985 948.645 387.268 955.864 387.78C963.18 388.299 967.529 392.896 967.551 398.508L967.553 398.928L962.227 398.55L962.211 398.323C961.991 395.051 959.673 392.726 955.534 392.432C951.492 392.145 948.85 393.925 948.641 396.877L948.639 396.909C948.477 399.187 949.874 400.866 953.5 402.026L958.703 403.685C965.324 405.799 967.574 408.635 967.237 413.384L967.235 413.416C966.821 419.255 961.011 422.971 953.567 422.443ZM972.671 423.153L975.955 376.854L981.538 377.25L978.254 423.549L972.671 423.153ZM991.705 385.292C989.78 385.155 988.32 383.471 988.456 381.546C988.595 379.589 990.276 378.16 992.202 378.297C994.159 378.436 995.59 380.085 995.451 382.042C995.314 383.967 993.663 385.43 991.705 385.292ZM986.147 424.109L988.513 390.741L994.096 391.136L991.729 424.505L986.147 424.109ZM1011.83 426.576C1003.3 425.97 998.134 418.768 998.881 408.244L998.883 408.212C999.629 397.688 1005.82 391.323 1014.19 391.917C1018.91 392.252 1022.63 394.901 1024.44 398.9L1024.57 398.909L1025.88 380.396L1031.46 380.792L1028.18 427.09L1022.6 426.694L1023 421.047L1022.87 421.038C1020.51 424.772 1016.61 426.915 1011.83 426.576ZM1013.27 421.712C1018.92 422.113 1023.28 417.488 1023.81 410.012L1023.81 409.98C1024.34 402.536 1020.65 397.341 1015.03 396.942C1009.13 396.524 1005.13 401.013 1004.59 408.617L1004.59 408.649C1004.05 416.317 1007.37 421.293 1013.27 421.712ZM1049.4 429.241C1039.81 428.56 1034.51 421.445 1035.26 410.953L1035.26 410.921C1035.99 400.59 1042.4 393.918 1051.51 394.564C1060.62 395.21 1065.69 402.374 1064.98 412.384L1064.84 414.438L1040.8 412.733C1040.45 419.609 1043.95 423.888 1049.88 424.309C1054.12 424.609 1057.25 422.703 1058.42 419.916L1058.53 419.634L1064.02 420.023L1063.93 420.339C1062.45 425.781 1056.69 429.757 1049.4 429.241ZM1051.13 399.503C1046.28 399.159 1042.26 402.195 1041.21 408.377L1059.47 409.671C1059.38 403.152 1056 399.849 1051.13 399.503ZM1081.2 431.496C1073.34 430.938 1068.88 426.591 1068.63 420.575L1068.61 420.284L1074.2 420.68L1074.24 421.006C1074.68 424.39 1077.01 426.523 1081.56 426.846C1086.09 427.167 1088.92 425.465 1089.13 422.449L1089.13 422.417C1089.3 420.011 1088.15 418.574 1084.43 417.375L1079.22 415.716C1073.04 413.762 1070.2 410.626 1070.54 405.814L1070.55 405.782C1070.95 400.038 1076.28 396.321 1083.5 396.833C1090.81 397.352 1095.16 401.949 1095.18 407.561L1095.19 407.981L1089.86 407.603L1089.84 407.376C1089.63 404.104 1087.31 401.779 1083.17 401.485C1079.13 401.199 1076.48 402.978 1076.27 405.93L1076.27 405.962C1076.11 408.24 1077.51 409.919 1081.13 411.079L1086.34 412.738C1092.96 414.852 1095.21 417.688 1094.87 422.437L1094.87 422.469C1094.45 428.309 1088.64 432.024 1081.2 431.496Z" fill="black"/>
</g>
</g>
<g filter="url(#filter1_d_711_90)">
<g clip-path="url(#clip1_711_90)">
<rect x="571" y="688.895" width="956" height="223" rx="18" transform="rotate(-8.96018 571 688.895)" fill="white"/>
<path d="M663.942 810.908L673.775 762.37L679.431 761.478L703.69 804.641L697.685 805.588L690.977 793.197L672.517 796.108L669.947 809.962L663.942 810.908ZM677.621 768.797L673.498 790.971L688.495 788.607L677.748 768.777L677.621 768.797ZM708.392 803.9L701.163 758.051L706.692 757.18L713.921 803.028L708.392 803.9ZM733.212 800.638C725.428 801.865 720.099 798.635 718.5 792.83L718.423 792.549L723.951 791.678L724.065 791.985C725.253 795.185 728.005 796.737 732.517 796.026C736.997 795.319 739.371 793.024 738.9 790.037L738.895 790.005C738.519 787.622 737.069 786.483 733.175 786.153L727.732 785.709C721.269 785.197 717.795 782.782 717.043 778.016L717.038 777.984C716.141 772.297 720.494 767.475 727.643 766.348C734.887 765.206 740.16 768.705 741.445 774.169L741.542 774.577L736.267 775.408L736.201 775.191C735.25 772.052 732.468 770.309 728.369 770.955C724.366 771.586 722.193 773.915 722.654 776.838L722.659 776.87C723.014 779.126 724.753 780.447 728.547 780.761L733.99 781.205C740.918 781.774 743.749 784.03 744.49 788.732L744.495 788.764C745.407 794.547 740.583 799.475 733.212 800.638ZM765.493 795.548C756.311 796.996 749.132 791.322 747.473 780.805L747.463 780.742C745.805 770.225 750.932 762.676 760.051 761.238C769.17 759.8 776.398 765.369 778.061 775.917L778.071 775.981C779.734 786.529 774.612 794.11 765.493 795.548ZM764.754 790.65C770.568 789.733 773.638 784.625 772.415 776.873L772.405 776.809C771.183 769.056 766.669 765.209 760.823 766.131C755.072 767.038 751.902 772.129 753.119 779.85L753.129 779.913C754.356 787.698 758.907 791.572 764.754 790.65ZM815.588 787.78C805.674 789.343 798.204 785.538 796.395 777.781L796.293 777.341L802.012 776.439L802.145 776.874C803.539 781.376 808.433 783.502 815.074 782.455C821.683 781.413 825.374 777.77 824.627 773.036L824.622 773.004C823.986 768.969 820.993 767.129 814.482 766.723L809.223 766.412C799.952 765.855 795.122 762.481 794.065 755.777L794.06 755.746C792.904 748.21 798.745 741.884 808.182 740.396C817.142 738.983 824.503 743.13 826.194 750.549L826.301 751.02L820.582 751.922L820.448 751.487C819.013 746.927 814.669 744.779 808.854 745.695C802.727 746.694 799.185 750.248 799.881 754.665L799.886 754.697C800.477 758.446 803.612 760.361 809.791 760.722L815.05 761.033C824.78 761.615 829.321 764.807 830.424 771.797L830.429 771.828C831.711 779.962 826.073 786.126 815.588 787.78ZM840.002 794.546L833.039 750.381L838.567 749.51L839.449 755.102L839.576 755.082C841.035 750.911 844.345 747.947 849.079 747.201C857.531 745.868 864.185 751.722 865.828 762.144L865.833 762.176C867.476 772.597 862.878 780.193 854.585 781.501C849.914 782.237 845.699 780.492 843.033 777.005L842.905 777.025L845.531 793.674L840.002 794.546ZM852.638 776.793C858.484 775.871 861.365 770.598 860.177 763.067L860.172 763.036C858.975 755.442 854.616 751.342 848.77 752.264C843.178 753.146 839.973 758.633 841.14 766.036L841.145 766.068C842.308 773.44 847.077 777.67 852.638 776.793ZM883.784 776.897C877.207 777.934 872.165 774.658 871.218 768.653L871.208 768.59C870.321 762.966 874.15 758.748 881.673 757.106L891.056 755.073L890.621 752.308C889.984 748.273 886.961 746.242 882.354 746.969C878.097 747.64 875.748 750.094 875.579 753.15L875.56 753.446L870.223 754.287L870.199 753.933C869.819 748.424 873.862 743.293 881.646 742.066C889.463 740.833 895.022 744.288 896.064 750.897L899.666 773.741L894.137 774.613L893.291 769.243L893.164 769.263C891.797 773.191 888.201 776.2 883.784 776.897ZM876.873 767.762C877.374 770.939 880.295 772.53 884.267 771.904C889.478 771.082 892.915 766.86 892.159 762.063L891.733 759.362L882.985 761.295C878.609 762.245 876.377 764.616 876.863 767.698L876.873 767.762ZM920.482 771.11C911.109 772.588 904.115 766.853 902.457 756.336L902.452 756.304C900.809 745.883 905.826 738.253 915.008 736.806C923.237 735.508 928.96 740.207 930.551 745.752L930.623 746.001L925.221 746.853L925.118 746.609C923.771 743.435 920.641 740.932 915.78 741.699C910.029 742.605 906.936 747.978 908.118 755.476L908.123 755.508C909.335 763.197 913.991 767.119 919.711 766.217C924.222 765.506 926.713 762.508 927.053 758.677L927.077 758.413L932.51 757.557L932.513 757.784C932.615 764.215 927.949 769.933 920.482 771.11ZM952.986 765.986C943.486 767.483 936.72 761.745 935.081 751.355L935.076 751.323C933.463 741.092 938.202 733.149 947.226 731.726C956.249 730.303 962.803 736.14 964.366 746.054L964.687 748.087L940.889 751.839C942.088 758.619 946.463 761.999 952.341 761.072C956.536 760.411 959.16 757.848 959.667 754.87L959.717 754.569L965.151 753.713L965.137 754.04C964.918 759.676 960.198 764.848 952.986 765.986ZM947.966 736.624C943.168 737.38 939.935 741.244 940.303 747.503L958.382 744.653C956.83 738.32 952.795 735.862 947.966 736.624ZM995.752 759.242C989.175 760.279 984.133 757.004 983.186 750.999L983.176 750.936C982.289 745.312 986.118 741.094 993.641 739.451L1003.02 737.418L1002.59 734.654C1001.95 730.619 998.93 728.588 994.322 729.315C990.065 729.986 987.717 732.44 987.547 735.495L987.529 735.791L982.191 736.633L982.167 736.278C981.787 730.77 985.83 725.639 993.615 724.412C1001.43 723.179 1006.99 726.634 1008.03 733.242L1011.63 756.087L1006.11 756.959L1005.26 751.589L1005.13 751.609C1003.76 755.537 1000.17 758.546 995.752 759.242ZM988.841 750.107C989.342 753.285 992.263 754.876 996.235 754.249C1001.45 753.428 1004.88 749.206 1004.13 744.408L1003.7 741.708L994.953 743.641C990.577 744.591 988.345 746.962 988.831 750.044L988.841 750.107ZM1018.66 754.98L1013.45 721.936L1018.97 721.064L1019.72 725.767L1019.84 725.747C1021.14 722.384 1024.15 719.597 1029.17 718.806C1036.41 717.664 1041.35 721.705 1042.54 729.235L1045.92 750.682L1040.39 751.553L1037.16 731.091C1036.32 725.722 1033.34 723.163 1028.26 723.964C1023.05 724.786 1020.23 729.039 1021.12 734.663L1024.18 754.108L1018.66 754.98ZM1065.49 748.246C1057.04 749.579 1050.39 743.725 1048.75 733.303L1048.74 733.271C1047.1 722.85 1051.7 715.254 1059.99 713.946C1064.66 713.21 1068.87 714.955 1071.54 718.442L1071.67 718.422L1068.78 700.089L1074.31 699.217L1081.53 745.066L1076.01 745.937L1075.12 740.345L1075 740.365C1073.54 744.536 1070.23 747.5 1065.49 748.246ZM1065.8 743.183C1071.39 742.301 1074.6 736.814 1073.43 729.41L1073.43 729.379C1072.27 722.007 1067.5 717.777 1061.94 718.654C1056.09 719.576 1053.21 724.849 1054.4 732.38L1054.4 732.411C1055.6 740.005 1059.96 744.105 1065.8 743.183ZM1118.32 740.047C1108.41 741.61 1100.94 737.806 1099.13 730.048L1099.03 729.608L1104.75 728.707L1104.88 729.141C1106.27 733.643 1111.17 735.77 1117.81 734.723C1124.42 733.681 1128.11 730.038 1127.36 725.304L1127.36 725.272C1126.72 721.237 1123.73 719.397 1117.22 718.99L1111.96 718.68C1102.69 718.123 1097.86 714.749 1096.8 708.045L1096.79 708.013C1095.64 700.478 1101.48 694.151 1110.92 692.663C1119.88 691.251 1127.24 695.398 1128.93 702.816L1129.03 703.288L1123.32 704.189L1123.18 703.755C1121.75 699.194 1117.4 697.046 1111.59 697.963C1105.46 698.962 1101.92 702.516 1102.61 706.932L1102.62 706.964C1103.21 710.713 1106.35 712.629 1112.52 712.99L1117.78 713.3C1127.51 713.882 1132.05 717.074 1133.16 724.064L1133.16 724.096C1134.44 732.23 1128.81 738.394 1118.32 740.047ZM1141.27 735.647L1134.04 689.799L1139.57 688.927L1142.42 707.006L1142.55 706.986C1143.74 702.988 1146.98 700.23 1151.91 699.453C1158.93 698.346 1164.58 703.023 1165.85 711.03L1169.04 731.269L1163.51 732.141L1160.47 712.854C1159.53 706.881 1155.92 703.835 1150.77 704.647C1145.66 705.453 1142.87 709.866 1143.76 715.49L1146.8 734.776L1141.27 735.647ZM1173.08 691.035C1171.17 691.335 1169.37 690.024 1169.07 688.118C1168.77 686.18 1170.08 684.409 1171.99 684.108C1173.93 683.803 1175.69 685.087 1176 687.026C1176.3 688.932 1175.02 690.729 1173.08 691.035ZM1176.41 730.107L1171.2 697.063L1176.73 696.191L1181.94 729.235L1176.41 730.107ZM1191.25 727.767L1186.76 699.299L1182.15 700.025L1181.43 695.45L1186.04 694.723L1185.4 690.656C1184.39 684.302 1186.87 680.817 1192.97 679.855C1194.21 679.66 1195.53 679.55 1196.38 679.547L1197.08 684.027C1196.4 684.037 1195.54 684.14 1194.68 684.276C1191.63 684.756 1190.35 686.554 1190.87 689.826L1191.5 693.862L1198.3 692.789L1199.02 697.365L1192.29 698.427L1196.78 726.896L1191.25 727.767ZM1220.07 723.874C1214 724.831 1210.58 722.569 1209.59 716.246L1206.43 696.198L1201.6 696.959L1200.87 692.384L1205.7 691.622L1204.3 682.694L1210.02 681.792L1211.42 690.72L1217.71 689.729L1218.44 694.304L1212.14 695.296L1215.3 715.313C1215.86 718.84 1217.57 719.579 1220.52 719.113C1221.19 719.008 1221.81 718.812 1222.28 718.706L1222.99 723.186C1222.31 723.391 1221.15 723.704 1220.07 723.874ZM1239.65 703.723L1238.84 698.576L1252.38 696.442L1250.3 683.288L1255.45 682.476L1257.53 695.63L1271.09 693.491L1271.9 698.638L1258.34 700.777L1260.41 713.931L1255.26 714.743L1253.19 701.589L1239.65 703.723ZM1310.87 709.688C1300.95 711.251 1293.48 707.447 1291.67 699.689L1291.57 699.249L1297.29 698.348L1297.42 698.782C1298.82 703.284 1303.71 705.411 1310.35 704.364C1316.96 703.322 1320.65 699.679 1319.91 694.945L1319.9 694.913C1319.26 690.878 1316.27 689.038 1309.76 688.632L1304.5 688.321C1295.23 687.764 1290.4 684.39 1289.34 677.686L1289.34 677.654C1288.18 670.119 1294.02 663.792 1303.46 662.305C1312.42 660.892 1319.78 665.039 1321.47 672.457L1321.58 672.929L1315.86 673.83L1315.73 673.396C1314.29 668.835 1309.95 666.687 1304.13 667.604C1298.01 668.603 1294.46 672.157 1295.16 676.573L1295.16 676.605C1295.76 680.354 1298.89 682.27 1305.07 682.631L1310.33 682.941C1320.06 683.524 1324.6 686.715 1325.7 693.705L1325.71 693.737C1326.99 701.871 1321.35 708.035 1310.87 709.688ZM1335.28 716.454L1328.32 672.29L1333.84 671.418L1334.73 677.01L1334.85 676.99C1336.31 672.82 1339.62 669.856 1344.36 669.109C1352.81 667.777 1359.46 673.631 1361.11 684.052L1361.11 684.084C1362.75 694.506 1358.16 702.102 1349.86 703.409C1345.19 704.146 1340.98 702.401 1338.31 698.913L1338.18 698.933L1340.81 715.583L1335.28 716.454ZM1347.92 698.701C1353.76 697.78 1356.64 692.506 1355.46 684.976L1355.45 684.944C1354.25 677.35 1349.89 673.251 1344.05 674.173C1338.46 675.054 1335.25 680.542 1336.42 687.945L1336.42 687.977C1337.59 695.348 1342.36 699.578 1347.92 698.701ZM1379.06 698.805C1372.49 699.842 1367.44 696.567 1366.5 690.562L1366.49 690.498C1365.6 684.875 1369.43 680.656 1376.95 679.014L1386.33 676.981L1385.9 674.217C1385.26 670.182 1382.24 668.151 1377.63 668.877C1373.37 669.549 1371.03 672.003 1370.86 675.058L1370.84 675.354L1365.5 676.196L1365.48 675.841C1365.1 670.333 1369.14 665.202 1376.92 663.974C1384.74 662.742 1390.3 666.196 1391.34 672.805L1394.94 695.65L1389.42 696.522L1388.57 691.152L1388.44 691.172C1387.07 695.1 1383.48 698.109 1379.06 698.805ZM1372.15 689.67C1372.65 692.847 1375.57 694.438 1379.54 693.812C1384.76 692.991 1388.19 688.769 1387.44 683.971L1387.01 681.271L1378.26 683.203C1373.89 684.154 1371.66 686.525 1372.14 689.607L1372.15 689.67ZM1415.76 693.019C1406.39 694.497 1399.39 688.761 1397.74 678.245L1397.73 678.213C1396.09 667.791 1401.1 660.162 1410.29 658.714C1418.52 657.417 1424.24 662.115 1425.83 667.661L1425.9 667.91L1420.5 668.761L1420.4 668.517C1419.05 665.343 1415.92 662.841 1411.06 663.607C1405.31 664.514 1402.21 669.886 1403.4 677.385L1403.4 677.416C1404.61 685.105 1409.27 689.028 1414.99 688.126C1419.5 687.415 1421.99 684.417 1422.33 680.586L1422.35 680.322L1427.79 679.465L1427.79 679.692C1427.89 686.124 1423.23 691.842 1415.76 693.019ZM1448.26 687.894C1438.76 689.392 1432 683.653 1430.36 673.263L1430.35 673.232C1428.74 663.001 1433.48 655.057 1442.5 653.634C1451.53 652.212 1458.08 658.049 1459.64 667.962L1459.96 669.996L1436.17 673.748C1437.37 680.527 1441.74 683.908 1447.62 682.981C1451.81 682.32 1454.44 679.757 1454.94 676.779L1455 676.478L1460.43 675.621L1460.41 675.949C1460.2 681.584 1455.48 686.757 1448.26 687.894ZM1443.24 658.532C1438.45 659.289 1435.21 663.153 1435.58 669.412L1453.66 666.561C1452.11 660.228 1448.07 657.771 1443.24 658.532Z" fill="black"/>
</g>
</g>
<defs>
<filter id="filter0_d_711_90" x="308" y="242" width="873.638" height="288.864" filterUnits="userSpaceOnUse" color-interpolation-filters="sRGB">
<feFlood flood-opacity="0" result="BackgroundImageFix"/>
<feColorMatrix in="SourceAlpha" type="matrix" values="0 0 0 0 0 0 0 0 0 0 0 0 0 0 0 0 0 0 127 0" result="hardAlpha"/>
<feOffset dy="3"/>
<feGaussianBlur stdDeviation="1.5"/>
<feComposite in2="hardAlpha" operator="out"/>
<feColorMatrix type="matrix" values="0 0 0 0 0 0 0 0 0 0 0 0 0 0 0 0 0 0 0.25 0"/>
<feBlend mode="normal" in2="BackgroundImageFix" result="effect1_dropShadow_711_90"/>
<feBlend mode="normal" in="SourceGraphic" in2="effect1_dropShadow_711_90" result="shape"/>
</filter>
<filter id="filter1_d_711_90" x="568" y="540" width="985.066" height="375.174" filterUnits="userSpaceOnUse" color-interpolation-filters="sRGB">
<feFlood flood-opacity="0" result="BackgroundImageFix"/>
<feColorMatrix in="SourceAlpha" type="matrix" values="0 0 0 0 0 0 0 0 0 0 0 0 0 0 0 0 0 0 127 0" result="hardAlpha"/>
<feOffset dy="3"/>
<feGaussianBlur stdDeviation="1.5"/>
<feComposite in2="hardAlpha" operator="out"/>
<feColorMatrix type="matrix" values="0 0 0 0 0 0 0 0 0 0 0 0 0 0 0 0 0 0 0.25 0"/>
<feBlend mode="normal" in2="BackgroundImageFix" result="effect1_dropShadow_711_90"/>
<feBlend mode="normal" in="SourceGraphic" in2="effect1_dropShadow_711_90" result="shape"/>
</filter>
<clipPath id="clip0_711_90">
<rect x="326.778" y="242" width="854" height="223" rx="18" transform="rotate(4.05725 326.778 242)" fill="white"/>
</clipPath>
<clipPath id="clip1_711_90">
<rect x="571" y="688.895" width="956" height="223" rx="18" transform="rotate(-8.96018 571 688.895)" fill="white"/>
</clipPath>
</defs>
</svg>
