<svg width="1920" height="1080" viewBox="0 0 1920 1080" fill="none" xmlns="http://www.w3.org/2000/svg">
<rect width="1920" height="1080" fill="#DDDDDD"/>
<g filter="url(#filter0_d_717_225)">
<g clip-path="url(#clip0_717_225)">
<rect x="196.773" y="318.048" width="1513" height="217" rx="18" transform="rotate(-5.21 196.773 318.048)" fill="white"/>
<mask id="path-2-inside-1_717_225" fill="white">
<path d="M275.304 386.4C274.694 379.707 274.389 376.36 275.458 373.685C276.399 371.332 278.06 369.337 280.204 367.987C282.642 366.451 285.988 366.146 292.681 365.535L379.919 357.581C386.612 356.971 389.959 356.665 392.634 357.735C394.987 358.676 396.982 360.337 398.332 362.481C399.868 364.919 400.173 368.265 400.783 374.958L406.831 441.283C407.441 447.976 407.747 451.322 406.677 453.997C405.736 456.35 404.075 458.345 401.931 459.696C399.493 461.232 396.147 461.537 389.454 462.147L302.216 470.102C295.523 470.712 292.177 471.017 289.501 469.948C287.148 469.007 285.154 467.345 283.803 465.201C282.267 462.764 281.962 459.417 281.352 452.724L275.304 386.4Z"/>
</mask>
<path d="M275.304 386.4C274.694 379.707 274.389 376.36 275.458 373.685C276.399 371.332 278.06 369.337 280.204 367.987C282.642 366.451 285.988 366.146 292.681 365.535L379.919 357.581C386.612 356.971 389.959 356.665 392.634 357.735C394.987 358.676 396.982 360.337 398.332 362.481C399.868 364.919 400.173 368.265 400.783 374.958L406.831 441.283C407.441 447.976 407.747 451.322 406.677 453.997C405.736 456.35 404.075 458.345 401.931 459.696C399.493 461.232 396.147 461.537 389.454 462.147L302.216 470.102C295.523 470.712 292.177 471.017 289.501 469.948C287.148 469.007 285.154 467.345 283.803 465.201C282.267 462.764 281.962 459.417 281.352 452.724L275.304 386.4Z" fill="#F6F8FA"/>
<path d="M272.658 379.411C271.956 371.711 277.629 364.9 285.329 364.198L386.908 354.935C394.608 354.233 401.419 359.906 402.121 367.606L398.138 367.969C397.636 362.469 392.771 358.417 387.271 358.919L285.693 368.181C280.193 368.683 276.14 373.548 276.642 379.048L272.658 379.411ZM409.84 452.255C410.542 459.955 404.869 466.766 397.169 467.468L295.59 476.731C287.89 477.433 281.079 471.76 280.377 464.06L283.997 459.713C284.298 463.013 289.001 465.282 294.501 464.78L396.079 455.518C401.579 455.017 405.794 451.935 405.493 448.635L409.84 452.255ZM295.59 476.731C287.89 477.433 281.079 471.76 280.377 464.06L272.658 379.411C271.956 371.711 277.629 364.9 285.329 364.198L285.693 368.181C280.193 368.683 276.14 373.548 276.642 379.048L283.997 459.713C284.298 463.013 289.001 465.282 294.501 464.78L295.59 476.731ZM386.908 354.935C394.608 354.233 401.419 359.906 402.121 367.606L409.84 452.255C410.542 459.955 404.869 466.766 397.169 467.468L396.079 455.518C401.579 455.017 405.794 451.935 405.493 448.635L398.138 367.969C397.636 362.469 392.771 358.417 387.271 358.919L386.908 354.935Z" fill="#D1D9E0" mask="url(#path-2-inside-1_717_225)"/>
<path d="M341.577 432.073C335.718 432.608 331.367 429.286 330.848 423.85L334.886 423.481C335.286 426.575 337.835 428.461 341.173 428.156C344.977 427.81 346.912 425.28 346.533 421.125L344.681 400.819L333.104 401.874L332.77 398.21L348.478 396.778L350.675 420.865C351.26 427.284 347.809 431.505 341.577 432.073Z" fill="black"/>
<path d="M438.364 429.213C429.106 430.057 422.313 423.926 421.347 413.323L421.341 413.259C420.374 402.656 425.984 395.459 435.177 394.621C444.371 393.782 451.219 399.812 452.188 410.446L452.194 410.51C453.164 421.145 447.557 428.375 438.364 429.213ZM437.946 424.277C443.808 423.743 447.205 418.846 446.492 411.03L446.486 410.966C445.774 403.15 441.521 399.016 435.627 399.554C429.829 400.082 426.333 404.955 427.043 412.739L427.048 412.803C427.764 420.651 432.052 424.814 437.946 424.277ZM459.351 426.653L456.313 393.339L461.887 392.831L462.401 398.469L462.529 398.457C463.3 394.511 465.961 391.814 469.708 391.472C470.669 391.384 471.517 391.469 471.971 391.492L472.465 396.905C472.002 396.786 470.802 396.734 469.456 396.857C465.132 397.251 462.588 400.519 463.049 405.58L464.924 426.145L459.351 426.653Z" fill="black"/>
<mask id="path-6-inside-2_717_225" fill="white">
<path d="M486.428 367.149C485.818 360.456 485.513 357.109 486.582 354.434C487.523 352.081 489.184 350.086 491.329 348.736C493.766 347.2 497.113 346.895 503.805 346.285L828.06 316.718C834.753 316.108 838.1 315.803 840.775 316.872C843.128 317.813 845.123 319.474 846.473 321.618C848.009 324.056 848.314 327.402 848.924 334.095L854.972 400.42C855.582 407.113 855.888 410.459 854.818 413.134C853.877 415.487 852.216 417.482 850.072 418.833C847.634 420.369 844.288 420.674 837.595 421.284L513.34 450.851C506.647 451.461 503.301 451.766 500.626 450.697C498.273 449.756 496.278 448.095 494.927 445.95C493.391 443.513 493.086 440.166 492.476 433.474L486.428 367.149Z"/>
</mask>
<path d="M486.428 367.149C485.818 360.456 485.513 357.109 486.582 354.434C487.523 352.081 489.184 350.086 491.329 348.736C493.766 347.2 497.113 346.895 503.805 346.285L828.06 316.718C834.753 316.108 838.1 315.803 840.775 316.872C843.128 317.813 845.123 319.474 846.473 321.618C848.009 324.056 848.314 327.402 848.924 334.095L854.972 400.42C855.582 407.113 855.888 410.459 854.818 413.134C853.877 415.487 852.216 417.482 850.072 418.833C847.634 420.369 844.288 420.674 837.595 421.284L513.34 450.851C506.647 451.461 503.301 451.766 500.626 450.697C498.273 449.756 496.278 448.095 494.927 445.95C493.391 443.513 493.086 440.166 492.476 433.474L486.428 367.149Z" fill="#F6F8FA"/>
<path d="M483.783 360.16C483.081 352.46 488.754 345.649 496.454 344.947L835.049 314.072C842.749 313.37 849.56 319.043 850.262 326.743L846.279 327.107C845.777 321.606 840.912 317.554 835.412 318.056L496.817 348.93C491.317 349.432 487.265 354.297 487.766 359.797L483.783 360.16ZM857.981 411.392C858.683 419.092 853.01 425.903 845.31 426.606L506.715 457.48C499.015 458.182 492.203 452.509 491.501 444.809L495.122 440.462C495.422 443.762 500.125 446.031 505.625 445.529L844.22 414.655C849.72 414.154 853.935 411.072 853.634 407.772L857.981 411.392ZM506.715 457.48C499.015 458.182 492.203 452.509 491.501 444.809L483.783 360.16C483.081 352.46 488.754 345.649 496.454 344.947L496.817 348.93C491.317 349.432 487.265 354.297 487.766 359.797L495.122 440.462C495.422 443.762 500.125 446.031 505.625 445.529L506.715 457.48ZM835.049 314.072C842.749 313.37 849.56 319.043 850.262 326.743L857.981 411.392C858.683 419.092 853.01 425.903 845.31 426.606L844.22 414.655C849.72 414.154 853.935 411.072 853.634 407.772L846.279 327.107C845.777 321.606 840.912 317.554 835.412 318.056L835.049 314.072Z" fill="#D1D9E0" mask="url(#path-6-inside-2_717_225)"/>
<path d="M540.393 379.278L551.597 378.257C558.132 377.661 562.793 381.543 563.389 388.078C563.983 394.59 560.054 399.255 553.472 399.855L546.493 400.492L547.596 412.582L543.464 412.959L540.393 379.278ZM544.859 382.566L546.159 396.827L552.204 396.276C557.106 395.829 559.628 393.034 559.211 388.459C558.792 383.861 555.805 381.568 550.904 382.015L544.859 382.566ZM580.64 410.016C575.808 410.457 572.311 407.716 571.891 403.118C571.483 398.637 574.461 395.682 580.199 394.853L587.122 393.869L586.914 391.581C586.624 388.407 584.527 386.833 581.003 387.154C578.085 387.42 576.144 388.845 575.688 391.075L571.79 391.43C571.887 387.327 575.555 384.191 580.737 383.719C586.688 383.176 590.373 385.9 590.854 391.175L592.435 408.517L588.654 408.862L588.307 405.057L587.91 405.093C586.943 407.912 584.328 409.68 580.64 410.016ZM581.466 406.434C585.294 406.085 587.98 403.275 587.671 399.89L587.399 396.903L580.914 397.8C577.382 398.287 575.653 399.974 575.893 402.612C576.136 405.273 578.269 406.726 581.466 406.434ZM612.835 416.212C606.977 416.746 602.822 414.536 601.925 410.382L605.846 410.024C606.551 412.078 609.221 413.223 612.605 412.914C617.04 412.51 619.287 410.046 618.916 405.985L618.557 402.04L618.136 402.078C617.259 404.841 614.605 406.707 610.917 407.044C605.058 407.578 600.822 403.704 600.23 397.216L599.815 392.664C599.221 386.152 602.713 381.597 608.641 381.057C612.306 380.723 615.23 382.08 616.576 384.711L617.02 384.67L616.662 380.749L620.583 380.392L622.893 405.716C623.435 411.668 619.698 415.586 612.835 416.212ZM604.17 396.291C604.594 400.936 607.578 403.724 611.779 403.341C615.957 402.96 618.367 399.704 617.941 395.036L617.624 391.558C617.199 386.89 614.242 384.147 610.064 384.528C605.863 384.911 603.43 388.169 603.853 392.814L604.17 396.291ZM648.508 396.791L652.359 396.44C651.97 400.688 648.213 403.878 642.891 404.363C635.936 404.998 631.517 401.188 630.859 393.976L630.512 390.171C629.904 383.496 633.775 378.718 640.217 378.131C646.799 377.53 651.072 381.542 651.74 388.871L651.966 391.345L634.717 392.918L634.81 393.945C635.234 398.59 638.261 401.326 642.579 400.932C645.776 400.641 648.01 399.072 648.508 396.791ZM640.504 381.54C636.28 381.926 634 385.052 634.442 389.907L647.77 388.692C647.329 383.86 644.589 381.168 640.504 381.54ZM687.253 365.887L696.682 365.027C706.229 364.157 711.55 369.343 712.567 380.5C713.593 391.75 709.3 397.837 699.753 398.708L690.324 399.568L687.253 365.887ZM691.729 369.292L694.11 395.41L699.035 394.961C706.177 394.309 709.181 389.823 708.368 380.907C707.563 372.084 703.773 368.193 696.654 368.842L691.729 369.292ZM730.956 396.333C724.257 396.944 719.588 392.969 718.964 386.13L718.615 382.302C717.991 375.463 721.865 370.709 728.564 370.098C735.262 369.488 739.932 373.463 740.555 380.302L740.904 384.13C741.528 390.968 737.655 395.723 730.956 396.333ZM728.883 373.6C724.541 373.995 722.115 377.323 722.568 382.295L722.851 385.399C723.307 390.394 726.293 393.205 730.634 392.809C734.976 392.413 737.404 389.109 736.949 384.114L736.666 381.009C736.213 376.038 733.224 373.204 728.883 373.6ZM771.831 366.6L768.702 392.421L764.897 392.768L758.802 373.413L758.522 373.439L756.028 393.577L752.223 393.923L744.476 369.095L748.35 368.741L753.633 388.735L754.053 388.697L756.288 368.041L760.023 367.701L765.957 387.611L766.377 387.573L767.956 366.954L771.831 366.6ZM779.649 391.423L777.339 366.098L781.144 365.751L781.55 370.209L781.877 370.179C782.944 366.905 785.676 364.867 789.527 364.516C795.036 364.014 798.323 367.032 798.877 373.101L800.375 389.533L796.407 389.895L795 374.466C794.583 369.892 792.52 367.915 788.576 368.274C784.398 368.655 781.863 371.828 782.256 376.146L783.616 391.061L779.649 391.423Z" fill="black"/>
<path d="M883.525 388.622C877.407 389.18 874.145 386.699 873.564 380.325L871.72 360.112L866.852 360.556L866.431 355.944L871.3 355.5L870.479 346.498L876.245 345.973L877.066 354.974L883.408 354.395L883.829 359.008L877.486 359.587L879.326 379.767C879.651 383.323 881.311 384.173 884.29 383.901C884.963 383.84 885.594 383.685 886.072 383.609L886.484 388.126C885.788 388.286 884.614 388.522 883.525 388.622ZM905.34 386.633C896.082 387.477 889.289 381.346 888.323 370.743L888.317 370.679C887.35 360.076 892.96 352.879 902.153 352.04C911.346 351.202 918.194 357.231 919.164 367.866L919.17 367.93C920.14 378.565 914.533 385.794 905.34 386.633ZM904.922 381.697C910.784 381.162 914.181 376.266 913.468 368.45L913.462 368.386C912.75 360.57 908.497 356.436 902.603 356.973C896.805 357.502 893.309 362.375 894.018 370.159L894.024 370.223C894.74 378.071 899.028 382.234 904.922 381.697ZM940.069 382.82L935.854 336.597L941.427 336.089L945.642 382.312L940.069 382.82ZM967.034 381.007C957.777 381.851 950.984 375.72 950.017 365.117L950.012 365.053C949.045 354.45 954.654 347.253 963.848 346.415C973.041 345.576 979.889 351.606 980.859 362.24L980.865 362.305C981.835 372.939 976.228 380.169 967.034 381.007ZM966.617 376.071C972.479 375.537 975.876 370.64 975.163 362.824L975.157 362.76C974.445 354.944 970.192 350.81 964.298 351.348C958.5 351.876 955.004 356.749 955.713 364.533L955.719 364.597C956.435 372.445 960.723 376.609 966.617 376.071ZM997.818 378.2C991.187 378.805 986.369 375.207 985.817 369.153L985.811 369.088C985.294 363.419 989.391 359.46 997.006 358.313L1006.5 356.899L1006.25 354.112C1005.88 350.044 1002.99 347.819 998.348 348.243C994.056 348.634 991.552 350.93 991.183 353.967L991.145 354.261L985.764 354.752L985.764 354.397C985.745 348.875 990.115 344.02 997.963 343.304C1005.84 342.586 1011.16 346.396 1011.77 353.059L1013.87 376.09L1008.3 376.599L1007.8 371.185L1007.68 371.197C1006.06 375.027 1002.27 377.794 997.818 378.2ZM991.519 368.633C991.811 371.836 994.622 373.614 998.626 373.249C1003.88 372.77 1007.59 368.783 1007.14 363.946L1006.9 361.223L998.041 362.579C993.611 363.242 991.23 365.461 991.513 368.569L991.519 368.633ZM1033.53 374.943C1025.01 375.72 1018.76 369.444 1017.8 358.937L1017.8 358.905C1016.84 348.398 1021.92 341.119 1030.28 340.357C1034.99 339.928 1039.08 341.945 1041.52 345.599L1041.65 345.587L1039.96 327.104L1045.53 326.596L1049.75 372.819L1044.17 373.327L1043.66 367.69L1043.53 367.701C1041.8 371.767 1038.31 374.508 1033.53 374.943ZM1034.17 369.911C1039.81 369.397 1043.37 364.131 1042.69 356.667L1042.68 356.635C1042.01 349.204 1037.52 344.671 1031.92 345.182C1026.02 345.719 1022.81 350.793 1023.5 358.385L1023.5 358.417C1024.2 366.073 1028.28 370.449 1034.17 369.911ZM1081.62 370.559C1075.5 371.117 1072.23 368.637 1071.65 362.262L1069.81 342.05L1064.94 342.494L1064.52 337.881L1069.39 337.437L1068.57 328.436L1074.33 327.91L1075.16 336.911L1081.5 336.333L1081.92 340.946L1075.58 341.524L1077.42 361.705C1077.74 365.26 1079.4 366.11 1082.38 365.839C1083.05 365.777 1083.68 365.623 1084.16 365.547L1084.57 370.063C1083.88 370.224 1082.7 370.46 1081.62 370.559ZM1090.81 369.075L1086.6 322.851L1092.17 322.343L1093.84 340.57L1093.96 340.558C1095.42 336.647 1098.83 334.106 1103.8 333.654C1110.88 333.008 1116.21 338.045 1116.95 346.117L1118.81 366.522L1113.24 367.03L1111.46 347.586C1110.92 341.564 1107.52 338.289 1102.33 338.762C1097.17 339.232 1094.1 343.453 1094.61 349.122L1096.39 368.566L1090.81 369.075ZM1139.66 365.267C1130.08 366.14 1123.7 359.971 1122.75 349.496L1122.75 349.464C1121.81 339.15 1127.05 331.533 1136.15 330.704C1145.25 329.874 1151.41 336.128 1152.32 346.122L1152.5 348.172L1128.51 350.36C1129.27 357.203 1133.41 360.862 1139.34 360.322C1143.57 359.936 1146.35 357.551 1147.05 354.612L1147.12 354.315L1152.6 353.816L1152.56 354.142C1151.98 359.751 1146.93 364.604 1139.66 365.267ZM1136.57 335.64C1131.73 336.081 1128.25 339.725 1128.21 345.994L1146.44 344.332C1145.3 337.912 1141.44 335.196 1136.57 335.64ZM1172.98 361.583L1169.94 328.269L1175.51 327.76L1175.95 332.501L1176.07 332.49C1177.58 329.219 1180.77 326.635 1185.83 326.173C1193.14 325.507 1197.8 329.863 1198.49 337.454L1200.46 359.076L1194.89 359.585L1193.01 338.956C1192.51 333.542 1189.71 330.794 1184.59 331.261C1179.33 331.74 1176.25 335.801 1176.76 341.47L1178.55 361.074L1172.98 361.583ZM1221.34 357.819C1211.76 358.692 1205.39 352.523 1204.43 342.048L1204.43 342.016C1203.49 331.702 1208.74 324.085 1217.83 323.255C1226.93 322.426 1233.09 328.68 1234 338.674L1234.19 340.724L1210.2 342.912C1210.95 349.755 1215.09 353.414 1221.02 352.874C1225.25 352.488 1228.03 350.103 1228.74 347.164L1228.81 346.867L1234.28 346.367L1234.25 346.694C1233.66 352.303 1228.61 357.156 1221.34 357.819ZM1218.25 328.191C1213.42 328.632 1209.94 332.276 1209.89 338.546L1228.12 336.884C1226.99 330.463 1223.12 327.747 1218.25 328.191ZM1237.97 355.656L1247.79 337.965L1235.13 322.325L1241.34 321.758L1250.49 333.521L1250.62 333.509L1257.39 320.295L1263.6 319.728L1253.86 337.186L1266.48 353.057L1260.3 353.62L1251.17 341.663L1251.04 341.674L1244.15 355.092L1237.97 355.656ZM1282.2 352.269C1276.09 352.827 1272.82 350.347 1272.24 343.972L1270.4 323.76L1265.53 324.203L1265.11 319.591L1269.98 319.147L1269.16 310.146L1274.92 309.62L1275.74 318.621L1282.09 318.043L1282.51 322.655L1276.16 323.234L1278 343.414C1278.33 346.97 1279.99 347.82 1282.97 347.548C1283.64 347.487 1284.27 347.332 1284.75 347.257L1285.16 351.773C1284.47 351.933 1283.29 352.17 1282.2 352.269ZM1305.59 360.795L1301.53 316.27L1307.1 315.762L1307.62 321.399L1307.75 321.388C1309.48 317.322 1312.97 314.581 1317.74 314.145C1326.27 313.368 1332.52 319.645 1333.48 330.152L1333.48 330.184C1334.44 340.691 1329.36 347.97 1321 348.732C1316.29 349.161 1312.19 347.144 1309.76 343.49L1309.63 343.502L1311.16 360.287L1305.59 360.795ZM1319.36 343.907C1325.25 343.369 1328.47 338.296 1327.78 330.704L1327.78 330.672C1327.08 323.016 1323 318.64 1317.11 319.178C1311.47 319.692 1307.91 324.958 1308.59 332.421L1308.59 332.454C1309.27 339.885 1313.75 344.418 1319.36 343.907ZM1340.64 346.295L1337.6 312.981L1343.17 312.473L1343.69 318.11L1343.82 318.099C1344.59 314.153 1347.25 311.455 1350.99 311.114C1351.96 311.026 1352.8 311.11 1353.26 311.133L1353.75 316.547C1353.29 316.428 1352.09 316.375 1350.74 316.498C1346.42 316.892 1343.87 320.161 1344.34 325.222L1346.21 345.787L1340.64 346.295ZM1373.05 343.986C1363.47 344.859 1357.09 338.69 1356.14 328.215L1356.14 328.183C1355.2 317.869 1360.44 310.252 1369.54 309.422C1378.64 308.593 1384.8 314.846 1385.71 324.841L1385.89 326.891L1361.9 329.078C1362.66 335.922 1366.8 339.581 1372.73 339.041C1376.95 338.655 1379.74 336.269 1380.44 333.331L1380.51 333.034L1385.99 332.534L1385.95 332.861C1385.37 338.469 1380.32 343.322 1373.05 343.986ZM1369.96 314.358C1365.12 314.799 1361.64 318.443 1361.6 324.713L1379.83 323.051C1378.69 316.63 1374.83 313.914 1369.96 314.358ZM1404.79 341.091C1396.94 341.807 1391.84 338.235 1390.62 332.338L1390.56 332.053L1396.14 331.544L1396.23 331.859C1397.21 335.129 1399.85 336.858 1404.4 336.443C1408.92 336.031 1411.44 333.896 1411.16 330.885L1411.16 330.853C1410.94 328.451 1409.57 327.219 1405.7 326.635L1400.3 325.836C1393.89 324.902 1390.58 322.265 1390.14 317.46L1390.14 317.428C1389.61 311.694 1394.27 307.167 1401.48 306.51C1408.78 305.844 1413.81 309.681 1414.74 315.217L1414.81 315.63L1409.49 316.115L1409.44 315.894C1408.7 312.7 1406.03 310.778 1401.9 311.155C1397.87 311.523 1395.55 313.705 1395.81 316.652L1395.82 316.684C1396.02 318.958 1397.67 320.391 1401.44 320.952L1406.84 321.751C1413.72 322.771 1416.39 325.208 1416.83 329.949L1416.83 329.981C1417.36 335.811 1412.22 340.413 1404.79 341.091ZM1437.24 338.132C1427.66 339.005 1421.29 332.836 1420.33 322.362L1420.33 322.33C1419.39 312.015 1424.64 304.399 1433.73 303.569C1442.83 302.739 1448.99 308.993 1449.9 318.987L1450.09 321.037L1426.1 323.225C1426.85 330.068 1430.99 333.728 1436.92 333.187C1441.15 332.802 1443.93 330.416 1444.64 327.478L1444.71 327.181L1450.18 326.681L1450.15 327.007C1449.56 332.616 1444.51 337.469 1437.24 338.132ZM1434.15 308.505C1429.32 308.946 1425.84 312.59 1425.79 318.86L1444.02 317.198C1442.89 310.777 1439.02 308.061 1434.15 308.505ZM1457.11 335.675L1454.07 302.361L1459.64 301.853L1460.08 306.593L1460.2 306.582C1461.71 303.311 1464.9 300.727 1469.96 300.266C1477.27 299.6 1481.93 303.955 1482.62 311.547L1484.59 333.169L1479.02 333.677L1477.14 313.048C1476.64 307.634 1473.84 304.886 1468.72 305.353C1463.46 305.832 1460.38 309.893 1460.89 315.563L1462.68 335.167L1457.11 335.675ZM1502.59 332.174C1496.47 332.732 1493.21 330.251 1492.63 323.877L1490.78 303.664L1485.91 304.108L1485.49 299.495L1490.36 299.051L1489.54 290.05L1495.31 289.525L1496.13 298.526L1502.47 297.947L1502.89 302.56L1496.55 303.138L1498.39 323.319C1498.71 326.875 1500.37 327.725 1503.35 327.453C1504.03 327.392 1504.66 327.237 1505.14 327.161L1505.55 331.678C1504.85 331.838 1503.68 332.074 1502.59 332.174ZM1520.65 330.526C1514.02 331.131 1509.21 327.533 1508.65 321.479L1508.65 321.415C1508.13 315.745 1512.23 311.786 1519.84 310.64L1529.34 309.225L1529.08 306.438C1528.71 302.37 1525.83 300.146 1521.19 300.569C1516.89 300.96 1514.39 303.256 1514.02 306.293L1513.98 306.587L1508.6 307.078L1508.6 306.723C1508.58 301.201 1512.95 296.346 1520.8 295.63C1528.68 294.912 1534 298.722 1534.61 305.385L1536.71 328.416L1531.14 328.925L1530.64 323.511L1530.51 323.523C1528.89 327.353 1525.11 330.12 1520.65 330.526ZM1514.36 320.959C1514.65 324.162 1517.46 325.941 1521.46 325.575C1526.72 325.096 1530.42 321.109 1529.98 316.272L1529.73 313.549L1520.88 314.906C1516.45 315.568 1514.07 317.788 1514.35 320.895L1514.36 320.959ZM1554.67 327.424C1548.56 327.982 1545.29 325.502 1544.71 319.127L1542.87 298.915L1538 299.359L1537.58 294.746L1542.45 294.302L1541.63 285.301L1547.39 284.775L1548.21 293.776L1554.56 293.198L1554.98 297.811L1548.63 298.389L1550.47 318.57C1550.8 322.125 1552.46 322.975 1555.44 322.704C1556.11 322.642 1556.74 322.488 1557.22 322.412L1557.63 326.928C1556.94 327.089 1555.76 327.325 1554.67 327.424ZM1563.17 286.728C1561.25 286.903 1559.54 285.477 1559.36 283.555C1559.18 281.601 1560.61 279.92 1562.53 279.745C1564.49 279.567 1566.17 280.964 1566.34 282.918C1566.52 284.84 1565.13 286.55 1563.17 286.728ZM1563.94 325.934L1560.9 292.62L1566.47 292.112L1569.51 325.426L1563.94 325.934ZM1590.97 324.115C1581.71 324.959 1574.92 318.828 1573.95 308.225L1573.94 308.161C1572.98 297.558 1578.59 290.361 1587.78 289.523C1596.97 288.684 1603.82 294.714 1604.79 305.348L1604.8 305.412C1605.77 316.047 1600.16 323.277 1590.97 324.115ZM1590.55 319.179C1596.41 318.645 1599.81 313.748 1599.1 305.932L1599.09 305.868C1598.38 298.052 1594.12 293.918 1588.23 294.456C1582.43 294.984 1578.94 299.857 1579.65 307.641L1579.65 307.705C1580.37 315.553 1584.65 319.717 1590.55 319.179ZM1611.95 321.555L1608.92 288.241L1614.49 287.733L1614.92 292.474L1615.05 292.462C1616.56 289.192 1619.75 286.608 1624.81 286.146C1632.11 285.48 1636.77 289.836 1637.47 297.427L1639.44 319.049L1633.86 319.558L1631.98 298.929C1631.49 293.515 1628.69 290.767 1623.56 291.234C1618.31 291.713 1615.22 295.773 1615.74 301.443L1617.53 321.047L1611.95 321.555Z" fill="black"/>
</g>
</g>
<g filter="url(#filter1_d_717_225)">
<g clip-path="url(#clip1_717_225)">
<rect x="400.959" y="571.152" width="1327" height="217" rx="18" transform="rotate(4.84 400.959 571.152)" fill="white"/>
<mask id="path-11-inside-3_717_225" fill="white">
<path d="M466.357 652.159C466.924 645.462 467.208 642.114 468.728 639.666C470.065 637.513 472.049 635.839 474.396 634.883C477.064 633.796 480.412 634.08 487.109 634.647L574.396 642.038C581.093 642.605 584.441 642.889 586.889 644.409C589.042 645.745 590.716 647.73 591.672 650.077C592.759 652.745 592.475 656.093 591.908 662.79L586.289 729.152C585.722 735.849 585.438 739.197 583.918 741.645C582.581 743.797 580.597 745.472 578.25 746.428C575.582 747.514 572.234 747.231 565.537 746.664L478.25 739.273C471.553 738.706 468.205 738.422 465.757 736.902C463.604 735.565 461.93 733.581 460.974 731.234C459.887 728.566 460.171 725.218 460.738 718.521L466.357 652.159Z"/>
</mask>
<path d="M466.357 652.159C466.924 645.462 467.208 642.114 468.728 639.666C470.065 637.513 472.049 635.839 474.396 634.883C477.064 633.796 480.412 634.08 487.109 634.647L574.396 642.038C581.093 642.605 584.441 642.889 586.889 644.409C589.042 645.745 590.716 647.73 591.672 650.077C592.759 652.745 592.475 656.093 591.908 662.79L586.289 729.152C585.722 735.849 585.438 739.197 583.918 741.645C582.581 743.797 580.597 745.472 578.25 746.428C575.582 747.514 572.234 747.231 565.537 746.664L478.25 739.273C471.553 738.706 468.205 738.422 465.757 736.902C463.604 735.565 461.93 733.581 460.974 731.234C459.887 728.566 460.171 725.218 460.738 718.521L466.357 652.159Z" fill="#F6F8FA"/>
<path d="M464.972 644.816C465.624 637.111 472.399 631.394 480.103 632.047L581.74 640.653C589.444 641.305 595.161 648.08 594.508 655.784L590.523 655.447C590.989 649.943 586.905 645.104 581.402 644.639L479.766 636.032C474.263 635.566 469.424 639.65 468.958 645.153L464.972 644.816ZM587.337 740.481C586.684 748.185 579.91 753.902 572.205 753.25L470.569 744.644C462.865 743.991 457.148 737.217 457.8 729.512L462.123 725.864C461.844 729.166 466.078 732.221 471.582 732.687L573.218 741.293C578.721 741.759 583.409 739.46 583.688 736.158L587.337 740.481ZM470.569 744.644C462.865 743.991 457.148 737.217 457.8 729.512L464.972 644.816C465.624 637.111 472.399 631.394 480.103 632.047L479.766 636.032C474.263 635.566 469.424 639.65 468.958 645.153L462.123 725.864C461.844 729.166 466.078 732.221 471.582 732.687L470.569 744.644ZM581.74 640.653C589.444 641.305 595.161 648.08 594.508 655.784L587.337 740.481C586.684 748.185 579.91 753.902 572.205 753.25L573.218 741.293C578.721 741.759 583.409 739.46 583.688 736.158L590.523 655.447C590.989 649.943 586.905 645.104 581.402 644.639L581.74 640.653Z" fill="#D1D9E0" mask="url(#path-11-inside-3_717_225)"/>
<path d="M518.985 707.597L514.945 707.255L517.798 673.555L521.838 673.897L520.418 690.665L520.722 690.691L535.781 675.077L540.591 675.485L526.859 689.329L538.952 709.287L533.838 708.854L523.811 692.269L519.956 696.13L518.985 707.597Z" fill="black"/>
<path d="M619.444 722.77C610.181 721.986 604.562 714.763 605.461 704.155L605.466 704.09C606.364 693.482 613.144 687.374 622.343 688.152C631.541 688.931 637.232 696.063 636.331 706.704L636.326 706.768C635.424 717.409 628.642 723.549 619.444 722.77ZM619.894 717.837C625.759 718.334 629.958 714.105 630.62 706.285L630.626 706.221C631.288 698.4 627.822 693.588 621.925 693.088C616.123 692.597 611.831 696.785 611.171 704.574L611.166 704.638C610.501 712.49 613.996 717.338 619.894 717.837ZM640.555 723.912L643.378 690.579L648.955 691.051L648.477 696.692L648.605 696.703C650.053 692.952 653.143 690.761 656.893 691.078C657.855 691.159 658.675 691.39 659.118 691.492L658.659 696.909C658.224 696.711 657.052 696.45 655.706 696.336C651.379 695.97 648.303 698.744 647.874 703.808L646.132 724.384L640.555 723.912Z" fill="black"/>
<mask id="path-15-inside-4_717_225" fill="white">
<path d="M677.601 670.046C678.169 663.349 678.452 660.001 679.972 657.553C681.309 655.401 683.293 653.726 685.64 652.77C688.308 651.684 691.656 651.967 698.353 652.534L963.006 674.944C969.703 675.511 973.051 675.794 975.498 677.314C977.651 678.651 979.325 680.635 980.281 682.982C981.368 685.65 981.084 688.999 980.517 695.695L974.898 762.058C974.331 768.754 974.048 772.103 972.528 774.55C971.191 776.703 969.207 778.377 966.86 779.333C964.192 780.42 960.843 780.136 954.147 779.569L689.494 757.16C682.797 756.593 679.449 756.309 677.001 754.789C674.848 753.452 673.174 751.468 672.218 749.121C671.132 746.453 671.415 743.105 671.982 736.408L677.601 670.046Z"/>
</mask>
<path d="M677.601 670.046C678.169 663.349 678.452 660.001 679.972 657.553C681.309 655.401 683.293 653.726 685.64 652.77C688.308 651.684 691.656 651.967 698.353 652.534L963.006 674.944C969.703 675.511 973.051 675.794 975.498 677.314C977.651 678.651 979.325 680.635 980.281 682.982C981.368 685.65 981.084 688.999 980.517 695.695L974.898 762.058C974.331 768.754 974.048 772.103 972.528 774.55C971.191 776.703 969.207 778.377 966.86 779.333C964.192 780.42 960.843 780.136 954.147 779.569L689.494 757.16C682.797 756.593 679.449 756.309 677.001 754.789C674.848 753.452 673.174 751.468 672.218 749.121C671.132 746.453 671.415 743.105 671.982 736.408L677.601 670.046Z" fill="#F6F8FA"/>
<path d="M676.216 662.703C676.868 654.998 683.643 649.281 691.347 649.934L970.349 673.558C978.053 674.211 983.77 680.985 983.118 688.69L979.132 688.352C979.598 682.849 975.515 678.01 970.011 677.544L691.01 653.92C685.507 653.454 680.668 657.537 680.202 663.04L676.216 662.703ZM975.946 773.387C975.294 781.091 968.519 786.808 960.815 786.155L681.813 762.531C674.109 761.879 668.392 755.104 669.044 747.4L673.368 743.751C673.088 747.053 677.323 750.108 682.826 750.574L961.827 774.198C967.33 774.664 972.018 772.365 972.298 769.063L975.946 773.387ZM681.813 762.531C674.109 761.879 668.392 755.104 669.044 747.4L676.216 662.703C676.868 654.998 683.643 649.281 691.347 649.934L691.01 653.92C685.507 653.454 680.668 657.537 680.202 663.04L673.368 743.751C673.088 747.053 677.323 750.108 682.826 750.574L681.813 762.531ZM970.349 673.558C978.053 674.211 983.77 680.985 983.118 688.69L975.946 773.387C975.294 781.091 968.519 786.808 960.815 786.155L961.827 774.198C967.33 774.664 972.018 772.365 972.298 769.063L979.132 688.352C979.598 682.849 975.515 678.01 970.011 677.544L970.349 673.558Z" fill="#D1D9E0" mask="url(#path-15-inside-4_717_225)"/>
<path d="M728.622 691.406L739.832 692.356C746.371 692.909 750.283 697.545 749.729 704.084C749.177 710.6 744.495 714.508 737.909 713.95L730.926 713.359L729.902 725.456L725.768 725.106L728.622 691.406ZM732.445 695.423L731.237 709.692L737.285 710.204C742.19 710.62 745.161 708.307 745.549 703.73C745.938 699.129 743.398 696.35 738.494 695.935L732.445 695.423ZM762.887 728.696C758.053 728.287 755.087 724.978 755.476 720.377C755.856 715.893 759.304 713.504 765.098 713.688L772.088 713.927L772.281 711.639C772.55 708.463 770.76 706.547 767.234 706.248C764.315 706.001 762.155 707.065 761.317 709.181L757.417 708.851C758.228 704.827 762.387 702.38 767.571 702.819C773.526 703.324 776.679 706.648 776.232 711.926L774.763 729.278L770.98 728.958L771.302 725.151L770.905 725.118C769.461 727.724 766.577 729.008 762.887 728.696ZM764.326 725.313C768.156 725.638 771.291 723.339 771.577 719.953L771.83 716.963L765.289 716.715C761.725 716.578 759.729 717.938 759.505 720.577C759.28 723.239 761.126 725.042 764.326 725.313ZM793.507 740.415C787.645 739.919 783.939 737.018 783.782 732.77L787.705 733.103C788.041 735.248 790.47 736.841 793.856 737.128C798.293 737.504 800.935 735.47 801.279 731.406L801.614 727.459L801.193 727.424C799.847 729.991 796.908 731.365 793.218 731.053C787.356 730.556 783.861 726.003 784.41 719.511L784.796 714.957C785.348 708.441 789.58 704.565 795.512 705.068C799.179 705.378 801.822 707.225 802.688 710.05L803.132 710.088L803.464 706.164L807.387 706.497L805.242 731.836C804.737 737.791 800.373 740.997 793.507 740.415ZM788.451 719.288C788.058 723.936 790.51 727.201 794.714 727.557C798.894 727.911 801.835 725.126 802.23 720.455L802.525 716.975C802.92 712.304 800.488 709.088 796.307 708.734C792.104 708.378 789.14 711.161 788.746 715.808L788.451 719.288ZM832.022 727.517L835.875 727.843C834.751 731.959 830.494 734.444 825.17 733.993C818.21 733.404 814.524 728.882 815.135 721.665L815.457 717.859C816.023 711.179 820.669 707.151 827.114 707.696C833.7 708.254 837.207 712.95 836.586 720.283L836.376 722.758L819.118 721.297L819.031 722.324C818.637 726.972 821.14 730.195 825.46 730.56C828.66 730.831 831.133 729.676 832.022 727.517ZM826.802 711.104C822.575 710.746 819.784 713.427 819.373 718.284L832.708 719.413C833.117 714.579 830.889 711.45 826.802 711.104ZM884.029 735.284C888.933 735.7 892.055 732.718 892.524 727.183L894.365 705.441L898.475 705.789L896.612 727.788C895.956 735.542 891.125 739.813 883.698 739.185C876.272 738.556 872.228 733.533 872.885 725.779L874.747 703.78L878.858 704.128L877.017 725.87C876.548 731.405 879.124 734.869 884.029 735.284ZM917.093 715.363C922.955 715.859 926.427 720.41 925.875 726.926L925.476 731.643C924.926 738.136 920.738 742.039 914.876 741.542C911.21 741.232 908.656 739.44 907.794 736.568L907.35 736.53L906.294 749.001L902.254 748.659L905.123 714.772L909.047 715.105L908.719 718.981L909.139 719.017C910.707 716.327 913.473 715.056 917.093 715.363ZM915.64 718.909C911.46 718.555 908.544 721.319 908.149 725.99L907.84 729.633C907.443 734.327 909.852 737.542 914.032 737.896C918.213 738.25 921.13 735.462 921.526 730.792L921.834 727.148C922.23 722.478 919.82 719.263 915.64 718.909Z" fill="black"/>
<path d="M1005.07 755.423C998.95 754.905 996.171 751.894 996.711 745.515L998.424 725.291L993.552 724.879L993.943 720.263L998.814 720.676L999.577 711.67L1005.35 712.158L1004.58 721.165L1010.93 721.702L1010.54 726.317L1004.19 725.78L1002.48 745.972C1002.18 749.53 1003.67 750.656 1006.65 750.908C1007.32 750.965 1007.97 750.924 1008.45 750.932L1008.07 755.451C1007.36 755.488 1006.16 755.516 1005.07 755.423ZM1026.9 757.272C1017.64 756.487 1012.02 749.265 1012.92 738.656L1012.92 738.592C1013.82 727.983 1020.6 721.875 1029.8 722.654C1039 723.433 1044.69 730.564 1043.79 741.205L1043.78 741.269C1042.88 751.91 1036.1 758.05 1026.9 757.272ZM1027.35 752.338C1033.21 752.835 1037.41 748.607 1038.08 740.786L1038.08 740.722C1038.74 732.902 1035.28 728.089 1029.38 727.59C1023.58 727.099 1019.29 731.287 1018.63 739.075L1018.62 739.139C1017.96 746.992 1021.45 751.839 1027.35 752.338ZM1061.76 759.578L1065.68 713.328L1071.25 713.801L1067.34 760.05L1061.76 759.578ZM1088.63 762.499C1079.37 761.714 1073.75 754.492 1074.65 743.883L1074.65 743.819C1075.55 733.21 1082.33 727.102 1091.53 727.881C1100.73 728.66 1106.42 735.792 1105.52 746.432L1105.51 746.496C1104.61 757.137 1097.83 763.277 1088.63 762.499ZM1089.08 757.565C1094.94 758.062 1099.14 753.834 1099.81 746.013L1099.81 745.949C1100.47 738.129 1097.01 733.316 1091.11 732.817C1085.31 732.326 1081.02 736.514 1080.36 744.302L1080.35 744.366C1079.69 752.219 1083.18 757.066 1089.08 757.565ZM1119.43 765.107C1112.8 764.545 1108.68 760.161 1109.19 754.104L1109.2 754.04C1109.68 748.367 1114.4 745.183 1122.1 745.383L1131.7 745.647L1131.93 742.859C1132.28 738.788 1129.83 736.095 1125.18 735.702C1120.89 735.338 1118.02 737.161 1117.13 740.088L1117.04 740.371L1111.65 739.915L1111.71 739.565C1112.66 734.125 1117.81 730.106 1125.66 730.771C1133.55 731.439 1138.12 736.12 1137.56 742.786L1135.61 765.831L1130.03 765.358L1130.49 759.942L1130.36 759.931C1128.09 763.419 1123.88 765.484 1119.43 765.107ZM1114.9 754.587C1114.63 757.792 1117.08 760.034 1121.09 760.373C1126.35 760.818 1130.69 757.538 1131.1 752.698L1131.33 749.974L1122.38 749.764C1117.9 749.644 1115.17 751.414 1114.9 754.523L1114.9 754.587ZM1155.17 768.133C1146.64 767.411 1141.58 760.138 1142.47 749.626L1142.47 749.594C1143.36 739.081 1149.64 732.801 1158 733.51C1162.71 733.909 1166.39 736.609 1168.15 740.631L1168.28 740.642L1169.84 722.149L1175.42 722.621L1171.5 768.87L1165.93 768.398L1166.4 762.757L1166.28 762.746C1163.86 766.448 1159.94 768.537 1155.17 768.133ZM1156.67 763.289C1162.31 763.767 1166.74 759.202 1167.37 751.734L1167.37 751.702C1168 744.267 1164.38 739.021 1158.77 738.546C1152.87 738.046 1148.82 742.481 1148.17 750.077L1148.17 750.109C1147.52 757.769 1150.78 762.79 1156.67 763.289ZM1203.27 772.206C1197.15 771.688 1194.37 768.676 1194.91 762.298L1196.63 742.074L1191.75 741.662L1192.15 737.046L1197.02 737.459L1197.78 728.453L1203.55 728.941L1202.79 737.947L1209.13 738.485L1208.74 743.1L1202.4 742.563L1200.69 762.755C1200.38 766.312 1201.87 767.439 1204.85 767.691C1205.52 767.748 1206.17 767.706 1206.66 767.715L1206.27 772.234C1205.56 772.271 1204.36 772.299 1203.27 772.206ZM1212.59 772.35L1216.51 726.1L1222.08 726.572L1220.54 744.809L1220.67 744.82C1222.78 741.222 1226.59 739.317 1231.56 739.738C1238.64 740.338 1243.02 746.228 1242.33 754.305L1240.6 774.722L1235.03 774.249L1236.67 754.794C1237.18 748.769 1234.41 744.951 1229.22 744.511C1224.06 744.074 1220.3 747.694 1219.82 753.367L1218.17 772.822L1212.59 772.35ZM1261.35 777.124C1251.77 776.312 1246.57 769.125 1247.45 758.645L1247.46 758.613C1248.33 748.292 1254.83 741.708 1263.93 742.479C1273.03 743.25 1278 750.482 1277.16 760.482L1276.98 762.533L1252.98 760.5C1252.52 767.37 1255.97 771.697 1261.9 772.199C1266.13 772.557 1269.29 770.694 1270.49 767.923L1270.61 767.643L1276.09 768.107L1276 768.422C1274.44 773.842 1268.63 777.74 1261.35 777.124ZM1263.48 747.412C1258.64 747.002 1254.58 749.983 1253.44 756.15L1271.68 757.694C1271.68 751.174 1268.35 747.825 1263.48 747.412ZM1293.85 790.529L1297.62 745.978L1303.2 746.45L1302.72 752.091L1302.85 752.102C1305.26 748.4 1309.19 746.311 1313.96 746.716C1322.49 747.437 1327.55 754.71 1326.66 765.223L1326.66 765.255C1325.77 775.767 1319.49 782.047 1311.13 781.339C1306.41 780.94 1302.74 778.239 1300.98 774.217L1300.85 774.206L1299.43 791.001L1293.85 790.529ZM1310.36 776.302C1316.26 776.802 1320.31 772.368 1320.95 764.772L1320.96 764.739C1321.61 757.079 1318.35 752.058 1312.45 751.559C1306.81 751.081 1302.39 755.646 1301.76 763.114L1301.76 763.146C1301.13 770.582 1304.75 775.827 1310.36 776.302ZM1330.89 782.367L1333.71 749.034L1339.29 749.506L1338.81 755.147L1338.94 755.158C1340.39 751.407 1343.48 749.215 1347.23 749.533C1348.19 749.614 1349.01 749.845 1349.45 749.947L1349 755.363C1348.56 755.165 1347.39 754.905 1346.04 754.791C1341.71 754.424 1338.64 757.198 1338.21 762.262L1336.47 782.839L1330.89 782.367ZM1363.21 785.749C1353.63 784.937 1348.42 777.75 1349.31 767.269L1349.31 767.237C1350.19 756.917 1356.68 750.333 1365.79 751.104C1374.89 751.875 1379.86 759.107 1379.01 769.107L1378.84 771.158L1354.83 769.125C1354.38 775.995 1357.83 780.322 1363.75 780.824C1367.99 781.182 1371.15 779.319 1372.35 776.548L1372.47 776.268L1377.95 776.732L1377.86 777.047C1376.3 782.467 1370.48 786.365 1363.21 785.749ZM1365.34 756.037C1360.5 755.627 1356.44 758.608 1355.3 764.775L1373.54 766.319C1373.54 759.798 1370.21 756.45 1365.34 756.037ZM1391.31 787.482L1381.85 753.11L1387.72 753.607L1394.6 781.789L1394.73 781.8L1406.28 755.178L1412.08 755.669L1397.01 787.965L1391.31 787.482ZM1420.09 750.666C1418.16 750.503 1416.73 748.8 1416.89 746.877C1417.06 744.922 1418.76 743.516 1420.68 743.679C1422.63 743.845 1424.04 745.513 1423.88 747.468C1423.71 749.391 1422.04 750.832 1420.09 750.666ZM1414 789.404L1416.82 756.071L1422.4 756.543L1419.58 789.876L1414 789.404ZM1440.93 792.33C1431.67 791.546 1426.05 784.323 1426.95 773.714L1426.95 773.65C1427.85 763.041 1434.63 756.933 1443.83 757.712C1453.03 758.491 1458.72 765.623 1457.82 776.264L1457.81 776.328C1456.91 786.969 1450.13 793.109 1440.93 792.33ZM1441.38 787.397C1447.25 787.893 1451.45 783.665 1452.11 775.845L1452.11 775.781C1452.78 767.96 1449.31 763.148 1443.41 762.648C1437.61 762.157 1433.32 766.345 1432.66 774.133L1432.65 774.197C1431.99 782.05 1435.48 786.897 1441.38 787.397ZM1473.37 795.076C1466.06 794.458 1462.23 789.356 1462.87 781.76L1464.71 760.126L1470.28 760.598L1468.53 781.239C1468.08 786.655 1470.36 789.85 1475.48 790.284C1480.74 790.73 1484.49 787.27 1484.97 781.597L1486.63 761.982L1492.21 762.454L1489.38 795.787L1483.81 795.315L1484.21 790.571L1484.08 790.56C1482.02 793.517 1478.43 795.505 1473.37 795.076ZM1508.43 798.045C1500.58 797.381 1496.17 792.973 1496.01 786.954L1496 786.663L1501.57 787.135L1501.61 787.461C1502 790.851 1504.31 793.015 1508.86 793.401C1513.38 793.783 1516.23 792.12 1516.48 789.108L1516.49 789.076C1516.69 786.672 1515.55 785.22 1511.85 783.97L1506.67 782.24C1500.52 780.202 1497.72 777.028 1498.12 772.22L1498.13 772.188C1498.61 766.451 1503.99 762.806 1511.2 763.417C1518.51 764.036 1522.8 768.692 1522.74 774.304L1522.74 774.724L1517.42 774.273L1517.4 774.046C1517.23 770.771 1514.94 768.414 1510.81 768.064C1506.77 767.722 1504.1 769.466 1503.85 772.414L1503.85 772.447C1503.66 774.722 1505.03 776.42 1508.64 777.63L1513.82 779.36C1520.41 781.564 1522.62 784.431 1522.22 789.174L1522.22 789.206C1521.73 795.039 1515.87 798.675 1508.43 798.045ZM1554.46 801.943C1545.19 801.158 1539.57 793.936 1540.47 783.327L1540.48 783.263C1541.38 772.654 1548.16 766.546 1557.35 767.325C1566.55 768.104 1572.24 775.236 1571.34 785.876L1571.34 785.941C1570.44 796.581 1563.65 802.722 1554.46 801.943ZM1554.91 797.01C1560.77 797.506 1564.97 793.278 1565.63 785.458L1565.64 785.393C1566.3 777.573 1562.83 772.76 1556.94 772.261C1551.14 771.77 1546.84 775.958 1546.18 783.746L1546.18 783.81C1545.51 791.663 1549.01 796.51 1554.91 797.01ZM1575.57 803.085L1578.39 769.752L1583.97 770.224L1583.57 774.968L1583.69 774.978C1585.75 772.021 1589.34 770.034 1594.41 770.462C1601.71 771.081 1605.54 776.183 1604.9 783.779L1603.07 805.413L1597.49 804.941L1599.24 784.3C1599.7 778.884 1597.42 775.689 1592.29 775.254C1587.03 774.809 1583.29 778.269 1582.81 783.942L1581.14 803.557L1575.57 803.085ZM1623.85 807.818C1614.26 807.007 1609.06 799.82 1609.95 789.339L1609.95 789.307C1610.82 778.987 1617.32 772.403 1626.42 773.174C1635.53 773.944 1640.5 781.177 1639.65 791.176L1639.48 793.228L1615.47 791.195C1615.02 798.065 1618.46 802.391 1624.39 802.893C1628.62 803.252 1631.78 801.389 1632.99 798.617L1633.11 798.337L1638.59 798.801L1638.5 799.116C1636.94 804.537 1631.12 808.434 1623.85 807.818ZM1625.97 778.107C1621.13 777.697 1617.07 780.678 1615.94 786.844L1634.17 788.388C1634.18 781.868 1630.85 778.519 1625.97 778.107Z" fill="black"/>
</g>
</g>
<defs>
<filter id="filter0_d_717_225" x="193.773" y="180.658" width="1532.45" height="359.494" filterUnits="userSpaceOnUse" color-interpolation-filters="sRGB">
<feFlood flood-opacity="0" result="BackgroundImageFix"/>
<feColorMatrix in="SourceAlpha" type="matrix" values="0 0 0 0 0 0 0 0 0 0 0 0 0 0 0 0 0 0 127 0" result="hardAlpha"/>
<feOffset dy="3"/>
<feGaussianBlur stdDeviation="1.5"/>
<feComposite in2="hardAlpha" operator="out"/>
<feColorMatrix type="matrix" values="0 0 0 0 0 0 0 0 0 0 0 0 0 0 0 0 0 0 0.25 0"/>
<feBlend mode="normal" in2="BackgroundImageFix" result="effect1_dropShadow_717_225"/>
<feBlend mode="normal" in="SourceGraphic" in2="effect1_dropShadow_717_225" result="shape"/>
</filter>
<filter id="filter1_d_717_225" x="379.65" y="571.152" width="1346.58" height="334.19" filterUnits="userSpaceOnUse" color-interpolation-filters="sRGB">
<feFlood flood-opacity="0" result="BackgroundImageFix"/>
<feColorMatrix in="SourceAlpha" type="matrix" values="0 0 0 0 0 0 0 0 0 0 0 0 0 0 0 0 0 0 127 0" result="hardAlpha"/>
<feOffset dy="3"/>
<feGaussianBlur stdDeviation="1.5"/>
<feComposite in2="hardAlpha" operator="out"/>
<feColorMatrix type="matrix" values="0 0 0 0 0 0 0 0 0 0 0 0 0 0 0 0 0 0 0.25 0"/>
<feBlend mode="normal" in2="BackgroundImageFix" result="effect1_dropShadow_717_225"/>
<feBlend mode="normal" in="SourceGraphic" in2="effect1_dropShadow_717_225" result="shape"/>
</filter>
<clipPath id="clip0_717_225">
<rect x="196.773" y="318.048" width="1513" height="217" rx="18" transform="rotate(-5.21 196.773 318.048)" fill="white"/>
</clipPath>
<clipPath id="clip1_717_225">
<rect x="400.959" y="571.152" width="1327" height="217" rx="18" transform="rotate(4.84 400.959 571.152)" fill="white"/>
</clipPath>
</defs>
</svg>
