<svg width="1920" height="1080" viewBox="0 0 1920 1080" fill="none" xmlns="http://www.w3.org/2000/svg">
<rect width="1920" height="1080" fill="#DDDDDD"/>
<g filter="url(#filter0_d_711_99)">
<g clip-path="url(#clip0_711_99)">
<rect x="526.917" y="384.464" width="886.005" height="249.007" rx="18" transform="rotate(4.05725 526.917 384.464)" fill="white"/>
<rect x="593.647" y="461.379" width="154" height="105" rx="18" transform="rotate(4.06 593.647 461.379)" fill="#DDDDDD"/>
<path d="M637.467 534.665L633.352 534.373L635.478 504.425L625.285 503.701L625.553 499.914L650.054 501.653L649.785 505.44L639.592 504.717L637.467 534.665ZM662.404 536.881C657.564 536.538 654.554 533.27 654.88 528.664C655.199 524.175 658.615 521.739 664.411 521.845L671.402 521.989L671.565 519.698C671.791 516.518 669.975 514.627 666.445 514.377C663.522 514.169 661.377 515.262 660.568 517.39L656.664 517.113C657.42 513.078 661.545 510.575 666.735 510.943C672.697 511.366 675.894 514.648 675.519 519.932L674.286 537.302L670.499 537.033L670.77 533.222L670.372 533.194C668.964 535.82 666.097 537.144 662.404 536.881ZM663.796 533.479C667.63 533.751 670.734 531.411 670.974 528.021L671.187 525.028L664.642 524.869C661.077 524.781 659.099 526.167 658.912 528.809C658.722 531.474 660.593 533.252 663.796 533.479ZM696.164 539.254C692.54 538.997 689.981 537.312 688.871 534.413L688.427 534.382L688.152 538.263L684.247 537.985L686.755 502.66L690.799 502.947L689.814 516.834L690.234 516.864C691.554 514.162 694.354 512.786 698.024 513.047C703.892 513.463 707.426 517.967 706.965 524.466L706.629 529.189C706.166 535.711 702.032 539.671 696.164 539.254ZM695.252 535.548C699.46 535.846 702.34 533.02 702.672 528.344L702.93 524.697C703.262 520.021 700.81 516.839 696.601 516.541C692.44 516.245 689.562 519.049 689.23 523.724L688.972 527.371C688.638 532.071 691.091 535.252 695.252 535.548Z" fill="black"/>
<path d="M774.641 551.056C765.369 550.399 759.652 543.254 760.405 532.633L760.41 532.569C761.163 521.949 767.859 515.749 777.067 516.402C786.275 517.055 792.063 524.109 791.308 534.761L791.303 534.825C790.547 545.477 783.85 551.709 774.641 551.056ZM775.024 546.117C780.895 546.534 785.037 542.249 785.592 534.42L785.596 534.356C786.152 526.527 782.62 521.762 776.717 521.343C770.909 520.931 766.674 525.178 766.121 532.974L766.116 533.039C765.559 540.899 769.12 545.699 775.024 546.117ZM794.97 563.14L798.133 518.541L803.716 518.937L803.316 524.584L803.444 524.594C805.805 520.859 809.697 518.717 814.478 519.056C823.013 519.661 828.177 526.864 827.431 537.388L827.428 537.42C826.682 547.944 820.491 554.308 812.116 553.714C807.4 553.38 803.686 550.73 801.874 546.732L801.745 546.723L800.553 563.536L794.97 563.14ZM811.28 548.689C817.183 549.108 821.178 544.619 821.717 537.015L821.72 536.983C822.263 529.314 818.94 524.338 813.037 523.92C807.39 523.519 803.031 528.144 802.501 535.619L802.498 535.651C801.97 543.095 805.665 548.291 811.28 548.689ZM845.581 556.088C835.988 555.408 830.688 548.292 831.432 537.8L831.434 537.768C832.167 527.437 838.574 520.765 847.686 521.411C856.798 522.058 861.869 529.221 861.159 539.232L861.013 541.285L836.981 539.581C836.623 546.456 840.124 550.735 846.06 551.156C850.295 551.457 853.429 549.551 854.594 546.763L854.711 546.481L860.197 546.871L860.111 547.187C858.628 552.628 852.864 556.605 845.581 556.088ZM847.303 526.35C842.459 526.007 838.438 529.043 837.387 535.224L855.643 536.519C855.558 529.999 852.18 526.696 847.303 526.35ZM865.583 556.862L867.95 523.494L873.533 523.89L873.196 528.638L873.324 528.647C875.342 525.663 878.905 523.626 883.974 523.985C891.289 524.504 895.188 529.553 894.648 537.157L893.112 558.815L887.529 558.419L888.995 537.756C889.38 532.334 887.057 529.17 881.923 528.806C876.661 528.433 872.962 531.943 872.559 537.622L871.166 557.258L865.583 556.862ZM912.029 560.801C904.168 560.244 899.704 555.896 899.454 549.881L899.442 549.59L905.025 549.986L905.066 550.311C905.503 553.696 907.835 555.828 912.391 556.151C916.915 556.472 919.744 554.77 919.958 551.754L919.961 551.722C920.131 549.316 918.976 547.88 915.255 546.681L910.053 545.022C903.871 543.068 901.03 539.932 901.371 535.119L901.374 535.087C901.781 529.344 907.107 525.626 914.326 526.138C921.642 526.657 925.991 531.254 926.012 536.867L926.015 537.286L920.689 536.908L920.673 536.681C920.453 533.409 918.135 531.084 913.996 530.791C909.954 530.504 907.312 532.283 907.103 535.235L907.101 535.267C906.939 537.545 908.335 539.225 911.961 540.385L917.164 542.044C923.786 544.158 926.036 546.994 925.699 551.742L925.697 551.774C925.283 557.614 919.473 561.329 912.029 560.801ZM955.119 563.858C948.991 563.423 946.17 560.45 946.623 554.065L948.059 533.819L943.182 533.473L943.51 528.853L948.387 529.199L949.027 520.183L954.802 520.593L954.162 529.609L960.515 530.059L960.188 534.68L953.835 534.229L952.401 554.443C952.148 558.004 953.65 559.11 956.634 559.322C957.308 559.37 957.956 559.319 958.44 559.321L958.119 563.845C957.406 563.891 956.21 563.935 955.119 563.858ZM964.437 563.874L967.721 517.575L973.304 517.971L972.009 536.228L972.137 536.237C974.2 532.61 977.983 530.653 982.956 531.006C990.047 531.509 994.502 537.339 993.929 545.425L992.479 565.863L986.896 565.467L988.278 545.991C988.706 539.959 985.878 536.179 980.68 535.811C975.515 535.444 971.804 539.115 971.401 544.794L970.02 564.27L964.437 563.874ZM1013.26 567.982C1003.66 567.301 998.364 560.186 999.108 549.694L999.11 549.662C999.843 539.33 1006.25 532.658 1015.36 533.305C1024.47 533.951 1029.54 541.115 1028.83 551.125L1028.69 553.179L1004.66 551.474C1004.3 558.349 1007.8 562.629 1013.74 563.05C1017.97 563.35 1021.1 561.444 1022.27 558.657L1022.39 558.375L1027.87 558.764L1027.79 559.08C1026.3 564.521 1020.54 568.498 1013.26 567.982ZM1014.98 538.244C1010.13 537.9 1006.11 540.936 1005.06 547.117L1023.32 548.412C1023.23 541.892 1019.86 538.589 1014.98 538.244ZM1046.73 569.711L1049.1 536.343L1054.68 536.739L1054.35 541.487L1054.48 541.497C1056.49 538.512 1060.06 536.475 1065.13 536.835C1072.44 537.353 1076.34 542.402 1075.8 550.007L1074.26 571.664L1068.68 571.268L1070.15 550.605C1070.53 545.183 1068.21 542.019 1063.07 541.655C1057.81 541.282 1054.11 544.792 1053.71 550.471L1052.32 570.107L1046.73 569.711ZM1091.09 573.503C1084.45 573.032 1080.28 568.705 1080.71 562.641L1080.71 562.576C1081.12 556.897 1085.8 553.65 1093.5 553.745L1103.1 553.877L1103.29 551.086C1103.58 547.011 1101.1 544.352 1096.44 544.022C1092.14 543.717 1089.3 545.579 1088.45 548.518L1088.36 548.802L1082.97 548.419L1083.03 548.069C1083.9 542.616 1089 538.528 1096.86 539.085C1104.75 539.645 1109.39 544.263 1108.92 550.937L1107.28 574.006L1101.7 573.61L1102.08 568.187L1101.95 568.178C1099.74 571.697 1095.55 573.819 1091.09 573.503ZM1086.42 563.046C1086.19 566.254 1088.68 568.462 1092.69 568.747C1097.95 569.12 1102.25 565.781 1102.6 560.936L1102.79 558.209L1093.83 558.122C1089.35 558.062 1086.64 559.869 1086.42 562.981L1086.42 563.046ZM1123.77 575.175L1113.85 540.935L1119.72 541.352L1126.98 569.438L1127.11 569.447L1138.3 542.67L1144.11 543.082L1129.48 575.581L1123.77 575.175ZM1152.05 537.969C1150.12 537.833 1148.66 536.149 1148.8 534.224C1148.94 532.267 1150.62 530.838 1152.54 530.975C1154.5 531.114 1155.93 532.763 1155.79 534.72C1155.65 536.645 1154 538.108 1152.05 537.969ZM1146.49 576.787L1148.85 543.418L1154.44 543.814L1152.07 577.183L1146.49 576.787ZM1172.95 590.595C1164.7 590.01 1159.78 585.759 1159.04 580.741L1159 580.447L1164.61 580.846L1164.72 581.143C1165.61 583.625 1168.68 585.326 1173.24 585.649C1179.11 586.066 1182.67 583.062 1183.04 577.896L1183.34 573.629L1183.21 573.62C1180.96 577.168 1176.94 579.27 1172.16 578.931C1163.76 578.334 1158.49 571.157 1159.23 560.729L1159.24 560.697C1159.97 550.334 1166.26 544.008 1174.73 544.609C1179.44 544.943 1182.98 547.774 1184.77 551.642L1184.9 551.651L1185.3 546.004L1190.89 546.4L1188.58 578.838C1188.04 586.57 1182 591.237 1172.95 590.595ZM1173.73 574.076C1179.41 574.479 1183.61 569.907 1184.13 562.495L1184.13 562.463C1184.66 555.116 1181.12 550.028 1175.47 549.627C1169.53 549.206 1165.47 553.691 1164.95 561.102L1164.95 561.134C1164.41 568.707 1167.8 573.655 1173.73 574.076ZM1205.45 581.614C1198.8 581.143 1194.63 576.816 1195.06 570.752L1195.06 570.687C1195.47 565.008 1200.15 561.761 1207.85 561.856L1217.45 561.988L1217.64 559.197C1217.93 555.122 1215.45 552.463 1210.79 552.133C1206.49 551.828 1203.65 553.69 1202.8 556.629L1202.72 556.913L1197.33 556.53L1197.38 556.18C1198.25 550.727 1203.35 546.639 1211.21 547.196C1219.1 547.756 1223.74 552.374 1223.27 559.048L1221.63 582.117L1216.05 581.721L1216.43 576.298L1216.3 576.289C1214.09 579.808 1209.91 581.93 1205.45 581.614ZM1200.77 571.157C1200.54 574.365 1203.03 576.573 1207.04 576.858C1212.3 577.231 1216.6 573.892 1216.95 569.047L1217.14 566.32L1208.18 566.233C1203.7 566.173 1201 567.98 1200.77 571.092L1200.77 571.157ZM1239.52 584.031C1233.39 583.596 1230.57 580.623 1231.02 574.238L1232.46 553.992L1227.58 553.646L1227.91 549.026L1232.79 549.372L1233.43 540.356L1239.2 540.766L1238.56 549.782L1244.92 550.232L1244.59 554.852L1238.24 554.402L1236.8 574.615C1236.55 578.177 1238.05 579.283 1241.03 579.495C1241.71 579.542 1242.36 579.492 1242.84 579.494L1242.52 584.018C1241.81 584.064 1240.61 584.108 1239.52 584.031ZM1254.46 545.234C1252.54 545.097 1251.08 543.414 1251.21 541.489C1251.35 539.531 1253.03 538.103 1254.96 538.239C1256.91 538.378 1258.34 540.027 1258.21 541.985C1258.07 543.91 1256.42 545.373 1254.46 545.234ZM1248.9 584.051L1251.27 550.683L1256.85 551.079L1254.48 584.447L1248.9 584.051ZM1275.87 586.609C1266.6 585.951 1260.88 578.806 1261.64 568.186L1261.64 568.122C1262.39 557.502 1269.09 551.302 1278.3 551.955C1287.51 552.608 1293.29 559.662 1292.54 570.314L1292.53 570.378C1291.78 581.03 1285.08 587.262 1275.87 586.609ZM1276.25 581.67C1282.13 582.087 1286.27 577.802 1286.82 569.973L1286.83 569.909C1287.38 562.08 1283.85 557.315 1277.95 556.896C1272.14 556.484 1267.9 560.731 1267.35 568.527L1267.35 568.591C1266.79 576.452 1270.35 581.252 1276.25 581.67ZM1297 587.463L1299.36 554.094L1304.95 554.49L1304.61 559.239L1304.74 559.248C1306.76 556.263 1310.32 554.226 1315.39 554.586C1322.7 555.105 1326.6 560.154 1326.06 567.758L1324.53 589.415L1318.94 589.019L1320.41 568.357C1320.79 562.934 1318.47 559.771 1313.34 559.406C1308.08 559.033 1304.38 562.544 1303.97 568.223L1302.58 587.859L1297 587.463Z" fill="black"/>
</g>
</g>
<defs>
<filter id="filter0_d_711_99" x="506.299" y="384.464" width="907.403" height="317.071" filterUnits="userSpaceOnUse" color-interpolation-filters="sRGB">
<feFlood flood-opacity="0" result="BackgroundImageFix"/>
<feColorMatrix in="SourceAlpha" type="matrix" values="0 0 0 0 0 0 0 0 0 0 0 0 0 0 0 0 0 0 127 0" result="hardAlpha"/>
<feOffset dy="3"/>
<feGaussianBlur stdDeviation="1.5"/>
<feComposite in2="hardAlpha" operator="out"/>
<feColorMatrix type="matrix" values="0 0 0 0 0 0 0 0 0 0 0 0 0 0 0 0 0 0 0.25 0"/>
<feBlend mode="normal" in2="BackgroundImageFix" result="effect1_dropShadow_711_99"/>
<feBlend mode="normal" in="SourceGraphic" in2="effect1_dropShadow_711_99" result="shape"/>
</filter>
<clipPath id="clip0_711_99">
<rect x="526.917" y="384.464" width="886.005" height="249.007" rx="18" transform="rotate(4.05725 526.917 384.464)" fill="white"/>
</clipPath>
</defs>
</svg>
