<svg width="1920" height="1080" viewBox="0 0 1920 1080" fill="none" xmlns="http://www.w3.org/2000/svg">
<rect width="1920" height="1080" fill="#DDDDDD"/>
<g filter="url(#filter0_d_719_280)">
<g clip-path="url(#clip0_719_280)">
<rect x="292.391" y="491.69" width="1321" height="217.006" rx="18" transform="rotate(-5.19 292.391 491.69)" fill="white"/>
<path d="M377.288 616.525L390.291 568.738L395.993 568.22L417.362 612.885L411.308 613.435L405.429 600.63L386.817 602.321L383.342 615.975L377.288 616.525ZM393.707 575.404L388.134 597.259L403.254 595.886L393.835 575.393L393.707 575.404ZM421.815 612.481L418.789 579.166L424.362 578.659L424.793 583.4L424.921 583.389C426.433 580.119 429.622 577.536 434.683 577.076C441.987 576.413 446.646 580.77 447.335 588.362L449.299 609.984L443.726 610.491L441.852 589.861C441.36 584.447 438.559 581.698 433.433 582.163C428.18 582.641 425.093 586.7 425.608 592.37L427.388 611.974L421.815 612.481ZM468.994 608.841C460.473 609.615 454.219 603.336 453.264 592.829L453.261 592.797C452.307 582.29 457.395 575.013 465.756 574.254C470.465 573.826 474.556 575.844 476.987 579.499L477.116 579.488L475.437 561.004L481.011 560.498L485.209 606.723L479.635 607.229L479.123 601.591L478.995 601.603C477.265 605.668 473.767 608.408 468.994 608.841ZM469.635 603.809C475.273 603.297 478.832 598.032 478.154 590.568L478.151 590.536C477.476 583.105 472.995 578.57 467.389 579.079C461.495 579.615 458.274 584.687 458.963 592.279L458.966 592.311C459.662 599.967 463.741 604.345 469.635 603.809Z" fill="black"/>
<mask id="path-3-inside-1_719_280" fill="white">
<path d="M499.374 548.399C498.766 541.706 498.462 538.36 499.533 535.685C500.474 533.332 502.137 531.338 504.281 529.988C506.719 528.453 510.066 528.15 516.759 527.542L604 519.622C610.693 519.014 614.04 518.71 616.715 519.781C619.067 520.723 621.062 522.385 622.411 524.53C623.946 526.968 624.25 530.314 624.858 537.007L630.879 603.335C631.487 610.028 631.79 613.374 630.72 616.049C629.778 618.402 628.116 620.396 625.971 621.746C623.533 623.28 620.187 623.584 613.493 624.192L526.252 632.112C519.559 632.72 516.213 633.023 513.538 631.953C511.185 631.011 509.191 629.349 507.841 627.204C506.306 624.766 506.003 621.42 505.395 614.726L499.374 548.399Z"/>
</mask>
<path d="M499.374 548.399C498.766 541.706 498.462 538.36 499.533 535.685C500.474 533.332 502.137 531.338 504.281 529.988C506.719 528.453 510.066 528.15 516.759 527.542L604 519.622C610.693 519.014 614.04 518.71 616.715 519.781C619.067 520.723 621.062 522.385 622.411 524.53C623.946 526.968 624.25 530.314 624.858 537.007L630.879 603.335C631.487 610.028 631.79 613.374 630.72 616.049C629.778 618.402 628.116 620.396 625.971 621.746C623.533 623.28 620.187 623.584 613.493 624.192L526.252 632.112C519.559 632.72 516.213 633.023 513.538 631.953C511.185 631.011 509.191 629.349 507.841 627.204C506.306 624.766 506.003 621.42 505.395 614.726L499.374 548.399Z" fill="#F6F8FA"/>
<path d="M496.731 541.409C496.032 533.709 501.707 526.9 509.408 526.201L610.99 516.979C618.69 516.28 625.499 521.956 626.198 529.656L622.215 530.018C621.715 524.517 616.852 520.463 611.352 520.963L509.769 530.185C504.269 530.684 500.215 535.548 500.714 541.048L496.731 541.409ZM633.883 614.308C634.582 622.008 628.907 628.817 621.206 629.516L519.624 638.738C511.924 639.437 505.115 633.762 504.416 626.061L508.038 621.716C508.337 625.016 513.039 627.287 518.539 626.787L620.121 617.565C625.622 617.066 629.838 613.986 629.538 610.686L633.883 614.308ZM519.624 638.738C511.924 639.437 505.115 633.762 504.416 626.061L496.731 541.409C496.032 533.709 501.707 526.9 509.408 526.201L509.769 530.185C504.269 530.684 500.215 535.548 500.714 541.048L508.038 621.716C508.337 625.016 513.039 627.287 518.539 626.787L519.624 638.738ZM610.99 516.979C618.69 516.28 625.499 521.956 626.198 529.656L633.883 614.308C634.582 622.008 628.907 628.817 621.206 629.516L620.121 617.565C625.622 617.066 629.838 613.986 629.538 610.686L622.215 530.018C621.715 524.517 616.852 520.463 611.352 520.963L610.99 516.979Z" fill="#D1D9E0" mask="url(#path-3-inside-1_719_280)"/>
<path d="M566.611 579.772L558.861 580.476L560.08 593.897L556.018 594.266L552.961 560.584L564.258 559.558C570.934 558.952 575.464 562.448 576.031 568.703C576.432 573.115 574.309 576.955 570.596 578.563L578.753 592.202L574.108 592.624L566.611 579.772ZM557.355 563.88L558.546 576.998L565.221 576.392C569.866 575.97 572.267 573.375 571.885 569.174C571.506 564.996 568.722 562.848 564.217 563.257L557.355 563.88Z" fill="black"/>
<path d="M659.854 591.505C653.736 592.061 650.474 589.58 649.895 583.205L648.059 562.992L643.19 563.434L642.771 558.821L647.64 558.379L646.823 549.377L652.589 548.854L653.406 557.855L659.749 557.279L660.168 561.892L653.825 562.468L655.658 582.649C655.981 586.205 657.641 587.055 660.62 586.785C661.293 586.724 661.925 586.569 662.403 586.494L662.813 591.01C662.117 591.171 660.943 591.406 659.854 591.505ZM681.669 589.524C672.411 590.365 665.621 584.231 664.658 573.628L664.652 573.564C663.689 562.961 669.301 555.765 678.495 554.93C687.688 554.095 694.534 560.127 695.5 570.762L695.506 570.826C696.472 581.461 690.863 588.689 681.669 589.524ZM681.253 584.588C687.115 584.055 690.514 579.16 689.804 571.344L689.798 571.28C689.088 563.464 684.837 559.328 678.943 559.864C673.145 560.39 669.647 565.262 670.354 573.046L670.36 573.11C671.072 580.958 675.359 585.123 681.253 584.588ZM716.111 585.749L713.085 552.434L718.659 551.928L719.171 557.566L719.299 557.554C720.071 553.609 722.733 550.912 726.481 550.572C727.442 550.484 728.289 550.569 728.744 550.592L729.235 556.006C728.772 555.887 727.573 555.834 726.227 555.956C721.903 556.349 719.357 559.616 719.817 564.678L721.685 585.243L716.111 585.749ZM748.523 583.451C738.945 584.321 732.571 578.15 731.62 567.675L731.617 567.643C730.68 557.328 735.931 549.713 745.028 548.887C754.126 548.061 760.282 554.316 761.19 564.311L761.376 566.361L737.383 568.54C738.133 575.384 742.277 579.045 748.203 578.507C752.432 578.122 755.219 575.738 755.921 572.799L755.991 572.502L761.469 572.005L761.434 572.331C760.845 577.94 755.795 582.791 748.523 583.451ZM745.445 553.823C740.607 554.262 737.127 557.905 737.083 564.175L755.31 562.52C754.178 556.098 750.314 553.381 745.445 553.823ZM768.678 580.975L764.48 534.75L770.054 534.244L774.252 580.468L768.678 580.975ZM795.645 579.171C786.387 580.012 779.596 573.879 778.633 563.276L778.628 563.211C777.664 552.608 783.277 545.413 792.47 544.578C801.664 543.743 808.51 549.774 809.476 560.409L809.482 560.474C810.448 571.109 804.838 578.336 795.645 579.171ZM795.229 574.235C801.091 573.703 804.49 568.808 803.78 560.991L803.774 560.927C803.064 553.111 798.813 548.976 792.918 549.511C787.12 550.038 783.622 554.909 784.33 562.694L784.335 562.758C785.048 570.606 789.335 574.771 795.229 574.235ZM826.429 576.375C819.798 576.977 814.982 573.378 814.432 567.323L814.426 567.259C813.911 561.589 818.009 557.632 825.624 556.488L835.121 555.076L834.867 552.29C834.498 548.221 831.615 545.996 826.97 546.418C822.678 546.808 820.173 549.103 819.803 552.14L819.765 552.434L814.383 552.923L814.384 552.568C814.366 547.046 818.738 542.192 826.586 541.479C834.466 540.763 839.787 544.576 840.392 551.239L842.484 574.271L836.91 574.777L836.418 569.363L836.29 569.375C834.668 573.204 830.882 575.971 826.429 576.375ZM820.134 566.805C820.425 570.009 823.235 571.788 827.239 571.425C832.493 570.947 836.2 566.961 835.761 562.124L835.513 559.401L826.658 560.754C822.228 561.415 819.846 563.634 820.128 566.741L820.134 566.805ZM862.147 573.131C853.626 573.905 847.371 567.626 846.417 557.119L846.414 557.087C845.459 546.58 850.547 539.303 858.908 538.543C863.617 538.115 867.709 540.134 870.14 543.789L870.268 543.777L868.589 525.294L874.163 524.787L878.362 571.012L872.788 571.518L872.276 565.88L872.148 565.892C870.417 569.957 866.92 572.697 862.147 573.131ZM862.788 568.099C868.426 567.587 871.985 562.322 871.307 554.858L871.304 554.826C870.629 547.394 866.147 542.86 860.542 543.369C854.647 543.904 851.426 548.977 852.116 556.569L852.119 556.601C852.814 564.257 856.894 568.634 862.788 568.099ZM910.229 568.763C904.111 569.319 900.849 566.838 900.27 560.463L898.434 540.25L893.565 540.692L893.146 536.079L898.015 535.637L897.198 526.636L902.964 526.112L903.781 535.113L910.124 534.537L910.543 539.15L904.2 539.726L906.034 559.907C906.357 563.463 908.016 564.314 910.996 564.043C911.668 563.982 912.3 563.828 912.778 563.752L913.188 568.269C912.492 568.429 911.318 568.665 910.229 568.763ZM919.429 567.282L915.23 521.057L920.804 520.551L922.46 538.778L922.588 538.767C924.041 534.856 927.46 532.317 932.425 531.866C939.505 531.223 944.84 536.261 945.573 544.333L947.426 564.739L941.852 565.245L940.086 545.801C939.539 539.778 936.141 536.502 930.952 536.973C925.794 537.442 922.721 541.661 923.236 547.331L925.003 566.776L919.429 567.282ZM968.274 563.491C958.696 564.361 952.322 558.19 951.371 547.715L951.368 547.683C950.431 537.368 955.682 529.753 964.779 528.927C973.877 528.1 980.033 534.356 980.941 544.351L981.127 546.401L957.134 548.58C957.884 555.424 962.028 559.085 967.954 558.546C972.183 558.162 974.97 555.777 975.672 552.839L975.742 552.542L981.22 552.045L981.185 552.371C980.596 557.979 975.546 562.831 968.274 563.491ZM965.196 533.863C960.358 534.302 956.878 537.945 956.834 544.215L975.061 542.559C973.929 536.138 970.065 533.421 965.196 533.863ZM1015.46 559.205C1006.01 560.064 999.409 553.881 998.446 543.277L998.443 543.245C997.488 532.738 1003 525.456 1012.25 524.615C1020.55 523.861 1025.95 528.926 1027.17 534.564L1027.23 534.817L1021.78 535.312L1021.7 535.061C1020.56 531.805 1017.6 529.103 1012.7 529.548C1006.9 530.075 1003.46 535.232 1004.15 542.792L1004.15 542.824C1004.86 550.576 1009.25 554.796 1015.01 554.272C1019.56 553.859 1022.24 551.031 1022.83 547.231L1022.88 546.969L1028.35 546.471L1028.34 546.699C1028.02 553.123 1022.99 558.521 1015.46 559.205ZM1045.89 556.441C1038.59 557.104 1033.93 552.748 1033.24 545.156L1031.28 523.533L1036.85 523.027L1038.72 543.656C1039.21 549.07 1042.02 551.819 1047.14 551.354C1052.4 550.876 1055.48 546.817 1054.97 541.147L1053.19 521.543L1058.76 521.036L1061.79 554.351L1056.21 554.858L1055.78 550.117L1055.65 550.128C1054.14 553.399 1050.95 555.981 1045.89 556.441ZM1069.06 553.691L1066.03 520.376L1071.61 519.87L1072.12 525.508L1072.25 525.496C1073.02 521.55 1075.68 518.854 1079.43 518.513C1080.39 518.426 1081.24 518.51 1081.69 518.534L1082.18 523.947C1081.72 523.828 1080.52 523.775 1079.17 523.898C1074.85 524.29 1072.3 527.558 1072.76 532.619L1074.63 553.185L1069.06 553.691ZM1089.3 551.852L1086.28 518.537L1091.85 518.031L1092.36 523.669L1092.49 523.657C1093.26 519.711 1095.93 517.015 1099.67 516.674C1100.63 516.587 1101.48 516.671 1101.94 516.695L1102.43 522.108C1101.96 521.989 1100.76 521.937 1099.42 522.059C1095.09 522.452 1092.55 525.719 1093.01 530.78L1094.88 551.346L1089.3 551.852ZM1121.72 549.554C1112.14 550.424 1105.76 544.253 1104.81 533.778L1104.81 533.746C1103.87 523.431 1109.12 515.816 1118.22 514.99C1127.32 514.163 1133.47 520.419 1134.38 530.413L1134.57 532.464L1110.57 534.643C1111.33 541.486 1115.47 545.147 1121.4 544.609C1125.62 544.225 1128.41 541.84 1129.11 538.902L1129.18 538.605L1134.66 538.107L1134.63 538.433C1134.04 544.042 1128.99 548.893 1121.72 549.554ZM1118.64 519.926C1113.8 520.365 1110.32 524.008 1110.28 530.278L1128.5 528.622C1127.37 522.201 1123.51 519.483 1118.64 519.926ZM1141.58 547.103L1138.56 513.788L1144.13 513.282L1144.56 518.023L1144.69 518.011C1146.2 514.741 1149.39 512.158 1154.45 511.699C1161.75 511.035 1166.41 515.392 1167.1 522.984L1169.07 544.607L1163.49 545.113L1161.62 524.484C1161.13 519.07 1158.33 516.321 1153.2 516.786C1147.95 517.263 1144.86 521.323 1145.38 526.993L1147.16 546.597L1141.58 547.103ZM1187.06 543.618C1180.95 544.174 1177.68 541.693 1177.11 535.318L1175.27 515.105L1170.4 515.547L1169.98 510.934L1174.85 510.492L1174.03 501.49L1179.8 500.967L1180.62 509.968L1186.96 509.392L1187.38 514.005L1181.04 514.581L1182.87 534.762C1183.19 538.318 1184.85 539.168 1187.83 538.898C1188.5 538.837 1189.14 538.682 1189.61 538.607L1190.02 543.123C1189.33 543.283 1188.15 543.519 1187.06 543.618ZM1210.45 552.153L1206.4 507.626L1211.98 507.119L1212.49 512.757L1212.62 512.746C1214.35 508.681 1217.85 505.941 1222.62 505.507C1231.14 504.733 1237.39 511.012 1238.35 521.519L1238.35 521.551C1239.31 532.058 1234.22 539.335 1225.86 540.095C1221.15 540.522 1217.06 538.504 1214.63 534.849L1214.5 534.861L1216.02 551.646L1210.45 552.153ZM1224.22 535.269C1230.12 534.734 1233.34 529.661 1232.65 522.069L1232.65 522.037C1231.95 514.381 1227.87 510.004 1221.98 510.539C1216.34 511.051 1212.78 516.316 1213.46 523.78L1213.46 523.812C1214.14 531.244 1218.62 535.778 1224.22 535.269ZM1245.5 537.665L1242.47 504.349L1248.05 503.843L1248.56 509.481L1248.69 509.469C1249.46 505.524 1252.12 502.827 1255.87 502.487C1256.83 502.399 1257.68 502.484 1258.13 502.507L1258.62 507.921C1258.16 507.802 1256.96 507.749 1255.62 507.871C1251.29 508.264 1248.75 511.531 1249.21 516.593L1251.07 537.158L1245.5 537.665ZM1277.91 535.366C1268.33 536.236 1261.96 530.065 1261.01 519.59L1261.01 519.558C1260.07 509.243 1265.32 501.628 1274.42 500.802C1283.51 499.976 1289.67 506.231 1290.58 516.226L1290.76 518.276L1266.77 520.455C1267.52 527.299 1271.67 530.96 1277.59 530.422C1281.82 530.038 1284.61 527.653 1285.31 524.714L1285.38 524.417L1290.86 523.92L1290.82 524.246C1290.23 529.855 1285.18 534.706 1277.91 535.366ZM1274.83 505.738C1270 506.178 1266.52 509.82 1266.47 516.09L1284.7 514.435C1283.57 508.013 1279.7 505.296 1274.83 505.738ZM1309.66 532.483C1301.81 533.196 1296.7 529.622 1295.49 523.725L1295.43 523.44L1301.01 522.933L1301.1 523.248C1302.07 526.518 1304.72 528.248 1309.27 527.835C1313.78 527.425 1316.3 525.291 1316.03 522.279L1316.03 522.247C1315.81 519.845 1314.44 518.613 1310.57 518.027L1305.17 517.226C1298.76 516.291 1295.45 513.652 1295.01 508.847L1295.01 508.815C1294.49 503.081 1299.15 498.556 1306.35 497.901C1313.66 497.238 1318.69 501.076 1319.61 506.612L1319.68 507.026L1314.37 507.509L1314.31 507.288C1313.57 504.093 1310.91 502.171 1306.78 502.546C1302.74 502.913 1300.42 505.094 1300.69 508.041L1300.69 508.073C1300.9 510.347 1302.54 511.78 1306.31 512.342L1311.71 513.144C1318.59 514.166 1321.26 516.604 1321.69 521.345L1321.7 521.377C1322.23 527.207 1317.09 531.808 1309.66 532.483ZM1342.11 529.535C1332.53 530.405 1326.15 524.234 1325.2 513.759L1325.2 513.727C1324.26 503.412 1329.51 495.797 1338.61 494.971C1347.71 494.145 1353.87 500.401 1354.77 510.395L1354.96 512.445L1330.97 514.625C1331.72 521.468 1335.86 525.129 1341.79 524.591C1346.02 524.207 1348.8 521.822 1349.5 518.883L1349.57 518.586L1355.05 518.089L1355.02 518.415C1354.43 524.024 1349.38 528.875 1342.11 529.535ZM1339.03 499.907C1334.19 500.347 1330.71 503.989 1330.67 510.259L1348.89 508.604C1347.76 502.182 1343.9 499.465 1339.03 499.907ZM1361.97 527.085L1358.95 493.77L1364.52 493.264L1364.95 498.005L1365.08 497.993C1366.59 494.723 1369.78 492.14 1374.84 491.68C1382.15 491.017 1386.81 495.374 1387.49 502.966L1389.46 524.589L1383.89 525.095L1382.01 504.465C1381.52 499.051 1378.72 496.302 1373.59 496.768C1368.34 497.245 1365.25 501.304 1365.77 506.974L1367.55 526.579L1361.97 527.085ZM1407.46 523.6C1401.34 524.156 1398.08 521.674 1397.5 515.299L1395.66 495.086L1390.79 495.528L1390.37 490.916L1395.24 490.473L1394.42 481.472L1400.19 480.948L1401.01 489.95L1407.35 489.373L1407.77 493.986L1401.43 494.562L1403.26 514.744C1403.58 518.299 1405.24 519.15 1408.22 518.879C1408.89 518.818 1409.53 518.664 1410 518.588L1410.41 523.105C1409.72 523.265 1408.55 523.501 1407.46 523.6ZM1425.52 521.959C1418.89 522.561 1414.08 518.961 1413.53 512.907L1413.52 512.843C1413 507.173 1417.1 503.216 1424.72 502.072L1434.21 500.66L1433.96 497.873C1433.59 493.805 1430.71 491.58 1426.06 492.002C1421.77 492.392 1419.27 494.686 1418.9 497.723L1418.86 498.018L1413.48 498.506L1413.48 498.151C1413.46 492.63 1417.83 487.776 1425.68 487.063C1433.56 486.347 1438.88 490.159 1439.49 496.822L1441.58 519.855L1436 520.361L1435.51 514.947L1435.38 514.959C1433.76 518.788 1429.98 521.554 1425.52 521.959ZM1419.23 512.389C1419.52 515.592 1422.33 517.372 1426.33 517.008C1431.59 516.531 1435.29 512.545 1434.85 507.707L1434.61 504.985L1425.75 506.338C1421.32 506.999 1418.94 509.218 1419.22 512.325L1419.23 512.389ZM1459.54 518.869C1453.42 519.424 1450.16 516.943 1449.58 510.568L1447.75 490.355L1442.88 490.797L1442.46 486.185L1447.33 485.742L1446.51 476.741L1452.28 476.217L1453.09 485.219L1459.44 484.642L1459.86 489.255L1453.51 489.831L1455.35 510.013C1455.67 513.568 1457.33 514.419 1460.31 514.148C1460.98 514.087 1461.61 513.933 1462.09 513.857L1462.5 518.374C1461.81 518.534 1460.63 518.77 1459.54 518.869ZM1468.06 478.175C1466.13 478.35 1464.42 476.923 1464.25 475.001C1464.07 473.047 1465.5 471.366 1467.42 471.192C1469.37 471.014 1471.05 472.412 1471.23 474.366C1471.4 476.288 1470.01 477.998 1468.06 478.175ZM1468.81 517.381L1465.78 484.066L1471.35 483.56L1474.38 516.875L1468.81 517.381ZM1495.84 515.572C1486.58 516.413 1479.79 510.279 1478.83 499.676L1478.82 499.612C1477.86 489.009 1483.47 481.814 1492.66 480.979C1501.86 480.144 1508.7 486.175 1509.67 496.81L1509.67 496.874C1510.64 507.509 1505.03 514.737 1495.84 515.572ZM1495.42 510.636C1501.28 510.103 1504.68 505.208 1503.97 497.392L1503.97 497.328C1503.26 489.512 1499 485.376 1493.11 485.912C1487.31 486.438 1483.81 491.31 1484.52 499.094L1484.53 499.158C1485.24 507.007 1489.53 511.171 1495.42 510.636ZM1516.82 513.02L1513.8 479.705L1519.37 479.198L1519.8 483.939L1519.93 483.928C1521.44 480.658 1524.63 478.075 1529.69 477.615C1537 476.952 1541.66 481.309 1542.35 488.901L1544.31 510.523L1538.74 511.03L1536.86 490.4C1536.37 484.986 1533.57 482.237 1528.44 482.702C1523.19 483.18 1520.1 487.239 1520.62 492.909L1522.4 512.513L1516.82 513.02Z" fill="black"/>
</g>
</g>
<defs>
<filter id="filter0_d_719_280" x="289.391" y="372.194" width="1341.22" height="341.613" filterUnits="userSpaceOnUse" color-interpolation-filters="sRGB">
<feFlood flood-opacity="0" result="BackgroundImageFix"/>
<feColorMatrix in="SourceAlpha" type="matrix" values="0 0 0 0 0 0 0 0 0 0 0 0 0 0 0 0 0 0 127 0" result="hardAlpha"/>
<feOffset dy="3"/>
<feGaussianBlur stdDeviation="1.5"/>
<feComposite in2="hardAlpha" operator="out"/>
<feColorMatrix type="matrix" values="0 0 0 0 0 0 0 0 0 0 0 0 0 0 0 0 0 0 0.25 0"/>
<feBlend mode="normal" in2="BackgroundImageFix" result="effect1_dropShadow_719_280"/>
<feBlend mode="normal" in="SourceGraphic" in2="effect1_dropShadow_719_280" result="shape"/>
</filter>
<clipPath id="clip0_719_280">
<rect x="292.391" y="491.69" width="1321" height="217.006" rx="18" transform="rotate(-5.19 292.391 491.69)" fill="white"/>
</clipPath>
</defs>
</svg>
