<svg width="1920" height="1080" viewBox="0 0 1920 1080" fill="none" xmlns="http://www.w3.org/2000/svg">
<rect width="1920" height="1080" fill="#DDDDDD"/>
<g filter="url(#filter0_d_711_94)">
<g clip-path="url(#clip0_711_94)">
<rect x="419.742" y="460.482" width="1049.57" height="302" rx="18" transform="rotate(-7.67947 419.742 460.482)" fill="white"/>
<path d="M513.599 584.048L507.397 538.05L513.135 537.276L515.817 557.167L541.063 553.763L538.381 533.872L544.119 533.098L550.322 579.096L544.584 579.87L541.76 558.927L516.513 562.331L519.337 583.274L513.599 584.048ZM572.116 576.807C562.585 578.092 555.948 572.203 554.543 561.78L554.539 561.748C553.155 551.483 558.07 543.648 567.123 542.427C576.176 541.206 582.598 547.189 583.939 557.134L584.214 559.174L560.338 562.394C561.385 569.198 565.684 572.676 571.582 571.881C575.789 571.313 578.47 568.81 579.044 565.844L579.101 565.544L584.552 564.809L584.531 565.136C584.187 570.765 579.352 575.831 572.116 576.807ZM567.753 547.34C562.94 547.989 559.621 551.78 559.849 558.046L577.987 555.6C576.577 549.234 572.598 546.687 567.753 547.34ZM591.857 573.496L587.387 540.344L592.934 539.596L593.69 545.206L593.818 545.189C594.418 541.213 596.96 538.404 600.69 537.901C601.646 537.772 602.496 537.819 602.951 537.823L603.678 543.21C603.21 543.111 602.009 543.111 600.67 543.291C596.367 543.871 593.965 547.246 594.645 552.283L597.404 572.748L591.857 573.496ZM624.139 569.792C614.608 571.077 607.972 565.189 606.566 554.765L606.562 554.733C605.178 544.468 610.093 536.633 619.146 535.412C628.2 534.191 634.621 540.174 635.962 550.119L636.237 552.16L612.361 555.379C613.409 562.183 617.708 565.661 623.605 564.866C627.813 564.298 630.494 561.795 631.067 558.829L631.124 558.529L636.575 557.794L636.554 558.121C636.21 563.75 631.375 568.816 624.139 569.792ZM619.777 540.325C614.963 540.974 611.644 544.765 611.873 551.031L630.011 548.585C628.6 542.219 624.622 539.672 619.777 540.325ZM667.046 564.006C660.447 564.896 655.479 561.509 654.667 555.484L654.658 555.421C653.897 549.778 657.819 545.647 665.378 544.173L674.804 542.35L674.43 539.577C673.884 535.529 670.907 533.431 666.285 534.054C662.014 534.63 659.611 537.031 659.373 540.082L659.348 540.377L653.993 541.099L653.977 540.745C653.721 535.229 657.877 530.19 665.687 529.136C673.529 528.079 679.009 531.657 679.904 538.287L682.994 561.207L677.447 561.955L676.721 556.568L676.593 556.585C675.139 560.481 671.477 563.409 667.046 564.006ZM660.341 554.719C660.771 557.907 663.655 559.563 667.64 559.025C672.868 558.32 676.399 554.177 675.75 549.363L675.384 546.654L666.595 548.391C662.199 549.243 659.915 551.563 660.332 554.655L660.341 554.719ZM690.039 560.257L685.569 527.105L691.115 526.357L691.872 531.967L691.999 531.95C692.599 527.974 695.141 525.165 698.871 524.662C699.827 524.533 700.678 524.581 701.132 524.584L701.859 529.971C701.391 529.872 700.19 529.872 698.851 530.052C694.548 530.633 692.147 534.007 692.826 539.044L695.585 559.509L690.039 560.257ZM722.321 556.553C712.789 557.838 706.153 551.95 704.748 541.526L704.743 541.494C703.359 531.23 708.275 523.394 717.328 522.173C726.381 520.952 732.803 526.935 734.144 536.881L734.419 538.921L710.543 542.14C711.59 548.945 715.889 552.422 721.786 551.627C725.994 551.06 728.675 548.556 729.249 545.59L729.306 545.29L734.757 544.555L734.736 544.882C734.391 550.511 729.557 555.577 722.321 556.553ZM717.958 527.087C713.144 527.736 709.826 531.526 710.054 537.792L728.192 535.346C726.782 528.98 722.803 526.433 717.958 527.087ZM767.299 550.488C759.489 551.541 754.234 548.193 752.765 542.354L752.695 542.071L758.241 541.323L758.348 541.634C759.464 544.859 762.181 546.472 766.708 545.862C771.202 545.256 773.627 543.014 773.222 540.017L773.218 539.986C772.896 537.595 771.472 536.424 767.586 536.006L762.154 535.44C755.704 534.785 752.285 532.292 751.64 527.511L751.636 527.479C750.866 521.773 755.325 517.05 762.498 516.082C769.766 515.102 774.959 518.719 776.122 524.21L776.209 524.62L770.918 525.333L770.856 525.114C769.975 521.955 767.233 520.15 763.121 520.705C759.104 521.246 756.88 523.526 757.276 526.459L757.28 526.491C757.585 528.754 759.294 530.114 763.08 530.512L768.512 531.078C775.425 531.801 778.205 534.12 778.841 538.838L778.845 538.87C779.627 544.671 774.695 549.491 767.299 550.488ZM799.686 546.121C790.474 547.363 783.423 541.531 782 530.979L781.992 530.916C780.569 520.364 785.863 512.932 795.012 511.698C804.161 510.465 811.262 516.193 812.689 526.776L812.698 526.84C814.125 537.423 808.835 544.888 799.686 546.121ZM799.056 541.208C804.89 540.421 808.073 535.383 807.024 527.605L807.015 527.541C805.967 519.763 801.539 515.816 795.674 516.607C789.904 517.385 786.621 522.404 787.666 530.15L787.675 530.214C788.728 538.024 793.191 541.999 799.056 541.208ZM820.544 542.66L816.073 509.507L821.62 508.76L822.273 513.605L822.401 513.588C823.456 510.102 826.475 507.456 830.746 506.88C835.273 506.269 838.934 508.145 840.914 512L841.042 511.983C842.353 507.749 845.92 504.834 850.574 504.206C857.141 503.321 861.96 507.053 862.85 513.651L865.936 536.539L860.39 537.287L857.476 515.674C856.861 511.116 853.977 508.746 849.61 509.335C845.211 509.928 842.562 513.628 843.172 518.155L846.013 539.225L840.467 539.973L837.471 517.755C836.929 513.738 833.895 511.454 829.783 512.008C825.384 512.601 822.664 516.506 823.288 521.128L826.09 541.912L820.544 542.66ZM886.742 534.382C877.211 535.668 870.575 529.779 869.169 519.355L869.165 519.323C867.781 509.059 872.697 501.223 881.75 500.002C890.803 498.782 897.224 504.764 898.565 514.71L898.841 516.75L874.965 519.969C876.012 526.774 880.311 530.251 886.208 529.456C890.416 528.889 893.097 526.385 893.67 523.419L893.727 523.119L899.178 522.384L899.158 522.712C898.813 528.341 893.979 533.407 886.742 534.382ZM882.38 504.916C877.566 505.565 874.248 509.355 874.476 515.621L892.614 513.176C891.204 506.809 887.225 504.263 882.38 504.916ZM920.159 529.227L913.957 483.229L919.503 482.481L921.949 500.619L922.077 500.602C923.359 496.631 926.664 493.946 931.605 493.28C938.65 492.33 944.199 497.132 945.282 505.165L948.02 525.471L942.473 526.219L939.864 506.869C939.056 500.876 935.519 497.751 930.355 498.447C925.222 499.139 922.336 503.488 923.097 509.13L925.706 528.479L920.159 529.227ZM968.794 523.319C959.263 524.604 952.627 518.715 951.221 508.291L951.217 508.259C949.833 497.995 954.748 490.159 963.801 488.939C972.854 487.718 979.276 493.7 980.617 503.646L980.892 505.686L957.016 508.906C958.064 515.71 962.362 519.187 968.26 518.392C972.467 517.825 975.148 515.321 975.722 512.355L975.779 512.055L981.23 511.32L981.209 511.648C980.865 517.277 976.03 522.343 968.794 523.319ZM964.431 493.852C959.618 494.501 956.299 498.292 956.527 504.557L974.665 502.112C973.255 495.746 969.277 493.199 964.431 493.852ZM988.822 519.969L982.62 473.97L988.167 473.222L994.369 519.221L988.822 519.969ZM1003.36 529.368L997.39 485.059L1002.94 484.311L1003.69 489.921L1003.82 489.904C1005.37 485.767 1008.75 482.878 1013.5 482.238C1021.98 481.094 1028.5 487.096 1029.91 497.551L1029.91 497.583C1031.32 508.039 1026.56 515.53 1018.24 516.652C1013.55 517.284 1009.37 515.445 1006.79 511.899L1006.66 511.916L1008.91 528.62L1003.36 529.368ZM1016.39 511.902C1022.26 511.111 1025.26 505.903 1024.24 498.348L1024.23 498.316C1023.21 490.698 1018.94 486.502 1013.08 487.293C1007.47 488.049 1004.14 493.464 1005.14 500.891L1005.14 500.923C1006.14 508.318 1010.82 512.654 1016.39 511.902ZM1039.54 513.13L1035.69 484.568L1031.07 485.192L1030.45 480.601L1035.07 479.978L1034.52 475.898C1033.66 469.522 1036.22 466.094 1042.34 465.269C1043.58 465.101 1044.9 465.021 1045.74 465.037L1046.35 469.531C1045.67 469.526 1044.8 469.61 1043.94 469.726C1040.88 470.139 1039.56 471.907 1040.01 475.19L1040.55 479.239L1047.37 478.319L1047.99 482.909L1041.23 483.82L1045.09 512.382L1039.54 513.13ZM1068.98 509.809C1061.72 510.789 1056.87 506.639 1055.85 499.084L1052.95 477.567L1058.5 476.819L1061.27 497.348C1061.99 502.735 1064.91 505.36 1070.01 504.672C1075.24 503.967 1078.15 499.778 1077.39 494.135L1074.76 474.627L1080.3 473.879L1084.77 507.031L1079.23 507.779L1078.59 503.061L1078.46 503.078C1077.09 506.411 1074.02 509.13 1068.98 509.809ZM1092.3 506.016L1086.09 460.018L1091.64 459.27L1097.84 505.269L1092.3 506.016ZM1130.57 501.505C1122.76 502.558 1117.51 499.209 1116.04 493.37L1115.97 493.088L1121.51 492.34L1121.62 492.65C1122.74 495.875 1125.45 497.488 1129.98 496.878C1134.47 496.272 1136.9 494.03 1136.49 491.034L1136.49 491.002C1136.17 488.611 1134.74 487.44 1130.86 487.023L1125.43 486.457C1118.98 485.801 1115.56 483.309 1114.91 478.527L1114.91 478.495C1114.14 472.789 1118.6 468.066 1125.77 467.099C1133.04 466.119 1138.23 469.735 1139.39 475.226L1139.48 475.636L1134.19 476.35L1134.13 476.131C1133.25 472.971 1130.5 471.167 1126.39 471.721C1122.38 472.263 1120.15 474.542 1120.55 477.475L1120.55 477.507C1120.86 479.77 1122.56 481.13 1126.35 481.528L1131.78 482.094C1138.7 482.817 1141.48 485.136 1142.11 489.854L1142.12 489.886C1142.9 495.688 1137.97 500.507 1130.57 501.505ZM1149.42 498.314L1143.22 452.315L1148.76 451.567L1151.21 469.705L1151.34 469.688C1152.62 465.718 1155.92 463.033 1160.87 462.366C1167.91 461.416 1173.46 466.218 1174.54 474.251L1177.28 494.557L1171.73 495.305L1169.12 475.956C1168.32 469.963 1164.78 466.837 1159.61 467.533C1154.48 468.225 1151.6 472.574 1152.36 478.217L1154.97 497.566L1149.42 498.314ZM1198.15 492.392C1188.94 493.634 1181.89 487.802 1180.46 477.25L1180.45 477.187C1179.03 466.635 1184.33 459.203 1193.48 457.969C1202.62 456.736 1209.73 462.464 1211.15 473.047L1211.16 473.111C1212.59 483.694 1207.3 491.159 1198.15 492.392ZM1197.52 487.479C1203.35 486.692 1206.54 481.654 1205.49 473.876L1205.48 473.812C1204.43 466.034 1200 462.087 1194.14 462.878C1188.37 463.656 1185.08 468.675 1186.13 476.421L1186.14 476.485C1187.19 484.295 1191.65 488.27 1197.52 487.479ZM1219.01 488.931L1214.54 455.778L1220.08 455.031L1220.84 460.641L1220.97 460.624C1221.57 456.648 1224.11 453.839 1227.84 453.336C1228.8 453.207 1229.65 453.254 1230.1 453.258L1230.83 458.645C1230.36 458.546 1229.16 458.546 1227.82 458.726C1223.52 459.306 1221.11 462.681 1221.79 467.718L1224.55 488.183L1219.01 488.931ZM1251.61 485.184C1245.52 486.005 1242.15 483.667 1241.3 477.324L1238.59 457.21L1233.74 457.863L1233.12 453.273L1237.97 452.619L1236.76 443.662L1242.5 442.888L1243.7 451.846L1250.02 450.994L1250.63 455.585L1244.32 456.436L1247.03 476.518C1247.51 480.057 1249.2 480.834 1252.17 480.435C1252.84 480.344 1253.46 480.163 1253.94 480.066L1254.54 484.561C1253.85 484.751 1252.69 485.038 1251.61 485.184ZM1273.32 482.257C1263.91 483.525 1257.05 477.634 1255.63 467.083L1255.62 467.051C1254.21 456.595 1259.4 449.08 1268.61 447.838C1276.87 446.725 1282.48 451.55 1283.95 457.13L1284.01 457.38L1278.6 458.111L1278.5 457.865C1277.22 454.661 1274.15 452.09 1269.27 452.747C1263.5 453.525 1260.29 458.827 1261.3 466.35L1261.31 466.382C1262.35 474.096 1266.92 478.121 1272.65 477.348C1277.18 476.737 1279.74 473.796 1280.16 469.974L1280.19 469.71L1285.64 468.975L1285.64 469.202C1285.6 475.634 1280.81 481.247 1273.32 482.257ZM1303.6 478.173C1296.33 479.153 1291.49 475.003 1290.47 467.448L1287.57 445.931L1293.11 445.183L1295.88 465.712C1296.61 471.099 1299.53 473.724 1304.63 473.036C1309.85 472.332 1312.76 468.142 1312 462.5L1309.37 442.991L1314.92 442.243L1319.39 475.395L1313.84 476.143L1313.2 471.425L1313.08 471.443C1311.71 474.775 1308.64 477.494 1303.6 478.173ZM1337.48 473.604C1331.4 474.425 1328.03 472.088 1327.17 465.744L1324.46 445.63L1319.62 446.283L1319 441.693L1323.84 441.04L1322.64 432.082L1328.37 431.308L1329.58 440.266L1335.89 439.415L1336.51 444.005L1330.2 444.856L1332.91 464.939C1333.38 468.477 1335.08 469.255 1338.04 468.855C1338.71 468.765 1339.34 468.583 1339.81 468.487L1340.42 472.981C1339.73 473.172 1338.57 473.458 1337.48 473.604ZM1358.17 470.815C1350.36 471.868 1345.11 468.519 1343.64 462.68L1343.57 462.398L1349.11 461.65L1349.22 461.96C1350.34 465.185 1353.05 466.798 1357.58 466.188C1362.08 465.582 1364.5 463.34 1364.1 460.344L1364.09 460.312C1363.77 457.921 1362.35 456.75 1358.46 456.333L1353.03 455.767C1346.58 455.111 1343.16 452.619 1342.51 447.837L1342.51 447.805C1341.74 442.099 1346.2 437.376 1353.37 436.409C1360.64 435.429 1365.83 439.045 1366.99 444.536L1367.08 444.946L1361.79 445.66L1361.73 445.441C1360.85 442.281 1358.11 440.477 1353.99 441.031C1349.98 441.573 1347.75 443.852 1348.15 446.785L1348.15 446.817C1348.46 449.08 1350.17 450.44 1353.95 450.838L1359.38 451.404C1366.3 452.127 1369.08 454.447 1369.71 459.164L1369.72 459.196C1370.5 464.998 1365.57 469.817 1358.17 470.815ZM527.988 673.183C526.904 673.329 525.707 673.36 524.989 673.327L524.378 668.801C524.869 668.832 525.52 668.842 526.189 668.752C529.696 668.279 531.52 667.124 532.351 663.182L532.767 661.211L515.988 629.686L521.917 628.887L534.788 655.258L534.916 655.241L540.374 626.398L546.208 625.611L538.015 662.58C536.512 669.242 533.981 672.375 527.988 673.183ZM567.595 657.131C558.382 658.374 551.332 652.541 549.909 641.99L549.901 641.926C548.478 631.375 553.772 623.942 562.921 622.708C572.07 621.475 579.171 627.203 580.598 637.787L580.607 637.85C582.034 648.433 576.744 655.898 567.595 657.131ZM566.965 652.218C572.798 651.431 575.981 646.393 574.933 638.615L574.924 638.552C573.875 630.774 569.448 626.827 563.583 627.618C557.813 628.396 554.53 633.415 555.575 641.161L555.583 641.224C556.636 649.034 561.1 653.009 566.965 652.218ZM599.855 652.781C592.587 653.762 587.743 649.611 586.724 642.056L583.823 620.539L589.369 619.791L592.137 640.32C592.864 645.707 595.782 648.332 600.882 647.645C606.11 646.94 609.018 642.75 608.257 637.108L605.626 617.599L611.173 616.851L615.643 650.003L610.097 650.751L609.461 646.033L609.333 646.051C607.965 649.383 604.891 652.102 599.855 652.781ZM650.093 646.007C640.689 647.275 633.825 641.385 632.403 630.834L632.398 630.802C630.988 620.346 636.174 612.831 645.387 611.589C653.643 610.475 659.259 615.301 660.726 620.88L660.792 621.131L655.373 621.862L655.275 621.615C653.999 618.412 650.926 615.84 646.049 616.498C640.279 617.276 637.067 622.577 638.081 630.1L638.085 630.132C639.126 637.847 643.693 641.872 649.431 641.098C653.957 640.488 656.514 637.547 656.94 633.724L656.97 633.461L662.42 632.726L662.419 632.953C662.377 639.385 657.584 644.997 650.093 646.007ZM678.75 642.143C672.152 643.033 667.183 639.646 666.371 633.621L666.363 633.557C665.602 627.915 669.524 623.783 677.082 622.31L686.508 620.487L686.134 617.714C685.589 613.665 682.612 611.568 677.99 612.191C673.718 612.767 671.315 615.168 671.078 618.219L671.053 618.514L665.697 619.236L665.682 618.881C665.425 613.366 669.582 608.326 677.391 607.273C685.233 606.216 690.714 609.794 691.608 616.424L694.698 639.344L689.152 640.091L688.425 634.704L688.298 634.721C686.843 638.618 683.181 641.546 678.75 642.143ZM672.045 632.856C672.475 636.044 675.36 637.699 679.344 637.162C684.572 636.457 688.103 632.313 687.454 627.5L687.089 624.79L678.3 626.527C673.903 627.38 671.62 629.7 672.037 632.792L672.045 632.856ZM701.743 638.394L697.273 605.241L702.82 604.494L703.456 609.211L703.583 609.194C704.951 605.861 708.025 603.143 713.062 602.463C720.33 601.483 725.174 605.634 726.192 613.189L729.094 634.706L723.547 635.454L720.779 614.925C720.053 609.538 717.135 606.913 712.034 607.6C706.806 608.305 703.899 612.495 704.659 618.137L707.29 637.646L701.743 638.394ZM760.961 631.058C753.693 632.038 748.849 627.887 747.831 620.333L744.929 598.816L750.476 598.068L753.244 618.596C753.97 623.984 756.888 626.609 761.989 625.921C767.217 625.216 770.124 621.026 769.364 615.384L766.733 595.875L772.28 595.128L776.75 628.28L771.203 629.028L770.567 624.31L770.44 624.327C769.072 627.66 765.998 630.379 760.961 631.058ZM795.835 626.355C788.025 627.409 782.77 624.06 781.301 618.221L781.23 617.939L786.777 617.191L786.884 617.501C788 620.726 790.717 622.339 795.243 621.729C799.738 621.123 802.162 618.881 801.758 615.885L801.754 615.853C801.431 613.462 800.008 612.291 796.121 611.874L790.69 611.308C784.24 610.652 780.82 608.159 780.176 603.378L780.171 603.346C779.402 597.64 783.861 592.917 791.033 591.95C798.301 590.97 803.495 594.586 804.657 600.077L804.745 600.487L799.453 601.2L799.391 600.982C798.511 597.822 795.769 596.017 791.656 596.572C787.64 597.113 785.416 599.393 785.811 602.326L785.815 602.358C786.121 604.621 787.829 605.981 791.616 606.379L797.047 606.945C803.961 607.668 806.74 609.987 807.376 614.705L807.381 614.737C808.163 620.539 803.23 625.358 795.835 626.355ZM828.126 622.001C818.595 623.286 811.959 617.398 810.553 606.974L810.549 606.942C809.165 596.678 814.08 588.842 823.133 587.621C832.186 586.401 838.608 592.383 839.949 602.329L840.224 604.369L816.348 607.588C817.396 614.393 821.694 617.87 827.592 617.075C831.799 616.508 834.48 614.004 835.054 611.038L835.111 610.738L840.562 610.003L840.541 610.331C840.197 615.96 835.362 621.026 828.126 622.001ZM823.763 592.535C818.95 593.184 815.631 596.974 815.859 603.24L833.997 600.794C832.587 594.428 828.609 591.881 823.763 592.535ZM848.012 594.004C845.972 594.279 844.163 592.9 843.888 590.86C843.613 588.82 844.992 587.011 847.032 586.736C849.072 586.461 850.881 587.84 851.156 589.88C851.431 591.92 850.052 593.729 848.012 594.004ZM851.339 618.677C849.299 618.952 847.49 617.573 847.215 615.533C846.94 613.492 848.319 611.684 850.359 611.409C852.399 611.133 854.208 612.512 854.483 614.553C854.758 616.593 853.379 618.401 851.339 618.677Z" fill="black"/>
</g>
</g>
<defs>
<filter id="filter0_d_711_94" x="416.742" y="320.227" width="1086.52" height="445.547" filterUnits="userSpaceOnUse" color-interpolation-filters="sRGB">
<feFlood flood-opacity="0" result="BackgroundImageFix"/>
<feColorMatrix in="SourceAlpha" type="matrix" values="0 0 0 0 0 0 0 0 0 0 0 0 0 0 0 0 0 0 127 0" result="hardAlpha"/>
<feOffset dy="3"/>
<feGaussianBlur stdDeviation="1.5"/>
<feComposite in2="hardAlpha" operator="out"/>
<feColorMatrix type="matrix" values="0 0 0 0 0 0 0 0 0 0 0 0 0 0 0 0 0 0 0.25 0"/>
<feBlend mode="normal" in2="BackgroundImageFix" result="effect1_dropShadow_711_94"/>
<feBlend mode="normal" in="SourceGraphic" in2="effect1_dropShadow_711_94" result="shape"/>
</filter>
<clipPath id="clip0_711_94">
<rect x="419.742" y="460.482" width="1049.57" height="302" rx="18" transform="rotate(-7.67947 419.742 460.482)" fill="white"/>
</clipPath>
</defs>
</svg>
