<svg width="1920" height="1080" viewBox="0 0 1920 1080" fill="none" xmlns="http://www.w3.org/2000/svg">
<rect width="1920" height="1080" fill="#DDDDDD"/>
<g filter="url(#filter0_d_711_106)">
<g clip-path="url(#clip0_711_106)">
<rect x="426.134" y="485.462" width="1044.01" height="249.005" rx="18" transform="rotate(-7.58198 426.134 485.462)" fill="white"/>
<path d="M521.521 622.072L515.397 576.063L531.785 573.882C540.426 572.732 547.341 577.879 548.504 586.616L548.513 586.679C549.675 595.416 544.364 602.32 535.724 603.471L525.074 604.888L527.26 621.309L521.521 622.072ZM530.998 579.179L521.815 580.401L524.395 599.787L533.578 598.564C540.146 597.69 543.461 593.582 542.654 587.524L542.646 587.46C541.84 581.402 537.566 578.304 530.998 579.179ZM558.411 617.162L553.997 584.002L559.545 583.264L560.292 588.876L560.419 588.859C561.026 584.884 563.573 582.079 567.304 581.582C568.26 581.455 569.11 581.504 569.565 581.508L570.283 586.897C569.815 586.797 568.614 586.794 567.275 586.973C562.97 587.546 560.564 590.916 561.234 595.954L563.959 616.424L558.411 617.162ZM590.699 613.513C581.166 614.782 574.539 608.882 573.152 598.456L573.147 598.424C571.781 588.158 576.71 580.33 585.765 579.125C594.82 577.92 601.231 583.913 602.555 593.861L602.827 595.901L578.946 599.08C579.982 605.887 584.274 609.371 590.173 608.586C594.382 608.026 597.067 605.527 597.646 602.562L597.703 602.262L603.155 601.536L603.134 601.864C602.78 607.492 597.937 612.55 590.699 613.513ZM586.386 584.039C581.572 584.68 578.247 588.465 578.464 594.731L596.606 592.316C595.207 585.948 591.233 583.394 586.386 584.039ZM622.296 609.307C614.485 610.347 609.235 606.99 607.776 601.148L607.706 600.866L613.254 600.127L613.36 600.438C614.471 603.664 617.185 605.283 621.713 604.68C626.209 604.081 628.636 601.844 628.238 598.847L628.233 598.815C627.915 596.423 626.493 595.25 622.608 594.826L617.177 594.251C610.728 593.584 607.313 591.086 606.676 586.303L606.672 586.271C605.913 580.564 610.379 575.848 617.553 574.894C624.823 573.926 630.011 577.551 631.164 583.044L631.251 583.454L625.958 584.159L625.896 583.94C625.021 580.779 622.282 578.969 618.169 579.517C614.151 580.052 611.923 582.327 612.314 585.261L612.318 585.293C612.619 587.557 614.326 588.919 618.111 589.324L623.542 589.899C630.454 590.634 633.23 592.958 633.858 597.677L633.862 597.709C634.634 603.512 629.694 608.323 622.296 609.307ZM652.714 605.259C644.902 606.298 639.653 602.941 638.194 597.1L638.124 596.817L643.672 596.078L643.778 596.389C644.889 599.616 647.603 601.234 652.131 600.631C656.626 600.033 659.054 597.795 658.655 594.798L658.651 594.766C658.333 592.375 656.911 591.201 653.025 590.777L647.595 590.202C641.146 589.535 637.731 587.037 637.094 582.254L637.09 582.223C636.33 576.515 640.797 571.8 647.971 570.845C655.241 569.877 660.428 573.502 661.581 578.995L661.668 579.405L656.376 580.11L656.314 579.891C655.439 576.73 652.699 574.92 648.586 575.468C644.569 576.003 642.341 578.279 642.731 581.212L642.736 581.244C643.037 583.508 644.743 584.871 648.529 585.275L653.96 585.85C660.872 586.585 663.647 588.909 664.275 593.628L664.28 593.66C665.052 599.463 660.111 604.274 652.714 605.259Z" fill="black"/>
<rect x="672.549" y="525.297" width="94" height="105" rx="18" transform="rotate(-7.57923 672.549 525.297)" fill="#DDDDDD"/>
<path d="M723.516 589.132L719.403 589.679L714.943 556.154L734.714 553.524L735.214 557.287L719.556 559.371L721.086 570.871L735.397 568.967L735.883 572.614L721.571 574.519L723.516 589.132Z" fill="black"/>
<path d="M805.402 584.934C799.312 585.745 795.95 583.402 795.106 577.057L792.428 556.938L787.581 557.583L786.97 552.992L791.817 552.347L790.624 543.387L796.363 542.623L797.556 551.583L803.869 550.742L804.48 555.334L798.167 556.174L800.841 576.261C801.312 579.8 803.006 580.581 805.971 580.186C806.64 580.097 807.265 579.916 807.739 579.821L808.338 584.317C807.649 584.506 806.486 584.79 805.402 584.934ZM827.116 582.044C817.901 583.271 810.86 577.426 809.456 566.872L809.447 566.809C808.042 556.255 813.349 548.832 822.5 547.613C831.651 546.395 838.743 552.136 840.152 562.722L840.16 562.785C841.569 573.371 836.266 580.826 827.116 582.044ZM826.494 577.13C832.329 576.353 835.52 571.321 834.485 563.541L834.476 563.477C833.441 555.697 829.02 551.743 823.154 552.524C817.383 553.292 814.091 558.305 815.122 566.053L815.131 566.117C816.171 573.929 820.627 577.911 826.494 577.13ZM872.232 576.039C866.142 576.85 862.78 574.506 861.935 568.161L859.257 548.042L854.411 548.688L853.8 544.096L858.646 543.451L857.454 534.492L863.193 533.728L864.385 542.687L870.698 541.847L871.31 546.438L864.996 547.279L867.67 567.366C868.141 570.905 869.835 571.685 872.8 571.291C873.47 571.201 874.095 571.021 874.569 570.925L875.167 575.421C874.479 575.61 873.316 575.895 872.232 576.039ZM893.945 573.149C884.731 574.375 877.69 568.531 876.285 557.977L876.277 557.913C874.872 547.359 880.179 539.936 889.33 538.718C898.48 537.5 905.572 543.24 906.981 553.826L906.99 553.89C908.399 564.475 903.096 571.931 893.945 573.149ZM893.323 568.234C899.158 567.458 902.35 562.425 901.314 554.645L901.306 554.581C900.27 546.802 895.85 542.847 889.983 543.628C884.212 544.396 880.921 549.41 881.952 557.158L881.96 557.221C883 565.033 887.457 569.015 893.323 568.234ZM930.408 579.652C922.213 580.743 916.535 577.573 914.797 572.807L914.695 572.528L920.275 571.786L920.44 572.056C921.811 574.307 925.163 575.353 929.69 574.751C935.525 573.974 938.412 570.312 937.729 565.179L937.165 560.938L937.037 560.955C935.548 564.885 932.036 567.754 927.286 568.386C918.932 569.498 912.329 563.53 910.95 553.168L910.945 553.136C909.575 542.837 914.454 535.374 922.872 534.253C927.559 533.629 931.597 535.688 934.13 539.115L934.257 539.098L933.511 533.486L939.058 532.748L943.349 564.983C944.372 572.667 939.399 578.456 930.408 579.652ZM927.844 563.315C933.487 562.564 936.672 557.24 935.692 549.875L935.688 549.843C934.716 542.541 930.221 538.272 924.61 539.019C918.711 539.804 915.641 545.015 916.621 552.381L916.625 552.413C917.627 559.937 921.945 564.1 927.844 563.315ZM966.246 574.882C958.051 575.973 952.373 572.802 950.635 568.037L950.533 567.758L956.113 567.015L956.278 567.285C957.649 569.537 961.001 570.583 965.528 569.98C971.363 569.204 974.25 565.542 973.567 560.409L973.003 556.168L972.875 556.185C971.386 560.115 967.874 562.984 963.124 563.616C954.77 564.728 948.167 558.76 946.788 548.398L946.783 548.366C945.413 538.067 950.292 530.603 958.71 529.483C963.397 528.859 967.435 530.917 969.968 534.344L970.095 534.327L969.349 528.716L974.896 527.977L979.187 560.212C980.21 567.896 975.237 573.685 966.246 574.882ZM963.682 558.545C969.325 557.793 972.51 552.47 971.53 545.104L971.526 545.072C970.554 537.771 966.059 533.502 960.448 534.249C954.549 535.034 951.479 540.245 952.459 547.61L952.463 547.642C953.465 555.167 957.783 559.33 963.682 558.545ZM986.771 560.144L980.647 514.135L986.195 513.396L992.319 559.405L986.771 560.144ZM1013.54 557.229C1004.01 558.498 997.384 552.598 995.996 542.172L995.992 542.14C994.625 531.873 999.554 524.046 1008.61 522.841C1017.66 521.636 1024.08 527.629 1025.4 537.577L1025.67 539.617L1001.79 542.796C1002.83 549.602 1007.12 553.087 1013.02 552.302C1017.23 551.742 1019.91 549.243 1020.49 546.278L1020.55 545.978L1026 545.252L1025.98 545.58C1025.62 551.208 1020.78 556.266 1013.54 557.229ZM1009.23 527.755C1004.42 528.396 1001.09 532.181 1001.31 538.447L1019.45 536.032C1018.05 529.664 1014.08 527.11 1009.23 527.755ZM1057.54 551.372C1051.45 552.183 1048.09 549.84 1047.25 543.495L1044.57 523.376L1039.72 524.021L1039.11 519.43L1043.96 518.785L1042.77 509.825L1048.5 509.061L1049.7 518.021L1056.01 517.18L1056.62 521.772L1050.31 522.612L1052.98 542.699C1053.45 546.238 1055.15 547.019 1058.11 546.624C1058.78 546.535 1059.41 546.354 1059.88 546.259L1060.48 550.755C1059.79 550.944 1058.63 551.228 1057.54 551.372ZM1066.67 549.508L1060.55 503.499L1066.1 502.761L1068.51 520.903L1068.64 520.886C1069.93 516.918 1073.24 514.238 1078.18 513.58C1085.23 512.642 1090.77 517.454 1091.84 525.489L1094.54 545.799L1088.99 546.537L1086.42 527.184C1085.62 521.189 1082.09 518.058 1076.92 518.745C1071.79 519.428 1068.89 523.772 1069.64 529.416L1072.22 548.77L1066.67 549.508ZM1115.32 543.682C1105.78 544.951 1099.16 539.051 1097.77 528.625L1097.77 528.593C1096.4 518.326 1101.33 510.499 1110.38 509.294C1119.44 508.088 1125.85 514.082 1127.17 524.03L1127.45 526.07L1103.56 529.249C1104.6 536.055 1108.89 539.54 1114.79 538.755C1119 538.195 1121.69 535.696 1122.26 532.731L1122.32 532.431L1127.77 531.705L1127.75 532.033C1127.4 537.661 1122.56 542.719 1115.32 543.682ZM1111.01 514.208C1106.19 514.849 1102.87 518.634 1103.08 524.9L1121.23 522.485C1119.83 516.117 1115.85 513.563 1111.01 514.208ZM1150.24 538.384L1146.44 509.816L1141.82 510.432L1141.2 505.84L1145.83 505.225L1145.28 501.144C1144.44 494.767 1147 491.343 1153.12 490.528C1154.36 490.363 1155.68 490.284 1156.53 490.301L1157.13 494.797C1156.45 494.791 1155.58 494.873 1154.72 494.988C1151.66 495.395 1150.34 497.161 1150.77 500.445L1151.31 504.495L1158.14 503.587L1158.75 508.178L1151.99 509.078L1155.79 537.646L1150.24 538.384ZM1179.69 535.113C1172.42 536.081 1167.59 531.922 1166.58 524.366L1163.72 502.844L1169.26 502.105L1172 522.639C1172.71 528.027 1175.63 530.657 1180.73 529.978C1185.96 529.282 1188.87 525.098 1188.12 519.454L1185.52 499.941L1191.07 499.202L1195.49 532.362L1189.94 533.101L1189.31 528.382L1189.18 528.399C1187.81 531.729 1184.73 534.443 1179.69 535.113ZM1203.01 531.361L1196.89 485.351L1202.43 484.613L1208.56 530.622L1203.01 531.361ZM1216.34 529.587L1210.21 483.577L1215.76 482.839L1221.89 528.848L1216.34 529.587ZM1241.23 526.922C1233.42 527.962 1228.17 524.605 1226.71 518.763L1226.64 518.481L1232.19 517.742L1232.29 518.052C1233.4 521.279 1236.12 522.897 1240.65 522.295C1245.14 521.696 1247.57 519.459 1247.17 516.462L1247.17 516.43C1246.85 514.038 1245.43 512.865 1241.54 512.441L1236.11 511.866C1229.66 511.199 1226.25 508.701 1225.61 503.918L1225.61 503.886C1224.85 498.179 1229.31 493.463 1236.49 492.508C1243.76 491.541 1248.94 495.166 1250.1 500.659L1250.18 501.069L1244.89 501.774L1244.83 501.555C1243.95 498.394 1241.21 496.584 1237.1 497.132C1233.08 497.666 1230.86 499.942 1231.25 502.876L1231.25 502.908C1231.55 505.171 1233.26 506.534 1237.04 506.939L1242.47 507.514C1249.39 508.249 1252.16 510.573 1252.79 515.292L1252.79 515.324C1253.57 521.127 1248.63 525.938 1241.23 526.922ZM1273.62 522.61C1264.22 523.862 1257.36 517.96 1255.96 507.407L1255.96 507.375C1254.56 496.917 1259.76 489.41 1268.98 488.184C1277.23 487.085 1282.84 491.919 1284.3 497.501L1284.37 497.752L1278.95 498.474L1278.85 498.227C1277.58 495.021 1274.51 492.445 1269.63 493.094C1263.86 493.862 1260.64 499.158 1261.64 506.683L1261.64 506.715C1262.67 514.431 1267.23 518.464 1272.97 517.7C1277.5 517.097 1280.06 514.161 1280.49 510.339L1280.52 510.075L1285.97 509.35L1285.97 509.577C1285.92 516.009 1281.12 521.613 1273.62 522.61ZM1292.51 519.447L1288.1 486.288L1293.64 485.549L1294.39 491.161L1294.52 491.144C1295.13 487.169 1297.67 484.364 1301.4 483.868C1302.36 483.74 1303.21 483.789 1303.66 483.794L1304.38 489.182C1303.91 489.082 1302.71 489.08 1301.37 489.258C1297.07 489.831 1294.66 493.201 1295.33 498.239L1298.06 518.709L1292.51 519.447ZM1324.8 515.799C1315.26 517.068 1308.64 511.168 1307.25 500.742L1307.25 500.71C1305.88 490.443 1310.81 482.616 1319.86 481.41C1328.92 480.205 1335.33 486.198 1336.65 496.146L1336.93 498.187L1313.04 501.366C1314.08 508.172 1318.37 511.657 1324.27 510.871C1328.48 510.311 1331.17 507.812 1331.74 504.847L1331.8 504.547L1337.25 503.822L1337.23 504.149C1336.88 509.777 1332.04 514.835 1324.8 515.799ZM1320.49 486.325C1315.67 486.965 1312.35 490.75 1312.56 497.017L1330.71 494.602C1329.31 488.233 1325.33 485.68 1320.49 486.325ZM1358.28 511.342C1348.74 512.611 1342.12 506.711 1340.73 496.285L1340.72 496.253C1339.36 485.987 1344.29 478.159 1353.34 476.954C1362.4 475.749 1368.81 481.742 1370.13 491.69L1370.4 493.73L1346.52 496.909C1347.56 503.716 1351.85 507.2 1357.75 506.415C1361.96 505.855 1364.64 503.356 1365.22 500.391L1365.28 500.091L1370.73 499.365L1370.71 499.693C1370.36 505.321 1365.51 510.379 1358.28 511.342ZM1353.96 481.868C1349.15 482.509 1345.82 486.294 1346.04 492.56L1364.18 490.145C1362.78 483.777 1358.81 481.223 1353.96 481.868ZM1378.02 508.065L1373.61 474.905L1379.16 474.167L1379.79 478.886L1379.91 478.869C1381.29 475.538 1384.37 472.824 1389.4 472.154C1396.67 471.186 1401.51 475.345 1402.52 482.902L1405.38 504.423L1399.83 505.162L1397.1 484.628C1396.38 479.24 1393.47 476.61 1388.37 477.289C1383.14 477.985 1380.22 482.17 1380.97 487.813L1383.57 507.326L1378.02 508.065Z" fill="black"/>
</g>
</g>
<defs>
<filter id="filter0_d_711_106" x="423.134" y="347.711" width="1073.73" height="390.578" filterUnits="userSpaceOnUse" color-interpolation-filters="sRGB">
<feFlood flood-opacity="0" result="BackgroundImageFix"/>
<feColorMatrix in="SourceAlpha" type="matrix" values="0 0 0 0 0 0 0 0 0 0 0 0 0 0 0 0 0 0 127 0" result="hardAlpha"/>
<feOffset dy="3"/>
<feGaussianBlur stdDeviation="1.5"/>
<feComposite in2="hardAlpha" operator="out"/>
<feColorMatrix type="matrix" values="0 0 0 0 0 0 0 0 0 0 0 0 0 0 0 0 0 0 0.25 0"/>
<feBlend mode="normal" in2="BackgroundImageFix" result="effect1_dropShadow_711_106"/>
<feBlend mode="normal" in="SourceGraphic" in2="effect1_dropShadow_711_106" result="shape"/>
</filter>
<clipPath id="clip0_711_106">
<rect x="426.134" y="485.462" width="1044.01" height="249.005" rx="18" transform="rotate(-7.58198 426.134 485.462)" fill="white"/>
</clipPath>
</defs>
</svg>
