<svg width="1920" height="1080" viewBox="0 0 1920 1080" fill="none" xmlns="http://www.w3.org/2000/svg">
<rect width="1920" height="1080" fill="#DDDDDD"/>
<g filter="url(#filter0_d_711_187)">
<g clip-path="url(#clip0_711_187)">
<rect x="510.816" y="379.033" width="935" height="191" rx="18" transform="rotate(8.17 510.816 379.033)" fill="white"/>
<path d="M565.995 507.175L589.689 463.685L595.356 464.499L605.826 512.893L599.808 512.029L597.048 498.212L578.549 495.556L572.013 508.038L565.995 507.175ZM591.472 470.96L581 490.936L596.028 493.094L591.599 470.979L591.472 470.96ZM610.252 513.528L615.006 480.416L620.546 481.211L619.869 485.923L619.996 485.941C622.223 483.109 625.922 481.333 630.953 482.055C638.212 483.097 641.738 488.413 640.655 495.959L637.57 517.45L632.03 516.655L634.973 496.151C635.746 490.77 633.656 487.448 628.561 486.716C623.34 485.967 619.398 489.203 618.589 494.838L615.792 514.324L610.252 513.528ZM656.996 520.889C648.526 519.673 643.892 512.119 645.391 501.676L645.396 501.644C646.895 491.201 653.527 485.296 661.837 486.489C666.517 487.161 670.031 490.07 671.552 494.188L671.68 494.206L674.317 475.835L679.857 476.631L673.261 522.574L667.721 521.779L668.526 516.175L668.398 516.157C665.776 519.713 661.74 521.57 656.996 520.889ZM658.782 516.141C664.386 516.946 669.065 512.646 670.13 505.227L670.135 505.195C671.195 497.809 667.883 492.361 662.311 491.562C656.452 490.72 652.146 494.912 651.063 502.457L651.058 502.489C649.966 510.099 652.924 515.3 658.782 516.141ZM704.786 527.75C698.705 526.877 696.105 523.709 697.015 517.373L699.899 497.283L695.059 496.588L695.718 492.003L700.557 492.698L701.842 483.751L707.573 484.574L706.288 493.521L712.592 494.426L711.934 499.011L705.63 498.106L702.75 518.164C702.243 521.698 703.661 522.909 706.622 523.335C707.291 523.431 707.941 523.426 708.424 523.463L707.779 527.953C707.065 527.947 705.869 527.906 704.786 527.75ZM714.079 528.435L720.675 482.491L726.215 483.286L723.614 501.403L723.741 501.421C726.059 497.952 729.972 496.271 734.907 496.98C741.944 497.99 745.97 504.125 744.818 512.148L741.906 532.43L736.366 531.634L739.141 512.308C740 506.322 737.451 502.349 732.293 501.609C727.167 500.873 723.203 504.268 722.394 509.904L719.619 529.23L714.079 528.435ZM758.53 535.466C751.94 534.52 748.085 529.905 748.949 523.887L748.959 523.824C749.768 518.188 754.669 515.285 762.342 515.931L771.908 516.752L772.306 513.982C772.886 509.939 770.596 507.108 765.979 506.445C761.712 505.832 758.745 507.486 757.684 510.356L757.579 510.633L752.23 509.865L752.312 509.52C753.571 504.144 758.946 500.431 766.747 501.551C774.579 502.675 778.874 507.614 777.923 514.236L774.637 537.129L769.097 536.333L769.869 530.953L769.742 530.934C767.279 534.285 762.956 536.102 758.53 535.466ZM754.617 524.701C754.16 527.885 756.482 530.265 760.462 530.837C765.684 531.586 770.212 528.565 770.902 523.757L771.291 521.051L762.362 520.321C757.9 519.94 755.069 521.549 754.626 524.637L754.617 524.701ZM792.343 540.321C786.262 539.448 783.662 536.28 784.572 529.944L787.456 509.853L782.617 509.159L783.275 504.574L788.115 505.269L789.399 496.322L795.13 497.145L793.846 506.091L800.15 506.996L799.492 511.581L793.187 510.676L790.308 530.735C789.8 534.269 791.219 535.48 794.18 535.905C794.848 536.001 795.499 535.997 795.981 536.034L795.337 540.523C794.622 540.518 793.426 540.476 792.343 540.321ZM821.281 543.825L816.77 509.382L822.278 510.173L825.033 538.06L825.161 538.078L836.51 512.217L841.859 512.984L845.506 540.999L845.633 541.017L856.123 515.032L861.599 515.819L847.612 547.606L841.977 546.797L838.174 520.092L838.047 520.074L826.917 544.634L821.281 543.825ZM875.03 552.192C865.828 550.871 860.639 543.334 862.152 532.795L862.161 532.732C863.674 522.193 870.797 516.489 879.935 517.801C889.072 519.113 894.339 526.563 892.822 537.134L892.813 537.197C891.295 547.768 884.167 553.504 875.03 552.192ZM875.765 547.293C881.592 548.13 886.03 544.152 887.145 536.384L887.154 536.32C888.27 528.551 885.089 523.545 879.231 522.704C873.468 521.877 868.939 525.808 867.828 533.545L867.819 533.609C866.699 541.41 869.907 546.452 875.765 547.293ZM907.251 556.818C899.991 555.775 896.465 550.46 897.549 542.914L900.634 521.423L906.174 522.218L903.23 542.722C902.458 548.103 904.548 551.425 909.642 552.157C914.864 552.906 918.805 549.67 919.614 544.035L922.412 524.549L927.952 525.345L923.198 558.457L917.658 557.662L918.335 552.95L918.207 552.931C915.981 555.764 912.281 557.54 907.251 556.818ZM930.712 559.536L937.308 513.592L942.848 514.388L936.252 560.331L930.712 559.536ZM956.092 563.83C947.623 562.614 942.988 555.059 944.487 544.616L944.492 544.584C945.991 534.141 952.623 528.237 960.933 529.43C965.613 530.102 969.128 533.011 970.649 537.129L970.776 537.147L973.414 518.776L978.954 519.571L972.358 565.515L966.818 564.72L967.622 559.116L967.495 559.098C964.872 562.653 960.836 564.511 956.092 563.83ZM957.878 559.082C963.482 559.886 968.161 555.586 969.226 548.168L969.231 548.136C970.291 540.749 966.979 535.302 961.407 534.502C955.549 533.661 951.243 537.852 950.159 545.398L950.155 545.43C949.062 553.039 952.02 558.241 957.878 559.082ZM1009.58 571.509C1004.84 570.828 1001.49 567.91 999.971 563.76L999.843 563.742L999.039 569.346L993.499 568.55L1000.09 522.606L1005.63 523.402L1003 541.773L1003.12 541.791C1005.74 538.268 1009.93 536.465 1014.61 537.137C1022.92 538.33 1027.63 545.861 1026.13 556.305L1026.12 556.336C1024.62 566.78 1018.05 572.725 1009.58 571.509ZM1009.2 566.45C1015.06 567.292 1019.36 563.132 1020.46 555.523L1020.46 555.491C1021.54 547.945 1018.59 542.712 1012.73 541.871C1007.16 541.071 1002.45 545.366 1001.39 552.753L1001.38 552.785C1000.32 560.203 1003.6 565.646 1009.2 566.45ZM1042.85 576.286C1033.33 574.919 1028.56 567.442 1030.05 557.031L1030.06 556.999C1031.53 546.747 1038.4 540.551 1047.44 541.849C1056.48 543.148 1061.03 550.656 1059.6 560.59L1059.31 562.628L1035.46 559.204C1034.61 566.036 1037.79 570.555 1043.68 571.401C1047.89 572.004 1051.15 570.328 1052.51 567.632L1052.65 567.359L1058.09 568.14L1057.98 568.45C1056.12 573.77 1050.08 577.324 1042.85 576.286ZM1046.7 546.748C1041.9 546.058 1037.67 548.798 1036.18 554.888L1054.29 557.489C1054.68 550.979 1051.54 547.443 1046.7 546.748ZM1084.8 542.144C1082.89 541.87 1081.55 540.085 1081.83 538.175C1082.11 536.233 1083.89 534.929 1085.8 535.203C1087.74 535.482 1089.05 537.229 1088.77 539.172C1088.49 541.082 1086.74 542.423 1084.8 542.144ZM1076.47 580.462L1081.23 547.35L1086.77 548.145L1082.01 581.258L1076.47 580.462ZM1100.23 584.523C1094.15 583.65 1091.55 580.482 1092.46 574.146L1095.34 554.056L1090.5 553.361L1091.16 548.776L1096 549.471L1097.28 540.524L1103.01 541.347L1101.73 550.294L1108.03 551.199L1107.38 555.783L1101.07 554.878L1098.19 574.937C1097.68 578.471 1099.1 579.682 1102.06 580.107C1102.73 580.203 1103.38 580.199 1103.86 580.236L1103.22 584.725C1102.51 584.72 1101.31 584.678 1100.23 584.523ZM1112.58 586.101C1110.54 585.808 1109.18 583.988 1109.47 581.95C1109.76 579.912 1111.58 578.549 1113.62 578.842C1115.66 579.134 1117.02 580.955 1116.73 582.992C1116.43 585.03 1114.61 586.393 1112.58 586.101ZM1145.91 590.432L1151.77 549.646L1137.28 547.566L1138.02 542.408L1172.73 547.391L1171.99 552.549L1157.5 550.469L1151.64 591.255L1145.91 590.432ZM1171.61 594.121L1178.2 548.177L1183.74 548.972L1181.14 567.089L1181.27 567.107C1183.59 563.638 1187.5 561.958 1192.44 562.666C1199.47 563.676 1203.5 569.811 1202.35 577.834L1199.43 598.116L1193.89 597.321L1196.67 577.994C1197.53 572.008 1194.98 568.035 1189.82 567.295C1184.69 566.559 1180.73 569.954 1179.92 575.59L1177.15 594.916L1171.61 594.121ZM1216.06 601.152C1209.47 600.206 1205.61 595.591 1206.48 589.573L1206.49 589.51C1207.3 583.874 1212.2 580.971 1219.87 581.618L1229.44 582.439L1229.83 579.669C1230.41 575.625 1228.12 572.794 1223.51 572.131C1219.24 571.519 1216.27 573.172 1215.21 576.042L1215.11 576.319L1209.76 575.551L1209.84 575.206C1211.1 569.83 1216.47 566.117 1224.27 567.237C1232.11 568.362 1236.4 573.3 1235.45 579.923L1232.16 602.815L1226.62 602.02L1227.4 596.639L1227.27 596.62C1224.81 599.971 1220.48 601.788 1216.06 601.152ZM1212.14 590.387C1211.69 593.571 1214.01 595.952 1217.99 596.523C1223.21 597.273 1227.74 594.251 1228.43 589.443L1228.82 586.737L1219.89 586.007C1215.43 585.627 1212.6 587.235 1212.15 590.323L1212.14 590.387ZM1239.2 603.825L1243.95 570.712L1249.49 571.508L1248.82 576.22L1248.95 576.238C1251.17 573.406 1254.87 571.63 1259.9 572.352C1267.16 573.394 1270.69 578.71 1269.6 586.256L1266.52 607.747L1260.98 606.952L1263.92 586.447C1264.7 581.067 1262.61 577.744 1257.51 577.013C1252.29 576.263 1248.35 579.499 1247.54 585.135L1244.74 604.621L1239.2 603.825ZM1274.03 608.826L1280.63 562.882L1286.17 563.677L1282.23 591.123L1282.36 591.141L1298.97 578.611L1305.69 579.576L1289.28 591.81L1301.38 612.752L1294.95 611.829L1284.88 594.623L1281.36 597.14L1279.57 609.621L1274.03 608.826ZM1315.62 615.446C1307.82 614.326 1303.68 609.67 1303.86 603.652L1303.87 603.361L1309.41 604.156L1309.43 604.484C1309.62 607.891 1311.79 610.185 1316.31 610.834C1320.8 611.479 1323.75 609.984 1324.18 606.991L1324.18 606.959C1324.52 604.571 1323.47 603.056 1319.85 601.593L1314.78 599.565C1308.75 597.173 1306.14 593.841 1306.83 589.066L1306.84 589.034C1307.65 583.335 1313.23 580.009 1320.4 581.037C1327.66 582.079 1331.66 586.977 1331.28 592.576L1331.26 592.995L1325.97 592.236L1325.97 592.008C1325.99 588.729 1323.84 586.243 1319.73 585.654C1315.72 585.078 1312.96 586.663 1312.54 589.593L1312.53 589.625C1312.21 591.885 1313.48 593.66 1317.02 595.077L1322.09 597.105C1328.54 599.689 1330.58 602.679 1329.9 607.391L1329.9 607.423C1329.07 613.218 1323.01 616.507 1315.62 615.446ZM1339.14 602.607L1343.16 571.86L1348.89 572.682L1344.1 603.32L1339.14 602.607ZM1339.38 618.533C1337.35 618.241 1335.98 616.42 1336.28 614.382C1336.57 612.313 1338.39 610.981 1340.43 611.274C1342.5 611.571 1343.83 613.355 1343.54 615.425C1343.24 617.462 1341.45 618.83 1339.38 618.533Z" fill="black"/>
</g>
</g>
<defs>
<filter id="filter0_d_711_187" x="480.673" y="379.033" width="958.654" height="327.935" filterUnits="userSpaceOnUse" color-interpolation-filters="sRGB">
<feFlood flood-opacity="0" result="BackgroundImageFix"/>
<feColorMatrix in="SourceAlpha" type="matrix" values="0 0 0 0 0 0 0 0 0 0 0 0 0 0 0 0 0 0 127 0" result="hardAlpha"/>
<feOffset dy="3"/>
<feGaussianBlur stdDeviation="1.5"/>
<feComposite in2="hardAlpha" operator="out"/>
<feColorMatrix type="matrix" values="0 0 0 0 0 0 0 0 0 0 0 0 0 0 0 0 0 0 0.25 0"/>
<feBlend mode="normal" in2="BackgroundImageFix" result="effect1_dropShadow_711_187"/>
<feBlend mode="normal" in="SourceGraphic" in2="effect1_dropShadow_711_187" result="shape"/>
</filter>
<clipPath id="clip0_711_187">
<rect x="510.816" y="379.033" width="935" height="191" rx="18" transform="rotate(8.17 510.816 379.033)" fill="white"/>
</clipPath>
</defs>
</svg>
