<svg width="1920" height="1080" viewBox="0 0 1920 1080" fill="none" xmlns="http://www.w3.org/2000/svg">
<rect width="1920" height="1080" fill="#DDDDDD"/>
<g filter="url(#filter0_d_711_99)">
<g clip-path="url(#clip0_711_99)">
<rect x="511.824" y="393.048" width="918.005" height="217.009" rx="18" transform="rotate(4.85366 511.824 393.048)" fill="white"/>
<mask id="path-2-inside-1_711_99" fill="white">
<path d="M577.208 474.071C577.777 467.374 578.061 464.026 579.582 461.579C580.919 459.426 582.904 457.753 585.251 456.798C587.919 455.712 591.268 455.996 597.964 456.565L745.034 469.061C751.731 469.63 755.079 469.914 757.526 471.435C759.678 472.772 761.352 474.757 762.307 477.104C763.393 479.772 763.109 483.121 762.54 489.817L756.902 556.178C756.333 562.875 756.048 566.223 754.528 568.67C753.19 570.822 751.205 572.496 748.858 573.451C746.19 574.537 742.842 574.253 736.145 573.684L589.075 561.188C582.378 560.619 579.03 560.335 576.583 558.814C574.431 557.477 572.757 555.492 571.802 553.145C570.716 550.476 571 547.128 571.569 540.432L577.208 474.071Z"/>
</mask>
<path d="M577.208 474.071C577.777 467.374 578.061 464.026 579.582 461.579C580.919 459.426 582.904 457.753 585.251 456.798C587.919 455.712 591.268 455.996 597.964 456.565L745.034 469.061C751.731 469.63 755.079 469.914 757.526 471.435C759.678 472.772 761.352 474.757 762.307 477.104C763.393 479.772 763.109 483.121 762.54 489.817L756.902 556.178C756.333 562.875 756.048 566.223 754.528 568.67C753.19 570.822 751.205 572.496 748.858 573.451C746.19 574.537 742.842 574.253 736.145 573.684L589.075 561.188C582.378 560.619 579.03 560.335 576.583 558.814C574.431 557.477 572.757 555.492 571.802 553.145C570.716 550.476 571 547.128 571.569 540.432L577.208 474.071Z" fill="#F6F8FA"/>
<path d="M575.824 466.727C576.479 459.023 583.255 453.308 590.959 453.963L752.378 467.677C760.082 468.332 765.797 475.108 765.142 482.812L761.157 482.474C761.624 476.971 757.542 472.131 752.039 471.663L590.621 457.948C585.118 457.481 580.277 461.563 579.81 467.066L575.824 466.727ZM757.946 567.507C757.292 575.211 750.515 580.926 742.811 580.272L581.393 566.557C573.689 565.902 567.974 559.126 568.628 551.422L572.953 547.775C572.672 551.077 576.906 554.133 582.409 554.6L743.827 568.315C749.33 568.782 754.019 566.485 754.299 563.183L757.946 567.507ZM581.393 566.557C573.689 565.902 567.974 559.126 568.628 551.422L575.824 466.727C576.479 459.023 583.255 453.308 590.959 453.963L590.621 457.948C585.118 457.481 580.277 461.563 579.81 467.066L572.953 547.775C572.672 551.077 576.906 554.133 582.409 554.6L581.393 566.557ZM752.378 467.677C760.082 468.332 765.797 475.108 765.142 482.812L757.946 567.507C757.292 575.211 750.515 580.926 742.811 580.272L743.827 568.315C749.33 568.782 754.019 566.485 754.299 563.183L761.157 482.474C761.624 476.971 757.542 472.131 752.039 471.663L752.378 467.677Z" fill="#D1D9E0" mask="url(#path-2-inside-1_711_99)"/>
<path d="M637.572 530.183L633.462 529.833L636.004 499.918L625.822 499.053L626.143 495.269L650.618 497.349L650.296 501.132L640.114 500.267L637.572 530.183ZM662.476 532.745C657.642 532.335 654.677 529.025 655.068 524.424C655.449 519.94 658.898 517.552 664.692 517.738L671.681 517.979L671.875 515.691C672.145 512.515 670.356 510.599 666.829 510.299C663.91 510.051 661.75 511.114 660.912 513.23L657.012 512.899C657.824 508.875 661.983 506.429 667.168 506.87C673.123 507.376 676.275 510.702 675.826 515.979L674.352 533.331L670.569 533.01L670.892 529.203L670.495 529.169C669.051 531.775 666.166 533.059 662.476 532.745ZM663.916 529.363C667.746 529.688 670.881 527.391 671.169 524.005L671.423 521.015L664.882 520.765C661.318 520.627 659.321 521.986 659.097 524.625C658.87 527.288 660.717 529.091 663.916 529.363ZM696.2 535.587C692.581 535.28 690.045 533.559 688.976 530.645L688.532 530.608L688.202 534.484L684.302 534.153L687.301 498.866L691.341 499.209L690.162 513.081L690.582 513.117C691.94 510.433 694.758 509.097 698.425 509.408C704.286 509.906 707.757 514.458 707.205 520.951L706.805 525.668C706.251 532.184 702.062 536.085 696.2 535.587ZM695.34 531.868C699.544 532.225 702.462 529.439 702.859 524.768L703.168 521.125C703.565 516.454 701.157 513.239 696.953 512.882C692.796 512.529 689.88 515.292 689.483 519.962L689.174 523.606C688.775 528.3 691.183 531.515 695.34 531.868Z" fill="black"/>
<path d="M790.448 549.833C781.186 549.046 775.569 541.822 776.47 531.214L776.475 531.15C777.376 520.541 784.157 514.435 793.355 515.216C802.554 515.997 808.243 523.13 807.339 533.77L807.334 533.835C806.43 544.475 799.647 550.614 790.448 549.833ZM790.899 544.9C796.765 545.398 800.965 541.17 801.629 533.35L801.634 533.286C802.299 525.466 798.834 520.652 792.936 520.151C787.135 519.659 782.841 523.846 782.18 531.634L782.175 531.698C781.508 539.55 785.002 544.399 790.899 544.9ZM810.607 562.197L814.39 517.647L819.967 518.121L819.488 523.762L819.616 523.773C822.029 520.072 825.95 517.984 830.726 518.389C839.251 519.113 844.315 526.387 843.423 536.899L843.42 536.931C842.527 547.444 836.248 553.722 827.883 553.011C823.171 552.611 819.495 549.91 817.738 545.887L817.61 545.876L816.184 562.671L810.607 562.197ZM827.116 547.975C833.013 548.476 837.07 544.043 837.715 536.447L837.718 536.415C838.368 528.755 835.114 523.733 829.217 523.232C823.576 522.753 819.154 527.317 818.52 534.784L818.517 534.816C817.885 542.252 821.507 547.499 827.116 547.975ZM861.311 555.85C851.728 555.036 846.528 547.848 847.418 537.367L847.421 537.335C848.297 527.015 854.796 520.433 863.898 521.206C873 521.979 877.971 529.212 877.121 539.212L876.947 541.263L852.942 539.225C852.487 546.094 855.929 550.422 861.859 550.925C866.089 551.284 869.249 549.422 870.453 546.651L870.574 546.371L876.054 546.836L875.963 547.152C874.405 552.572 868.587 556.468 861.311 555.85ZM863.447 526.139C858.607 525.728 854.545 528.708 853.408 534.874L871.645 536.423C871.649 529.902 868.318 526.553 863.447 526.139ZM881.301 556.902L884.131 523.57L889.708 524.043L889.305 528.787L889.433 528.797C891.492 525.841 895.083 523.854 900.147 524.284C907.454 524.904 911.282 530.007 910.637 537.603L908.8 559.237L903.223 558.763L904.976 538.123C905.436 532.707 903.157 529.511 898.029 529.075C892.773 528.629 889.025 532.088 888.543 537.761L886.878 557.375L881.301 556.902ZM927.687 561.486C919.835 560.82 915.432 556.41 915.265 550.392L915.257 550.101L920.834 550.574L920.871 550.9C921.261 554.291 923.563 556.455 928.114 556.842C932.633 557.226 935.486 555.563 935.742 552.55L935.744 552.518C935.948 550.115 934.813 548.662 931.11 547.412L925.93 545.681C919.776 543.641 916.979 540.466 917.387 535.658L917.39 535.626C917.877 529.889 923.255 526.246 930.466 526.859C937.774 527.479 942.059 532.136 942.002 537.748L941.999 538.168L936.678 537.716L936.665 537.489C936.492 534.214 934.206 531.857 930.072 531.506C926.033 531.163 923.367 532.906 923.117 535.854L923.114 535.886C922.921 538.162 924.294 539.86 927.904 541.071L933.083 542.802C939.675 545.008 941.885 547.875 941.482 552.618L941.479 552.65C940.984 558.483 935.123 562.118 927.687 561.486ZM970.731 565.141C964.609 564.622 961.83 561.609 962.372 555.231L964.089 535.008L959.218 534.594L959.609 529.979L964.481 530.393L965.246 521.386L971.015 521.876L970.25 530.882L976.596 531.421L976.204 536.037L969.858 535.498L968.144 555.689C967.842 559.247 969.328 560.374 972.308 560.627C972.981 560.684 973.631 560.642 974.114 560.651L973.73 565.17C973.017 565.206 971.82 565.234 970.731 565.141ZM980.047 565.287L983.975 519.038L989.551 519.512L988.003 537.749L988.131 537.759C990.244 534.162 994.054 532.258 999.022 532.68C1006.1 533.281 1010.48 539.173 1009.79 547.25L1008.06 567.666L1002.48 567.192L1004.13 547.738C1004.65 541.712 1001.87 537.893 996.679 537.452C991.519 537.014 987.758 540.633 987.276 546.306L985.624 565.76L980.047 565.287ZM1028.81 570.073C1019.22 569.259 1014.02 562.071 1014.91 551.59L1014.91 551.558C1015.79 541.238 1022.29 534.656 1031.39 535.429C1040.49 536.202 1045.46 543.435 1044.62 553.435L1044.44 555.486L1020.44 553.447C1019.98 560.317 1023.42 564.645 1029.35 565.148C1033.58 565.507 1036.74 563.645 1037.95 560.874L1038.07 560.594L1043.55 561.059L1043.46 561.374C1041.9 566.794 1036.08 570.691 1028.81 570.073ZM1030.94 540.362C1026.1 539.951 1022.04 542.931 1020.9 549.097L1039.14 550.645C1039.14 544.125 1035.81 540.775 1030.94 540.362ZM1062.26 572.268L1065.09 538.936L1070.66 539.409L1070.26 544.153L1070.39 544.163C1072.45 541.207 1076.04 539.22 1081.1 539.65C1088.41 540.27 1092.24 545.373 1091.59 552.969L1089.76 574.603L1084.18 574.129L1085.93 553.489C1086.39 548.072 1084.11 544.877 1078.98 544.441C1073.73 543.995 1069.98 547.454 1069.5 553.127L1067.83 572.741L1062.26 572.268ZM1106.56 576.675C1099.92 576.112 1095.81 571.727 1096.32 565.67L1096.33 565.606C1096.81 559.933 1101.54 556.751 1109.23 556.953L1118.83 557.219L1119.07 554.431C1119.41 550.36 1116.96 547.666 1112.32 547.272C1108.02 546.907 1105.16 548.73 1104.26 551.656L1104.17 551.939L1098.79 551.482L1098.85 551.132C1099.8 545.692 1104.95 541.675 1112.8 542.341C1120.68 543.011 1125.26 547.693 1124.69 554.359L1122.73 577.403L1117.16 576.93L1117.62 571.513L1117.49 571.502C1115.22 574.99 1111.01 577.054 1106.56 576.675ZM1102.03 566.154C1101.76 569.359 1104.21 571.602 1108.22 571.942C1113.48 572.388 1117.82 569.11 1118.23 564.27L1118.46 561.546L1109.51 561.334C1105.03 561.212 1102.3 562.981 1102.03 566.09L1102.03 566.154ZM1139.21 578.802L1129.76 544.428L1135.63 544.926L1142.5 573.11L1142.63 573.121L1154.19 546.501L1159.99 546.994L1144.91 579.287L1139.21 578.802ZM1168 541.993C1166.08 541.829 1164.64 540.126 1164.8 538.203C1164.97 536.248 1166.67 534.843 1168.59 535.006C1170.55 535.172 1171.95 536.841 1171.79 538.796C1171.62 540.719 1169.95 542.159 1168 541.993ZM1161.9 580.729L1164.73 547.397L1170.31 547.87L1167.48 581.203L1161.9 580.729ZM1188.17 594.904C1179.93 594.204 1175.07 589.885 1174.4 584.857L1174.36 584.563L1179.97 585.039L1180.07 585.339C1180.92 587.832 1183.97 589.576 1188.52 589.963C1194.39 590.461 1198 587.507 1198.43 582.346L1198.8 578.084L1198.67 578.073C1196.37 581.59 1192.32 583.635 1187.55 583.23C1179.15 582.516 1173.99 575.267 1174.87 564.85L1174.87 564.818C1175.75 554.466 1182.12 548.228 1190.59 548.947C1195.3 549.347 1198.8 552.226 1200.53 556.118L1200.66 556.129L1201.14 550.489L1206.72 550.962L1203.97 583.365C1203.31 591.089 1197.21 595.671 1188.17 594.904ZM1189.18 578.397C1194.86 578.879 1199.11 574.366 1199.74 566.962L1199.74 566.93C1200.37 559.591 1196.9 554.454 1191.26 553.975C1185.33 553.471 1181.21 557.899 1180.58 565.303L1180.57 565.335C1179.93 572.899 1183.25 577.894 1189.18 578.397ZM1220.79 586.375C1214.15 585.812 1210.04 581.427 1210.55 575.37L1210.56 575.305C1211.04 569.633 1215.76 566.451 1223.46 566.652L1233.06 566.919L1233.3 564.13C1233.64 560.06 1231.19 557.366 1226.54 556.971C1222.25 556.607 1219.38 558.429 1218.49 561.356L1218.4 561.639L1213.02 561.181L1213.08 560.832C1214.02 555.392 1219.17 551.374 1227.03 552.041C1234.91 552.711 1239.48 557.392 1238.92 564.059L1236.96 587.103L1231.39 586.629L1231.85 581.213L1231.72 581.202C1229.45 584.69 1225.24 586.753 1220.79 586.375ZM1216.26 575.854C1215.98 579.059 1218.44 581.301 1222.45 581.642C1227.7 582.088 1232.05 578.809 1232.46 573.97L1232.69 571.245L1223.74 571.034C1219.26 570.912 1216.53 572.681 1216.26 575.79L1216.26 575.854ZM1254.82 589.265C1248.7 588.745 1245.92 585.733 1246.46 579.355L1248.18 559.132L1243.31 558.718L1243.7 554.103L1248.57 554.516L1249.34 545.51L1255.11 546L1254.34 555.006L1260.69 555.545L1260.3 560.16L1253.95 559.622L1252.24 579.813C1251.93 583.371 1253.42 584.498 1256.4 584.751C1257.07 584.808 1257.72 584.766 1258.21 584.775L1257.82 589.294C1257.11 589.33 1255.91 589.358 1254.82 589.265ZM1270.3 550.68C1268.38 550.517 1266.94 548.813 1267.11 546.89C1267.27 544.935 1268.97 543.53 1270.9 543.693C1272.85 543.859 1274.26 545.528 1274.09 547.483C1273.93 549.406 1272.26 550.846 1270.3 550.68ZM1264.2 589.416L1267.04 556.084L1272.61 556.558L1269.78 589.89L1264.2 589.416ZM1291.14 592.349C1281.87 591.562 1276.26 584.339 1277.16 573.73L1277.16 573.666C1278.06 563.057 1284.85 556.951 1294.04 557.732C1303.24 558.513 1308.93 565.646 1308.03 576.287L1308.02 576.351C1307.12 586.991 1300.33 593.13 1291.14 592.349ZM1291.59 587.416C1297.45 587.914 1301.65 583.687 1302.32 575.866L1302.32 575.802C1302.99 567.982 1299.52 563.168 1293.62 562.668C1287.82 562.175 1283.53 566.362 1282.87 574.15L1282.86 574.214C1282.2 582.067 1285.69 586.915 1291.59 587.416ZM1312.25 593.496L1315.08 560.164L1320.66 560.637L1320.25 565.381L1320.38 565.392C1322.44 562.435 1326.03 560.448 1331.09 560.878C1338.4 561.499 1342.23 566.601 1341.58 574.197L1339.75 595.831L1334.17 595.357L1335.92 574.717C1336.38 569.301 1334.1 566.105 1328.98 565.67C1323.72 565.223 1319.97 568.682 1319.49 574.355L1317.82 593.969L1312.25 593.496Z" fill="black"/>
</g>
</g>
<defs>
<filter id="filter0_d_711_99" x="490.463" y="393.048" width="939.074" height="299.904" filterUnits="userSpaceOnUse" color-interpolation-filters="sRGB">
<feFlood flood-opacity="0" result="BackgroundImageFix"/>
<feColorMatrix in="SourceAlpha" type="matrix" values="0 0 0 0 0 0 0 0 0 0 0 0 0 0 0 0 0 0 127 0" result="hardAlpha"/>
<feOffset dy="3"/>
<feGaussianBlur stdDeviation="1.5"/>
<feComposite in2="hardAlpha" operator="out"/>
<feColorMatrix type="matrix" values="0 0 0 0 0 0 0 0 0 0 0 0 0 0 0 0 0 0 0.25 0"/>
<feBlend mode="normal" in2="BackgroundImageFix" result="effect1_dropShadow_711_99"/>
<feBlend mode="normal" in="SourceGraphic" in2="effect1_dropShadow_711_99" result="shape"/>
</filter>
<clipPath id="clip0_711_99">
<rect x="511.824" y="393.048" width="918.005" height="217.009" rx="18" transform="rotate(4.85366 511.824 393.048)" fill="white"/>
</clipPath>
</defs>
</svg>
