<svg width="1920" height="1080" viewBox="0 0 1920 1080" fill="none" xmlns="http://www.w3.org/2000/svg">
<rect width="1920" height="1080" fill="#DDDDDD"/>
<g filter="url(#filter0_d_711_106)">
<g clip-path="url(#clip0_711_106)">
<rect x="543.831" y="370.665" width="872.005" height="217.006" rx="18" transform="rotate(8.16627 543.831 370.665)" fill="white"/>
<mask id="path-2-inside-1_711_106" fill="white">
<path d="M604.423 455.33C605.378 448.678 605.856 445.351 607.515 442.996C608.975 440.925 611.053 439.369 613.451 438.551C616.178 437.621 619.504 438.098 626.157 439.053L712.868 451.501C719.52 452.455 722.846 452.933 725.201 454.592C727.273 456.052 728.829 458.13 729.647 460.528C730.577 463.255 730.1 466.581 729.145 473.234L719.681 539.158C718.726 545.811 718.249 549.137 716.589 551.492C715.13 553.563 713.052 555.12 710.653 555.938C707.926 556.868 704.6 556.39 697.948 555.435L611.237 542.988C604.584 542.033 601.258 541.555 598.903 539.896C596.831 538.436 595.275 536.358 594.457 533.96C593.527 531.233 594.005 527.907 594.96 521.254L604.423 455.33Z"/>
</mask>
<path d="M604.423 455.33C605.378 448.678 605.856 445.351 607.515 442.996C608.975 440.925 611.053 439.369 613.451 438.551C616.178 437.621 619.504 438.098 626.157 439.053L712.868 451.501C719.52 452.455 722.846 452.933 725.201 454.592C727.273 456.052 728.829 458.13 729.647 460.528C730.577 463.255 730.1 466.581 729.145 473.234L719.681 539.158C718.726 545.811 718.249 549.137 716.589 551.492C715.13 553.563 713.052 555.12 710.653 555.938C707.926 556.868 704.6 556.39 697.948 555.435L611.237 542.988C604.584 542.033 601.258 541.555 598.903 539.896C596.831 538.436 595.275 536.358 594.457 533.96C593.527 531.233 594.005 527.907 594.96 521.254L604.423 455.33Z" fill="#F6F8FA"/>
<path d="M603.467 447.919C604.565 440.265 611.66 434.952 619.314 436.05L720.279 450.544C727.932 451.643 733.246 458.738 732.147 466.391L728.188 465.823C728.973 460.356 725.177 455.288 719.71 454.503L618.745 440.01C613.279 439.225 608.211 443.021 607.426 448.487L603.467 447.919ZM720.069 550.529C718.971 558.182 711.876 563.496 704.222 562.397L603.257 547.904C595.604 546.805 590.29 539.71 591.389 532.056L595.916 528.665C595.446 531.946 599.496 535.241 604.962 536.025L705.927 550.519C711.394 551.304 716.208 549.281 716.678 546.001L720.069 550.529ZM603.257 547.904C595.604 546.805 590.29 539.71 591.389 532.056L603.467 447.919C604.565 440.265 611.66 434.952 619.314 436.05L618.745 440.01C613.279 439.225 608.211 443.021 607.426 448.487L595.916 528.665C595.446 531.946 599.496 535.241 604.962 536.025L603.257 547.904ZM720.279 450.544C727.932 451.643 733.246 458.738 732.147 466.391L720.069 550.529C718.971 558.182 711.876 563.496 704.222 562.397L705.927 550.519C711.394 551.304 716.208 549.281 716.678 546.001L728.188 465.823C728.973 460.356 725.177 455.288 719.71 454.503L720.279 450.544Z" fill="#D1D9E0" mask="url(#path-2-inside-1_711_106)"/>
<path d="M654.717 513.87L650.61 513.281L655.416 479.804L675.159 482.638L674.619 486.396L658.983 484.152L657.334 495.636L671.625 497.687L671.102 501.329L656.811 499.278L654.717 513.87Z" fill="black"/>
<path d="M750.375 534.309C744.294 533.436 741.694 530.269 742.603 523.933L745.486 503.842L740.646 503.148L741.304 498.563L746.144 499.257L747.428 490.31L753.159 491.133L751.875 500.08L758.179 500.984L757.521 505.569L751.217 504.664L748.338 524.723C747.831 528.257 749.25 529.468 752.211 529.893C752.879 529.989 753.53 529.985 754.012 530.022L753.368 534.511C752.654 534.506 751.457 534.464 750.375 534.309ZM772.057 537.421C762.856 536.1 757.666 528.564 759.178 518.025L759.187 517.961C760.7 507.423 767.822 501.718 776.96 503.029C786.098 504.341 791.365 511.791 789.849 522.361L789.839 522.425C788.323 532.996 781.195 538.732 772.057 537.421ZM772.793 532.522C778.62 533.358 783.057 529.381 784.172 521.612L784.181 521.548C785.296 513.779 782.115 508.773 776.256 507.933C770.494 507.106 765.965 511.038 764.855 518.775L764.846 518.838C763.726 526.639 766.934 531.681 772.793 532.522ZM805.386 553.577C797.203 552.402 792.598 547.81 792.219 542.751L792.197 542.455L797.769 543.255L797.855 543.56C798.563 546.098 801.505 548.015 806.026 548.664C811.853 549.5 815.625 546.76 816.361 541.634L816.969 537.399L816.841 537.381C814.342 540.759 810.183 542.567 805.439 541.886C797.097 540.689 792.362 533.153 793.847 522.805L793.851 522.773C795.327 512.489 802.05 506.63 810.455 507.836C815.136 508.508 818.463 511.585 819.971 515.571L820.098 515.589L820.903 509.985L826.443 510.78L821.823 542.97C820.722 550.643 814.365 554.865 805.386 553.577ZM807.352 537.156C812.988 537.965 817.499 533.706 818.554 526.351L818.559 526.319C819.605 519.028 816.438 513.699 810.834 512.895C804.944 512.049 800.574 516.232 799.519 523.587L799.514 523.618C798.436 531.132 801.462 536.311 807.352 537.156ZM841.174 558.712C832.991 557.538 828.386 552.945 828.007 547.887L827.984 547.591L833.556 548.39L833.642 548.695C834.35 551.234 837.292 553.151 841.814 553.8C847.64 554.636 851.413 551.895 852.149 546.769L852.756 542.534L852.629 542.516C850.129 545.894 845.971 547.702 841.226 547.021C832.885 545.824 828.149 538.288 829.634 527.941L829.639 527.909C831.115 517.625 837.837 511.765 846.243 512.972C850.923 513.643 854.251 516.72 855.759 520.706L855.886 520.724L856.69 515.121L862.23 515.916L857.611 548.105C856.51 555.779 850.152 560.001 841.174 558.712ZM843.14 542.292C848.776 543.101 853.286 538.841 854.342 531.486L854.346 531.454C855.392 524.163 852.225 518.834 846.622 518.03C840.731 517.185 836.362 521.367 835.306 528.722L835.302 528.754C834.223 536.268 837.25 541.447 843.14 542.292ZM864.929 550.098L871.522 504.154L877.062 504.949L870.469 550.893L864.929 550.098ZM891.487 554.559C881.967 553.193 877.191 545.716 878.685 535.304L878.689 535.273C880.161 525.02 887.029 518.824 896.071 520.122C905.114 521.42 909.658 528.928 908.232 538.862L907.94 540.9L884.092 537.478C883.242 544.31 886.428 548.829 892.318 549.674C896.521 550.277 899.783 548.601 901.145 545.904L901.282 545.631L906.726 546.412L906.617 546.722C904.749 552.043 898.715 555.596 891.487 554.559ZM895.336 525.021C890.528 524.331 886.3 527.071 884.809 533.161L902.926 535.761C903.307 529.252 900.175 525.715 895.336 525.021ZM923.04 559.087C915.239 557.967 911.098 553.311 911.279 547.293L911.289 547.002L916.829 547.797L916.847 548.125C917.04 551.532 919.213 553.826 923.734 554.475C928.224 555.119 931.168 553.624 931.597 550.631L931.602 550.599C931.944 548.211 930.894 546.696 927.27 545.233L922.199 543.206C916.173 540.814 913.564 537.483 914.25 532.707L914.254 532.675C915.072 526.976 920.651 523.649 927.815 524.677C935.075 525.719 939.084 530.616 938.702 536.216L938.675 536.634L933.39 535.876L933.39 535.648C933.405 532.369 931.26 529.883 927.153 529.294C923.141 528.718 920.379 530.304 919.958 533.233L919.954 533.265C919.629 535.526 920.902 537.301 924.436 538.718L929.506 540.745C935.96 543.328 938 546.318 937.324 551.031L937.319 551.062C936.488 556.857 930.427 560.147 923.04 559.087ZM965.8 565.223C959.719 564.35 957.119 561.183 958.028 554.847L960.911 534.756L956.072 534.061L956.729 529.476L961.569 530.171L962.853 521.224L968.584 522.047L967.3 530.993L973.604 531.898L972.946 536.483L966.642 535.578L963.764 555.637C963.257 559.171 964.675 560.382 967.636 560.807C968.305 560.903 968.955 560.899 969.437 560.936L968.793 565.425C968.079 565.42 966.883 565.378 965.8 565.223ZM975.093 565.907L981.686 519.962L987.226 520.757L984.626 538.874L984.754 538.892C987.071 535.423 990.984 533.742 995.92 534.45C1002.96 535.46 1006.98 541.595 1005.83 549.618L1002.92 569.9L997.381 569.105L1000.15 549.778C1001.01 543.793 998.464 539.82 993.306 539.08C988.179 538.344 984.215 541.739 983.407 547.375L980.633 566.702L975.093 565.907ZM1023.49 573.502C1013.97 572.136 1009.2 564.659 1010.69 554.247L1010.7 554.216C1012.17 543.963 1019.03 537.768 1028.08 539.065C1037.12 540.363 1041.66 547.871 1040.24 557.805L1039.95 559.843L1016.1 556.421C1015.25 563.253 1018.43 567.772 1024.32 568.617C1028.53 569.22 1031.79 567.544 1033.15 564.847L1033.29 564.574L1038.73 565.355L1038.62 565.665C1036.75 570.986 1030.72 574.539 1023.49 573.502ZM1027.34 543.964C1022.53 543.274 1018.31 546.014 1016.82 552.104L1034.93 554.704C1035.31 548.195 1032.18 544.658 1027.34 543.964ZM1058.54 577.882L1062.64 549.354L1058.02 548.691L1058.68 544.106L1063.3 544.769L1063.88 540.693C1064.79 534.326 1068.19 531.726 1074.3 532.603C1075.54 532.781 1076.84 533.064 1077.65 533.31L1077 537.8C1076.35 537.608 1075.49 537.453 1074.63 537.33C1071.58 536.891 1069.82 538.232 1069.35 541.511L1068.77 545.555L1075.59 546.533L1074.93 551.117L1068.18 550.149L1064.08 578.677L1058.54 577.882ZM1087.78 582.727C1080.52 581.685 1076.99 576.37 1078.07 568.824L1081.16 547.332L1086.7 548.127L1083.76 568.632C1082.98 574.013 1085.07 577.335 1090.17 578.066C1095.39 578.815 1099.33 575.579 1100.14 569.943L1102.94 550.457L1108.48 551.252L1103.72 584.365L1098.18 583.57L1098.86 578.858L1098.73 578.84C1096.51 581.672 1092.81 583.449 1087.78 582.727ZM1111.24 585.444L1117.83 539.499L1123.37 540.294L1116.78 586.239L1111.24 585.444ZM1124.55 587.353L1131.14 541.409L1136.68 542.204L1130.09 588.148L1124.55 587.353ZM1149.23 591.545C1141.43 590.425 1137.29 585.769 1137.47 579.751L1137.48 579.46L1143.02 580.255L1143.03 580.583C1143.23 583.99 1145.4 586.284 1149.92 586.933C1154.41 587.577 1157.35 586.082 1157.78 583.089L1157.79 583.057C1158.13 580.67 1157.08 579.154 1153.46 577.692L1148.39 575.664C1142.36 573.272 1139.75 569.941 1140.44 565.165L1140.44 565.133C1141.26 559.434 1146.84 556.107 1154 557.135C1161.26 558.177 1165.27 563.074 1164.89 568.674L1164.86 569.092L1159.58 568.334L1159.58 568.106C1159.59 564.827 1157.45 562.342 1153.34 561.752C1149.33 561.177 1146.57 562.762 1146.15 565.692L1146.14 565.723C1145.82 567.984 1147.09 569.759 1150.62 571.176L1155.69 573.203C1162.15 575.787 1164.19 578.776 1163.51 583.489L1163.51 583.521C1162.67 589.315 1156.61 592.605 1149.23 591.545ZM1181.58 596.187C1172.18 594.839 1167.19 587.298 1168.7 576.76L1168.71 576.728C1170.2 566.284 1177.24 560.471 1186.45 561.791C1194.69 562.975 1198.78 569.15 1198.67 574.918L1198.66 575.177L1193.25 574.401L1193.22 574.137C1192.87 570.707 1190.61 567.394 1185.74 566.695C1179.98 565.868 1175.44 570.091 1174.36 577.605L1174.36 577.637C1173.25 585.342 1176.55 590.461 1182.28 591.284C1186.8 591.933 1190.06 589.801 1191.52 586.24L1191.62 585.995L1197.06 586.776L1197 586.994C1195.2 593.171 1189.06 597.261 1181.58 596.187ZM1200.61 598.269L1205.36 565.156L1210.9 565.951L1210.1 571.555L1210.23 571.573C1211.89 567.912 1215.1 565.903 1218.83 566.438C1219.78 566.575 1220.59 566.853 1221.02 566.981L1220.25 572.362C1219.83 572.138 1218.67 571.81 1217.34 571.618C1213.04 571.001 1209.81 573.592 1209.08 578.623L1206.15 599.064L1200.61 598.269ZM1232.68 603.52C1223.16 602.154 1218.38 594.677 1219.88 584.266L1219.88 584.234C1221.35 573.982 1228.22 567.786 1237.26 569.083C1246.3 570.381 1250.85 577.89 1249.42 587.823L1249.13 589.861L1225.28 586.439C1224.43 593.271 1227.62 597.79 1233.51 598.635C1237.71 599.238 1240.97 597.562 1242.34 594.865L1242.47 594.592L1247.92 595.374L1247.81 595.683C1245.94 601.004 1239.91 604.557 1232.68 603.52ZM1236.53 573.982C1231.72 573.292 1227.49 576.033 1226 582.123L1244.12 584.722C1244.5 578.213 1241.37 574.677 1236.53 573.982ZM1266.11 608.318C1256.59 606.952 1251.81 599.475 1253.31 589.063L1253.31 589.031C1254.78 578.779 1261.65 572.583 1270.69 573.881C1279.74 575.178 1284.28 582.687 1282.85 592.621L1282.56 594.659L1258.71 591.236C1257.86 598.068 1261.05 602.587 1266.94 603.433C1271.14 604.036 1274.41 602.359 1275.77 599.663L1275.9 599.39L1281.35 600.171L1281.24 600.48C1279.37 605.801 1273.34 609.355 1266.11 608.318ZM1269.96 578.78C1265.15 578.09 1260.92 580.83 1259.43 586.92L1277.55 589.52C1277.93 583.011 1274.8 579.474 1269.96 578.78ZM1286 610.523L1290.76 577.41L1296.3 578.205L1295.62 582.917L1295.75 582.935C1297.97 580.103 1301.67 578.326 1306.7 579.048C1313.96 580.09 1317.49 585.405 1316.41 592.951L1313.32 614.443L1307.78 613.648L1310.73 593.143C1311.5 587.763 1309.41 584.441 1304.31 583.709C1299.09 582.96 1295.15 586.197 1294.34 591.832L1291.54 611.318L1286 610.523Z" fill="black"/>
</g>
</g>
<defs>
<filter id="filter0_d_711_106" x="510.006" y="370.665" width="899.988" height="344.671" filterUnits="userSpaceOnUse" color-interpolation-filters="sRGB">
<feFlood flood-opacity="0" result="BackgroundImageFix"/>
<feColorMatrix in="SourceAlpha" type="matrix" values="0 0 0 0 0 0 0 0 0 0 0 0 0 0 0 0 0 0 127 0" result="hardAlpha"/>
<feOffset dy="3"/>
<feGaussianBlur stdDeviation="1.5"/>
<feComposite in2="hardAlpha" operator="out"/>
<feColorMatrix type="matrix" values="0 0 0 0 0 0 0 0 0 0 0 0 0 0 0 0 0 0 0.25 0"/>
<feBlend mode="normal" in2="BackgroundImageFix" result="effect1_dropShadow_711_106"/>
<feBlend mode="normal" in="SourceGraphic" in2="effect1_dropShadow_711_106" result="shape"/>
</filter>
<clipPath id="clip0_711_106">
<rect x="543.831" y="370.665" width="872.005" height="217.006" rx="18" transform="rotate(8.16627 543.831 370.665)" fill="white"/>
</clipPath>
</defs>
</svg>
