<svg width="1920" height="1080" viewBox="0 0 1920 1080" fill="none" xmlns="http://www.w3.org/2000/svg">
<rect width="1920" height="1080" fill="#DDDDDD"/>
<g filter="url(#filter0_d_711_99)">
<g clip-path="url(#clip0_711_99)">
<rect x="493.889" y="391.525" width="954.005" height="217.009" rx="18" transform="rotate(4.85366 493.889 391.525)" fill="white"/>
<mask id="path-2-inside-1_711_99" fill="white">
<path d="M559.272 472.548C559.841 465.851 560.125 462.503 561.646 460.056C562.983 457.903 564.968 456.23 567.315 455.274C569.984 454.189 573.332 454.473 580.029 455.042L727.099 467.538C733.795 468.107 737.143 468.391 739.59 469.912C741.743 471.249 743.417 473.234 744.372 475.581C745.458 478.249 745.173 481.598 744.604 488.294L738.966 554.655C738.397 561.352 738.113 564.7 736.592 567.147C735.254 569.299 733.27 570.973 730.923 571.928C728.254 573.014 724.906 572.73 718.209 572.161L571.139 559.665C564.443 559.096 561.095 558.812 558.648 557.291C556.495 555.954 554.821 553.969 553.866 551.622C552.78 548.953 553.065 545.605 553.634 538.909L559.272 472.548Z"/>
</mask>
<path d="M559.272 472.548C559.841 465.851 560.125 462.503 561.646 460.056C562.983 457.903 564.968 456.23 567.315 455.274C569.984 454.189 573.332 454.473 580.029 455.042L727.099 467.538C733.795 468.107 737.143 468.391 739.59 469.912C741.743 471.249 743.417 473.234 744.372 475.581C745.458 478.249 745.173 481.598 744.604 488.294L738.966 554.655C738.397 561.352 738.113 564.7 736.592 567.147C735.254 569.299 733.27 570.973 730.923 571.928C728.254 573.014 724.906 572.73 718.209 572.161L571.139 559.665C564.443 559.096 561.095 558.812 558.648 557.291C556.495 555.954 554.821 553.969 553.866 551.622C552.78 548.953 553.065 545.605 553.634 538.909L559.272 472.548Z" fill="#F6F8FA"/>
<path d="M557.889 465.204C558.543 457.5 565.319 451.785 573.024 452.44L734.442 466.154C742.146 466.809 747.861 473.585 747.207 481.289L743.221 480.951C743.689 475.448 739.606 470.608 734.103 470.14L572.685 456.425C567.182 455.958 562.342 460.04 561.874 465.543L557.889 465.204ZM740.011 565.984C739.356 573.688 732.58 579.403 724.876 578.749L563.457 565.034C555.753 564.379 550.038 557.603 550.693 549.899L555.017 546.252C554.736 549.554 558.97 552.61 564.473 553.077L725.892 566.792C731.395 567.259 736.083 564.962 736.364 561.66L740.011 565.984ZM563.457 565.034C555.753 564.379 550.038 557.603 550.693 549.899L557.889 465.204C558.543 457.5 565.319 451.785 573.024 452.44L572.685 456.425C567.182 455.958 562.342 460.04 561.874 465.543L555.017 546.252C554.736 549.554 558.97 552.61 564.473 553.077L563.457 565.034ZM734.442 466.154C742.146 466.809 747.861 473.585 747.207 481.289L740.011 565.984C739.356 573.688 732.58 579.403 724.876 578.749L725.892 566.792C731.395 567.259 736.083 564.962 736.364 561.66L743.221 480.951C743.689 475.448 739.606 470.608 734.103 470.14L734.442 466.154Z" fill="#D1D9E0" mask="url(#path-2-inside-1_711_99)"/>
<path d="M615.992 495.984L619.915 496.317L619.332 503.183L629.607 504.056L629.319 507.442L619.091 506.573L617.876 520.865C617.642 523.621 619.453 525.28 623.027 525.584C624.451 525.705 627.003 525.851 627.686 525.839L627.4 529.201C626.76 529.265 623.667 529.12 622.453 529.016C616.171 528.483 613.454 525.853 613.902 520.575L615.121 506.236L608.371 505.662L608.659 502.276L615.408 502.849L615.992 495.984ZM644.541 531.222C639.706 530.812 636.742 527.502 637.132 522.901C637.513 518.417 640.962 516.029 646.756 516.215L653.745 516.456L653.94 514.168C654.21 510.992 652.42 509.076 648.894 508.776C645.975 508.528 643.814 509.591 642.976 511.707L639.076 511.376C639.888 507.352 644.048 504.906 649.232 505.347C655.187 505.853 658.339 509.179 657.891 514.456L656.416 531.808L652.633 531.487L652.957 527.68L652.56 527.646C651.115 530.252 648.23 531.536 644.541 531.222ZM645.98 527.84C649.81 528.165 652.946 525.868 653.234 522.482L653.488 519.492L646.946 519.242C643.383 519.104 641.385 520.463 641.161 523.102C640.935 525.765 642.781 527.568 645.98 527.84ZM678.265 534.064C674.645 533.757 672.11 532.036 671.04 529.122L670.596 529.085L670.267 532.961L666.367 532.63L669.365 497.343L673.405 497.686L672.227 511.558L672.647 511.594C674.004 508.91 676.823 507.574 680.489 507.885C686.351 508.383 689.822 512.935 689.27 519.428L688.869 524.145C688.316 530.661 684.126 534.562 678.265 534.064ZM677.405 530.345C681.608 530.702 684.526 527.916 684.923 523.245L685.233 519.602C685.63 514.931 683.221 511.716 679.018 511.359C674.861 511.006 671.945 513.769 671.548 518.439L671.238 522.083C670.839 526.777 673.248 529.992 677.405 530.345Z" fill="black"/>
<path d="M769.167 548.025C763.045 547.506 760.266 544.494 760.808 538.116L762.525 517.892L757.654 517.478L758.046 512.863L762.917 513.277L763.682 504.271L769.451 504.76L768.686 513.767L775.032 514.305L774.64 518.921L768.294 518.382L766.58 538.573C766.278 542.131 767.764 543.258 770.745 543.511C771.418 543.568 772.067 543.526 772.55 543.535L772.166 548.054C771.453 548.091 770.256 548.118 769.167 548.025ZM790.993 549.879C781.73 549.092 776.114 541.869 777.014 531.26L777.02 531.196C777.921 520.587 784.702 514.481 793.9 515.262C803.099 516.043 808.788 523.176 807.884 533.817L807.879 533.881C806.975 544.522 800.191 550.66 790.993 549.879ZM791.444 544.946C797.309 545.444 801.51 541.217 802.174 533.396L802.179 533.332C802.843 525.512 799.378 520.698 793.481 520.198C787.68 519.705 783.386 523.892 782.725 531.68L782.719 531.744C782.053 539.597 785.547 544.445 791.444 544.946ZM839.325 553.983C830.062 553.196 824.445 545.973 825.346 535.364L825.352 535.3C826.252 524.691 833.033 518.585 842.232 519.366C851.43 520.147 857.119 527.28 856.216 537.921L856.21 537.985C855.307 548.626 848.523 554.764 839.325 553.983ZM839.776 549.05C845.641 549.548 849.841 545.321 850.505 537.501L850.511 537.436C851.175 529.616 847.71 524.803 841.813 524.302C836.012 523.809 831.718 527.996 831.056 535.784L831.051 535.849C830.384 543.701 833.879 548.549 839.776 549.05ZM859.484 566.348L863.266 521.798L868.843 522.271L868.364 527.912L868.492 527.923C870.905 524.222 874.827 522.134 879.602 522.539C888.128 523.263 893.192 530.537 892.299 541.049L892.296 541.081C891.404 551.594 885.124 557.872 876.759 557.162C872.048 556.762 868.371 554.061 866.615 550.038L866.486 550.027L865.06 566.821L859.484 566.348ZM875.993 552.125C881.89 552.626 885.946 548.193 886.591 540.597L886.594 540.565C887.244 532.905 883.991 527.883 878.094 527.383C872.453 526.904 868.03 531.467 867.396 538.935L867.393 538.967C866.762 546.402 870.384 551.649 875.993 552.125ZM910.188 560C900.605 559.187 895.404 551.998 896.294 541.518L896.297 541.486C897.173 531.166 903.672 524.583 912.774 525.356C921.877 526.129 926.847 533.363 925.998 543.362L925.824 545.413L901.818 543.375C901.364 550.245 904.806 554.572 910.735 555.076C914.966 555.435 918.126 553.573 919.33 550.802L919.45 550.521L924.931 550.987L924.84 551.302C923.282 556.722 917.463 560.618 910.188 560ZM912.323 530.289C907.484 529.878 903.421 532.858 902.284 539.024L920.521 540.573C920.526 534.052 917.195 530.703 912.323 530.289ZM930.177 561.052L933.008 527.72L938.584 528.194L938.182 532.937L938.31 532.948C940.369 529.991 943.959 528.004 949.023 528.434C956.331 529.055 960.158 534.157 959.513 541.753L957.676 563.387L952.1 562.914L953.852 542.273C954.312 536.857 952.033 533.661 946.905 533.226C941.649 532.779 937.901 536.238 937.42 541.911L935.754 561.526L930.177 561.052ZM989.031 566.695C982.91 566.176 980.131 563.163 980.672 556.785L982.39 536.562L977.518 536.148L977.91 531.533L982.782 531.947L983.546 522.94L989.315 523.43L988.551 532.436L994.897 532.975L994.505 537.591L988.159 537.052L986.444 557.243C986.142 560.801 987.628 561.928 990.609 562.181C991.282 562.238 991.931 562.196 992.415 562.205L992.031 566.724C991.318 566.76 990.121 566.788 989.031 566.695ZM998.348 566.841L1002.28 520.592L1007.85 521.066L1006.3 539.303L1006.43 539.313C1008.54 535.716 1012.35 533.812 1017.32 534.234C1024.41 534.835 1028.78 540.727 1028.09 548.804L1026.36 569.22L1020.78 568.746L1022.44 549.292C1022.95 543.266 1020.17 539.447 1014.98 539.006C1009.82 538.568 1006.06 542.187 1005.58 547.86L1003.92 567.314L998.348 566.841ZM1047.11 571.627C1037.52 570.813 1032.32 563.625 1033.21 553.144L1033.22 553.112C1034.09 542.792 1040.59 536.21 1049.69 536.983C1058.8 537.756 1063.77 544.989 1062.92 554.989L1062.74 557.04L1038.74 555.001C1038.28 561.871 1041.72 566.199 1047.65 566.702C1051.88 567.061 1055.04 565.199 1056.25 562.428L1056.37 562.148L1061.85 562.613L1061.76 562.928C1060.2 568.348 1054.38 572.245 1047.11 571.627ZM1049.24 541.916C1044.4 541.505 1040.34 544.485 1039.2 550.651L1057.44 552.199C1057.44 545.679 1054.11 542.329 1049.24 541.916ZM1080.56 573.822L1083.39 540.49L1088.96 540.963L1088.56 545.707L1088.69 545.717C1090.75 542.761 1094.34 540.774 1099.4 541.204C1106.71 541.824 1110.54 546.927 1109.89 554.523L1108.06 576.157L1102.48 575.683L1104.23 555.043C1104.69 549.626 1102.41 546.431 1097.28 545.995C1092.03 545.549 1088.28 549.008 1087.8 554.681L1086.13 574.295L1080.56 573.822ZM1124.86 578.229C1118.23 577.666 1114.11 573.281 1114.63 567.224L1114.63 567.16C1115.11 561.487 1119.84 558.305 1127.54 558.507L1137.13 558.773L1137.37 555.985C1137.71 551.914 1135.26 549.22 1130.62 548.826C1126.32 548.461 1123.46 550.284 1122.56 553.21L1122.47 553.493L1117.09 553.036L1117.15 552.686C1118.1 547.246 1123.25 543.229 1131.1 543.895C1138.98 544.565 1143.56 549.247 1142.99 555.913L1141.04 578.957L1135.46 578.484L1135.92 573.067L1135.79 573.056C1133.53 576.544 1129.31 578.608 1124.86 578.229ZM1120.33 567.708C1120.06 570.913 1122.51 573.156 1126.52 573.496C1131.78 573.942 1136.12 570.664 1136.53 565.824L1136.77 563.1L1127.81 562.888C1123.33 562.766 1120.6 564.535 1120.34 567.644L1120.33 567.708ZM1157.51 580.356L1148.06 545.982L1153.93 546.48L1160.8 574.664L1160.93 574.675L1172.49 548.055L1178.29 548.548L1163.21 580.841L1157.51 580.356ZM1186.3 543.547C1184.38 543.383 1182.94 541.68 1183.1 539.757C1183.27 537.802 1184.97 536.397 1186.89 536.56C1188.85 536.726 1190.25 538.395 1190.09 540.35C1189.93 542.273 1188.25 543.713 1186.3 543.547ZM1180.2 582.283L1183.03 548.951L1188.61 549.424L1185.78 582.757L1180.2 582.283ZM1206.47 596.458C1198.23 595.758 1193.37 591.439 1192.7 586.411L1192.66 586.117L1198.27 586.593L1198.37 586.893C1199.22 589.386 1202.27 591.13 1206.82 591.517C1212.69 592.015 1216.3 589.061 1216.74 583.9L1217.1 579.638L1216.97 579.627C1214.67 583.144 1210.62 585.189 1205.85 584.784C1197.45 584.07 1192.29 576.821 1193.17 566.404L1193.17 566.372C1194.05 556.02 1200.42 549.782 1208.89 550.501C1213.6 550.901 1217.1 553.78 1218.83 557.672L1218.96 557.683L1219.44 552.043L1225.02 552.516L1222.27 584.919C1221.61 592.643 1215.51 597.225 1206.47 596.458ZM1207.48 579.951C1213.16 580.433 1217.41 575.92 1218.04 568.516L1218.04 568.484C1218.67 561.145 1215.2 556.008 1209.56 555.529C1203.63 555.025 1199.51 559.453 1198.88 566.857L1198.88 566.889C1198.23 574.453 1201.55 579.448 1207.48 579.951ZM1239.09 587.929C1232.45 587.366 1228.34 582.981 1228.85 576.924L1228.86 576.859C1229.34 571.187 1234.06 568.005 1241.76 568.206L1251.36 568.473L1251.6 565.684C1251.94 561.614 1249.49 558.92 1244.84 558.525C1240.55 558.161 1237.68 559.983 1236.79 562.91L1236.7 563.193L1231.32 562.735L1231.38 562.386C1232.32 556.946 1237.47 552.928 1245.33 553.595C1253.21 554.265 1257.79 558.946 1257.22 565.613L1255.26 588.657L1249.69 588.183L1250.15 582.767L1250.02 582.756C1247.75 586.244 1243.54 588.307 1239.09 587.929ZM1234.56 577.408C1234.28 580.613 1236.74 582.855 1240.75 583.196C1246 583.642 1250.35 580.363 1250.76 575.524L1250.99 572.799L1242.04 572.588C1237.56 572.466 1234.83 574.235 1234.56 577.344L1234.56 577.408ZM1273.12 590.819C1267 590.299 1264.22 587.287 1264.77 580.909L1266.48 560.686L1261.61 560.272L1262 555.657L1266.87 556.07L1267.64 547.064L1273.41 547.554L1272.64 556.56L1278.99 557.099L1278.6 561.714L1272.25 561.176L1270.54 581.367C1270.24 584.925 1271.72 586.052 1274.7 586.305C1275.37 586.362 1276.02 586.32 1276.51 586.329L1276.12 590.848C1275.41 590.884 1274.21 590.912 1273.12 590.819ZM1288.6 552.234C1286.68 552.071 1285.24 550.367 1285.41 548.444C1285.57 546.489 1287.27 545.084 1289.2 545.247C1291.15 545.413 1292.56 547.082 1292.39 549.037C1292.23 550.96 1290.56 552.4 1288.6 552.234ZM1282.51 590.97L1285.34 557.638L1290.91 558.112L1288.08 591.444L1282.51 590.97ZM1309.44 593.903C1300.17 593.116 1294.56 585.893 1295.46 575.284L1295.46 575.22C1296.36 564.611 1303.15 558.505 1312.34 559.286C1321.54 560.067 1327.23 567.2 1326.33 577.841L1326.32 577.905C1325.42 588.545 1318.64 594.684 1309.44 593.903ZM1309.89 588.97C1315.75 589.468 1319.95 585.241 1320.62 577.42L1320.62 577.356C1321.29 569.536 1317.82 564.722 1311.93 564.222C1306.12 563.729 1301.83 567.916 1301.17 575.704L1301.16 575.768C1300.5 583.621 1303.99 588.469 1309.89 588.97ZM1330.55 595.05L1333.38 561.718L1338.96 562.191L1338.55 566.935L1338.68 566.946C1340.74 563.989 1344.33 562.002 1349.39 562.432C1356.7 563.053 1360.53 568.155 1359.88 575.751L1358.05 597.385L1352.47 596.911L1354.22 576.271C1354.68 570.855 1352.4 567.659 1347.28 567.224C1342.02 566.777 1338.27 570.236 1337.79 575.909L1336.13 595.523L1330.55 595.05Z" fill="black"/>
</g>
</g>
<defs>
<filter id="filter0_d_711_99" x="472.527" y="391.525" width="974.945" height="302.95" filterUnits="userSpaceOnUse" color-interpolation-filters="sRGB">
<feFlood flood-opacity="0" result="BackgroundImageFix"/>
<feColorMatrix in="SourceAlpha" type="matrix" values="0 0 0 0 0 0 0 0 0 0 0 0 0 0 0 0 0 0 127 0" result="hardAlpha"/>
<feOffset dy="3"/>
<feGaussianBlur stdDeviation="1.5"/>
<feComposite in2="hardAlpha" operator="out"/>
<feColorMatrix type="matrix" values="0 0 0 0 0 0 0 0 0 0 0 0 0 0 0 0 0 0 0.25 0"/>
<feBlend mode="normal" in2="BackgroundImageFix" result="effect1_dropShadow_711_99"/>
<feBlend mode="normal" in="SourceGraphic" in2="effect1_dropShadow_711_99" result="shape"/>
</filter>
<clipPath id="clip0_711_99">
<rect x="493.889" y="391.525" width="954.005" height="217.009" rx="18" transform="rotate(4.85366 493.889 391.525)" fill="white"/>
</clipPath>
</defs>
</svg>
