<svg width="530" height="237" viewBox="0 0 530 237" fill="none" xmlns="http://www.w3.org/2000/svg">
<g filter="url(#filter0_d_4_6)">
<g clip-path="url(#clip0_4_6)">
<rect x="27.1743" width="508.126" height="149.037" rx="12" transform="rotate(9.72444 27.1743 0)" fill="white"/>
<path d="M66.8798 71.7994L66.1971 75.7827L72.3389 73.4926L68.0799 98.3448L71.6302 98.9532L76.8241 68.6457L75.4819 68.4157L66.8798 71.7994ZM78.7197 97.5386C78.4526 99.0973 79.4213 100.467 80.98 100.734C82.4953 100.993 83.908 100.032 84.1751 98.4735C84.4348 96.9582 83.4302 95.5381 81.9148 95.2784C80.3562 95.0113 78.9794 96.0233 78.7197 97.5386ZM125.15 97.9189C122.964 102.09 119.858 103.831 115.831 103.141C112.931 102.644 110.771 101.204 109.301 98.8574C107.875 96.5183 107.47 93.4183 108.123 89.6082C108.776 85.7981 110.19 83.0098 112.313 81.2791C114.481 79.5558 116.997 78.9173 119.898 79.4145C123.924 80.1045 126.273 82.7801 126.945 87.4412L130.811 86.9894C130.586 84.143 129.579 81.6975 127.79 79.6528C126.001 77.6081 123.595 76.3044 120.521 75.7776C116.754 75.132 113.277 75.9177 110.125 78.1854C107.016 80.4605 105.021 84.0405 104.183 88.933C103.344 93.8255 104.034 97.8656 106.207 101.046C108.424 104.234 111.441 106.132 115.208 106.778C118.282 107.305 120.978 106.92 123.345 105.587C125.713 104.255 127.484 102.241 128.644 99.632L125.15 97.9189ZM149.716 90.1847C148.968 89.6108 148.009 89.2236 146.84 89.0233C144.416 88.6078 141.406 89.7856 139.735 91.995L140.373 88.2715L136.736 87.6483L132.996 109.47L136.633 110.093L138.051 101.823C138.622 98.4895 139.673 95.9956 141.205 94.3416C142.736 92.6876 144.328 91.9799 145.973 92.2619C146.882 92.4177 147.668 92.7752 148.424 93.3058L149.716 90.1847ZM170.159 103.671C170.657 100.77 170.206 98.1975 168.772 95.9016C167.389 93.5699 165.135 92.1586 162.061 91.6318C158.901 91.0901 156.291 91.757 154.18 93.6683C152.121 95.5438 150.802 98.0365 150.261 101.197C149.719 104.358 150.132 107.147 151.442 109.645C152.803 112.106 155.042 113.604 158.203 114.146C162.706 114.918 165.738 113.61 168.507 109.672L165.541 107.738C163.803 110.337 161.841 111.382 158.767 110.855C155 110.21 153.332 106.938 153.85 102.615L169.87 105.36L170.159 103.671ZM161.497 94.9223C164.831 95.4936 166.495 98.0072 166.624 101.416L154.631 99.3611C155.895 96.146 158.25 94.3658 161.497 94.9223ZM177.758 110.678C178.181 108.21 180.54 107.188 184.22 107.819L188.117 108.487L188.027 109.006C187.634 111.301 186.739 112.886 185.341 113.76C183.943 114.635 182.425 114.91 180.78 114.628C178.485 114.235 177.402 112.756 177.758 110.678ZM192.406 105.3C193.356 99.758 190.482 96.5023 185.417 95.6342C181.303 94.9293 177.836 96.6972 176.643 100.281L179.72 101.566C180.56 99.5262 182.558 98.5315 184.853 98.9248C188.013 99.4664 189.356 101.256 188.844 104.244L188.68 105.196L185.13 104.588C179.025 103.542 174.828 105.407 174.034 110.04C173.27 114.5 175.713 117.147 179.653 117.822C182.641 118.334 185.085 117.594 187.08 115.574L187.16 118.752L190.017 119.241L192.406 105.3ZM201.306 102.101L199.303 113.791C198.494 118.51 200.539 121.401 204.392 122.062C205.821 122.306 207.035 122.247 208.084 121.847L207.759 118.538C206.985 118.896 206.125 118.971 205.173 118.808C203.311 118.489 202.495 117.012 202.888 114.717L204.943 102.724L210.658 103.704L211.222 100.413L205.507 99.4337L207.021 90.6012L202.991 92.2727L201.87 98.8104L198.103 98.1649L197.539 101.455L201.306 102.101ZM233.371 114.504C233.868 111.603 233.417 109.03 231.983 106.734C230.6 104.403 228.346 102.991 225.272 102.464C222.112 101.923 219.502 102.59 217.391 104.501C215.332 106.376 214.013 108.869 213.472 112.03C212.93 115.19 213.343 117.98 214.653 120.477C216.014 122.939 218.253 124.437 221.414 124.979C225.917 125.75 228.949 124.442 231.718 120.505L228.752 118.57C227.014 121.169 225.052 122.215 221.978 121.688C218.211 121.042 216.543 117.771 217.062 113.447L233.081 116.193L233.371 114.504ZM224.708 105.755C228.042 106.326 229.706 108.84 229.835 112.249L217.842 110.194C219.106 106.979 221.461 105.198 224.708 105.755ZM252.3 123.453C252.723 120.985 255.082 119.963 258.762 120.594L262.659 121.261L262.57 121.781C262.177 124.076 261.281 125.66 259.883 126.535C258.486 127.41 256.968 127.684 255.323 127.402C253.028 127.009 251.944 125.531 252.3 123.453ZM266.949 118.075C267.899 112.533 265.025 109.277 259.959 108.409C255.846 107.704 252.379 109.472 251.185 113.056L254.263 114.341C255.103 112.301 257.101 111.306 259.395 111.699C262.556 112.241 263.898 114.031 263.386 117.018L263.223 117.971L259.673 117.362C253.568 116.316 249.371 118.182 248.577 122.815C247.813 127.274 250.256 129.921 254.196 130.596C257.183 131.108 259.628 130.369 261.623 128.348L261.702 131.526L264.56 132.016L266.949 118.075ZM283.271 135.222L287.081 135.875L289.477 121.891L300.691 123.812L301.314 120.176L290.101 118.254L291.651 109.205L305.463 111.572L306.086 107.935L288.464 104.915L283.271 135.222ZM306.395 139.185L310.031 139.809L313.771 117.987L310.134 117.364L306.395 139.185ZM310.264 111.147C310.004 112.662 310.973 114.031 312.531 114.298C314.09 114.566 315.459 113.597 315.719 112.081C315.986 110.523 315.025 109.11 313.466 108.843C311.908 108.576 310.531 109.588 310.264 111.147ZM319.88 126.254C319.561 128.116 319.806 129.807 320.666 131.291C318.735 131.896 317.639 133.09 317.335 134.865C317.082 136.337 317.358 137.588 318.213 138.581C316.671 139.52 315.718 140.917 315.399 142.779C314.628 147.281 317.848 150.596 323.433 151.554C328.802 152.474 333.078 150.666 333.946 145.6C334.607 141.747 332.293 139.122 328.137 138.41L322.984 137.527C321.339 137.245 320.62 136.498 320.828 135.286C320.991 134.333 321.586 133.722 322.62 133.409C323.614 134.114 324.825 134.589 326.254 134.834C328.462 135.212 330.392 134.874 332.043 133.82C333.702 132.723 334.742 131.074 335.12 128.866C335.38 127.35 335.256 125.992 334.713 124.74L337.939 123.6L336.806 120.33L332.531 121.871C331.43 121.013 330.183 120.488 328.754 120.243C326.546 119.864 324.609 120.246 322.95 121.343C321.291 122.44 320.258 124.046 319.88 126.254ZM327.04 141.431C329.507 141.854 330.534 143.144 330.163 145.309C329.755 147.69 327.619 148.973 323.982 148.35C320.345 147.726 318.635 145.74 319.058 143.272C319.296 141.886 319.958 140.886 321.036 140.313C321.678 140.467 322.19 140.6 322.623 140.674L327.04 141.431ZM325.126 123.989C326.945 122.741 329.629 123.201 330.928 124.983C331.581 125.853 331.793 126.959 331.57 128.257C331.348 129.556 330.78 130.529 329.874 131.131C328.071 132.293 325.386 131.833 324.073 130.137C323.419 129.267 323.208 128.161 323.43 126.863C323.653 125.564 324.221 124.591 325.126 123.989ZM371.535 134.527C372.27 130.241 370.492 127.351 366.552 126.676C363.435 126.142 360.794 127.249 358.673 130.005C358.477 126.986 356.594 124.969 353.607 124.457C350.533 123.931 348.029 125.017 346.06 127.665L346.75 123.639L343.113 123.016L339.373 144.837L343.01 145.46L344.546 136.498C345.592 130.393 348.756 127.013 352.047 127.577C354.385 127.978 355.309 129.607 354.819 132.465L352.319 147.055L355.956 147.679L357.492 138.716C358.538 132.612 361.702 129.232 364.993 129.796C367.331 130.196 368.255 131.826 367.765 134.683L365.265 149.274L368.901 149.897L371.535 134.527ZM379.695 145.285C380.118 142.817 382.477 141.795 386.157 142.425L390.054 143.093L389.965 143.613C389.571 145.908 388.676 147.492 387.278 148.367C385.88 149.242 384.363 149.516 382.717 149.234C380.423 148.841 379.339 147.363 379.695 145.285ZM394.344 139.906C395.293 134.364 392.42 131.109 387.354 130.241C383.241 129.536 379.773 131.304 378.58 134.887L381.658 136.173C382.498 134.133 384.495 133.138 386.79 133.531C389.951 134.073 391.293 135.863 390.781 138.85L390.618 139.803L387.067 139.194C380.963 138.148 376.765 140.014 375.972 144.646C375.207 149.106 377.651 151.753 381.591 152.428C384.578 152.94 387.022 152.2 389.018 150.18L389.097 153.358L391.954 153.848L394.344 139.906ZM414.793 138.687L411.618 157.218L415.255 157.841L418.43 139.31L425.921 140.594L422.745 159.125L426.382 159.748L430.121 137.926L418.994 136.019L419.12 135.283C419.662 132.123 421.719 130.782 424.707 131.294C426.568 131.613 428.096 132.32 429.341 133.38L430.654 130.397C429.475 129.214 427.695 128.419 425.314 128.011C422.932 127.603 420.779 127.947 418.932 129.101C417.085 130.255 415.921 132.106 415.476 134.703L415.357 135.396L412.24 134.862L411.676 138.153L414.793 138.687ZM433.913 161.038L437.55 161.662L442.803 131.008L439.166 130.385L433.913 161.038ZM464.905 154.183C465.402 151.282 464.952 148.709 463.518 146.413C462.135 144.081 459.881 142.67 456.807 142.143C453.646 141.601 451.036 142.268 448.926 144.18C446.866 146.055 445.548 148.548 445.006 151.708C444.464 154.869 444.878 157.658 446.188 160.156C447.549 162.618 449.788 164.115 452.948 164.657C457.451 165.429 460.483 164.121 463.253 160.183L460.286 158.249C458.548 160.848 456.586 161.893 453.512 161.367C449.746 160.721 448.078 157.449 448.596 153.126L464.616 155.871L464.905 154.183ZM456.243 145.433C459.577 146.005 461.241 148.518 461.369 151.928L449.376 149.872C450.64 146.657 452.996 144.877 456.243 145.433Z" fill="black"/>
</g>
</g>
<defs>
<filter id="filter0_d_4_6" x="0" y="0" width="530" height="236.724" filterUnits="userSpaceOnUse" color-interpolation-filters="sRGB">
<feFlood flood-opacity="0" result="BackgroundImageFix"/>
<feColorMatrix in="SourceAlpha" type="matrix" values="0 0 0 0 0 0 0 0 0 0 0 0 0 0 0 0 0 0 127 0" result="hardAlpha"/>
<feOffset dy="2"/>
<feGaussianBlur stdDeviation="1"/>
<feComposite in2="hardAlpha" operator="out"/>
<feColorMatrix type="matrix" values="0 0 0 0 0 0 0 0 0 0 0 0 0 0 0 0 0 0 0.25 0"/>
<feBlend mode="normal" in2="BackgroundImageFix" result="effect1_dropShadow_4_6"/>
<feBlend mode="normal" in="SourceGraphic" in2="effect1_dropShadow_4_6" result="shape"/>
</filter>
<clipPath id="clip0_4_6">
<rect x="27.1743" width="508.126" height="149.037" rx="12" transform="rotate(9.72444 27.1743 0)" fill="white"/>
</clipPath>
</defs>
</svg>
