<svg width="511" height="188" viewBox="0 0 511 188" fill="none" xmlns="http://www.w3.org/2000/svg">
<g filter="url(#filter0_d_8_2)">
<g clip-path="url(#clip0_8_2)">
<rect x="12.5562" width="497.553" height="149.166" rx="12" transform="rotate(4.05725 12.5562 0)" fill="white"/>
<path d="M77.5491 76.6891L63.5154 75.6937L64.4051 63.151L60.5458 62.8773L58.3683 93.5761L62.2276 93.8498L63.2541 79.3775L77.2878 80.373L76.2613 94.8452L80.1206 95.119L82.2981 64.4202L78.4388 64.1465L77.5491 76.6891ZM107.052 84.9965C107.261 82.0582 106.558 79.5401 104.903 77.3952C103.295 75.2095 100.91 74.0267 97.7965 73.8058C94.5951 73.5787 92.0614 74.5009 90.1486 76.6131C88.2827 78.6846 87.2158 81.2975 86.9887 84.499C86.7617 87.7004 87.449 90.4378 89.0007 92.7958C90.5994 95.113 92.9775 96.3835 96.179 96.6106C100.74 96.9341 103.63 95.332 106 91.1366L102.854 89.503C101.38 92.2634 99.5291 93.4985 96.4154 93.2776C92.6 93.007 90.6156 89.9131 90.7043 85.5559L106.931 86.7069L107.052 84.9965ZM97.5601 77.1388C100.937 77.3783 102.843 79.7173 103.308 83.1001L91.16 82.2384C92.1012 78.9113 94.271 76.9055 97.5601 77.1388ZM126.558 76.5071C125.756 76.0094 124.763 75.7186 123.579 75.6346C121.123 75.4604 118.242 76.9309 116.796 79.2966L117.064 75.5251L113.38 75.2638L111.812 97.3669L115.496 97.6282L116.09 89.2518C116.329 85.8749 117.13 83.2872 118.492 81.4885C119.853 79.6898 121.369 78.8276 123.036 78.9458C123.957 79.0112 124.774 79.2895 125.58 79.7433L126.558 76.5071ZM148.252 87.9189C148.461 84.9805 147.758 82.4624 146.103 80.3175C144.495 78.1319 142.11 76.949 138.997 76.7282C135.795 76.5011 133.262 77.4233 131.349 79.5355C129.483 81.6069 128.416 84.2199 128.189 87.4213C127.962 90.6228 128.649 93.3602 130.201 95.7181C131.799 98.0353 134.178 99.3059 137.379 99.533C141.94 99.8565 144.83 98.2544 147.2 94.0589L144.054 92.4254C142.58 95.1857 140.729 96.4208 137.615 96.2C133.8 95.9293 131.816 92.8355 131.904 88.4783L148.131 89.6292L148.252 87.9189ZM138.76 80.0612C142.137 80.3007 144.043 82.6397 144.508 86.0225L132.36 85.1608C133.301 81.8337 135.471 79.8279 138.76 80.0612ZM156.141 78.3409L162.348 69.7456L156.998 69.3661L153.334 78.1419L156.141 78.3409ZM169.357 78.8817C165.454 78.6048 162.683 81.0087 162.434 84.5172C162.135 88.7273 165.72 90.392 168.536 91.6937C170.46 92.5353 172.008 93.703 171.905 95.1502C171.74 97.4745 170.476 98.5308 168.107 98.3628C165.871 98.2041 164.263 96.6356 163.284 93.6572L160.049 95.1467C161.081 98.6137 163.705 101.4 167.871 101.696C172.388 102.016 175.381 99.584 175.692 95.1984C176.197 88.7109 165.791 88.7662 166.115 84.8223C166.239 83.0681 167.454 82.0965 168.989 82.2053C170.348 82.3018 171.611 83.1406 172.868 84.6843L175.52 82.7127C174.1 80.3641 172.032 79.0714 169.357 78.8817ZM212.336 89.0706C212.663 84.4657 210.428 81.7949 206.35 81.5056C202.973 81.2661 199.957 82.7711 198.358 85.4345L199.285 72.3656L195.601 72.1043L193.398 103.154L197.082 103.415L197.748 94.0301C197.953 91.1357 198.776 88.858 200.263 87.1564C201.75 85.4547 203.394 84.6457 205.105 84.7671C207.648 84.9475 208.814 86.5288 208.6 89.5548L207.564 104.159L211.248 104.42L212.336 89.0706ZM219.935 102.039C221.75 104.416 224.216 105.692 227.417 105.919C230.618 106.147 233.24 105.231 235.328 103.131C237.46 101.034 238.618 98.3836 238.839 95.2698C239.06 92.1561 238.285 89.4125 236.47 87.0359C234.699 84.6624 232.236 83.3417 229.035 83.1147C225.833 82.8876 223.209 83.8474 221.076 85.944C218.988 88.0438 217.834 90.6505 217.613 93.7643C217.392 96.878 218.164 99.6655 219.935 102.039ZM223.584 88.502C224.927 86.9664 226.649 86.2952 228.798 86.4477C230.947 86.6001 232.558 87.5077 233.627 89.2143C234.742 90.8802 235.223 92.8096 235.067 95.0023C234.912 97.1951 234.164 99.0373 232.821 100.573C231.525 102.068 229.802 102.739 227.653 102.586C225.504 102.434 223.894 101.526 222.778 99.8605C221.709 98.1539 221.229 96.2246 221.384 94.0318C221.54 91.839 222.288 89.9968 223.584 88.502ZM262.588 102.905L259.45 85.6246L255.766 85.3633L250.22 102.027L246.907 84.735L243.048 84.4612L248.19 107.04L251.698 107.289L257.231 90.8005L260.382 107.905L263.89 108.154L272.168 86.5267L268.309 86.253L262.588 102.905ZM288.048 109.867L291.732 110.129L293.3 88.0257L289.616 87.7644L288.048 109.867ZM289.131 81.5593C289.022 83.0942 290.122 84.3623 291.701 84.4743C293.279 84.5863 294.548 83.4862 294.656 81.9512C294.768 80.3724 293.671 79.0605 292.093 78.9485C290.514 78.8365 289.243 79.9805 289.131 81.5593ZM301.905 91.9858L301.065 103.827C300.726 108.607 303.048 111.284 306.951 111.561C308.399 111.664 309.601 111.484 310.607 110.983L309.957 107.719C309.221 108.152 308.372 108.312 307.407 108.243C305.521 108.11 304.562 106.719 304.727 104.395L305.589 92.2471L311.378 92.6577L311.614 89.3247L305.825 88.9141L306.46 79.9676L302.611 82.0306L302.141 88.6528L298.326 88.3822L298.089 91.7152L301.905 91.9858ZM346.701 108.871L343.563 91.5909L339.879 91.3296L334.334 107.994L331.02 90.7012L327.161 90.4275L332.303 113.007L335.812 113.255L341.345 96.7667L344.495 113.871L348.003 114.12L356.281 92.493L352.422 92.2192L346.701 108.871ZM361.137 112.055C362.952 114.431 365.418 115.708 368.619 115.935C371.821 116.162 374.442 115.246 376.53 113.146C378.663 111.05 379.82 108.399 380.041 105.285C380.262 102.172 379.487 99.4281 377.672 97.0515C375.901 94.678 373.438 93.3574 370.237 93.1303C367.035 92.9032 364.411 93.863 362.279 95.9597C360.191 98.0594 359.036 100.666 358.815 103.78C358.594 106.894 359.366 109.681 361.137 112.055ZM364.786 98.5176C366.129 96.9821 367.852 96.3109 370 96.4633C372.149 96.6157 373.76 97.5233 374.829 99.23C375.945 100.896 376.425 102.825 376.27 105.018C376.114 107.211 375.366 109.053 374.023 110.589C372.727 112.083 371.005 112.755 368.856 112.602C366.707 112.45 365.096 111.542 363.98 109.876C362.911 108.17 362.431 106.24 362.587 104.047C362.742 101.855 363.49 100.012 364.786 98.5176ZM399.541 95.87C398.739 95.3723 397.746 95.0815 396.562 94.9975C394.106 94.8233 391.225 96.2939 389.779 98.6596L390.046 94.888L386.362 94.6267L384.795 116.73L388.479 116.991L389.073 108.615C389.312 105.238 390.113 102.65 391.475 100.851C392.836 99.0527 394.352 98.1906 396.018 98.3088C396.939 98.3741 397.757 98.6525 398.562 99.1063L399.541 95.87ZM402.911 118.015L406.595 118.276L407.382 107.181L415.936 118.939L420.628 119.272L411.391 106.584L421.494 97.1186L416.758 96.7827L407.506 105.426L408.797 87.2265L405.113 86.9652L402.911 118.015ZM432.746 97.5641C428.843 97.2873 426.072 99.6912 425.823 103.2C425.525 107.41 429.109 109.074 431.926 110.376C433.849 111.218 435.397 112.385 435.295 113.833C435.13 116.157 433.865 117.213 431.497 117.045C429.26 116.887 427.652 115.318 426.674 112.34L423.439 113.829C424.471 117.296 427.094 120.083 431.26 120.378C435.777 120.699 438.771 118.266 439.082 113.881C439.586 107.393 429.18 107.449 429.504 103.505C429.628 101.751 430.843 100.779 432.378 100.888C433.738 100.984 435.001 101.823 436.257 103.367L438.91 101.395C437.489 99.0465 435.421 97.7539 432.746 97.5641ZM445.149 118.41C445.037 119.989 446.137 121.257 447.716 121.369C449.251 121.478 450.563 120.381 450.675 118.802C450.783 117.267 449.643 115.952 448.108 115.843C446.529 115.731 445.258 116.875 445.149 118.41ZM446.219 103.324C446.107 104.903 447.207 106.171 448.786 106.283C450.321 106.392 451.633 105.295 451.745 103.716C451.854 102.181 450.713 100.866 449.178 100.757C447.599 100.645 446.328 101.789 446.219 103.324Z" fill="black"/>
</g>
</g>
<defs>
<filter id="filter0_d_8_2" x="0" y="0" width="510.865" height="188" filterUnits="userSpaceOnUse" color-interpolation-filters="sRGB">
<feFlood flood-opacity="0" result="BackgroundImageFix"/>
<feColorMatrix in="SourceAlpha" type="matrix" values="0 0 0 0 0 0 0 0 0 0 0 0 0 0 0 0 0 0 127 0" result="hardAlpha"/>
<feOffset dy="2"/>
<feGaussianBlur stdDeviation="1"/>
<feComposite in2="hardAlpha" operator="out"/>
<feColorMatrix type="matrix" values="0 0 0 0 0 0 0 0 0 0 0 0 0 0 0 0 0 0 0.25 0"/>
<feBlend mode="normal" in2="BackgroundImageFix" result="effect1_dropShadow_8_2"/>
<feBlend mode="normal" in="SourceGraphic" in2="effect1_dropShadow_8_2" result="shape"/>
</filter>
<clipPath id="clip0_8_2">
<rect x="12.5562" width="497.553" height="149.166" rx="12" transform="rotate(4.05725 12.5562 0)" fill="white"/>
</clipPath>
</defs>
</svg>
