<svg width="1920" height="1080" viewBox="0 0 1920 1080" fill="none" xmlns="http://www.w3.org/2000/svg">
<rect width="1920" height="1080" fill="#DDDDDD"/>
<g filter="url(#filter0_d_711_39)">
<g clip-path="url(#clip0_711_39)">
<rect x="414.464" y="421.336" width="1049.57" height="381" rx="18" transform="rotate(-7.67947 414.464 421.336)" fill="white"/>
<path d="M527.869 543.045C514.831 544.803 505.305 536.74 503.337 522.141L503.332 522.109C501.364 507.509 508.423 497.275 521.46 495.517C531.597 494.15 540.058 499.37 542.718 508.262L542.82 508.54L535.743 509.495L535.466 508.883C533.21 503.702 528.495 500.994 522.311 501.828C513.768 502.98 509.197 510.478 510.632 521.124L510.637 521.156C512.072 531.803 518.507 537.881 527.018 536.734C533.138 535.908 536.948 532.149 537.883 526.083L537.94 525.784L545.017 524.829L545.028 525.153C544.827 534.495 538.038 541.674 527.869 543.045ZM567.161 537.65C557.534 538.948 550.356 533.132 548.903 522.358L548.894 522.294C547.45 511.584 552.899 504.098 562.431 502.813C571.994 501.523 579.259 507.262 580.707 518.005L580.716 518.068C582.173 528.875 576.756 536.356 567.161 537.65ZM566.414 531.876C571.802 531.149 574.668 526.414 573.671 519.018L573.663 518.955C572.674 511.623 568.596 507.856 563.209 508.582C557.917 509.296 554.95 514.013 555.939 521.344L555.948 521.408C556.949 528.835 561.027 532.602 566.414 531.876ZM588.3 534.118L583.779 500.583L590.664 499.655L591.438 505.393L591.597 505.371C592.152 501.304 594.626 498.471 598.452 497.956C599.44 497.822 600.322 497.866 600.877 497.888L601.741 504.295C601.169 504.145 599.936 504.149 598.597 504.33C594.166 504.927 591.816 508.198 592.491 513.202L595.186 533.189L588.3 534.118ZM622.754 530.154C612.968 531.473 605.941 525.572 604.492 514.83L604.488 514.798C603.056 504.183 608.397 496.614 617.96 495.325C626.599 494.16 632.575 499.002 634 505.236L634.062 505.455L627.495 506.34L627.397 506.094C626.221 502.909 623.297 500.48 618.802 501.086C613.447 501.808 610.574 506.74 611.541 513.912L611.545 513.944C612.534 521.275 616.653 525.102 621.976 524.384C626.216 523.812 628.594 520.992 628.933 517.247L628.931 516.987L635.561 516.093L635.559 516.321C635.733 523.146 630.819 529.066 622.754 530.154ZM642.236 526.845L636.034 480.846L642.919 479.918L645.344 497.897L645.503 497.875C646.764 493.746 650.061 490.997 655.065 490.322C662.238 489.355 667.678 494.074 668.769 502.171L671.563 522.891L664.678 523.819L662.06 504.406C661.312 498.859 658.06 495.922 653.215 496.576C648.465 497.216 645.799 501.276 646.504 506.504L649.122 525.917L642.236 526.845ZM692.756 520.715C683.129 522.013 675.951 516.197 674.498 505.423L674.49 505.359C673.045 494.648 678.495 487.162 688.026 485.877C697.589 484.588 704.854 490.327 706.303 501.069L706.312 501.133C707.769 511.939 702.351 519.421 692.756 520.715ZM692.01 514.941C697.397 514.214 700.264 509.478 699.267 502.083L699.258 502.019C698.27 494.687 694.191 490.921 688.804 491.647C683.513 492.361 680.546 497.077 681.535 504.409L681.543 504.473C682.545 511.9 686.623 515.667 692.01 514.941ZM725.373 476.168C723.46 476.426 721.688 475.074 721.43 473.162C721.168 471.217 722.523 469.476 724.436 469.218C726.38 468.956 728.117 470.28 728.379 472.225C728.637 474.137 727.317 475.905 725.373 476.168ZM727.826 515.304L723.356 482.152L728.903 481.404L733.373 514.556L727.826 515.304ZM752.776 512.589C744.966 513.642 739.711 510.294 738.242 504.455L738.172 504.172L743.719 503.424L743.825 503.734C744.942 506.959 747.658 508.573 752.185 507.962C756.68 507.356 759.104 505.115 758.7 502.118L758.695 502.086C758.373 499.696 756.949 498.524 753.063 498.107L747.631 497.541C741.182 496.885 737.762 494.393 737.117 489.611L737.113 489.58C736.344 483.874 740.802 479.15 747.975 478.183C755.243 477.203 760.437 480.82 761.599 486.31L761.687 486.72L756.395 487.434L756.333 487.215C755.453 484.056 752.71 482.251 748.598 482.805C744.582 483.347 742.357 485.627 742.753 488.559L742.757 488.591C743.062 490.855 744.771 492.215 748.557 492.613L753.989 493.179C760.902 493.902 763.682 496.221 764.318 500.939L764.322 500.971C765.105 506.772 760.172 511.592 752.776 512.589ZM794.503 506.962C787.905 507.852 782.937 504.465 782.124 498.44L782.116 498.377C781.355 492.734 785.277 488.603 792.835 487.129L802.262 485.306L801.888 482.533C801.342 478.485 798.365 476.387 793.743 477.01C789.471 477.586 787.069 479.987 786.831 483.038L786.806 483.333L781.45 484.055L781.435 483.701C781.178 478.185 785.335 473.146 793.145 472.093C800.986 471.035 806.467 474.613 807.361 481.243L810.452 504.163L804.905 504.911L804.179 499.524L804.051 499.541C802.597 503.437 798.934 506.365 794.503 506.962ZM787.798 497.675C788.228 500.863 791.113 502.519 795.098 501.981C800.325 501.276 803.856 497.133 803.207 492.319L802.842 489.61L794.053 491.347C789.657 492.199 787.373 494.519 787.79 497.611L787.798 497.675ZM817.496 503.213L813.026 470.061L818.573 469.313L819.209 474.031L819.336 474.013C820.705 470.681 823.778 467.962 828.815 467.283C836.083 466.303 840.927 470.453 841.946 478.008L844.847 499.525L839.3 500.273L836.532 479.744C835.806 474.357 832.888 471.732 827.787 472.42C822.56 473.124 819.652 477.314 820.412 482.956L823.043 502.465L817.496 503.213ZM879.041 495.563C869.51 496.849 862.874 490.96 861.468 480.536L861.464 480.504C860.08 470.24 864.995 462.404 874.049 461.183C883.102 459.963 889.523 465.945 890.864 475.891L891.139 477.931L867.264 481.15C868.311 487.955 872.61 491.432 878.507 490.637C882.715 490.07 885.396 487.566 885.969 484.6L886.026 484.3L891.477 483.565L891.457 483.893C891.112 489.522 886.277 494.588 879.041 495.563ZM874.679 466.097C869.865 466.746 866.546 470.536 866.775 476.802L884.913 474.356C883.503 467.99 879.524 465.443 874.679 466.097ZM908.56 491.583C901.961 492.473 896.993 489.086 896.18 483.061L896.172 482.997C895.411 477.355 899.333 473.223 906.891 471.75L916.318 469.927L915.944 467.154C915.398 463.105 912.421 461.008 907.799 461.631C903.527 462.207 901.125 464.608 900.887 467.658L900.862 467.954L895.507 468.676L895.491 468.321C895.234 462.806 899.391 457.766 907.201 456.713C915.042 455.656 920.523 459.233 921.417 465.864L924.508 488.783L918.961 489.531L918.235 484.144L918.107 484.161C916.653 488.058 912.99 490.986 908.56 491.583ZM901.855 482.296C902.284 485.484 905.169 487.139 909.154 486.602C914.382 485.897 917.912 481.753 917.263 476.94L916.898 474.23L908.109 475.967C903.713 476.82 901.429 479.14 901.846 482.232L901.855 482.296ZM943.401 486.885C935.591 487.938 930.336 484.59 928.867 478.751L928.797 478.468L934.343 477.72L934.45 478.03C935.567 481.255 938.283 482.869 942.81 482.259C947.304 481.652 949.729 479.411 949.324 476.414L949.32 476.382C948.998 473.992 947.574 472.82 943.688 472.403L938.256 471.837C931.806 471.182 928.387 468.689 927.742 463.907L927.738 463.876C926.968 458.17 931.427 453.446 938.6 452.479C945.868 451.499 951.061 455.116 952.224 460.606L952.311 461.016L947.02 461.73L946.958 461.511C946.078 458.352 943.335 456.547 939.223 457.101C935.206 457.643 932.982 459.923 933.378 462.856L933.382 462.887C933.687 465.151 935.396 466.511 939.182 466.909L944.614 467.475C951.527 468.198 954.307 470.517 954.943 475.235L954.947 475.267C955.729 481.068 950.797 485.888 943.401 486.885ZM966.655 494.46C965.572 494.606 964.375 494.638 963.656 494.605L963.046 490.078C963.537 490.109 964.188 490.119 964.857 490.029C968.363 489.556 970.188 488.401 971.019 484.459L971.435 482.488L954.656 450.963L960.585 450.164L973.456 476.536L973.584 476.519L979.042 447.675L984.875 446.889L976.683 483.858C975.179 490.519 972.648 493.652 966.655 494.46ZM987.916 489.419L988.62 473.453L994.421 472.67L991.869 488.886L987.916 489.419ZM1013.16 476.83L1008.69 443.678L1014.23 442.93L1014.99 448.54L1015.12 448.523C1015.72 444.547 1018.26 441.738 1021.99 441.235C1022.95 441.106 1023.8 441.154 1024.25 441.157L1024.98 446.544C1024.51 446.445 1023.31 446.445 1021.97 446.625C1017.67 447.206 1015.27 450.58 1015.94 455.617L1018.7 476.082L1013.16 476.83ZM1031.2 434.93C1029.29 435.187 1027.52 433.836 1027.26 431.923C1027 429.979 1028.35 428.238 1030.26 427.98C1032.21 427.718 1033.95 429.042 1034.21 430.986C1034.47 432.899 1033.15 434.667 1031.2 434.93ZM1033.65 474.066L1029.18 440.914L1034.73 440.166L1039.2 473.318L1033.65 474.066ZM1059.31 471.256C1050.83 472.4 1044.31 466.398 1042.9 455.943L1042.89 455.911C1041.48 445.455 1046.25 437.964 1054.57 436.842C1059.25 436.21 1063.43 438.049 1066.02 441.595L1066.14 441.578L1063.66 423.185L1069.21 422.437L1075.41 468.435L1069.87 469.183L1069.11 463.573L1068.98 463.59C1067.43 467.726 1064.06 470.616 1059.31 471.256ZM1059.73 466.201C1065.34 465.445 1068.67 460.03 1067.66 452.603L1067.66 452.571C1066.66 445.175 1061.99 440.84 1056.41 441.592C1050.54 442.383 1047.55 447.591 1048.57 455.146L1048.57 455.177C1049.6 462.796 1053.86 466.992 1059.73 466.201ZM1080.8 428.241C1078.89 428.499 1077.12 427.148 1076.86 425.235C1076.6 423.291 1077.95 421.55 1079.86 421.292C1081.81 421.03 1083.55 422.354 1083.81 424.298C1084.07 426.211 1082.75 427.979 1080.8 428.241ZM1083.26 467.378L1078.79 434.226L1084.33 433.478L1088.8 466.63L1083.26 467.378ZM1110.18 464.396C1100.78 465.664 1093.91 459.774 1092.49 449.223L1092.49 449.191C1091.08 438.735 1096.26 431.22 1105.48 429.978C1113.73 428.864 1119.35 433.69 1120.82 439.269L1120.88 439.52L1115.46 440.251L1115.36 440.004C1114.09 436.801 1111.02 434.229 1106.14 434.887C1100.37 435.665 1097.16 440.966 1098.17 448.489L1098.17 448.521C1099.21 456.235 1103.78 460.261 1109.52 459.487C1114.05 458.877 1116.6 455.935 1117.03 452.113L1117.06 451.849L1122.51 451.114L1122.51 451.342C1122.47 457.774 1117.67 463.386 1110.18 464.396ZM1140.47 460.313C1133.2 461.293 1128.35 457.142 1127.33 449.588L1124.43 428.071L1129.98 427.323L1132.75 447.851C1133.47 453.239 1136.39 455.864 1141.49 455.176C1146.72 454.471 1149.63 450.281 1148.87 444.639L1146.24 425.13L1151.78 424.383L1156.25 457.535L1150.71 458.283L1150.07 453.565L1149.94 453.582C1148.58 456.915 1145.5 459.634 1140.47 460.313ZM1163.78 456.52L1157.57 410.522L1163.12 409.774L1169.32 455.772L1163.78 456.52ZM1190.64 453.547C1181.43 454.789 1174.38 448.957 1172.95 438.405L1172.95 438.342C1171.52 427.79 1176.82 420.358 1185.97 419.124C1195.11 417.891 1202.22 423.619 1203.64 434.202L1203.65 434.266C1205.08 444.849 1199.79 452.314 1190.64 453.547ZM1190.01 448.634C1195.84 447.847 1199.03 442.809 1197.98 435.031L1197.97 434.968C1196.92 427.189 1192.49 423.243 1186.63 424.033C1180.86 424.811 1177.57 429.83 1178.62 437.577L1178.63 437.64C1179.68 445.45 1184.14 449.425 1190.01 448.634ZM1222.9 449.197C1215.63 450.177 1210.79 446.027 1209.77 438.472L1206.87 416.955L1212.41 416.207L1215.18 436.736C1215.91 442.123 1218.83 444.748 1223.93 444.06C1229.15 443.356 1232.06 439.166 1231.3 433.524L1228.67 414.015L1234.22 413.267L1238.69 446.419L1233.14 447.167L1232.51 442.449L1232.38 442.467C1231.01 445.799 1227.94 448.518 1222.9 449.197ZM1257.77 444.495C1249.96 445.548 1244.71 442.2 1243.24 436.361L1243.17 436.078L1248.71 435.33L1248.82 435.64C1249.94 438.865 1252.65 440.479 1257.18 439.869C1261.68 439.262 1264.1 437.021 1263.7 434.024L1263.69 433.992C1263.37 431.602 1261.95 430.43 1258.06 430.013L1252.63 429.447C1246.18 428.792 1242.76 426.299 1242.11 421.517L1242.11 421.486C1241.34 415.78 1245.8 411.056 1252.97 410.089C1260.24 409.109 1265.43 412.726 1266.6 418.216L1266.68 418.626L1261.39 419.34L1261.33 419.121C1260.45 415.962 1257.71 414.157 1253.59 414.711C1249.58 415.253 1247.35 417.533 1247.75 420.465L1247.75 420.497C1248.06 422.761 1249.77 424.121 1253.55 424.519L1258.99 425.085C1265.9 425.808 1268.68 428.127 1269.31 432.845L1269.32 432.877C1270.1 438.678 1265.17 443.498 1257.77 444.495ZM1275.32 450.665L1276.02 434.699L1281.82 433.917L1279.27 450.132L1275.32 450.665ZM1310.34 437.407C1303.74 438.297 1298.77 434.91 1297.96 428.885L1297.95 428.821C1297.19 423.179 1301.11 419.047 1308.67 417.574L1318.1 415.751L1317.72 412.978C1317.18 408.929 1314.2 406.832 1309.58 407.455C1305.31 408.031 1302.9 410.432 1302.67 413.482L1302.64 413.778L1297.28 414.5L1297.27 414.145C1297.01 408.63 1301.17 403.59 1308.98 402.537C1316.82 401.48 1322.3 405.057 1323.2 411.688L1326.29 434.607L1320.74 435.355L1320.01 429.968L1319.89 429.985C1318.43 433.882 1314.77 436.81 1310.34 437.407ZM1303.63 428.12C1304.06 431.307 1306.95 432.963 1310.93 432.426C1316.16 431.721 1319.69 427.577 1319.04 422.764L1318.68 420.054L1309.89 421.791C1305.49 422.644 1303.21 424.964 1303.62 428.056L1303.63 428.12ZM1333.33 433.658L1328.86 400.505L1334.41 399.757L1335.04 404.475L1335.17 404.458C1336.54 401.125 1339.61 398.406 1344.65 397.727C1351.92 396.747 1356.76 400.898 1357.78 408.453L1360.68 429.97L1355.13 430.717L1352.37 410.189C1351.64 404.801 1348.72 402.176 1343.62 402.864C1338.39 403.569 1335.49 407.759 1336.25 413.401L1338.88 432.91L1333.33 433.658ZM1380.31 427.972C1371.83 429.116 1365.31 423.114 1363.9 412.659L1363.89 412.627C1362.48 402.171 1367.25 394.68 1375.57 393.558C1380.26 392.926 1384.43 394.765 1387.02 398.311L1387.15 398.294L1384.67 379.9L1390.21 379.153L1396.42 425.151L1390.87 425.899L1390.11 420.289L1389.99 420.306C1388.43 424.442 1385.06 427.332 1380.31 427.972ZM1380.73 422.917C1386.34 422.161 1389.67 416.746 1388.67 409.319L1388.66 409.287C1387.66 401.891 1382.99 397.556 1377.41 398.308C1371.55 399.099 1368.55 404.307 1369.57 411.862L1369.57 411.893C1370.6 419.512 1374.86 423.708 1380.73 422.917ZM518.017 623.31L513.547 590.158L519.093 589.41L519.85 595.02L519.977 595.003C520.577 591.027 523.12 588.218 526.849 587.715C527.806 587.586 528.656 587.634 529.111 587.637L529.837 593.024C529.369 592.925 528.168 592.925 526.83 593.105C522.526 593.686 520.125 597.06 520.804 602.097L523.564 622.562L518.017 623.31ZM536.061 581.41C534.148 581.667 532.375 580.316 532.117 578.403C531.855 576.459 533.211 574.718 535.124 574.46C537.068 574.198 538.804 575.522 539.067 577.466C539.325 579.379 538.005 581.147 536.061 581.41ZM538.514 620.546L534.044 587.394L539.59 586.646L544.061 619.798L538.514 620.546ZM564.165 617.736C555.686 618.88 549.164 612.878 547.755 602.423L547.75 602.391C546.34 591.935 551.108 584.444 559.428 583.322C564.113 582.69 568.289 584.529 570.876 588.075L571.004 588.058L568.524 569.665L574.07 568.917L580.273 614.915L574.726 615.663L573.97 610.053L573.842 610.07C572.29 614.206 568.915 617.096 564.165 617.736ZM564.587 612.681C570.198 611.925 573.525 606.51 572.523 599.083L572.519 599.051C571.522 591.655 566.847 587.32 561.269 588.072C555.404 588.863 552.406 594.071 553.424 601.626L553.429 601.657C554.456 609.276 558.722 613.472 564.587 612.681ZM585.661 574.721C583.749 574.979 581.976 573.628 581.718 571.715C581.456 569.771 582.812 568.03 584.724 567.772C586.669 567.51 588.405 568.834 588.667 570.778C588.925 572.691 587.606 574.459 585.661 574.721ZM588.115 613.858L583.644 580.706L589.191 579.958L593.661 613.11L588.115 613.858ZM615.041 610.876C605.637 612.144 598.774 606.254 597.351 595.702L597.347 595.671C595.937 585.215 601.123 577.7 610.335 576.458C618.591 575.344 624.208 580.17 625.674 585.749L625.741 586L620.321 586.73L620.223 586.484C618.947 583.281 615.874 580.709 610.997 581.367C605.227 582.145 602.015 587.446 603.029 594.969L603.034 595.001C604.074 602.715 608.641 606.741 614.379 605.967C618.906 605.357 621.463 602.415 621.889 598.593L621.918 598.329L627.369 597.594L627.367 597.822C627.326 604.254 622.532 609.866 615.041 610.876ZM645.324 606.793C638.056 607.773 633.212 603.622 632.194 596.068L629.292 574.551L634.839 573.803L637.607 594.331C638.334 599.719 641.252 602.344 646.352 601.656C651.58 600.951 654.488 596.761 653.727 591.119L651.096 571.61L656.643 570.863L661.113 604.015L655.567 604.763L654.93 600.045L654.803 600.062C653.435 603.395 650.361 606.114 645.324 606.793ZM668.636 603L662.434 557.002L667.98 556.254L674.183 602.252L668.636 603ZM695.499 600.027C686.286 601.269 679.236 595.437 677.813 584.885L677.804 584.822C676.382 574.27 681.676 566.838 690.825 565.604C699.973 564.371 707.075 570.099 708.502 580.682L708.511 580.746C709.938 591.329 704.648 598.794 695.499 600.027ZM694.869 595.114C700.702 594.327 703.885 589.289 702.836 581.511L702.828 581.447C701.779 573.669 697.352 569.722 691.487 570.513C685.717 571.291 682.434 576.31 683.479 584.057L683.487 584.12C684.54 591.93 689.003 595.905 694.869 595.114ZM727.758 595.677C720.49 596.657 715.647 592.507 714.628 584.952L711.726 563.435L717.273 562.687L720.041 583.216C720.768 588.603 723.686 591.228 728.786 590.54C734.014 589.836 736.922 585.646 736.161 580.004L733.53 560.495L739.077 559.747L743.547 592.899L738.001 593.647L737.364 588.929L737.237 588.947C735.869 592.279 732.795 594.998 727.758 595.677ZM762.632 590.975C754.822 592.028 749.567 588.68 748.098 582.841L748.027 582.558L753.574 581.81L753.681 582.12C754.797 585.345 757.514 586.959 762.041 586.349C766.535 585.742 768.959 583.501 768.555 580.504L768.551 580.472C768.229 578.082 766.805 576.91 762.919 576.493L757.487 575.927C751.037 575.271 747.618 572.779 746.973 567.997L746.969 567.966C746.199 562.26 750.658 557.536 757.83 556.569C765.098 555.589 770.292 559.206 771.454 564.696L771.542 565.106L766.251 565.82L766.189 565.601C765.308 562.442 762.566 560.637 758.454 561.191C754.437 561.733 752.213 564.013 752.608 566.945L752.613 566.977C752.918 569.241 754.627 570.601 758.413 570.999L763.845 571.565C770.758 572.288 773.537 574.607 774.173 579.325L774.178 579.357C774.96 585.158 770.027 589.978 762.632 590.975ZM781.481 587.784L775.278 541.786L780.825 541.038L787.028 587.036L781.481 587.784ZM799.211 596.753C798.127 596.9 796.93 596.931 796.212 596.898L795.601 592.372C796.092 592.403 796.743 592.412 797.412 592.322C800.919 591.849 802.743 590.695 803.575 586.753L803.99 584.781L787.211 553.257L793.14 552.457L806.012 578.829L806.139 578.812L811.597 549.968L817.431 549.182L809.238 586.151C807.735 592.813 805.204 595.945 799.211 596.753ZM853.386 578.738C843.855 580.023 837.218 574.134 835.813 563.71L835.809 563.679C834.425 553.414 839.34 545.578 848.393 544.358C857.446 543.137 863.868 549.119 865.209 559.065L865.484 561.105L841.608 564.325C842.655 571.129 846.954 574.607 852.851 573.811C857.059 573.244 859.74 570.74 860.314 567.774L860.371 567.475L865.822 566.74L865.801 567.067C865.457 572.696 860.622 577.762 853.386 578.738ZM849.023 549.271C844.21 549.92 840.891 553.711 841.119 559.976L859.257 557.531C857.847 551.165 853.868 548.618 849.023 549.271ZM882.904 574.757C876.306 575.647 871.337 572.26 870.525 566.235L870.516 566.171C869.756 560.529 873.677 556.398 881.236 554.924L890.662 553.101L890.288 550.328C889.742 546.28 886.766 544.182 882.143 544.805C877.872 545.381 875.469 547.782 875.232 550.833L875.206 551.128L869.851 551.85L869.836 551.495C869.579 545.98 873.735 540.941 881.545 539.887C889.387 538.83 894.868 542.408 895.762 549.038L898.852 571.958L893.306 572.706L892.579 567.319L892.452 567.336C890.997 571.232 887.335 574.16 882.904 574.757ZM876.199 565.47C876.629 568.658 879.514 570.314 883.498 569.776C888.726 569.071 892.257 564.928 891.608 560.114L891.242 557.405L882.454 559.142C878.057 559.994 875.774 562.314 876.19 565.406L876.199 565.47ZM917.746 570.059C909.936 571.112 904.681 567.764 903.212 561.925L903.141 561.643L908.688 560.895L908.795 561.205C909.911 564.43 912.628 566.043 917.154 565.433C921.649 564.827 924.073 562.585 923.669 559.589L923.665 559.557C923.342 557.166 921.919 555.995 918.032 555.577L912.601 555.012C906.151 554.356 902.731 551.863 902.087 547.082L902.082 547.05C901.313 541.344 905.772 536.621 912.944 535.654C920.212 534.674 925.406 538.29 926.568 543.781L926.656 544.191L921.364 544.904L921.302 544.686C920.422 541.526 917.68 539.721 913.567 540.276C909.551 540.817 907.327 543.097 907.722 546.03L907.726 546.062C908.032 548.325 909.74 549.685 913.527 550.083L918.958 550.649C925.872 551.372 928.651 553.691 929.287 558.409L929.292 558.441C930.074 564.243 925.141 569.062 917.746 570.059ZM941 577.634C939.916 577.781 938.719 577.812 938.001 577.779L937.391 573.253C937.882 573.284 938.532 573.293 939.202 573.203C942.708 572.73 944.532 571.576 945.364 567.634L945.78 565.663L929 534.138L934.93 533.338L947.801 559.71L947.928 559.693L953.386 530.849L959.22 530.063L951.027 567.032C949.524 573.694 946.993 576.826 941 577.634ZM988.012 559.935L974.266 528.034L979.781 527.29L990.047 553.364L990.175 553.347L994.03 525.369L999.385 524.647L1010.54 550.601L1010.67 550.583L1013.67 522.721L1019.15 521.982L1014.37 556.381L1008.73 557.142L997.781 532.491L997.654 532.508L993.655 559.175L988.012 559.935ZM1037.32 553.936C1030.72 554.826 1025.75 551.439 1024.94 545.414L1024.93 545.35C1024.17 539.708 1028.09 535.577 1035.65 534.103L1045.07 532.28L1044.7 529.507C1044.15 525.459 1041.18 523.361 1036.56 523.984C1032.28 524.56 1029.88 526.961 1029.64 530.012L1029.62 530.307L1024.26 531.029L1024.25 530.674C1023.99 525.159 1028.15 520.12 1035.96 519.066C1043.8 518.009 1049.28 521.587 1050.17 528.217L1053.26 551.137L1047.72 551.885L1046.99 546.497L1046.86 546.515C1045.41 550.411 1041.75 553.339 1037.32 553.936ZM1030.61 544.649C1031.04 547.837 1033.93 549.493 1037.91 548.955C1043.14 548.25 1046.67 544.107 1046.02 539.293L1045.65 536.584L1036.87 538.321C1032.47 539.173 1030.19 541.493 1030.6 544.585L1030.61 544.649ZM1065 560.914C1063.92 561.06 1062.72 561.092 1062 561.059L1061.39 556.532C1061.88 556.563 1062.53 556.573 1063.2 556.483C1066.71 556.01 1068.53 554.855 1069.37 550.913L1069.78 548.942L1053 517.417L1058.93 516.618L1071.8 542.99L1071.93 542.972L1077.39 514.129L1083.22 513.342L1075.03 550.312C1073.53 556.973 1070.99 560.106 1065 560.914ZM1116.31 543.285C1110.22 544.106 1106.85 541.769 1106 535.425L1103.29 515.311L1098.44 515.964L1097.82 511.374L1102.67 510.72L1101.46 501.763L1107.2 500.989L1108.4 509.947L1114.72 509.096L1115.34 513.686L1109.02 514.537L1111.73 534.62C1112.21 538.158 1113.9 538.936 1116.87 538.536C1117.54 538.446 1118.16 538.264 1118.64 538.168L1119.24 542.662C1118.55 542.852 1117.39 543.139 1116.31 543.285ZM1138.02 540.358C1128.8 541.6 1121.75 535.767 1120.33 525.216L1120.32 525.152C1118.9 514.601 1124.19 507.169 1133.34 505.935C1142.49 504.701 1149.59 510.43 1151.02 521.013L1151.03 521.077C1152.45 531.66 1147.16 539.124 1138.02 540.358ZM1137.39 535.445C1143.22 534.658 1146.4 529.62 1145.35 521.842L1145.35 521.778C1144.3 514 1139.87 510.053 1134 510.844C1128.23 511.622 1124.95 516.641 1126 524.387L1126 524.451C1127.06 532.261 1131.52 536.236 1137.39 535.445ZM1186.09 533.876C1176.68 535.144 1169.82 529.254 1168.4 518.702L1168.39 518.671C1166.98 508.215 1172.17 500.7 1181.38 499.457C1189.64 498.344 1195.25 503.169 1196.72 508.749L1196.79 509L1191.37 509.73L1191.27 509.484C1189.99 506.281 1186.92 503.709 1182.04 504.367C1176.27 505.145 1173.06 510.446 1174.08 517.969L1174.08 518.001C1175.12 525.715 1179.69 529.741 1185.42 528.967C1189.95 528.357 1192.51 525.415 1192.93 521.593L1192.96 521.329L1198.41 520.594L1198.41 520.822C1198.37 527.254 1193.58 532.866 1186.09 533.876ZM1204.97 530.681L1200.5 497.529L1206.04 496.781L1206.8 502.391L1206.93 502.374C1207.53 498.399 1210.07 495.589 1213.8 495.086C1214.76 494.957 1215.61 495.005 1216.06 495.008L1216.79 500.396C1216.32 500.296 1215.12 500.296 1213.78 500.477C1209.48 501.057 1207.08 504.432 1207.75 509.468L1210.51 529.933L1204.97 530.681ZM1237.25 526.977C1227.72 528.263 1221.08 522.374 1219.68 511.95L1219.67 511.918C1218.29 501.654 1223.2 493.818 1232.26 492.597C1241.31 491.377 1247.73 497.359 1249.07 507.305L1249.35 509.345L1225.47 512.564C1226.52 519.369 1230.82 522.846 1236.72 522.051C1240.92 521.484 1243.6 518.98 1244.18 516.014L1244.23 515.714L1249.69 514.979L1249.66 515.307C1249.32 520.936 1244.49 526.002 1237.25 526.977ZM1232.89 497.511C1228.07 498.16 1224.75 501.95 1224.98 508.216L1243.12 505.77C1241.71 499.404 1237.73 496.857 1232.89 497.511ZM1266.77 522.997C1260.17 523.887 1255.2 520.5 1254.39 514.475L1254.38 514.411C1253.62 508.769 1257.54 504.637 1265.1 503.164L1274.53 501.341L1274.15 498.568C1273.61 494.519 1270.63 492.422 1266.01 493.045C1261.74 493.621 1259.33 496.022 1259.1 499.072L1259.07 499.368L1253.71 500.09L1253.7 499.735C1253.44 494.22 1257.6 489.18 1265.41 488.127C1273.25 487.07 1278.73 490.647 1279.63 497.278L1282.72 520.197L1277.17 520.945L1276.44 515.558L1276.32 515.575C1274.86 519.472 1271.2 522.4 1266.77 522.997ZM1260.06 513.71C1260.49 516.897 1263.38 518.553 1267.36 518.016C1272.59 517.311 1276.12 513.167 1275.47 508.354L1275.11 505.644L1266.32 507.381C1261.92 508.234 1259.64 510.554 1260.05 513.646L1260.06 513.71ZM1300.62 518.432C1294.53 519.253 1291.17 516.916 1290.31 510.572L1287.6 490.458L1282.75 491.111L1282.13 486.521L1286.98 485.868L1285.77 476.91L1291.51 476.136L1292.72 485.094L1299.03 484.243L1299.65 488.833L1293.34 489.684L1296.04 509.767C1296.52 513.305 1298.22 514.083 1301.18 513.683C1301.85 513.593 1302.48 513.411 1302.95 513.315L1303.56 517.809C1302.87 518 1301.7 518.286 1300.62 518.432ZM1322.23 515.518C1312.7 516.803 1306.07 510.915 1304.66 500.491L1304.66 500.459C1303.27 490.194 1308.19 482.359 1317.24 481.138C1326.29 479.917 1332.72 485.9 1334.06 495.845L1334.33 497.886L1310.46 501.105C1311.5 507.909 1315.8 511.387 1321.7 510.592C1325.91 510.024 1328.59 507.521 1329.16 504.555L1329.22 504.255L1334.67 503.52L1334.65 503.847C1334.3 509.476 1329.47 514.542 1322.23 515.518ZM1317.87 486.051C1313.06 486.7 1309.74 490.491 1309.97 496.757L1328.1 494.311C1326.69 487.945 1322.72 485.398 1317.87 486.051ZM540.423 700.653C532.613 701.706 527.358 698.357 525.889 692.518L525.818 692.236L531.365 691.488L531.471 691.798C532.588 695.023 535.305 696.637 539.831 696.026C544.326 695.42 546.75 693.178 546.346 690.182L546.342 690.15C546.019 687.759 544.595 686.588 540.709 686.171L535.278 685.605C528.828 684.949 525.408 682.457 524.763 677.675L524.759 677.643C523.99 671.937 528.449 667.214 535.621 666.247C542.889 665.267 548.083 668.883 549.245 674.374L549.333 674.784L544.041 675.498L543.979 675.279C543.099 672.12 540.356 670.315 536.244 670.869C532.228 671.411 530.003 673.691 530.399 676.623L530.403 676.655C530.708 678.918 532.417 680.278 536.203 680.677L541.635 681.242C548.549 681.966 551.328 684.285 551.964 689.002L551.968 689.034C552.751 694.836 547.818 699.656 540.423 700.653ZM559.272 697.462L553.069 651.463L558.616 650.716L564.818 696.714L559.272 697.462ZM570.206 656.52C568.294 656.778 566.521 655.427 566.263 653.514C566.001 651.57 567.357 649.829 569.269 649.571C571.214 649.309 572.95 650.633 573.213 652.577C573.47 654.49 572.151 656.258 570.206 656.52ZM572.66 695.657L568.19 662.505L573.736 661.757L578.206 694.909L572.66 695.657ZM598.311 692.847C589.832 693.99 583.31 687.989 581.901 677.533L581.896 677.501C580.486 667.046 585.254 659.555 593.573 658.433C598.259 657.801 602.435 659.64 605.022 663.185L605.15 663.168L602.67 644.775L608.216 644.027L614.419 690.026L608.872 690.774L608.116 685.163L607.988 685.181C606.436 689.317 603.061 692.207 598.311 692.847ZM598.733 687.792C604.343 687.035 607.67 681.621 606.669 674.193L606.665 674.162C605.667 666.766 600.993 662.431 595.415 663.183C589.549 663.974 586.552 669.181 587.57 676.736L587.575 676.768C588.602 684.387 592.868 688.583 598.733 687.792ZM635.639 687.814C626.108 689.099 619.472 683.21 618.066 672.786L618.062 672.755C616.678 662.49 621.593 654.654 630.646 653.434C639.7 652.213 646.121 658.195 647.462 668.141L647.737 670.181L623.861 673.401C624.909 680.205 629.208 683.683 635.105 682.887C639.313 682.32 641.994 679.816 642.567 676.85L642.624 676.551L648.075 675.816L648.054 676.143C647.71 681.772 642.875 686.838 635.639 687.814ZM631.277 658.347C626.463 658.996 623.144 662.787 623.373 669.053L641.511 666.607C640.1 660.241 636.122 657.694 631.277 658.347ZM667.229 683.554C659.42 684.607 654.164 681.259 652.696 675.42L652.625 675.137L658.172 674.389L658.278 674.699C659.395 677.924 662.112 679.538 666.638 678.928C671.133 678.322 673.557 676.08 673.153 673.083L673.148 673.051C672.826 670.661 671.402 669.489 667.516 669.072L662.085 668.506C655.635 667.851 652.215 665.358 651.57 660.577L651.566 660.545C650.797 654.839 655.256 650.115 662.428 649.148C669.696 648.168 674.89 651.785 676.052 657.275L676.14 657.686L670.848 658.399L670.786 658.18C669.906 655.021 667.163 653.216 663.051 653.77C659.035 654.312 656.81 656.592 657.206 659.525L657.21 659.556C657.515 661.82 659.224 663.18 663.01 663.578L668.442 664.144C675.355 664.867 678.135 667.186 678.771 671.904L678.775 671.936C679.558 677.737 674.625 682.557 667.229 683.554ZM686.078 680.363L679.876 634.365L685.423 633.617L687.868 651.755L687.996 651.738C689.278 647.767 692.584 645.082 697.525 644.416C704.569 643.466 710.118 648.268 711.201 656.301L713.939 676.607L708.392 677.354L705.783 658.005C704.975 652.012 701.438 648.887 696.274 649.583C691.142 650.275 688.255 654.624 689.016 660.266L691.625 679.615L686.078 680.363ZM734.809 674.442C725.596 675.684 718.546 669.851 717.123 659.3L717.114 659.236C715.692 648.685 720.986 641.252 730.135 640.019C739.283 638.785 746.385 644.514 747.812 655.097L747.821 655.161C749.248 665.744 743.958 673.208 734.809 674.442ZM734.179 669.528C740.012 668.742 743.195 663.704 742.146 655.926L742.138 655.862C741.089 648.084 736.662 644.137 730.797 644.928C725.027 645.706 721.744 650.725 722.788 658.471L722.797 658.535C723.85 666.345 728.313 670.319 734.179 669.528ZM762.233 670.095L748.486 638.193L754.001 637.45L764.268 663.524L764.395 663.506L768.25 635.528L773.605 634.806L784.765 660.76L784.892 660.743L787.886 632.881L793.369 632.141L788.595 666.54L782.953 667.301L772.002 642.65L771.874 642.667L767.875 669.334L762.233 670.095ZM814.246 663.73C806.437 664.783 801.181 661.435 799.713 655.596L799.642 655.313L805.189 654.565L805.295 654.876C806.412 658.101 809.129 659.714 813.655 659.104C818.15 658.498 820.574 656.256 820.17 653.259L820.165 653.228C819.843 650.837 818.419 649.666 814.533 649.248L809.102 648.682C802.652 648.027 799.232 645.534 798.587 640.753L798.583 640.721C797.814 635.015 802.273 630.292 809.445 629.324C816.713 628.344 821.907 631.961 823.069 637.452L823.157 637.862L817.865 638.575L817.803 638.356C816.923 635.197 814.18 633.392 810.068 633.947C806.052 634.488 803.827 636.768 804.223 639.701L804.227 639.733C804.532 641.996 806.241 643.356 810.027 643.754L815.459 644.32C822.372 645.043 825.152 647.362 825.788 652.08L825.792 652.112C826.575 657.913 821.642 662.733 814.246 663.73ZM852.764 657.887L839.017 625.986L844.532 625.242L854.799 651.316L854.926 651.299L858.781 623.321L864.136 622.599L875.296 648.553L875.423 648.535L878.417 620.673L883.9 619.934L879.126 654.333L873.484 655.093L862.532 630.443L862.405 630.46L858.406 657.127L852.764 657.887ZM890.826 613.288C888.913 613.546 887.141 612.194 886.883 610.282C886.621 608.337 887.976 606.596 889.889 606.339C891.833 606.076 893.57 607.4 893.832 609.345C894.09 611.257 892.77 613.026 890.826 613.288ZM893.279 652.424L888.809 619.272L894.356 618.524L898.826 651.676L893.279 652.424ZM917.241 649.842C911.153 650.663 907.787 648.326 906.931 641.982L904.219 621.868L899.374 622.521L898.755 617.931L903.6 617.278L902.392 608.32L908.13 607.547L909.338 616.504L915.65 615.653L916.269 620.243L909.957 621.094L912.665 641.177C913.142 644.715 914.837 645.493 917.802 645.093C918.471 645.003 919.096 644.821 919.57 644.725L920.176 649.219C919.487 649.41 918.325 649.696 917.241 649.842ZM926.368 647.963L920.165 601.964L925.712 601.216L928.158 619.354L928.285 619.337C929.567 615.367 932.873 612.681 937.814 612.015C944.859 611.065 950.407 615.867 951.49 623.9L954.228 644.206L948.682 644.954L946.073 625.604C945.264 619.611 941.727 616.486 936.563 617.182C931.431 617.874 928.544 622.223 929.305 627.865L931.914 647.215L926.368 647.963ZM975.522 641.335L969.32 595.336L997.244 591.571L997.94 596.735L975.754 599.726L977.886 615.537L998.255 612.791L998.943 617.891L978.574 620.638L981.26 640.561L975.522 641.335ZM1007.05 597.616C1005.14 597.874 1003.36 596.523 1003.11 594.61C1002.84 592.666 1004.2 590.925 1006.11 590.667C1008.06 590.405 1009.79 591.728 1010.06 593.673C1010.31 595.586 1008.99 597.354 1007.05 597.616ZM1009.5 636.753L1005.03 603.6L1010.58 602.853L1015.05 636.005L1009.5 636.753ZM1038.22 644.889C1030.03 645.994 1024.34 642.833 1022.6 638.07L1022.5 637.792L1028.07 637.04L1028.24 637.309C1029.62 639.558 1032.97 640.599 1037.5 639.989C1043.33 639.202 1046.21 635.536 1045.52 630.403L1044.95 626.164L1044.82 626.181C1043.34 630.113 1039.83 632.988 1035.08 633.628C1026.73 634.755 1020.11 628.798 1018.72 618.438L1018.71 618.406C1017.33 608.11 1022.19 600.637 1030.61 599.503C1035.29 598.871 1039.34 600.922 1041.87 604.345L1042 604.328L1041.25 598.718L1046.79 597.97L1051.14 630.197C1052.17 637.88 1047.21 643.677 1038.22 644.889ZM1035.63 628.556C1041.27 627.795 1044.45 622.466 1043.45 615.102L1043.45 615.07C1042.47 607.771 1037.96 603.509 1032.35 604.266C1026.46 605.061 1023.39 610.277 1024.39 617.641L1024.39 617.673C1025.41 625.196 1029.73 629.351 1035.63 628.556ZM1058.43 630.155L1053.96 597.003L1059.51 596.255L1060.16 601.1L1060.29 601.083C1061.35 597.597 1064.37 594.951 1068.64 594.375C1073.16 593.764 1076.82 595.64 1078.8 599.495L1078.93 599.478C1080.24 595.244 1083.81 592.329 1088.46 591.701C1095.03 590.816 1099.85 594.548 1100.74 601.146L1103.83 624.034L1098.28 624.782L1095.37 603.169C1094.75 598.611 1091.87 596.241 1087.5 596.83C1083.1 597.423 1080.45 601.123 1081.06 605.65L1083.9 626.72L1078.36 627.468L1075.36 605.25C1074.82 601.233 1071.79 598.949 1067.67 599.503C1063.27 600.096 1060.56 604.001 1061.18 608.623L1063.98 629.407L1058.43 630.155ZM1120.68 622.41C1114.08 623.3 1109.11 619.913 1108.3 613.888L1108.29 613.825C1107.53 608.182 1111.45 604.051 1119.01 602.577L1128.44 600.754L1128.06 597.981C1127.52 593.933 1124.54 591.835 1119.92 592.458C1115.65 593.034 1113.25 595.435 1113.01 598.486L1112.98 598.781L1107.63 599.503L1107.61 599.149C1107.36 593.633 1111.51 588.594 1119.32 587.541C1127.16 586.483 1132.64 590.061 1133.54 596.691L1136.63 619.611L1131.08 620.359L1130.36 614.972L1130.23 614.989C1128.77 618.885 1125.11 621.813 1120.68 622.41ZM1113.98 613.123C1114.41 616.311 1117.29 617.967 1121.27 617.429C1126.5 616.724 1130.03 612.581 1129.38 607.767L1129.02 605.058L1120.23 606.795C1115.83 607.647 1113.55 609.967 1113.97 613.059L1113.98 613.123ZM1147.14 618.647C1145.1 618.922 1143.3 617.543 1143.02 615.503C1142.75 613.463 1144.12 611.654 1146.16 611.379C1148.2 611.104 1150.01 612.483 1150.29 614.523C1150.56 616.563 1149.18 618.372 1147.14 618.647Z" fill="black"/>
</g>
</g>
<defs>
<filter id="filter0_d_711_39" x="411.464" y="281.081" width="1097.07" height="523.838" filterUnits="userSpaceOnUse" color-interpolation-filters="sRGB">
<feFlood flood-opacity="0" result="BackgroundImageFix"/>
<feColorMatrix in="SourceAlpha" type="matrix" values="0 0 0 0 0 0 0 0 0 0 0 0 0 0 0 0 0 0 127 0" result="hardAlpha"/>
<feOffset dy="3"/>
<feGaussianBlur stdDeviation="1.5"/>
<feComposite in2="hardAlpha" operator="out"/>
<feColorMatrix type="matrix" values="0 0 0 0 0 0 0 0 0 0 0 0 0 0 0 0 0 0 0.25 0"/>
<feBlend mode="normal" in2="BackgroundImageFix" result="effect1_dropShadow_711_39"/>
<feBlend mode="normal" in="SourceGraphic" in2="effect1_dropShadow_711_39" result="shape"/>
</filter>
<clipPath id="clip0_711_39">
<rect x="414.464" y="421.336" width="1049.57" height="381" rx="18" transform="rotate(-7.67947 414.464 421.336)" fill="white"/>
</clipPath>
</defs>
</svg>
