<svg width="1920" height="1080" viewBox="0 0 1920 1080" fill="none" xmlns="http://www.w3.org/2000/svg">
<rect width="1920" height="1080" fill="#DDDDDD"/>
<g filter="url(#filter0_d_711_80)">
<g clip-path="url(#clip0_711_80)">
<rect x="374.09" y="290.896" width="1237" height="302" rx="18" transform="rotate(9.31338 374.09 290.896)" fill="white"/>
<path d="M427.102 436.393L434.613 390.59L464.609 395.509L463.313 403.413L442.903 400.066L440.888 412.35L459.521 415.405L458.277 422.992L439.644 419.936L436.688 437.965L427.102 436.393ZM476.536 445.217C466.188 443.52 460.769 435.819 462.586 424.741L462.596 424.678C464.392 413.727 472.156 408.123 482.313 409.789C492.502 411.459 498.112 419.192 496.306 430.206L496.295 430.27C494.473 441.379 486.82 446.904 476.536 445.217ZM477.76 437.954C482.267 438.693 485.78 435.358 486.868 428.724L486.878 428.66C487.956 422.09 485.629 417.797 481.121 417.057C476.646 416.323 473.101 419.653 472.023 426.224L472.013 426.287C470.92 432.953 473.189 437.204 477.76 437.954ZM498.52 448.106L506.032 402.303L515.3 403.823L507.789 449.626L498.52 448.106ZM514.264 450.687L521.775 404.884L531.044 406.404L523.532 452.207L514.264 450.687ZM545.288 456.492C534.94 454.795 529.521 447.094 531.338 436.016L531.348 435.953C533.144 425.002 540.908 419.398 551.065 421.064C561.255 422.735 566.864 430.467 565.058 441.481L565.047 441.545C563.225 452.654 555.572 458.179 545.288 456.492ZM546.512 449.229C551.019 449.968 554.532 446.633 555.62 439.999L555.63 439.935C556.708 433.365 554.381 429.072 549.873 428.332C545.398 427.598 541.853 430.929 540.775 437.499L540.765 437.562C539.672 444.228 541.941 448.479 546.512 449.229ZM573.367 460.38L569.901 424.87L579.233 426.4L580.236 452.478L580.427 452.509L590.596 428.264L599.484 429.721L601.408 455.95L601.598 455.981L610.911 431.595L620.052 433.094L605.457 465.643L595.586 464.024L593.374 438.954L593.183 438.923L583.111 461.978L573.367 460.38ZM642.618 472.389C636.555 471.395 634.019 468.176 635.055 461.859L638.34 441.83L633.515 441.039L634.265 436.468L639.089 437.259L640.552 428.34L646.266 429.277L644.803 438.196L651.088 439.227L650.338 443.798L644.053 442.767L640.774 462.764C640.196 466.288 641.59 467.527 644.542 468.011C645.208 468.12 645.859 468.129 646.34 468.175L645.606 472.651C644.892 472.632 643.697 472.566 642.618 472.389ZM651.895 473.258L659.407 427.455L664.93 428.361L661.968 446.422L662.095 446.443C664.481 443.021 668.427 441.419 673.347 442.226C680.362 443.376 684.265 449.59 682.953 457.589L679.637 477.808L674.114 476.902L677.274 457.635C678.253 451.668 675.783 447.645 670.641 446.801C665.531 445.963 661.499 449.279 660.578 454.897L657.418 474.164L651.895 473.258ZM700.134 481.821C690.643 480.265 686.017 472.694 687.719 462.314L687.725 462.283C689.401 452.062 696.392 446.005 705.406 447.483C714.421 448.961 718.814 456.559 717.19 466.463L716.857 468.494L693.082 464.595C692.095 471.409 695.19 475.991 701.062 476.954C705.252 477.641 708.548 476.03 709.963 473.361L710.105 473.091L715.533 473.981L715.417 474.288C713.443 479.571 707.339 483.003 700.134 481.821ZM704.573 452.366C699.78 451.58 695.498 454.235 693.885 460.294L711.946 463.256C712.458 456.756 709.398 453.157 704.573 452.366ZM742.753 448.523C740.848 448.211 739.548 446.4 739.86 444.496C740.178 442.559 741.983 441.291 743.888 441.603C745.824 441.921 747.098 443.694 746.78 445.631C746.468 447.535 744.689 448.84 742.753 448.523ZM733.661 486.668L739.075 453.657L744.598 454.562L739.184 487.574L733.661 486.668ZM746.707 488.807L752.121 455.796L757.644 456.702L756.874 461.4L757.001 461.42C759.283 458.633 763.017 456.931 768.032 457.754C775.269 458.94 778.689 464.325 777.455 471.848L773.941 493.274L768.418 492.368L771.771 471.926C772.65 466.562 770.627 463.199 765.548 462.366C760.343 461.512 756.337 464.669 755.416 470.287L752.23 489.713L746.707 488.807ZM792.597 496.985C784.82 495.709 780.773 490.971 781.075 484.958L781.09 484.667L786.613 485.573L786.624 485.901C786.749 489.311 788.876 491.648 793.383 492.388C797.859 493.121 800.832 491.686 801.321 488.702L801.327 488.671C801.717 486.29 800.698 484.754 797.103 483.219L792.074 481.09C786.097 478.578 783.556 475.195 784.336 470.434L784.342 470.402C785.273 464.721 790.918 461.507 798.06 462.678C805.297 463.865 809.207 468.841 808.714 474.432L808.678 474.85L803.409 473.986L803.414 473.758C803.495 470.479 801.4 467.952 797.305 467.28C793.306 466.625 790.512 468.155 790.033 471.075L790.028 471.107C789.659 473.36 790.895 475.16 794.4 476.648L799.429 478.776C805.829 481.488 807.809 484.518 807.039 489.216L807.034 489.248C806.086 495.025 799.961 498.192 792.597 496.985ZM821.894 501.789C815.831 500.795 813.295 497.576 814.331 491.26L817.616 471.231L812.791 470.439L813.541 465.869L818.365 466.66L819.828 457.741L825.542 458.678L824.079 467.597L830.364 468.628L829.614 473.198L823.329 472.168L820.05 492.165C819.472 495.688 820.866 496.927 823.818 497.411C824.485 497.521 825.135 497.53 825.616 497.576L824.882 502.051C824.168 502.032 822.973 501.966 821.894 501.789ZM830.886 502.612L836.299 469.601L841.823 470.507L840.906 476.093L841.033 476.114C842.769 472.487 846.021 470.543 849.735 471.152C850.687 471.309 851.487 471.603 851.921 471.739L851.041 477.103C850.622 476.872 849.474 476.52 848.141 476.302C843.856 475.599 840.573 478.125 839.751 483.14L836.409 503.518L830.886 502.612ZM862.111 508.385C854.873 507.198 851.454 501.813 852.688 494.29L856.201 472.865L861.724 473.771L858.372 494.212C857.492 499.576 859.516 502.94 864.594 503.773C869.8 504.626 873.805 501.469 874.727 495.851L877.913 476.425L883.436 477.331L878.022 510.342L872.499 509.437L873.269 504.739L873.142 504.718C870.86 507.505 867.126 509.207 862.111 508.385ZM898.804 514.402C889.44 512.867 884.598 505.228 886.321 494.721L886.326 494.689C888.033 484.278 895.189 478.607 904.362 480.111C912.583 481.459 916.544 487.715 916.316 493.48L916.306 493.739L910.91 492.854L910.888 492.59C910.604 489.153 908.417 485.796 903.561 484.999C897.815 484.057 893.194 488.188 891.965 495.679L891.96 495.711C890.7 503.393 893.892 508.577 899.605 509.514C904.113 510.253 907.418 508.188 908.942 504.657L909.047 504.413L914.475 505.303L914.407 505.52C912.487 511.659 906.263 515.626 898.804 514.402ZM928.419 519.259C922.356 518.265 919.82 515.046 920.856 508.729L924.14 488.7L919.316 487.909L920.065 483.338L924.89 484.129L926.353 475.21L932.066 476.147L930.604 485.066L936.888 486.097L936.139 490.668L929.854 489.637L926.575 509.634C925.997 513.158 927.391 514.397 930.343 514.881C931.009 514.99 931.66 514.999 932.141 515.045L931.407 519.521C930.693 519.502 929.498 519.436 928.419 519.259ZM946.851 481.994C944.946 481.682 943.646 479.871 943.958 477.967C944.276 476.031 946.081 474.762 947.986 475.075C949.922 475.392 951.196 477.166 950.878 479.102C950.566 481.006 948.787 482.312 946.851 481.994ZM937.76 520.139L943.173 487.128L948.696 488.034L943.283 521.045L937.76 520.139ZM964.382 525.157C955.208 523.653 950.17 516.014 951.893 505.507L951.904 505.444C953.627 494.938 960.862 489.377 969.972 490.871C979.082 492.365 984.199 499.919 982.471 510.457L982.46 510.52C980.732 521.059 973.492 526.651 964.382 525.157ZM965.215 520.274C971.024 521.227 975.54 517.339 976.81 509.594L976.821 509.53C978.091 501.785 975.011 496.717 969.17 495.759C963.425 494.817 958.819 498.657 957.554 506.371L957.543 506.434C956.268 514.211 959.375 519.316 965.215 520.274ZM985.34 527.942L990.754 494.931L996.277 495.837L995.506 500.534L995.633 500.555C997.916 497.768 1001.65 496.066 1006.67 496.888C1013.9 498.075 1017.32 503.46 1016.09 510.983L1012.57 532.408L1007.05 531.503L1010.4 511.061C1011.28 505.697 1009.26 502.334 1004.18 501.501C998.976 500.647 994.97 503.804 994.049 509.422L990.863 528.848L985.34 527.942ZM1031.23 536.12C1023.45 534.844 1019.41 530.106 1019.71 524.093L1019.72 523.802L1025.25 524.708L1025.26 525.036C1025.38 528.446 1027.51 530.783 1032.02 531.522C1036.49 532.256 1039.46 530.821 1039.95 527.837L1039.96 527.805C1040.35 525.425 1039.33 523.889 1035.74 522.354L1030.71 520.225C1024.73 517.713 1022.19 514.33 1022.97 509.569L1022.97 509.537C1023.91 503.855 1029.55 500.642 1036.69 501.813C1043.93 503 1047.84 507.976 1047.35 513.567L1047.31 513.985L1042.04 513.12L1042.05 512.893C1042.13 509.614 1040.03 507.087 1035.94 506.415C1031.94 505.759 1029.15 507.29 1028.67 510.21L1028.66 510.242C1028.29 512.495 1029.53 514.295 1033.03 515.783L1038.06 517.911C1044.46 520.623 1046.44 523.653 1045.67 528.351L1045.67 528.383C1044.72 534.16 1038.59 537.327 1031.23 536.12ZM1073.86 543.111C1067.8 542.116 1065.26 538.897 1066.3 532.581L1069.58 512.552L1064.76 511.761L1065.51 507.19L1070.33 507.981L1071.79 499.062L1077.51 499.999L1076.04 508.918L1082.33 509.949L1081.58 514.519L1075.29 513.489L1072.01 533.486C1071.44 537.009 1072.83 538.248 1075.78 538.732C1076.45 538.842 1077.1 538.851 1077.58 538.897L1076.85 543.373C1076.13 543.353 1074.94 543.288 1073.86 543.111ZM1083.14 543.98L1090.65 498.177L1096.17 499.083L1093.21 517.144L1093.34 517.165C1095.72 513.742 1099.67 512.14 1104.59 512.947C1111.6 514.098 1115.51 520.312 1114.19 528.31L1110.88 548.53L1105.35 547.624L1108.51 528.357C1109.49 522.39 1107.02 518.366 1101.88 517.523C1096.77 516.685 1092.74 520.001 1091.82 525.619L1088.66 544.886L1083.14 543.98ZM1127.44 551.897C1120.87 550.82 1117.11 546.129 1118.09 540.13L1118.1 540.066C1119.02 534.448 1123.98 531.643 1131.64 532.443L1141.19 533.454L1141.64 530.693C1142.3 526.662 1140.07 523.785 1135.46 523.031C1131.21 522.333 1128.21 523.927 1127.09 526.775L1126.98 527.05L1121.65 526.176L1121.74 525.832C1123.1 520.482 1128.55 516.877 1136.33 518.153C1144.14 519.433 1148.33 524.457 1147.25 531.059L1143.51 553.881L1137.99 552.975L1138.86 547.611L1138.74 547.59C1136.21 550.891 1131.85 552.621 1127.44 551.897ZM1123.74 541.056C1123.22 544.23 1125.49 546.657 1129.46 547.308C1134.67 548.161 1139.26 545.23 1140.04 540.437L1140.48 537.739L1131.57 536.832C1127.12 536.362 1124.26 537.914 1123.75 540.993L1123.74 541.056ZM1161.15 557.426C1155.08 556.431 1152.55 553.212 1153.58 546.896L1156.87 526.867L1152.04 526.076L1152.79 521.505L1157.62 522.296L1159.08 513.377L1164.8 514.314L1163.33 523.233L1169.62 524.264L1168.87 528.835L1162.58 527.804L1159.3 547.801C1158.73 551.324 1160.12 552.563 1163.07 553.048C1163.74 553.157 1164.39 553.166 1164.87 553.212L1164.14 557.688C1163.42 557.668 1162.23 557.603 1161.15 557.426ZM1184.82 572.065C1183.74 571.888 1182.59 571.568 1181.91 571.327L1182.65 566.819C1183.11 566.993 1183.73 567.192 1184.4 567.301C1187.89 567.874 1189.97 567.303 1191.92 563.776L1192.89 562.012L1186.06 526.96L1191.96 527.928L1196.57 556.911L1196.69 556.931L1210.34 530.942L1216.15 531.895L1197.51 564.856C1194.13 570.787 1190.79 573.043 1184.82 572.065ZM1227.39 568.29C1218.22 566.785 1213.18 559.147 1214.9 548.64L1214.91 548.577C1216.64 538.07 1223.87 532.51 1232.98 534.003C1242.09 535.497 1247.21 543.051 1245.48 553.589L1245.47 553.653C1243.74 564.191 1236.5 569.784 1227.39 568.29ZM1228.23 563.407C1234.03 564.359 1238.55 560.471 1239.82 552.726L1239.83 552.663C1241.1 544.918 1238.02 539.85 1232.18 538.892C1226.44 537.95 1221.83 541.79 1220.56 549.503L1220.55 549.567C1219.28 557.343 1222.39 562.449 1228.23 563.407ZM1259.51 573.558C1252.28 572.371 1248.86 566.986 1250.09 559.463L1253.61 538.038L1259.13 538.943L1255.78 559.385C1254.9 564.749 1256.92 568.112 1262 568.945C1267.2 569.799 1271.21 566.642 1272.13 561.024L1275.32 541.598L1280.84 542.504L1275.43 575.515L1269.9 574.609L1270.67 569.912L1270.55 569.891C1268.26 572.678 1264.53 574.38 1259.51 573.558ZM1286.71 546.269L1292.05 531.206L1297.82 532.153L1290.64 546.915L1286.71 546.269ZM1295.93 578.878L1303.44 533.075L1308.97 533.98L1301.45 579.784L1295.93 578.878ZM1309.2 581.054L1316.71 535.251L1322.23 536.156L1314.72 581.959L1309.2 581.054ZM1337.29 585.661L1341.95 557.22L1337.35 556.465L1338.1 551.895L1342.7 552.649L1343.37 548.586C1344.41 542.238 1347.86 539.707 1353.95 540.706C1355.19 540.909 1356.48 541.218 1357.28 541.48L1356.55 545.956C1355.9 545.751 1355.04 545.579 1354.19 545.438C1351.14 544.939 1349.36 546.244 1348.82 549.513L1348.16 553.545L1354.96 554.659L1354.21 559.229L1347.48 558.126L1342.81 586.566L1337.29 585.661ZM1364.7 550.519C1362.79 550.207 1361.49 548.397 1361.8 546.492C1362.12 544.556 1363.93 543.287 1365.83 543.6C1367.77 543.917 1369.04 545.691 1368.72 547.627C1368.41 549.531 1366.63 550.837 1364.7 550.519ZM1355.61 588.664L1361.02 555.653L1366.54 556.559L1361.13 589.57L1355.61 588.664ZM1368.65 590.804L1374.06 557.792L1379.59 558.698L1378.82 563.396L1378.94 563.417C1381.23 560.629 1384.96 558.927 1389.98 559.75C1397.21 560.937 1400.63 566.322 1399.4 573.844L1395.89 595.27L1390.36 594.364L1393.71 573.923C1394.59 568.558 1392.57 565.195 1387.49 564.362C1382.29 563.508 1378.28 566.665 1377.36 572.283L1374.17 591.709L1368.65 590.804ZM1415.24 599.096C1406.8 597.711 1402.31 590.066 1404.02 579.654L1404.02 579.623C1405.73 569.211 1412.48 563.441 1420.77 564.799C1425.43 565.564 1428.89 568.543 1430.33 572.69L1430.45 572.711L1433.46 554.396L1438.98 555.302L1431.47 601.105L1425.94 600.199L1426.86 594.613L1426.73 594.592C1424.04 598.094 1419.97 599.871 1415.24 599.096ZM1417.12 594.384C1422.71 595.301 1427.47 591.095 1428.68 583.699L1428.69 583.667C1429.9 576.303 1426.69 570.791 1421.14 569.88C1415.3 568.922 1410.91 573.026 1409.67 580.549L1409.67 580.581C1408.43 588.167 1411.28 593.427 1417.12 594.384ZM1461.8 606.732C1455.23 605.655 1451.47 600.963 1452.46 594.964L1452.47 594.901C1453.39 589.282 1458.35 586.477 1466 587.277L1475.55 588.289L1476 585.527C1476.67 581.496 1474.43 578.62 1469.83 577.865C1465.58 577.168 1462.58 578.762 1461.46 581.61L1461.35 581.885L1456.01 581.01L1456.1 580.666C1457.47 575.317 1462.92 571.712 1470.69 572.987C1478.5 574.268 1482.7 579.291 1481.62 585.893L1477.87 608.716L1472.35 607.81L1473.23 602.446L1473.1 602.425C1470.57 605.726 1466.22 607.456 1461.8 606.732ZM1458.11 595.891C1457.58 599.065 1459.86 601.491 1463.83 602.142C1469.03 602.996 1473.62 600.065 1474.41 595.272L1474.85 592.574L1465.94 591.666C1461.48 591.197 1458.62 592.748 1458.12 595.827L1458.11 595.891ZM1495.51 612.26C1489.45 611.266 1486.91 608.047 1487.95 601.73L1491.23 581.701L1486.41 580.91L1487.16 576.339L1491.98 577.131L1493.45 568.211L1499.16 569.148L1497.7 578.068L1503.98 579.098L1503.23 583.669L1496.95 582.638L1493.67 602.636C1493.09 606.159 1494.48 607.398 1497.44 607.882C1498.1 607.991 1498.75 608 1499.24 608.047L1498.5 612.522C1497.79 612.503 1496.59 612.437 1495.51 612.26ZM426.135 528.35C417.977 527.012 413.465 522.328 413.187 517.263L413.171 516.967L418.726 517.878L418.806 518.185C419.463 520.737 422.366 522.712 426.873 523.452C432.682 524.404 436.509 521.74 437.347 516.629L438.039 512.408L437.912 512.387C435.345 515.714 431.151 517.439 426.422 516.663C418.105 515.299 413.522 507.67 415.214 497.354L415.219 497.322C416.9 487.07 423.739 481.346 432.119 482.72C436.785 483.486 440.05 486.629 441.478 490.644L441.605 490.665L442.521 485.078L448.044 485.984L442.781 518.075C441.527 525.724 435.086 529.818 426.135 528.35ZM428.43 511.973C434.048 512.894 438.643 508.726 439.845 501.393L439.851 501.362C441.043 494.093 437.983 488.702 432.396 487.785C426.524 486.822 422.072 490.916 420.869 498.249L420.864 498.28C419.635 505.771 422.557 511.01 428.43 511.973ZM459.213 482.079C457.308 481.766 456.008 479.956 456.32 478.052C456.638 476.115 458.443 474.847 460.347 475.159C462.284 475.477 463.557 477.25 463.24 479.186C462.928 481.091 461.149 482.396 459.213 482.079ZM450.121 520.224L455.535 487.212L461.058 488.118L455.644 521.129L450.121 520.224ZM473.792 524.757C467.729 523.763 465.193 520.544 466.229 514.227L469.513 494.199L464.689 493.407L465.438 488.837L470.263 489.628L471.726 480.708L477.439 481.645L475.977 490.565L482.261 491.595L481.512 496.166L475.227 495.136L471.947 515.133C471.37 518.656 472.764 519.895 475.716 520.379C476.382 520.488 477.033 520.497 477.514 520.544L476.78 525.019C476.066 525 474.871 524.934 473.792 524.757ZM483.069 525.627L490.58 479.824L496.104 480.73L493.142 498.791L493.269 498.811C495.655 495.389 499.601 493.787 504.521 494.594C511.536 495.744 515.439 501.958 514.127 509.957L510.811 530.176L505.288 529.271L508.448 510.004C509.426 504.036 506.957 500.013 501.815 499.17C496.705 498.332 492.673 501.647 491.752 507.266L488.592 526.533L483.069 525.627ZM528.99 533.81C521.753 532.623 518.334 527.238 519.567 519.715L523.081 498.29L528.604 499.195L525.252 519.637C524.372 525.001 526.395 528.364 531.474 529.197C536.68 530.051 540.685 526.894 541.606 521.276L544.792 501.85L550.315 502.756L544.901 535.767L539.378 534.861L540.149 530.164L540.022 530.143C537.739 532.93 534.005 534.632 528.99 533.81ZM568.413 540.275C563.684 539.499 560.392 536.515 558.959 532.336L558.832 532.315L557.916 537.901L552.392 536.996L559.904 491.193L565.427 492.098L562.423 510.413L562.55 510.434C565.238 506.963 569.464 505.244 574.13 506.01C582.415 507.368 586.966 514.992 585.259 525.404L585.254 525.435C583.546 535.847 576.856 541.66 568.413 540.275ZM568.135 535.21C573.976 536.168 578.36 532.095 579.604 524.509L579.609 524.477C580.843 516.954 577.995 511.663 572.154 510.705C566.599 509.794 561.803 513.995 560.596 521.359L560.591 521.391C559.378 528.786 562.549 534.294 568.135 535.21ZM589.521 543.541C587.489 543.208 586.162 541.36 586.496 539.329C586.829 537.297 588.676 535.971 590.708 536.304C592.739 536.637 594.066 538.484 593.733 540.516C593.399 542.547 591.552 543.874 589.521 543.541ZM611.835 547.396C602.472 545.86 597.629 538.221 599.352 527.715L599.357 527.683C601.065 517.272 608.221 511.6 617.394 513.105C625.615 514.453 629.576 520.709 629.348 526.473L629.338 526.733L623.942 525.848L623.92 525.583C623.636 522.147 621.449 518.789 616.592 517.993C610.847 517.051 606.226 521.182 604.997 528.673L604.992 528.705C603.732 536.386 606.924 541.571 612.637 542.508C617.144 543.247 620.449 541.181 621.974 537.65L622.079 537.407L627.507 538.297L627.438 538.514C625.519 544.653 619.295 548.619 611.835 547.396ZM644.402 552.737C635.229 551.232 630.191 543.594 631.914 533.087L631.924 533.024C633.647 522.517 640.883 516.957 649.992 518.451C659.102 519.945 664.22 527.499 662.491 538.037L662.481 538.1C660.753 548.638 653.512 554.231 644.402 552.737ZM645.236 547.854C651.044 548.806 655.561 544.919 656.831 537.174L656.841 537.11C658.111 529.365 655.031 524.297 649.191 523.339C643.446 522.397 638.839 526.237 637.574 533.95L637.564 534.014C636.288 541.791 639.395 546.896 645.236 547.854ZM665.361 555.522L670.774 522.511L676.297 523.417L675.506 528.241L675.633 528.262C677.661 525.237 681.321 523.589 685.575 524.286C690.082 525.025 693.035 527.889 693.802 532.154L693.929 532.175C696.421 528.509 700.684 526.764 705.318 527.524C711.857 528.596 715.376 533.574 714.298 540.144L710.561 562.935L705.038 562.029L708.567 540.508C709.311 535.969 707.246 532.86 702.898 532.147C698.517 531.428 694.902 534.193 694.163 538.7L690.722 559.681L685.199 558.775L688.827 536.652C689.483 532.652 687.249 529.58 683.154 528.909C678.774 528.19 675.032 531.13 674.278 535.732L670.884 556.428L665.361 555.522ZM739.72 520.682L717.468 575.476L712.198 574.612L734.451 519.818L739.72 520.682ZM745.14 528.97C743.236 528.657 741.936 526.847 742.248 524.943C742.565 523.006 744.371 521.738 746.275 522.05C748.211 522.368 749.485 524.141 749.168 526.077C748.855 527.982 747.077 529.287 745.14 528.97ZM729.524 577.485C729.175 577.428 728.826 577.371 728.482 577.282L729.278 572.426L730.135 572.566C733.722 573.154 735.206 572.257 735.81 568.575L741.463 534.103L746.986 535.009L741.343 569.417C740.245 576.114 736.571 578.641 729.524 577.485ZM758.64 571.471C752.07 570.394 748.308 565.703 749.292 559.703L749.302 559.64C750.224 554.022 755.182 551.217 762.841 552.016L772.389 553.028L772.841 550.267C773.502 546.235 771.269 543.359 766.666 542.604C762.413 541.907 759.413 543.501 758.295 546.349L758.184 546.624L752.852 545.75L752.941 545.406C754.307 540.056 759.755 536.451 767.531 537.727C775.34 539.007 779.536 544.03 778.453 550.633L774.71 573.455L769.187 572.549L770.067 567.185L769.94 567.164C767.41 570.465 763.052 572.195 758.64 571.471ZM754.942 560.63C754.421 563.804 756.696 566.231 760.664 566.881C765.87 567.735 770.457 564.804 771.243 560.011L771.686 557.313L762.773 556.406C758.319 555.936 755.457 557.488 754.952 560.567L754.942 560.63ZM791.025 576.131L784.282 541.126L790.091 542.078L794.75 570.711L794.877 570.732L808.469 545.092L814.214 546.034L796.675 577.057L791.025 576.131ZM822.59 541.671C820.685 541.359 819.385 539.548 819.697 537.644C820.015 535.708 821.82 534.439 823.725 534.752C825.661 535.069 826.934 536.843 826.617 538.779C826.305 540.683 824.526 541.989 822.59 541.671ZM813.498 579.816L818.912 546.805L824.435 547.711L819.021 580.722L813.498 579.816ZM840.025 584.818C830.535 583.262 825.909 575.691 827.611 565.311L827.617 565.28C829.293 555.059 836.284 549.002 845.298 550.48C854.313 551.958 858.706 559.556 857.082 569.46L856.748 571.491L832.974 567.592C831.987 574.406 835.082 578.988 840.954 579.951C845.144 580.638 848.439 579.027 849.855 576.358L849.997 576.088L855.425 576.978L855.309 577.285C853.335 582.568 847.231 586 840.025 584.818ZM844.465 555.363C839.672 554.577 835.39 557.232 833.777 563.291L851.838 566.253C852.35 559.753 849.289 556.154 844.465 555.363ZM859.873 587.421L865.286 554.41L870.809 555.316L869.893 560.902L870.02 560.923C871.756 557.296 875.008 555.352 878.722 555.961C879.674 556.118 880.473 556.412 880.907 556.548L880.028 561.912C879.609 561.681 878.461 561.329 877.128 561.111C872.843 560.408 869.56 562.934 868.738 567.949L865.396 588.327L859.873 587.421ZM888.844 592.824C882.273 591.747 878.512 587.055 879.496 581.056L879.506 580.993C880.428 575.375 885.386 572.57 893.045 573.369L902.592 574.381L903.045 571.619C903.706 567.588 901.473 564.712 896.87 563.957C892.617 563.26 889.617 564.854 888.498 567.702L888.388 567.977L883.055 567.103L883.144 566.759C884.511 561.409 889.958 557.804 897.735 559.08C905.544 560.36 909.739 565.383 908.657 571.986L904.914 594.808L899.391 593.902L900.271 588.538L900.144 588.517C897.614 591.818 893.256 593.548 888.844 592.824ZM885.146 581.983C884.625 585.157 886.9 587.584 890.868 588.234C896.073 589.088 900.661 586.157 901.447 581.364L901.89 578.666L892.977 577.759C888.523 577.289 885.661 578.84 885.156 581.919L885.146 581.983ZM911.929 595.958L917.343 562.947L922.866 563.853L921.949 569.439L922.076 569.46C923.812 565.833 927.064 563.889 930.778 564.498C931.73 564.655 932.53 564.949 932.964 565.085L932.084 570.449C931.665 570.218 930.517 569.866 929.184 569.648C924.899 568.945 921.616 571.471 920.794 576.486L917.452 596.864L911.929 595.958ZM943.979 601.866C934.615 600.331 929.773 592.691 931.496 582.185L931.501 582.153C933.208 571.742 940.364 566.071 949.537 567.575C957.758 568.923 961.72 575.179 961.491 580.944L961.481 581.203L956.085 580.318L956.063 580.054C955.78 576.617 953.592 573.26 948.736 572.463C942.99 571.521 938.369 575.652 937.14 583.143L937.135 583.175C935.876 590.856 939.067 596.041 944.781 596.978C949.288 597.717 952.593 595.652 954.117 592.121L954.222 591.877L959.65 592.767L959.582 592.984C957.662 599.123 951.438 603.089 943.979 601.866ZM976.45 607.191C966.96 605.635 962.334 598.064 964.036 587.685L964.042 587.653C965.718 577.432 972.709 571.375 981.723 572.853C990.738 574.332 995.131 581.93 993.507 591.833L993.174 593.864L969.399 589.966C968.412 596.779 971.507 601.361 977.379 602.324C981.569 603.011 984.864 601.4 986.28 598.731L986.422 598.461L991.85 599.352L991.734 599.659C989.76 604.941 983.656 608.373 976.45 607.191ZM980.89 577.736C976.097 576.95 971.815 579.605 970.202 585.664L988.263 588.626C988.775 582.126 985.715 578.528 980.89 577.736ZM1018.41 566.386L996.158 621.18L990.889 620.316L1013.14 565.522L1018.41 566.386ZM1028.03 615.65C1018.67 614.115 1013.82 606.476 1015.55 595.969L1015.55 595.937C1017.26 585.526 1024.42 579.855 1033.59 581.359C1041.81 582.707 1045.77 588.963 1045.54 594.728L1045.53 594.987L1040.14 594.102L1040.12 593.838C1039.83 590.401 1037.64 587.044 1032.79 586.247C1027.04 585.305 1022.42 589.436 1021.19 596.927L1021.19 596.959C1019.93 604.641 1023.12 609.825 1028.83 610.762C1033.34 611.501 1036.64 609.436 1038.17 605.905L1038.27 605.661L1043.7 606.551L1043.63 606.768C1041.71 612.907 1035.49 616.874 1028.03 615.65ZM1060.6 620.991C1051.42 619.487 1046.39 611.848 1048.11 601.342L1048.12 601.278C1049.84 590.772 1057.08 585.211 1066.19 586.705C1075.3 588.199 1080.41 595.753 1078.69 606.291L1078.68 606.355C1076.95 616.893 1069.71 622.485 1060.6 620.991ZM1061.43 616.108C1067.24 617.061 1071.76 613.173 1073.03 605.428L1073.04 605.365C1074.31 597.62 1071.23 592.551 1065.39 591.593C1059.64 590.651 1055.03 594.492 1053.77 602.205L1053.76 602.268C1052.48 610.045 1055.59 615.15 1061.43 616.108ZM1081.56 623.776L1086.97 590.765L1092.49 591.671L1091.58 597.257L1091.7 597.278C1093.44 593.651 1096.69 591.708 1100.4 592.317C1101.36 592.473 1102.16 592.767 1102.59 592.903L1101.71 598.267C1101.29 598.036 1100.14 597.685 1098.81 597.466C1094.53 596.763 1091.24 599.289 1090.42 604.304L1087.08 624.682L1081.56 623.776ZM1113.61 629.684C1104.24 628.149 1099.4 620.51 1101.12 610.003L1101.13 609.971C1102.83 599.56 1109.99 593.889 1119.16 595.393C1127.39 596.741 1131.35 602.997 1131.12 608.762L1131.11 609.021L1125.71 608.136L1125.69 607.872C1125.41 604.435 1123.22 601.078 1118.36 600.281C1112.62 599.339 1108 603.47 1106.77 610.961L1106.76 610.993C1105.5 618.675 1108.69 623.859 1114.41 624.796C1118.91 625.535 1122.22 623.47 1123.74 619.939L1123.85 619.695L1129.28 620.585L1129.21 620.802C1127.29 626.941 1121.06 630.908 1113.61 629.684ZM1132.88 632.194L1140.39 586.391L1145.92 587.296L1142.95 605.357L1143.08 605.378C1145.47 601.956 1149.41 600.354 1154.33 601.161C1161.35 602.311 1165.25 608.525 1163.94 616.524L1160.62 636.743L1155.1 635.837L1158.26 616.57C1159.24 610.603 1156.77 606.58 1151.63 605.737C1146.52 604.899 1142.49 608.214 1141.56 613.832L1138.4 633.099L1132.88 632.194ZM1181.22 640.772C1172.04 639.268 1167 631.629 1168.73 621.123L1168.74 621.059C1170.46 610.553 1177.7 604.992 1186.81 606.486C1195.92 607.98 1201.03 615.534 1199.3 626.072L1199.29 626.135C1197.57 636.674 1190.32 642.266 1181.22 640.772ZM1182.05 635.889C1187.86 636.842 1192.37 632.954 1193.64 625.209L1193.65 625.145C1194.92 617.4 1191.84 612.332 1186 611.374C1180.26 610.432 1175.65 614.272 1174.39 621.986L1174.38 622.049C1173.1 629.826 1176.21 634.931 1182.05 635.889Z" fill="black"/>
<path d="M445.277 522.767L710.599 566.279L709.974 570.088L444.652 526.576L445.277 522.767ZM724.346 568.533L727.838 569.106L727.213 572.915L723.721 572.342L724.346 568.533ZM744.753 571.88L989.283 611.982L988.658 615.791L744.129 575.689L744.753 571.88ZM1003.04 614.237L1198.02 646.214L1197.4 650.023L1002.41 618.046L1003.04 614.237Z" fill="black"/>
<a href="https://github.com/javierarce/corcho">
<rect fill="black" fill-opacity="0" y="79.1937" width="798.574" height="78.6126"/>
</a>
</g>
</g>
<defs>
<filter id="filter0_d_711_80" x="322.216" y="290.896" width="1275.57" height="504.208" filterUnits="userSpaceOnUse" color-interpolation-filters="sRGB">
<feFlood flood-opacity="0" result="BackgroundImageFix"/>
<feColorMatrix in="SourceAlpha" type="matrix" values="0 0 0 0 0 0 0 0 0 0 0 0 0 0 0 0 0 0 127 0" result="hardAlpha"/>
<feOffset dy="3"/>
<feGaussianBlur stdDeviation="1.5"/>
<feComposite in2="hardAlpha" operator="out"/>
<feColorMatrix type="matrix" values="0 0 0 0 0 0 0 0 0 0 0 0 0 0 0 0 0 0 0.25 0"/>
<feBlend mode="normal" in2="BackgroundImageFix" result="effect1_dropShadow_711_80"/>
<feBlend mode="normal" in="SourceGraphic" in2="effect1_dropShadow_711_80" result="shape"/>
</filter>
<clipPath id="clip0_711_80">
<rect x="374.09" y="290.896" width="1237" height="302" rx="18" transform="rotate(9.31338 374.09 290.896)" fill="white"/>
</clipPath>
</defs>
</svg>
