<svg width="1920" height="1080" viewBox="0 0 1920 1080" fill="none" xmlns="http://www.w3.org/2000/svg">
<rect width="1920" height="1080" fill="#DDDDDD"/>
<g filter="url(#filter0_d_719_290)">
<g clip-path="url(#clip0_719_290)">
<rect x="300.077" y="168.259" width="1066" height="191" rx="18" transform="rotate(8 300.077 168.259)" fill="white"/>
<path d="M368.929 298.105L362.871 250.382L368.859 251.224L372.823 290.272L372.951 290.29L388.671 254.008L394.468 254.823L399.58 294.032L399.707 294.05L414.281 257.607L420.269 258.449L401.291 302.653L395.876 301.892L390.349 263.566L390.221 263.548L374.344 298.866L368.929 298.105ZM423.976 306.491C417.383 305.564 413.515 300.96 414.361 294.94L414.37 294.876C415.162 289.238 420.055 286.321 427.73 286.944L437.298 287.737L437.688 284.966C438.256 280.921 435.957 278.096 431.339 277.447C427.07 276.847 424.108 278.51 423.055 281.383L422.951 281.66L417.6 280.908L417.681 280.562C418.924 275.183 424.288 271.454 432.092 272.551C439.928 273.652 444.237 278.578 443.306 285.203L440.088 308.105L434.545 307.326L435.302 301.943L435.174 301.925C432.721 305.283 428.404 307.113 423.976 306.491ZM420.031 295.737C419.583 298.922 421.913 301.296 425.895 301.855C431.118 302.59 435.638 299.554 436.314 294.745L436.694 292.037L427.763 291.334C423.3 290.967 420.474 292.583 420.04 295.673L420.031 295.737ZM447.127 309.095L451.783 275.968L457.325 276.747L456.662 281.461L456.79 281.479C459.008 278.64 462.702 276.853 467.735 277.56C474.997 278.581 478.539 283.886 477.478 291.435L474.456 312.935L468.914 312.157L471.797 291.644C472.554 286.26 470.454 282.945 465.357 282.228C460.133 281.494 456.201 284.742 455.409 290.38L452.669 309.873L447.127 309.095ZM481.528 313.929L486.183 280.803L491.726 281.582L491.063 286.296L491.191 286.314C493.409 283.475 497.103 281.688 502.135 282.395C509.398 283.416 512.94 288.721 511.879 296.27L508.857 317.77L503.315 316.991L506.198 296.478C506.954 291.095 504.854 287.779 499.758 287.063C494.534 286.329 490.602 289.577 489.81 295.214L487.07 314.708L481.528 313.929ZM525.522 320.762C518.929 319.835 515.061 315.231 515.907 309.211L515.916 309.148C516.708 303.51 521.601 300.592 529.276 301.216L538.844 302.008L539.234 299.237C539.802 295.192 537.503 292.368 532.885 291.719C528.616 291.119 525.654 292.781 524.601 295.654L524.497 295.932L519.146 295.18L519.227 294.834C520.47 289.454 525.834 285.726 533.638 286.822C541.473 287.924 545.783 292.849 544.852 299.475L541.633 322.377L536.091 321.598L536.848 316.215L536.72 316.197C534.267 319.555 529.95 321.384 525.522 320.762ZM521.577 310.008C521.129 313.193 523.459 315.567 527.44 316.127C532.664 316.861 537.183 313.826 537.859 309.016L538.24 306.308L529.309 305.605C524.845 305.238 522.02 306.855 521.585 309.944L521.577 310.008ZM562.338 325.286L568.797 279.323L574.34 280.102L567.88 326.065L562.338 325.286ZM588.909 329.67C579.385 328.332 574.587 320.869 576.051 310.453L576.055 310.421C577.497 300.165 584.347 293.949 593.393 295.22C602.439 296.492 607.005 303.987 605.608 313.925L605.322 315.964L581.464 312.611C580.634 319.445 583.833 323.955 589.725 324.783C593.93 325.374 597.188 323.688 598.542 320.987L598.678 320.714L604.124 321.48L604.016 321.789C602.163 327.116 596.139 330.686 588.909 329.67ZM592.672 300.121C587.862 299.445 583.642 302.198 582.169 308.292L600.293 310.839C600.655 304.329 597.513 300.802 592.672 300.121ZM618.404 333.816C611.811 332.889 607.943 328.285 608.789 322.265L608.798 322.201C609.59 316.563 614.483 313.646 622.158 314.27L631.726 315.062L632.116 312.291C632.684 308.246 630.385 305.421 625.766 304.772C621.498 304.172 618.536 305.835 617.483 308.708L617.379 308.985L612.028 308.233L612.109 307.887C613.352 302.508 618.716 298.779 626.52 299.876C634.355 300.977 638.665 305.903 637.734 312.528L634.515 335.43L628.973 334.651L629.73 329.268L629.602 329.25C627.149 332.608 622.832 334.438 618.404 333.816ZM614.458 323.062C614.011 326.247 616.341 328.621 620.322 329.18C625.546 329.915 630.065 326.879 630.741 322.07L631.122 319.362L622.191 318.659C617.727 318.292 614.902 319.908 614.467 322.998L614.458 323.062ZM641.555 336.42L646.21 303.293L651.753 304.072L650.965 309.678L651.092 309.696C652.744 306.03 655.951 304.012 659.678 304.536C660.634 304.67 661.439 304.946 661.876 305.072L661.12 310.456C660.696 310.234 659.54 309.909 658.202 309.721C653.902 309.116 650.678 311.717 649.971 316.749L647.097 337.199L641.555 336.42ZM661.686 339.249L666.341 306.122L671.884 306.901L671.221 311.615L671.348 311.633C673.566 308.794 677.261 307.007 682.293 307.714C689.556 308.735 693.098 314.04 692.037 321.589L689.015 343.09L683.473 342.311L686.356 321.798C687.112 316.415 685.012 313.099 679.916 312.383C674.692 311.648 670.76 314.896 669.968 320.534L667.228 340.028L661.686 339.249ZM709.464 345.964L714.12 312.837L719.662 313.616L718.982 318.458L719.109 318.475C721.067 315.405 724.689 313.673 728.957 314.273C733.48 314.908 736.498 317.704 737.363 321.95L737.49 321.968C739.897 318.246 744.119 316.404 748.769 317.057C755.331 317.979 758.963 322.875 758.037 329.468L754.822 352.338L749.28 351.559L752.315 329.963C752.955 325.408 750.819 322.347 746.456 321.734C742.06 321.116 738.509 323.963 737.874 328.486L734.914 349.54L729.372 348.762L732.492 326.56C733.056 322.547 730.752 319.527 726.643 318.95C722.248 318.332 718.575 321.356 717.925 325.975L715.007 346.743L709.464 345.964ZM775.532 355.899C766.327 354.605 761.115 347.084 762.597 336.541L762.606 336.477C764.088 325.934 771.194 320.209 780.335 321.493C789.477 322.778 794.766 330.213 793.28 340.788L793.271 340.851C791.785 351.426 784.674 357.183 775.532 355.899ZM776.254 350.998C782.083 351.817 786.509 347.827 787.601 340.055L787.61 339.991C788.702 332.219 785.507 327.222 779.646 326.399C773.881 325.588 769.363 329.533 768.276 337.274L768.267 337.337C767.17 345.141 770.393 350.174 776.254 350.998ZM796.549 358.203L801.205 325.076L806.747 325.855L805.959 331.461L806.087 331.479C807.739 327.813 810.946 325.795 814.672 326.319C815.628 326.453 816.434 326.729 816.871 326.855L816.114 332.239C815.691 332.017 814.534 331.692 813.197 331.504C808.897 330.899 805.673 333.5 804.965 338.532L802.091 358.982L796.549 358.203ZM828.631 363.361C819.107 362.023 814.309 354.56 815.773 344.144L815.777 344.112C817.219 333.855 824.069 327.64 833.115 328.911C842.161 330.182 846.727 337.678 845.33 347.616L845.044 349.654L821.186 346.301C820.356 353.136 823.555 357.645 829.447 358.474C833.652 359.065 836.91 357.379 838.264 354.678L838.4 354.405L843.846 355.17L843.738 355.48C841.885 360.806 835.861 364.377 828.631 363.361ZM832.394 333.812C827.584 333.136 823.364 335.888 821.891 341.983L840.015 344.53C840.377 338.02 837.235 334.492 832.394 333.812ZM871.504 369.387C864.911 368.46 861.043 363.856 861.889 357.836L861.898 357.772C862.69 352.134 867.583 349.216 875.258 349.84L884.826 350.633L885.216 347.862C885.784 343.817 883.485 340.992 878.867 340.343C874.598 339.743 871.636 341.406 870.583 344.279L870.479 344.556L865.128 343.804L865.209 343.458C866.452 338.079 871.816 334.35 879.62 335.447C887.455 336.548 891.765 341.474 890.834 348.099L887.615 371.001L882.073 370.222L882.83 364.839L882.702 364.821C880.249 368.179 875.932 370.009 871.504 369.387ZM867.559 358.633C867.111 361.818 869.441 364.192 873.422 364.751C878.646 365.486 883.165 362.45 883.841 357.641L884.222 354.933L875.291 354.23C870.827 353.863 868.002 355.479 867.567 358.569L867.559 358.633ZM911.033 374.942C906.287 374.275 902.928 371.367 901.399 367.222L901.272 367.204L900.484 372.81L894.942 372.031L901.401 326.068L906.944 326.847L904.361 345.225L904.488 345.243C907.096 341.712 911.281 339.897 915.963 340.555C924.277 341.723 929.002 349.241 927.534 359.688L927.529 359.72C926.061 370.168 919.506 376.133 911.033 374.942ZM910.639 369.884C916.5 370.708 920.79 366.536 921.859 358.923L921.864 358.892C922.925 351.343 919.956 346.118 914.095 345.294C908.521 344.511 903.823 348.82 902.784 356.21L902.78 356.242C901.737 363.664 905.033 369.097 910.639 369.884ZM944.414 379.633C935.209 378.34 929.997 370.819 931.479 360.275L931.488 360.212C932.97 349.668 940.076 343.943 949.217 345.228C958.359 346.513 963.648 353.948 962.162 364.523L962.153 364.586C960.667 375.161 953.556 380.918 944.414 379.633ZM945.136 374.733C950.965 375.552 955.391 371.561 956.483 363.789L956.492 363.726C957.584 355.954 954.389 350.957 948.528 350.133C942.763 349.323 938.245 353.268 937.158 361.008L937.149 361.072C936.052 368.876 939.275 373.909 945.136 374.733ZM976.649 384.164C969.387 383.143 965.845 377.838 966.906 370.289L969.927 348.788L975.47 349.567L972.587 370.08C971.83 375.463 973.93 378.779 979.027 379.496C984.251 380.23 988.183 376.982 988.975 371.344L991.715 351.85L997.257 352.629L992.601 385.756L987.059 384.977L987.721 380.263L987.594 380.245C985.376 383.084 981.682 384.871 976.649 384.164ZM1010.51 388.922C1004.42 388.067 1001.82 384.907 1002.71 378.569L1005.53 358.47L1000.69 357.789L1001.33 353.202L1006.18 353.883L1007.43 344.932L1013.17 345.738L1011.91 354.689L1018.22 355.575L1017.57 360.162L1011.26 359.275L1008.44 379.342C1007.95 382.878 1009.37 384.085 1012.33 384.501C1013 384.595 1013.65 384.589 1014.13 384.624L1013.5 389.116C1012.79 389.113 1011.59 389.074 1010.51 388.922ZM1053.08 395.035C1040.05 393.204 1033.06 382.867 1035.11 368.278L1035.11 368.246C1037.16 353.658 1046.72 345.712 1059.75 347.543C1069.88 348.966 1076.62 356.279 1076.77 365.559L1076.8 365.854L1069.73 364.861L1069.62 364.197C1068.85 358.599 1065.04 354.718 1058.87 353.85C1050.33 352.65 1043.9 358.633 1042.41 369.271L1042.4 369.303C1040.91 379.942 1045.46 387.533 1053.96 388.728C1060.08 389.588 1064.76 386.998 1067.3 381.41L1067.44 381.137L1074.51 382.131L1074.43 382.445C1071.71 391.385 1063.24 396.463 1053.08 395.035ZM1092.36 400.459C1082.75 399.107 1077.41 391.568 1078.92 380.802L1078.93 380.738C1080.43 370.036 1087.7 364.301 1097.23 365.64C1106.78 366.983 1112.23 374.471 1110.72 385.206L1110.71 385.269C1109.19 396.067 1101.95 401.806 1092.36 400.459ZM1093.21 394.698C1098.59 395.455 1102.63 391.67 1103.67 384.28L1103.68 384.216C1104.71 376.89 1101.8 372.162 1096.42 371.405C1091.13 370.662 1087 374.401 1085.97 381.727L1085.96 381.791C1084.92 389.213 1087.82 393.942 1093.21 394.698ZM1113.67 402.771L1118.38 369.263L1125.26 370.23L1124.46 375.963L1124.62 375.985C1126.25 372.22 1129.4 370.161 1133.22 370.698C1134.21 370.837 1135.04 371.117 1135.57 371.289L1134.67 377.691C1134.16 377.392 1132.97 377.063 1131.64 376.875C1127.21 376.252 1124.06 378.766 1123.36 383.767L1120.55 403.738L1113.67 402.771ZM1147.92 408.266C1138.14 406.892 1132.97 399.311 1134.47 388.577L1134.48 388.545C1135.97 377.938 1143.16 372.095 1152.71 373.438C1161.35 374.651 1165.79 380.928 1165.48 387.315L1165.48 387.542L1158.92 386.62L1158.89 386.356C1158.62 382.973 1156.46 379.843 1151.97 379.212C1146.62 378.46 1142.52 382.431 1141.51 389.598L1141.5 389.63C1140.48 396.956 1143.41 401.753 1148.73 402.501C1152.96 403.096 1156.01 401.024 1157.35 397.509L1157.42 397.259L1164.05 398.19L1163.98 398.409C1162.31 405.026 1155.97 409.399 1147.92 408.266ZM1167.57 410.346L1174.03 364.383L1180.91 365.35L1178.38 383.314L1178.54 383.337C1180.87 379.701 1184.79 377.946 1189.79 378.649C1196.96 379.656 1200.92 385.67 1199.78 393.76L1196.87 414.464L1189.99 413.497L1192.72 394.099C1193.5 388.557 1191.16 384.85 1186.32 384.17C1181.57 383.503 1177.91 386.691 1177.17 391.915L1174.45 411.313L1167.57 410.346ZM1217.86 418.097C1208.24 416.745 1202.9 409.206 1204.42 398.44L1204.43 398.376C1205.93 387.673 1213.2 381.939 1222.72 383.277C1232.28 384.62 1237.72 392.109 1236.22 402.843L1236.21 402.907C1234.69 413.705 1227.45 419.444 1217.86 418.097ZM1218.71 412.336C1224.09 413.092 1228.13 409.308 1229.17 401.918L1229.18 401.854C1230.21 394.528 1227.3 389.799 1221.91 389.043C1216.63 388.3 1212.5 392.039 1211.47 399.365L1211.46 399.429C1210.41 406.85 1213.32 411.579 1218.71 412.336ZM1249.51 407.376L1249.93 404.445C1250.52 400.241 1252.93 397.656 1257.66 395.658C1261.67 393.915 1263.38 392.11 1263.86 388.734L1263.86 388.702C1264.42 384.72 1261.74 381.419 1257.02 380.757C1252.21 380.081 1248.85 382.499 1247.84 386.678L1247.77 386.992L1242.32 386.226L1242.41 385.816C1243.83 379.39 1248.99 374.561 1257.94 375.819C1265.94 376.943 1270.76 382.654 1269.83 389.248L1269.82 389.28C1269.13 394.249 1266.05 397.422 1261.63 399.301C1257.25 401.122 1255.85 402.744 1255.38 406.089L1255.09 408.159L1249.51 407.376ZM1250.28 422.295C1248.24 422.008 1246.87 420.192 1247.15 418.153C1247.45 416.083 1249.26 414.746 1251.3 415.032C1253.37 415.323 1254.71 417.103 1254.42 419.174C1254.13 421.212 1252.35 422.585 1250.28 422.295Z" fill="black"/>
</g>
</g>
<g filter="url(#filter1_d_719_290)">
<g clip-path="url(#clip1_719_290)">
<rect x="265.075" y="696.844" width="1373.01" height="217.009" rx="18" transform="rotate(-8 265.075 696.844)" fill="white"/>
<path d="M367.867 815.7L361.407 769.737L367.14 768.931L369.934 788.807L395.161 785.261L392.368 765.385L398.101 764.58L404.561 810.543L398.827 811.349L395.886 790.421L370.659 793.967L373.6 814.894L367.867 815.7ZM410.298 770.239C408.386 770.507 406.606 769.166 406.338 767.255C406.065 765.312 407.41 763.564 409.322 763.295C411.265 763.022 413.008 764.336 413.281 766.279C413.55 768.19 412.241 769.966 410.298 770.239ZM412.97 809.361L408.314 776.234L413.857 775.455L418.512 808.582L412.97 809.361ZM436.917 806.645C430.833 807.5 427.454 805.182 426.563 798.843L423.738 778.744L418.897 779.424L418.252 774.838L423.094 774.157L421.836 765.207L427.569 764.401L428.827 773.351L435.134 772.465L435.779 777.052L429.472 777.938L432.292 798.005C432.789 801.541 434.489 802.309 437.451 801.893C438.12 801.799 438.743 801.614 439.217 801.515L439.848 806.006C439.161 806.2 438 806.493 436.917 806.645Z" fill="black"/>
<mask id="path-5-inside-1_719_290" fill="white">
<path d="M449.34 746.887C448.405 740.231 447.938 736.904 448.876 734.18C449.701 731.784 451.263 729.711 453.339 728.257C455.699 726.605 459.027 726.137 465.682 725.202L611.847 704.667C618.502 703.732 621.83 703.265 624.554 704.203C626.95 705.028 629.023 706.591 630.476 708.666C632.129 711.026 632.596 714.354 633.531 721.009L642.797 786.962C643.732 793.617 644.2 796.945 643.261 799.669C642.436 802.065 640.874 804.138 638.798 805.591C636.438 807.244 633.11 807.711 626.455 808.646L480.29 829.181C473.635 830.116 470.307 830.584 467.584 829.646C465.188 828.82 463.114 827.258 461.661 825.182C460.008 822.822 459.541 819.494 458.606 812.839L449.34 746.887Z"/>
</mask>
<path d="M449.34 746.887C448.405 740.231 447.938 736.904 448.876 734.18C449.701 731.784 451.263 729.711 453.339 728.257C455.699 726.605 459.027 726.137 465.682 725.202L611.847 704.667C618.502 703.732 621.83 703.265 624.554 704.203C626.95 705.028 629.023 706.591 630.476 708.666C632.129 711.026 632.596 714.354 633.531 721.009L642.797 786.962C643.732 793.617 644.2 796.945 643.261 799.669C642.436 802.065 640.874 804.138 638.798 805.591C636.438 807.244 633.11 807.711 626.455 808.646L480.29 829.181C473.635 830.116 470.307 830.584 467.584 829.646C465.188 828.82 463.114 827.258 461.661 825.182C460.008 822.822 459.541 819.494 458.606 812.839L449.34 746.887Z" fill="#F6F8FA"/>
<path d="M446.358 740.035C445.282 732.378 450.617 725.299 458.274 724.223L618.698 701.685C626.355 700.609 633.434 705.944 634.51 713.601L630.549 714.158C629.781 708.689 624.724 704.878 619.255 705.646L458.83 728.185C453.361 728.953 449.551 734.009 450.319 739.479L446.358 740.035ZM646.336 797.775C647.411 805.431 642.076 812.51 634.42 813.586L473.995 836.124C466.338 837.2 459.259 831.865 458.184 824.208L461.588 819.691C462.049 822.972 466.857 825.01 472.326 824.241L632.75 801.703C638.219 800.934 642.279 797.651 641.818 794.37L646.336 797.775ZM473.995 836.124C466.338 837.2 459.259 831.865 458.184 824.208L446.358 740.035C445.282 732.378 450.617 725.299 458.274 724.223L458.83 728.185C453.361 728.953 449.551 734.009 450.319 739.479L461.588 819.691C462.049 822.972 466.857 825.01 472.326 824.241L473.995 836.124ZM618.698 701.685C626.355 700.609 633.434 705.944 634.51 713.601L646.336 797.775C647.411 805.431 642.076 812.51 634.42 813.586L632.75 801.703C638.219 800.934 642.279 797.651 641.818 794.37L630.549 714.158C629.781 708.689 624.724 704.878 619.255 705.646L618.698 701.685Z" fill="#D1D9E0" mask="url(#path-5-inside-1_719_290)"/>
<path d="M509.852 757.117L513.751 756.57L514.71 763.393L524.922 761.959L525.395 765.324L515.229 766.752L517.225 780.956C517.609 783.695 519.744 784.91 523.295 784.411C524.711 784.212 527.231 783.787 527.895 783.623L528.364 786.965C527.754 787.169 524.706 787.716 523.5 787.885C517.256 788.762 514.022 786.803 513.285 781.557L511.283 767.306L504.576 768.249L504.103 764.883L510.811 763.941L509.852 757.117ZM545.525 785.122C540.72 785.797 537.093 783.23 536.451 778.658C535.825 774.201 538.656 771.105 544.347 769.998L551.214 768.679L550.895 766.404C550.451 763.247 548.28 761.777 544.776 762.27C541.874 762.677 540.005 764.194 539.658 766.444L535.782 766.989C535.679 762.885 539.19 759.575 544.343 758.851C550.261 758.02 554.074 760.561 554.81 765.806L557.233 783.051L553.473 783.579L552.942 779.796L552.547 779.852C551.719 782.714 549.192 784.607 545.525 785.122ZM546.176 781.504C549.982 780.969 552.528 778.032 552.055 774.667L551.638 771.696L545.205 772.907C541.7 773.565 540.055 775.335 540.424 777.957C540.795 780.603 542.996 781.951 546.176 781.504ZM579.036 780.39C575.439 780.896 572.584 779.782 570.893 777.18L570.452 777.242L570.993 781.094L567.117 781.639L562.19 746.569L566.205 746.005L568.142 759.792L568.56 759.733C569.286 756.814 571.737 754.884 575.381 754.373C581.206 753.554 585.603 757.22 586.509 763.672L587.168 768.361C588.078 774.836 584.862 779.572 579.036 780.39ZM577.37 776.956C581.548 776.369 583.773 773.003 583.121 768.361L582.612 764.741C581.96 760.099 578.897 757.5 574.719 758.087C570.588 758.667 568.359 762.01 569.011 766.651L569.52 770.272C570.176 774.937 573.239 777.536 577.37 776.956Z" fill="black"/>
<path d="M670.963 773.752C664.879 774.607 661.5 772.288 660.609 765.95L657.785 745.851L652.943 746.531L652.298 741.945L657.14 741.264L655.882 732.314L661.616 731.508L662.874 740.458L669.18 739.572L669.825 744.159L663.518 745.045L666.338 765.112C666.835 768.648 668.535 769.416 671.497 769C672.166 768.906 672.79 768.72 673.263 768.621L673.894 773.113C673.207 773.307 672.046 773.6 670.963 773.752ZM692.655 770.703C683.449 771.997 676.366 766.204 674.885 755.661L674.876 755.597C673.394 745.054 678.647 737.592 687.788 736.307C696.93 735.022 704.063 740.711 705.55 751.286L705.558 751.35C707.045 761.925 701.796 769.419 692.655 770.703ZM691.997 765.794C697.826 764.974 700.981 759.919 699.889 752.147L699.88 752.083C698.787 744.311 694.338 740.389 688.478 741.212C682.712 742.023 679.457 747.06 680.545 754.8L680.554 754.864C681.651 762.668 686.136 766.617 691.997 765.794ZM726.87 765.245L722.215 732.118L727.757 731.34L728.42 736.054L728.547 736.036C729.897 732.695 732.955 729.959 737.988 729.252C745.25 728.231 750.117 732.355 751.178 739.904L754.2 761.404L748.658 762.183L745.775 741.67C745.018 736.287 742.085 733.678 736.989 734.395C731.765 735.129 728.881 739.335 729.673 744.972L732.413 764.466L726.87 765.245ZM771.044 759.687C764.45 760.613 759.463 757.254 758.617 751.234L758.608 751.17C757.816 745.532 761.715 741.379 769.265 739.863L778.681 737.987L778.291 735.216C777.723 731.171 774.734 729.09 770.116 729.739C765.847 730.339 763.458 732.753 763.238 735.805L763.214 736.101L757.863 736.853L757.845 736.498C757.558 730.984 761.686 725.922 769.49 724.825C777.326 723.724 782.826 727.271 783.757 733.896L786.976 756.798L781.434 757.577L780.677 752.194L780.55 752.212C779.117 756.116 775.471 759.064 771.044 759.687ZM764.287 750.437C764.735 753.622 767.629 755.262 771.61 754.702C776.834 753.968 780.341 749.805 779.666 744.995L779.285 742.288L770.506 744.073C766.114 744.951 763.844 747.284 764.278 750.373L764.287 750.437ZM803.348 754.497L786.493 723.085L792.322 722.266L805.291 748.215L805.419 748.197L810.765 719.674L816.53 718.863L809.018 753.7L803.348 754.497ZM823.228 712.205C821.316 712.474 819.536 711.132 819.268 709.221C818.995 707.278 820.34 705.53 822.252 705.261C824.195 704.988 825.938 706.302 826.211 708.245C826.48 710.157 825.171 711.932 823.228 712.205ZM825.9 751.327L821.244 718.201L826.787 717.422L831.442 750.548L825.9 751.327ZM854.663 759.303C846.477 760.454 840.775 757.325 839.002 752.572L838.898 752.294L844.473 751.511L844.64 751.779C846.027 754.021 849.387 755.043 853.91 754.407C859.739 753.588 862.599 749.905 861.878 744.777L861.283 740.54L861.156 740.558C859.696 744.499 856.205 747.393 851.458 748.06C843.113 749.233 836.467 743.313 835.012 732.961L835.008 732.93C833.562 722.641 838.387 715.142 846.796 713.96C851.478 713.302 855.531 715.331 858.089 718.739L858.217 718.721L857.429 713.115L862.971 712.336L867.497 744.539C868.576 752.216 863.645 758.041 854.663 759.303ZM851.979 742.985C857.617 742.192 860.764 736.846 859.73 729.488L859.725 729.456C858.7 722.162 854.174 717.925 848.568 718.713C842.676 719.541 839.643 724.775 840.677 732.133L840.682 732.165C841.738 739.682 846.087 743.813 851.979 742.985ZM884.566 743.732C877.973 744.659 872.986 741.299 872.14 735.279L872.131 735.216C871.338 729.578 875.237 725.424 882.787 723.908L892.203 722.033L891.814 719.262C891.245 715.216 888.257 713.135 883.638 713.784C879.37 714.384 876.981 716.799 876.76 719.851L876.736 720.146L871.385 720.898L871.368 720.544C871.08 715.03 875.208 709.967 883.012 708.87C890.848 707.769 896.349 711.316 897.28 717.941L900.498 740.843L894.956 741.622L894.2 736.239L894.072 736.257C892.639 740.161 888.994 743.11 884.566 743.732ZM877.809 734.482C878.257 737.668 881.151 739.307 885.132 738.748C890.356 738.014 893.864 733.85 893.188 729.04L892.807 726.333L884.028 728.119C879.637 728.996 877.366 731.329 877.8 734.419L877.809 734.482ZM918.394 738.978C912.31 739.833 908.931 737.514 908.04 731.176L905.215 711.077L900.373 711.757L899.729 707.171L904.57 706.49L903.312 697.54L909.046 696.734L910.304 705.684L916.611 704.798L917.255 709.385L910.948 710.271L913.769 730.338C914.266 733.874 915.965 734.642 918.927 734.226C919.596 734.132 920.22 733.946 920.693 733.847L921.324 738.339C920.637 738.533 919.477 738.826 918.394 738.978ZM939.99 735.943C930.466 737.281 923.797 731.43 922.333 721.014L922.328 720.982C920.887 710.726 925.758 702.863 934.804 701.591C943.851 700.32 950.306 706.266 951.702 716.204L951.989 718.243L928.131 721.596C929.217 728.394 933.535 731.848 939.428 731.02C943.632 730.429 946.299 727.91 946.856 724.941L946.911 724.641L952.358 723.875L952.339 724.203C952.026 729.834 947.22 734.927 939.99 735.943ZM935.462 706.501C930.652 707.177 927.355 710.986 927.618 717.251L945.742 714.703C944.296 708.345 940.304 705.821 935.462 706.501ZM983.946 729.765C977.862 730.62 974.483 728.302 973.592 721.963L970.767 701.864L965.926 702.544L965.281 697.958L970.123 697.277L968.865 688.327L974.598 687.521L975.856 696.471L982.163 695.585L982.808 700.172L976.501 701.058L979.321 721.125C979.818 724.661 981.518 725.429 984.48 725.013C985.149 724.919 985.772 724.734 986.246 724.635L986.877 729.126C986.19 729.32 985.029 729.613 983.946 729.765ZM1005.64 726.717C996.432 728.01 989.349 722.217 987.867 711.674L987.858 711.61C986.377 701.067 991.629 693.605 1000.77 692.32C1009.91 691.036 1017.05 696.724 1018.53 707.299L1018.54 707.363C1020.03 717.938 1014.78 725.432 1005.64 726.717ZM1004.98 721.807C1010.81 720.988 1013.96 715.932 1012.87 708.16L1012.86 708.096C1011.77 700.324 1007.32 696.402 1001.46 697.226C995.695 698.036 992.44 703.073 993.528 710.813L993.537 710.877C994.634 718.681 999.119 722.63 1004.98 721.807ZM1053.67 719.966C1044.47 721.26 1037.38 715.466 1035.9 704.923L1035.89 704.86C1034.41 694.316 1039.66 686.854 1048.8 685.57C1057.95 684.285 1065.08 689.974 1066.57 700.549L1066.57 700.612C1068.06 711.187 1062.81 718.681 1053.67 719.966ZM1053.01 715.056C1058.84 714.237 1062 709.181 1060.91 701.409L1060.9 701.345C1059.8 693.573 1055.35 689.651 1049.49 690.475C1043.73 691.285 1040.47 696.323 1041.56 704.063L1041.57 704.126C1042.67 711.93 1047.15 715.88 1053.01 715.056ZM1085.36 715.512C1079.28 716.367 1075.9 714.048 1075.01 707.71L1072.19 687.611L1067.34 688.291L1066.7 683.704L1071.54 683.024L1070.28 674.073L1076.02 673.268L1077.27 682.218L1083.58 681.332L1084.23 685.918L1077.92 686.805L1080.74 706.872C1081.24 710.408 1082.94 711.176 1085.9 710.759C1086.57 710.665 1087.19 710.48 1087.66 710.381L1088.3 714.872C1087.61 715.066 1086.45 715.359 1085.36 715.512ZM1094.48 713.581L1088.02 667.618L1093.56 666.839L1096.11 684.963L1096.24 684.945C1097.5 680.968 1100.79 678.264 1105.73 677.57C1112.76 676.581 1118.34 681.351 1119.47 689.378L1122.32 709.668L1116.78 710.447L1114.06 691.113C1113.22 685.125 1109.66 682.019 1104.5 682.744C1099.38 683.465 1096.51 687.83 1097.31 693.468L1100.02 712.802L1094.48 713.581ZM1143.08 707.4C1133.56 708.739 1126.89 702.887 1125.42 692.471L1125.42 692.44C1123.98 682.183 1128.85 674.32 1137.9 673.049C1146.94 671.777 1153.4 677.724 1154.79 687.662L1155.08 689.7L1131.22 693.053C1132.31 699.852 1136.63 703.305 1142.52 702.477C1146.72 701.886 1149.39 699.367 1149.95 696.398L1150 696.098L1155.45 695.333L1155.43 695.66C1155.12 701.291 1150.31 706.384 1143.08 707.4ZM1138.55 677.958C1133.74 678.634 1130.45 682.443 1130.71 688.708L1148.83 686.161C1147.39 679.803 1143.4 677.278 1138.55 677.958ZM1162.8 703.979L1158.15 670.852L1163.69 670.073L1164.48 675.679L1164.61 675.661C1165.18 671.682 1167.71 668.859 1171.44 668.335C1172.39 668.201 1173.24 668.243 1173.7 668.244L1174.45 673.628C1173.99 673.531 1172.79 673.537 1171.45 673.725C1167.15 674.33 1164.76 677.718 1165.47 682.75L1168.35 703.2L1162.8 703.979ZM1197.88 710.418L1191.66 666.143L1197.2 665.364L1197.99 670.97L1198.11 670.952C1199.64 666.807 1203 663.899 1207.75 663.232C1216.22 662.041 1222.78 668.006 1224.24 678.453L1224.25 678.485C1225.72 688.933 1220.99 696.45 1212.68 697.619C1208 698.277 1203.81 696.461 1201.2 692.93L1201.08 692.948L1203.42 709.639L1197.88 710.418ZM1210.81 692.879C1216.67 692.055 1219.64 686.831 1218.58 679.282L1218.58 679.25C1217.51 671.637 1213.22 667.465 1207.36 668.289C1201.75 669.077 1198.45 674.51 1199.5 681.932L1199.5 681.963C1200.54 689.353 1205.24 693.663 1210.81 692.879ZM1232.18 694.229L1227.52 661.102L1233.07 660.323L1233.85 665.929L1233.98 665.911C1234.56 661.932 1237.08 659.109 1240.81 658.585C1241.77 658.451 1242.62 658.493 1243.07 658.494L1243.83 663.878C1243.36 663.781 1242.16 663.787 1240.82 663.975C1236.52 664.58 1234.14 667.968 1234.85 673L1237.72 693.45L1232.18 694.229ZM1264.44 690.344C1254.92 691.683 1248.25 685.831 1246.78 675.416L1246.78 675.384C1245.34 665.127 1250.21 657.264 1259.25 655.993C1268.3 654.722 1274.76 660.668 1276.15 670.606L1276.44 672.645L1252.58 675.997C1253.67 682.796 1257.98 686.249 1263.88 685.421C1268.08 684.83 1270.75 682.312 1271.31 679.343L1271.36 679.042L1276.81 678.277L1276.79 678.604C1276.48 684.235 1271.67 689.328 1264.44 690.344ZM1259.91 660.903C1255.1 661.579 1251.8 665.388 1252.07 671.652L1270.19 669.105C1268.75 662.747 1264.75 660.222 1259.91 660.903ZM1296.01 685.908C1288.2 687.005 1282.93 683.686 1281.43 677.855L1281.35 677.573L1286.9 676.794L1287 677.104C1288.14 680.322 1290.86 681.921 1295.39 681.285C1299.88 680.654 1302.29 678.398 1301.87 675.404L1301.87 675.372C1301.53 672.984 1300.1 671.82 1296.21 671.425L1290.78 670.889C1284.32 670.27 1280.89 667.796 1280.22 663.019L1280.21 662.987C1279.41 657.285 1283.84 652.537 1291.01 651.53C1298.27 650.509 1303.49 654.096 1304.68 659.581L1304.77 659.99L1299.48 660.733L1299.42 660.515C1298.52 657.36 1295.77 655.571 1291.66 656.148C1287.65 656.712 1285.44 659.005 1285.85 661.935L1285.85 661.967C1286.17 664.228 1287.89 665.579 1291.67 665.956L1297.11 666.491C1304.03 667.176 1306.82 669.479 1307.48 674.193L1307.49 674.225C1308.3 680.022 1303.39 684.87 1296.01 685.908ZM1328.27 681.373C1318.75 682.712 1312.08 676.86 1310.61 666.445L1310.61 666.413C1309.17 656.156 1314.04 648.293 1323.09 647.022C1332.13 645.75 1338.59 651.697 1339.98 661.635L1340.27 663.673L1316.41 667.026C1317.5 673.825 1321.82 677.278 1327.71 676.45C1331.91 675.859 1334.58 673.341 1335.14 670.371L1335.19 670.071L1340.64 669.306L1340.62 669.633C1340.31 675.264 1335.5 680.357 1328.27 681.373ZM1323.74 651.932C1318.93 652.608 1315.64 656.417 1315.9 662.681L1334.02 660.134C1332.58 653.776 1328.59 651.251 1323.74 651.932ZM1347.99 677.952L1343.34 644.825L1348.88 644.046L1349.54 648.76L1349.67 648.743C1351.02 645.402 1354.08 642.666 1359.11 641.959C1366.37 640.938 1371.24 645.061 1372.3 652.61L1375.32 674.111L1369.78 674.89L1366.9 654.377C1366.14 648.994 1363.21 646.385 1358.11 647.101C1352.89 647.836 1350 652.041 1350.8 657.679L1353.54 677.173L1347.99 677.952ZM1393.25 672.241C1387.17 673.096 1383.79 670.778 1382.9 664.439L1380.07 644.34L1375.23 645.02L1374.59 640.434L1379.43 639.753L1378.17 630.803L1383.9 629.997L1385.16 638.947L1391.47 638.061L1392.11 642.648L1385.81 643.534L1388.63 663.601C1389.12 667.137 1390.82 667.905 1393.78 667.489C1394.45 667.395 1395.08 667.21 1395.55 667.111L1396.18 671.602C1395.49 671.796 1394.33 672.089 1393.25 672.241ZM1411.22 669.716C1404.62 670.643 1399.64 667.284 1398.79 661.263L1398.78 661.2C1397.99 655.562 1401.89 651.409 1409.44 649.893L1418.85 648.017L1418.46 645.246C1417.89 641.201 1414.91 639.12 1410.29 639.769C1406.02 640.369 1403.63 642.783 1403.41 645.835L1403.39 646.131L1398.03 646.883L1398.02 646.528C1397.73 641.014 1401.86 635.951 1409.66 634.854C1417.5 633.753 1423 637.3 1423.93 643.926L1427.15 666.828L1421.61 667.606L1420.85 662.223L1420.72 662.241C1419.29 666.146 1415.64 669.094 1411.22 669.716ZM1404.46 660.467C1404.91 663.652 1407.8 665.292 1411.78 664.732C1417.01 663.998 1420.51 659.834 1419.84 655.025L1419.46 652.317L1410.68 654.103C1406.29 654.98 1404.02 657.313 1404.45 660.403L1404.46 660.467ZM1445.04 664.962C1438.96 665.817 1435.58 663.499 1434.69 657.16L1431.86 637.061L1427.02 637.742L1426.38 633.155L1431.22 632.474L1429.96 623.524L1435.7 622.718L1436.95 631.669L1443.26 630.782L1443.9 635.369L1437.6 636.255L1440.42 656.322C1440.92 659.858 1442.61 660.626 1445.58 660.21C1446.25 660.116 1446.87 659.931 1447.34 659.832L1447.97 664.323C1447.29 664.517 1446.13 664.81 1445.04 664.962ZM1451.55 623.9C1449.64 624.169 1447.86 622.827 1447.59 620.916C1447.32 618.973 1448.66 617.225 1450.57 616.956C1452.52 616.683 1454.26 617.997 1454.53 619.94C1454.8 621.852 1453.49 623.627 1451.55 623.9ZM1454.22 663.022L1449.57 629.896L1455.11 629.117L1459.76 662.244L1454.22 663.022ZM1481.13 659.89C1471.93 661.184 1464.84 655.391 1463.36 644.848L1463.35 644.784C1461.87 634.241 1467.12 626.779 1476.27 625.494C1485.41 624.209 1492.54 629.898 1494.03 640.473L1494.04 640.537C1495.52 651.112 1490.27 658.605 1481.13 659.89ZM1480.47 654.98C1486.3 654.161 1489.46 649.105 1488.37 641.333L1488.36 641.27C1487.26 633.498 1482.82 629.576 1476.95 630.399C1471.19 631.21 1467.93 636.247 1469.02 643.987L1469.03 644.051C1470.13 651.855 1474.61 655.804 1480.47 654.98ZM1501.97 656.312L1497.31 623.185L1502.86 622.407L1503.52 627.121L1503.65 627.103C1505 623.762 1508.05 621.026 1513.09 620.319C1520.35 619.298 1525.22 623.422 1526.28 630.971L1529.3 652.471L1523.76 653.25L1520.87 632.737C1520.12 627.354 1517.18 624.745 1512.09 625.462C1506.86 626.196 1503.98 630.401 1504.77 636.039L1507.51 655.533L1501.97 656.312ZM1548.21 650.463C1540.41 651.559 1535.14 648.24 1533.63 642.41L1533.56 642.128L1539.1 641.349L1539.21 641.658C1540.35 644.877 1543.07 646.475 1547.6 645.839C1552.09 645.208 1554.5 642.953 1554.08 639.959L1554.07 639.927C1553.74 637.538 1552.31 636.375 1548.42 635.979L1542.98 635.444C1536.53 634.824 1533.1 632.351 1532.43 627.573L1532.42 627.541C1531.62 621.84 1536.05 617.091 1543.22 616.084C1550.48 615.064 1555.7 618.651 1556.89 624.135L1556.98 624.545L1551.69 625.288L1551.63 625.069C1550.73 621.915 1547.98 620.125 1543.87 620.703C1539.85 621.267 1537.64 623.559 1538.06 626.489L1538.06 626.521C1538.38 628.783 1540.09 630.133 1543.88 630.51L1549.32 631.046C1556.23 631.73 1559.03 634.034 1559.69 638.748L1559.69 638.78C1560.51 644.577 1555.6 649.424 1548.21 650.463Z" fill="black"/>
</g>
</g>
<defs>
<filter id="filter0_d_719_290" x="270.495" y="168.259" width="1088.21" height="343.5" filterUnits="userSpaceOnUse" color-interpolation-filters="sRGB">
<feFlood flood-opacity="0" result="BackgroundImageFix"/>
<feColorMatrix in="SourceAlpha" type="matrix" values="0 0 0 0 0 0 0 0 0 0 0 0 0 0 0 0 0 0 127 0" result="hardAlpha"/>
<feOffset dy="3"/>
<feGaussianBlur stdDeviation="1.5"/>
<feComposite in2="hardAlpha" operator="out"/>
<feColorMatrix type="matrix" values="0 0 0 0 0 0 0 0 0 0 0 0 0 0 0 0 0 0 0.25 0"/>
<feBlend mode="normal" in2="BackgroundImageFix" result="effect1_dropShadow_719_290"/>
<feBlend mode="normal" in="SourceGraphic" in2="effect1_dropShadow_719_290" result="shape"/>
</filter>
<filter id="filter1_d_719_290" x="262.075" y="505.758" width="1395.85" height="411.983" filterUnits="userSpaceOnUse" color-interpolation-filters="sRGB">
<feFlood flood-opacity="0" result="BackgroundImageFix"/>
<feColorMatrix in="SourceAlpha" type="matrix" values="0 0 0 0 0 0 0 0 0 0 0 0 0 0 0 0 0 0 127 0" result="hardAlpha"/>
<feOffset dy="3"/>
<feGaussianBlur stdDeviation="1.5"/>
<feComposite in2="hardAlpha" operator="out"/>
<feColorMatrix type="matrix" values="0 0 0 0 0 0 0 0 0 0 0 0 0 0 0 0 0 0 0.25 0"/>
<feBlend mode="normal" in2="BackgroundImageFix" result="effect1_dropShadow_719_290"/>
<feBlend mode="normal" in="SourceGraphic" in2="effect1_dropShadow_719_290" result="shape"/>
</filter>
<clipPath id="clip0_719_290">
<rect x="300.077" y="168.259" width="1066" height="191" rx="18" transform="rotate(8 300.077 168.259)" fill="white"/>
</clipPath>
<clipPath id="clip1_719_290">
<rect x="265.075" y="696.844" width="1373.01" height="217.009" rx="18" transform="rotate(-8 265.075 696.844)" fill="white"/>
</clipPath>
</defs>
</svg>
