<svg width="1920" height="1080" viewBox="0 0 1920 1080" fill="none" xmlns="http://www.w3.org/2000/svg">
<rect width="1920" height="1080" fill="#DDDDDD"/>
<g filter="url(#filter0_d_711_80)">
<g clip-path="url(#clip0_711_80)">
<rect x="382.479" y="292.272" width="1220" height="302" rx="18" transform="rotate(9.31338 382.479 292.272)" fill="white"/>
<path d="M436.125 437.873L443.637 392.07L471.442 396.63L470.599 401.772L448.507 398.149L445.925 413.893L466.208 417.219L465.375 422.298L445.092 418.971L441.839 438.81L436.125 437.873ZM481.919 446.035C472.746 444.53 467.708 436.892 469.431 426.385L469.441 426.322C471.164 415.815 478.4 410.255 487.51 411.749C496.619 413.243 501.737 420.797 500.008 431.335L499.998 431.398C498.27 441.936 491.029 447.529 481.919 446.035ZM482.753 441.152C488.561 442.104 493.078 438.217 494.348 430.472L494.358 430.408C495.629 422.663 492.548 417.595 486.708 416.637C480.963 415.695 476.356 419.535 475.091 427.248L475.081 427.312C473.806 435.089 476.912 440.194 482.753 441.152ZM503.163 448.867L510.675 403.064L516.198 403.97L508.686 449.773L503.163 448.867ZM516.431 451.043L523.943 405.24L529.466 406.145L521.954 451.949L516.431 451.043ZM542.99 456.05C533.817 454.546 528.779 446.907 530.502 436.401L530.512 436.337C532.235 425.831 539.47 420.27 548.58 421.764C557.69 423.258 562.807 430.812 561.079 441.35L561.069 441.414C559.34 451.952 552.1 457.544 542.99 456.05ZM543.823 451.167C549.632 452.12 554.149 448.232 555.419 440.487L555.429 440.424C556.699 432.679 553.619 427.61 547.779 426.652C542.033 425.71 537.427 429.551 536.162 437.264L536.152 437.327C534.876 445.104 537.983 450.209 543.823 451.167ZM570.487 459.908L566.664 425.382L572.155 426.282L574.354 454.218L574.481 454.239L586.344 428.609L591.676 429.484L594.764 457.565L594.891 457.586L605.897 431.816L611.356 432.711L596.737 464.213L591.119 463.291L587.85 436.516L587.723 436.495L576.105 460.829L570.487 459.908ZM634.437 471.047C628.375 470.053 625.839 466.834 626.875 460.517L630.159 440.488L625.335 439.697L626.084 435.126L630.909 435.918L632.372 426.998L638.085 427.935L636.622 436.855L642.907 437.885L642.158 442.456L635.873 441.425L632.593 461.423C632.016 464.946 633.409 466.185 636.361 466.669C637.028 466.778 637.678 466.787 638.16 466.834L637.426 471.309C636.712 471.29 635.517 471.224 634.437 471.047ZM643.715 471.917L651.226 426.114L656.749 427.019L653.787 445.08L653.914 445.101C656.301 441.679 660.247 440.077 665.167 440.884C672.182 442.034 676.085 448.248 674.773 456.247L671.457 476.466L665.934 475.561L669.094 456.293C670.072 450.326 667.603 446.303 662.461 445.46C657.35 444.622 653.319 447.937 652.398 453.555L649.238 472.823L643.715 471.917ZM691.953 480.48C682.462 478.923 677.837 471.352 679.539 460.973L679.544 460.941C681.22 450.72 688.211 444.663 697.226 446.141C706.24 447.62 710.633 455.218 709.009 465.121L708.676 467.153L684.902 463.254C683.915 470.067 687.01 474.649 692.882 475.612C697.072 476.299 700.367 474.688 701.783 472.02L701.925 471.75L707.353 472.64L707.237 472.947C705.262 478.229 699.158 481.661 691.953 480.48ZM696.392 451.024C691.599 450.238 687.318 452.894 685.705 458.952L703.766 461.914C704.278 455.414 701.217 451.816 696.392 451.024ZM734.572 447.181C732.668 446.869 731.368 445.059 731.68 443.154C731.998 441.218 733.803 439.949 735.707 440.262C737.643 440.579 738.917 442.353 738.6 444.289C738.287 446.193 736.509 447.499 734.572 447.181ZM725.481 485.326L730.895 452.315L736.418 453.221L731.004 486.232L725.481 485.326ZM738.527 487.466L743.941 454.454L749.464 455.36L748.693 460.058L748.82 460.079C751.103 457.291 754.837 455.589 759.852 456.412C767.089 457.599 770.508 462.984 769.275 470.506L765.761 491.932L760.238 491.026L763.59 470.585C764.47 465.22 762.447 461.857 757.368 461.024C752.162 460.17 748.157 463.327 747.236 468.945L744.05 488.371L738.527 487.466ZM784.416 495.643C776.639 494.368 772.592 489.63 772.894 483.616L772.909 483.326L778.432 484.231L778.444 484.559C778.569 487.97 780.695 490.307 785.203 491.046C789.678 491.78 792.652 490.344 793.141 487.361L793.146 487.329C793.537 484.948 792.517 483.412 788.923 481.877L783.894 479.749C777.917 477.237 775.375 473.854 776.156 469.092L776.161 469.061C777.093 463.379 782.738 460.165 789.879 461.336C797.116 462.523 801.027 467.5 800.534 473.09L800.498 473.508L795.229 472.644L795.233 472.417C795.315 469.138 793.219 466.61 789.125 465.939C785.125 465.283 782.332 466.813 781.853 469.733L781.848 469.765C781.478 472.019 782.715 473.819 786.219 475.306L791.249 477.435C797.649 480.147 799.629 483.177 798.859 487.875L798.853 487.906C797.906 493.683 791.78 496.851 784.416 495.643ZM813.714 500.448C807.651 499.454 805.115 496.234 806.151 489.918L809.436 469.889L804.611 469.098L805.36 464.527L810.185 465.318L811.648 456.399L817.361 457.336L815.899 466.255L822.183 467.286L821.434 471.857L815.149 470.826L811.87 490.823C811.292 494.346 812.686 495.586 815.638 496.07C816.304 496.179 816.955 496.188 817.436 496.234L816.702 500.71C815.988 500.69 814.793 500.625 813.714 500.448ZM822.705 501.27L828.119 468.259L833.642 469.165L832.726 474.752L832.853 474.772C834.588 471.146 837.841 469.202 841.555 469.811C842.507 469.967 843.306 470.261 843.74 470.397L842.86 475.762C842.442 475.53 841.294 475.179 839.96 474.96C835.675 474.257 832.393 476.783 831.57 481.798L828.228 502.176L822.705 501.27ZM853.93 507.043C846.693 505.856 843.274 500.471 844.507 492.949L848.021 471.523L853.544 472.429L850.192 492.87C849.312 498.235 851.335 501.598 856.414 502.431C861.62 503.285 865.625 500.128 866.546 494.51L869.732 475.084L875.255 475.989L869.842 509.001L864.319 508.095L865.089 503.397L864.962 503.376C862.68 506.164 858.945 507.866 853.93 507.043ZM890.623 513.061C881.26 511.525 876.417 503.886 878.14 493.379L878.145 493.348C879.853 482.937 887.008 477.265 896.182 478.769C904.403 480.118 908.364 486.374 908.136 492.138L908.126 492.397L902.73 491.512L902.708 491.248C902.424 487.812 900.237 484.454 895.38 483.658C889.635 482.715 885.013 486.847 883.785 494.338L883.78 494.37C882.52 502.051 885.712 507.236 891.425 508.172C895.932 508.912 899.237 506.846 900.762 503.315L900.867 503.071L906.294 503.962L906.226 504.179C904.307 510.318 898.083 514.284 890.623 513.061ZM920.238 517.917C914.176 516.923 911.64 513.704 912.675 507.388L915.96 487.359L911.135 486.567L911.885 481.997L916.71 482.788L918.172 473.868L923.886 474.805L922.423 483.725L928.708 484.755L927.958 489.326L921.674 488.296L918.394 508.293C917.816 511.816 919.21 513.055 922.162 513.539C922.829 513.649 923.479 513.657 923.961 513.704L923.227 518.179C922.513 518.16 921.317 518.094 920.238 517.917ZM938.67 480.653C936.766 480.34 935.466 478.53 935.778 476.625C936.096 474.689 937.901 473.421 939.805 473.733C941.742 474.05 943.015 475.824 942.698 477.76C942.385 479.665 940.607 480.97 938.67 480.653ZM929.579 518.797L934.993 485.786L940.516 486.692L935.102 519.703L929.579 518.797ZM956.201 523.815C947.028 522.311 941.99 514.672 943.713 504.166L943.723 504.102C945.446 493.596 952.682 488.035 961.792 489.529C970.901 491.023 976.019 498.577 974.29 509.115L974.28 509.179C972.552 519.717 965.311 525.309 956.201 523.815ZM957.035 518.932C962.843 519.885 967.36 515.997 968.63 508.252L968.64 508.189C969.911 500.444 966.83 495.375 960.99 494.417C955.245 493.475 950.638 497.316 949.373 505.029L949.363 505.092C948.088 512.869 951.194 517.974 957.035 518.932ZM977.16 526.6L982.573 493.589L988.096 494.495L987.326 499.193L987.453 499.214C989.735 496.426 993.47 494.724 998.485 495.547C1005.72 496.734 1009.14 502.118 1007.91 509.641L1004.39 531.067L998.871 530.161L1002.22 509.719C1003.1 504.355 1001.08 500.992 996.001 500.159C990.795 499.305 986.79 502.462 985.868 508.08L982.683 527.506L977.16 526.6ZM1023.05 534.778C1015.27 533.503 1011.23 528.765 1011.53 522.751L1011.54 522.46L1017.07 523.366L1017.08 523.694C1017.2 527.104 1019.33 529.441 1023.84 530.181C1028.31 530.915 1031.28 529.479 1031.77 526.495L1031.78 526.464C1032.17 524.083 1031.15 522.547 1027.56 521.012L1022.53 518.884C1016.55 516.371 1014.01 512.988 1014.79 508.227L1014.79 508.196C1015.73 502.514 1021.37 499.3 1028.51 500.471C1035.75 501.658 1039.66 506.634 1039.17 512.225L1039.13 512.643L1033.86 511.779L1033.87 511.551C1033.95 508.273 1031.85 505.745 1027.76 505.074C1023.76 504.418 1020.96 505.948 1020.49 508.868L1020.48 508.9C1020.11 511.154 1021.35 512.954 1024.85 514.441L1029.88 516.569C1036.28 519.281 1038.26 522.312 1037.49 527.009L1037.49 527.041C1036.54 532.818 1030.41 535.986 1023.05 534.778ZM1065.68 541.769C1059.62 540.775 1057.08 537.556 1058.12 531.239L1061.4 511.21L1056.58 510.419L1057.32 505.848L1062.15 506.639L1063.61 497.72L1069.33 498.657L1067.86 507.576L1074.15 508.607L1073.4 513.178L1067.11 512.147L1063.83 532.144C1063.26 535.668 1064.65 536.907 1067.6 537.391C1068.27 537.5 1068.92 537.509 1069.4 537.555L1068.67 542.031C1067.95 542.012 1066.76 541.946 1065.68 541.769ZM1074.96 542.638L1082.47 496.835L1087.99 497.741L1085.03 515.802L1085.15 515.823C1087.54 512.401 1091.49 510.799 1096.41 511.606C1103.42 512.756 1107.33 518.97 1106.01 526.969L1102.7 547.188L1097.17 546.282L1100.33 527.015C1101.31 521.048 1098.84 517.025 1093.7 516.181C1088.59 515.343 1084.56 518.659 1083.64 524.277L1080.48 543.544L1074.96 542.638ZM1119.26 550.556C1112.69 549.478 1108.93 544.787 1109.91 538.788L1109.92 538.724C1110.84 533.106 1115.8 530.301 1123.46 531.101L1133.01 532.113L1133.46 529.351C1134.12 525.32 1131.89 522.444 1127.28 521.689C1123.03 520.991 1120.03 522.586 1118.91 525.433L1118.8 525.709L1113.47 524.834L1113.56 524.49C1114.92 519.14 1120.37 515.536 1128.15 516.811C1135.96 518.092 1140.15 523.115 1139.07 529.717L1135.33 552.539L1129.8 551.634L1130.68 546.269L1130.56 546.248C1128.03 549.549 1123.67 551.279 1119.26 550.556ZM1115.56 539.714C1115.04 542.889 1117.31 545.315 1121.28 545.966C1126.49 546.82 1131.07 543.889 1131.86 539.096L1132.3 536.398L1123.39 535.49C1118.94 535.02 1116.07 536.572 1115.57 539.651L1115.56 539.714ZM1152.97 556.084C1146.9 555.09 1144.37 551.871 1145.4 545.554L1148.69 525.525L1143.86 524.734L1144.61 520.163L1149.44 520.954L1150.9 512.035L1156.61 512.972L1155.15 521.891L1161.44 522.922L1160.69 527.493L1154.4 526.462L1151.12 546.459C1150.55 549.983 1151.94 551.222 1154.89 551.706C1155.56 551.815 1156.21 551.824 1156.69 551.87L1155.96 556.346C1155.24 556.327 1154.05 556.261 1152.97 556.084ZM1176.64 570.723C1175.56 570.546 1174.41 570.227 1173.73 569.985L1174.47 565.478C1174.93 565.651 1175.55 565.85 1176.22 565.96C1179.71 566.532 1181.79 565.961 1183.74 562.434L1184.71 560.671L1177.88 525.619L1183.78 526.587L1188.38 555.569L1188.51 555.59L1202.16 529.601L1207.97 530.553L1189.33 563.514C1185.95 569.446 1182.61 571.702 1176.64 570.723ZM1219.21 566.948C1210.04 565.443 1205 557.805 1206.72 547.298L1206.73 547.235C1208.46 536.728 1215.69 531.168 1224.8 532.662C1233.91 534.156 1239.03 541.71 1237.3 552.248L1237.29 552.311C1235.56 562.849 1228.32 568.442 1219.21 566.948ZM1220.05 562.065C1225.85 563.017 1230.37 559.13 1231.64 551.385L1231.65 551.321C1232.92 543.576 1229.84 538.508 1224 537.55C1218.26 536.608 1213.65 540.448 1212.38 548.161L1212.37 548.225C1211.1 556.002 1214.2 561.107 1220.05 562.065ZM1251.33 572.216C1244.1 571.029 1240.68 565.644 1241.91 558.121L1245.42 536.696L1250.95 537.602L1247.6 558.043C1246.72 563.407 1248.74 566.771 1253.82 567.604C1259.02 568.457 1263.03 565.3 1263.95 559.682L1267.14 540.256L1272.66 541.162L1267.25 574.173L1261.72 573.268L1262.49 568.57L1262.37 568.549C1260.08 571.336 1256.35 573.038 1251.33 572.216ZM1278.53 544.928L1283.87 529.864L1289.64 530.812L1282.46 545.573L1278.53 544.928ZM1287.75 577.536L1295.26 531.733L1300.79 532.639L1293.27 578.442L1287.75 577.536ZM1301.02 579.712L1308.53 533.909L1314.05 534.815L1306.54 580.618L1301.02 579.712ZM1329.11 584.319L1333.77 555.878L1329.17 555.124L1329.92 550.553L1334.52 551.308L1335.19 547.245C1336.23 540.896 1339.68 538.365 1345.77 539.365C1347.01 539.568 1348.3 539.876 1349.1 540.138L1348.37 544.614C1347.71 544.41 1346.86 544.237 1346.01 544.097C1342.96 543.597 1341.18 544.902 1340.64 548.172L1339.98 552.203L1346.78 553.317L1346.03 557.888L1339.3 556.784L1334.63 585.225L1329.11 584.319ZM1356.52 549.178C1354.61 548.865 1353.31 547.055 1353.62 545.15C1353.94 543.214 1355.75 541.946 1357.65 542.258C1359.59 542.575 1360.86 544.349 1360.54 546.285C1360.23 548.19 1358.45 549.495 1356.52 549.178ZM1347.42 587.322L1352.84 554.311L1358.36 555.217L1352.95 588.228L1347.42 587.322ZM1360.47 589.462L1365.88 556.451L1371.41 557.356L1370.64 562.054L1370.76 562.075C1373.05 559.288 1376.78 557.586 1381.8 558.408C1389.03 559.595 1392.45 564.98 1391.22 572.503L1387.7 593.928L1382.18 593.022L1385.53 572.581C1386.41 567.217 1384.39 563.853 1379.31 563.02C1374.11 562.167 1370.1 565.324 1369.18 570.942L1365.99 590.368L1360.47 589.462ZM1407.06 597.754C1398.61 596.369 1394.13 588.724 1395.84 578.313L1395.84 578.281C1397.55 567.87 1404.3 562.099 1412.58 563.457C1417.25 564.223 1420.71 567.201 1422.14 571.349L1422.27 571.37L1425.28 553.055L1430.8 553.96L1423.29 599.764L1417.76 598.858L1418.68 593.271L1418.55 593.25C1415.86 596.753 1411.79 598.53 1407.06 597.754ZM1408.94 593.043C1414.53 593.959 1419.29 589.753 1420.5 582.357L1420.51 582.326C1421.72 574.962 1418.51 569.449 1412.96 568.538C1407.12 567.58 1402.73 571.685 1401.49 579.208L1401.49 579.239C1400.25 586.825 1403.1 592.085 1408.94 593.043ZM1453.62 605.39C1447.05 604.313 1443.29 599.622 1444.27 593.622L1444.29 593.559C1445.21 587.941 1450.16 585.136 1457.82 585.935L1467.37 586.947L1467.82 584.186C1468.49 580.154 1466.25 577.278 1461.65 576.523C1457.4 575.826 1454.4 577.42 1453.28 580.268L1453.17 580.543L1447.83 579.669L1447.92 579.325C1449.29 573.975 1454.74 570.37 1462.51 571.646C1470.32 572.926 1474.52 577.95 1473.44 584.552L1469.69 607.374L1464.17 606.468L1465.05 601.104L1464.92 601.083C1462.39 604.384 1458.03 606.114 1453.62 605.39ZM1449.92 594.549C1449.4 597.723 1451.68 600.15 1455.65 600.8C1460.85 601.654 1465.44 598.723 1466.23 593.93L1466.67 591.232L1457.76 590.325C1453.3 589.855 1450.44 591.407 1449.94 594.486L1449.92 594.549ZM1487.33 610.919C1481.27 609.924 1478.73 606.705 1479.77 600.389L1483.05 580.36L1478.23 579.569L1478.98 574.998L1483.8 575.789L1485.27 566.87L1490.98 567.807L1489.52 576.726L1495.8 577.757L1495.05 582.327L1488.77 581.297L1485.49 601.294C1484.91 604.817 1486.3 606.056 1489.26 606.54C1489.92 606.65 1490.57 606.659 1491.05 606.705L1490.32 611.181C1489.61 611.161 1488.41 611.096 1487.33 610.919ZM434.994 529.836C426.424 528.43 421.647 523.572 421.469 518.295L421.485 518.004L428.277 519.118L428.363 519.393C428.934 521.671 431.583 523.605 435.868 524.307C441.328 525.203 444.822 522.777 445.588 518.111L446.337 513.54L446.178 513.514C443.681 516.82 439.492 518.513 434.699 517.727C426.319 516.353 421.873 508.876 423.581 498.465L423.586 498.433C425.304 487.959 431.968 482.304 440.443 483.694C445.141 484.465 448.406 487.608 449.755 491.708L449.913 491.734L450.845 486.052L457.733 487.182L452.408 519.653C451.158 527.271 444.422 531.382 434.994 529.836ZM437.551 512.458C442.788 513.317 447.003 509.477 448.133 502.589L448.138 502.558C449.263 495.701 446.463 490.712 441.257 489.858C435.829 488.968 431.715 492.791 430.585 499.679L430.58 499.711C429.435 506.694 432.123 511.568 437.551 512.458ZM469.083 483.762C466.861 483.398 465.375 481.329 465.729 479.171C466.088 476.98 468.157 475.494 470.379 475.859C472.633 476.228 474.087 478.292 473.728 480.482C473.374 482.641 471.336 484.132 469.083 483.762ZM459.335 521.735L464.811 488.342L471.668 489.467L466.191 522.859L459.335 521.735ZM484.873 526.607C478.271 525.524 475.555 522.211 476.648 515.545L479.787 496.405L474.994 495.619L475.889 490.159L480.682 490.945L482.108 482.248L489.123 483.398L487.697 492.096L493.95 493.121L493.055 498.581L486.802 497.555L483.73 516.283C483.173 519.679 484.53 520.945 487.419 521.418C488.149 521.538 488.763 521.573 489.281 521.593L488.411 526.894C487.597 526.891 486.27 526.836 484.873 526.607ZM494.41 527.487L501.921 481.684L508.777 482.808L505.841 500.71L506 500.736C508.413 497.155 512.369 495.49 517.353 496.307C524.494 497.478 528.318 503.581 526.995 511.644L523.612 532.276L516.756 531.151L519.926 511.821C520.832 506.298 518.58 502.538 513.755 501.747C509.025 500.972 505.29 504.075 504.436 509.28L501.266 528.611L494.41 527.487ZM541.532 535.899C534.199 534.696 530.785 529.28 532.045 521.598L535.595 499.951L542.451 501.075L539.12 521.39C538.292 526.437 540.183 529.615 544.944 530.396C549.769 531.187 553.447 528.237 554.3 523.032L557.497 503.542L564.385 504.672L558.908 538.064L552.02 536.935L552.843 531.919L552.684 531.893C550.387 534.972 546.61 536.732 541.532 535.899ZM583.335 542.755C578.542 541.969 575.224 538.947 573.896 534.72L573.738 534.694L572.811 540.344L565.955 539.22L573.467 493.417L580.323 494.541L577.356 512.634L577.514 512.66C580.159 509.052 584.359 507.296 589.088 508.071C597.468 509.446 601.898 517.017 600.154 527.651L600.149 527.682C598.405 538.316 591.81 544.144 583.335 542.755ZM582.494 536.554C587.89 537.439 591.968 533.642 593.134 526.532L593.139 526.5C594.295 519.454 591.649 514.521 586.253 513.637C581.079 512.788 576.658 516.691 575.523 523.611L575.518 523.643C574.378 530.594 577.289 535.7 582.494 536.554ZM604.951 546.104C602.602 545.719 601.063 543.576 601.443 541.259C601.828 538.91 603.966 537.402 606.315 537.788C608.632 538.168 610.176 540.279 609.791 542.628C609.411 544.945 607.268 546.484 604.951 546.104ZM628.186 550.11C618.441 548.512 613.445 540.815 615.2 530.118L615.205 530.086C616.938 519.516 624.258 513.839 633.78 515.401C642.382 516.811 646.682 523.188 646.223 529.567L646.218 529.794L639.679 528.722L639.658 528.457C639.464 525.068 637.377 521.89 632.902 521.156C627.569 520.282 623.381 524.158 622.209 531.3L622.204 531.332C621.007 538.632 623.827 543.495 629.128 544.365C633.35 545.057 636.449 543.055 637.867 539.572L637.941 539.323L644.543 540.406L644.475 540.623C642.646 547.201 636.217 551.427 628.186 550.11ZM661.769 555.617C652.183 554.045 647.018 546.386 648.777 535.657L648.787 535.594C650.536 524.929 657.936 519.362 667.426 520.919C676.949 522.48 682.22 530.092 680.465 540.789L680.455 540.852C678.69 551.613 671.323 557.184 661.769 555.617ZM662.743 549.877C668.107 550.757 672.233 547.066 673.44 539.702L673.451 539.638C674.648 532.338 671.849 527.544 666.484 526.664C661.215 525.8 657 529.444 655.802 536.744L655.792 536.808C654.579 544.203 657.378 548.998 662.743 549.877ZM683.018 558.418L688.494 525.025L695.35 526.15L694.502 531.324L694.66 531.35C696.661 528.092 700.438 526.332 704.818 527.051C709.421 527.805 712.395 530.738 713.041 535.146L713.199 535.172C715.58 531.391 719.927 529.528 724.688 530.309C731.29 531.392 734.889 536.48 733.791 543.178L730.027 566.127L723.139 564.997L726.632 543.699C727.345 539.35 725.439 536.463 721.376 535.796C717.313 535.13 713.989 537.714 713.296 541.935L709.871 562.821L703.142 561.718L706.718 539.911C707.353 536.039 705.315 533.162 701.443 532.527C697.38 531.861 693.965 534.593 693.258 538.91L689.874 559.542L683.018 558.418ZM759.504 523.926L737.791 578.808L731.443 577.767L753.187 522.89L759.504 523.926ZM765.358 532.35C763.136 531.986 761.65 529.917 762.004 527.759C762.363 525.568 764.432 524.082 766.654 524.447C768.908 524.816 770.362 526.88 770.003 529.07C769.649 531.229 767.612 532.72 765.358 532.35ZM749.715 580.829C749.176 580.741 748.578 580.61 748.139 580.505L749.06 574.887C749.378 574.939 749.69 575.023 750.039 575.08C753.435 575.637 754.882 574.766 755.434 571.402L761.087 536.93L767.943 538.055L762.279 572.59C761.165 579.382 757.111 582.042 749.715 580.829ZM779.254 574.819C772.589 573.726 768.785 568.898 769.769 562.898L769.779 562.835C770.732 557.026 775.822 554.21 783.804 555.03L792.97 555.98L793.381 553.472C793.985 549.79 791.969 547.178 787.716 546.48C783.748 545.829 780.997 547.301 779.988 549.874L779.878 550.149L773.402 549.087L773.492 548.743C774.91 543.076 780.617 539.481 788.838 540.83C796.995 542.167 801.461 547.333 800.363 554.03L796.589 577.043L789.701 575.913L790.565 570.644L790.438 570.623C787.914 573.893 783.667 575.543 779.254 574.819ZM776.714 563.874C776.235 566.795 778.346 569.031 782.028 569.635C786.852 570.426 791.039 567.756 791.752 563.407L792.179 560.804L783.938 559.974C779.77 559.552 777.188 560.986 776.725 563.811L776.714 563.874ZM812.365 579.63L805.811 544.265L813.111 545.462L817.113 573.531L817.272 573.557L830.029 548.237L837.171 549.408L819.729 580.838L812.365 579.63ZM845.664 545.52C843.442 545.156 841.956 543.087 842.31 540.929C842.67 538.738 844.739 537.252 846.96 537.617C849.214 537.986 850.668 540.05 850.309 542.24C849.955 544.399 847.918 545.89 845.664 545.52ZM835.917 583.492L841.393 550.1L848.249 551.225L842.773 584.617L835.917 583.492ZM863.994 588.781C854.186 587.173 849.348 579.502 851.077 568.964L851.082 568.932C852.795 558.489 859.971 552.495 869.334 554.031C878.698 555.566 883.34 563.238 881.695 573.268L881.315 575.585L857.667 571.707C856.758 578.044 859.614 582.294 865.074 583.189C869.137 583.856 872.179 582.203 873.447 579.836L873.584 579.598L880.091 580.665L879.97 581.004C878.021 586.127 872.088 590.109 863.994 588.781ZM868.445 559.654C864.001 558.925 860.078 561.379 858.559 566.866L875.319 569.615C875.695 563.744 872.92 560.388 868.445 559.654ZM884.196 591.41L889.672 558.018L896.528 559.142L895.591 564.856L895.75 564.882C897.469 561.155 900.663 559.169 904.472 559.793C905.456 559.955 906.287 560.254 906.811 560.438L905.765 566.818C905.262 566.507 904.082 566.15 902.748 565.932C898.336 565.208 895.133 567.649 894.316 572.632L891.052 592.534L884.196 591.41ZM914.537 597.005C907.871 595.912 904.067 591.083 905.051 585.084L905.061 585.021C906.014 579.212 911.104 576.396 919.086 577.216L928.253 578.165L928.664 575.658C929.268 571.976 927.251 569.363 922.998 568.666C919.03 568.015 916.279 569.487 915.271 572.06L915.16 572.335L908.685 571.273L908.774 570.929C910.192 565.262 915.899 561.667 924.12 563.015C932.278 564.353 936.744 569.519 935.645 576.216L931.871 599.229L924.984 598.099L925.848 592.83L925.721 592.809C923.196 596.078 918.949 597.729 914.537 597.005ZM911.997 586.06C911.518 588.98 913.628 591.217 917.31 591.821C922.135 592.612 926.321 589.941 927.034 585.593L927.461 582.99L919.22 582.16C915.052 581.737 912.47 583.172 912.007 585.997L911.997 586.06ZM938.537 600.322L944.013 566.93L950.869 568.054L949.933 573.768L950.091 573.794C951.811 570.066 955.005 568.08 958.814 568.705C959.798 568.866 960.629 569.166 961.153 569.349L960.106 575.729C959.603 575.419 958.423 575.062 957.09 574.844C952.678 574.12 949.474 576.561 948.657 581.544L945.393 601.446L938.537 600.322ZM972.645 606.6C962.901 605.002 957.905 597.305 959.659 586.608L959.664 586.576C961.397 576.006 968.717 570.329 978.24 571.891C986.842 573.301 991.141 579.678 990.682 586.057L990.677 586.284L984.139 585.212L984.117 584.947C983.923 581.558 981.836 578.38 977.361 577.646C972.028 576.772 967.84 580.648 966.668 587.79L966.663 587.822C965.466 595.122 968.287 599.985 973.587 600.855C977.809 601.547 980.908 599.545 982.327 596.062L982.4 595.813L989.002 596.896L988.934 597.113C987.106 603.691 980.676 607.917 972.645 606.6ZM1006.13 612.092C996.324 610.483 991.487 602.812 993.215 592.274L993.22 592.242C994.933 581.799 1002.11 575.805 1011.47 577.341C1020.84 578.876 1025.48 586.548 1023.83 596.578L1023.45 598.895L999.806 595.017C998.897 601.355 1001.75 605.604 1007.21 606.499C1011.28 607.166 1014.32 605.513 1015.59 603.146L1015.72 602.908L1022.23 603.975L1022.11 604.314C1020.16 609.438 1014.23 613.419 1006.13 612.092ZM1010.58 582.964C1006.14 582.236 1002.22 584.689 1000.7 590.176L1017.46 592.925C1017.83 587.054 1015.06 583.698 1010.58 582.964ZM1049.18 571.431L1027.46 626.314L1021.12 625.273L1042.86 570.395L1049.18 571.431ZM1059.17 620.79C1049.43 619.192 1044.43 611.495 1046.19 600.798L1046.19 600.766C1047.92 590.196 1055.24 584.519 1064.77 586.081C1073.37 587.492 1077.67 593.868 1077.21 600.247L1077.2 600.474L1070.67 599.402L1070.64 599.138C1070.45 595.748 1068.36 592.57 1063.89 591.836C1058.56 590.962 1054.37 594.838 1053.2 601.98L1053.19 602.012C1051.99 609.313 1054.81 614.175 1060.11 615.045C1064.34 615.737 1067.44 613.735 1068.85 610.252L1068.93 610.004L1075.53 611.086L1075.46 611.303C1073.63 617.881 1067.2 622.107 1059.17 620.79ZM1092.76 626.297C1083.17 624.725 1078 617.066 1079.76 606.337L1079.77 606.274C1081.52 595.609 1088.92 590.042 1098.41 591.599C1107.94 593.16 1113.21 600.772 1111.45 611.469L1111.44 611.532C1109.68 622.293 1102.31 627.864 1092.76 626.297ZM1093.73 620.557C1099.09 621.437 1103.22 617.746 1104.43 610.382L1104.44 610.318C1105.63 603.018 1102.84 598.224 1097.47 597.344C1092.2 596.48 1087.99 600.124 1086.79 607.424L1086.78 607.488C1085.57 614.883 1088.36 619.678 1093.73 620.557ZM1114 629.098L1119.48 595.706L1126.34 596.83L1125.4 602.543L1125.56 602.569C1127.28 598.842 1130.47 596.856 1134.28 597.481C1135.26 597.642 1136.1 597.942 1136.62 598.125L1135.57 604.505C1135.07 604.195 1133.89 603.838 1132.56 603.619C1128.15 602.896 1124.94 605.337 1124.12 610.32L1120.86 630.222L1114 629.098ZM1148.11 635.376C1138.37 633.778 1133.37 626.081 1135.13 615.384L1135.13 615.352C1136.86 604.782 1144.18 599.105 1153.71 600.667C1162.31 602.077 1166.61 608.454 1166.15 614.833L1166.14 615.06L1159.61 613.988L1159.58 613.723C1159.39 610.334 1157.3 607.156 1152.83 606.422C1147.5 605.548 1143.31 609.424 1142.14 616.566L1142.13 616.598C1140.93 623.898 1143.75 628.761 1149.05 629.631C1153.28 630.323 1156.38 628.321 1157.79 624.838L1157.87 624.589L1164.47 625.672L1164.4 625.889C1162.57 632.467 1156.14 636.693 1148.11 635.376ZM1167.71 637.905L1175.22 592.102L1182.08 593.227L1179.14 611.129L1179.3 611.155C1181.71 607.574 1185.67 605.909 1190.65 606.726C1197.8 607.897 1201.62 614 1200.3 622.062L1196.91 642.694L1190.06 641.57L1193.23 622.239C1194.13 616.716 1191.88 612.957 1187.06 612.166C1182.33 611.39 1178.59 614.494 1177.74 619.699L1174.57 639.03L1167.71 637.905ZM1217.82 646.807C1208.23 645.235 1203.07 637.575 1204.83 626.847L1204.84 626.783C1206.58 616.118 1213.98 610.552 1223.47 612.108C1233 613.67 1238.27 621.282 1236.51 631.978L1236.5 632.042C1234.74 642.802 1227.37 648.374 1217.82 646.807ZM1218.79 641.067C1224.16 641.947 1228.28 638.256 1229.49 630.892L1229.5 630.828C1230.7 623.527 1227.9 618.733 1222.53 617.854C1217.26 616.989 1213.05 620.633 1211.85 627.934L1211.84 627.997C1210.63 635.393 1213.43 640.187 1218.79 641.067Z" fill="black"/>
<path d="M455.662 524.47L728.841 569.27L728.086 573.873L454.907 529.072L455.662 524.47ZM766.402 575.43L1018.51 616.775L1017.76 621.377L765.647 580.032L766.402 575.43ZM1035.07 619.491L1235.14 652.301L1234.38 656.903L1034.32 624.093L1035.07 619.491Z" fill="black"/>
</g>
</g>
<defs>
<filter id="filter0_d_711_80" x="330.604" y="292.272" width="1258.79" height="501.457" filterUnits="userSpaceOnUse" color-interpolation-filters="sRGB">
<feFlood flood-opacity="0" result="BackgroundImageFix"/>
<feColorMatrix in="SourceAlpha" type="matrix" values="0 0 0 0 0 0 0 0 0 0 0 0 0 0 0 0 0 0 127 0" result="hardAlpha"/>
<feOffset dy="3"/>
<feGaussianBlur stdDeviation="1.5"/>
<feComposite in2="hardAlpha" operator="out"/>
<feColorMatrix type="matrix" values="0 0 0 0 0 0 0 0 0 0 0 0 0 0 0 0 0 0 0.25 0"/>
<feBlend mode="normal" in2="BackgroundImageFix" result="effect1_dropShadow_711_80"/>
<feBlend mode="normal" in="SourceGraphic" in2="effect1_dropShadow_711_80" result="shape"/>
</filter>
<clipPath id="clip0_711_80">
<rect x="382.479" y="292.272" width="1220" height="302" rx="18" transform="rotate(9.31338 382.479 292.272)" fill="white"/>
</clipPath>
</defs>
</svg>
