<svg width="1920" height="1080" viewBox="0 0 1920 1080" fill="none" xmlns="http://www.w3.org/2000/svg">
<rect width="1920" height="1080" fill="#DDDDDD"/>
<g filter="url(#filter0_d_711_44)">
<g clip-path="url(#clip0_711_44)">
<rect x="444.161" y="510.624" width="1009" height="223" rx="18" transform="rotate(-9.20327 444.161 510.624)" fill="white"/>
<path d="M541.271 631.65L533.848 585.833L549.247 583.338C562.805 581.141 572.238 588.28 574.569 602.664L574.579 602.727C576.92 617.174 570.292 626.948 556.671 629.155L541.271 631.65ZM546.153 625.58L555.456 624.073C565.839 622.391 570.589 615.104 568.747 603.737L568.737 603.674C566.885 592.243 560.082 586.861 549.7 588.543L540.396 590.051L546.153 625.58ZM598.241 623.071C588.747 624.61 581.957 618.9 580.275 608.517L580.27 608.485C578.613 598.261 583.318 590.297 592.336 588.836C601.353 587.375 607.932 593.185 609.537 603.091L609.866 605.124L586.084 608.977C587.312 615.751 591.702 619.113 597.576 618.161C601.767 617.482 604.38 614.908 604.875 611.928L604.924 611.627L610.354 610.747L610.341 611.075C610.147 616.711 605.449 621.904 598.241 623.071ZM593.096 593.731C588.302 594.508 585.085 598.386 585.48 604.643L603.546 601.716C601.967 595.39 597.922 592.949 593.096 593.731ZM629.707 617.973C621.928 619.234 616.585 616.026 614.962 610.228L614.884 609.948L620.408 609.053L620.523 609.36C621.725 612.554 624.484 614.095 628.993 613.364C633.47 612.639 635.833 610.333 635.35 607.349L635.344 607.317C634.959 604.936 633.504 603.803 629.608 603.489L624.164 603.068C617.698 602.584 614.214 600.183 613.442 595.42L613.437 595.389C612.516 589.705 616.848 584.865 623.992 583.707C631.231 582.534 636.52 586.011 637.827 591.469L637.926 591.877L632.655 592.731L632.588 592.514C631.623 589.379 628.834 587.648 624.738 588.311C620.737 588.96 618.574 591.298 619.048 594.219L619.053 594.251C619.418 596.505 621.163 597.819 624.958 598.116L630.403 598.538C637.333 599.077 640.173 601.321 640.934 606.02L640.94 606.052C641.876 611.831 637.073 616.78 629.707 617.973ZM645.034 575.215C643.129 575.523 641.321 574.22 641.013 572.315C640.699 570.378 642.008 568.602 643.913 568.293C645.85 567.979 647.621 569.256 647.935 571.193C648.243 573.098 646.971 574.901 645.034 575.215ZM648.528 614.272L643.178 581.251L648.702 580.355L654.053 613.377L648.528 614.272ZM677.452 621.642C669.292 622.964 663.525 619.956 661.654 615.241L661.544 614.966L667.1 614.065L667.274 614.33C668.707 616.542 672.087 617.493 676.596 616.763C682.407 615.821 685.189 612.079 684.361 606.967L683.677 602.745L683.55 602.765C682.173 606.735 678.743 609.702 674.012 610.469C665.693 611.817 658.924 606.038 657.252 595.719L657.247 595.687C655.585 585.431 660.252 577.832 668.635 576.474C673.302 575.718 677.397 577.661 680.026 581.015L680.153 580.995L679.247 575.406L684.772 574.511L689.973 606.612C691.213 614.264 686.406 620.191 677.452 621.642ZM674.426 605.384C680.046 604.473 683.08 599.061 681.891 591.727L681.886 591.695C680.708 584.424 676.095 580.284 670.506 581.189C664.632 582.141 661.711 587.437 662.899 594.771L662.904 594.803C664.118 602.296 668.552 606.335 674.426 605.384ZM697.266 606.375L691.916 573.354L697.441 572.459L698.202 577.158L698.329 577.137C699.608 573.769 702.609 570.97 707.625 570.157C714.865 568.984 719.817 573.004 721.037 580.529L724.509 601.961L718.984 602.857L715.671 582.409C714.802 577.043 711.815 574.496 706.735 575.319C701.528 576.163 698.732 580.428 699.643 586.048L702.791 605.48L697.266 606.375ZM754.649 597.73C748.076 598.795 743.02 595.541 742.047 589.54L742.037 589.476C741.127 583.856 744.937 579.622 752.454 577.948L761.828 575.875L761.381 573.113C760.727 569.08 757.696 567.062 753.092 567.808C748.837 568.498 746.499 570.962 746.343 574.018L746.326 574.314L740.991 575.178L740.967 574.824C740.563 569.317 744.584 564.169 752.363 562.908C760.174 561.643 765.748 565.073 766.818 571.678L770.517 594.507L764.992 595.402L764.123 590.036L763.996 590.057C762.645 593.99 759.062 597.015 754.649 597.73ZM747.699 588.624C748.214 591.799 751.141 593.378 755.11 592.735C760.318 591.891 763.737 587.655 762.96 582.86L762.523 580.161L753.783 582.131C749.411 583.101 747.19 585.481 747.689 588.561L747.699 588.624ZM792.67 602.322L785.519 558.188L791.044 557.293L791.95 562.881L792.077 562.86C793.518 558.684 796.815 555.706 801.546 554.939C809.992 553.571 816.671 559.397 818.358 569.811L818.364 569.843C820.051 580.258 815.485 587.873 807.198 589.216C802.53 589.972 798.307 588.245 795.626 584.769L795.499 584.79L798.195 601.427L792.67 602.322ZM805.23 584.516C811.073 583.57 813.931 578.284 812.712 570.759L812.707 570.727C811.477 563.139 807.101 559.058 801.259 560.004C795.671 560.91 792.489 566.411 793.688 573.809L793.693 573.84C794.886 581.207 799.674 585.417 805.23 584.516ZM826.622 585.417L821.272 552.395L826.796 551.5L827.702 557.088L827.829 557.068C828.323 553.078 830.789 550.201 834.504 549.6C835.457 549.445 836.308 549.47 836.763 549.462L837.632 554.828C837.162 554.741 835.962 554.773 834.628 554.989C830.342 555.683 828.031 559.12 828.844 564.137L832.147 584.522L826.622 585.417ZM858.794 580.856C849.3 582.394 842.51 576.684 840.827 566.301L840.822 566.27C839.166 556.046 843.871 548.082 852.888 546.621C861.906 545.16 868.484 550.969 870.089 560.876L870.419 562.908L846.637 566.761C847.865 573.535 852.254 576.897 858.128 575.946C862.32 575.267 864.933 572.692 865.428 569.712L865.477 569.411L870.906 568.531L870.894 568.859C870.699 574.495 866.001 579.688 858.794 580.856ZM853.649 551.516C848.854 552.293 845.638 556.17 846.032 562.428L864.099 559.5C862.52 553.174 858.475 550.734 853.649 551.516ZM890.259 575.758C882.48 577.018 877.138 573.811 875.514 568.013L875.436 567.732L880.961 566.837L881.076 567.144C882.278 570.338 885.037 571.879 889.545 571.149C894.022 570.423 896.386 568.118 895.902 565.133L895.897 565.101C895.511 562.72 894.057 561.587 890.161 561.273L884.716 560.852C878.251 560.368 874.767 557.967 873.995 553.205L873.99 553.173C873.069 547.489 877.401 542.649 884.545 541.492C891.784 540.319 897.072 543.796 898.38 549.254L898.479 549.661L893.208 550.515L893.14 550.298C892.176 547.163 889.387 545.432 885.291 546.096C881.29 546.744 879.127 549.082 879.6 552.003L879.606 552.035C879.971 554.289 881.715 555.603 885.511 555.901L890.955 556.322C897.886 556.861 900.726 559.105 901.487 563.805L901.492 563.836C902.429 569.615 897.626 574.564 890.259 575.758ZM922.424 570.546C912.93 572.085 906.14 566.375 904.457 555.992L904.452 555.96C902.796 545.736 907.501 537.772 916.518 536.311C925.536 534.85 932.114 540.66 933.719 550.566L934.049 552.598L910.267 556.452C911.495 563.226 915.884 566.588 921.758 565.636C925.95 564.957 928.563 562.383 929.058 559.403L929.107 559.102L934.536 558.222L934.524 558.55C934.329 564.186 929.631 569.379 922.424 570.546ZM917.279 541.206C912.484 541.983 909.268 545.86 909.662 552.118L927.729 549.191C926.15 542.864 922.105 540.424 917.279 541.206ZM942.07 566.711L936.72 533.69L942.245 532.795L943.006 537.494L943.133 537.473C944.412 534.105 947.413 531.306 952.429 530.493C959.669 529.32 964.621 533.34 965.84 540.865L969.313 562.298L963.788 563.193L960.475 542.745C959.606 537.379 956.619 534.832 951.539 535.655C946.331 536.499 943.536 540.764 944.447 546.384L947.595 565.816L942.07 566.711ZM987.197 560.052C981.132 561.034 977.705 558.787 976.681 552.469L973.435 532.433L968.609 533.215L967.868 528.643L972.694 527.861L971.249 518.939L976.964 518.013L978.41 526.935L984.696 525.917L985.437 530.489L979.15 531.507L982.391 551.511C982.962 555.035 984.678 555.768 987.631 555.289C988.297 555.181 988.917 554.983 989.388 554.874L990.114 559.351C989.43 559.559 988.276 559.877 987.197 560.052ZM1005.1 557.15C998.532 558.215 993.475 554.961 992.503 548.96L992.493 548.897C991.582 543.277 995.393 539.042 1002.91 537.368L1012.28 535.295L1011.84 532.533C1011.18 528.501 1008.15 526.483 1003.55 527.229C999.293 527.918 996.955 530.382 996.798 533.438L996.781 533.734L991.447 534.598L991.422 534.244C991.019 528.737 995.04 523.589 1002.82 522.329C1010.63 521.063 1016.2 524.494 1017.27 531.098L1020.97 553.927L1015.45 554.823L1014.58 549.457L1014.45 549.477C1013.1 553.411 1009.52 556.435 1005.1 557.15ZM998.155 548.044C998.669 551.22 1001.6 552.798 1005.57 552.155C1010.77 551.311 1014.19 547.075 1013.42 542.281L1012.98 539.582L1004.24 541.552C999.867 542.521 997.646 544.901 998.145 547.981L998.155 548.044ZM1038.82 551.687C1032.76 552.669 1029.33 550.422 1028.31 544.104L1025.06 524.069L1020.24 524.851L1019.5 520.278L1024.32 519.496L1022.88 510.574L1028.59 509.648L1030.04 518.57L1036.32 517.552L1037.07 522.124L1030.78 523.143L1034.02 543.146C1034.59 546.67 1036.31 547.403 1039.26 546.924C1039.93 546.816 1040.54 546.618 1041.02 546.509L1041.74 550.986C1041.06 551.194 1039.9 551.512 1038.82 551.687ZM1044.47 510.497C1042.56 510.806 1040.76 509.502 1040.45 507.597C1040.13 505.66 1041.44 503.884 1043.35 503.575C1045.28 503.262 1047.05 504.539 1047.37 506.476C1047.68 508.381 1046.4 510.183 1044.47 510.497ZM1047.96 549.555L1042.61 516.533L1048.14 515.638L1053.49 548.66L1047.96 549.555ZM1074.8 545.858C1065.62 547.345 1058.42 541.702 1056.72 531.192L1056.71 531.128C1055 520.619 1060.1 513.048 1069.21 511.572C1078.32 510.095 1085.58 515.633 1087.28 526.174L1087.29 526.238C1089 536.779 1083.91 544.382 1074.8 545.858ZM1074.04 540.963C1079.85 540.022 1082.9 534.901 1081.64 527.153L1081.63 527.09C1080.38 519.343 1075.85 515.515 1070 516.461C1064.26 517.392 1061.11 522.497 1062.36 530.213L1062.37 530.276C1063.63 538.055 1068.2 541.91 1074.04 540.963ZM1095.56 541.843L1090.21 508.822L1095.73 507.926L1096.49 512.626L1096.62 512.605C1097.9 509.237 1100.9 506.437 1105.92 505.625C1113.16 504.452 1118.11 508.472 1119.33 515.997L1122.8 537.429L1117.27 538.324L1113.96 517.876C1113.09 512.51 1110.11 509.964 1105.03 510.787C1099.82 511.631 1097.02 515.896 1097.93 521.516L1101.08 540.948L1095.56 541.843ZM1156.97 532.544C1147.8 534.031 1140.59 528.388 1138.89 517.878L1138.88 517.814C1137.18 507.305 1142.27 499.734 1151.38 498.258C1160.5 496.781 1167.75 502.319 1169.46 512.86L1169.47 512.924C1171.17 523.465 1166.08 531.068 1156.97 532.544ZM1156.21 527.649C1162.02 526.708 1165.07 521.587 1163.81 513.84L1163.8 513.776C1162.55 506.029 1158.02 502.201 1152.18 503.147C1146.43 504.079 1143.28 509.183 1144.53 516.899L1144.54 516.962C1145.8 524.741 1150.37 528.596 1156.21 527.649ZM1177.73 528.529L1172.38 495.508L1177.9 494.613L1178.67 499.312L1178.79 499.291C1180.07 495.923 1183.07 493.123 1188.09 492.311C1195.33 491.138 1200.28 495.158 1201.5 502.683L1204.97 524.115L1199.45 525.01L1196.13 504.562C1195.27 499.196 1192.28 496.65 1187.2 497.473C1181.99 498.317 1179.2 502.582 1180.11 508.202L1183.25 527.634L1177.73 528.529ZM1226.21 520.674L1218.79 474.856L1246.6 470.35L1247.44 475.493L1225.34 479.074L1227.89 494.823L1248.18 491.535L1249 496.616L1228.71 499.903L1231.93 519.748L1226.21 520.674ZM1256.57 476.132C1254.66 476.441 1252.86 475.137 1252.55 473.232C1252.23 471.295 1253.54 469.519 1255.45 469.21C1257.38 468.897 1259.15 470.174 1259.47 472.111C1259.78 474.016 1258.5 475.818 1256.57 476.132ZM1260.06 515.19L1254.71 482.168L1260.24 481.273L1265.59 514.294L1260.06 515.19ZM1288.99 522.56C1280.83 523.882 1275.06 520.873 1273.19 516.158L1273.08 515.883L1278.63 514.983L1278.81 515.248C1280.24 517.459 1283.62 518.411 1288.13 517.68C1293.94 516.739 1296.72 512.997 1295.89 507.885L1295.21 503.662L1295.08 503.682C1293.71 507.653 1290.28 510.62 1285.55 511.386C1277.23 512.734 1270.46 506.956 1268.79 496.636L1268.78 496.605C1267.12 486.349 1271.79 478.75 1280.17 477.392C1284.84 476.635 1288.93 478.579 1291.56 481.933L1291.69 481.912L1290.78 476.324L1296.31 475.429L1301.51 507.53C1302.75 515.182 1297.94 521.109 1288.99 522.56ZM1285.96 506.301C1291.58 505.391 1294.61 499.979 1293.42 492.644L1293.42 492.612C1292.24 485.341 1287.63 481.201 1282.04 482.107C1276.17 483.058 1273.24 488.354 1274.43 495.689L1274.44 495.721C1275.65 503.214 1280.09 507.253 1285.96 506.301ZM1308.8 507.293L1303.45 474.271L1308.97 473.376L1309.76 478.202L1309.88 478.182C1310.85 474.67 1313.79 471.944 1318.05 471.254C1322.56 470.524 1326.27 472.302 1328.35 476.102L1328.47 476.082C1329.67 471.815 1333.16 468.806 1337.8 468.054C1344.34 466.995 1349.26 470.597 1350.32 477.169L1354.01 499.967L1348.49 500.862L1345 479.335C1344.27 474.794 1341.32 472.502 1336.97 473.207C1332.59 473.917 1330.04 477.686 1330.77 482.195L1334.17 503.182L1328.64 504.077L1325.06 481.947C1324.41 477.946 1321.32 475.743 1317.22 476.406C1312.84 477.116 1310.22 481.092 1310.97 485.696L1314.32 506.398L1308.8 507.293ZM1370.82 497.896C1364.25 498.961 1359.19 495.707 1358.22 489.706L1358.21 489.643C1357.3 484.023 1361.11 479.788 1368.62 478.114L1378 476.041L1377.55 473.279C1376.9 469.247 1373.87 467.229 1369.26 467.975C1365.01 468.664 1362.67 471.128 1362.51 474.184L1362.49 474.48L1357.16 475.344L1357.14 474.99C1356.73 469.483 1360.75 464.335 1368.53 463.075C1376.34 461.809 1381.92 465.24 1382.99 471.844L1386.69 494.673L1381.16 495.569L1380.29 490.203L1380.17 490.223C1378.81 494.157 1375.23 497.181 1370.82 497.896ZM1363.87 488.79C1364.38 491.966 1367.31 493.544 1371.28 492.901C1376.49 492.057 1379.91 487.821 1379.13 483.027L1378.69 480.328L1369.95 482.298C1365.58 483.267 1363.36 485.647 1363.86 488.727L1363.87 488.79Z" fill="black"/>
</g>
</g>
<defs>
<filter id="filter0_d_711_44" x="441.161" y="349.247" width="1037.68" height="387.506" filterUnits="userSpaceOnUse" color-interpolation-filters="sRGB">
<feFlood flood-opacity="0" result="BackgroundImageFix"/>
<feColorMatrix in="SourceAlpha" type="matrix" values="0 0 0 0 0 0 0 0 0 0 0 0 0 0 0 0 0 0 127 0" result="hardAlpha"/>
<feOffset dy="3"/>
<feGaussianBlur stdDeviation="1.5"/>
<feComposite in2="hardAlpha" operator="out"/>
<feColorMatrix type="matrix" values="0 0 0 0 0 0 0 0 0 0 0 0 0 0 0 0 0 0 0.25 0"/>
<feBlend mode="normal" in2="BackgroundImageFix" result="effect1_dropShadow_711_44"/>
<feBlend mode="normal" in="SourceGraphic" in2="effect1_dropShadow_711_44" result="shape"/>
</filter>
<clipPath id="clip0_711_44">
<rect x="444.161" y="510.624" width="1009" height="223" rx="18" transform="rotate(-9.20327 444.161 510.624)" fill="white"/>
</clipPath>
</defs>
</svg>
