<svg width="1920" height="1080" viewBox="0 0 1920 1080" fill="none" xmlns="http://www.w3.org/2000/svg">
<rect width="1920" height="1080" fill="#DDDDDD"/>
<g filter="url(#filter0_d_711_64)">
<g clip-path="url(#clip0_711_64)">
<rect x="333.013" y="395.857" width="1201.65" height="460" rx="18" transform="rotate(-8 333.013 395.857)" fill="white"/>
<path d="M439.185 517.262L433.451 476.459L418.958 478.496L418.233 473.336L452.952 468.456L453.677 473.616L439.184 475.653L444.919 516.456L439.185 517.262ZM464.89 513.649L458.431 467.686L463.973 466.907L466.52 485.031L466.648 485.013C467.908 481.036 471.198 478.332 476.135 477.639C483.175 476.649 488.75 481.42 489.878 489.447L492.73 509.737L487.187 510.516L484.47 491.181C483.628 485.193 480.074 482.087 474.913 482.812C469.785 483.533 466.923 487.898 467.715 493.536L470.433 512.87L464.89 513.649ZM513.491 507.469C503.967 508.807 497.298 502.956 495.835 492.54L495.83 492.508C494.389 482.252 499.26 474.389 508.306 473.117C517.352 471.846 523.807 477.792 525.204 487.73L525.491 489.769L501.633 493.122C502.718 499.92 507.037 503.374 512.929 502.545C517.134 501.955 519.801 499.436 520.358 496.467L520.413 496.167L525.86 495.401L525.841 495.729C525.528 501.359 520.722 506.452 513.491 507.469ZM508.964 478.027C504.154 478.703 500.857 482.512 501.12 488.776L519.244 486.229C517.798 479.871 513.805 477.346 508.964 478.027ZM548.159 513.315L541.936 469.04L547.479 468.261L548.267 473.867L548.394 473.85C549.923 469.704 553.282 466.796 558.028 466.129C566.501 464.938 573.056 470.903 574.524 481.351L574.529 481.383C575.997 491.83 571.272 499.348 562.958 500.516C558.276 501.175 554.091 499.359 551.483 495.828L551.356 495.846L553.701 512.536L548.159 513.315ZM561.09 495.777C566.951 494.953 569.92 489.729 568.859 482.18L568.854 482.148C567.785 474.535 563.495 470.363 557.634 471.187C552.028 471.975 548.732 477.408 549.775 484.829L549.779 484.861C550.818 492.251 555.516 496.56 561.09 495.777ZM582.458 497.126L577.802 464L583.345 463.221L584.133 468.827L584.26 468.809C584.838 464.83 587.364 462.006 591.091 461.483C592.046 461.348 592.897 461.391 593.352 461.392L594.108 466.775C593.64 466.679 592.439 466.685 591.101 466.873C586.801 467.477 584.419 470.865 585.126 475.898L588 496.347L582.458 497.126ZM614.719 493.242C605.195 494.581 598.526 488.729 597.062 478.313L597.057 478.282C595.616 468.025 600.487 460.162 609.534 458.891C618.58 457.619 625.035 463.566 626.431 473.504L626.718 475.542L602.86 478.895C603.946 485.694 608.264 489.147 614.157 488.319C618.361 487.728 621.028 485.209 621.585 482.24L621.64 481.94L627.087 481.175L627.068 481.502C626.755 487.133 621.949 492.226 614.719 493.242ZM610.191 463.8C605.381 464.476 602.084 468.285 602.347 474.55L620.471 472.003C619.025 465.645 615.033 463.12 610.191 463.8ZM646.284 488.806C638.481 489.903 633.207 486.584 631.705 480.753L631.633 480.471L637.175 479.692L637.284 480.001C638.418 483.22 641.144 484.818 645.667 484.183C650.158 483.551 652.57 481.296 652.149 478.302L652.145 478.27C651.809 475.881 650.379 474.718 646.49 474.323L641.055 473.787C634.602 473.167 631.169 470.694 630.497 465.916L630.493 465.884C629.691 460.183 634.124 455.435 641.29 454.427C648.553 453.407 653.767 456.994 654.96 462.478L655.05 462.888L649.762 463.631L649.699 463.412C648.801 460.258 646.049 458.469 641.94 459.046C637.926 459.61 635.715 461.902 636.127 464.833L636.131 464.865C636.449 467.126 638.165 468.476 641.954 468.854L647.388 469.389C654.306 470.073 657.098 472.377 657.761 477.091L657.765 477.123C658.58 482.92 653.674 487.767 646.284 488.806ZM678.551 484.271C669.027 485.609 662.358 479.758 660.894 469.342L660.89 469.31C659.448 459.054 664.32 451.191 673.366 449.92C682.412 448.648 688.867 454.595 690.264 464.533L690.55 466.571L666.693 469.924C667.778 476.723 672.096 480.176 677.989 479.348C682.194 478.757 684.86 476.238 685.418 473.269L685.473 472.969L690.92 472.204L690.901 472.531C690.588 478.162 685.782 483.255 678.551 484.271ZM674.023 454.829C669.214 455.505 665.916 459.314 666.18 465.579L684.304 463.032C682.858 456.673 678.865 454.149 674.023 454.829ZM698.274 480.85L693.618 447.723L699.16 446.944L699.823 451.658L699.95 451.64C701.3 448.3 704.358 445.564 709.391 444.857C716.654 443.836 721.521 447.959 722.582 455.508L725.603 477.009L720.061 477.788L717.178 457.275C716.421 451.891 713.489 449.283 708.392 449.999C703.169 450.733 700.284 454.939 701.076 460.577L703.816 480.071L698.274 480.85ZM743.53 475.139C737.446 475.994 734.067 473.675 733.176 467.337L730.352 447.238L725.51 447.918L724.865 443.331L729.707 442.651L728.449 433.7L734.183 432.895L735.44 441.845L741.747 440.959L742.392 445.546L736.085 446.432L738.905 466.499C739.402 470.035 741.102 470.803 744.064 470.386C744.733 470.292 745.357 470.107 745.83 470.008L746.461 474.499C745.774 474.694 744.613 474.987 743.53 475.139ZM761.495 472.614C754.901 473.541 749.914 470.181 749.068 464.161L749.059 464.097C748.267 458.46 752.166 454.306 759.716 452.79L769.132 450.915L768.742 448.144C768.174 444.098 765.185 442.017 760.567 442.666C756.299 443.266 753.909 445.681 753.689 448.733L753.665 449.028L748.314 449.78L748.297 449.426C748.009 443.912 752.137 438.849 759.941 437.752C767.777 436.651 773.277 440.198 774.209 446.823L777.427 469.725L771.885 470.504L771.128 465.121L771.001 465.139C769.568 469.043 765.922 471.992 761.495 472.614ZM754.738 463.364C755.186 466.55 758.08 468.189 762.061 467.63C767.285 466.896 770.793 462.732 770.117 457.922L769.736 455.215L760.957 457.001C756.566 457.878 754.295 460.211 754.729 463.301L754.738 463.364ZM795.322 467.86C789.239 468.715 785.859 466.396 784.969 460.058L782.144 439.959L777.302 440.639L776.658 436.052L781.499 435.372L780.241 426.421L785.975 425.616L787.233 434.566L793.539 433.68L794.184 438.267L787.877 439.153L790.698 459.22C791.194 462.756 792.894 463.524 795.856 463.107C796.525 463.013 797.149 462.828 797.622 462.729L798.253 467.221C797.566 467.415 796.405 467.708 795.322 467.86ZM801.83 426.798C799.918 427.067 798.138 425.725 797.87 423.814C797.597 421.871 798.942 420.123 800.854 419.854C802.797 419.581 804.54 420.895 804.813 422.838C805.082 424.749 803.773 426.525 801.83 426.798ZM804.502 465.92L799.846 432.794L805.389 432.015L810.044 465.141L804.502 465.92ZM831.411 462.788C822.206 464.082 815.123 458.288 813.641 447.745L813.632 447.682C812.15 437.138 817.403 429.676 826.545 428.392C835.686 427.107 842.82 432.796 844.306 443.371L844.315 443.434C845.801 454.009 840.553 461.503 831.411 462.788ZM830.754 457.878C836.583 457.059 839.737 452.003 838.645 444.231L838.636 444.167C837.544 436.395 833.095 432.473 827.234 433.297C821.469 434.107 818.214 439.145 819.302 446.885L819.311 446.948C820.407 454.752 824.893 458.702 830.754 457.878ZM852.249 459.21L847.593 426.083L853.135 425.304L853.798 430.018L853.925 430C855.275 426.66 858.333 423.924 863.366 423.217C870.629 422.196 875.496 426.319 876.557 433.868L879.578 455.369L874.036 456.148L871.153 435.635C870.396 430.252 867.464 427.643 862.367 428.359C857.144 429.093 854.259 433.299 855.051 438.937L857.791 458.431L852.249 459.21ZM897.706 413.324C895.794 413.592 894.014 412.251 893.746 410.34C893.473 408.397 894.819 406.648 896.73 406.38C898.673 406.107 900.416 407.421 900.69 409.364C900.958 411.275 899.649 413.05 897.706 413.324ZM900.378 452.446L895.722 419.319L901.265 418.54L905.92 451.667L900.378 452.446ZM925.312 449.591C917.509 450.688 912.235 447.369 910.733 441.538L910.661 441.256L916.203 440.477L916.312 440.787C917.446 444.005 920.172 445.604 924.695 444.968C929.186 444.337 931.598 442.081 931.177 439.087L931.173 439.055C930.837 436.666 929.407 435.503 925.518 435.108L920.083 434.572C913.63 433.953 910.197 431.479 909.525 426.701L909.521 426.67C908.719 420.968 913.152 416.22 920.318 415.213C927.581 414.192 932.795 417.779 933.988 423.263L934.078 423.673L928.79 424.416L928.727 424.198C927.829 421.043 925.077 419.254 920.968 419.831C916.954 420.395 914.743 422.687 915.155 425.618L915.159 425.65C915.477 427.911 917.193 429.262 920.982 429.639L926.416 430.174C933.334 430.859 936.126 433.162 936.789 437.876L936.793 437.908C937.608 443.705 932.702 448.552 925.312 449.591ZM968.09 443.579C962.006 444.434 958.627 442.115 957.737 435.777L954.912 415.678L950.07 416.358L949.426 411.772L954.267 411.091L953.009 402.141L958.743 401.335L960.001 410.285L966.307 409.399L966.952 413.986L960.645 414.872L963.466 434.939C963.962 438.475 965.662 439.243 968.624 438.827C969.293 438.732 969.917 438.547 970.39 438.448L971.021 442.94C970.334 443.134 969.173 443.427 968.09 443.579ZM977.206 441.648L970.746 395.685L976.289 394.906L978.836 413.03L978.963 413.012C980.223 409.035 983.514 406.331 988.451 405.637C995.49 404.648 1001.07 409.419 1002.19 417.446L1005.05 437.736L999.503 438.515L996.786 419.18C995.944 413.192 992.389 410.086 987.229 410.811C982.101 411.532 979.239 415.897 980.031 421.535L982.748 440.869L977.206 441.648ZM1025.81 435.467C1016.28 436.806 1009.61 430.954 1008.15 420.539L1008.15 420.507C1006.7 410.25 1011.58 402.387 1020.62 401.116C1029.67 399.845 1036.12 405.791 1037.52 415.729L1037.81 417.768L1013.95 421.12C1015.03 427.919 1019.35 431.372 1025.25 430.544C1029.45 429.953 1032.12 427.435 1032.67 424.465L1032.73 424.165L1038.18 423.4L1038.16 423.727C1037.84 429.358 1033.04 434.451 1025.81 435.467ZM1021.28 406.026C1016.47 406.702 1013.17 410.511 1013.44 416.775L1031.56 414.228C1030.11 407.87 1026.12 405.345 1021.28 406.026ZM1045.53 432.046L1040.87 398.919L1046.42 398.14L1047.08 402.854L1047.21 402.837C1048.56 399.496 1051.61 396.76 1056.65 396.053C1063.91 395.032 1068.78 399.155 1069.84 406.705L1072.86 428.205L1067.32 428.984L1064.43 408.471C1063.68 403.088 1060.74 400.479 1055.65 401.195C1050.42 401.93 1047.54 406.135 1048.33 411.773L1051.07 431.267L1045.53 432.046ZM1108.98 435.147C1100.79 436.297 1095.09 433.168 1093.32 428.415L1093.22 428.137L1098.79 427.354L1098.96 427.623C1100.34 429.864 1103.7 430.886 1108.23 430.25C1114.06 429.431 1116.92 425.749 1116.2 420.62L1115.6 416.384L1115.47 416.402C1114.01 420.342 1110.52 423.237 1105.78 423.904C1097.43 425.077 1090.78 419.157 1089.33 408.805L1089.32 408.773C1087.88 398.485 1092.7 390.985 1101.11 389.804C1105.8 389.146 1109.85 391.174 1112.41 394.583L1112.53 394.565L1111.75 388.959L1117.29 388.18L1121.81 420.383C1122.89 428.059 1117.96 433.884 1108.98 435.147ZM1106.3 418.828C1111.93 418.036 1115.08 412.689 1114.05 405.331L1114.04 405.299C1113.02 398.005 1108.49 393.769 1102.89 394.557C1096.99 395.385 1093.96 400.618 1094.99 407.976L1095 408.008C1096.06 415.525 1100.4 419.656 1106.3 418.828ZM1142.83 419.02C1133.31 420.359 1126.64 414.508 1125.18 404.092L1125.17 404.06C1123.73 393.803 1128.6 385.94 1137.65 384.669C1146.69 383.398 1153.15 389.344 1154.55 399.282L1154.83 401.321L1130.97 404.674C1132.06 411.472 1136.38 414.925 1142.27 414.097C1146.48 413.506 1149.14 410.988 1149.7 408.019L1149.75 407.718L1155.2 406.953L1155.18 407.28C1154.87 412.911 1150.06 418.004 1142.83 419.02ZM1138.31 389.579C1133.5 390.255 1130.2 394.064 1130.46 400.328L1148.59 397.781C1147.14 391.423 1143.15 388.898 1138.31 389.579ZM1162.56 415.599L1157.9 382.472L1163.44 381.693L1164.11 386.408L1164.23 386.39C1165.58 383.049 1168.64 380.313 1173.67 379.606C1180.94 378.585 1185.8 382.709 1186.86 390.258L1189.89 411.758L1184.34 412.537L1181.46 392.024C1180.7 386.641 1177.77 384.032 1172.67 384.748C1167.45 385.483 1164.57 389.688 1165.36 395.326L1168.1 414.82L1162.56 415.599ZM1210.68 409.485C1201.16 410.824 1194.49 404.972 1193.02 394.557L1193.02 394.525C1191.58 384.268 1196.45 376.405 1205.49 375.134C1214.54 373.862 1221 379.809 1222.39 389.747L1222.68 391.785L1198.82 395.138C1199.91 401.937 1204.22 405.39 1210.12 404.562C1214.32 403.971 1216.99 401.453 1217.55 398.483L1217.6 398.183L1223.05 397.418L1223.03 397.745C1222.72 403.376 1217.91 408.469 1210.68 409.485ZM1206.15 380.044C1201.34 380.72 1198.04 384.529 1198.31 390.793L1216.43 388.246C1214.99 381.888 1210.99 379.363 1206.15 380.044ZM1230.4 406.064L1225.75 372.937L1231.29 372.158L1232.08 377.764L1232.2 377.746C1232.78 373.767 1235.31 370.944 1239.03 370.42C1239.99 370.286 1240.84 370.329 1241.3 370.33L1242.05 375.713C1241.58 375.616 1240.38 375.622 1239.05 375.81C1234.75 376.415 1232.36 379.803 1233.07 384.836L1235.94 405.285L1230.4 406.064ZM1259.67 402.6C1253.07 403.527 1248.09 400.168 1247.24 394.148L1247.23 394.084C1246.44 388.446 1250.34 384.293 1257.89 382.777L1267.31 380.901L1266.92 378.13C1266.35 374.085 1263.36 372.004 1258.74 372.653C1254.47 373.253 1252.08 375.667 1251.86 378.719L1251.84 379.015L1246.49 379.767L1246.47 379.412C1246.18 373.898 1250.31 368.835 1258.11 367.739C1265.95 366.637 1271.45 370.184 1272.38 376.81L1275.6 399.712L1270.06 400.49L1269.3 395.107L1269.17 395.125C1267.74 399.03 1264.1 401.978 1259.67 402.6ZM1252.91 393.351C1253.36 396.536 1256.25 398.176 1260.23 397.616C1265.46 396.882 1268.97 392.718 1268.29 387.909L1267.91 385.201L1259.13 386.987C1254.74 387.864 1252.47 390.197 1252.9 393.287L1252.91 393.351ZM1293.5 397.846C1287.41 398.701 1284.03 396.383 1283.14 390.044L1280.32 369.945L1275.48 370.626L1274.83 366.039L1279.67 365.358L1278.41 356.408L1284.15 355.602L1285.41 364.553L1291.71 363.666L1292.36 368.253L1286.05 369.139L1288.87 389.206C1289.37 392.742 1291.07 393.51 1294.03 393.094C1294.7 393 1295.32 392.815 1295.8 392.716L1296.43 397.207C1295.74 397.401 1294.58 397.694 1293.5 397.846ZM1315.09 394.811C1305.57 396.15 1298.9 390.298 1297.43 379.882L1297.43 379.851C1295.99 369.594 1300.86 361.731 1309.91 360.46C1318.95 359.188 1325.41 365.135 1326.8 375.073L1327.09 377.111L1303.23 380.464C1304.32 387.263 1308.64 390.716 1314.53 389.888C1318.73 389.297 1321.4 386.778 1321.96 383.809L1322.01 383.509L1327.46 382.744L1327.44 383.071C1327.13 388.702 1322.32 393.795 1315.09 394.811ZM1310.56 365.369C1305.75 366.045 1302.46 369.854 1302.72 376.119L1320.84 373.572C1319.4 367.214 1315.41 364.689 1310.56 365.369ZM1347.36 390.276C1338.89 391.467 1332.33 385.502 1330.86 375.055L1330.86 375.023C1329.39 364.575 1334.11 357.057 1342.43 355.889C1347.11 355.231 1351.3 357.046 1353.9 360.578L1354.03 360.56L1351.45 342.181L1356.99 341.402L1363.45 387.365L1357.91 388.144L1357.12 382.538L1356.99 382.556C1355.46 386.701 1352.1 389.609 1347.36 390.276ZM1347.75 385.219C1353.36 384.431 1356.65 378.998 1355.61 371.576L1355.61 371.544C1354.57 364.155 1349.87 359.845 1344.3 360.629C1338.43 361.452 1335.47 366.677 1336.53 374.226L1336.53 374.258C1337.6 381.87 1341.89 386.042 1347.75 385.219ZM447.467 596.524C440.873 597.451 435.886 594.091 435.04 588.071L435.031 588.008C434.239 582.37 438.137 578.216 445.688 576.701L455.103 574.825L454.714 572.054C454.145 568.009 451.157 565.927 446.538 566.577C442.27 567.176 439.881 569.591 439.66 572.643L439.637 572.938L434.286 573.691L434.268 573.336C433.981 567.822 438.109 562.759 445.913 561.662C453.748 560.561 459.249 564.108 460.18 570.733L463.399 593.635L457.857 594.414L457.1 589.031L456.973 589.049C455.54 592.953 451.894 595.902 447.467 596.524ZM440.71 587.275C441.157 590.46 444.051 592.099 448.033 591.54C453.257 590.806 456.764 586.642 456.088 581.833L455.708 579.125L446.929 580.911C442.537 581.788 440.267 584.121 440.701 587.211L440.71 587.275ZM481.835 591.694C474.573 592.715 469.706 588.591 468.645 581.042L465.623 559.542L471.166 558.763L474.049 579.276C474.805 584.659 477.738 587.268 482.834 586.551C488.058 585.817 490.943 581.611 490.15 575.974L487.411 556.48L492.953 555.701L497.609 588.828L492.066 589.606L491.404 584.892L491.276 584.91C489.927 588.251 486.868 590.987 481.835 591.694ZM515.695 586.935C509.611 587.79 506.232 585.472 505.341 579.133L502.516 559.034L497.675 559.715L497.03 555.128L501.872 554.447L500.614 545.497L506.347 544.691L507.605 553.642L513.912 552.755L514.556 557.342L508.25 558.228L511.07 578.296C511.567 581.831 513.266 582.599 516.229 582.183C516.898 582.089 517.521 581.904 517.994 581.805L518.626 586.296C517.938 586.49 516.778 586.783 515.695 586.935ZM537.386 583.887C528.181 585.181 521.098 579.387 519.616 568.844L519.607 568.78C518.125 558.237 523.378 550.775 532.52 549.491C541.661 548.206 548.795 553.894 550.281 564.469L550.29 564.533C551.776 575.108 546.528 582.602 537.386 583.887ZM536.729 578.977C542.558 578.158 545.713 573.102 544.62 565.33L544.611 565.266C543.519 557.494 539.07 553.572 533.209 554.396C527.444 555.206 524.189 560.243 525.277 567.984L525.286 568.047C526.383 575.851 530.868 579.801 536.729 578.977ZM558.224 580.309L553.568 547.182L559.111 546.403L559.791 551.245L559.918 551.227C560.954 547.736 563.958 545.072 568.226 544.472C572.749 543.837 576.421 545.692 578.423 549.536L578.55 549.518C579.838 545.277 583.388 542.341 588.039 541.688C594.6 540.766 599.441 544.47 600.368 551.064L603.582 573.934L598.039 574.713L595.004 553.117C594.364 548.562 591.467 546.208 587.104 546.821C582.708 547.439 580.079 551.154 580.715 555.677L583.674 576.732L578.132 577.511L575.011 555.31C574.447 551.296 571.4 549.028 567.291 549.606C562.896 550.224 560.198 554.143 560.847 558.762L563.766 579.53L558.224 580.309ZM620.426 572.216C613.832 573.143 608.845 569.784 607.999 563.764L607.99 563.7C607.198 558.062 611.097 553.909 618.647 552.393L628.063 550.517L627.673 547.746C627.105 543.701 624.116 541.62 619.498 542.269C615.229 542.869 612.84 545.283 612.619 548.335L612.596 548.631L607.245 549.383L607.227 549.028C606.94 543.514 611.068 538.451 618.872 537.355C626.708 536.253 632.208 539.8 633.139 546.426L636.358 569.328L630.816 570.106L630.059 564.723L629.932 564.741C628.499 568.646 624.853 571.594 620.426 572.216ZM613.669 562.967C614.117 566.152 617.01 567.792 620.992 567.232C626.216 566.498 629.723 562.334 629.047 557.525L628.667 554.817L619.888 556.603C615.496 557.48 613.226 559.813 613.66 562.903L613.669 562.967ZM654.253 567.462C648.169 568.317 644.79 565.999 643.899 559.66L641.075 539.561L636.233 540.242L635.588 535.655L640.43 534.974L639.172 526.024L644.906 525.218L646.163 534.169L652.47 533.282L653.115 537.869L646.808 538.755L649.628 558.822C650.125 562.358 651.825 563.126 654.787 562.71C655.456 562.616 656.08 562.431 656.553 562.332L657.184 566.823C656.497 567.017 655.336 567.31 654.253 567.462ZM660.76 526.4C658.849 526.669 657.069 525.328 656.8 523.416C656.527 521.473 657.873 519.725 659.784 519.457C661.727 519.183 663.471 520.497 663.744 522.44C664.013 524.352 662.703 526.127 660.76 526.4ZM663.433 565.522L658.777 532.396L664.319 531.617L668.975 564.744L663.433 565.522ZM690.342 562.39C680.946 563.711 674.049 557.859 672.567 547.316L672.563 547.284C671.094 536.836 676.238 529.292 685.444 527.998C693.693 526.839 699.337 531.633 700.834 537.204L700.902 537.454L695.487 538.215L695.388 537.97C694.094 534.773 691.006 532.219 686.133 532.904C680.368 533.714 677.185 539.034 678.241 546.551L678.246 546.583C679.329 554.291 683.919 558.291 689.653 557.485C694.176 556.849 696.716 553.894 697.121 550.069L697.148 549.805L702.595 549.04L702.595 549.267C702.589 555.699 697.827 561.338 690.342 562.39ZM718.977 558.366C712.384 559.292 707.397 555.933 706.551 549.913L706.542 549.849C705.749 544.211 709.648 540.058 717.198 538.542L726.614 536.667L726.225 533.895C725.656 529.85 722.668 527.769 718.049 528.418C713.781 529.018 711.392 531.433 711.171 534.485L711.148 534.78L705.796 535.532L705.779 535.177C705.491 529.663 709.62 524.601 717.424 523.504C725.259 522.403 730.76 525.95 731.691 532.575L734.91 555.477L729.367 556.256L728.611 550.873L728.483 550.891C727.051 554.795 723.405 557.744 718.977 558.366ZM712.221 549.116C712.668 552.301 715.562 553.941 719.544 553.381C724.768 552.647 728.275 548.484 727.599 543.674L727.219 540.967L718.44 542.753C714.048 543.63 711.777 545.963 712.212 549.052L712.221 549.116ZM742.236 554.447L735.776 508.484L741.318 507.705L747.778 553.668L742.236 554.447ZM755.55 552.576L749.09 506.613L754.633 505.834L761.092 551.797L755.55 552.576ZM773.33 561.446C772.247 561.598 771.05 561.636 770.332 561.608L769.696 557.084C770.187 557.113 770.838 557.119 771.507 557.025C775.01 556.532 776.828 555.368 777.638 551.421L778.042 549.448L761.087 518.017L767.012 517.184L780.03 543.484L780.158 543.466L785.454 514.593L791.283 513.773L783.298 550.788C781.832 557.458 779.318 560.604 773.33 561.446ZM820.243 543.484L806.318 511.66L811.828 510.886L822.241 536.902L822.368 536.884L826.066 508.885L831.418 508.133L842.722 534.024L842.849 534.006L845.688 506.127L851.166 505.357L846.585 539.782L840.947 540.575L829.858 515.985L829.73 516.003L825.88 542.692L820.243 543.484ZM858.055 498.672C856.144 498.941 854.363 497.6 854.095 495.688C853.822 493.745 855.168 491.997 857.079 491.729C859.022 491.456 860.766 492.77 861.039 494.713C861.307 496.624 859.998 498.399 858.055 498.672ZM860.727 537.795L856.071 504.668L861.614 503.889L866.269 537.016L860.727 537.795ZM884.674 535.079C878.59 535.934 875.211 533.615 874.32 527.277L871.496 507.178L866.654 507.858L866.009 503.271L870.851 502.591L869.593 493.64L875.327 492.834L876.584 501.785L882.891 500.899L883.536 505.485L877.229 506.372L880.049 526.439C880.546 529.974 882.246 530.743 885.208 530.326C885.877 530.232 886.501 530.047 886.974 529.948L887.605 534.439C886.918 534.633 885.757 534.926 884.674 535.079ZM893.79 533.148L887.33 487.185L892.873 486.406L895.42 504.53L895.547 504.512C896.807 500.535 900.098 497.831 905.035 497.137C912.074 496.148 917.649 500.918 918.778 508.945L921.629 529.235L916.087 530.014L913.369 510.68C912.528 504.692 908.973 501.586 903.813 502.311C898.685 503.032 895.823 507.397 896.615 513.034L899.332 532.369L893.79 533.148ZM952.902 525.49C946.818 526.345 943.439 524.026 942.548 517.688L939.724 497.589L934.882 498.269L934.238 493.682L939.079 493.002L937.821 484.051L943.555 483.246L944.813 492.196L951.119 491.31L951.764 495.897L945.457 496.783L948.277 516.85C948.774 520.386 950.474 521.154 953.436 520.737C954.105 520.643 954.729 520.458 955.202 520.359L955.833 524.851C955.146 525.045 953.985 525.338 952.902 525.49ZM962.018 523.559L955.558 477.596L961.101 476.817L963.648 494.941L963.775 494.923C965.035 490.946 968.326 488.242 973.263 487.548C980.302 486.559 985.878 491.33 987.006 499.356L989.857 519.647L984.315 520.425L981.598 501.091C980.756 495.103 977.201 491.997 972.041 492.722C966.913 493.443 964.051 497.808 964.843 503.446L967.56 522.78L962.018 523.559ZM1010.62 517.378C1001.1 518.717 994.426 512.865 992.962 502.45L992.958 502.418C991.516 492.161 996.388 484.298 1005.43 483.027C1014.48 481.755 1020.94 487.702 1022.33 497.64L1022.62 499.678L998.761 503.031C999.846 509.83 1004.16 513.283 1010.06 512.455C1014.26 511.864 1016.93 509.346 1017.49 506.376L1017.54 506.076L1022.99 505.311L1022.97 505.638C1022.66 511.269 1017.85 516.362 1010.62 517.378ZM1006.09 487.937C1001.28 488.613 997.984 492.422 998.247 498.686L1016.37 496.139C1014.93 489.781 1010.93 487.256 1006.09 487.937ZM1057.54 510.784C1048.14 512.105 1041.24 506.253 1039.76 495.71L1039.76 495.678C1038.29 485.23 1043.43 477.686 1052.64 476.392C1060.89 475.233 1066.53 480.027 1068.03 485.598L1068.1 485.848L1062.68 486.609L1062.58 486.364C1061.29 483.167 1058.2 480.613 1053.33 481.298C1047.56 482.108 1044.38 487.428 1045.44 494.945L1045.44 494.977C1046.53 502.685 1051.11 506.685 1056.85 505.879C1061.37 505.243 1063.91 502.288 1064.32 498.463L1064.34 498.199L1069.79 497.434L1069.79 497.661C1069.78 504.093 1065.02 509.732 1057.54 510.784ZM1090.22 506.191C1081.01 507.485 1073.93 501.692 1072.45 491.149L1072.44 491.085C1070.96 480.542 1076.21 473.08 1085.35 471.795C1094.49 470.51 1101.63 476.199 1103.11 486.774L1103.12 486.838C1104.61 497.413 1099.36 504.907 1090.22 506.191ZM1089.56 501.282C1095.39 500.462 1098.54 495.407 1097.45 487.635L1097.44 487.571C1096.35 479.799 1091.9 475.877 1086.04 476.7C1080.28 477.511 1077.02 482.548 1078.11 490.288L1078.12 490.352C1079.21 498.156 1083.7 502.105 1089.56 501.282ZM1111.06 502.613L1106.4 469.487L1111.94 468.708L1112.61 473.422L1112.73 473.404C1114.08 470.063 1117.14 467.327 1122.17 466.62C1129.44 465.599 1134.3 469.723 1135.36 477.272L1138.39 498.772L1132.84 499.551L1129.96 479.038C1129.2 473.655 1126.27 471.046 1121.17 471.763C1115.95 472.497 1113.07 476.703 1113.86 482.34L1116.6 501.834L1111.06 502.613ZM1156.31 496.902C1150.23 497.757 1146.85 495.439 1145.96 489.1L1143.13 469.001L1138.29 469.682L1137.65 465.095L1142.49 464.415L1141.23 455.464L1146.96 454.658L1148.22 463.609L1154.53 462.722L1155.17 467.309L1148.87 468.196L1151.69 488.263C1152.18 491.798 1153.88 492.566 1156.85 492.15C1157.52 492.056 1158.14 491.871 1158.61 491.772L1159.24 496.263C1158.56 496.457 1157.4 496.75 1156.31 496.902ZM1177.91 493.867C1168.38 495.206 1161.72 489.354 1160.25 478.939L1160.25 478.907C1158.81 468.65 1163.68 460.787 1172.72 459.516C1181.77 458.244 1188.22 464.191 1189.62 474.129L1189.91 476.167L1166.05 479.52C1167.14 486.319 1171.45 489.772 1177.35 488.944C1181.55 488.353 1184.22 485.835 1184.77 482.865L1184.83 482.565L1190.28 481.8L1190.26 482.127C1189.95 487.758 1185.14 492.851 1177.91 493.867ZM1173.38 464.426C1168.57 465.102 1165.27 468.911 1165.54 475.175L1183.66 472.628C1182.22 466.27 1178.22 463.745 1173.38 464.426ZM1197.63 490.446L1192.98 457.319L1198.52 456.54L1199.18 461.254L1199.31 461.237C1200.66 457.896 1203.72 455.16 1208.75 454.453C1216.01 453.432 1220.88 457.555 1221.94 465.104L1224.96 486.605L1219.42 487.384L1216.54 466.871C1215.78 461.488 1212.85 458.879 1207.75 459.595C1202.53 460.329 1199.64 464.535 1200.43 470.173L1203.17 489.667L1197.63 490.446ZM1242.89 484.735C1236.8 485.59 1233.42 483.272 1232.53 476.933L1229.71 456.834L1224.87 457.514L1224.22 452.928L1229.06 452.247L1227.81 443.297L1233.54 442.491L1234.8 451.441L1241.1 450.555L1241.75 455.142L1235.44 456.028L1238.26 476.095C1238.76 479.631 1240.46 480.399 1243.42 479.983C1244.09 479.889 1244.71 479.704 1245.19 479.605L1245.82 484.096C1245.13 484.29 1243.97 484.583 1242.89 484.735ZM1263.56 481.83C1255.76 482.927 1250.48 479.607 1248.98 473.777L1248.91 473.495L1254.45 472.716L1254.56 473.025C1255.69 476.244 1258.42 477.842 1262.94 477.207C1267.43 476.575 1269.85 474.32 1269.42 471.326L1269.42 471.294C1269.08 468.905 1267.65 467.742 1263.77 467.346L1258.33 466.811C1251.88 466.191 1248.44 463.718 1247.77 458.94L1247.77 458.908C1246.97 453.207 1251.4 448.459 1258.57 447.451C1265.83 446.431 1271.04 450.018 1272.24 455.502L1272.33 455.912L1267.04 456.655L1266.97 456.436C1266.08 453.282 1263.32 451.493 1259.21 452.07C1255.2 452.634 1252.99 454.926 1253.4 457.857L1253.41 457.889C1253.72 460.15 1255.44 461.5 1259.23 461.878L1264.66 462.413C1271.58 463.097 1274.37 465.401 1275.04 470.115L1275.04 470.147C1275.86 475.944 1270.95 480.791 1263.56 481.83ZM1309.3 475.401C1300.09 476.695 1293.01 470.902 1291.53 460.359L1291.52 460.295C1290.04 449.752 1295.29 442.29 1304.43 441.005C1313.58 439.72 1320.71 445.409 1322.19 455.984L1322.2 456.048C1323.69 466.623 1318.44 474.117 1309.3 475.401ZM1308.64 470.492C1314.47 469.672 1317.63 464.617 1316.53 456.845L1316.52 456.781C1315.43 449.009 1310.98 445.087 1305.12 445.91C1299.36 446.721 1296.1 451.758 1297.19 459.498L1297.2 459.562C1298.3 467.366 1302.78 471.315 1308.64 470.492ZM1331.92 471.573L1327.91 443.033L1323.29 443.682L1322.65 439.095L1327.27 438.446L1326.69 434.369C1325.8 427.998 1328.33 424.556 1334.45 423.696C1335.69 423.522 1337.01 423.434 1337.86 423.445L1338.49 427.936C1337.81 427.935 1336.94 428.024 1336.08 428.144C1333.02 428.574 1331.71 430.35 1332.18 433.631L1332.74 437.676L1339.56 436.718L1340.21 441.305L1333.45 442.254L1337.46 470.794L1331.92 471.573ZM1368.08 477.859C1367 478.012 1365.8 478.05 1365.08 478.021L1364.45 473.498C1364.94 473.526 1365.59 473.532 1366.26 473.438C1369.76 472.946 1371.58 471.781 1372.39 467.834L1372.79 465.861L1355.84 434.43L1361.76 433.598L1374.78 459.897L1374.91 459.879L1380.2 431.006L1386.03 430.187L1378.05 467.201C1376.58 473.871 1374.07 477.018 1368.08 477.859ZM1407.6 461.587C1398.39 462.88 1391.31 457.087 1389.83 446.544L1389.82 446.48C1388.34 435.937 1393.59 428.475 1402.73 427.19C1411.87 425.906 1419.01 431.594 1420.49 442.169L1420.5 442.233C1421.99 452.808 1416.74 460.302 1407.6 461.587ZM1406.94 456.677C1412.77 455.858 1415.92 450.802 1414.83 443.03L1414.82 442.966C1413.73 435.194 1409.28 431.272 1403.42 432.096C1397.65 432.906 1394.4 437.943 1395.49 445.683L1395.5 445.747C1396.59 453.551 1401.08 457.501 1406.94 456.677ZM1439.83 457.056C1432.57 458.077 1427.7 453.954 1426.64 446.405L1423.62 424.904L1429.16 424.125L1432.04 444.638C1432.8 450.021 1435.73 452.63 1440.83 451.914C1446.05 451.18 1448.94 446.974 1448.15 441.336L1445.41 421.842L1450.95 421.063L1455.6 454.19L1450.06 454.969L1449.4 450.255L1449.27 450.273C1447.92 453.613 1444.86 456.349 1439.83 457.056ZM1462.84 453.174L1458.18 420.047L1463.72 419.268L1464.51 424.874L1464.64 424.856C1465.21 420.877 1467.74 418.054 1471.47 417.53C1472.42 417.396 1473.27 417.439 1473.73 417.44L1474.49 422.823C1474.02 422.726 1472.82 422.732 1471.48 422.92C1467.18 423.525 1464.8 426.913 1465.5 431.946L1468.38 452.395L1462.84 453.174ZM449.549 675.358L443.089 629.395L470.992 625.474L471.717 630.634L449.548 633.749L451.768 649.548L472.122 646.688L472.838 651.784L452.484 654.645L455.282 674.553L449.549 675.358ZM480.831 631.464C478.92 631.733 477.14 630.391 476.871 628.48C476.598 626.537 477.944 624.789 479.855 624.52C481.798 624.247 483.542 625.561 483.815 627.504C484.084 629.415 482.774 631.191 480.831 631.464ZM483.503 670.586L478.848 637.46L484.39 636.681L489.046 669.807L483.503 670.586ZM512.266 678.562C504.08 679.713 498.378 676.584 496.606 671.831L496.502 671.553L502.076 670.769L502.244 671.038C503.631 673.279 506.99 674.301 511.513 673.666C517.342 672.847 520.203 669.164 519.482 664.036L518.887 659.799L518.759 659.817C517.299 663.758 513.808 666.652 509.062 667.319C500.717 668.492 494.071 662.572 492.616 652.22L492.611 652.188C491.165 641.9 495.99 634.401 504.4 633.219C509.082 632.561 513.135 634.59 515.693 637.998L515.82 637.98L515.032 632.374L520.575 631.595L525.1 663.798C526.179 671.475 521.249 677.3 512.266 678.562ZM509.583 662.244C515.221 661.451 518.367 656.104 517.333 648.746L517.329 648.715C516.304 641.42 511.778 637.184 506.172 637.972C500.279 638.8 497.247 644.034 498.281 651.392L498.285 651.423C499.342 658.941 503.69 663.072 509.583 662.244ZM532.397 663.715L527.741 630.588L533.284 629.809L533.964 634.651L534.092 634.633C535.128 631.142 538.131 628.478 542.4 627.878C546.923 627.243 550.594 629.098 552.596 632.942L552.723 632.924C554.011 628.683 557.561 625.748 562.212 625.094C568.773 624.172 573.614 627.876 574.541 634.47L577.755 657.34L572.213 658.119L569.178 636.523C568.537 631.968 565.641 629.614 561.277 630.228C556.881 630.845 554.252 634.56 554.888 639.083L557.847 660.138L552.305 660.917L549.185 638.716C548.621 634.702 545.573 632.435 541.464 633.012C537.069 633.63 534.372 637.549 535.021 642.168L537.939 662.936L532.397 663.715ZM594.599 655.622C588.005 656.549 583.018 653.19 582.172 647.17L582.163 647.106C581.371 641.468 585.27 637.315 592.82 635.799L602.236 633.923L601.846 631.152C601.278 627.107 598.289 625.026 593.671 625.675C589.402 626.275 587.013 628.689 586.793 631.741L586.769 632.037L581.418 632.789L581.401 632.434C581.113 626.92 585.241 621.857 593.045 620.761C600.881 619.659 606.381 623.206 607.313 629.832L610.531 652.734L604.989 653.513L604.232 648.13L604.105 648.147C602.672 652.052 599.026 655 594.599 655.622ZM587.842 646.373C588.29 649.558 591.184 651.198 595.165 650.638C600.389 649.904 603.897 645.741 603.221 640.931L602.84 638.223L594.061 640.009C589.67 640.886 587.399 643.219 587.833 646.309L587.842 646.373ZM632.732 649.613L628.721 621.074L624.103 621.723L623.458 617.136L628.077 616.487L627.504 612.41C626.608 606.039 629.145 602.597 635.261 601.737C636.503 601.563 637.823 601.475 638.669 601.486L639.3 605.977C638.618 605.976 637.753 606.065 636.893 606.185C633.835 606.615 632.526 608.391 632.987 611.672L633.555 615.717L640.372 614.759L641.016 619.346L634.264 620.295L638.275 648.835L632.732 649.613ZM648.439 607.908C646.528 608.177 644.748 606.836 644.479 604.924C644.206 602.981 645.552 601.233 647.463 600.965C649.406 600.691 651.15 602.006 651.423 603.949C651.692 605.86 650.382 607.635 648.439 607.908ZM651.111 647.03L646.456 613.904L651.998 613.125L656.654 646.252L651.111 647.03ZM664.489 645.15L658.03 599.187L663.572 598.408L670.032 644.371L664.489 645.15ZM691.239 642.04C681.716 643.379 675.046 637.528 673.583 627.112L673.578 627.08C672.137 616.823 677.008 608.96 686.054 607.689C695.1 606.418 701.556 612.364 702.952 622.302L703.239 624.341L679.381 627.694C680.467 634.492 684.785 637.945 690.677 637.117C694.882 636.526 697.549 634.008 698.106 631.039L698.161 630.739L703.608 629.973L703.589 630.301C703.276 635.931 698.47 641.024 691.239 642.04ZM686.712 612.599C681.902 613.275 678.605 617.084 678.868 623.348L696.992 620.801C695.546 614.443 691.553 611.918 686.712 612.599ZM734.113 636.015C727.519 636.942 722.532 633.582 721.686 627.562L721.677 627.499C720.885 621.861 724.784 617.707 732.334 616.191L741.75 614.316L741.36 611.545C740.792 607.499 737.803 605.418 733.185 606.067C728.916 606.667 726.527 609.082 726.307 612.134L726.283 612.429L720.932 613.181L720.915 612.827C720.627 607.313 724.755 602.25 732.559 601.153C740.395 600.052 745.895 603.599 746.827 610.224L750.045 633.126L744.503 633.905L743.746 628.522L743.619 628.54C742.186 632.444 738.54 635.393 734.113 636.015ZM727.356 626.765C727.804 629.951 730.698 631.59 734.679 631.031C739.903 630.297 743.411 626.133 742.735 621.323L742.354 618.616L733.575 620.402C729.184 621.279 726.913 623.612 727.347 626.702L727.356 626.765ZM757.085 632.137L752.429 599.01L757.971 598.231L758.634 602.946L758.761 602.928C760.111 599.587 763.169 596.851 768.202 596.144C775.464 595.123 780.331 599.247 781.392 606.796L784.414 628.296L778.872 629.075L775.989 608.562C775.232 603.179 772.3 600.57 767.203 601.286C761.979 602.021 759.095 606.226 759.887 611.864L762.627 631.358L757.085 632.137ZM804.029 626.189C795.556 627.38 789.001 621.415 787.533 610.967L787.529 610.935C786.06 600.488 790.785 592.97 799.099 591.802C803.781 591.144 807.967 592.959 810.574 596.49L810.702 596.472L808.119 578.094L813.661 577.315L820.121 623.278L814.578 624.057L813.79 618.451L813.663 618.469C812.134 622.614 808.775 625.522 804.029 626.189ZM804.423 621.131C810.029 620.344 813.325 614.911 812.282 607.489L812.278 607.457C811.239 600.067 806.541 595.758 800.967 596.541C795.106 597.365 792.137 602.589 793.198 610.139L793.203 610.17C794.273 617.783 798.562 621.955 804.423 621.131ZM845.736 631.046C844.653 631.199 843.457 631.237 842.738 631.208L842.102 626.685C842.594 626.713 843.244 626.719 843.913 626.625C847.417 626.133 849.234 624.968 850.044 621.021L850.449 619.048L833.494 587.617L839.418 586.785L852.437 613.084L852.564 613.066L857.861 584.193L863.69 583.374L855.704 620.388C854.238 627.058 851.724 630.205 845.736 631.046ZM885.253 614.774C876.048 616.067 868.965 610.274 867.483 599.731L867.474 599.667C865.992 589.124 871.245 581.662 880.387 580.377C889.528 579.093 896.662 584.781 898.148 595.356L898.157 595.42C899.643 605.995 894.395 613.489 885.253 614.774ZM884.596 609.864C890.425 609.045 893.579 603.989 892.487 596.217L892.478 596.153C891.386 588.381 886.937 584.459 881.076 585.283C875.311 586.093 872.056 591.13 873.144 598.87L873.153 598.934C874.249 606.738 878.735 610.688 884.596 609.864ZM917.488 610.243C910.225 611.264 905.358 607.141 904.297 599.592L901.276 578.091L906.818 577.312L909.701 597.825C910.458 603.208 913.39 605.817 918.487 605.101C923.71 604.367 926.595 600.161 925.803 594.523L923.063 575.029L928.605 574.25L933.261 607.377L927.719 608.156L927.056 603.442L926.929 603.46C925.579 606.8 922.521 609.536 917.488 610.243ZM940.491 606.361L935.836 573.234L941.378 572.455L942.166 578.061L942.293 578.043C942.871 574.064 945.397 571.241 949.124 570.717C950.08 570.583 950.93 570.626 951.385 570.627L952.142 576.01C951.673 575.913 950.473 575.919 949.135 576.107C944.835 576.712 942.452 580.1 943.16 585.133L946.034 605.582L940.491 606.361ZM985.843 600.637C978.039 601.733 972.766 598.414 971.264 592.584L971.192 592.302L976.734 591.523L976.843 591.832C977.977 595.051 980.703 596.649 985.226 596.014C989.717 595.382 992.129 593.127 991.708 590.133L991.703 590.101C991.368 587.712 989.937 586.549 986.049 586.153L980.614 585.618C974.161 584.998 970.727 582.525 970.056 577.747L970.052 577.715C969.25 572.014 973.683 567.266 980.849 566.258C988.112 565.238 993.326 568.825 994.519 574.309L994.609 574.719L989.321 575.462L989.258 575.243C988.36 572.089 985.607 570.299 981.498 570.877C977.485 571.441 975.274 573.733 975.685 576.664L975.69 576.695C976.008 578.957 977.724 580.307 981.513 580.684L986.947 581.22C993.865 581.904 996.657 584.208 997.319 588.922L997.324 588.954C998.139 594.751 993.233 599.598 985.843 600.637ZM1004.67 597.34L998.214 551.377L1003.76 550.598L1010.22 596.562L1004.67 597.34ZM1015.38 556.338C1013.47 556.607 1011.69 555.265 1011.42 553.354C1011.15 551.411 1012.49 549.663 1014.4 549.394C1016.35 549.121 1018.09 550.435 1018.36 552.378C1018.63 554.289 1017.32 556.065 1015.38 556.338ZM1018.05 595.46L1013.4 562.334L1018.94 561.555L1023.59 594.681L1018.05 595.46ZM1043.69 592.507C1035.21 593.698 1028.66 587.733 1027.19 577.285L1027.19 577.254C1025.72 566.806 1030.44 559.288 1038.76 558.12C1043.44 557.462 1047.62 559.277 1050.23 562.809L1050.36 562.791L1047.78 544.412L1053.32 543.633L1059.78 589.596L1054.24 590.375L1053.45 584.769L1053.32 584.787C1051.79 588.932 1048.43 591.84 1043.69 592.507ZM1044.08 587.45C1049.69 586.662 1052.98 581.229 1051.94 573.807L1051.94 573.775C1050.9 566.386 1046.2 562.076 1040.63 562.86C1034.76 563.683 1031.8 568.908 1032.86 576.457L1032.86 576.489C1033.93 584.101 1038.22 588.273 1044.08 587.45ZM1080.99 587.265C1071.46 588.604 1064.79 582.752 1063.33 572.336L1063.33 572.305C1061.88 562.048 1066.76 554.185 1075.8 552.914C1084.85 551.642 1091.3 557.589 1092.7 567.527L1092.99 569.565L1069.13 572.918C1070.21 579.717 1074.53 583.17 1080.42 582.342C1084.63 581.751 1087.3 579.232 1087.85 576.263L1087.91 575.963L1093.36 575.198L1093.34 575.525C1093.02 581.156 1088.22 586.249 1080.99 587.265ZM1076.46 557.823C1071.65 558.499 1068.35 562.308 1068.62 568.573L1086.74 566.026C1085.29 559.668 1081.3 557.143 1076.46 557.823ZM1112.55 582.829C1104.75 583.926 1099.47 580.607 1097.97 574.776L1097.9 574.494L1103.44 573.715L1103.55 574.024C1104.69 577.243 1107.41 578.841 1111.94 578.206C1116.43 577.575 1118.84 575.319 1118.42 572.325L1118.41 572.293C1118.08 569.904 1116.65 568.741 1112.76 568.346L1107.32 567.81C1100.87 567.19 1097.44 564.717 1096.77 559.939L1096.76 559.907C1095.96 554.206 1100.39 549.458 1107.56 548.45C1114.82 547.43 1120.03 551.017 1121.23 556.501L1121.32 556.911L1116.03 557.654L1115.97 557.435C1115.07 554.281 1112.32 552.492 1108.21 553.069C1104.19 553.633 1101.98 555.925 1102.39 558.856L1102.4 558.888C1102.72 561.149 1104.43 562.499 1108.22 562.877L1113.66 563.412C1120.57 564.096 1123.37 566.4 1124.03 571.114L1124.03 571.146C1124.85 576.943 1119.94 581.79 1112.55 582.829ZM1131.38 579.533L1124.92 533.569L1130.47 532.791L1133.01 550.915L1133.14 550.897C1134.4 546.919 1137.69 544.216 1142.63 543.522C1149.67 542.532 1155.24 547.303 1156.37 555.33L1159.22 575.62L1153.68 576.399L1150.96 557.065C1150.12 551.076 1146.57 547.97 1141.41 548.696C1136.28 549.416 1133.42 553.781 1134.21 559.419L1136.93 578.754L1131.38 579.533ZM1180.08 573.338C1170.87 574.632 1163.79 568.839 1162.31 558.296L1162.3 558.232C1160.82 547.689 1166.07 540.227 1175.21 538.942C1184.36 537.657 1191.49 543.346 1192.97 553.921L1192.98 553.985C1194.47 564.56 1189.22 572.054 1180.08 573.338ZM1179.42 568.429C1185.25 567.609 1188.41 562.554 1187.31 554.782L1187.3 554.718C1186.21 546.946 1181.76 543.024 1175.9 543.847C1170.14 544.658 1166.88 549.695 1167.97 557.435L1167.98 557.499C1169.08 565.303 1173.56 569.252 1179.42 568.429ZM1207.48 568.838L1193.55 537.014L1199.06 536.24L1209.48 562.256L1209.6 562.238L1213.3 534.239L1218.65 533.487L1229.96 559.377L1230.09 559.359L1232.92 531.481L1238.4 530.711L1233.82 565.136L1228.18 565.928L1217.09 541.339L1216.97 541.357L1213.12 568.046L1207.48 568.838ZM1276.66 571.133C1268.48 572.284 1262.77 569.155 1261 564.402L1260.9 564.124L1266.47 563.341L1266.64 563.609C1268.03 565.85 1271.39 566.873 1275.91 566.237C1281.74 565.418 1284.6 561.735 1283.88 556.607L1283.28 552.37L1283.16 552.388C1281.7 556.329 1278.2 559.223 1273.46 559.89C1265.11 561.063 1258.47 555.143 1257.01 544.791L1257.01 544.759C1255.56 534.471 1260.39 526.972 1268.8 525.79C1273.48 525.132 1277.53 527.161 1280.09 530.569L1280.22 530.551L1279.43 524.945L1284.97 524.166L1289.5 556.369C1290.58 564.046 1285.65 569.871 1276.66 571.133ZM1273.98 554.815C1279.62 554.022 1282.76 548.675 1281.73 541.318L1281.73 541.286C1280.7 533.991 1276.17 529.755 1270.57 530.543C1264.68 531.371 1261.64 536.605 1262.68 543.963L1262.68 543.995C1263.74 551.512 1268.09 555.643 1273.98 554.815ZM1310.52 555.007C1300.99 556.345 1294.32 550.494 1292.86 540.078L1292.85 540.046C1291.41 529.79 1296.28 521.927 1305.33 520.655C1314.38 519.384 1320.83 525.33 1322.23 535.268L1322.52 537.307L1298.66 540.66C1299.74 547.459 1304.06 550.912 1309.95 550.084C1314.16 549.493 1316.83 546.974 1317.38 544.005L1317.44 543.705L1322.88 542.939L1322.87 543.267C1322.55 548.898 1317.75 553.991 1310.52 555.007ZM1305.99 525.565C1301.18 526.241 1297.88 530.05 1298.14 536.315L1316.27 533.767C1314.82 527.409 1310.83 524.885 1305.99 525.565ZM1341.09 550.709C1335.01 551.564 1331.63 549.246 1330.74 542.907L1327.92 522.808L1323.07 523.489L1322.43 518.902L1327.27 518.222L1326.01 509.271L1331.75 508.465L1333 517.416L1339.31 516.529L1339.96 521.116L1333.65 522.002L1336.47 542.07C1336.97 545.605 1338.67 546.373 1341.63 545.957C1342.3 545.863 1342.92 545.678 1343.39 545.579L1344.03 550.07C1343.34 550.264 1342.18 550.557 1341.09 550.709ZM1361.77 547.804C1353.96 548.901 1348.69 545.582 1347.19 539.751L1347.12 539.469L1352.66 538.69L1352.77 539C1353.9 542.218 1356.63 543.817 1361.15 543.181C1365.64 542.55 1368.05 540.294 1367.63 537.3L1367.63 537.268C1367.29 534.879 1365.86 533.716 1361.97 533.321L1356.54 532.785C1350.08 532.166 1346.65 529.692 1345.98 524.914L1345.97 524.883C1345.17 519.181 1349.61 514.433 1356.77 513.426C1364.03 512.405 1369.25 515.992 1370.44 521.476L1370.53 521.886L1365.24 522.629L1365.18 522.411C1364.28 519.256 1361.53 517.467 1357.42 518.044C1353.41 518.608 1351.2 520.901 1351.61 523.831L1351.61 523.863C1351.93 526.124 1353.65 527.475 1357.44 527.852L1362.87 528.387C1369.79 529.072 1372.58 531.375 1373.24 536.089L1373.25 536.121C1374.06 541.918 1369.16 546.765 1361.77 547.804ZM471.08 752.758C463.818 753.779 458.951 749.656 457.89 742.107L454.868 720.606L460.411 719.827L463.294 740.34C464.05 745.723 466.983 748.332 472.079 747.616C477.303 746.881 480.188 742.676 479.395 737.038L476.656 717.544L482.198 716.765L486.853 749.892L481.311 750.671L480.649 745.957L480.521 745.974C479.172 749.315 476.113 752.051 471.08 752.758ZM495.651 760.024L489.428 715.749L494.971 714.97L495.759 720.576L495.886 720.558C497.415 716.413 500.774 713.505 505.52 712.838C513.993 711.647 520.548 717.612 522.016 728.06L522.021 728.091C523.489 738.539 518.764 746.057 510.45 747.225C505.768 747.883 501.582 746.068 498.975 742.536L498.847 742.554L501.193 759.245L495.651 760.024ZM508.582 742.485C514.443 741.662 517.412 736.437 516.351 728.888L516.346 728.856C515.276 721.244 510.987 717.072 505.126 717.895C499.52 718.683 496.224 724.116 497.267 731.538L497.271 731.57C498.31 738.959 503.008 743.269 508.582 742.485ZM542.494 742.722C534.021 743.912 527.466 737.948 525.998 727.5L525.993 727.468C524.525 717.021 529.25 709.503 537.564 708.334C542.246 707.676 546.431 709.492 549.039 713.023L549.166 713.005L546.583 694.626L552.126 693.847L558.585 739.811L553.043 740.589L552.255 734.983L552.128 735.001C550.599 739.146 547.24 742.055 542.494 742.722ZM542.887 737.664C548.493 736.876 551.79 731.443 550.747 724.022L550.743 723.99C549.704 716.6 545.006 712.291 539.431 713.074C533.571 713.898 530.602 719.122 531.663 726.671L531.667 726.703C532.737 734.316 537.027 738.488 542.887 737.664ZM575.843 738.035C569.25 738.961 564.263 735.602 563.417 729.582L563.408 729.518C562.615 723.88 566.514 719.727 574.064 718.211L583.48 716.336L583.091 713.564C582.522 709.519 579.534 707.438 574.915 708.087C570.647 708.687 568.258 711.102 568.037 714.153L568.014 714.449L562.662 715.201L562.645 714.846C562.357 709.332 566.486 704.27 574.289 703.173C582.125 702.072 587.626 705.619 588.557 712.244L591.776 735.146L586.233 735.925L585.477 730.542L585.349 730.56C583.917 734.464 580.271 737.412 575.843 738.035ZM569.086 728.785C569.534 731.97 572.428 733.61 576.41 733.05C581.633 732.316 585.141 728.153 584.465 723.343L584.085 720.636L575.306 722.422C570.914 723.299 568.643 725.632 569.078 728.721L569.086 728.785ZM609.671 733.281C603.587 734.136 600.208 731.817 599.317 725.478L596.492 705.38L591.651 706.06L591.006 701.473L595.848 700.793L594.59 691.842L600.323 691.036L601.581 699.987L607.888 699.101L608.532 703.687L602.226 704.574L605.046 724.641C605.543 728.176 607.242 728.945 610.205 728.528C610.874 728.434 611.497 728.249 611.97 728.15L612.602 732.641C611.914 732.835 610.754 733.128 609.671 733.281ZM631.267 730.245C621.743 731.584 615.074 725.733 613.61 715.317L613.605 715.285C612.164 705.028 617.036 697.165 626.082 695.894C635.128 694.623 641.583 700.569 642.979 710.507L643.266 712.546L619.408 715.899C620.494 722.697 624.812 726.15 630.705 725.322C634.909 724.731 637.576 722.213 638.133 719.244L638.189 718.944L643.635 718.178L643.616 718.505C643.303 724.136 638.497 729.229 631.267 730.245ZM626.739 700.804C621.929 701.48 618.632 705.289 618.895 711.553L637.019 709.006C635.574 702.648 631.581 700.123 626.739 700.804ZM663.533 725.711C655.061 726.901 648.505 720.937 647.037 710.489L647.033 710.457C645.564 700.01 650.29 692.492 658.603 691.323C663.285 690.665 667.471 692.481 670.078 696.012L670.206 695.994L667.623 677.615L673.165 676.836L679.625 722.8L674.083 723.578L673.295 717.972L673.167 717.99C671.638 722.135 668.279 725.044 663.533 725.711ZM663.927 720.653C669.533 719.865 672.83 714.432 671.787 707.011L671.782 706.979C670.744 699.589 666.045 695.28 660.471 696.063C654.61 696.887 651.641 702.111 652.702 709.66L652.707 709.692C653.777 717.305 658.066 721.477 663.927 720.653ZM702.055 731.016L695.833 686.741L701.375 685.962L702.163 691.568L702.29 691.55C703.819 687.405 707.178 684.497 711.924 683.83C720.397 682.639 726.952 688.604 728.42 699.051L728.425 699.083C729.893 709.531 725.168 717.049 716.854 718.217C712.172 718.875 707.987 717.06 705.379 713.528L705.252 713.546L707.597 730.237L702.055 731.016ZM714.986 713.477C720.847 712.654 723.816 707.429 722.755 699.88L722.751 699.848C721.681 692.235 717.391 688.063 711.531 688.887C705.925 689.675 702.628 695.108 703.671 702.53L703.675 702.561C704.714 709.951 709.412 714.261 714.986 713.477ZM750.077 713.548C740.553 714.886 733.884 709.035 732.42 698.619L732.415 698.587C730.974 688.331 735.845 680.468 744.891 679.196C753.938 677.925 760.393 683.871 761.789 693.809L762.076 695.848L738.218 699.201C739.304 705.999 743.622 709.453 749.515 708.625C753.719 708.034 756.386 705.515 756.943 702.546L756.998 702.246L762.445 701.48L762.426 701.808C762.113 707.439 757.307 712.532 750.077 713.548ZM745.549 684.106C740.739 684.782 737.442 688.591 737.705 694.856L755.829 692.308C754.383 685.95 750.391 683.426 745.549 684.106ZM769.799 710.126L765.144 677L770.686 676.221L771.474 681.827L771.601 681.809C772.179 677.83 774.705 675.006 778.432 674.483C779.388 674.348 780.238 674.391 780.693 674.392L781.45 679.775C780.981 679.679 779.781 679.685 778.443 679.873C774.143 680.477 771.76 683.865 772.468 688.898L775.342 709.347L769.799 710.126ZM787.608 668.126C785.697 668.394 783.917 667.053 783.648 665.142C783.375 663.199 784.721 661.451 786.632 661.182C788.575 660.909 790.319 662.223 790.592 664.166C790.861 666.077 789.551 667.853 787.608 668.126ZM790.28 707.248L785.625 674.121L791.167 673.342L795.823 706.469L790.28 707.248ZM817.19 704.116C807.984 705.409 800.901 699.616 799.42 689.073L799.411 689.009C797.929 678.466 803.182 671.004 812.323 669.719C821.465 668.435 828.598 674.123 830.085 684.698L830.094 684.762C831.58 695.337 826.331 702.831 817.19 704.116ZM816.532 699.206C822.361 698.387 825.516 693.331 824.424 685.559L824.415 685.495C823.323 677.723 818.874 673.801 813.013 674.625C807.247 675.435 803.993 680.472 805.08 688.213L805.089 688.276C806.186 696.08 810.671 700.03 816.532 699.206ZM850.571 699.424C842.098 700.615 835.543 694.65 834.075 684.203L834.071 684.171C832.602 673.723 837.327 666.205 845.641 665.037C850.323 664.379 854.509 666.194 857.116 669.726L857.244 669.708L854.661 651.329L860.203 650.55L866.663 696.513L861.12 697.292L860.333 691.686L860.205 691.704C858.676 695.849 855.317 698.757 850.571 699.424ZM850.965 694.367C856.571 693.579 859.868 688.146 858.824 680.724L858.82 680.692C857.781 673.303 853.083 668.993 847.509 669.777C841.648 670.6 838.679 675.825 839.74 683.374L839.745 683.406C840.815 691.018 845.104 695.19 850.965 694.367ZM871.826 656.29C869.915 656.558 868.135 655.217 867.866 653.306C867.593 651.363 868.939 649.614 870.85 649.346C872.793 649.073 874.537 650.387 874.81 652.33C875.079 654.241 873.769 656.017 871.826 656.29ZM874.499 695.412L869.843 662.285L875.385 661.506L880.041 694.633L874.499 695.412ZM901.408 692.28C892.011 693.6 885.115 687.748 883.633 677.205L883.629 677.173C882.16 666.726 887.304 659.182 896.509 657.888C904.759 656.728 910.403 661.522 911.9 667.093L911.968 667.344L906.553 668.105L906.453 667.859C905.16 664.663 902.072 662.108 897.199 662.793C891.434 663.603 888.251 668.923 889.307 676.44L889.312 676.472C890.395 684.18 894.985 688.18 900.718 687.374C905.242 686.739 907.782 683.783 908.186 679.958L908.214 679.695L913.661 678.929L913.661 679.157C913.655 685.589 908.893 691.228 901.408 692.28ZM930.043 688.255C923.45 689.182 918.463 685.822 917.617 679.802L917.608 679.739C916.815 674.101 920.714 669.947 928.264 668.432L937.68 666.556L937.291 663.785C936.722 659.74 933.734 657.659 929.115 658.308C924.847 658.907 922.458 661.322 922.237 664.374L922.214 664.67L916.862 665.422L916.845 665.067C916.557 659.553 920.686 654.49 928.489 653.393C936.325 652.292 941.826 655.839 942.757 662.464L945.976 685.366L940.433 686.145L939.677 680.762L939.549 680.78C938.117 684.684 934.471 687.633 930.043 688.255ZM923.286 679.006C923.734 682.191 926.628 683.83 930.61 683.271C935.833 682.537 939.341 678.373 938.665 673.564L938.284 670.856L929.506 672.642C925.114 673.519 922.843 675.852 923.277 678.942L923.286 679.006ZM953.302 684.337L946.842 638.374L952.384 637.595L958.844 683.558L953.302 684.337ZM966.616 682.466L960.156 636.502L965.699 635.723L972.158 681.687L966.616 682.466ZM984.396 691.335C983.313 691.488 982.116 691.526 981.398 691.497L980.762 686.974C981.253 687.002 981.904 687.008 982.573 686.914C986.076 686.422 987.894 685.257 988.704 681.31L989.108 679.337L972.153 647.906L978.078 647.074L991.096 673.373L991.223 673.355L996.52 644.482L1002.35 643.663L994.364 680.677C992.898 687.347 990.384 690.494 984.396 691.335ZM1010.06 676.814C1008.02 677.101 1006.21 675.732 1005.92 673.694C1005.63 671.655 1007 669.839 1009.04 669.552C1011.08 669.266 1012.9 670.634 1013.18 672.673C1013.47 674.711 1012.1 676.528 1010.06 676.814Z" fill="black"/>
</g>
</g>
<defs>
<filter id="filter0_d_711_64" x="330.013" y="228.62" width="1259.97" height="628.76" filterUnits="userSpaceOnUse" color-interpolation-filters="sRGB">
<feFlood flood-opacity="0" result="BackgroundImageFix"/>
<feColorMatrix in="SourceAlpha" type="matrix" values="0 0 0 0 0 0 0 0 0 0 0 0 0 0 0 0 0 0 127 0" result="hardAlpha"/>
<feOffset dy="3"/>
<feGaussianBlur stdDeviation="1.5"/>
<feComposite in2="hardAlpha" operator="out"/>
<feColorMatrix type="matrix" values="0 0 0 0 0 0 0 0 0 0 0 0 0 0 0 0 0 0 0.25 0"/>
<feBlend mode="normal" in2="BackgroundImageFix" result="effect1_dropShadow_711_64"/>
<feBlend mode="normal" in="SourceGraphic" in2="effect1_dropShadow_711_64" result="shape"/>
</filter>
<clipPath id="clip0_711_64">
<rect x="333.013" y="395.857" width="1201.65" height="460" rx="18" transform="rotate(-8 333.013 395.857)" fill="white"/>
</clipPath>
</defs>
</svg>
