<svg width="716" height="263" viewBox="0 0 716 263" fill="none" xmlns="http://www.w3.org/2000/svg">
<g filter="url(#filter0_d_4_13)">
<g clip-path="url(#clip0_4_13)">
<rect x="2.0004" y="111.498" width="697.138" height="149.029" rx="12" transform="rotate(-9.20327 2.0004 111.498)" fill="white"/>
<path d="M85.2523 189.201L84.6902 185.733L72.2459 187.749L79.7173 173.99C80.9773 171.605 81.4499 169.304 81.0776 167.006C80.6912 164.621 79.7246 162.775 78.2354 161.548C76.3864 160.023 74.0345 159.514 71.2161 159.971C68.8747 160.35 67.0066 161.454 65.6048 163.238C64.2463 165.016 63.6449 167.071 63.8801 169.347L67.6348 169.451C67.4325 166.28 68.9597 163.896 71.7781 163.44C73.3824 163.18 74.6738 163.46 75.6592 164.324C76.5439 165.115 77.1168 166.179 77.3486 167.61C77.6577 169.518 77.3259 171.04 75.8115 173.777L66.637 190.482L66.911 192.173L85.2523 189.201ZM90.8624 185.667C91.1153 187.228 92.4757 188.209 94.0367 187.956C95.5543 187.71 96.5787 186.343 96.3258 184.782C96.0799 183.264 94.6691 182.247 93.1515 182.493C91.5905 182.746 90.6165 184.149 90.8624 185.667ZM116.436 184.149L120.252 183.531L117.983 169.525L129.213 167.706L128.623 164.064L117.393 165.883L115.924 156.821L129.756 154.58L129.166 150.938L111.518 153.797L116.436 184.149ZM138.805 177.499C141.115 179.394 143.805 180.071 146.97 179.558C150.136 179.045 152.475 177.553 154.024 175.033C155.617 172.505 156.136 169.663 155.637 166.584C155.138 163.505 153.756 161.015 151.446 159.12C149.18 157.218 146.482 156.498 143.317 157.01C140.152 157.523 137.82 159.058 136.227 161.586C134.677 164.106 134.152 166.906 134.651 169.984C135.149 173.063 136.539 175.597 138.805 177.499ZM139.251 163.499C140.205 161.698 141.726 160.65 143.851 160.306C145.976 159.962 147.75 160.475 149.181 161.89C150.648 163.254 151.557 165.02 151.908 167.188C152.259 169.356 151.954 171.319 151 173.12C150.082 174.871 148.561 175.918 146.436 176.262C144.312 176.607 142.538 176.093 141.071 174.729C139.64 173.314 138.731 171.548 138.38 169.38C138.028 167.212 138.333 165.249 139.251 163.499ZM172.442 152.959C171.548 152.659 170.515 152.604 169.345 152.793C166.917 153.187 164.452 155.277 163.588 157.909L162.984 154.18L159.341 154.77L162.882 176.624L166.524 176.033L165.183 167.752C164.642 164.413 164.827 161.713 165.739 159.652C166.651 157.591 167.927 156.405 169.575 156.138C170.486 155.99 171.345 156.074 172.232 156.331L172.442 152.959ZM180.793 173.722L184.436 173.131L182.658 162.161L193.671 171.635L198.311 170.883L186.42 160.662L194.076 149.142L189.394 149.901L182.377 160.427L179.462 142.433L175.82 143.023L180.793 173.722ZM213.126 177.917C217.285 176.397 219.22 173.236 218.496 168.77L214.773 145.789L211.131 146.379L214.798 169.013C215.297 172.092 214.265 173.416 211.61 174.602L213.126 177.917ZM209.15 140.47C209.396 141.988 210.756 142.969 212.317 142.716C213.878 142.463 214.859 141.103 214.613 139.585C214.36 138.024 212.993 137 211.432 137.253C209.871 137.506 208.897 138.909 209.15 140.47ZM226.658 159.838C226.257 157.367 228.157 155.635 231.843 155.038L235.745 154.406L235.829 154.926C236.202 157.224 235.869 159.013 234.83 160.294C233.792 161.575 232.445 162.327 230.798 162.594C228.5 162.966 226.995 161.92 226.658 159.838ZM238.769 150C237.87 144.45 234.096 142.302 229.023 143.124C224.903 143.792 222.197 146.589 222.231 150.365L225.559 150.583C225.691 148.381 227.258 146.792 229.556 146.42C232.722 145.907 234.572 147.164 235.057 150.156L235.211 151.11L231.656 151.686C225.542 152.677 222.177 155.803 222.929 160.442C223.652 164.908 226.822 166.62 230.768 165.981C233.76 165.496 235.832 164.003 237.064 161.445L238.17 164.425L241.031 163.962L238.769 150ZM253.096 157.246L244.974 140.896L241.245 141.5L251.983 162.187L255.712 161.583L259.369 138.563L255.64 139.168L253.096 157.246ZM267.387 159.691L271.03 159.101L267.489 137.248L263.847 137.838L267.387 159.691ZM261.952 131.915C262.198 133.433 263.559 134.414 265.12 134.161C266.681 133.908 267.662 132.547 267.416 131.03C267.163 129.469 265.796 128.445 264.235 128.697C262.674 128.95 261.7 130.354 261.952 131.915ZM294.645 143.127C294.174 140.222 292.913 137.934 290.812 136.228C288.748 134.471 286.158 133.867 283.079 134.366C279.914 134.879 277.662 136.356 276.286 138.848C274.946 141.29 274.507 144.076 275.02 147.241C275.533 150.406 276.829 152.911 278.878 154.848C280.964 156.735 283.567 157.426 286.733 156.913C291.242 156.182 293.686 153.962 295.028 149.339L291.595 148.471C290.794 151.494 289.277 153.119 286.199 153.618C282.426 154.229 279.788 151.675 278.875 147.417L294.919 144.818L294.645 143.127ZM283.613 137.661C286.952 137.12 289.341 138.958 290.569 142.141L278.558 144.087C278.711 140.636 280.361 138.188 283.613 137.661ZM311.668 130.401C310.774 130.101 309.741 130.046 308.571 130.236C306.143 130.629 303.678 132.719 302.814 135.351L302.21 131.622L298.567 132.212L302.108 154.066L305.75 153.476L304.409 145.194C303.868 141.855 304.053 139.155 304.965 137.094C305.877 135.033 307.153 133.847 308.801 133.58C309.712 133.433 310.571 133.516 311.458 133.773L311.668 130.401ZM320.703 144.601C320.303 142.129 322.202 140.397 325.888 139.8L329.79 139.168L329.875 139.688C330.247 141.986 329.914 143.776 328.876 145.057C327.837 146.337 326.491 147.089 324.843 147.356C322.545 147.729 321.04 146.682 320.703 144.601ZM332.814 134.762C331.915 129.212 328.141 127.065 323.068 127.887C318.949 128.554 316.242 131.351 316.276 135.128L319.604 135.345C319.737 133.143 321.304 131.554 323.602 131.182C326.767 130.669 328.617 131.927 329.102 134.919L329.257 135.873L325.701 136.449C319.587 137.439 316.222 140.565 316.974 145.205C317.698 149.671 320.867 151.382 324.813 150.743C327.805 150.258 329.877 148.766 331.109 146.208L332.215 149.188L335.077 148.724L332.814 134.762ZM350.794 124.062C349.899 123.762 348.867 123.707 347.696 123.896C345.268 124.29 342.803 126.38 341.939 129.012L341.335 125.283L337.693 125.873L341.234 147.727L344.876 147.136L343.534 138.855C342.993 135.516 343.179 132.816 344.091 130.755C345.003 128.694 346.279 127.508 347.927 127.241C348.837 127.093 349.696 127.177 350.583 127.433L350.794 124.062ZM371.433 135.669C370.697 138.547 368.921 140.215 366.102 140.671C362.07 141.325 359.368 138.381 358.609 133.698C357.85 129.015 359.484 125.368 363.517 124.715C366.335 124.258 368.548 125.279 370.154 127.778L373.108 125.964C370.677 122.22 367.319 120.717 362.983 121.42C359.818 121.932 357.522 123.417 356.146 125.909C354.806 128.351 354.367 131.137 354.88 134.302C355.393 137.467 356.689 139.972 358.738 141.909C360.824 143.796 363.471 144.48 366.636 143.967C370.972 143.264 373.684 140.778 374.809 136.457L371.433 135.669ZM398.006 126.38C397.535 123.475 396.274 121.187 394.173 119.481C392.109 117.724 389.519 117.12 386.44 117.619C383.275 118.132 381.023 119.609 379.647 122.102C378.307 124.544 377.868 127.329 378.381 130.494C378.894 133.66 380.19 136.164 382.239 138.101C384.325 139.988 386.928 140.679 390.094 140.166C394.603 139.435 397.047 137.215 398.389 132.592L394.956 131.725C394.155 134.747 392.638 136.372 389.56 136.871C385.787 137.482 383.149 134.928 382.236 130.671L398.28 128.071L398.006 126.38ZM386.974 120.914C390.313 120.373 392.702 122.211 393.93 125.394L381.919 127.34C382.072 123.889 383.722 121.441 386.974 120.914ZM403.698 134.981C403.95 136.541 405.311 137.523 406.872 137.27C408.389 137.024 409.414 135.656 409.161 134.095C408.915 132.578 407.504 131.56 405.987 131.806C404.426 132.059 403.452 133.463 403.698 134.981ZM429.528 126.257C428.793 129.135 427.016 130.802 424.198 131.259C420.165 131.912 417.463 128.968 416.705 124.285C415.946 119.602 417.58 115.955 421.613 115.302C424.431 114.845 426.643 115.866 428.25 118.365L431.204 116.551C428.773 112.807 425.415 111.304 421.079 112.007C417.913 112.52 415.617 114.004 414.241 116.496C412.902 118.938 412.463 121.724 412.976 124.889C413.489 128.054 414.784 130.559 416.834 132.496C418.919 134.383 421.566 135.067 424.732 134.554C429.068 133.851 431.78 131.365 432.904 127.045L429.528 126.257ZM440.631 128.596C442.94 130.491 445.631 131.168 448.796 130.655C451.961 130.142 454.301 128.651 455.85 126.13C457.443 123.603 457.961 120.76 457.463 117.681C456.964 114.603 455.581 112.112 453.272 110.217C451.006 108.315 448.308 107.595 445.143 108.108C441.978 108.621 439.645 110.155 438.053 112.683C436.503 115.203 435.978 118.003 436.476 121.081C436.975 124.16 438.365 126.694 440.631 128.596ZM441.077 114.596C442.031 112.795 443.552 111.747 445.677 111.403C447.802 111.059 449.576 111.572 451.006 112.987C452.473 114.351 453.382 116.117 453.734 118.285C454.085 120.453 453.78 122.416 452.826 124.217C451.908 125.968 450.387 127.015 448.262 127.36C446.138 127.704 444.363 127.19 442.896 125.826C441.466 124.411 440.557 122.645 440.205 120.477C439.854 118.309 440.159 116.346 441.077 114.596ZM492.167 107.475C491.471 103.182 488.852 101.026 484.906 101.665C481.785 102.171 479.646 104.075 478.533 107.37C477.369 104.577 474.934 103.281 471.942 103.766C468.863 104.264 466.847 106.104 465.844 109.248L465.191 105.216L461.548 105.806L465.089 127.659L468.731 127.069L467.277 118.093C466.286 111.98 468.183 107.757 471.478 107.223C473.82 106.843 475.222 108.084 475.686 110.946L478.054 125.559L481.696 124.968L480.242 115.993C479.251 109.879 481.148 105.656 484.443 105.122C486.785 104.743 488.187 105.984 488.651 108.846L491.018 123.458L494.661 122.868L492.167 107.475ZM499.664 124.282L503.307 123.692L516.591 85.9409L512.949 86.531L499.664 124.282ZM534.837 109.194C534.102 112.072 532.325 113.739 529.507 114.196C525.474 114.849 522.772 111.905 522.013 107.222C521.255 102.54 522.889 98.893 526.921 98.2396C529.74 97.783 531.952 98.804 533.558 101.303L536.513 99.489C534.082 95.7445 530.723 94.2417 526.387 94.9443C523.222 95.4571 520.926 96.9416 519.55 99.4339C518.21 101.876 517.772 104.661 518.284 107.827C518.797 110.992 520.093 113.496 522.142 115.434C524.228 117.321 526.875 118.004 530.04 117.491C534.376 116.789 537.089 114.303 538.213 109.982L534.837 109.194ZM545.94 111.534C548.249 113.429 550.94 114.105 554.105 113.592C557.27 113.08 559.609 111.588 561.159 109.068C562.752 106.54 563.27 103.697 562.771 100.619C562.273 97.5402 560.89 95.0498 558.581 93.1546C556.315 91.2523 553.617 90.5324 550.452 91.0453C547.286 91.5581 544.954 93.0929 543.361 95.6204C541.812 98.1409 541.286 100.94 541.785 104.019C542.284 107.098 543.674 109.631 545.94 111.534ZM546.386 97.5333C547.34 95.7323 548.861 94.6849 550.986 94.3406C553.11 93.9964 554.884 94.5099 556.315 95.9245C557.782 97.2888 558.691 99.0549 559.042 101.223C559.394 103.391 559.089 105.354 558.135 107.155C557.217 108.905 555.696 109.953 553.571 110.297C551.446 110.641 549.672 110.128 548.205 108.764C546.775 107.349 545.865 105.583 545.514 103.415C545.163 101.247 545.468 99.284 546.386 97.5333ZM579.576 86.9939C578.682 86.6937 577.65 86.6385 576.479 86.8282C574.051 87.2216 571.586 89.3119 570.722 91.9438L570.118 88.2148L566.476 88.805L570.017 110.658L573.659 110.068L572.317 101.787C571.776 98.4478 571.962 95.7478 572.874 93.6867C573.786 91.6255 575.062 90.4397 576.71 90.1727C577.62 90.0252 578.479 90.1085 579.366 90.3653L579.576 86.9939ZM600.216 98.6013C599.48 101.479 597.704 103.147 594.885 103.603C590.853 104.257 588.151 101.312 587.392 96.6296C586.633 91.9467 588.267 88.3001 592.3 87.6468C595.118 87.1901 597.331 88.2111 598.937 90.7097L601.891 88.8961C599.46 85.1517 596.102 83.6489 591.766 84.3514C588.601 84.8643 586.305 86.3487 584.929 88.8411C583.589 91.2831 583.15 94.0685 583.663 97.2338C584.176 100.399 585.472 102.904 587.521 104.841C589.607 106.728 592.254 107.411 595.419 106.899C599.755 106.196 602.467 103.71 603.592 99.3892L600.216 98.6013ZM625.474 86.0986C624.736 81.5458 621.951 79.4607 617.919 80.1141C614.58 80.655 611.992 82.8097 611.047 85.7662L608.954 72.8449L605.312 73.4351L610.286 104.134L613.928 103.544L612.424 94.2647C611.961 91.403 612.239 88.9995 613.295 87.004C614.351 85.0084 615.764 83.845 617.455 83.571C619.97 83.1635 621.467 84.434 621.951 87.4259L624.291 101.865L627.933 101.275L625.474 86.0986ZM635.835 96.9684C638.145 98.8636 640.835 99.5401 644.001 99.0273C647.166 98.5144 649.505 97.023 651.055 94.5025C652.648 91.975 653.166 89.1321 652.667 86.0536C652.168 82.975 650.786 80.4846 648.476 78.5894C646.21 76.6871 643.513 75.9672 640.347 76.4801C637.182 76.9929 634.85 78.5278 633.257 81.0553C631.707 83.5757 631.182 86.3753 631.681 89.4538C632.18 92.5324 633.569 95.0661 635.835 96.9684ZM636.281 82.9682C637.235 81.1671 638.757 80.1197 640.881 79.7755C643.006 79.4312 644.78 79.9447 646.211 81.3594C647.678 82.7236 648.587 84.4897 648.938 86.6577C649.289 88.8257 648.984 90.7886 648.03 92.5896C647.112 94.3402 645.591 95.3877 643.467 95.7319C641.342 96.0762 639.568 95.5626 638.101 94.1984C636.67 92.7837 635.761 91.0176 635.41 88.8496C635.059 86.6816 635.364 84.7188 636.281 82.9682Z" fill="black"/>
</g>
</g>
<defs>
<filter id="filter0_d_4_13" x="0" y="0" width="716" height="262.61" filterUnits="userSpaceOnUse" color-interpolation-filters="sRGB">
<feFlood flood-opacity="0" result="BackgroundImageFix"/>
<feColorMatrix in="SourceAlpha" type="matrix" values="0 0 0 0 0 0 0 0 0 0 0 0 0 0 0 0 0 0 127 0" result="hardAlpha"/>
<feOffset dy="2"/>
<feGaussianBlur stdDeviation="1"/>
<feComposite in2="hardAlpha" operator="out"/>
<feColorMatrix type="matrix" values="0 0 0 0 0 0 0 0 0 0 0 0 0 0 0 0 0 0 0.25 0"/>
<feBlend mode="normal" in2="BackgroundImageFix" result="effect1_dropShadow_4_13"/>
<feBlend mode="normal" in="SourceGraphic" in2="effect1_dropShadow_4_13" result="shape"/>
</filter>
<clipPath id="clip0_4_13">
<rect x="2.0004" y="111.498" width="697.138" height="149.029" rx="12" transform="rotate(-9.20327 2.0004 111.498)" fill="white"/>
</clipPath>
</defs>
</svg>
