<svg width="741" height="267" viewBox="0 0 741 267" fill="none" xmlns="http://www.w3.org/2000/svg">
<g filter="url(#filter0_d_4_13)">
<g clip-path="url(#clip0_4_13)">
<rect x="2.00125" y="115.547" width="722.452" height="149.093" rx="12" transform="rotate(-9.20327 2.00125 115.547)" fill="white"/>
<path d="M68.0241 196.081L76.3528 194.731C80.3002 194.092 83.3791 192.213 85.6328 189.087C87.8795 185.919 88.6268 182.014 87.8607 177.286C87.0946 172.557 85.1525 169.088 82.0273 166.834C78.895 164.537 75.3804 163.727 71.4329 164.366L63.1043 165.716L68.0241 196.081ZM71.3726 168.115C76.9685 167.209 82.4056 169.444 83.7832 177.946C85.1607 186.448 80.7075 190.286 75.1117 191.193L71.251 191.818L67.512 168.741L71.3726 168.115ZM113.208 176.607C112.737 173.7 111.476 171.412 109.374 169.704C107.309 167.947 104.718 167.343 101.638 167.842C98.4713 168.355 96.2178 169.833 94.8411 172.326C93.5007 174.769 93.0619 177.556 93.575 180.722C94.088 183.889 95.3843 186.395 97.4345 188.333C99.5211 190.221 102.126 190.911 105.293 190.398C109.804 189.667 112.249 187.446 113.592 182.821L110.157 181.953C109.356 184.977 107.838 186.603 104.758 187.102C100.985 187.713 98.3447 185.158 97.432 180.899L113.482 178.298L113.208 176.607ZM102.172 171.138C105.512 170.597 107.902 172.436 109.131 175.62L97.1148 177.567C97.2676 174.114 98.9187 171.665 102.172 171.138ZM123.662 164.273C119.801 164.899 117.656 167.873 118.219 171.343C118.893 175.507 122.762 176.305 125.801 176.926C127.865 177.303 129.639 178.084 129.871 179.516C130.243 181.815 129.255 183.133 126.912 183.512C124.7 183.871 122.776 182.713 121.141 180.04L118.335 182.231C120.135 185.367 123.326 187.477 127.447 186.809C131.914 186.085 134.269 183.033 133.566 178.695C132.569 172.268 122.459 174.707 121.869 170.796C121.588 169.061 122.547 167.837 124.066 167.591C125.41 167.373 126.831 167.9 128.408 169.113L130.536 166.587C128.616 164.628 126.308 163.844 123.662 164.273ZM140.12 184.399L143.764 183.809L140.221 161.946L136.578 162.537L140.12 184.399ZM134.683 156.611C134.929 158.13 136.29 159.111 137.851 158.858C139.413 158.605 140.394 157.244 140.148 155.726C139.895 154.164 138.527 153.139 136.966 153.392C135.404 153.645 134.43 155.05 134.683 156.611ZM148.685 167.787C148.987 169.652 149.768 171.173 151.063 172.298C149.432 173.498 148.782 174.983 149.07 176.761C149.309 178.236 149.976 179.33 151.108 179.993C149.953 181.382 149.505 183.012 149.807 184.878C150.538 189.389 154.661 191.481 160.256 190.574C165.635 189.703 169.095 186.605 168.273 181.53C167.648 177.669 164.607 175.936 160.442 176.61L155.28 177.447C153.632 177.714 152.709 177.24 152.513 176.026C152.358 175.071 152.723 174.3 153.6 173.668C154.769 174.013 156.069 174.069 157.5 173.837C159.712 173.479 161.429 172.533 162.65 171C163.863 169.423 164.312 167.525 163.954 165.313C163.708 163.795 163.15 162.549 162.23 161.541L164.913 159.415L162.779 156.689L159.234 159.534C157.914 159.08 156.563 158.987 155.132 159.219C152.919 159.577 151.21 160.567 149.996 162.143C148.783 163.72 148.326 165.575 148.685 167.787ZM160.385 179.825C162.857 179.424 164.247 180.312 164.599 182.481C164.985 184.867 163.38 186.774 159.736 187.364C156.093 187.955 153.83 186.63 153.429 184.157C153.205 182.769 153.506 181.607 154.341 180.715C154.999 180.653 155.526 180.612 155.96 180.542L160.385 179.825ZM152.914 163.941C154.23 162.17 156.919 161.734 158.727 162.999C159.627 163.61 160.186 164.588 160.397 165.889C160.608 167.191 160.386 168.295 159.725 169.159C158.395 170.843 155.706 171.279 153.912 170.101C153.012 169.49 152.453 168.512 152.242 167.21C152.031 165.909 152.253 164.805 152.914 163.941ZM187.974 160.842C187.271 156.504 184.441 154.425 180.451 155.072C177.284 155.585 175.094 157.454 173.916 160.627L173.263 156.593L169.619 157.183L173.161 179.046L176.805 178.456L175.322 169.303C174.851 166.396 175.072 163.912 175.998 161.937C176.968 159.955 178.295 158.805 179.987 158.531C182.503 158.123 184 159.394 184.485 162.387L186.825 176.832L190.469 176.242L187.974 160.842ZM210.954 166.468C210.553 163.995 212.454 162.263 216.141 161.665L220.045 161.033L220.129 161.553C220.502 163.852 220.169 165.642 219.13 166.924C218.091 168.205 216.744 168.957 215.095 169.224C212.796 169.597 211.291 168.55 210.954 166.468ZM223.07 156.625C222.171 151.073 218.395 148.924 213.32 149.747C209.199 150.414 206.491 153.212 206.525 156.991L209.854 157.208C209.987 155.005 211.555 153.416 213.854 153.043C217.02 152.53 218.871 153.788 219.356 156.782L219.511 157.736L215.954 158.312C209.838 159.303 206.471 162.431 207.223 167.072C207.947 171.54 211.118 173.252 215.066 172.613C218.059 172.128 220.132 170.634 221.364 168.075L222.471 171.057L225.333 170.593L223.07 156.625ZM253.94 166.314C260.186 165.302 262.925 160.228 261.829 153.461C260.733 146.694 256.531 142.745 250.285 143.757C247.682 144.179 245.211 145.96 244.4 147.827L243.964 145.138L240.321 145.728L245.297 176.44L248.94 175.849L247.085 164.398C247.588 165.028 248.561 165.538 249.924 165.985C251.288 166.432 252.638 166.525 253.94 166.314ZM250.472 147.11C254.289 146.492 257.332 149.338 258.098 154.066C258.865 158.794 256.876 162.455 253.058 163.074C249.111 163.713 246.198 160.846 245.432 156.118C244.666 151.39 246.525 147.75 250.472 147.11ZM278.632 139.832C277.738 139.532 276.705 139.477 275.533 139.666C273.104 140.06 270.639 142.151 269.774 144.784L269.17 141.054L265.526 141.644L269.068 163.507L272.712 162.916L271.37 154.631C270.828 151.291 271.014 148.59 271.926 146.528C272.839 144.466 274.116 143.28 275.764 143.012C276.675 142.865 277.534 142.948 278.422 143.205L278.632 139.832ZM302.353 145.961C301.883 143.054 300.621 140.766 298.52 139.058C296.454 137.301 293.863 136.697 290.783 137.196C287.617 137.709 285.363 139.187 283.987 141.68C282.646 144.123 282.207 146.91 282.72 150.076C283.234 153.243 284.53 155.749 286.58 157.687C288.667 159.575 291.271 160.266 294.438 159.752C298.949 159.021 301.394 156.8 302.737 152.175L299.302 151.307C298.501 154.331 296.984 155.957 293.904 156.456C290.13 157.067 287.49 154.512 286.578 150.253L302.628 147.652L302.353 145.961ZM291.318 140.492C294.658 139.951 297.048 141.79 298.276 144.974L286.26 146.921C286.413 143.468 288.064 141.02 291.318 140.492ZM312.807 133.627C308.946 134.253 306.802 137.227 307.364 140.697C308.039 144.861 311.907 145.659 314.946 146.28C317.011 146.658 318.784 147.439 319.016 148.87C319.389 151.169 318.4 152.487 316.058 152.866C313.846 153.225 311.922 152.067 310.287 149.394L307.481 151.585C309.28 154.721 312.471 156.831 316.592 156.163C321.06 155.439 323.415 152.387 322.712 148.049C321.715 141.622 311.604 144.061 311.015 140.15C310.734 138.415 311.693 137.191 313.211 136.945C314.556 136.727 315.977 137.254 317.553 138.467L319.682 135.941C317.762 133.982 315.453 133.199 312.807 133.627ZM346.24 138.85C345.769 135.944 344.508 133.655 342.406 131.948C340.341 130.19 337.75 129.586 334.67 130.085C331.504 130.598 329.25 132.076 327.873 134.569C326.533 137.013 326.094 139.799 326.607 142.966C327.12 146.132 328.417 148.638 330.467 150.576C332.553 152.464 335.158 153.155 338.325 152.642C342.836 151.911 345.281 149.69 346.624 145.065L343.189 144.197C342.388 147.22 340.871 148.846 337.791 149.345C334.017 149.956 331.377 147.402 330.464 143.142L346.514 140.542L346.24 138.85ZM335.204 133.382C338.545 132.841 340.935 134.679 342.163 137.863L330.147 139.81C330.3 136.358 331.951 133.909 335.204 133.382ZM369.198 131.48C368.495 127.142 365.665 125.063 361.674 125.71C358.508 126.223 356.317 128.091 355.14 131.265L354.486 127.23L350.843 127.821L354.385 149.684L358.029 149.093L356.546 139.94C356.075 137.034 356.296 134.55 357.222 132.574C358.192 130.592 359.519 129.442 361.211 129.168C363.727 128.76 365.224 130.031 365.709 133.025L368.049 147.47L371.693 146.879L369.198 131.48ZM377.153 126.941L379.051 138.653C379.817 143.382 382.69 145.454 386.551 144.828C387.982 144.596 389.111 144.146 389.974 143.428L388.594 140.401C387.977 140.991 387.188 141.342 386.233 141.496C384.368 141.798 383.116 140.666 382.744 138.367L380.797 126.351L386.523 125.423L385.989 122.126L380.263 123.054L378.829 114.205L375.558 117.094L376.619 123.644L372.845 124.256L373.379 127.553L377.153 126.941ZM396.753 136.364C396.352 133.891 398.253 132.159 401.94 131.561L405.844 130.929L405.928 131.449C406.301 133.749 405.968 135.539 404.929 136.82C403.89 138.101 402.543 138.854 400.894 139.121C398.595 139.493 397.09 138.446 396.753 136.364ZM408.869 126.521C407.97 120.969 404.194 118.821 399.118 119.643C394.998 120.311 392.29 123.109 392.324 126.887L395.653 127.104C395.786 124.902 397.354 123.312 399.653 122.94C402.819 122.427 404.67 123.685 405.155 126.678L405.31 127.632L401.753 128.208C395.636 129.199 392.27 132.327 393.022 136.968C393.746 141.436 396.917 143.148 400.865 142.509C403.858 142.024 405.931 140.531 407.163 137.972L408.269 140.953L411.132 140.489L408.869 126.521ZM416.253 120.606L418.151 132.318C418.917 137.047 421.79 139.119 425.651 138.493C427.082 138.261 428.211 137.811 429.074 137.092L427.693 134.066C427.077 134.656 426.288 135.006 425.333 135.161C423.468 135.463 422.216 134.331 421.844 132.032L419.897 120.016L425.623 119.088L425.089 115.791L419.363 116.719L417.929 107.87L414.658 110.759L415.719 117.309L411.945 117.921L412.479 121.218L416.253 120.606ZM434.746 136.663L438.39 136.073L434.848 114.21L431.204 114.8L434.746 136.663ZM429.309 108.875C429.555 110.393 430.916 111.375 432.478 111.122C434.039 110.869 435.021 109.508 434.775 107.989C434.522 106.428 433.154 105.403 431.592 105.656C430.03 105.909 429.056 107.313 429.309 108.875ZM446.538 131.725C448.849 133.621 451.54 134.298 454.707 133.785C457.874 133.272 460.214 131.78 461.764 129.258C463.358 126.73 463.876 123.886 463.377 120.806C462.878 117.726 461.495 115.235 459.185 113.339C456.918 111.435 454.219 110.715 451.052 111.228C447.886 111.741 445.553 113.277 443.959 115.805C442.409 118.327 441.883 121.128 442.382 124.208C442.881 127.287 444.271 129.822 446.538 131.725ZM446.985 117.719C447.939 115.917 449.461 114.869 451.587 114.525C453.712 114.181 455.487 114.694 456.918 116.11C458.386 117.475 459.295 119.241 459.647 121.41C459.998 123.579 459.693 125.543 458.739 127.345C457.82 129.096 456.298 130.144 454.173 130.488C452.047 130.833 450.272 130.319 448.805 128.954C447.374 127.539 446.464 125.772 446.113 123.603C445.761 121.434 446.066 119.471 446.985 117.719ZM485.989 112.557C485.286 108.219 482.457 106.14 478.466 106.787C475.299 107.3 473.109 109.168 471.932 112.342L471.278 108.307L467.634 108.898L471.176 130.761L474.82 130.17L473.337 121.017C472.866 118.111 473.087 115.627 474.013 113.651C474.983 111.669 476.311 110.519 478.002 110.245C480.518 109.837 482.015 111.109 482.5 114.102L484.841 128.547L488.484 127.956L485.989 112.557ZM508.556 121.677C510.866 123.573 513.558 124.25 516.725 123.737C519.891 123.224 522.232 121.732 523.782 119.21C525.375 116.682 525.894 113.837 525.395 110.758C524.896 107.678 523.513 105.186 521.202 103.29C518.935 101.387 516.237 100.667 513.07 101.18C509.903 101.693 507.57 103.229 505.977 105.757C504.426 108.279 503.901 111.079 504.4 114.159C504.899 117.239 506.289 119.774 508.556 121.677ZM509.002 107.671C509.957 105.869 511.479 104.821 513.604 104.477C515.73 104.132 517.505 104.646 518.936 106.061C520.404 107.426 521.313 109.193 521.664 111.362C522.016 113.531 521.711 115.495 520.756 117.296C519.838 119.048 518.316 120.096 516.191 120.44C514.065 120.784 512.29 120.271 510.823 118.906C509.391 117.491 508.482 115.724 508.13 113.555C507.779 111.386 508.084 109.422 509.002 107.671ZM548.007 102.509C547.304 98.1708 544.474 96.0918 540.484 96.7384C537.317 97.2515 535.127 99.1199 533.949 102.293L533.296 98.2592L529.652 98.8496L533.194 120.712L536.838 120.122L535.355 110.969C534.884 108.063 535.105 105.579 536.031 103.603C537.001 101.621 538.328 100.471 540.02 100.197C542.536 99.7892 544.033 101.06 544.518 104.053L546.858 118.498L550.502 117.908L548.007 102.509ZM570.054 114.74L573.871 114.122L571.601 100.11L582.836 98.2901L582.246 94.6463L571.011 96.4666L569.542 87.4005L583.38 85.1585L582.789 81.5147L565.134 84.3752L570.054 114.74ZM593.222 110.986L596.866 110.396L593.323 88.5333L589.68 89.1237L593.222 110.986ZM587.785 83.1983C588.031 84.7165 589.392 85.698 590.953 85.445C592.515 85.1919 593.496 83.831 593.25 82.3127C592.997 80.7511 591.629 79.7263 590.068 79.9793C588.506 80.2323 587.532 81.6367 587.785 83.1983ZM601.787 94.3738C602.089 96.2391 602.87 97.7598 604.165 98.8854C602.534 100.085 601.884 101.57 602.172 103.348C602.411 104.823 603.078 105.917 604.21 106.58C603.055 107.969 602.606 109.599 602.909 111.465C603.64 115.976 607.763 118.068 613.358 117.161C618.737 116.29 622.197 113.192 621.375 108.117C620.75 104.256 617.709 102.523 613.544 103.197L608.382 104.034C606.734 104.301 605.811 103.827 605.615 102.613C605.46 101.658 605.825 100.887 606.702 100.255C607.87 100.6 609.171 100.656 610.602 100.424C612.814 100.066 614.531 99.1201 615.751 97.5868C616.965 96.0102 617.414 94.1122 617.056 91.8999C616.81 90.3816 616.252 89.1365 615.332 88.1281L618.015 86.0018L615.881 83.2758L612.336 86.1206C611.016 85.6667 609.665 85.5739 608.234 85.8059C606.021 86.1643 604.312 87.1536 603.098 88.7302C601.885 90.3069 601.428 92.1615 601.787 94.3738ZM613.486 106.412C615.959 106.011 617.349 106.899 617.701 109.068C618.087 111.454 616.482 113.361 612.838 113.951C609.195 114.542 606.932 113.217 606.531 110.744C606.306 109.356 606.608 108.194 607.443 107.302C608.1 107.24 608.628 107.199 609.062 107.129L613.486 106.412ZM606.016 90.5279C607.332 88.7566 610.021 88.3208 611.829 89.5861C612.729 90.197 613.288 91.1748 613.499 92.4762C613.71 93.7775 613.488 94.8819 612.827 95.7458C611.497 97.4303 608.808 97.8661 607.014 96.6876C606.114 96.0767 605.555 95.0989 605.344 93.7975C605.133 92.4961 605.355 91.3918 606.016 90.5279ZM653.352 85.4403C652.656 81.1458 650.036 78.9883 646.089 79.6279C642.966 80.134 640.826 82.0388 639.713 85.3353C638.548 82.5414 636.112 81.2444 633.119 81.7294C630.039 82.2284 628.022 84.0687 627.018 87.2141L626.364 83.1799L622.721 83.7702L626.263 105.633L629.907 105.043L628.452 96.0633C627.461 89.9469 629.358 85.722 632.655 85.1878C634.998 84.8083 636.401 86.05 636.865 88.913L639.233 103.532L642.877 102.941L641.422 93.9618C640.431 87.8454 642.329 83.6205 645.625 83.0863C647.968 82.7068 649.371 83.9485 649.835 86.8115L652.203 101.43L655.847 100.84L653.352 85.4403ZM664.564 92.9723C664.163 90.4998 666.064 88.7673 669.751 88.1698L673.655 87.5373L673.74 88.0578C674.112 90.3569 673.779 92.1471 672.74 93.4283C671.701 94.7096 670.354 95.462 668.706 95.7291C666.407 96.1016 664.901 95.0545 664.564 92.9723ZM676.681 83.1296C675.781 77.5772 672.005 75.4289 666.93 76.2512C662.809 76.9189 660.102 79.717 660.135 83.4955L663.465 83.7128C663.597 81.51 665.165 79.9205 667.464 79.548C670.631 79.0349 672.482 80.2931 672.967 83.2862L673.121 84.2405L669.564 84.8169C663.448 85.8078 660.082 88.9353 660.834 93.5768C661.557 98.0447 664.728 99.7568 668.676 99.1173C671.669 98.6323 673.742 97.139 674.974 94.5799L676.081 97.5614L678.944 97.0975L676.681 83.1296Z" fill="black"/>
</g>
</g>
<defs>
<filter id="filter0_d_4_13" x="0" y="0" width="741" height="266.724" filterUnits="userSpaceOnUse" color-interpolation-filters="sRGB">
<feFlood flood-opacity="0" result="BackgroundImageFix"/>
<feColorMatrix in="SourceAlpha" type="matrix" values="0 0 0 0 0 0 0 0 0 0 0 0 0 0 0 0 0 0 127 0" result="hardAlpha"/>
<feOffset dy="2"/>
<feGaussianBlur stdDeviation="1"/>
<feComposite in2="hardAlpha" operator="out"/>
<feColorMatrix type="matrix" values="0 0 0 0 0 0 0 0 0 0 0 0 0 0 0 0 0 0 0.25 0"/>
<feBlend mode="normal" in2="BackgroundImageFix" result="effect1_dropShadow_4_13"/>
<feBlend mode="normal" in="SourceGraphic" in2="effect1_dropShadow_4_13" result="shape"/>
</filter>
<clipPath id="clip0_4_13">
<rect x="2.00125" y="115.547" width="722.452" height="149.093" rx="12" transform="rotate(-9.20327 2.00125 115.547)" fill="white"/>
</clipPath>
</defs>
</svg>
