<svg width="934" height="351" viewBox="0 0 934 351" fill="none" xmlns="http://www.w3.org/2000/svg">
<g filter="url(#filter0_d_8_10)">
<g clip-path="url(#clip0_8_10)">
<rect x="34.7014" width="909.284" height="202.063" rx="12" transform="rotate(9.31338 34.7014 0)" fill="white"/>
<path d="M71.7189 97.3015L75.5338 97.9271L77.8302 83.9246L89.0582 85.766L89.6553 82.1245L78.4274 80.2831L79.9132 71.2227L93.7423 73.4906L94.3395 69.8491L76.6955 66.9555L71.7189 97.3015ZM95.0444 98.0996C96.6326 100.63 98.9693 102.127 102.134 102.646C105.299 103.165 107.991 102.493 110.261 100.595C112.574 98.704 113.969 96.1727 114.473 93.0947C114.978 90.0168 114.458 87.2159 112.87 84.6851C111.325 82.1613 108.995 80.6219 105.831 80.1029C102.666 79.5839 99.967 80.2987 97.6536 82.1897C95.3835 84.0878 93.9961 86.5758 93.4914 89.6537C92.9866 92.7317 93.4995 95.5759 95.0444 98.0996ZM99.9141 84.9643C101.391 83.5594 103.166 83.0492 105.291 83.3976C107.415 83.7459 108.934 84.7964 109.842 86.5924C110.799 88.3521 111.101 90.3157 110.745 92.4833C110.39 94.6509 109.477 96.4154 108 97.8204C106.574 99.1891 104.798 99.6992 102.674 99.3509C100.55 99.0025 99.0307 97.952 98.0728 96.1923C97.1653 94.3964 96.8641 92.4327 97.2196 90.2651C97.5751 88.0976 98.4877 86.333 99.9141 84.9643ZM118.365 104.951L122.007 105.548L127.04 74.8558L123.399 74.2586L118.365 104.951ZM129.203 106.729L132.845 107.326L137.878 76.6331L134.237 76.0359L129.203 106.729ZM141.783 105.764C143.371 108.295 145.707 109.791 148.872 110.31C152.037 110.829 154.729 110.158 156.999 108.26C159.312 106.369 160.707 103.838 161.212 100.76C161.716 97.6816 161.196 94.8808 159.608 92.35C158.063 89.8262 155.734 88.2867 152.569 87.7677C149.404 87.2488 146.705 87.9635 144.392 89.8545C142.122 91.7526 140.734 94.2407 140.23 97.3186C139.725 100.397 140.238 103.241 141.783 105.764ZM146.652 92.6292C148.129 91.2242 149.904 90.7141 152.029 91.0624C154.153 91.4108 155.672 92.4613 156.58 94.2572C157.538 96.017 157.839 97.9806 157.483 100.148C157.128 102.316 156.215 104.08 154.738 105.485C153.312 106.854 151.537 107.364 149.412 107.016C147.288 106.667 145.769 105.617 144.811 103.857C143.903 102.061 143.602 100.098 143.958 97.93C144.313 95.7625 145.226 93.9979 146.652 92.6292ZM184.143 110.53L182.602 93.0492L178.961 92.452L171.918 108.525L170.204 91.0159L166.389 90.3903L169.439 113.327L172.907 113.896L179.921 97.9961L181.49 115.304L184.958 115.872L195.174 95.111L191.359 94.4853L184.143 110.53ZM212.705 101.369L210.786 113.074C210.011 117.799 212.077 120.676 215.935 121.308C217.366 121.543 218.579 121.475 219.625 121.068L219.277 117.761C218.505 118.124 217.646 118.206 216.692 118.049C214.828 117.744 214.001 116.272 214.378 113.975L216.347 101.967L222.069 102.905L222.61 99.6103L216.887 98.6718L218.337 89.8281L214.319 91.5286L213.246 98.0746L209.474 97.4561L208.934 100.751L212.705 101.369ZM245.015 110.14C245.762 105.588 243.783 102.726 239.751 102.065C236.413 101.518 233.274 102.739 231.439 105.243L233.558 92.3242L229.916 91.727L224.883 122.42L228.524 123.017L230.046 113.74C230.515 110.879 231.542 108.688 233.177 107.131C234.813 105.574 236.523 104.919 238.214 105.196C240.728 105.609 241.743 107.289 241.253 110.28L238.885 124.716L242.527 125.313L245.015 110.14ZM269.753 117.625C270.229 114.721 269.761 112.151 268.31 109.865C266.91 107.543 264.646 106.148 261.568 105.643C258.403 105.124 255.798 105.81 253.701 107.736C251.655 109.627 250.355 112.129 249.836 115.294C249.317 118.458 249.75 121.245 251.078 123.733C252.457 126.185 254.707 127.667 257.871 128.186C262.38 128.925 265.402 127.596 268.144 123.638L265.163 121.725C263.444 124.336 261.489 125.396 258.412 124.891C254.64 124.273 252.949 121.013 253.436 116.685L269.476 119.316L269.753 117.625ZM261.028 108.938C264.366 109.485 266.048 111.987 266.201 115.395L254.193 113.426C255.434 110.202 257.776 108.405 261.028 108.938ZM285.593 132.376L289.234 132.973L292.817 111.124L289.176 110.527L285.593 132.376ZM289.261 104.308C289.012 105.826 289.99 107.188 291.551 107.444C293.112 107.7 294.474 106.721 294.723 105.204C294.979 103.644 294.008 102.238 292.447 101.982C290.886 101.726 289.517 102.748 289.261 104.308ZM315.531 121.482C316.242 117.147 314.219 114.278 310.231 113.624C307.066 113.105 304.397 114.181 302.273 116.815L302.934 112.783L299.293 112.186L295.71 134.035L299.351 134.632L300.851 125.485C301.328 122.581 302.326 120.296 303.831 118.717C305.38 117.146 307.003 116.478 308.694 116.755C311.208 117.167 312.223 118.847 311.733 121.839L309.365 136.275L313.007 136.872L315.531 121.482ZM329.851 116.841C325.992 116.208 323.015 118.347 322.446 121.815C321.764 125.977 325.178 127.961 327.861 129.514C329.698 130.528 331.132 131.831 330.897 133.262C330.52 135.559 329.165 136.494 326.824 136.111C324.613 135.748 323.157 134.04 322.456 130.987L319.101 132.173C319.81 135.717 322.165 138.73 326.284 139.405C330.749 140.138 333.95 137.991 334.661 133.656C335.756 127.247 325.398 126.35 326.081 122.455C326.365 120.721 327.663 119.866 329.18 120.115C330.524 120.335 331.704 121.285 332.813 122.936L335.632 121.217C334.434 118.75 332.495 117.275 329.851 116.841ZM343.479 122.816L341.559 134.521C340.785 139.246 342.85 142.122 346.709 142.755C348.139 142.989 349.352 142.921 350.399 142.514L350.05 139.207C349.279 139.57 348.419 139.652 347.466 139.496C345.602 139.19 344.774 137.719 345.151 135.421L347.121 123.413L352.843 124.351L353.383 121.057L347.661 120.118L349.111 111.275L345.093 112.975L344.019 119.521L340.248 118.902L339.707 122.197L343.479 122.816ZM372.535 124.509C371.782 123.94 370.821 123.56 369.65 123.368C367.223 122.97 364.222 124.17 362.566 126.391L363.178 122.663L359.536 122.066L355.953 143.915L359.594 144.512L360.952 136.232C361.5 132.894 362.533 130.392 364.053 128.727C365.572 127.062 367.159 126.343 368.807 126.613C369.717 126.762 370.505 127.114 371.265 127.64L372.535 124.509ZM374.66 140.35C373.949 144.685 375.971 147.554 379.96 148.208C383.124 148.727 385.794 147.651 387.917 145.017L387.256 149.048L390.898 149.646L394.481 127.796L390.839 127.199L389.339 136.346C388.863 139.251 387.865 141.536 386.316 143.107C384.811 144.685 383.188 145.354 381.497 145.077C378.983 144.664 377.967 142.984 378.458 139.993L380.825 125.557L377.184 124.96L374.66 140.35ZM413.949 146.259C412.338 148.754 410.124 149.771 407.306 149.309C403.274 148.648 401.647 144.998 402.415 140.316C403.182 135.634 405.89 132.695 409.922 133.356C412.74 133.818 414.514 135.489 415.243 138.369L418.621 137.587C417.505 133.264 414.797 130.772 410.462 130.061C407.298 129.542 404.649 130.221 402.552 132.147C400.506 134.038 399.205 136.54 398.686 139.705C398.167 142.869 398.601 145.656 399.929 148.144C401.308 150.596 403.601 152.085 406.765 152.604C411.101 153.315 414.462 151.818 416.901 148.078L413.949 146.259ZM426.414 136.417L424.494 148.122C423.719 152.847 425.785 155.723 429.643 156.356C431.074 156.59 432.287 156.522 433.333 156.115L432.985 152.808C432.213 153.171 431.354 153.253 430.401 153.097C428.536 152.791 427.709 151.32 428.086 149.022L430.055 137.014L435.778 137.952L436.318 134.658L430.596 133.719L432.046 124.875L428.028 126.576L426.954 133.122L423.183 132.503L422.642 135.798L426.414 136.417ZM438.846 157.509L442.488 158.106L446.071 136.257L442.43 135.66L438.846 157.509ZM442.515 129.441C442.266 130.959 443.244 132.321 444.805 132.577C446.366 132.833 447.728 131.854 447.977 130.337C448.233 128.777 447.261 127.371 445.701 127.115C444.14 126.859 442.77 127.881 442.515 129.441ZM451.592 156.572C453.18 159.103 455.517 160.599 458.682 161.118C461.846 161.637 464.538 160.966 466.809 159.067C469.122 157.176 470.516 154.645 471.021 151.567C471.526 148.489 471.006 145.688 469.418 143.158C467.873 140.634 465.543 139.094 462.379 138.575C459.214 138.056 456.515 138.771 454.201 140.662C451.931 142.56 450.544 145.048 450.039 148.126C449.534 151.204 450.047 154.048 451.592 156.572ZM456.462 143.437C457.939 142.032 459.714 141.522 461.838 141.87C463.963 142.218 465.482 143.269 466.389 145.065C467.347 146.825 467.648 148.788 467.293 150.956C466.937 153.123 466.025 154.888 464.548 156.293C463.122 157.661 461.346 158.172 459.222 157.823C457.098 157.475 455.578 156.424 454.621 154.665C453.713 152.869 453.412 150.905 453.767 148.738C454.123 146.57 455.035 144.805 456.462 143.437ZM495.075 150.927C495.786 146.591 493.763 143.722 489.775 143.068C486.61 142.549 483.941 143.625 481.817 146.259L482.478 142.228L478.837 141.631L475.254 163.48L478.895 164.077L480.395 154.93C480.872 152.025 481.87 149.74 483.375 148.162C484.924 146.591 486.547 145.922 488.238 146.199C490.752 146.612 491.767 148.292 491.277 151.283L488.909 165.719L492.551 166.316L495.075 150.927ZM509.395 146.286C505.536 145.653 502.559 147.791 501.99 151.259C501.308 155.421 504.722 157.406 507.405 158.959C509.242 159.972 510.676 161.276 510.441 162.706C510.064 165.004 508.709 165.939 506.368 165.555C504.157 165.192 502.701 163.485 502 160.431L498.644 161.617C499.354 165.162 501.709 168.174 505.828 168.85C510.293 169.582 513.494 167.436 514.205 163.101C515.3 156.692 504.941 155.794 505.625 151.9C505.909 150.166 507.207 149.31 508.724 149.559C510.068 149.779 511.248 150.73 512.357 152.381L515.176 150.662C513.978 148.195 512.039 146.719 509.395 146.286ZM535.004 154.225L533.084 165.93C532.309 170.655 534.375 173.531 538.233 174.164C539.664 174.399 540.877 174.331 541.923 173.923L541.575 170.617C540.803 170.98 539.944 171.061 538.991 170.905C537.126 170.599 536.299 169.128 536.676 166.831L538.645 154.822L544.368 155.761L544.908 152.466L539.186 151.527L540.636 142.684L536.618 144.384L535.544 150.93L531.773 150.312L531.232 153.606L535.004 154.225ZM567.314 162.996C568.06 158.444 566.081 155.582 562.049 154.921C558.711 154.373 555.573 155.595 553.738 158.099L555.856 145.18L552.215 144.583L547.181 175.275L550.823 175.873L552.344 166.595C552.814 163.734 553.841 161.543 555.476 159.986C557.111 158.429 558.821 157.775 560.512 158.052C563.026 158.464 564.042 160.145 563.551 163.136L561.184 177.572L564.825 178.169L567.314 162.996ZM575.442 173.455C575.848 170.984 578.199 169.945 581.884 170.55L585.786 171.189L585.7 171.71C585.324 174.007 584.439 175.598 583.048 176.483C581.656 177.368 580.14 177.653 578.493 177.383C576.195 177.006 575.101 175.536 575.442 173.455ZM590.053 167.972C590.963 162.423 588.066 159.187 582.994 158.356C578.875 157.68 575.42 159.473 574.253 163.066L577.34 164.329C578.165 162.283 580.156 161.274 582.453 161.65C585.618 162.169 586.973 163.95 586.482 166.941L586.326 167.895L582.771 167.312C576.659 166.309 572.475 168.205 571.714 172.844C570.982 177.309 573.444 179.939 577.389 180.586C580.38 181.076 582.82 180.319 584.8 178.284L584.902 181.462L587.764 181.931L590.053 167.972ZM598.93 164.709L597.011 176.414C596.236 181.139 598.301 184.015 602.16 184.648C603.59 184.882 604.803 184.814 605.85 184.407L605.502 181.1C604.73 181.463 603.871 181.545 602.917 181.389C601.053 181.083 600.226 179.612 600.602 177.314L602.572 165.306L608.294 166.244L608.834 162.95L603.112 162.011L604.562 153.167L600.544 154.868L599.47 161.414L595.699 160.795L595.159 164.09L598.93 164.709ZM630.198 182.658L627.237 165.968L623.249 165.314L627.488 187.511L622.421 196.696L626.149 197.307L642.02 168.392L638.205 167.766L630.198 182.658ZM644.641 188.231C646.229 190.762 648.566 192.258 651.731 192.777C654.895 193.296 657.587 192.625 659.857 190.727C662.171 188.836 663.565 186.304 664.07 183.226C664.575 180.148 664.055 177.348 662.467 174.817C660.922 172.293 658.592 170.754 655.428 170.235C652.263 169.716 649.564 170.43 647.25 172.321C644.98 174.219 643.593 176.707 643.088 179.785C642.583 182.863 643.096 185.708 644.641 188.231ZM649.511 175.096C650.988 173.691 652.763 173.181 654.887 173.529C657.011 173.878 658.531 174.928 659.438 176.724C660.396 178.484 660.697 180.447 660.342 182.615C659.986 184.783 659.074 186.547 657.597 187.952C656.17 189.321 654.395 189.831 652.271 189.483C650.147 189.134 648.627 188.084 647.669 186.324C646.762 184.528 646.461 182.564 646.816 180.397C647.172 178.229 648.084 176.465 649.511 175.096ZM669.102 188.637C668.391 192.972 670.413 195.841 674.402 196.495C677.566 197.014 680.236 195.938 682.359 193.304L681.698 197.336L685.34 197.933L688.923 176.084L685.281 175.487L683.781 184.634C683.305 187.538 682.307 189.823 680.758 191.394C679.253 192.973 677.63 193.641 675.939 193.364C673.425 192.952 672.409 191.272 672.9 188.28L675.267 173.844L671.626 173.247L669.102 188.637ZM696.329 177.343L703.292 169.359L698.003 168.491L693.554 176.888L696.329 177.343ZM703.608 200.929L707.25 201.526L712.283 170.833L708.642 170.236L703.608 200.929ZM714.446 202.706L718.088 203.303L723.121 172.611L719.48 172.013L714.446 202.706ZM741.523 188.093L738.48 206.648L742.121 207.245L745.164 188.69L752.664 189.92L749.621 208.475L753.262 209.072L756.846 187.223L745.704 185.396L745.825 184.659C746.344 181.494 748.392 180.138 751.383 180.629C753.247 180.935 754.78 181.631 756.032 182.682L757.324 179.689C756.137 178.515 754.351 177.732 751.967 177.341C749.582 176.95 747.431 177.31 745.592 178.477C743.754 179.645 742.603 181.504 742.177 184.105L742.063 184.799L738.942 184.287L738.401 187.581L741.523 188.093ZM780.711 197.77C781.422 193.435 779.399 190.565 775.411 189.911C772.246 189.392 769.577 190.468 767.453 193.103L768.115 189.071L764.473 188.474L760.89 210.323L764.531 210.92L766.032 201.773C766.508 198.868 767.506 196.584 769.011 195.005C770.56 193.434 772.183 192.765 773.874 193.043C776.388 193.455 777.404 195.135 776.913 198.126L774.546 212.562L778.187 213.159L780.711 197.77ZM797.105 193.469C790.863 192.445 786.655 196.385 785.546 203.148C784.437 209.911 787.166 214.988 793.409 216.012C796.01 216.438 798.918 215.535 800.279 214.022L799.838 216.71L803.48 217.307L808.513 186.615L804.872 186.017L802.995 197.462C802.718 196.705 801.958 195.912 800.807 195.056C799.657 194.199 798.406 193.682 797.105 193.469ZM794.296 212.774C790.481 212.148 788.5 208.485 789.275 203.759C790.049 199.034 793.097 196.195 796.912 196.821C800.857 197.468 802.708 201.11 801.933 205.835C801.158 210.561 798.241 213.421 794.296 212.774ZM824.735 217.766C826.324 220.297 828.66 221.793 831.825 222.312C834.99 222.831 837.682 222.16 839.952 220.261C842.265 218.37 843.66 215.839 844.164 212.761C844.669 209.683 844.149 206.882 842.561 204.352C841.016 201.828 838.687 200.288 835.522 199.769C832.357 199.25 829.658 199.965 827.345 201.856C825.075 203.754 823.687 206.242 823.182 209.32C822.678 212.398 823.191 215.242 824.735 217.766ZM829.605 204.631C831.082 203.226 832.857 202.716 834.982 203.064C837.106 203.412 838.625 204.463 839.533 206.259C840.49 208.019 840.792 209.982 840.436 212.15C840.081 214.317 839.168 216.082 837.691 217.487C836.265 218.856 834.489 219.366 832.365 219.017C830.241 218.669 828.722 217.618 827.764 215.859C826.856 214.063 826.555 212.099 826.911 209.932C827.266 207.764 828.179 205.999 829.605 204.631ZM868.218 212.121C868.929 207.785 866.906 204.916 862.918 204.262C859.754 203.743 857.084 204.819 854.96 207.453L855.622 203.422L851.98 202.825L848.397 224.674L852.038 225.271L853.539 216.124C854.015 213.219 855.013 210.934 856.518 209.356C858.067 207.785 859.69 207.116 861.381 207.393C863.895 207.806 864.911 209.486 864.42 212.477L862.053 226.913L865.694 227.51L868.218 212.121ZM65.267 134.743C64.9613 136.607 65.2184 138.297 66.0889 139.775C64.1622 140.394 63.0748 141.596 62.7833 143.373C62.5416 144.847 62.8265 146.096 63.6885 147.083C62.1527 148.033 61.2102 149.436 60.9045 151.301C60.1651 155.809 63.4092 159.101 69.0015 160.018C74.3771 160.9 78.6406 159.062 79.4724 153.989C80.1051 150.131 77.7728 147.523 73.6111 146.84L68.4523 145.994C66.8049 145.724 66.0808 144.982 66.2799 143.768C66.4363 142.815 67.0269 142.199 68.0588 141.879C69.0573 142.577 70.2718 143.043 71.7024 143.278C73.9133 143.64 75.8407 143.288 77.4846 142.223C79.1356 141.113 80.1641 139.457 80.5266 137.246C80.7755 135.728 80.6419 134.371 80.0898 133.123L83.3079 131.959L82.1511 128.698L77.8869 130.269C76.7797 129.42 75.5289 128.903 74.0983 128.668C71.8874 128.306 69.9529 128.701 68.3019 129.81C66.6509 130.919 65.6295 132.532 65.267 134.743ZM72.5357 149.869C75.0067 150.274 76.0428 151.557 75.6873 153.725C75.2963 156.109 73.1691 157.407 69.5276 156.81C65.8861 156.213 64.1621 154.239 64.5673 151.768C64.7948 150.38 65.4494 149.375 66.524 148.794C67.1672 148.944 67.6803 149.073 68.1138 149.144L72.5357 149.869ZM70.497 132.44C72.3065 131.179 74.9943 131.62 76.3061 133.393C76.9656 134.258 77.1851 135.362 76.9718 136.663C76.7585 137.963 76.1978 138.94 75.2966 139.549C73.5013 140.723 70.8135 140.283 69.4875 138.596C68.828 137.731 68.6085 136.627 68.8218 135.326C69.0351 134.026 69.5958 133.049 70.497 132.44ZM84.9376 153.194L88.5791 153.791L92.1623 131.942L88.5208 131.345L84.9376 153.194ZM88.6057 125.127C88.3569 126.644 89.3354 128.006 90.8961 128.262C92.4567 128.518 93.8191 127.54 94.068 126.022C94.3239 124.462 93.3525 123.056 91.7918 122.8C90.2312 122.544 88.8616 123.566 88.6057 125.127ZM100.362 136.67L98.4421 148.375C97.6672 153.1 99.733 155.977 103.591 156.609C105.022 156.844 106.235 156.776 107.281 156.369L106.933 153.062C106.161 153.425 105.302 153.507 104.348 153.35C102.484 153.044 101.657 151.573 102.034 149.276L104.003 137.267L109.726 138.206L110.266 134.911L104.543 133.973L105.994 125.129L101.975 126.829L100.902 133.375L97.1304 132.757L96.5901 136.052L100.362 136.67ZM132.671 145.441C133.418 140.889 131.439 138.027 127.407 137.366C124.069 136.819 120.931 138.04 119.096 140.544L121.214 127.625L117.573 127.028L112.539 157.721L116.181 158.318L117.702 149.041C118.171 146.179 119.198 143.988 120.834 142.431C122.469 140.874 124.179 140.22 125.87 140.497C128.384 140.91 129.4 142.59 128.909 145.581L126.542 160.017L130.183 160.614L132.671 145.441ZM138.232 155.301C137.521 159.636 139.543 162.505 143.531 163.159C146.696 163.678 149.365 162.603 151.489 159.968L150.828 164L154.469 164.597L158.053 142.748L154.411 142.151L152.911 151.298C152.435 154.202 151.437 156.487 149.888 158.058C148.383 159.637 146.759 160.305 145.069 160.028C142.554 159.616 141.539 157.936 142.029 154.944L144.397 140.508L140.755 139.911L138.232 155.301ZM171.605 167.763C177.848 168.787 182.055 164.847 183.165 158.085C184.274 151.322 181.545 146.244 175.302 145.221C174.002 145.007 172.651 145.098 171.288 145.542C169.924 145.986 168.95 146.494 168.446 147.123L170.323 135.679L166.682 135.082L161.648 165.774L165.29 166.371L165.73 163.684C166.537 165.552 169.004 167.337 171.605 167.763ZM174.415 148.459C178.23 149.084 180.211 152.748 179.436 157.473C178.661 162.198 175.614 165.037 171.799 164.412C167.854 163.765 166.003 160.122 166.778 155.397C167.553 150.672 170.47 147.812 174.415 148.459ZM186.493 167.222C186.237 168.783 187.216 170.145 188.776 170.401C190.294 170.65 191.699 169.679 191.955 168.118C192.204 166.601 191.189 165.188 189.672 164.939C188.111 164.683 186.742 165.705 186.493 167.222ZM213.76 167.153C212.149 169.649 209.934 170.666 207.116 170.204C203.085 169.543 201.457 165.892 202.225 161.21C202.993 156.528 205.701 153.589 209.733 154.25C212.55 154.713 214.324 156.383 215.054 159.263L218.432 158.482C217.316 154.159 214.608 151.667 210.273 150.956C207.108 150.437 204.46 151.115 202.363 153.042C200.317 154.932 199.016 157.434 198.497 160.599C197.978 163.764 198.411 166.55 199.74 169.038C201.118 171.49 203.411 172.979 206.576 173.498C210.911 174.209 214.273 172.713 216.711 168.973L213.76 167.153ZM223.546 172.898C225.134 175.429 227.471 176.925 230.636 177.444C233.8 177.963 236.492 177.292 238.762 175.394C241.076 173.503 242.47 170.971 242.975 167.893C243.48 164.815 242.96 162.014 241.372 159.484C239.827 156.96 237.497 155.42 234.333 154.901C231.168 154.382 228.469 155.097 226.155 156.988C223.885 158.886 222.498 161.374 221.993 164.452C221.488 167.53 222.001 170.374 223.546 172.898ZM228.416 159.763C229.893 158.358 231.668 157.848 233.792 158.196C235.916 158.544 237.436 159.595 238.343 161.391C239.301 163.151 239.602 165.114 239.247 167.282C238.891 169.449 237.979 171.214 236.502 172.619C235.076 173.988 233.3 174.498 231.176 174.149C229.052 173.801 227.532 172.751 226.575 170.991C225.667 169.195 225.366 167.231 225.721 165.064C226.077 162.896 226.989 161.132 228.416 159.763ZM279.128 169.237C279.832 164.945 278.033 162.068 274.088 161.421C270.967 160.909 268.334 162.036 266.232 164.807C266.015 161.789 264.117 159.786 261.126 159.295C258.048 158.791 255.552 159.895 253.602 162.558L254.263 158.526L250.622 157.929L247.038 179.778L250.68 180.375L252.152 171.401C253.154 165.289 256.294 161.886 259.589 162.427C261.93 162.811 262.866 164.433 262.396 167.294L260 181.904L263.642 182.501L265.114 173.527C266.116 167.415 269.256 164.012 272.551 164.552C274.892 164.936 275.828 166.559 275.358 169.42L272.962 184.029L276.604 184.627L279.128 169.237ZM280.9 187.557L284.542 188.154L309.131 156.573L305.489 155.976L280.9 187.557ZM303.547 198.483C307.974 198.363 310.813 195.98 311.546 191.514L315.314 168.538L311.672 167.941L307.961 190.57C307.456 193.648 306.058 194.576 303.162 194.858L303.547 198.483ZM311.67 161.708C311.422 163.226 312.4 164.588 313.961 164.844C315.521 165.1 316.884 164.121 317.133 162.604C317.389 161.043 316.417 159.638 314.856 159.382C313.296 159.126 311.926 160.148 311.67 161.708ZM322.122 185.636C322.527 183.165 324.879 182.126 328.564 182.731L332.466 183.371L332.38 183.891C332.003 186.188 331.119 187.78 329.728 188.664C328.336 189.549 326.82 189.835 325.173 189.565C322.875 189.188 321.781 187.717 322.122 185.636ZM336.733 180.153C337.643 174.604 334.745 171.369 329.673 170.537C325.555 169.862 322.1 171.654 320.932 175.247L324.019 176.51C324.845 174.464 326.835 173.455 329.133 173.832C332.298 174.351 333.653 176.131 333.162 179.122L333.006 180.076L329.451 179.493C323.339 178.491 319.155 180.386 318.394 185.025C317.662 189.49 320.124 192.12 324.069 192.767C327.06 193.257 329.499 192.5 331.48 190.465L331.582 193.643L334.443 194.112L336.733 180.153ZM348.018 191.575L345.508 173.49L341.78 172.879L345.393 195.908L349.121 196.519L359.901 175.85L356.173 175.239L348.018 191.575ZM360.794 198.433L364.436 199.031L368.019 177.182L364.377 176.584L360.794 198.433ZM364.462 170.366C364.214 171.883 365.192 173.246 366.753 173.502C368.313 173.758 369.676 172.779 369.925 171.262C370.181 169.701 369.209 168.295 367.649 168.039C366.088 167.783 364.718 168.805 364.462 170.366ZM391.905 191.382C392.381 188.478 391.912 185.908 390.462 183.622C389.062 181.3 386.798 179.905 383.72 179.4C380.555 178.881 377.95 179.567 375.853 181.494C373.807 183.384 372.506 185.886 371.987 189.051C371.468 192.215 371.901 195.002 373.23 197.49C374.608 199.942 376.858 201.424 380.023 201.943C384.531 202.682 387.554 201.353 390.295 197.395L387.315 195.482C385.595 198.094 383.641 199.153 380.563 198.648C376.791 198.03 375.1 194.77 375.587 190.442L391.627 193.073L391.905 191.382ZM383.179 182.695C386.517 183.242 388.199 185.744 388.353 189.153L376.344 187.183C377.585 183.959 379.928 182.162 383.179 182.695ZM412.09 184.721C411.338 184.152 410.376 183.772 409.206 183.58C406.778 183.182 403.777 184.381 402.122 186.603L402.733 182.875L399.091 182.277L395.508 204.126L399.15 204.724L400.508 196.444C401.055 193.105 402.089 190.604 403.608 188.939C405.128 187.274 406.715 186.555 408.362 186.825C409.272 186.974 410.061 187.326 410.82 187.851L412.09 184.721ZM416.149 201.056C416.554 198.585 418.906 197.546 422.591 198.151L426.492 198.791L426.407 199.311C426.03 201.608 425.146 203.2 423.754 204.084C422.363 204.969 420.847 205.255 419.2 204.985C416.902 204.608 415.808 203.137 416.149 201.056ZM430.759 195.573C431.669 190.024 428.772 186.789 423.7 185.957C419.582 185.282 416.127 187.074 414.959 190.667L418.046 191.93C418.871 189.884 420.862 188.875 423.16 189.252C426.324 189.771 427.68 191.551 427.189 194.542L427.033 195.496L423.478 194.913C417.365 193.911 413.181 195.806 412.421 200.445C411.688 204.91 414.151 207.54 418.096 208.187C421.087 208.677 423.526 207.92 425.507 205.885L425.609 209.063L428.47 209.532L430.759 195.573ZM451.208 191.136C450.456 190.567 449.494 190.187 448.324 189.995C445.896 189.597 442.895 190.796 441.239 193.018L441.851 189.29L438.209 188.693L434.626 210.542L438.268 211.139L439.625 202.859C440.173 199.521 441.206 197.019 442.726 195.354C444.245 193.689 445.832 192.97 447.48 193.24C448.39 193.389 449.178 193.741 449.938 194.266L451.208 191.136ZM467.094 208.699C465.483 211.195 463.269 212.212 460.451 211.75C456.419 211.088 454.792 207.438 455.56 202.756C456.327 198.074 459.035 195.135 463.067 195.796C465.885 196.258 467.659 197.929 468.388 200.809L471.766 200.028C470.65 195.704 467.942 193.213 463.607 192.502C460.443 191.983 457.794 192.661 455.697 194.588C453.651 196.478 452.35 198.98 451.831 202.145C451.312 205.31 451.746 208.096 453.074 210.584C454.452 213.036 456.746 214.525 459.91 215.044C464.246 215.755 467.607 214.259 470.046 210.519L467.094 208.699ZM495.245 208.33C495.721 205.425 495.252 202.855 493.802 200.57C492.402 198.248 490.138 196.852 487.06 196.348C483.895 195.829 481.29 196.514 479.193 198.441C477.147 200.331 475.846 202.833 475.327 205.998C474.808 209.163 475.242 211.949 476.57 214.438C477.949 216.89 480.198 218.371 483.363 218.89C487.872 219.63 490.894 218.3 493.636 214.343L490.655 212.429C488.936 215.041 486.981 216.1 483.903 215.596C480.132 214.977 478.441 211.717 478.928 207.39L494.968 210.02L495.245 208.33ZM486.52 199.642C489.858 200.19 491.54 202.692 491.693 206.1L479.685 204.131C480.926 200.906 483.268 199.109 486.52 199.642ZM495.921 222.82L499.563 223.417L524.151 191.835L520.51 191.238L495.921 222.82ZM534.069 219.683C532.458 222.178 530.243 223.195 527.425 222.733C523.393 222.072 521.766 218.422 522.534 213.74C523.302 209.058 526.01 206.119 530.041 206.78C532.859 207.242 534.633 208.913 535.363 211.793L538.741 211.011C537.624 206.688 534.917 204.196 530.582 203.485C527.417 202.966 524.768 203.645 522.672 205.571C520.626 207.462 519.325 209.964 518.806 213.128C518.287 216.293 518.72 219.08 520.048 221.568C521.427 224.02 523.72 225.509 526.885 226.028C531.22 226.739 534.582 225.242 537.02 221.502L534.069 219.683ZM543.855 225.428C545.443 227.958 547.78 229.455 550.944 229.973C554.109 230.492 556.801 229.821 559.071 227.923C561.385 226.032 562.779 223.501 563.284 220.423C563.789 217.345 563.269 214.544 561.68 212.013C560.136 209.489 557.806 207.95 554.641 207.431C551.477 206.912 548.778 207.627 546.464 209.518C544.194 211.416 542.807 213.904 542.302 216.982C541.797 220.06 542.31 222.904 543.855 225.428ZM548.725 212.292C550.202 210.887 551.977 210.377 554.101 210.726C556.225 211.074 557.745 212.124 558.652 213.92C559.61 215.68 559.911 217.644 559.556 219.811C559.2 221.979 558.288 223.743 556.811 225.148C555.384 226.517 553.609 227.027 551.485 226.679C549.361 226.33 547.841 225.28 546.883 223.52C545.976 221.724 545.675 219.761 546.03 217.593C546.386 215.426 547.298 213.661 548.725 212.292ZM583.548 212.839C582.796 212.271 581.834 211.89 580.664 211.698C578.236 211.3 575.235 212.5 573.579 214.721L574.191 210.993L570.549 210.396L566.966 232.245L570.608 232.842L571.966 224.562C572.513 221.224 573.546 218.722 575.066 217.057C576.586 215.392 578.173 214.673 579.82 214.943C580.73 215.093 581.518 215.444 582.278 215.97L583.548 212.839ZM599.434 230.402C597.823 232.898 595.609 233.915 592.791 233.453C588.759 232.792 587.132 229.141 587.9 224.46C588.668 219.778 591.375 216.838 595.407 217.5C598.225 217.962 599.999 219.633 600.728 222.512L604.106 221.731C602.99 217.408 600.283 214.916 595.947 214.205C592.783 213.686 590.134 214.364 588.037 216.291C585.991 218.181 584.69 220.683 584.172 223.848C583.653 227.013 584.086 229.799 585.414 232.288C586.793 234.74 589.086 236.229 592.251 236.748C596.586 237.458 599.947 235.962 602.386 232.222L599.434 230.402ZM627.359 226.568C628.106 222.016 626.127 219.154 622.095 218.493C618.757 217.946 615.619 219.167 613.783 221.671L615.902 208.752L612.26 208.155L607.227 238.847L610.868 239.445L612.39 230.167C612.859 227.306 613.886 225.115 615.522 223.558C617.157 222.001 618.867 221.347 620.558 221.624C623.072 222.036 624.087 223.717 623.597 226.708L621.229 241.144L624.871 241.741L627.359 226.568ZM633.733 240.167C635.321 242.698 637.658 244.194 640.822 244.713C643.987 245.232 646.679 244.561 648.949 242.663C651.262 240.772 652.657 238.24 653.162 235.162C653.667 232.084 653.146 229.283 651.558 226.753C650.013 224.229 647.684 222.689 644.519 222.17C641.355 221.651 638.655 222.366 636.342 224.257C634.072 226.155 632.684 228.643 632.18 231.721C631.675 234.799 632.188 237.643 633.733 240.167ZM638.602 227.032C640.079 225.627 641.855 225.117 643.979 225.465C646.103 225.813 647.622 226.864 648.53 228.66C649.488 230.42 649.789 232.383 649.434 234.551C649.078 236.718 648.165 238.483 646.689 239.888C645.262 241.257 643.487 241.767 641.363 241.418C639.238 241.07 637.719 240.02 636.761 238.26C635.854 236.464 635.552 234.5 635.908 232.333C636.263 230.165 637.176 228.401 638.602 227.032Z" fill="black"/>
<path d="M58.223 153.265L653 250.806L652.645 252.973L57.8675 155.432L58.223 153.265Z" fill="black"/>
</g>
</g>
<defs>
<filter id="filter0_d_8_10" x="0" y="0" width="934" height="350.554" filterUnits="userSpaceOnUse" color-interpolation-filters="sRGB">
<feFlood flood-opacity="0" result="BackgroundImageFix"/>
<feColorMatrix in="SourceAlpha" type="matrix" values="0 0 0 0 0 0 0 0 0 0 0 0 0 0 0 0 0 0 127 0" result="hardAlpha"/>
<feOffset dy="2"/>
<feGaussianBlur stdDeviation="1"/>
<feComposite in2="hardAlpha" operator="out"/>
<feColorMatrix type="matrix" values="0 0 0 0 0 0 0 0 0 0 0 0 0 0 0 0 0 0 0.25 0"/>
<feBlend mode="normal" in2="BackgroundImageFix" result="effect1_dropShadow_8_10"/>
<feBlend mode="normal" in="SourceGraphic" in2="effect1_dropShadow_8_10" result="shape"/>
</filter>
<clipPath id="clip0_8_10">
<rect x="34.7014" width="909.284" height="202.063" rx="12" transform="rotate(9.31338 34.7014 0)" fill="white"/>
</clipPath>
</defs>
</svg>
