<svg width="923" height="349" viewBox="0 0 923 349" fill="none" xmlns="http://www.w3.org/2000/svg">
<g filter="url(#filter0_d_8_10)">
<g clip-path="url(#clip0_8_10)">
<rect x="34.6961" width="898.143" height="202.032" rx="12" transform="rotate(9.31338 34.6961 0)" fill="white"/>
<path d="M71.7079 97.2866L75.5222 97.9121L77.8182 83.9118L89.0445 85.7528L89.6416 82.1119L78.4153 80.2708L79.901 71.2118L93.7279 73.4793L94.325 69.8384L76.6837 66.9453L71.7079 97.2866ZM95.0298 98.0846C96.6178 100.615 98.9541 102.111 102.118 102.63C105.282 103.149 107.974 102.477 110.244 100.58C112.557 98.6889 113.951 96.1579 114.456 93.0804C114.961 90.003 114.441 87.2025 112.853 84.6721C111.308 82.1487 108.979 80.6095 105.815 80.0906C102.65 79.5717 99.9516 80.2864 97.6386 82.1771C95.3689 84.0749 93.9817 86.5625 93.477 89.64C92.9723 92.7175 93.4852 95.5612 95.0298 98.0846ZM99.8988 84.9513C101.375 83.5466 103.15 83.0365 105.274 83.3848C107.398 83.7331 108.917 84.7834 109.825 86.5791C110.782 88.3385 111.084 90.3019 110.728 92.4691C110.373 94.6363 109.46 96.4006 107.984 97.8054C106.557 99.1738 104.782 99.6839 102.659 99.3356C100.535 98.9873 99.0155 97.937 98.0577 96.1775C97.1504 94.3819 96.8493 92.4185 97.2047 90.2513C97.5601 88.0841 98.4726 86.3198 99.8988 84.9513ZM118.347 104.935L121.988 105.532L127.021 74.8443L123.38 74.2472L118.347 104.935ZM129.183 106.712L132.824 107.309L137.857 76.6214L134.216 76.0243L129.183 106.712ZM141.761 105.748C143.349 108.279 145.685 109.775 148.849 110.294C152.013 110.812 154.705 110.141 156.975 108.243C159.288 106.353 160.682 103.822 161.187 100.744C161.692 97.6666 161.172 94.8662 159.584 92.3358C158.039 89.8124 155.71 88.2732 152.546 87.7543C149.381 87.2354 146.683 87.95 144.37 89.8408C142.1 91.7386 140.713 94.2262 140.208 97.3037C139.703 100.381 140.216 103.225 141.761 105.748ZM146.63 92.615C148.106 91.2103 149.881 90.7002 152.005 91.0485C154.129 91.3968 155.648 92.4471 156.556 94.2428C157.513 96.0022 157.815 97.9656 157.459 100.133C157.104 102.3 156.191 104.064 154.715 105.469C153.288 106.838 151.513 107.348 149.389 106.999C147.266 106.651 145.746 105.601 144.789 103.841C143.881 102.046 143.58 100.082 143.936 97.915C144.291 95.7478 145.204 93.9835 146.63 92.615ZM184.115 110.513L182.574 93.035L178.933 92.4379L171.891 108.509L170.178 91.002L166.363 90.3764L169.413 113.31L172.88 113.878L179.894 97.9811L181.462 115.286L184.93 115.855L195.144 95.0964L191.33 94.4708L184.115 110.513ZM212.673 101.354L210.753 113.057C209.979 117.781 212.044 120.657 215.902 121.29C217.332 121.524 218.545 121.456 219.591 121.049L219.243 117.743C218.471 118.106 217.612 118.188 216.659 118.031C214.795 117.726 213.968 116.255 214.345 113.957L216.314 101.951L222.035 102.889L222.575 99.595L216.854 98.6567L218.304 89.8144L214.286 91.5145L213.213 98.0596L209.442 97.4411L208.902 100.735L212.673 101.354ZM244.978 110.123C245.724 105.572 243.745 102.711 239.714 102.05C236.377 101.502 233.239 102.724 231.404 105.227L233.522 92.3101L229.881 91.713L224.848 122.401L228.489 122.998L230.011 113.722C230.48 110.862 231.507 108.671 233.142 107.114C234.777 105.557 236.487 104.903 238.177 105.18C240.691 105.593 241.706 107.272 241.216 110.263L238.849 124.697L242.49 125.294L244.978 110.123ZM269.712 117.607C270.188 114.703 269.719 112.133 268.269 109.848C266.869 107.527 264.605 106.132 261.528 105.627C258.364 105.108 255.759 105.794 253.663 107.72C251.617 109.61 250.316 112.112 249.797 115.276C249.278 118.44 249.712 121.226 251.04 123.714C252.418 126.166 254.667 127.647 257.832 128.166C262.34 128.905 265.362 127.576 268.103 123.619L265.123 121.706C263.404 124.317 261.449 125.377 258.372 124.872C254.601 124.254 252.91 120.994 253.397 116.667L269.434 119.297L269.712 117.607ZM260.988 108.921C264.325 109.469 266.007 111.97 266.16 115.378L254.154 113.409C255.395 110.185 257.737 108.388 260.988 108.921ZM285.549 132.356L289.19 132.953L292.772 111.107L289.131 110.51L285.549 132.356ZM289.216 104.292C288.968 105.809 289.946 107.172 291.506 107.428C293.067 107.683 294.429 106.705 294.678 105.188C294.934 103.628 293.962 102.222 292.402 101.966C290.842 101.71 289.472 102.732 289.216 104.292ZM315.482 121.463C316.193 117.129 314.171 114.26 310.183 113.606C307.019 113.087 304.35 114.163 302.227 116.797L302.888 112.766L299.247 112.169L295.664 134.015L299.305 134.612L300.805 125.466C301.282 122.562 302.279 120.277 303.784 118.699C305.333 117.128 306.956 116.46 308.646 116.737C311.16 117.149 312.176 118.829 311.685 121.82L309.318 136.254L312.959 136.851L315.482 121.463ZM329.8 116.823C325.942 116.191 322.966 118.329 322.397 121.796C321.714 125.957 325.128 127.941 327.811 129.494C329.648 130.508 331.081 131.811 330.846 133.241C330.47 135.538 329.114 136.474 326.774 136.09C324.563 135.727 323.107 134.02 322.406 130.967L319.052 132.153C319.761 135.696 322.116 138.709 326.234 139.384C330.698 140.116 333.899 137.97 334.61 133.636C335.705 127.228 325.348 126.331 326.031 122.437C326.315 120.703 327.613 119.847 329.13 120.096C330.473 120.317 331.653 121.267 332.762 122.917L335.581 121.199C334.383 118.732 332.444 117.257 329.8 116.823ZM343.426 122.797L341.507 134.5C340.732 139.224 342.798 142.1 346.655 142.733C348.086 142.968 349.299 142.899 350.345 142.492L349.997 139.186C349.225 139.549 348.366 139.631 347.412 139.474C345.549 139.169 344.722 137.698 345.098 135.4L347.067 123.394L352.789 124.332L353.329 121.038L347.608 120.1L349.058 111.257L345.04 112.958L343.967 119.503L340.196 118.884L339.655 122.178L343.426 122.797ZM372.478 124.49C371.725 123.921 370.764 123.541 369.594 123.349C367.166 122.951 364.166 124.151 362.511 126.372L363.122 122.644L359.481 122.047L355.898 143.893L359.539 144.49L360.897 136.211C361.444 132.873 362.478 130.372 363.997 128.707C365.516 127.043 367.103 126.324 368.75 126.594C369.66 126.743 370.448 127.095 371.208 127.62L372.478 124.49ZM374.602 140.328C373.892 144.662 375.914 147.531 379.901 148.185C383.066 148.704 385.735 147.628 387.858 144.994L387.197 149.026L390.838 149.623L394.42 127.777L390.78 127.18L389.28 136.326C388.803 139.23 387.806 141.514 386.257 143.085C384.752 144.663 383.129 145.332 381.439 145.054C378.925 144.642 377.909 142.962 378.4 139.972L380.767 125.538L377.126 124.941L374.602 140.328ZM413.886 146.236C412.275 148.732 410.061 149.748 407.243 149.286C403.212 148.625 401.585 144.976 402.353 140.294C403.121 135.613 405.828 132.674 409.859 133.335C412.677 133.798 414.45 135.468 415.18 138.347L418.557 137.566C417.441 133.244 414.734 130.752 410.399 130.041C407.235 129.522 404.587 130.201 402.491 132.127C400.445 134.017 399.144 136.519 398.625 139.683C398.106 142.847 398.54 145.633 399.868 148.121C401.246 150.573 403.539 152.062 406.703 152.581C411.038 153.291 414.399 151.795 416.837 148.055L413.886 146.236ZM426.348 136.396L424.429 148.099C423.654 152.823 425.72 155.699 429.578 156.332C431.008 156.566 432.221 156.498 433.267 156.091L432.919 152.785C432.147 153.148 431.288 153.23 430.334 153.073C428.471 152.768 427.644 151.297 428.02 148.999L429.989 136.993L435.711 137.931L436.251 134.637L430.53 133.699L431.98 124.856L427.962 126.556L426.889 133.102L423.118 132.483L422.577 135.777L426.348 136.396ZM438.779 157.485L442.42 158.082L446.003 136.236L442.362 135.639L438.779 157.485ZM442.447 129.422C442.198 130.939 443.176 132.301 444.737 132.557C446.297 132.813 447.659 131.834 447.908 130.317C448.164 128.757 447.193 127.351 445.632 127.095C444.072 126.839 442.703 127.861 442.447 129.422ZM451.523 156.548C453.111 159.078 455.447 160.574 458.611 161.093C461.775 161.612 464.467 160.941 466.737 159.043C469.05 157.152 470.444 154.621 470.949 151.544C471.454 148.466 470.934 145.666 469.346 143.136C467.801 140.612 465.472 139.073 462.308 138.554C459.144 138.035 456.445 138.75 454.132 140.641C451.862 142.538 450.475 145.026 449.97 148.103C449.465 151.181 449.978 154.025 451.523 156.548ZM456.392 143.415C457.869 142.01 459.644 141.5 461.767 141.848C463.891 142.197 465.41 143.247 466.318 145.043C467.276 146.802 467.577 148.765 467.221 150.933C466.866 153.1 465.953 154.864 464.477 156.269C463.051 157.637 461.275 158.147 459.152 157.799C457.028 157.451 455.509 156.4 454.551 154.641C453.643 152.845 453.342 150.882 453.698 148.715C454.053 146.548 454.966 144.783 456.392 143.415ZM494.999 150.903C495.71 146.569 493.688 143.7 489.7 143.046C486.536 142.527 483.867 143.603 481.743 146.237L482.404 142.206L478.763 141.609L475.181 163.455L478.822 164.052L480.322 154.906C480.798 152.002 481.796 149.717 483.301 148.139C484.849 146.568 486.472 145.9 488.163 146.177C490.677 146.589 491.692 148.269 491.201 151.26L488.834 165.694L492.475 166.291L494.999 150.903ZM509.316 146.263C505.459 145.631 502.482 147.769 501.913 151.236C501.231 155.397 504.644 157.381 507.327 158.934C509.164 159.948 510.597 161.251 510.363 162.681C509.986 164.978 508.631 165.913 506.29 165.53C504.08 165.167 502.624 163.46 501.923 160.407L498.568 161.593C499.278 165.136 501.632 168.149 505.75 168.824C510.215 169.556 513.415 167.41 514.126 163.076C515.221 156.668 504.864 155.771 505.547 151.877C505.831 150.143 507.129 149.287 508.646 149.536C509.99 149.757 511.169 150.707 512.278 152.357L515.097 150.639C513.899 148.172 511.96 146.697 509.316 146.263ZM534.922 154.201L533.003 165.904C532.228 170.629 534.293 173.505 538.151 174.137C539.581 174.372 540.794 174.304 541.84 173.897L541.492 170.59C540.72 170.954 539.861 171.035 538.908 170.879C537.044 170.573 536.217 169.102 536.594 166.805L538.563 154.798L544.284 155.737L544.824 152.443L539.103 151.504L540.553 142.662L536.535 144.362L535.462 150.907L531.691 150.289L531.151 153.583L534.922 154.201ZM567.227 162.971C567.973 158.42 565.994 155.558 561.963 154.897C558.626 154.35 555.488 155.571 553.653 158.074L555.771 145.158L552.13 144.561L547.097 175.249L550.738 175.846L552.26 166.57C552.729 163.709 553.756 161.519 555.391 159.962C557.026 158.405 558.736 157.751 560.426 158.028C562.94 158.44 563.955 160.12 563.465 163.111L561.098 177.545L564.739 178.142L567.227 162.971ZM575.354 173.429C575.759 170.958 578.111 169.919 581.795 170.523L585.696 171.163L585.611 171.683C585.234 173.981 584.35 175.571 582.958 176.456C581.567 177.341 580.051 177.626 578.404 177.356C576.107 176.979 575.013 175.509 575.354 173.429ZM589.962 167.946C590.872 162.398 587.975 159.163 582.904 158.331C578.786 157.656 575.332 159.449 574.164 163.041L577.251 164.303C578.076 162.258 580.067 161.249 582.364 161.626C585.528 162.144 586.883 163.925 586.393 166.915L586.236 167.869L582.682 167.286C576.57 166.284 572.387 168.179 571.626 172.817C570.894 177.282 573.356 179.911 577.301 180.558C580.291 181.048 582.73 180.291 584.711 178.257L584.813 181.434L587.674 181.903L589.962 167.946ZM598.838 164.683L596.919 176.386C596.144 181.111 598.21 183.987 602.067 184.619C603.498 184.854 604.711 184.786 605.757 184.379L605.409 181.073C604.637 181.436 603.778 181.517 602.824 181.361C600.96 181.055 600.133 179.584 600.51 177.287L602.479 165.28L608.201 166.219L608.741 162.925L603.019 161.986L604.47 153.144L600.452 154.844L599.379 161.389L595.608 160.771L595.067 164.065L598.838 164.683ZM630.102 182.629L627.141 165.942L623.153 165.288L627.392 187.482L622.325 196.666L626.053 197.277L641.922 168.366L638.107 167.741L630.102 182.629ZM644.542 188.202C646.13 190.733 648.466 192.229 651.631 192.748C654.795 193.267 657.486 192.595 659.756 190.697C662.069 188.807 663.464 186.276 663.968 183.198C664.473 180.121 663.953 177.32 662.365 174.79C660.82 172.267 658.491 170.727 655.327 170.208C652.163 169.69 649.464 170.404 647.151 172.295C644.881 174.193 643.494 176.68 642.989 179.758C642.485 182.835 642.998 185.679 644.542 188.202ZM649.411 175.069C650.888 173.664 652.663 173.154 654.787 173.503C656.911 173.851 658.43 174.901 659.337 176.697C660.295 178.456 660.596 180.42 660.241 182.587C659.885 184.754 658.973 186.519 657.496 187.923C656.07 189.292 654.295 189.802 652.171 189.453C650.047 189.105 648.528 188.055 647.57 186.295C646.663 184.5 646.362 182.536 646.717 180.369C647.072 178.202 647.985 176.438 649.411 175.069ZM668.999 188.608C668.288 192.942 670.31 195.811 674.298 196.465C677.462 196.984 680.131 195.908 682.255 193.274L681.594 197.305L685.235 197.903L688.817 176.057L685.176 175.46L683.676 184.605C683.2 187.51 682.202 189.794 680.654 191.365C679.149 192.943 677.526 193.612 675.835 193.334C673.321 192.922 672.306 191.242 672.797 188.251L675.164 173.818L671.523 173.221L668.999 188.608ZM696.222 177.316L703.184 169.333L697.896 168.465L693.448 176.861L696.222 177.316ZM703.5 200.898L707.141 201.495L712.174 170.807L708.533 170.21L703.5 200.898ZM714.336 202.675L717.977 203.272L723.01 172.584L719.369 171.987L714.336 202.675ZM741.409 188.064L738.366 206.616L742.007 207.213L745.05 188.661L752.548 189.891L749.506 208.443L753.147 209.04L756.73 187.194L745.59 185.367L745.711 184.63C746.23 181.466 748.277 180.111 751.268 180.601C753.132 180.907 754.664 181.603 755.916 182.654L757.208 179.661C756.021 178.487 754.235 177.705 751.851 177.314C749.467 176.923 747.316 177.282 745.478 178.45C743.64 179.617 742.489 181.476 742.063 184.077L741.949 184.77L738.828 184.258L738.288 187.553L741.409 188.064ZM780.591 197.739C781.302 193.405 779.28 190.536 775.292 189.882C772.128 189.363 769.459 190.439 767.336 193.073L767.997 189.042L764.356 188.445L760.773 210.291L764.414 210.888L765.914 201.742C766.39 198.838 767.388 196.553 768.893 194.975C770.442 193.404 772.065 192.736 773.755 193.013C776.269 193.425 777.284 195.105 776.794 198.096L774.427 212.53L778.068 213.127L780.591 197.739ZM796.983 193.439C790.742 192.416 786.535 196.355 785.426 203.117C784.317 209.879 787.045 214.955 793.287 215.979C795.888 216.405 798.795 215.502 800.156 213.99L799.715 216.677L803.356 217.274L808.389 186.586L804.748 185.989L802.871 197.432C802.595 196.674 801.835 195.882 800.684 195.026C799.534 194.169 798.284 193.653 796.983 193.439ZM794.174 212.741C790.359 212.116 788.379 208.453 789.153 203.728C789.928 199.004 792.975 196.165 796.79 196.791C800.734 197.437 802.585 201.079 801.81 205.804C801.035 210.528 798.118 213.388 794.174 212.741ZM826.11 214.551C826.515 212.081 828.866 211.042 832.551 211.646L836.452 212.286L836.366 212.806C835.99 215.103 835.106 216.694 833.714 217.579C832.323 218.464 830.807 218.749 829.16 218.479C826.863 218.102 825.769 216.632 826.11 214.551ZM840.718 209.069C841.628 203.521 838.731 200.286 833.66 199.454C829.542 198.779 826.088 200.572 824.92 204.164L828.007 205.426C828.832 203.381 830.822 202.372 833.12 202.749C836.284 203.267 837.639 205.048 837.148 208.038L836.992 208.992L833.438 208.409C827.326 207.407 823.143 209.302 822.382 213.94C821.65 218.405 824.112 221.034 828.056 221.681C831.047 222.171 833.486 221.414 835.466 219.38L835.569 222.557L838.429 223.026L840.718 209.069ZM849.594 205.806L847.675 217.509C846.9 222.234 848.965 225.11 852.823 225.742C854.253 225.977 855.466 225.909 856.512 225.502L856.164 222.195C855.393 222.559 854.534 222.64 853.58 222.484C851.716 222.178 850.889 220.707 851.266 218.41L853.235 206.403L858.956 207.342L859.497 204.048L853.775 203.109L855.225 194.267L851.208 195.967L850.134 202.512L846.363 201.894L845.823 205.188L849.594 205.806ZM65.257 134.723C64.9513 136.586 65.2084 138.275 66.0788 139.754C64.1524 140.372 63.0651 141.574 62.7737 143.351C62.532 144.825 62.8169 146.073 63.6787 147.06C62.1431 148.01 61.2008 149.414 60.8952 151.277C60.1559 155.785 63.3995 159.077 68.9909 159.994C74.3657 160.875 78.6285 159.037 79.4602 153.966C80.0928 150.108 77.7609 147.5 73.5998 146.818L68.4418 145.972C66.7947 145.702 66.0707 144.96 66.2697 143.746C66.4261 142.793 67.0166 142.177 68.0484 141.857C69.0467 142.555 70.261 143.021 71.6914 143.256C73.902 143.618 75.8291 143.266 77.4727 142.201C79.1235 141.092 80.1518 139.435 80.5143 137.225C80.7631 135.708 80.6296 134.35 80.0775 133.103L83.2951 131.939L82.1385 128.678L77.8749 130.249C76.7679 129.4 75.5173 128.883 74.0869 128.648C71.8764 128.286 69.9421 128.681 68.2914 129.79C66.6407 130.899 65.6195 132.512 65.257 134.723ZM72.5245 149.846C74.9952 150.251 76.0311 151.534 75.6757 153.701C75.2847 156.085 73.1579 157.383 69.517 156.786C65.876 156.189 64.1523 154.215 64.5574 151.744C64.7849 150.357 65.4394 149.352 66.5138 148.771C67.1569 148.921 67.6699 149.05 68.1034 149.121L72.5245 149.846ZM70.4862 132.42C72.2954 131.159 74.9828 131.599 76.2944 133.372C76.9538 134.237 77.1733 135.342 76.96 136.642C76.7468 137.942 76.1861 138.918 75.285 139.527C73.49 140.702 70.8027 140.261 69.4768 138.575C68.8175 137.71 68.598 136.606 68.8112 135.305C69.0245 134.005 69.5852 133.029 70.4862 132.42ZM84.9246 153.171L88.5655 153.768L92.1481 131.922L88.5072 131.325L84.9246 153.171ZM88.5921 125.107C88.3433 126.624 89.3217 127.987 90.8821 128.243C92.4425 128.498 93.8048 127.52 94.0535 126.003C94.3094 124.443 93.3382 123.037 91.7778 122.781C90.2174 122.525 88.848 123.547 88.5921 125.107ZM100.346 136.649L98.427 148.352C97.6522 153.077 99.7177 155.953 103.575 156.585C105.006 156.82 106.219 156.752 107.265 156.345L106.917 153.038C106.145 153.401 105.286 153.483 104.332 153.327C102.468 153.021 101.641 151.55 102.018 149.253L103.987 137.246L109.709 138.185L110.249 134.89L104.527 133.952L105.978 125.11L101.96 126.81L100.886 133.355L97.1155 132.737L96.5753 136.031L100.346 136.649ZM132.651 145.419C133.398 140.868 131.419 138.006 127.388 137.345C124.05 136.798 120.912 138.019 119.077 140.522L121.196 127.605L117.555 127.008L112.522 157.696L116.163 158.294L117.684 149.018C118.153 146.157 119.18 143.966 120.815 142.41C122.45 140.853 124.16 140.198 125.851 140.476C128.365 140.888 129.38 142.568 128.889 145.559L126.522 159.992L130.163 160.59L132.651 145.419ZM138.21 155.277C137.499 159.612 139.522 162.48 143.509 163.134C146.673 163.653 149.342 162.578 151.466 159.944L150.805 163.975L154.446 164.572L158.028 142.726L154.387 142.129L152.888 151.275C152.411 154.179 151.413 156.463 149.865 158.034C148.36 159.612 146.737 160.281 145.046 160.004C142.533 159.591 141.517 157.911 142.008 154.921L144.375 140.487L140.734 139.89L138.21 155.277ZM171.579 167.738C177.821 168.761 182.028 164.822 183.136 158.06C184.245 151.299 181.517 146.222 175.275 145.198C173.975 144.985 172.625 145.075 171.261 145.519C169.898 145.963 168.924 146.471 168.42 147.101L170.297 135.658L166.656 135.061L161.623 165.749L165.264 166.346L165.705 163.659C166.511 165.527 168.978 167.311 171.579 167.738ZM174.388 148.436C178.203 149.061 180.184 152.724 179.409 157.449C178.634 162.174 175.587 165.012 171.773 164.387C167.828 163.74 165.977 160.098 166.752 155.373C167.527 150.649 170.444 147.789 174.388 148.436ZM186.464 167.197C186.208 168.757 187.187 170.119 188.747 170.375C190.264 170.624 191.67 169.653 191.926 168.092C192.175 166.575 191.16 165.162 189.643 164.914C188.083 164.658 186.713 165.68 186.464 167.197ZM213.727 167.128C212.116 169.623 209.902 170.64 207.085 170.178C203.054 169.517 201.427 165.867 202.194 161.186C202.962 156.504 205.669 153.566 209.7 154.227C212.518 154.689 214.291 156.359 215.021 159.239L218.398 158.457C217.282 154.135 214.575 151.643 210.241 150.933C207.077 150.414 204.428 151.092 202.332 153.018C200.286 154.908 198.986 157.41 198.467 160.574C197.948 163.739 198.381 166.525 199.709 169.013C201.087 171.464 203.38 172.953 206.544 173.472C210.879 174.183 214.24 172.686 216.678 168.947L213.727 167.128ZM223.512 172.872C225.1 175.402 227.436 176.898 230.6 177.417C233.764 177.936 236.456 177.264 238.726 175.367C241.039 173.476 242.433 170.945 242.938 167.868C243.443 164.79 242.923 161.99 241.335 159.459C239.79 156.936 237.461 155.397 234.297 154.878C231.132 154.359 228.434 155.073 226.121 156.964C223.851 158.862 222.464 161.35 221.959 164.427C221.454 167.505 221.967 170.348 223.512 172.872ZM228.381 159.738C229.857 158.334 231.633 157.824 233.756 158.172C235.88 158.52 237.399 159.57 238.307 161.366C239.265 163.126 239.566 165.089 239.21 167.256C238.855 169.423 237.942 171.188 236.466 172.592C235.039 173.961 233.264 174.471 231.141 174.123C229.017 173.774 227.498 172.724 226.54 170.965C225.632 169.169 225.331 167.206 225.687 165.038C226.042 162.871 226.955 161.107 228.381 159.738ZM279.085 169.211C279.789 164.92 277.99 162.043 274.046 161.396C270.925 160.885 268.293 162.011 266.191 164.782C265.974 161.764 264.077 159.761 261.086 159.271C258.009 158.766 255.513 159.87 253.563 162.533L254.224 158.502L250.583 157.905L247 179.75L250.641 180.347L252.113 171.375C253.115 165.264 256.255 161.861 259.549 162.402C261.889 162.786 262.825 164.408 262.356 167.269L259.961 181.876L263.602 182.473L265.073 173.501C266.075 167.389 269.215 163.987 272.509 164.527C274.85 164.911 275.785 166.533 275.316 169.394L272.921 184.001L276.562 184.598L279.085 169.211ZM280.857 187.528L284.498 188.125L309.083 156.549L305.442 155.952L280.857 187.528ZM303.501 198.452C307.927 198.333 310.766 195.949 311.498 191.485L315.265 168.512L311.624 167.915L307.914 190.541C307.409 193.619 306.011 194.546 303.116 194.828L303.501 198.452ZM311.623 161.683C311.374 163.2 312.352 164.563 313.913 164.819C315.473 165.075 316.835 164.096 317.084 162.579C317.34 161.019 316.369 159.613 314.808 159.357C313.248 159.101 311.878 160.123 311.623 161.683ZM322.073 185.608C322.478 183.137 324.829 182.099 328.514 182.703L332.415 183.343L332.329 183.863C331.953 186.16 331.068 187.751 329.677 188.635C328.286 189.52 326.77 189.806 325.123 189.535C322.826 189.159 321.732 187.688 322.073 185.608ZM336.681 180.125C337.591 174.577 334.694 171.342 329.623 170.511C325.505 169.835 322.051 171.628 320.883 175.22L323.97 176.483C324.795 174.437 326.785 173.428 329.083 173.805C332.247 174.324 333.602 176.104 333.111 179.095L332.955 180.048L329.401 179.465C323.289 178.463 319.106 180.359 318.345 184.997C317.613 189.461 320.075 192.09 324.019 192.737C327.01 193.228 329.449 192.47 331.429 190.436L331.531 193.613L334.392 194.082L336.681 180.125ZM347.964 191.545L345.455 173.463L341.727 172.852L345.34 195.878L349.068 196.489L359.846 175.823L356.118 175.212L347.964 191.545ZM360.739 198.403L364.38 199L367.963 177.154L364.322 176.557L360.739 198.403ZM364.407 170.34C364.158 171.857 365.136 173.219 366.696 173.475C368.257 173.731 369.619 172.753 369.868 171.235C370.124 169.675 369.153 168.269 367.592 168.014C366.032 167.758 364.662 168.779 364.407 170.34ZM391.844 191.353C392.321 188.449 391.852 185.879 390.402 183.594C389.002 181.272 386.738 179.877 383.661 179.373C380.497 178.854 377.892 179.539 375.795 181.466C373.749 183.356 372.449 185.858 371.93 189.022C371.411 192.186 371.844 194.972 373.172 197.46C374.551 199.911 376.8 201.393 379.964 201.912C384.472 202.651 387.494 201.322 390.235 197.365L387.255 195.452C385.536 198.063 383.582 199.123 380.505 198.618C376.734 197.999 375.043 194.74 375.53 190.413L391.567 193.043L391.844 191.353ZM383.121 182.667C386.458 183.214 388.14 185.716 388.293 189.124L376.287 187.155C377.527 183.931 379.87 182.134 383.121 182.667ZM412.027 184.692C411.275 184.124 410.313 183.744 409.143 183.552C406.716 183.154 403.715 184.353 402.06 186.574L402.671 182.846L399.03 182.249L395.448 204.095L399.089 204.692L400.446 196.413C400.994 193.076 402.027 190.575 403.546 188.91C405.066 187.245 406.652 186.526 408.299 186.796C409.21 186.945 409.998 187.297 410.757 187.822L412.027 184.692ZM416.085 201.026C416.49 198.555 418.841 197.516 422.526 198.12L426.427 198.76L426.342 199.28C425.965 201.578 425.081 203.168 423.689 204.053C422.298 204.938 420.782 205.223 419.135 204.953C416.838 204.576 415.744 203.106 416.085 201.026ZM430.693 195.543C431.603 189.995 428.706 186.76 423.635 185.928C419.517 185.253 416.063 187.046 414.895 190.638L417.982 191.9C418.807 189.855 420.798 188.846 423.095 189.223C426.259 189.742 427.614 191.522 427.123 194.512L426.967 195.466L423.413 194.883C417.301 193.881 413.118 195.776 412.357 200.414C411.625 204.879 414.087 207.508 418.032 208.155C421.022 208.645 423.461 207.888 425.442 205.854L425.544 209.031L428.404 209.5L430.693 195.543ZM451.139 191.107C450.386 190.538 449.425 190.158 448.255 189.966C445.827 189.568 442.827 190.767 441.172 192.988L441.783 189.261L438.142 188.664L434.559 210.509L438.2 211.106L439.558 202.828C440.105 199.49 441.139 196.989 442.658 195.324C444.177 193.659 445.764 192.94 447.411 193.21C448.321 193.36 449.109 193.711 449.869 194.237L451.139 191.107ZM467.023 208.667C465.412 211.162 463.197 212.179 460.38 211.717C456.349 211.056 454.722 207.406 455.49 202.725C456.257 198.044 458.965 195.105 462.996 195.766C465.813 196.228 467.587 197.899 468.316 200.778L471.694 199.997C470.578 195.674 467.871 193.183 463.536 192.472C460.372 191.953 457.724 192.632 455.627 194.558C453.581 196.448 452.281 198.95 451.762 202.114C451.243 205.278 451.676 208.064 453.004 210.552C454.383 213.004 456.676 214.492 459.84 215.011C464.174 215.722 467.535 214.226 469.974 210.486L467.023 208.667ZM495.169 208.298C495.645 205.394 495.176 202.824 493.726 200.539C492.327 198.217 490.063 196.822 486.985 196.318C483.821 195.799 481.216 196.484 479.12 198.41C477.074 200.3 475.773 202.802 475.255 205.967C474.736 209.131 475.169 211.917 476.497 214.405C477.875 216.856 480.125 218.338 483.289 218.857C487.797 219.596 490.819 218.267 493.56 214.31L490.58 212.397C488.861 215.008 486.907 216.067 483.829 215.563C480.058 214.944 478.367 211.685 478.854 207.358L494.892 209.988L495.169 208.298ZM486.445 199.612C489.783 200.159 491.464 202.66 491.618 206.068L479.611 204.099C480.852 200.876 483.194 199.079 486.445 199.612ZM495.845 222.785L499.486 223.383L524.071 191.806L520.43 191.209L495.845 222.785ZM533.987 219.649C532.376 222.144 530.162 223.161 527.344 222.699C523.313 222.038 521.686 218.388 522.454 213.707C523.222 209.026 525.929 206.087 529.96 206.748C532.778 207.21 534.551 208.881 535.281 211.76L538.658 210.979C537.542 206.656 534.835 204.165 530.5 203.454C527.336 202.935 524.688 203.613 522.592 205.54C520.546 207.43 519.245 209.932 518.726 213.096C518.207 216.26 518.641 219.046 519.969 221.534C521.347 223.985 523.64 225.474 526.804 225.993C531.138 226.704 534.5 225.208 536.938 221.468L533.987 219.649ZM543.772 225.393C545.359 227.923 547.696 229.419 550.86 229.938C554.024 230.457 556.716 229.786 558.985 227.888C561.299 225.997 562.693 223.466 563.198 220.389C563.702 217.311 563.182 214.511 561.594 211.98C560.05 209.457 557.72 207.918 554.556 207.399C551.392 206.88 548.693 207.595 546.38 209.485C544.111 211.383 542.723 213.871 542.219 216.948C541.714 220.026 542.227 222.87 543.772 225.393ZM548.64 212.26C550.117 210.855 551.892 210.345 554.016 210.693C556.14 211.041 557.659 212.092 558.566 213.887C559.524 215.647 559.825 217.61 559.47 219.778C559.114 221.945 558.202 223.709 556.725 225.114C555.299 226.482 553.524 226.992 551.4 226.644C549.276 226.296 547.757 225.245 546.799 223.486C545.892 221.69 545.591 219.727 545.946 217.56C546.302 215.392 547.214 213.628 548.64 212.26ZM583.459 212.807C582.706 212.238 581.745 211.858 580.575 211.666C578.147 211.268 575.146 212.467 573.491 214.688L574.103 210.961L570.462 210.364L566.879 232.209L570.52 232.806L571.878 224.527C572.425 221.19 573.458 218.689 574.978 217.024C576.497 215.359 578.084 214.64 579.731 214.91C580.641 215.06 581.429 215.411 582.189 215.937L583.459 212.807ZM599.343 230.367C597.732 232.862 595.517 233.879 592.7 233.417C588.669 232.756 587.042 229.106 587.81 224.425C588.577 219.744 591.285 216.805 595.316 217.466C598.133 217.928 599.907 219.599 600.636 222.478L604.014 221.697C602.898 217.374 600.19 214.883 595.856 214.172C592.692 213.653 590.043 214.331 587.947 216.258C585.901 218.148 584.601 220.65 584.082 223.814C583.563 226.978 583.996 229.764 585.324 232.252C586.703 234.704 588.995 236.192 592.16 236.711C596.494 237.422 599.855 235.926 602.293 232.186L599.343 230.367ZM627.263 226.533C628.009 221.982 626.031 219.12 622 218.459C618.662 217.912 615.524 219.133 613.689 221.637L615.807 208.72L612.167 208.123L607.134 238.811L610.775 239.408L612.296 230.132C612.765 227.271 613.792 225.081 615.427 223.524C617.062 221.967 618.772 221.313 620.462 221.59C622.976 222.002 623.992 223.682 623.501 226.673L621.134 241.107L624.775 241.704L627.263 226.533ZM633.636 240.13C635.224 242.661 637.56 244.157 640.724 244.676C643.888 245.194 646.58 244.523 648.85 242.625C651.163 240.735 652.557 238.204 653.062 235.126C653.566 232.049 653.046 229.248 651.458 226.718C649.914 224.194 647.584 222.655 644.42 222.136C641.256 221.617 638.557 222.332 636.244 224.223C633.975 226.121 632.587 228.608 632.083 231.686C631.578 234.763 632.091 237.607 633.636 240.13ZM638.504 226.997C639.981 225.592 641.756 225.082 643.88 225.431C646.004 225.779 647.523 226.829 648.43 228.625C649.388 230.384 649.689 232.348 649.334 234.515C648.978 236.682 648.066 238.446 646.589 239.851C645.163 241.22 643.388 241.73 641.264 241.381C639.14 241.033 637.621 239.983 636.663 238.223C635.756 236.428 635.455 234.464 635.81 232.297C636.166 230.13 637.078 228.365 638.504 226.997Z" fill="black"/>
<path d="M58.214 153.241L652.9 250.767L652.545 252.935L57.8586 155.408L58.214 153.241Z" fill="black"/>
</g>
</g>
<defs>
<filter id="filter0_d_8_10" x="0" y="0" width="923" height="348.72" filterUnits="userSpaceOnUse" color-interpolation-filters="sRGB">
<feFlood flood-opacity="0" result="BackgroundImageFix"/>
<feColorMatrix in="SourceAlpha" type="matrix" values="0 0 0 0 0 0 0 0 0 0 0 0 0 0 0 0 0 0 127 0" result="hardAlpha"/>
<feOffset dy="2"/>
<feGaussianBlur stdDeviation="1"/>
<feComposite in2="hardAlpha" operator="out"/>
<feColorMatrix type="matrix" values="0 0 0 0 0 0 0 0 0 0 0 0 0 0 0 0 0 0 0.25 0"/>
<feBlend mode="normal" in2="BackgroundImageFix" result="effect1_dropShadow_8_10"/>
<feBlend mode="normal" in="SourceGraphic" in2="effect1_dropShadow_8_10" result="shape"/>
</filter>
<clipPath id="clip0_8_10">
<rect x="34.6961" width="898.143" height="202.032" rx="12" transform="rotate(9.31338 34.6961 0)" fill="white"/>
</clipPath>
</defs>
</svg>
