<svg width="1920" height="1080" viewBox="0 0 1920 1080" fill="none" xmlns="http://www.w3.org/2000/svg">
<rect width="1920" height="1080" fill="#DDDDDD"/>
<g filter="url(#filter0_d_717_276)">
<g clip-path="url(#clip0_717_276)">
<rect x="177.946" y="514.026" width="1549" height="223" rx="18" transform="rotate(-6.29 177.946 514.026)" fill="white"/>
<path d="M288.367 638.449C275.259 639.894 266.063 631.62 264.448 616.977L264.441 616.913C262.831 602.302 270.036 592.22 283.113 590.779C296.157 589.341 305.354 597.615 306.964 612.226L306.971 612.29C308.585 626.933 301.444 637.008 288.367 638.449ZM287.782 633.142C297.278 632.095 302.329 624.193 301.088 612.939L301.081 612.875C299.834 601.557 293.098 595.05 283.698 596.086C274.266 597.126 269.073 604.915 270.324 616.265L270.331 616.329C271.582 627.679 278.319 634.185 287.782 633.142ZM316.258 634.598L311.173 588.463L316.736 587.85L319.774 615.409L319.902 615.395L332.863 599.113L339.609 598.37L326.772 614.314L343.722 631.571L337.264 632.283L323.213 618.137L320.44 621.452L321.821 633.985L316.258 634.598ZM346.35 640.439L347.44 624.495L353.259 623.854L350.314 640.003L346.35 640.439ZM382.766 627.915C376.66 628.588 373.351 626.17 372.65 619.807L370.426 599.633L365.566 600.169L365.059 595.565L369.919 595.029L368.928 586.045L374.683 585.41L375.674 594.395L382.004 593.697L382.512 598.301L376.181 598.999L378.401 619.141C378.792 622.69 380.468 623.508 383.442 623.18C384.113 623.106 384.742 622.94 385.218 622.855L385.715 627.363C385.022 627.537 383.853 627.795 382.766 627.915ZM391.936 626.257L386.85 580.121L392.413 579.508L394.419 597.7L394.547 597.686C395.925 593.748 399.294 591.144 404.25 590.598C411.316 589.819 416.746 594.754 417.634 602.811L419.879 623.177L414.316 623.79L412.177 604.383C411.514 598.372 408.054 595.162 402.874 595.733C397.727 596.3 394.736 600.578 395.36 606.237L397.499 625.644L391.936 626.257ZM436.735 621.966C430.117 622.696 425.232 619.189 424.566 613.146L424.559 613.082C423.935 607.423 427.956 603.388 435.548 602.098L445.016 600.505L444.709 597.723C444.262 593.663 441.337 591.493 436.701 592.004C432.416 592.476 429.956 594.819 429.645 597.862L429.612 598.157L424.241 598.749L424.234 598.394C424.111 592.874 428.389 587.937 436.222 587.073C444.087 586.207 449.479 589.916 450.212 596.566L452.746 619.554L447.183 620.167L446.587 614.764L446.46 614.778C444.911 618.638 441.179 621.476 436.735 621.966ZM430.257 612.519C430.609 615.716 433.453 617.441 437.45 617.001C442.693 616.423 446.323 612.366 445.791 607.538L445.491 604.821L436.663 606.344C432.247 607.09 429.908 609.354 430.25 612.455L430.257 612.519ZM470.689 618.224C464.582 618.897 461.274 616.478 460.573 610.116L458.349 589.942L453.489 590.477L452.982 585.873L457.841 585.338L456.851 576.354L462.606 575.719L463.596 584.703L469.927 584.006L470.434 588.61L464.104 589.307L466.324 609.45C466.715 612.998 468.391 613.817 471.364 613.489C472.036 613.415 472.665 613.249 473.141 613.164L473.638 617.672C472.945 617.845 471.776 618.104 470.689 618.224ZM499.585 614.391L486.616 582.166L492.147 581.556L501.779 607.872L501.907 607.857L506.439 579.981L511.81 579.389L522.337 605.606L522.465 605.591L526.133 577.81L531.633 577.204L526.026 611.477L520.367 612.101L510.016 587.191L509.889 587.205L505.244 613.768L499.585 614.391ZM549.02 609.59C542.402 610.319 537.517 606.812 536.851 600.77L536.844 600.706C536.22 595.047 540.241 591.011 547.833 589.722L557.301 588.128L556.994 585.346C556.547 581.286 553.622 579.117 548.986 579.628C544.702 580.1 542.242 582.442 541.93 585.486L541.898 585.781L536.526 586.373L536.52 586.018C536.397 580.497 540.674 575.56 548.507 574.697C556.372 573.83 561.765 577.54 562.498 584.19L565.032 607.177L559.468 607.791L558.873 602.387L558.745 602.401C557.196 606.261 553.464 609.1 549.02 609.59ZM542.542 600.142C542.895 603.34 545.738 605.065 549.735 604.624C554.978 604.046 558.609 599.99 558.076 595.162L557.777 592.444L548.949 593.967C544.533 594.713 542.193 596.977 542.535 600.078L542.542 600.142ZM583.965 605.738C576.132 606.601 570.96 603.126 569.633 597.253L569.569 596.969L575.132 596.356L575.232 596.669C576.27 599.92 578.946 601.599 583.486 601.098C587.994 600.601 590.472 598.419 590.141 595.414L590.137 595.382C589.873 592.984 588.478 591.778 584.603 591.267L579.187 590.57C572.755 589.758 569.397 587.183 568.868 582.387L568.865 582.355C568.234 576.632 572.806 572.019 580 571.226C587.289 570.422 592.394 574.163 593.423 579.681L593.5 580.093L588.193 580.678L588.136 580.458C587.333 577.278 584.635 575.407 580.511 575.862C576.482 576.306 574.203 578.531 574.527 581.472L574.531 581.504C574.781 583.774 576.457 585.175 580.232 585.665L585.648 586.363C592.542 587.253 595.265 589.639 595.786 594.371L595.79 594.403C596.431 600.222 591.383 604.92 583.965 605.738ZM625.817 601.125C619.198 601.854 614.314 598.348 613.648 592.305L613.641 592.241C613.017 586.582 617.038 582.547 624.63 581.257L634.098 579.663L633.791 576.882C633.343 572.821 630.418 570.652 625.783 571.163C621.498 571.635 619.038 573.977 618.726 577.021L618.694 577.316L613.323 577.908L613.316 577.553C613.193 572.033 617.471 567.095 625.304 566.232C633.169 565.365 638.561 569.075 639.294 575.725L641.828 598.713L636.265 599.326L635.669 593.923L635.541 593.937C633.993 597.796 630.261 600.635 625.817 601.125ZM619.339 591.678C619.691 594.875 622.535 596.6 626.531 596.159C631.775 595.582 635.405 591.525 634.873 586.697L634.573 583.979L625.745 585.503C621.329 586.248 618.99 588.512 619.332 591.614L619.339 591.678ZM674.19 595.793C666.357 596.656 661.185 593.181 659.858 587.308L659.794 587.024L665.357 586.411L665.456 586.724C666.494 589.975 669.171 591.654 673.711 591.153C678.219 590.656 680.697 588.474 680.366 585.469L680.362 585.437C680.098 583.039 678.703 581.833 674.828 581.322L669.412 580.625C662.98 579.813 659.622 577.238 659.093 572.442L659.089 572.41C658.459 566.687 663.031 562.074 670.224 561.281C677.514 560.477 682.619 564.218 683.647 569.736L683.725 570.148L678.418 570.733L678.361 570.513C677.558 567.333 674.86 565.462 670.735 565.917C666.707 566.361 664.428 568.586 664.752 571.527L664.756 571.559C665.006 573.829 666.681 575.23 670.457 575.72L675.873 576.418C682.767 577.308 685.489 579.694 686.011 584.426L686.014 584.458C686.656 590.277 681.608 594.975 674.19 595.793ZM693.111 593.06L688.026 546.925L693.589 546.311L695.594 564.503L695.722 564.489C697.1 560.551 700.47 557.947 705.425 557.401C712.491 556.622 717.922 561.557 718.81 569.614L721.054 589.98L715.491 590.593L713.352 571.186C712.69 565.175 709.229 561.965 704.05 562.536C698.902 563.103 695.911 567.381 696.535 573.04L698.674 592.447L693.111 593.06ZM741.971 588.322C732.731 589.34 725.824 583.338 724.657 572.755L724.65 572.691C723.484 562.109 728.957 554.807 738.133 553.796C747.309 552.784 754.269 558.683 755.439 569.298L755.446 569.362C756.616 579.976 751.147 587.31 741.971 588.322ZM741.46 583.394C747.311 582.75 750.615 577.79 749.755 569.989L749.748 569.925C748.888 562.124 744.558 558.071 738.675 558.719C732.888 559.357 729.485 564.295 730.341 572.064L730.348 572.128C731.212 579.961 735.577 584.043 741.46 583.394ZM762.906 585.367L759.241 552.116L764.804 551.503L765.424 557.13L765.552 557.116C766.248 553.156 768.858 550.409 772.598 549.997C773.557 549.891 774.406 549.959 774.861 549.974L775.457 555.377C774.991 555.266 773.791 555.237 772.448 555.385C768.132 555.861 765.65 559.176 766.206 564.228L768.469 584.754L762.906 585.367ZM795.588 582.412C789.481 583.085 786.172 580.667 785.471 574.304L783.247 554.13L778.388 554.666L777.88 550.062L782.74 549.526L781.75 540.542L787.505 539.907L788.495 548.892L794.825 548.194L795.333 552.798L789.002 553.496L791.223 573.638C791.614 577.187 793.29 578.005 796.263 577.677C796.934 577.603 797.563 577.437 798.039 577.352L798.536 581.86C797.843 582.034 796.675 582.292 795.588 582.412ZM819.131 590.496L814.232 546.055L819.795 545.442L820.416 551.069L820.544 551.054C822.195 546.957 825.64 544.15 830.404 543.625C838.908 542.688 845.282 548.845 846.438 559.332L846.442 559.364C847.598 569.851 842.65 577.224 834.305 578.144C829.606 578.662 825.476 576.723 822.975 573.115L822.847 573.129L824.694 589.882L819.131 590.496ZM832.58 573.351C838.463 572.702 841.586 567.569 840.751 559.991L840.747 559.959C839.905 552.318 835.742 548.02 829.859 548.669C824.232 549.289 820.775 554.621 821.596 562.07L821.599 562.102C822.417 569.52 826.985 573.968 832.58 573.351ZM853.898 575.337L850.233 542.087L855.796 541.473L856.416 547.1L856.544 547.086C857.24 543.126 859.85 540.379 863.59 539.967C864.55 539.861 865.398 539.93 865.853 539.944L866.449 545.347C865.983 545.237 864.783 545.207 863.44 545.355C859.124 545.831 856.642 549.147 857.198 554.198L859.461 574.724L853.898 575.337ZM886.26 572.417C876.7 573.471 870.209 567.423 869.056 556.969L869.053 556.937C867.918 546.642 873.022 538.927 882.102 537.927C891.182 536.926 897.457 543.062 898.556 553.037L898.782 555.084L874.835 557.723C875.717 564.551 879.93 568.132 885.845 567.48C890.065 567.015 892.806 564.577 893.452 561.625L893.516 561.327L898.983 560.724L898.954 561.051C898.473 566.67 893.517 571.618 886.26 572.417ZM882.613 542.854C877.785 543.386 874.375 547.095 874.452 553.364L892.644 551.359C891.388 544.961 887.473 542.318 882.613 542.854ZM917.944 568.925C910.111 569.789 904.939 566.314 903.612 560.441L903.548 560.157L909.111 559.543L909.21 559.856C910.248 563.107 912.925 564.786 917.465 564.286C921.973 563.789 924.451 561.606 924.119 558.601L924.116 558.569C923.852 556.171 922.457 554.966 918.582 554.454L913.166 553.757C906.733 552.945 903.375 550.37 902.847 545.575L902.843 545.543C902.212 539.82 906.784 535.206 913.978 534.413C921.268 533.61 926.372 537.351 927.401 542.868L927.479 543.28L922.172 543.865L922.115 543.645C921.311 540.465 918.614 538.594 914.489 539.049C910.461 539.493 908.182 541.718 908.506 544.66L908.51 544.692C908.76 546.962 910.435 548.363 914.211 548.853L919.627 549.55C926.521 550.44 929.243 552.826 929.765 557.558L929.768 557.59C930.41 563.409 925.362 568.108 917.944 568.925ZM950.332 565.355C940.772 566.409 934.28 560.361 933.128 549.906L933.125 549.874C931.99 539.579 937.094 531.865 946.174 530.864C955.254 529.863 961.529 536 962.628 545.975L962.854 548.021L938.907 550.661C939.789 557.489 944.002 561.069 949.917 560.417C954.137 559.952 956.878 557.514 957.523 554.563L957.588 554.265L963.055 553.662L963.026 553.989C962.545 559.608 957.589 564.555 950.332 565.355ZM946.685 535.792C941.857 536.324 938.447 540.033 938.523 546.302L956.715 544.297C955.46 537.898 951.544 535.256 946.685 535.792ZM970.148 562.524L966.483 529.273L972.046 528.66L972.567 533.392L972.695 533.378C974.144 530.079 977.283 527.435 982.334 526.879C989.624 526.075 994.366 530.342 995.201 537.919L997.58 559.5L992.016 560.113L989.747 539.523C989.151 534.12 986.298 531.425 981.182 531.989C975.939 532.567 972.93 536.685 973.554 542.344L975.711 561.911L970.148 562.524ZM1015.55 558.166C1009.45 558.839 1006.14 556.421 1005.44 550.058L1003.21 529.884L998.354 530.42L997.847 525.816L1002.71 525.28L1001.72 516.296L1007.47 515.662L1008.46 524.646L1014.79 523.948L1015.3 528.552L1008.97 529.25L1011.19 549.392C1011.58 552.941 1013.26 553.759 1016.23 553.432C1016.9 553.358 1017.53 553.191 1018.01 553.106L1018.5 557.615C1017.81 557.788 1016.64 558.046 1015.55 558.166ZM1033.59 556.179C1026.97 556.908 1022.08 553.401 1021.42 547.359L1021.41 547.295C1020.79 541.636 1024.81 537.6 1032.4 536.311L1041.87 534.717L1041.56 531.935C1041.11 527.875 1038.19 525.706 1033.55 526.217C1029.27 526.689 1026.81 529.031 1026.5 532.075L1026.46 532.37L1021.09 532.962L1021.09 532.607C1020.96 527.086 1025.24 522.149 1033.07 521.286C1040.94 520.419 1046.33 524.128 1047.06 530.779L1049.6 553.766L1044.03 554.38L1043.44 548.976L1043.31 548.99C1041.76 552.85 1038.03 555.689 1033.59 556.179ZM1027.11 546.731C1027.46 549.929 1030.3 551.654 1034.3 551.213C1039.54 550.635 1043.17 546.578 1042.64 541.751L1042.34 539.033L1033.51 540.556C1029.1 541.302 1026.76 543.566 1027.1 546.667L1027.11 546.731ZM1067.54 552.436C1061.43 553.109 1058.13 550.691 1057.42 544.328L1055.2 524.154L1050.34 524.69L1049.83 520.086L1054.69 519.55L1053.7 510.566L1059.46 509.932L1060.45 518.916L1066.78 518.218L1067.29 522.822L1060.96 523.52L1063.18 543.662C1063.57 547.211 1065.24 548.029 1068.22 547.702C1068.89 547.628 1069.52 547.461 1069.99 547.376L1070.49 551.884C1069.8 552.058 1068.63 552.316 1067.54 552.436ZM1075.27 511.587C1073.35 511.798 1071.61 510.404 1071.4 508.486C1071.19 506.535 1072.58 504.828 1074.5 504.617C1076.45 504.402 1078.16 505.767 1078.37 507.717C1078.58 509.636 1077.22 511.372 1075.27 511.587ZM1076.77 550.771L1073.11 517.52L1078.67 516.907L1082.34 550.158L1076.77 550.771ZM1103.76 548.443C1094.52 549.462 1087.62 543.46 1086.45 532.877L1086.44 532.813C1085.28 522.23 1090.75 514.928 1099.93 513.917C1109.1 512.906 1116.06 518.805 1117.23 529.419L1117.24 529.483C1118.41 540.098 1112.94 547.432 1103.76 548.443ZM1103.25 543.516C1109.1 542.871 1112.41 537.912 1111.55 530.111L1111.54 530.047C1110.68 522.245 1106.35 518.192 1100.47 518.841C1094.68 519.479 1091.28 524.417 1092.14 532.186L1092.14 532.25C1093.01 540.083 1097.37 544.164 1103.25 543.516ZM1124.7 545.488L1121.03 512.238L1126.6 511.624L1127.12 516.356L1127.25 516.342C1128.7 513.044 1131.83 510.4 1136.89 509.843C1144.18 509.04 1148.92 513.306 1149.75 520.884L1152.13 542.465L1146.57 543.078L1144.3 522.488C1143.7 517.085 1140.85 514.39 1135.73 514.954C1130.49 515.532 1127.48 519.649 1128.11 525.308L1130.26 544.875L1124.7 545.488ZM1162.7 541.753C1160.65 541.978 1158.88 540.556 1158.65 538.51C1158.43 536.464 1159.85 534.689 1161.9 534.463C1163.94 534.238 1165.72 535.66 1165.94 537.706C1166.17 539.753 1164.75 541.527 1162.7 541.753ZM1197.08 537.51L1194.9 517.655L1175.63 493.179L1182.18 492.456L1197.06 511.786L1197.26 511.764L1207.57 489.658L1214.12 488.936L1200.65 517.021L1202.84 536.876L1197.08 537.51ZM1231.4 534.375C1222.16 535.393 1215.25 529.391 1214.08 518.809L1214.08 518.745C1212.91 508.162 1218.38 500.86 1227.56 499.849C1236.73 498.837 1243.7 504.736 1244.87 515.351L1244.87 515.415C1246.04 526.03 1240.57 533.364 1231.4 534.375ZM1230.89 529.448C1236.74 528.803 1240.04 523.844 1239.18 516.042L1239.17 515.978C1238.31 508.177 1233.98 504.124 1228.1 504.773C1222.31 505.41 1218.91 510.348 1219.77 518.118L1219.77 518.181C1220.64 526.015 1225 530.096 1230.89 529.448ZM1263.75 530.809C1256.46 531.612 1251.72 527.345 1250.89 519.768L1248.51 498.187L1254.07 497.574L1256.34 518.164C1256.93 523.567 1259.79 526.262 1264.9 525.698C1270.15 525.12 1273.16 521.002 1272.53 515.343L1270.38 495.777L1275.94 495.163L1279.6 528.414L1274.04 529.027L1273.52 524.296L1273.39 524.31C1271.94 527.608 1268.8 530.252 1263.75 530.809ZM1310.08 525.702C1303.46 526.432 1298.58 522.925 1297.91 516.882L1297.9 516.818C1297.28 511.159 1301.3 507.124 1308.89 505.834L1318.36 504.241L1318.05 501.459C1317.61 497.399 1314.68 495.229 1310.05 495.74C1305.76 496.213 1303.3 498.555 1302.99 501.599L1302.96 501.893L1297.59 502.485L1297.58 502.13C1297.46 496.61 1301.73 491.673 1309.57 490.81C1317.43 489.943 1322.82 493.652 1323.56 500.302L1326.09 523.29L1320.53 523.903L1319.93 518.5L1319.8 518.514C1318.26 522.374 1314.52 525.212 1310.08 525.702ZM1303.6 516.255C1303.95 519.452 1306.8 521.178 1310.79 520.737C1316.04 520.159 1319.67 516.102 1319.14 511.274L1318.84 508.557L1310.01 510.08C1305.59 510.826 1303.25 513.09 1303.59 516.191L1303.6 516.255ZM1333.16 522.511L1329.49 489.261L1335.05 488.647L1335.68 494.274L1335.8 494.26C1336.5 490.3 1339.11 487.553 1342.85 487.141C1343.81 487.035 1344.66 487.104 1345.11 487.118L1345.71 492.521C1345.24 492.411 1344.04 492.381 1342.7 492.529C1338.38 493.005 1335.9 496.321 1336.46 501.372L1338.72 521.898L1333.16 522.511ZM1365.52 519.591C1355.96 520.645 1349.47 514.597 1348.32 504.143L1348.31 504.111C1347.18 493.816 1352.28 486.101 1361.36 485.101C1370.44 484.1 1376.72 490.236 1377.82 500.211L1378.04 502.258L1354.09 504.897C1354.98 511.725 1359.19 515.306 1365.1 514.654C1369.32 514.189 1372.07 511.751 1372.71 508.799L1372.77 508.501L1378.24 507.898L1378.21 508.225C1377.73 513.844 1372.78 518.791 1365.52 519.591ZM1361.87 490.028C1357.04 490.56 1353.63 494.269 1353.71 500.538L1371.9 498.533C1370.65 492.135 1366.73 489.492 1361.87 490.028ZM1405.35 514.554L1392.38 482.329L1397.91 481.719L1407.54 508.034L1407.67 508.02L1412.2 480.144L1417.57 479.552L1428.1 505.768L1428.23 505.754L1431.9 477.973L1437.4 477.367L1431.79 511.64L1426.13 512.263L1415.78 487.354L1415.65 487.368L1411.01 513.93L1405.35 514.554ZM1459.39 509.245C1449.83 510.298 1443.34 504.251 1442.18 493.796L1442.18 493.764C1441.05 483.469 1446.15 475.755 1455.23 474.754C1464.31 473.753 1470.59 479.889 1471.68 489.865L1471.91 491.911L1447.96 494.55C1448.85 501.378 1453.06 504.959 1458.97 504.307C1463.19 503.842 1465.93 501.404 1466.58 498.453L1466.64 498.154L1472.11 497.552L1472.08 497.879C1471.6 503.498 1466.65 508.445 1459.39 509.245ZM1455.74 479.681C1450.91 480.213 1447.5 483.922 1447.58 490.192L1465.77 488.186C1464.52 481.788 1460.6 479.145 1455.74 479.681ZM1479.49 506.382L1474.41 460.246L1479.97 459.633L1485.06 505.768L1479.49 506.382ZM1506.42 504.061C1496.99 505.1 1490.27 499.045 1489.1 488.463L1489.1 488.431C1487.94 477.944 1493.31 470.557 1502.55 469.538C1510.83 468.625 1516.33 473.585 1517.66 479.199L1517.72 479.451L1512.28 480.05L1512.19 479.802C1510.99 476.568 1507.98 473.923 1503.09 474.462C1497.3 475.1 1493.96 480.322 1494.8 487.867L1494.8 487.899C1495.65 495.636 1500.12 499.771 1505.88 499.137C1510.42 498.637 1513.04 495.758 1513.56 491.947L1513.6 491.685L1519.07 491.082L1519.06 491.309C1518.86 497.738 1513.93 503.233 1506.42 504.061ZM1539.22 500.445C1529.98 501.464 1523.08 495.462 1521.91 484.879L1521.9 484.815C1520.74 474.232 1526.21 466.93 1535.38 465.919C1544.56 464.908 1551.52 470.807 1552.69 481.421L1552.7 481.485C1553.87 492.1 1548.4 499.434 1539.22 500.445ZM1538.71 495.518C1544.56 494.873 1547.87 489.914 1547.01 482.112L1547 482.049C1546.14 474.247 1541.81 470.194 1535.93 470.843C1530.14 471.481 1526.74 476.418 1527.59 484.188L1527.6 484.252C1528.46 492.085 1532.83 496.166 1538.71 495.518ZM1560.16 497.49L1556.49 464.24L1562.06 463.626L1562.59 468.486L1562.72 468.472C1563.86 465.013 1566.94 462.441 1571.22 461.968C1575.76 461.468 1579.38 463.432 1581.27 467.334L1581.39 467.32C1582.81 463.119 1586.44 460.291 1591.11 459.776C1597.7 459.051 1602.43 462.898 1603.15 469.516L1605.69 492.472L1600.12 493.085L1597.73 471.408C1597.23 466.836 1594.4 464.397 1590.02 464.88C1585.61 465.366 1582.87 469.001 1583.37 473.541L1585.7 494.675L1580.14 495.288L1577.68 473.003C1577.24 468.975 1574.26 466.617 1570.14 467.072C1565.72 467.558 1562.91 471.396 1563.42 476.031L1565.72 496.877L1560.16 497.49ZM1626.54 490.821C1616.98 491.875 1610.49 485.827 1609.33 475.372L1609.33 475.34C1608.2 465.045 1613.3 457.331 1622.38 456.33C1631.46 455.329 1637.73 461.466 1638.83 471.441L1639.06 473.487L1615.11 476.126C1615.99 482.954 1620.21 486.535 1626.12 485.883C1630.34 485.418 1633.08 482.98 1633.73 480.029L1633.79 479.73L1639.26 479.128L1639.23 479.455C1638.75 485.074 1633.8 490.021 1626.54 490.821ZM1622.89 461.257C1618.06 461.789 1614.65 465.498 1614.73 471.768L1632.92 469.763C1631.67 463.364 1627.75 460.721 1622.89 461.257ZM1647.29 472.386L1643.51 441.607L1649.26 440.973L1652.27 471.836L1647.29 472.386ZM1651.5 487.745C1649.46 487.971 1647.68 486.548 1647.46 484.502C1647.23 482.424 1648.65 480.681 1650.7 480.456C1652.78 480.227 1654.52 481.621 1654.75 483.699C1654.97 485.745 1653.58 487.516 1651.5 487.745Z" fill="black"/>
</g>
</g>
<defs>
<filter id="filter0_d_717_276" x="174.946" y="344.316" width="1570.11" height="397.367" filterUnits="userSpaceOnUse" color-interpolation-filters="sRGB">
<feFlood flood-opacity="0" result="BackgroundImageFix"/>
<feColorMatrix in="SourceAlpha" type="matrix" values="0 0 0 0 0 0 0 0 0 0 0 0 0 0 0 0 0 0 127 0" result="hardAlpha"/>
<feOffset dy="3"/>
<feGaussianBlur stdDeviation="1.5"/>
<feComposite in2="hardAlpha" operator="out"/>
<feColorMatrix type="matrix" values="0 0 0 0 0 0 0 0 0 0 0 0 0 0 0 0 0 0 0.25 0"/>
<feBlend mode="normal" in2="BackgroundImageFix" result="effect1_dropShadow_717_276"/>
<feBlend mode="normal" in="SourceGraphic" in2="effect1_dropShadow_717_276" result="shape"/>
</filter>
<clipPath id="clip0_717_276">
<rect x="177.946" y="514.026" width="1549" height="223" rx="18" transform="rotate(-6.29 177.946 514.026)" fill="white"/>
</clipPath>
</defs>
</svg>
