<svg width="1920" height="1080" viewBox="0 0 1920 1080" fill="none" xmlns="http://www.w3.org/2000/svg">
<rect width="1920" height="1080" fill="#DDDDDD"/>
<g filter="url(#filter0_d_717_249)">
<g clip-path="url(#clip0_717_249)">
<rect x="424.814" y="407.338" width="1034.86" height="381" rx="18" transform="rotate(-6.29014 424.814 407.338)" fill="white"/>
<path d="M528.341 531.744L526.152 511.89L506.886 487.413L513.44 486.691L528.321 506.02L528.512 505.999L538.826 483.893L545.38 483.17L531.907 511.255L534.096 531.11L528.341 531.744ZM562.653 528.609C553.413 529.628 546.506 523.626 545.34 513.043L545.333 512.979C544.166 502.397 549.639 495.095 558.815 494.083C567.991 493.072 574.951 498.971 576.121 509.586L576.129 509.649C577.299 520.264 571.829 527.598 562.653 528.609ZM562.142 523.682C567.993 523.037 571.297 518.078 570.438 510.277L570.43 510.213C569.571 502.412 565.241 498.358 559.358 499.007C553.571 499.645 550.167 504.583 551.024 512.352L551.031 512.416C551.894 520.249 556.259 524.331 562.142 523.682ZM595.009 525.043C587.719 525.846 582.977 521.58 582.142 514.002L579.763 492.421L585.326 491.808L587.596 512.398C588.191 517.801 591.045 520.496 596.16 519.932C601.404 519.355 604.412 515.237 603.789 509.578L601.632 490.011L607.195 489.398L610.86 522.648L605.297 523.262L604.775 518.53L604.648 518.544C603.199 521.843 600.06 524.486 595.009 525.043ZM645.396 519.489C635.965 520.528 629.246 514.473 628.079 503.891L628.076 503.859C626.92 493.372 632.286 485.985 641.526 484.966C649.807 484.054 655.305 489.013 656.636 494.627L656.696 494.879L651.261 495.478L651.168 495.23C649.971 491.996 646.961 489.351 642.069 489.89C636.282 490.528 632.942 495.75 633.774 503.295L633.777 503.327C634.63 511.065 639.099 515.2 644.854 514.565C649.394 514.065 652.021 511.186 652.54 507.375L652.575 507.113L658.042 506.51L658.035 506.737C657.838 513.166 652.91 518.661 645.396 519.489ZM674.139 516.321C667.521 517.05 662.636 513.544 661.97 507.501L661.963 507.437C661.339 501.778 665.36 497.743 672.952 496.453L682.42 494.859L682.113 492.077C681.666 488.017 678.741 485.848 674.105 486.359C669.821 486.831 667.361 489.173 667.049 492.217L667.017 492.512L661.645 493.104L661.639 492.749C661.516 487.229 665.793 482.291 673.626 481.428C681.491 480.561 686.884 484.271 687.617 490.921L690.15 513.909L684.587 514.522L683.992 509.119L683.864 509.133C682.315 512.992 678.583 515.831 674.139 516.321ZM667.661 506.874C668.014 510.071 670.857 511.796 674.854 511.355C680.097 510.777 683.727 506.721 683.195 501.893L682.896 499.175L674.068 500.698C669.652 501.444 667.312 503.708 667.654 506.81L667.661 506.874ZM697.216 513.13L693.551 479.879L699.114 479.266L699.636 483.998L699.764 483.983C701.212 480.685 704.351 478.041 709.403 477.484C716.692 476.681 721.434 480.948 722.269 488.525L724.648 510.106L719.085 510.719L716.816 490.129C716.22 484.726 713.366 482.031 708.251 482.595C703.007 483.173 699.999 487.291 700.623 492.95L702.779 512.517L697.216 513.13ZM751.76 507.117L738.791 474.892L744.323 474.283L753.954 500.598L754.082 500.584L758.614 472.707L763.985 472.115L774.512 498.332L774.64 498.318L778.309 470.536L783.808 469.93L778.201 504.203L772.542 504.827L762.192 479.918L762.064 479.932L757.419 506.494L751.76 507.117ZM792.045 502.677L788.38 469.426L793.943 468.813L794.563 474.44L794.691 474.426C795.387 470.466 797.997 467.719 801.738 467.307C802.697 467.201 803.546 467.269 804 467.284L804.596 472.687C804.131 472.577 802.93 472.547 801.587 472.695C797.271 473.171 794.789 476.486 795.346 481.538L797.608 502.064L792.045 502.677ZM811.099 461.227C809.181 461.438 807.441 460.044 807.23 458.126C807.015 456.175 808.412 454.468 810.331 454.257C812.281 454.042 813.985 455.407 814.2 457.357C814.411 459.276 813.049 461.012 811.099 461.227ZM812.603 500.411L808.938 467.16L814.501 466.547L818.166 499.798L812.603 500.411ZM836.62 498.411C830.514 499.084 827.205 496.666 826.504 490.303L824.28 470.129L819.42 470.665L818.913 466.061L823.773 465.525L822.782 456.541L828.537 455.907L829.528 464.891L835.858 464.193L836.366 468.797L830.035 469.495L832.255 489.637C832.647 493.186 834.322 494.004 837.296 493.676C837.967 493.602 838.596 493.436 839.072 493.351L839.569 497.859C838.876 498.033 837.707 498.291 836.62 498.411ZM858.297 496.021C848.738 497.075 842.246 491.027 841.094 480.573L841.09 480.541C839.955 470.246 845.059 462.531 854.139 461.531C863.219 460.53 869.494 466.666 870.594 476.641L870.819 478.688L846.872 481.327C847.754 488.155 851.968 491.736 857.882 491.084C862.103 490.619 864.844 488.181 865.489 485.229L865.553 484.931L871.02 484.328L870.992 484.655C870.511 490.274 865.555 495.221 858.297 496.021ZM854.65 466.458C849.822 466.99 846.413 470.699 846.489 476.968L864.681 474.963C863.426 468.565 859.51 465.922 854.65 466.458ZM903.41 491.049C895.577 491.912 890.404 488.437 889.077 482.565L889.014 482.28L894.577 481.667L894.676 481.98C895.714 485.231 898.391 486.91 902.931 486.409C907.439 485.913 909.916 483.73 909.585 480.725L909.582 480.693C909.317 478.295 907.922 477.09 904.047 476.578L898.631 475.881C892.199 475.069 888.841 472.494 888.312 467.698L888.309 467.666C887.678 461.943 892.25 457.33 899.444 456.537C906.733 455.733 911.838 459.475 912.867 464.992L912.945 465.404L907.637 465.989L907.581 465.769C906.777 462.589 904.079 460.718 899.955 461.173C895.926 461.617 893.647 463.842 893.972 466.783L893.975 466.815C894.225 469.085 895.901 470.486 899.676 470.976L905.092 471.674C911.986 472.564 914.709 474.95 915.23 479.682L915.234 479.714C915.875 485.533 910.827 490.231 903.41 491.049ZM935.797 487.479C926.238 488.533 919.746 482.485 918.594 472.03L918.59 471.998C917.455 461.703 922.559 453.989 931.639 452.988C940.719 451.987 946.994 458.124 948.094 468.099L948.319 470.145L924.372 472.785C925.254 479.612 929.468 483.193 935.382 482.541C939.603 482.076 942.343 479.638 942.989 476.687L943.053 476.388L948.52 475.786L948.492 476.113C948.011 481.732 943.055 486.679 935.797 487.479ZM932.15 457.915C927.322 458.447 923.913 462.156 923.989 468.426L942.181 466.421C940.926 460.022 937.01 457.38 932.15 457.915ZM963.702 483.756L947.792 451.855L953.643 451.21L965.832 477.534L965.96 477.52L972.154 449.169L977.941 448.531L969.393 483.129L963.702 483.756ZM998.462 480.572C988.902 481.625 982.411 475.577 981.259 465.123L981.255 465.091C980.12 454.796 985.224 447.082 994.304 446.081C1003.38 445.08 1009.66 451.216 1010.76 461.191L1010.98 463.238L987.037 465.877C987.919 472.705 992.132 476.286 998.047 475.634C1002.27 475.169 1005.01 472.731 1005.65 469.779L1005.72 469.481L1011.19 468.879L1011.16 469.205C1010.68 474.824 1005.72 479.772 998.462 480.572ZM994.815 451.008C989.987 451.54 986.578 455.249 986.654 461.518L1004.85 459.513C1003.59 453.115 999.675 450.472 994.815 451.008ZM1018.28 477.74L1014.61 444.489L1020.18 443.876L1020.8 449.503L1020.92 449.489C1021.62 445.529 1024.23 442.782 1027.97 442.37C1028.93 442.264 1029.78 442.332 1030.23 442.347L1030.83 447.75C1030.36 447.64 1029.16 447.61 1027.82 447.758C1023.5 448.234 1021.02 451.549 1021.58 456.601L1023.84 477.127L1018.28 477.74ZM1047.63 475.151C1041.02 475.881 1036.13 472.374 1035.47 466.332L1035.46 466.268C1034.84 460.609 1038.86 456.573 1046.45 455.283L1055.92 453.69L1055.61 450.908C1055.16 446.848 1052.24 444.678 1047.6 445.189C1043.32 445.662 1040.86 448.004 1040.54 451.048L1040.51 451.343L1035.14 451.935L1035.13 451.579C1035.01 446.059 1039.29 441.122 1047.12 440.259C1054.99 439.392 1060.38 443.101 1061.11 449.751L1063.65 472.739L1058.08 473.352L1057.49 467.949L1057.36 467.963C1055.81 471.823 1052.08 474.662 1047.63 475.151ZM1041.16 465.704C1041.51 468.901 1044.35 470.627 1048.35 470.186C1053.59 469.608 1057.22 465.551 1056.69 460.724L1056.39 458.006L1047.56 459.529C1043.15 460.275 1040.81 462.539 1041.15 465.64L1041.16 465.704ZM1071 471.929L1065.91 425.793L1071.48 425.18L1076.56 471.316L1071 471.929ZM1111.35 468.128C1101.92 469.167 1095.2 463.112 1094.04 452.53L1094.03 452.498C1092.88 442.011 1098.24 434.624 1107.48 433.605C1115.77 432.692 1121.26 437.652 1122.59 443.266L1122.65 443.518L1117.22 444.117L1117.13 443.868C1115.93 440.635 1112.92 437.99 1108.03 438.529C1102.24 439.167 1098.9 444.389 1099.73 451.934L1099.74 451.966C1100.59 459.703 1105.06 463.838 1110.81 463.204C1115.35 462.704 1117.98 459.825 1118.5 456.014L1118.53 455.751L1124 455.149L1123.99 455.376C1123.8 461.805 1118.87 467.3 1111.35 468.128ZM1144.16 464.512C1134.92 465.53 1128.01 459.528 1126.84 448.946L1126.84 448.882C1125.67 438.299 1131.14 430.997 1140.32 429.986C1149.5 428.974 1156.46 434.873 1157.63 445.488L1157.63 445.552C1158.8 456.167 1153.33 463.5 1144.16 464.512ZM1143.65 459.585C1149.5 458.94 1152.8 453.98 1151.94 446.179L1151.94 446.115C1151.08 438.314 1146.75 434.261 1140.86 434.909C1135.08 435.547 1131.67 440.485 1132.53 448.254L1132.54 448.318C1133.4 456.152 1137.76 460.233 1143.65 459.585ZM1165.09 461.557L1161.43 428.306L1166.99 427.693L1167.53 432.553L1167.65 432.539C1168.79 429.08 1171.88 426.507 1176.16 426.035C1180.7 425.535 1184.31 427.499 1186.2 431.401L1186.33 431.386C1187.74 427.186 1191.38 424.358 1196.05 423.843C1202.63 423.117 1207.36 426.965 1208.09 433.583L1210.62 456.539L1205.06 457.152L1202.67 435.475C1202.16 430.903 1199.34 428.464 1194.96 428.947C1190.55 429.433 1187.81 433.068 1188.31 437.608L1190.64 458.741L1185.08 459.355L1182.62 437.07C1182.18 433.042 1179.2 430.684 1175.07 431.139C1170.66 431.625 1167.85 435.462 1168.36 440.098L1170.66 460.944L1165.09 461.557ZM1217.72 455.756L1214.05 422.506L1219.62 421.892L1220.15 426.752L1220.28 426.738C1221.42 423.279 1224.5 420.707 1228.79 420.234C1233.33 419.734 1236.94 421.698 1238.83 425.6L1238.95 425.586C1240.37 421.385 1244 418.557 1248.67 418.042C1255.26 417.316 1259.99 421.164 1260.72 427.782L1263.25 450.738L1257.68 451.351L1255.29 429.674C1254.79 425.102 1251.97 422.663 1247.58 423.146C1243.17 423.632 1240.43 427.267 1240.93 431.807L1243.26 452.941L1237.7 453.554L1235.24 431.269C1234.8 427.241 1231.82 424.883 1227.7 425.338C1223.29 425.824 1220.47 429.662 1220.98 434.297L1223.28 455.143L1217.72 455.756ZM1284.1 449.087C1274.54 450.14 1268.05 444.093 1266.9 433.638L1266.89 433.606C1265.76 423.311 1270.86 415.597 1279.94 414.596C1289.02 413.595 1295.3 419.731 1296.4 429.707L1296.62 431.753L1272.67 434.392C1273.56 441.22 1277.77 444.801 1283.68 444.149C1287.9 443.684 1290.65 441.246 1291.29 438.295L1291.36 437.996L1296.82 437.394L1296.79 437.72C1296.31 443.339 1291.36 448.287 1284.1 449.087ZM1280.45 419.523C1275.62 420.055 1272.21 423.764 1272.29 430.034L1290.48 428.028C1289.23 421.63 1285.31 418.987 1280.45 419.523ZM1303.92 446.255L1300.25 413.004L1305.81 412.391L1306.33 417.123L1306.46 417.109C1307.91 413.81 1311.05 411.167 1316.1 410.61C1323.39 409.806 1328.13 414.073 1328.97 421.65L1331.35 443.231L1325.78 443.845L1323.51 423.255C1322.92 417.852 1320.07 415.157 1314.95 415.72C1309.71 416.298 1306.7 420.416 1307.32 426.075L1309.48 445.642L1303.92 446.255ZM1349.32 441.897C1343.22 442.57 1339.91 440.152 1339.21 433.79L1336.98 413.615L1332.12 414.151L1331.61 409.547L1336.47 409.012L1335.48 400.027L1341.24 399.393L1342.23 408.377L1348.56 407.679L1349.07 412.283L1342.74 412.981L1344.96 433.123C1345.35 436.672 1347.02 437.491 1350 437.163C1350.67 437.089 1351.3 436.923 1351.77 436.838L1352.27 441.346C1351.58 441.519 1350.41 441.778 1349.32 441.897ZM1370.07 439.61C1362.24 440.474 1357.07 436.999 1355.74 431.126L1355.68 430.842L1361.24 430.228L1361.34 430.541C1362.38 433.792 1365.05 435.471 1369.59 434.971C1374.1 434.474 1376.58 432.291 1376.25 429.286L1376.24 429.254C1375.98 426.856 1374.58 425.651 1370.71 425.14L1365.29 424.442C1358.86 423.63 1355.5 421.056 1354.97 416.26L1354.97 416.228C1354.34 410.505 1358.91 405.891 1366.11 405.098C1373.4 404.295 1378.5 408.036 1379.53 413.553L1379.61 413.965L1374.3 414.55L1374.24 414.33C1373.44 411.15 1370.74 409.279 1366.62 409.734C1362.59 410.178 1360.31 412.403 1360.63 415.345L1360.64 415.377C1360.89 417.647 1362.56 419.048 1366.34 419.538L1371.75 420.235C1378.65 421.125 1381.37 423.511 1381.89 428.243L1381.9 428.275C1382.54 434.094 1377.49 438.793 1370.07 439.61ZM537.29 610.884C528.051 611.902 521.143 605.9 519.977 595.317L519.97 595.253C518.803 584.671 524.276 577.369 533.452 576.357C542.628 575.346 549.589 581.245 550.759 591.86L550.766 591.924C551.936 602.538 546.466 609.872 537.29 610.884ZM536.78 605.956C542.631 605.311 545.935 600.352 545.075 592.551L545.068 592.487C544.208 584.686 539.878 580.633 533.995 581.281C528.208 581.919 524.805 586.857 525.661 594.626L525.668 594.69C526.531 602.523 530.897 606.605 536.78 605.956ZM558.226 607.929L554.56 574.678L560.124 574.065L560.744 579.692L560.872 579.678C561.568 575.718 564.177 572.971 567.918 572.558C568.877 572.453 569.726 572.521 570.181 572.535L570.776 577.939C570.311 577.828 569.111 577.799 567.768 577.947C563.452 578.422 560.969 581.738 561.526 586.79L563.789 607.315L558.226 607.929ZM591.86 604.221L588.195 570.971L593.758 570.357L594.378 575.984L594.506 575.97C595.202 572.01 597.812 569.263 601.553 568.851C602.512 568.745 603.361 568.813 603.815 568.828L604.411 574.231C603.946 574.121 602.745 574.091 601.402 574.239C597.086 574.715 594.604 578.031 595.161 583.082L597.423 603.608L591.86 604.221ZM624.222 601.301C614.662 602.355 608.171 596.307 607.019 585.852L607.015 585.82C605.88 575.526 610.984 567.811 620.064 566.81C629.144 565.81 635.419 571.946 636.519 581.921L636.744 583.967L612.797 586.607C613.679 593.435 617.892 597.016 623.807 596.364C628.028 595.898 630.768 593.46 631.414 590.509L631.478 590.211L636.945 589.608L636.917 589.935C636.436 595.554 631.48 600.501 624.222 601.301ZM620.575 571.738C615.747 572.27 612.338 575.979 612.414 582.248L630.606 580.243C629.35 573.845 625.435 571.202 620.575 571.738ZM645.272 609.66L640.373 565.219L645.936 564.606L646.556 570.233L646.684 570.219C648.336 566.121 651.78 563.314 656.544 562.789C665.049 561.852 671.423 568.01 672.579 578.497L672.582 578.528C673.738 589.015 668.791 596.389 660.446 597.308C655.746 597.826 651.617 595.887 649.116 592.279L648.988 592.294L650.835 609.047L645.272 609.66ZM658.721 592.515C664.603 591.867 667.727 586.733 666.891 579.156L666.888 579.124C666.046 571.483 661.883 567.184 656 567.833C650.373 568.453 646.916 573.785 647.737 581.235L647.74 581.267C648.558 588.684 653.125 593.132 658.721 592.515ZM680.326 594.47L675.241 548.334L680.804 547.721L685.889 593.857L680.326 594.47ZM697.833 603.866C696.746 603.986 695.549 603.989 694.832 603.938L694.331 599.398C694.822 599.441 695.472 599.467 696.143 599.393C699.66 599.005 701.511 597.895 702.438 593.974L702.902 592.014L686.892 560.091L692.839 559.436L705.067 586.112L705.195 586.098L711.351 557.395L717.201 556.751L708.115 593.51C706.45 600.133 703.844 603.204 697.833 603.866ZM749.552 587.487C743.445 588.16 740.137 585.741 739.436 579.379L737.212 559.205L732.352 559.74L731.845 555.136L736.704 554.601L735.714 545.617L741.469 544.982L742.459 553.966L748.79 553.269L749.297 557.873L742.967 558.57L745.187 578.713C745.578 582.262 747.254 583.08 750.227 582.752C750.899 582.678 751.528 582.512 752.004 582.427L752.501 586.935C751.808 587.108 750.639 587.367 749.552 587.487ZM771.325 585.087C762.085 586.105 755.178 580.103 754.011 569.52L754.004 569.457C752.838 558.874 758.311 551.572 767.487 550.561C776.663 549.549 783.623 555.448 784.793 566.063L784.8 566.127C785.97 576.741 780.501 584.075 771.325 585.087ZM770.814 580.159C776.665 579.515 779.969 574.555 779.109 566.754L779.102 566.69C778.242 558.889 773.912 554.836 768.029 555.484C762.243 556.122 758.839 561.06 759.695 568.829L759.702 568.893C760.566 576.726 764.931 580.808 770.814 580.159ZM815.478 580.22C808.86 580.949 803.975 577.443 803.309 571.4L803.302 571.336C802.678 565.677 806.699 561.642 814.291 560.352L823.759 558.758L823.452 555.977C823.005 551.916 820.08 549.747 815.444 550.258C811.16 550.73 808.699 553.072 808.388 556.116L808.356 556.411L802.984 557.003L802.977 556.648C802.854 551.128 807.132 546.191 814.965 545.327C822.83 544.46 828.222 548.17 828.956 554.82L831.489 577.808L825.926 578.421L825.331 573.018L825.203 573.032C823.654 576.891 819.922 579.73 815.478 580.22ZM809 570.773C809.353 573.97 812.196 575.695 816.193 575.255C821.436 574.677 825.066 570.62 824.534 565.792L824.235 563.074L815.406 564.598C810.99 565.343 808.651 567.607 808.993 570.709L809 570.773ZM862.86 574.997C856.754 575.67 853.445 573.252 852.744 566.889L850.52 546.715L845.661 547.251L845.153 542.647L850.013 542.111L849.022 533.127L854.777 532.493L855.768 541.477L862.098 540.779L862.606 545.383L856.275 546.081L858.495 566.223C858.887 569.772 860.562 570.59 863.536 570.263C864.207 570.189 864.836 570.022 865.312 569.937L865.809 574.445C865.116 574.619 863.947 574.877 862.86 574.997ZM872.03 573.339L866.944 527.204L872.507 526.59L874.513 544.782L874.641 544.768C876.019 540.83 879.388 538.226 884.344 537.68C891.41 536.901 896.84 541.836 897.728 549.893L899.973 570.259L894.41 570.872L892.271 551.465C891.608 545.454 888.148 542.244 882.968 542.815C877.821 543.382 874.83 547.66 875.454 553.319L877.593 572.726L872.03 573.339ZM907.039 569.48L903.374 536.229L908.937 535.616L909.557 541.243L909.685 541.229C910.381 537.269 912.991 534.522 916.732 534.11C917.691 534.004 918.54 534.072 918.994 534.087L919.59 539.49C919.125 539.38 917.924 539.35 916.581 539.498C912.265 539.974 909.783 543.289 910.34 548.341L912.602 568.867L907.039 569.48ZM939.401 566.56C929.842 567.614 923.35 561.566 922.198 551.111L922.194 551.079C921.059 540.784 926.163 533.07 935.243 532.069C944.323 531.068 950.598 537.205 951.698 547.18L951.923 549.226L927.976 551.866C928.858 558.694 933.071 562.274 938.986 561.622C943.207 561.157 945.947 558.719 946.593 555.768L946.657 555.47L952.124 554.867L952.096 555.194C951.615 560.813 946.659 565.76 939.401 566.56ZM935.754 536.996C930.926 537.529 927.517 541.238 927.593 547.507L945.785 545.502C944.529 539.103 940.614 536.461 935.754 536.996ZM969.007 563.297C962.389 564.026 957.504 560.52 956.838 554.477L956.831 554.413C956.207 548.754 960.228 544.719 967.82 543.429L977.288 541.835L976.981 539.054C976.534 534.993 973.609 532.824 968.973 533.335C964.689 533.807 962.229 536.149 961.917 539.193L961.885 539.488L956.513 540.08L956.507 539.725C956.383 534.205 960.661 529.268 968.494 528.404C976.359 527.537 981.752 531.247 982.485 537.897L985.018 560.885L979.455 561.498L978.86 556.095L978.732 556.109C977.183 559.968 973.451 562.807 969.007 563.297ZM962.529 553.85C962.882 557.047 965.725 558.772 969.722 558.332C974.965 557.754 978.595 553.697 978.063 548.869L977.764 546.151L968.935 547.675C964.52 548.42 962.18 550.684 962.522 553.786L962.529 553.85ZM1004.66 559.367C996.151 560.305 989.777 554.147 988.621 543.66L988.618 543.628C987.462 533.141 992.409 525.768 1000.75 524.848C1005.45 524.33 1009.58 526.27 1012.08 529.877L1012.21 529.863L1010.18 511.415L1015.74 510.802L1020.83 556.938L1015.26 557.551L1014.64 551.924L1014.52 551.938C1012.86 556.035 1009.42 558.842 1004.66 559.367ZM1005.2 554.324C1010.83 553.704 1014.28 548.371 1013.46 540.922L1013.46 540.89C1012.64 533.472 1008.07 529.025 1002.48 529.641C996.597 530.29 993.473 535.424 994.309 543.001L994.312 543.033C995.154 550.674 999.317 554.972 1005.2 554.324ZM1051.56 554.197C1044.94 554.927 1040.06 551.42 1039.39 545.378L1039.38 545.314C1038.76 539.655 1042.78 535.619 1050.37 534.329L1059.84 532.736L1059.53 529.954C1059.09 525.894 1056.16 523.724 1051.52 524.235C1047.24 524.708 1044.78 527.05 1044.47 530.094L1044.44 530.389L1039.06 530.981L1039.06 530.625C1038.93 525.105 1043.21 520.168 1051.05 519.305C1058.91 518.438 1064.3 522.147 1065.04 528.797L1067.57 551.785L1062.01 552.398L1061.41 546.995L1061.28 547.009C1059.73 550.869 1056 553.707 1051.56 554.197ZM1045.08 544.75C1045.43 547.947 1048.28 549.673 1052.27 549.232C1057.52 548.654 1061.15 544.597 1060.61 539.77L1060.32 537.052L1051.49 538.575C1047.07 539.321 1044.73 541.585 1045.07 544.686L1045.08 544.75ZM1074.64 551.006L1070.97 517.756L1076.53 517.142L1077.06 521.874L1077.18 521.86C1078.63 518.562 1081.77 515.918 1086.82 515.361C1094.11 514.558 1098.85 518.824 1099.69 526.402L1102.07 547.983L1096.5 548.596L1094.23 528.006C1093.64 522.603 1090.79 519.908 1085.67 520.472C1080.43 521.05 1077.42 525.167 1078.04 530.826L1080.2 550.393L1074.64 551.006ZM1121.74 546.462C1113.23 547.399 1106.86 541.241 1105.7 530.755L1105.7 530.723C1104.54 520.236 1109.49 512.863 1117.83 511.943C1122.53 511.425 1126.66 513.364 1129.17 516.972L1129.29 516.958L1127.26 498.51L1132.82 497.897L1137.91 544.032L1132.35 544.645L1131.72 539.018L1131.6 539.032C1129.95 543.13 1126.5 545.937 1121.74 546.462ZM1122.28 541.418C1127.91 540.798 1131.37 535.466 1130.54 528.016L1130.54 527.984C1129.72 520.567 1125.16 516.119 1119.56 516.736C1113.68 517.384 1110.55 522.518 1111.39 530.095L1111.39 530.127C1112.24 537.769 1116.4 542.067 1122.28 541.418ZM1179.69 540.236C1166.2 541.723 1156.73 533.641 1155.09 518.774L1155.09 518.742C1153.45 503.875 1160.97 493.986 1174.43 492.502C1185.62 491.268 1194.42 497.45 1196.39 507.134L1196.46 507.419L1187.06 508.455L1186.87 507.925C1185.22 502.962 1181.08 500.052 1175.33 500.687C1167.94 501.501 1163.87 507.969 1164.93 517.625L1164.93 517.657C1166.01 527.376 1171.4 532.865 1178.79 532.051C1184.35 531.438 1187.9 527.811 1188.54 522.206L1188.57 521.879L1197.97 520.843L1197.98 521.198C1198.16 531.112 1190.85 539.006 1179.69 540.236ZM1220.76 535.611C1210.34 536.76 1203.05 530.801 1201.82 519.642L1201.81 519.578C1200.59 508.548 1206.56 501.062 1216.8 499.934C1227.06 498.803 1234.54 504.742 1235.76 515.836L1235.77 515.9C1237 527.09 1231.12 534.47 1220.76 535.611ZM1219.99 528.286C1224.53 527.786 1227.01 523.629 1226.28 516.946L1226.27 516.882C1225.54 510.264 1222.14 506.755 1217.6 507.256C1213.09 507.753 1210.58 511.914 1211.31 518.532L1211.31 518.596C1212.05 525.31 1215.38 528.794 1219.99 528.286ZM1242.49 532.505L1238.71 498.231L1248.05 497.202L1248.71 503.18L1248.9 503.159C1249.45 498.826 1251.97 496.058 1255.96 495.617C1256.98 495.504 1257.96 495.559 1258.69 495.673L1259.59 503.89C1258.79 503.654 1257.49 503.604 1256.15 503.752C1251.54 504.259 1249.16 507.305 1249.71 512.292L1251.82 531.475L1242.49 532.505ZM1280.93 528.979C1270.48 530.131 1263.27 524.033 1262.05 512.971L1262.05 512.939C1260.84 501.973 1266.64 494.44 1276.9 493.309C1286.21 492.283 1292.75 497.354 1293.92 504.733L1293.95 504.957L1285.28 505.912L1285.19 505.631C1284.25 502.434 1281.71 500.19 1277.84 500.616C1273.27 501.12 1270.82 505.37 1271.54 511.924L1271.55 511.956C1272.29 518.67 1275.58 522.158 1280.19 521.65C1283.93 521.238 1286.01 518.679 1286.27 515.155L1286.27 514.864L1294.97 513.905L1294.99 514.097C1295.36 521.628 1290.08 527.971 1280.93 528.979ZM1301.09 526.045L1296.01 479.909L1305.34 478.88L1307.3 496.657L1307.49 496.635C1308.78 492.189 1312.14 489.425 1317.28 488.858C1324.7 488.04 1329.88 492.712 1330.79 500.993L1333.16 522.51L1323.82 523.539L1321.66 503.94C1321.14 499.145 1318.46 496.56 1314.2 497.029C1310.08 497.483 1307.77 500.909 1308.26 505.385L1310.43 525.016L1301.09 526.045ZM1354.98 520.817C1344.56 521.966 1337.27 516.006 1336.04 504.848L1336.03 504.784C1334.81 493.754 1340.78 486.268 1351.01 485.14C1361.28 484.009 1368.76 489.947 1369.98 501.041L1369.99 501.105C1371.22 512.295 1365.34 519.675 1354.98 520.817ZM1354.2 513.492C1358.74 512.991 1361.23 508.834 1360.49 502.152L1360.49 502.088C1359.76 495.47 1356.36 491.961 1351.82 492.461C1347.31 492.958 1344.79 497.119 1345.52 503.737L1345.53 503.801C1346.27 510.515 1349.6 513.999 1354.2 513.492ZM538.682 689.561L525.713 657.336L531.244 656.726L540.876 683.042L541.003 683.028L545.535 655.151L550.907 654.559L561.434 680.776L561.561 680.762L565.23 652.98L570.729 652.374L565.123 686.647L559.464 687.271L549.113 662.362L548.985 662.376L544.341 688.938L538.682 689.561ZM577.814 645.898C575.896 646.109 574.157 644.715 573.945 642.797C573.73 640.847 575.128 639.139 577.046 638.928C578.996 638.713 580.7 640.078 580.915 642.029C581.127 643.947 579.765 645.683 577.814 645.898ZM579.318 685.082L575.653 651.831L581.216 651.218L584.881 684.469L579.318 685.082ZM592.746 683.602L587.661 637.467L593.224 636.853L598.309 682.989L592.746 683.602ZM606.111 682.129L601.025 635.994L606.588 635.38L611.674 681.516L606.111 682.129ZM632.615 679.207L628.95 645.957L634.513 645.343L635.134 650.97L635.261 650.956C635.958 646.996 638.567 644.249 642.308 643.837C643.267 643.731 644.116 643.8 644.571 643.814L645.166 649.217C644.701 649.107 643.5 649.077 642.158 649.225C637.841 649.701 635.359 653.017 635.916 658.068L638.178 678.594L632.615 679.207ZM664.977 676.287C655.418 677.341 648.926 671.293 647.774 660.839L647.77 660.807C646.636 650.512 651.74 642.797 660.82 641.797C669.9 640.796 676.174 646.932 677.274 656.907L677.499 658.954L653.552 661.593C654.435 668.421 658.648 672.002 664.563 671.35C668.783 670.885 671.524 668.447 672.169 665.495L672.233 665.197L677.701 664.594L677.672 664.921C677.191 670.54 672.235 675.487 664.977 676.287ZM661.33 646.724C656.503 647.256 653.093 650.965 653.169 657.234L671.361 655.229C670.106 648.831 666.19 646.188 661.33 646.724ZM684.793 673.456L681.128 640.205L686.691 639.592L687.213 644.324L687.341 644.31C688.789 641.011 691.928 638.368 696.98 637.811C704.269 637.007 709.011 641.274 709.846 648.851L712.225 670.432L706.662 671.045L704.393 650.456C703.797 645.052 700.944 642.357 695.828 642.921C690.585 643.499 687.576 647.617 688.2 653.276L690.357 672.843L684.793 673.456ZM731.895 668.911C723.39 669.849 717.016 663.691 715.86 653.204L715.856 653.172C714.7 642.685 719.648 635.312 727.993 634.392C732.692 633.874 736.822 635.814 739.323 639.421L739.451 639.407L737.417 620.959L742.98 620.346L748.066 666.482L742.503 667.095L741.882 661.468L741.755 661.482C740.103 665.58 736.658 668.386 731.895 668.911ZM732.439 663.868C738.066 663.248 741.523 657.915 740.702 650.466L740.699 650.434C739.881 643.017 735.313 638.569 729.718 639.186C723.835 639.834 720.712 644.968 721.547 652.545L721.551 652.577C722.393 660.218 726.556 664.516 732.439 663.868ZM769.334 664.785C759.774 665.838 753.283 659.791 752.13 649.336L752.127 649.304C750.992 639.009 756.096 631.295 765.176 630.294C774.256 629.293 780.531 635.429 781.63 645.404L781.856 647.451L757.909 650.09C758.791 656.918 763.004 660.499 768.919 659.847C773.139 659.382 775.88 656.944 776.525 653.993L776.59 653.694L782.057 653.092L782.028 653.418C781.547 659.037 776.591 663.985 769.334 664.785ZM765.687 635.221C760.859 635.753 757.449 639.462 757.525 645.732L775.717 643.726C774.462 637.328 770.546 634.685 765.687 635.221ZM789.15 661.953L785.485 628.702L791.048 628.089L791.668 633.716L791.796 633.702C792.492 629.742 795.102 626.995 798.842 626.583C799.801 626.477 800.65 626.545 801.105 626.56L801.701 631.963C801.235 631.853 800.035 631.823 798.692 631.971C794.376 632.447 791.893 635.762 792.45 640.814L794.713 661.34L789.15 661.953ZM836.539 657.377C826.979 658.431 820.488 652.383 819.335 641.928L819.332 641.896C818.197 631.601 823.301 623.887 832.381 622.886C841.461 621.885 847.736 628.021 848.835 637.997L849.061 640.043L825.114 642.682C825.996 649.51 830.209 653.091 836.124 652.439C840.344 651.974 843.085 649.536 843.73 646.585L843.795 646.286L849.262 645.684L849.233 646.011C848.752 651.63 843.796 656.577 836.539 657.377ZM832.892 627.813C828.064 628.345 824.654 632.054 824.73 638.324L842.922 636.318C841.667 629.92 837.751 627.277 832.892 627.813ZM864.444 653.654L848.533 621.753L854.384 621.108L866.573 647.432L866.701 647.418L872.896 619.067L878.683 618.429L870.135 653.026L864.444 653.654ZM899.204 650.469C889.644 651.523 883.152 645.475 882 635.021L881.997 634.989C880.862 624.694 885.966 616.979 895.046 615.979C904.126 614.978 910.401 621.114 911.5 631.089L911.726 633.136L887.779 635.775C888.661 642.603 892.874 646.184 898.789 645.532C903.009 645.066 905.75 642.629 906.395 639.677L906.459 639.379L911.927 638.776L911.898 639.103C911.417 644.722 906.461 649.669 899.204 650.469ZM895.557 620.906C890.729 621.438 887.319 625.147 887.395 631.416L905.587 629.411C904.332 623.013 900.416 620.37 895.557 620.906ZM919.02 647.638L915.354 614.387L920.918 613.774L921.538 619.401L921.666 619.387C922.362 615.427 924.971 612.68 928.712 612.268C929.671 612.162 930.52 612.23 930.975 612.245L931.57 617.648C931.105 617.537 929.905 617.508 928.562 617.656C924.246 618.132 921.763 621.447 922.32 626.499L924.583 647.025L919.02 647.638ZM944.616 656.143C943.529 656.263 942.332 656.265 941.614 656.215L941.114 651.675C941.604 651.718 942.254 651.743 942.925 651.669C946.442 651.282 948.294 650.171 949.221 646.251L949.684 644.29L933.674 612.368L939.621 611.712L951.849 638.389L951.977 638.374L958.133 609.672L963.984 609.027L954.897 645.787C953.233 652.41 950.626 655.48 944.616 656.143ZM982.906 641.243C976.799 641.916 973.491 639.498 972.79 633.136L970.566 612.961L965.706 613.497L965.199 608.893L970.058 608.357L969.068 599.373L974.823 598.739L975.813 607.723L982.144 607.025L982.651 611.629L976.321 612.327L978.541 632.469C978.932 636.018 980.608 636.837 983.581 636.509C984.253 636.435 984.882 636.268 985.358 636.184L985.855 640.692C985.162 640.865 983.993 641.123 982.906 641.243ZM992.075 639.585L986.99 593.45L992.553 592.837L994.558 611.029L994.686 611.015C996.064 607.076 999.434 604.472 1004.39 603.926C1011.46 603.147 1016.89 608.082 1017.77 616.139L1020.02 636.505L1014.46 637.118L1012.32 617.711C1011.65 611.701 1008.19 608.49 1003.01 609.061C997.867 609.628 994.876 613.906 995.499 619.565L997.638 638.972L992.075 639.585ZM1025.93 596.503C1024.01 596.715 1022.27 595.321 1022.06 593.402C1021.85 591.452 1023.25 589.745 1025.16 589.533C1027.11 589.318 1028.82 590.684 1029.03 592.634C1029.24 594.552 1027.88 596.288 1025.93 596.503ZM1027.44 635.688L1023.77 602.437L1029.33 601.824L1033 635.074L1027.44 635.688ZM1040.58 634.239L1036.91 600.988L1042.47 600.375L1043 605.107L1043.12 605.093C1044.57 601.794 1047.71 599.151 1052.76 598.594C1060.05 597.79 1064.79 602.057 1065.63 609.634L1068.01 631.215L1062.45 631.829L1060.18 611.239C1059.58 605.835 1056.73 603.14 1051.61 603.704C1046.37 604.282 1043.36 608.4 1043.98 614.059L1046.14 633.626L1040.58 634.239ZM1090.48 640.712C1082.26 641.618 1076.66 638.32 1075.03 633.516L1074.93 633.235L1080.52 632.619L1080.68 632.892C1082 635.174 1085.33 636.296 1089.87 635.795C1095.72 635.15 1098.69 631.555 1098.12 626.407L1097.66 622.155L1097.53 622.169C1095.95 626.064 1092.37 628.853 1087.61 629.378C1079.23 630.302 1072.77 624.186 1071.62 613.796L1071.62 613.764C1070.48 603.437 1075.53 596.085 1083.97 595.154C1088.67 594.636 1092.66 596.785 1095.11 600.268L1095.24 600.254L1094.62 594.627L1100.18 594.014L1103.75 626.338C1104.6 634.043 1099.49 639.718 1090.48 640.712ZM1088.28 624.321C1093.94 623.697 1097.25 618.446 1096.43 611.061L1096.43 611.029C1095.62 603.707 1091.22 599.338 1085.6 599.958C1079.68 600.61 1076.5 605.751 1077.31 613.136L1077.31 613.168C1078.14 620.714 1082.37 624.973 1088.28 624.321ZM1114.51 626.542C1112.47 626.768 1110.69 625.346 1110.47 623.299C1110.24 621.253 1111.66 619.478 1113.71 619.253C1115.76 619.027 1117.53 620.45 1117.76 622.496C1117.98 624.542 1116.56 626.317 1114.51 626.542Z" fill="black"/>
</g>
</g>
<defs>
<filter id="filter0_d_717_249" x="421.814" y="293.956" width="1076.37" height="498.089" filterUnits="userSpaceOnUse" color-interpolation-filters="sRGB">
<feFlood flood-opacity="0" result="BackgroundImageFix"/>
<feColorMatrix in="SourceAlpha" type="matrix" values="0 0 0 0 0 0 0 0 0 0 0 0 0 0 0 0 0 0 127 0" result="hardAlpha"/>
<feOffset dy="3"/>
<feGaussianBlur stdDeviation="1.5"/>
<feComposite in2="hardAlpha" operator="out"/>
<feColorMatrix type="matrix" values="0 0 0 0 0 0 0 0 0 0 0 0 0 0 0 0 0 0 0.25 0"/>
<feBlend mode="normal" in2="BackgroundImageFix" result="effect1_dropShadow_717_249"/>
<feBlend mode="normal" in="SourceGraphic" in2="effect1_dropShadow_717_249" result="shape"/>
</filter>
<clipPath id="clip0_717_249">
<rect x="424.814" y="407.338" width="1034.86" height="381" rx="18" transform="rotate(-6.29014 424.814 407.338)" fill="white"/>
</clipPath>
</defs>
</svg>
