<svg width="1920" height="1080" viewBox="0 0 1920 1080" fill="none" xmlns="http://www.w3.org/2000/svg">
<rect width="1920" height="1080" fill="#DDDDDD"/>
<g filter="url(#filter0_d_717_276)">
<g clip-path="url(#clip0_717_276)">
<rect x="199.508" y="364.383" width="1545" height="223" rx="18" transform="rotate(4.79 199.508 364.383)" fill="white"/>
<path d="M283.959 507.707C270.818 506.606 263.383 496.719 264.613 482.039L264.618 481.975C265.846 467.326 274.854 458.817 287.964 459.916C301.042 461.012 308.477 470.899 307.249 485.547L307.244 485.611C306.014 500.291 297.069 508.806 283.959 507.707ZM284.405 502.386C293.925 503.184 300.4 496.399 301.346 485.117L301.351 485.053C302.302 473.706 296.942 466.026 287.518 465.237C278.063 464.444 271.47 471.09 270.516 482.469L270.511 482.533C269.557 493.912 274.917 501.591 284.405 502.386ZM312.07 509.288L315.946 463.035L321.523 463.503L319.208 491.132L319.336 491.143L335.185 477.656L341.949 478.222L326.287 491.403L339.604 511.595L333.129 511.053L322.059 494.47L318.7 497.191L317.648 509.755L312.07 509.288ZM340.479 520.803L344.613 505.366L350.446 505.854L344.453 521.136L340.479 520.803ZM378.623 515.51C372.501 514.997 369.719 511.988 370.254 505.61L371.948 485.384L367.076 484.976L367.463 480.36L372.335 480.769L373.09 471.762L378.859 472.245L378.105 481.252L384.451 481.784L384.064 486.4L377.718 485.868L376.026 506.061C375.728 509.619 377.215 510.744 380.196 510.994C380.869 511.051 381.518 511.008 382.002 511.016L381.623 515.536C380.91 515.573 379.713 515.602 378.623 515.51ZM387.94 515.646L391.816 469.393L397.393 469.86L395.865 488.099L395.993 488.109C398.103 484.509 401.91 482.601 406.878 483.018C413.962 483.611 418.343 489.498 417.666 497.575L415.955 517.993L410.378 517.526L412.008 498.07C412.513 492.044 409.734 488.228 404.541 487.793C399.381 487.36 395.623 490.983 395.148 496.657L393.518 516.113L387.94 515.646ZM432.729 520.044C426.094 519.488 421.974 515.108 422.482 509.05L422.487 508.986C422.963 503.313 427.684 500.126 435.383 500.319L444.98 500.574L445.214 497.786C445.555 493.715 443.101 491.024 438.454 490.634C434.158 490.274 431.294 492.1 430.403 495.027L430.315 495.311L424.93 494.859L424.992 494.509C425.932 489.069 431.078 485.046 438.931 485.704C446.816 486.364 451.395 491.041 450.837 497.708L448.905 520.754L443.328 520.287L443.782 514.87L443.654 514.859C441.392 518.349 437.184 520.418 432.729 520.044ZM428.187 509.528C427.919 512.734 430.378 514.973 434.385 515.309C439.641 515.75 443.984 512.466 444.389 507.626L444.617 504.901L435.661 504.7C431.184 504.583 428.453 506.355 428.193 509.464L428.187 509.528ZM466.77 522.897C460.647 522.384 457.865 519.375 458.4 512.996L460.095 492.771L455.223 492.362L455.609 487.747L460.481 488.155L461.236 479.148L467.006 479.631L466.251 488.638L472.598 489.17L472.211 493.786L465.864 493.254L464.172 513.448C463.874 517.006 465.361 518.131 468.342 518.381C469.015 518.437 469.664 518.395 470.148 518.403L469.769 522.922C469.056 522.959 467.859 522.988 466.77 522.897ZM495.863 524.689L489.329 490.572L494.875 491.037L499.269 518.713L499.397 518.723L509.202 492.238L514.587 492.689L519.879 520.44L520.008 520.45L528.947 493.892L534.46 494.354L522.371 526.911L516.698 526.435L511.328 500.001L511.199 499.99L501.537 525.165L495.863 524.689ZM545.3 529.477C538.665 528.921 534.545 524.541 535.053 518.483L535.058 518.419C535.534 512.746 540.255 509.559 547.953 509.752L557.551 510.007L557.785 507.219C558.126 503.148 555.672 500.457 551.024 500.067C546.729 499.708 543.865 501.533 542.974 504.461L542.886 504.744L537.501 504.292L537.562 503.943C538.503 498.502 543.649 494.479 551.502 495.137C559.387 495.797 563.966 500.474 563.408 507.141L561.476 530.187L555.899 529.72L556.353 524.303L556.225 524.292C553.963 527.783 549.755 529.851 545.3 529.477ZM540.758 518.961C540.49 522.167 542.949 524.406 546.956 524.742C552.212 525.183 556.554 521.899 556.96 517.059L557.188 514.334L548.232 514.133C543.755 514.016 541.024 515.788 540.764 518.897L540.758 518.961ZM580.334 532.413C572.481 531.755 568.073 527.351 567.899 521.333L567.891 521.041L573.469 521.509L573.506 521.835C573.9 525.225 576.204 527.387 580.756 527.768C585.275 528.147 588.126 526.481 588.378 523.468L588.381 523.436C588.583 521.032 587.445 519.581 583.741 518.335L578.56 516.61C572.403 514.577 569.603 511.405 570.006 506.597L570.008 506.565C570.489 500.827 575.863 497.178 583.075 497.782C590.383 498.395 594.673 503.047 594.623 508.659L594.62 509.079L589.299 508.633L589.286 508.406C589.108 505.131 586.82 502.776 582.685 502.43C578.646 502.092 575.982 503.837 575.735 506.786L575.733 506.818C575.542 509.094 576.917 510.791 580.528 511.997L585.709 513.723C592.303 515.921 594.516 518.786 594.119 523.53L594.116 523.562C593.627 529.395 587.77 533.036 580.334 532.413ZM622.292 535.929C615.657 535.373 611.537 530.993 612.045 524.935L612.05 524.871C612.525 519.198 617.247 516.01 624.945 516.203L634.543 516.459L634.776 513.67C635.118 509.6 632.664 506.909 628.016 506.519C623.721 506.159 620.857 507.985 619.966 510.912L619.878 511.195L614.493 510.744L614.554 510.394C615.494 504.953 620.641 500.93 628.494 501.588C636.379 502.249 640.958 506.926 640.399 513.593L638.468 536.639L632.891 536.172L633.345 530.755L633.217 530.744C630.955 534.234 626.747 536.302 622.292 535.929ZM617.75 525.413C617.482 528.618 619.941 530.858 623.947 531.194C629.204 531.634 633.546 528.351 633.952 523.511L634.18 520.786L625.224 520.584C620.747 520.467 618.016 522.24 617.755 525.349L617.75 525.413ZM670.788 539.993C662.935 539.335 658.527 534.931 658.353 528.912L658.346 528.621L663.923 529.089L663.96 529.414C664.354 532.804 666.658 534.966 671.21 535.348C675.729 535.727 678.58 534.061 678.833 531.048L678.835 531.016C679.037 528.612 677.899 527.161 674.195 525.915L669.014 524.189C662.858 522.156 660.057 518.984 660.46 514.176L660.462 514.144C660.943 508.407 666.317 504.758 673.529 505.362C680.837 505.974 685.127 510.627 685.077 516.239L685.074 516.659L679.753 516.213L679.74 515.986C679.562 512.711 677.274 510.356 673.139 510.01C669.101 509.671 666.437 511.417 666.189 514.366L666.187 514.398C665.996 516.674 667.371 518.371 670.982 519.577L676.163 521.302C682.757 523.501 684.97 526.366 684.573 531.109L684.57 531.142C684.081 536.975 678.224 540.616 670.788 539.993ZM689.881 540.947L693.757 494.695L699.335 495.162L697.806 513.4L697.934 513.411C700.044 509.811 703.851 507.903 708.819 508.319C715.903 508.913 720.284 514.8 719.607 522.877L717.896 543.295L712.319 542.827L713.949 523.371C714.454 517.345 711.675 513.529 706.482 513.094C701.322 512.662 697.565 516.285 697.089 521.958L695.459 541.415L689.881 540.947ZM738.741 545.687C729.478 544.911 723.853 537.693 724.742 527.084L724.747 527.02C725.636 516.41 732.41 510.296 741.61 511.067C750.809 511.838 756.506 518.965 755.614 529.606L755.609 529.67C754.717 540.312 747.94 546.458 738.741 545.687ZM739.187 540.754C745.052 541.245 749.248 537.013 749.904 529.192L749.909 529.128C750.564 521.307 747.094 516.497 741.196 516.003C735.394 515.517 731.105 519.709 730.453 527.498L730.447 527.562C729.789 535.415 733.289 540.259 739.187 540.754ZM759.854 546.811L762.647 513.475L768.224 513.943L767.752 519.584L767.88 519.595C769.324 515.842 772.413 513.648 776.163 513.962C777.125 514.043 777.945 514.273 778.388 514.375L777.934 519.792C777.499 519.594 776.326 519.334 774.98 519.221C770.653 518.859 767.58 521.636 767.155 526.7L765.431 547.278L759.854 546.811ZM792.494 550.191C786.372 549.678 783.59 546.669 784.125 540.291L785.819 520.065L780.947 519.657L781.334 515.041L786.206 515.45L786.961 506.443L792.73 506.926L791.976 515.933L798.322 516.465L797.935 521.081L791.589 520.549L789.897 540.742C789.599 544.3 791.086 545.425 794.067 545.675C794.74 545.732 795.389 545.689 795.873 545.697L795.494 550.217C794.781 550.254 793.584 550.283 792.494 550.191ZM814.045 562.649L817.779 518.095L823.356 518.563L822.883 524.204L823.011 524.215C825.42 520.511 829.339 518.418 834.115 518.819C842.641 519.533 847.713 526.801 846.832 537.315L846.83 537.347C845.949 547.86 839.676 554.145 831.311 553.444C826.599 553.049 822.919 550.352 821.158 546.331L821.03 546.321L819.622 563.117L814.045 562.649ZM830.538 548.409C836.436 548.903 840.488 544.465 841.124 536.869L841.127 536.836C841.769 529.176 838.51 524.158 832.612 523.663C826.97 523.191 822.553 527.759 821.927 535.228L821.924 535.26C821.301 542.696 824.929 547.939 830.538 548.409ZM851.077 554.455L853.87 521.12L859.448 521.587L858.975 527.228L859.103 527.239C860.547 523.487 863.636 521.292 867.386 521.607C868.348 521.687 869.168 521.917 869.611 522.019L869.157 527.436C868.722 527.238 867.55 526.979 866.203 526.866C861.876 526.503 858.803 529.28 858.379 534.344L856.654 554.922L851.077 554.455ZM883.397 557.809C873.813 557.006 868.605 549.823 869.483 539.342L869.486 539.31C870.351 528.989 876.842 522.399 885.945 523.162C895.048 523.925 900.027 531.153 899.189 541.153L899.017 543.205L875.009 541.193C874.563 548.063 878.009 552.386 883.939 552.883C888.17 553.238 891.328 551.372 892.529 548.6L892.649 548.32L898.13 548.779L898.039 549.094C896.488 554.516 890.673 558.419 883.397 557.809ZM885.5 528.095C880.66 527.69 876.601 530.674 875.471 536.842L893.709 538.37C893.707 531.849 890.372 528.504 885.5 528.095ZM915.162 560.471C907.309 559.813 902.901 555.408 902.727 549.39L902.719 549.099L908.296 549.566L908.334 549.892C908.728 553.282 911.032 555.444 915.583 555.826C920.103 556.204 922.954 554.539 923.206 551.526L923.209 551.494C923.41 549.09 922.273 547.639 918.569 546.392L913.387 544.667C907.231 542.634 904.431 539.462 904.833 534.654L904.836 534.622C905.317 528.884 910.69 525.235 917.902 525.84C925.21 526.452 929.501 531.105 929.45 536.717L929.447 537.136L924.127 536.69L924.113 536.463C923.936 533.188 921.648 530.834 917.513 530.487C913.474 530.149 910.81 531.895 910.563 534.844L910.56 534.876C910.37 537.151 911.745 538.848 915.356 540.055L920.537 541.78C927.131 543.979 929.344 546.843 928.947 551.587L928.944 551.619C928.455 557.453 922.598 561.094 915.162 560.471ZM947.632 563.191C938.048 562.388 932.84 555.206 933.718 544.724L933.721 544.692C934.585 534.371 941.077 527.782 950.18 528.544C959.283 529.307 964.262 536.535 963.423 546.536L963.252 548.587L939.244 546.575C938.797 553.446 942.244 557.769 948.174 558.266C952.405 558.621 955.563 556.755 956.763 553.983L956.884 553.702L962.365 554.162L962.274 554.477C960.722 559.899 954.908 563.801 947.632 563.191ZM949.734 533.478C944.894 533.072 940.835 536.057 939.705 542.224L957.943 543.753C957.941 537.232 954.606 533.886 949.734 533.478ZM967.623 564.221L970.416 530.886L975.993 531.353L975.596 536.097L975.724 536.108C977.779 533.149 981.368 531.158 986.432 531.582C993.74 532.195 997.574 537.293 996.937 544.89L995.124 566.526L989.547 566.058L991.277 545.416C991.731 539.999 989.448 536.806 984.32 536.376C979.063 535.936 975.319 539.398 974.844 545.072L973.2 564.688L967.623 564.221ZM1013.02 568.671C1006.9 568.158 1004.12 565.149 1004.65 558.77L1006.35 538.545L1001.47 538.136L1001.86 533.521L1006.73 533.929L1007.49 524.922L1013.26 525.405L1012.5 534.412L1018.85 534.944L1018.46 539.56L1012.11 539.028L1010.42 559.222C1010.12 562.779 1011.61 563.905 1014.59 564.155C1015.27 564.211 1015.92 564.168 1016.4 564.177L1016.02 568.696C1015.31 568.733 1014.11 568.762 1013.02 568.671ZM1031.1 570.186C1024.46 569.63 1020.34 565.25 1020.85 559.192L1020.86 559.128C1021.33 553.454 1026.05 550.267 1033.75 550.46L1043.35 550.716L1043.58 547.927C1043.92 543.856 1041.47 541.165 1036.82 540.776C1032.53 540.416 1029.66 542.242 1028.77 545.169L1028.68 545.452L1023.3 545.001L1023.36 544.651C1024.3 539.21 1029.45 535.187 1037.3 535.845C1045.19 536.506 1049.76 541.182 1049.21 547.849L1047.27 570.896L1041.7 570.428L1042.15 565.011L1042.02 565.001C1039.76 568.491 1035.55 570.559 1031.1 570.186ZM1026.56 559.67C1026.29 562.875 1028.75 565.115 1032.75 565.45C1038.01 565.891 1042.35 562.607 1042.76 557.767L1042.99 555.043L1034.03 554.841C1029.55 554.724 1026.82 556.496 1026.56 559.606L1026.56 559.67ZM1065.14 573.038C1059.02 572.525 1056.23 569.516 1056.77 563.137L1058.46 542.912L1053.59 542.504L1053.98 537.888L1058.85 538.296L1059.61 529.289L1065.38 529.773L1064.62 538.78L1070.97 539.312L1070.58 543.927L1064.23 543.395L1062.54 563.589C1062.24 567.147 1063.73 568.272 1066.71 568.522C1067.38 568.578 1068.03 568.536 1068.52 568.544L1068.14 573.064C1067.43 573.101 1066.23 573.129 1065.14 573.038ZM1080.57 534.436C1078.65 534.275 1077.21 532.572 1077.37 530.649C1077.54 528.694 1079.24 527.287 1081.16 527.448C1083.12 527.612 1084.53 529.279 1084.36 531.235C1084.2 533.158 1082.53 534.6 1080.57 534.436ZM1074.52 573.179L1077.31 539.843L1082.89 540.311L1080.1 573.646L1074.52 573.179ZM1101.46 576.081C1092.19 575.305 1086.57 568.088 1087.46 557.478L1087.46 557.414C1088.35 546.804 1095.12 540.69 1104.32 541.461C1113.52 542.232 1119.22 549.359 1118.33 560L1118.32 560.065C1117.43 570.706 1110.65 576.852 1101.46 576.081ZM1101.9 571.148C1107.77 571.639 1111.96 567.407 1112.62 559.586L1112.62 559.522C1113.28 551.701 1109.81 546.892 1103.91 546.397C1098.11 545.911 1093.82 550.103 1093.17 557.892L1093.16 557.956C1092.5 565.809 1096 570.654 1101.9 571.148ZM1122.57 577.205L1125.36 543.87L1130.94 544.337L1130.54 549.081L1130.67 549.092C1132.72 546.133 1136.31 544.142 1141.38 544.566C1148.69 545.179 1152.52 550.277 1151.88 557.874L1150.07 579.509L1144.49 579.042L1146.22 558.4C1146.68 552.983 1144.39 549.79 1139.26 549.36C1134.01 548.919 1130.26 552.382 1129.79 558.056L1128.14 577.672L1122.57 577.205ZM1160.58 580.842C1158.53 580.67 1157.06 578.933 1157.23 576.882C1157.4 574.83 1159.14 573.362 1161.19 573.534C1163.24 573.706 1164.71 575.443 1164.54 577.494C1164.37 579.545 1162.63 581.014 1160.58 580.842ZM1195.14 583.286L1196.8 563.381L1182.6 535.658L1189.17 536.209L1200.06 558.037L1200.25 558.053L1214.62 538.341L1221.19 538.892L1202.57 563.864L1200.91 583.769L1195.14 583.286ZM1229.41 586.804C1220.15 586.027 1214.52 578.81 1215.41 568.2L1215.42 568.136C1216.31 557.527 1223.08 551.413 1232.28 552.183C1241.48 552.954 1247.18 560.081 1246.28 570.723L1246.28 570.787C1245.39 581.429 1238.61 587.575 1229.41 586.804ZM1229.86 581.87C1235.72 582.362 1239.92 578.13 1240.57 570.309L1240.58 570.245C1241.23 562.424 1237.76 557.614 1231.87 557.12C1226.06 556.634 1221.78 560.825 1221.12 568.614L1221.12 568.678C1220.46 576.531 1223.96 581.376 1229.86 581.87ZM1261.85 589.522C1254.54 588.909 1250.71 583.811 1251.34 576.214L1253.16 554.578L1258.73 555.046L1257 575.688C1256.55 581.105 1258.83 584.298 1263.96 584.728C1269.22 585.168 1272.96 581.706 1273.44 576.032L1275.08 556.416L1280.66 556.883L1277.87 590.218L1272.29 589.751L1272.69 585.007L1272.56 584.996C1270.5 587.955 1266.91 589.946 1261.85 589.522ZM1308.29 593.414C1301.66 592.858 1297.54 588.478 1298.05 582.42L1298.05 582.356C1298.53 576.682 1303.25 573.495 1310.95 573.688L1320.55 573.944L1320.78 571.155C1321.12 567.084 1318.67 564.393 1314.02 564.004C1309.72 563.644 1306.86 565.47 1305.97 568.397L1305.88 568.68L1300.5 568.229L1300.56 567.879C1301.5 562.438 1306.64 558.415 1314.5 559.073C1322.38 559.734 1326.96 564.41 1326.4 571.077L1324.47 594.124L1318.89 593.656L1319.35 588.239L1319.22 588.229C1316.96 591.719 1312.75 593.787 1308.29 593.414ZM1303.75 582.898C1303.48 586.103 1305.94 588.343 1309.95 588.678C1315.21 589.119 1319.55 585.835 1319.95 580.995L1320.18 578.271L1311.23 578.069C1306.75 577.952 1304.02 579.725 1303.76 582.834L1303.75 582.898ZM1331.55 594.717L1334.35 561.382L1339.93 561.849L1339.45 567.491L1339.58 567.501C1341.02 563.749 1344.11 561.555 1347.86 561.869C1348.83 561.95 1349.65 562.18 1350.09 562.281L1349.64 567.698C1349.2 567.501 1348.03 567.241 1346.68 567.128C1342.35 566.765 1339.28 569.542 1338.86 574.607L1337.13 595.185L1331.55 594.717ZM1363.87 598.071C1354.29 597.268 1349.08 590.086 1349.96 579.604L1349.96 579.572C1350.83 569.251 1357.32 562.661 1366.42 563.424C1375.53 564.187 1380.5 571.415 1379.67 581.415L1379.49 583.467L1355.49 581.455C1355.04 588.325 1358.49 592.649 1364.42 593.146C1368.65 593.5 1371.81 591.635 1373.01 588.862L1373.13 588.582L1378.61 589.041L1378.52 589.356C1376.97 594.778 1371.15 598.681 1363.87 598.071ZM1365.98 568.358C1361.14 567.952 1357.08 570.937 1355.95 577.104L1374.19 578.632C1374.18 572.112 1370.85 568.766 1365.98 568.358ZM1403.93 600.782L1397.4 566.665L1402.94 567.13L1407.34 594.806L1407.46 594.816L1417.27 568.331L1422.65 568.782L1427.95 596.533L1428.08 596.543L1437.01 569.985L1442.53 570.447L1430.44 603.003L1424.77 602.528L1419.39 576.094L1419.27 576.083L1409.6 601.258L1403.93 600.782ZM1457.98 605.957C1448.4 605.154 1443.19 597.971 1444.07 587.49L1444.07 587.458C1444.94 577.137 1451.43 570.547 1460.53 571.31C1469.63 572.073 1474.61 579.301 1473.77 589.301L1473.6 591.353L1449.59 589.341C1449.15 596.211 1452.59 600.535 1458.52 601.032C1462.76 601.386 1465.91 599.521 1467.11 596.748L1467.23 596.468L1472.72 596.927L1472.62 597.242C1471.07 602.664 1465.26 606.567 1457.98 605.957ZM1460.09 576.244C1455.25 575.838 1451.19 578.823 1450.06 584.99L1468.29 586.518C1468.29 579.998 1464.96 576.652 1460.09 576.244ZM1478.26 607.011L1482.14 560.758L1487.72 561.225L1483.84 607.478L1478.26 607.011ZM1505.13 609.908C1495.68 609.116 1490.25 601.882 1491.14 591.273L1491.14 591.241C1492.02 580.727 1498.71 574.509 1507.97 575.285C1516.27 575.981 1520.71 581.905 1520.94 587.67L1520.95 587.929L1515.5 587.472L1515.46 587.21C1514.91 583.807 1512.46 580.632 1507.56 580.222C1501.75 579.735 1497.47 584.218 1496.84 591.783L1496.84 591.815C1496.19 599.572 1499.78 604.489 1505.55 604.972C1510.1 605.353 1513.23 603.034 1514.47 599.393L1514.56 599.142L1520.04 599.602L1519.99 599.823C1518.56 606.095 1512.67 610.539 1505.13 609.908ZM1538.02 612.664C1528.76 611.888 1523.13 604.67 1524.02 594.061L1524.03 593.996C1524.91 583.387 1531.69 577.273 1540.89 578.044C1550.09 578.815 1555.78 585.941 1554.89 596.583L1554.89 596.647C1554 607.289 1547.22 613.435 1538.02 612.664ZM1538.47 607.73C1544.33 608.222 1548.53 603.99 1549.18 596.169L1549.19 596.105C1549.84 588.284 1546.37 583.474 1540.47 582.98C1534.67 582.494 1530.38 586.686 1529.73 594.475L1529.73 594.539C1529.07 602.392 1532.57 607.236 1538.47 607.73ZM1559.13 613.788L1561.93 580.452L1567.5 580.92L1567.09 585.792L1567.22 585.802C1569.01 582.627 1572.52 580.695 1576.82 581.055C1581.37 581.436 1584.54 584.058 1585.64 588.25L1585.77 588.26C1587.97 584.41 1592.08 582.333 1596.76 582.725C1603.36 583.279 1607.26 587.963 1606.7 594.598L1604.78 617.612L1599.2 617.145L1601.02 595.413C1601.4 590.829 1599.1 587.893 1594.71 587.525C1590.29 587.154 1586.9 590.195 1586.52 594.746L1584.74 615.934L1579.17 615.466L1581.04 593.125C1581.38 589.086 1578.91 586.2 1574.77 585.854C1570.35 585.483 1566.85 588.709 1566.46 593.356L1564.71 614.255L1559.13 613.788ZM1625.56 619.999C1615.97 619.196 1610.76 612.014 1611.64 601.532L1611.65 601.5C1612.51 591.179 1619 584.589 1628.11 585.352C1637.21 586.115 1642.19 593.343 1641.35 603.344L1641.18 605.395L1617.17 603.383C1616.72 610.253 1620.17 614.577 1626.1 615.074C1630.33 615.428 1633.49 613.563 1634.69 610.79L1634.81 610.51L1640.29 610.969L1640.2 611.285C1638.65 616.706 1632.83 620.609 1625.56 619.999ZM1627.66 590.286C1622.82 589.88 1618.76 592.865 1617.63 599.032L1635.87 600.56C1635.87 594.04 1632.53 590.694 1627.66 590.286ZM1648.94 621.765C1646.89 621.593 1645.42 619.856 1645.59 617.805C1645.76 615.753 1647.5 614.285 1649.55 614.457C1651.6 614.629 1653.07 616.366 1652.9 618.417C1652.73 620.469 1650.99 621.937 1648.94 621.765Z" fill="black"/>
</g>
</g>
<defs>
<filter id="filter0_d_717_276" x="177.887" y="364.383" width="1564.23" height="357.235" filterUnits="userSpaceOnUse" color-interpolation-filters="sRGB">
<feFlood flood-opacity="0" result="BackgroundImageFix"/>
<feColorMatrix in="SourceAlpha" type="matrix" values="0 0 0 0 0 0 0 0 0 0 0 0 0 0 0 0 0 0 127 0" result="hardAlpha"/>
<feOffset dy="3"/>
<feGaussianBlur stdDeviation="1.5"/>
<feComposite in2="hardAlpha" operator="out"/>
<feColorMatrix type="matrix" values="0 0 0 0 0 0 0 0 0 0 0 0 0 0 0 0 0 0 0.25 0"/>
<feBlend mode="normal" in2="BackgroundImageFix" result="effect1_dropShadow_717_276"/>
<feBlend mode="normal" in="SourceGraphic" in2="effect1_dropShadow_717_276" result="shape"/>
</filter>
<clipPath id="clip0_717_276">
<rect x="199.508" y="364.383" width="1545" height="223" rx="18" transform="rotate(4.79 199.508 364.383)" fill="white"/>
</clipPath>
</defs>
</svg>
