<svg width="1920" height="1080" viewBox="0 0 1920 1080" fill="none" xmlns="http://www.w3.org/2000/svg">
<rect width="1920" height="1080" fill="#DDDDDD"/>
<g filter="url(#filter0_d_717_216)">
<g clip-path="url(#clip0_717_216)">
<rect x="775.979" y="412.703" width="388" height="223" rx="18" transform="rotate(4.78595 775.979 412.703)" fill="white"/>
<path d="M843.479 554.278C841.427 554.107 839.959 552.37 840.131 550.318C840.302 548.267 842.039 546.798 844.091 546.97C846.142 547.142 847.611 548.879 847.439 550.93C847.267 552.982 845.53 554.45 843.479 554.278ZM855.851 555.314C853.8 555.143 852.332 553.406 852.503 551.354C852.675 549.303 854.412 547.834 856.463 548.006C858.515 548.178 859.983 549.915 859.811 551.966C859.64 554.018 857.903 555.486 855.851 555.314ZM868.224 556.35C866.173 556.178 864.704 554.442 864.876 552.39C865.048 550.339 866.785 548.87 868.836 549.042C870.887 549.214 872.356 550.951 872.184 553.002C872.012 555.053 870.275 556.522 868.224 556.35ZM879.224 556.819L883.096 510.566L888.674 511.033L884.801 557.286L879.224 556.819ZM898.738 519.203C896.815 519.042 895.376 517.34 895.537 515.417C895.701 513.461 897.4 512.054 899.323 512.215C901.279 512.379 902.688 514.046 902.525 516.002C902.364 517.925 900.694 519.367 898.738 519.203ZM892.686 557.946L895.477 524.611L901.055 525.078L898.264 558.413L892.686 557.946ZM906.309 559.087L910.182 512.834L915.759 513.301L913.445 540.931L913.574 540.942L929.422 527.453L936.185 528.019L920.524 541.201L933.843 561.392L927.368 560.85L916.297 544.268L912.938 546.989L911.886 559.554L906.309 559.087ZM949.784 563.372C940.2 562.57 934.991 555.388 935.869 544.906L935.871 544.874C936.736 534.553 943.226 527.963 952.33 528.725C961.433 529.487 966.412 536.715 965.574 546.716L965.403 548.767L941.395 546.757C940.949 553.627 944.395 557.95 950.325 558.447C954.556 558.801 957.714 556.935 958.915 554.163L959.035 553.883L964.516 554.342L964.425 554.657C962.874 560.079 957.06 563.982 949.784 563.372ZM951.884 533.659C947.044 533.254 942.985 536.238 941.856 542.406L960.094 543.933C960.091 537.412 956.756 534.067 951.884 533.659ZM994.018 567.076C987.895 566.563 985.113 563.554 985.647 557.176L987.341 536.95L982.468 536.542L982.855 531.927L987.727 532.334L988.481 523.327L994.251 523.811L993.497 532.818L999.843 533.349L999.457 537.965L993.11 537.433L991.419 557.627C991.122 561.185 992.609 562.31 995.59 562.56C996.263 562.616 996.912 562.573 997.396 562.582L997.017 567.101C996.304 567.138 995.107 567.167 994.018 567.076ZM1003.33 567.21L1007.21 520.957L1012.78 521.424L1011.26 539.663L1011.39 539.673C1013.49 536.074 1017.3 534.165 1022.27 534.581C1029.35 535.174 1033.74 541.061 1033.06 549.138L1031.35 569.556L1025.77 569.089L1027.4 549.633C1027.91 543.607 1025.13 539.791 1019.93 539.356C1014.77 538.924 1011.02 542.548 1010.54 548.221L1008.91 567.677L1003.33 567.21ZM1044.84 531.435C1042.91 531.274 1041.48 529.572 1041.64 527.649C1041.8 525.694 1043.5 524.286 1045.42 524.448C1047.38 524.611 1048.79 526.279 1048.62 528.234C1048.46 530.157 1046.79 531.599 1044.84 531.435ZM1038.79 570.179L1041.58 536.843L1047.15 537.31L1044.36 570.646L1038.79 570.179ZM1063.73 572.913C1055.88 572.255 1051.47 567.852 1051.3 561.833L1051.29 561.542L1056.87 562.009L1056.9 562.335C1057.3 565.725 1059.6 567.887 1064.15 568.268C1068.67 568.646 1071.53 566.981 1071.78 563.968L1071.78 563.935C1071.98 561.531 1070.84 560.081 1067.14 558.834L1061.96 557.109C1055.8 555.077 1053 551.905 1053.4 547.097L1053.41 547.065C1053.89 541.327 1059.26 537.678 1066.47 538.282C1073.78 538.894 1078.07 543.546 1078.02 549.158L1078.02 549.578L1072.7 549.132L1072.68 548.905C1072.51 545.63 1070.22 543.276 1066.08 542.93C1062.04 542.591 1059.38 544.337 1059.13 547.286L1059.13 547.318C1058.94 549.594 1060.31 551.291 1063.93 552.497L1069.11 554.222C1075.7 556.42 1077.92 559.285 1077.52 564.029L1077.52 564.061C1077.03 569.894 1071.17 573.536 1063.73 572.913Z" fill="black"/>
</g>
</g>
<path d="M1849.89 148.359C1849.54 147.313 1848.41 146.751 1847.36 147.106L1830.31 152.875C1829.26 153.229 1828.7 154.364 1829.06 155.411C1829.41 156.457 1830.54 157.018 1831.59 156.664L1846.75 151.536L1851.88 166.691C1852.23 167.738 1853.36 168.299 1854.41 167.945C1855.46 167.591 1856.02 166.455 1855.66 165.409L1849.89 148.359ZM1827.22 195.552L1849.79 149.886L1846.21 148.114L1823.63 193.779L1827.22 195.552ZM1823.63 193.779C1704.29 435.2 1458.31 588 1189 588V592C1459.83 592 1707.2 438.337 1827.22 195.552L1823.63 193.779Z" fill="black"/>
<defs>
<filter id="filter0_d_717_216" x="754.374" y="412.703" width="411.253" height="260.595" filterUnits="userSpaceOnUse" color-interpolation-filters="sRGB">
<feFlood flood-opacity="0" result="BackgroundImageFix"/>
<feColorMatrix in="SourceAlpha" type="matrix" values="0 0 0 0 0 0 0 0 0 0 0 0 0 0 0 0 0 0 127 0" result="hardAlpha"/>
<feOffset dy="3"/>
<feGaussianBlur stdDeviation="1.5"/>
<feComposite in2="hardAlpha" operator="out"/>
<feColorMatrix type="matrix" values="0 0 0 0 0 0 0 0 0 0 0 0 0 0 0 0 0 0 0.25 0"/>
<feBlend mode="normal" in2="BackgroundImageFix" result="effect1_dropShadow_717_216"/>
<feBlend mode="normal" in="SourceGraphic" in2="effect1_dropShadow_717_216" result="shape"/>
</filter>
<clipPath id="clip0_717_216">
<rect x="775.979" y="412.703" width="388" height="223" rx="18" transform="rotate(4.78595 775.979 412.703)" fill="white"/>
</clipPath>
</defs>
</svg>
