<svg width="1920" height="1080" viewBox="0 0 1920 1080" fill="none" xmlns="http://www.w3.org/2000/svg">
<rect width="1920" height="1080" fill="#DDDDDD"/>
<g filter="url(#filter0_d_717_276)">
<g clip-path="url(#clip0_717_276)">
<rect x="197.516" y="364.216" width="1549" height="223" rx="18" transform="rotate(4.79 197.516 364.216)" fill="white"/>
<path d="M281.967 507.54C268.825 506.439 261.39 496.552 262.62 481.872L262.626 481.808C263.853 467.159 272.862 458.65 285.971 459.749C299.049 460.845 306.484 470.732 305.256 485.38L305.251 485.444C304.021 500.124 295.076 508.639 281.967 507.54ZM282.413 502.219C291.932 503.017 298.408 496.233 299.353 484.95L299.359 484.886C300.309 473.539 294.949 465.859 285.526 465.07C276.07 464.277 269.477 470.923 268.523 482.302L268.518 482.366C267.565 493.745 272.925 501.424 282.413 502.219ZM310.078 509.121L313.953 462.868L319.531 463.336L317.215 490.966L317.344 490.976L333.193 477.489L339.956 478.055L324.294 491.236L337.611 511.428L331.137 510.886L320.067 494.303L316.708 497.024L315.655 509.588L310.078 509.121ZM338.486 520.636L342.62 505.199L348.454 505.688L342.461 520.969L338.486 520.636ZM376.631 515.344C370.508 514.831 367.726 511.821 368.261 505.443L369.956 485.217L365.084 484.809L365.47 480.193L370.342 480.602L371.097 471.595L376.867 472.078L376.112 481.085L382.459 481.617L382.072 486.233L375.725 485.701L374.033 505.894C373.735 509.452 375.222 510.577 378.203 510.827C378.876 510.884 379.525 510.841 380.009 510.849L379.63 515.369C378.917 515.406 377.72 515.435 376.631 515.344ZM385.948 515.479L389.823 469.226L395.401 469.693L393.872 487.932L394.001 487.942C396.11 484.343 399.917 482.434 404.885 482.851C411.969 483.444 416.35 489.331 415.673 497.408L413.962 517.826L408.385 517.359L410.015 497.903C410.52 491.877 407.741 488.061 402.549 487.626C397.388 487.193 393.631 490.816 393.155 496.49L391.525 515.946L385.948 515.479ZM430.736 519.877C424.101 519.321 419.982 514.941 420.489 508.883L420.495 508.819C420.97 503.146 425.692 499.959 433.39 500.152L442.987 500.407L443.221 497.619C443.562 493.548 441.109 490.857 436.461 490.467C432.166 490.108 429.301 491.933 428.411 494.861L428.322 495.144L422.937 494.692L422.999 494.343C423.939 488.902 429.086 484.879 436.939 485.537C444.824 486.197 449.403 490.874 448.844 497.541L446.913 520.587L441.336 520.12L441.789 514.703L441.661 514.692C439.4 518.183 435.192 520.251 430.736 519.877ZM426.195 509.361C425.926 512.567 428.385 514.806 432.392 515.142C437.649 515.583 441.991 512.299 442.396 507.459L442.625 504.735L433.668 504.533C429.191 504.416 426.461 506.188 426.2 509.297L426.195 509.361ZM464.777 522.73C458.655 522.217 455.873 519.208 456.407 512.829L458.102 492.604L453.23 492.195L453.617 487.58L458.489 487.988L459.244 478.981L465.013 479.465L464.258 488.471L470.605 489.003L470.218 493.619L463.872 493.087L462.179 513.281C461.881 516.839 463.369 517.964 466.35 518.214C467.023 518.27 467.672 518.228 468.155 518.236L467.777 522.755C467.063 522.792 465.867 522.821 464.777 522.73ZM493.871 524.522L487.337 490.405L492.882 490.87L497.277 518.546L497.405 518.556L507.21 492.071L512.595 492.522L517.887 520.273L518.015 520.284L526.954 493.725L532.468 494.187L520.379 526.744L514.705 526.268L509.335 499.834L509.207 499.823L499.544 524.998L493.871 524.522ZM543.307 529.31C536.672 528.755 532.553 524.375 533.06 518.316L533.066 518.252C533.541 512.579 538.262 509.392 545.961 509.585L555.558 509.84L555.792 507.052C556.133 502.981 553.679 500.29 549.032 499.901C544.737 499.541 541.872 501.366 540.981 504.294L540.893 504.577L535.508 504.125L535.57 503.776C536.51 498.335 541.656 494.312 549.509 494.97C557.395 495.63 561.974 500.307 561.415 506.974L559.484 530.02L553.906 529.553L554.36 524.136L554.232 524.125C551.971 527.616 547.763 529.684 543.307 529.31ZM538.766 518.795C538.497 522 540.956 524.239 544.963 524.575C550.22 525.016 554.562 521.732 554.967 516.892L555.196 514.168L546.239 513.966C541.762 513.849 539.032 515.621 538.771 518.73L538.766 518.795ZM578.341 532.246C570.488 531.588 566.08 527.184 565.907 521.166L565.899 520.875L571.476 521.342L571.513 521.668C571.907 525.058 574.211 527.22 578.763 527.601C583.282 527.98 586.133 526.314 586.386 523.301L586.388 523.269C586.59 520.865 585.453 519.414 581.748 518.168L576.567 516.443C570.411 514.41 567.61 511.238 568.013 506.43L568.016 506.398C568.496 500.66 573.87 497.011 581.082 497.615C588.39 498.228 592.681 502.88 592.63 508.492L592.627 508.912L587.306 508.466L587.293 508.239C587.115 504.964 584.827 502.61 580.692 502.263C576.654 501.925 573.99 503.67 573.743 506.619L573.74 506.651C573.549 508.927 574.924 510.624 578.535 511.83L583.716 513.556C590.311 515.754 592.524 518.619 592.126 523.363L592.123 523.395C591.635 529.229 585.778 532.869 578.341 532.246ZM620.299 535.762C613.664 535.206 609.544 530.826 610.052 524.768L610.057 524.704C610.533 519.031 615.254 515.843 622.953 516.037L632.55 516.292L632.784 513.503C633.125 509.433 630.671 506.742 626.024 506.352C621.728 505.992 618.864 507.818 617.973 510.745L617.885 511.028L612.5 510.577L612.562 510.227C613.502 504.786 618.648 500.763 626.501 501.421C634.386 502.082 638.965 506.759 638.407 513.426L636.475 536.472L630.898 536.005L631.352 530.588L631.224 530.577C628.962 534.067 624.754 536.135 620.299 535.762ZM615.757 525.246C615.489 528.452 617.948 530.691 621.955 531.027C627.211 531.467 631.554 528.184 631.959 523.344L632.187 520.619L623.231 520.417C618.754 520.301 616.023 522.073 615.763 525.182L615.757 525.246ZM668.795 539.826C660.942 539.168 656.534 534.764 656.361 528.745L656.353 528.454L661.93 528.922L661.967 529.248C662.361 532.637 664.665 534.8 669.217 535.181C673.736 535.56 676.587 533.894 676.84 530.881L676.843 530.849C677.044 528.445 675.907 526.994 672.202 525.748L667.021 524.022C660.865 521.989 658.064 518.817 658.467 514.009L658.47 513.977C658.951 508.24 664.324 504.591 671.536 505.195C678.844 505.807 683.135 510.46 683.084 516.072L683.081 516.492L677.76 516.046L677.747 515.819C677.57 512.544 675.281 510.189 671.147 509.843C667.108 509.504 664.444 511.25 664.197 514.199L664.194 514.231C664.003 516.507 665.378 518.204 668.989 519.41L674.171 521.135C680.765 523.334 682.978 526.199 682.58 530.943L682.578 530.975C682.089 536.808 676.232 540.449 668.795 539.826ZM687.889 540.78L691.765 494.528L697.342 494.995L695.814 513.233L695.942 513.244C698.051 509.644 701.858 507.736 706.827 508.152C713.91 508.746 718.291 514.633 717.614 522.71L715.903 543.128L710.326 542.661L711.956 523.204C712.461 517.178 709.682 513.362 704.49 512.927C699.329 512.495 695.572 516.118 695.096 521.791L693.466 541.248L687.889 540.78ZM736.748 545.52C727.485 544.744 721.86 537.526 722.749 526.917L722.754 526.853C723.643 516.243 730.418 510.129 739.617 510.9C748.816 511.671 754.513 518.798 753.622 529.439L753.616 529.503C752.725 540.145 745.948 546.291 736.748 545.52ZM737.194 540.587C743.06 541.078 747.255 536.846 747.911 529.025L747.916 528.961C748.572 521.14 745.101 516.33 739.203 515.836C733.402 515.35 729.113 519.542 728.46 527.331L728.455 527.395C727.796 535.248 731.296 540.092 737.194 540.587ZM757.861 546.644L760.654 513.308L766.232 513.776L765.759 519.417L765.887 519.428C767.331 515.676 770.42 513.481 774.17 513.796C775.132 513.876 775.952 514.106 776.395 514.208L775.941 519.625C775.506 519.427 774.334 519.167 772.987 519.055C768.66 518.692 765.587 521.469 765.163 526.533L763.438 547.111L757.861 546.644ZM790.502 550.025C784.379 549.512 781.597 546.502 782.132 540.124L783.827 519.898L778.955 519.49L779.341 514.874L784.213 515.283L784.968 506.276L790.738 506.759L789.983 515.766L796.33 516.298L795.943 520.914L789.596 520.382L787.904 540.575C787.606 544.133 789.093 545.258 792.074 545.508C792.747 545.565 793.397 545.522 793.88 545.53L793.501 550.05C792.788 550.087 791.591 550.116 790.502 550.025ZM812.052 562.482L815.786 517.928L821.363 518.396L820.89 524.037L821.019 524.048C823.427 520.344 827.347 518.251 832.123 518.652C840.649 519.366 845.721 526.634 844.84 537.148L844.837 537.18C843.956 547.693 837.684 553.978 829.318 553.277C824.606 552.882 820.926 550.185 819.165 546.164L819.037 546.154L817.63 562.95L812.052 562.482ZM828.546 548.242C834.443 548.736 838.495 544.298 839.132 536.702L839.134 536.67C839.776 529.009 836.517 523.991 830.619 523.497C824.978 523.024 820.56 527.592 819.934 535.061L819.932 535.093C819.309 542.529 822.936 547.772 828.546 548.242ZM849.084 554.288L851.878 520.953L857.455 521.42L856.982 527.061L857.11 527.072C858.555 523.32 861.644 521.125 865.394 521.44C866.355 521.52 867.175 521.75 867.619 521.852L867.165 527.269C866.729 527.071 865.557 526.812 864.211 526.699C859.884 526.336 856.81 529.113 856.386 534.177L854.662 554.755L849.084 554.288ZM881.404 557.642C871.821 556.839 866.612 549.656 867.491 539.175L867.493 539.143C868.358 528.822 874.85 522.232 883.953 522.995C893.056 523.758 898.034 530.986 897.196 540.986L897.024 543.038L873.016 541.026C872.57 547.896 876.016 552.22 881.946 552.716C886.177 553.071 889.336 551.205 890.536 548.433L890.656 548.153L896.138 548.612L896.047 548.927C894.495 554.349 888.681 558.252 881.404 557.642ZM883.507 527.928C878.667 527.523 874.608 530.507 873.478 536.675L891.716 538.203C891.714 531.683 888.379 528.337 883.507 527.928ZM913.169 560.304C905.316 559.646 900.908 555.241 900.734 549.223L900.727 548.932L906.304 549.399L906.341 549.725C906.735 553.115 909.039 555.277 913.591 555.659C918.11 556.037 920.961 554.372 921.214 551.359L921.216 551.327C921.418 548.923 920.28 547.472 916.576 546.225L911.395 544.5C905.239 542.467 902.438 539.295 902.841 534.487L902.843 534.455C903.324 528.717 908.698 525.068 915.91 525.673C923.218 526.285 927.508 530.938 927.458 536.55L927.455 536.969L922.134 536.523L922.121 536.296C921.943 533.021 919.655 530.667 915.52 530.32C911.482 529.982 908.818 531.728 908.57 534.677L908.568 534.709C908.377 536.985 909.752 538.681 913.363 539.888L918.544 541.613C925.138 543.812 927.351 546.676 926.954 551.42L926.951 551.452C926.462 557.286 920.605 560.927 913.169 560.304ZM945.639 563.025C936.055 562.221 930.847 555.039 931.725 544.557L931.728 544.525C932.593 534.204 939.084 527.615 948.187 528.378C957.29 529.14 962.269 536.368 961.431 546.369L961.259 548.42L937.251 546.408C936.804 553.279 940.251 557.602 946.181 558.099C950.412 558.454 953.57 556.588 954.771 553.816L954.891 553.535L960.372 553.995L960.281 554.31C958.729 559.732 952.915 563.634 945.639 563.025ZM947.742 533.311C942.902 532.905 938.843 535.89 937.713 542.057L955.951 543.586C955.948 537.065 952.614 533.719 947.742 533.311ZM965.63 564.054L968.423 530.719L974.001 531.186L973.603 535.93L973.731 535.941C975.787 532.982 979.375 530.991 984.439 531.415C991.748 532.028 995.581 537.126 994.945 544.723L993.132 566.359L987.554 565.891L989.284 545.249C989.738 539.832 987.456 536.639 982.327 536.209C977.07 535.769 973.326 539.232 972.851 544.905L971.207 564.521L965.63 564.054ZM1011.03 568.504C1004.91 567.991 1002.12 564.982 1002.66 558.603L1004.35 538.378L999.481 537.969L999.867 533.354L1004.74 533.762L1005.49 524.755L1011.26 525.238L1010.51 534.245L1016.86 534.777L1016.47 539.393L1010.12 538.861L1008.43 559.055C1008.13 562.613 1009.62 563.738 1012.6 563.988C1013.27 564.044 1013.92 564.002 1014.41 564.01L1014.03 568.529C1013.31 568.566 1012.12 568.595 1011.03 568.504ZM1029.11 570.019C1022.47 569.463 1018.35 565.083 1018.86 559.025L1018.86 558.961C1019.34 553.287 1024.06 550.1 1031.76 550.293L1041.36 550.549L1041.59 547.76C1041.93 543.689 1039.48 540.998 1034.83 540.609C1030.54 540.249 1027.67 542.075 1026.78 545.002L1026.69 545.285L1021.31 544.834L1021.37 544.484C1022.31 539.043 1027.45 535.02 1035.31 535.678C1043.19 536.339 1047.77 541.015 1047.21 547.682L1045.28 570.729L1039.7 570.261L1040.16 564.844L1040.03 564.834C1037.77 568.324 1033.56 570.392 1029.11 570.019ZM1024.56 559.503C1024.3 562.708 1026.75 564.948 1030.76 565.283C1036.02 565.724 1040.36 562.44 1040.77 557.6L1040.99 554.876L1032.04 554.674C1027.56 554.557 1024.83 556.33 1024.57 559.439L1024.56 559.503ZM1063.15 572.871C1057.02 572.358 1054.24 569.349 1054.78 562.971L1056.47 542.745L1051.6 542.337L1051.99 537.721L1056.86 538.129L1057.61 529.122L1063.38 529.606L1062.63 538.613L1068.97 539.145L1068.59 543.76L1062.24 543.228L1060.55 563.422C1060.25 566.98 1061.74 568.105 1064.72 568.355C1065.39 568.411 1066.04 568.369 1066.52 568.377L1066.15 572.897C1065.43 572.934 1064.24 572.963 1063.15 572.871ZM1078.58 534.269C1076.66 534.108 1075.22 532.405 1075.38 530.482C1075.54 528.527 1077.24 527.12 1079.17 527.281C1081.12 527.445 1082.53 529.112 1082.37 531.068C1082.21 532.991 1080.54 534.433 1078.58 534.269ZM1072.53 573.012L1075.32 539.676L1080.9 540.144L1078.1 573.479L1072.53 573.012ZM1099.46 575.914C1090.2 575.138 1084.57 567.921 1085.46 557.311L1085.47 557.247C1086.36 546.637 1093.13 540.523 1102.33 541.294C1111.53 542.065 1117.23 549.192 1116.34 559.834L1116.33 559.898C1115.44 570.539 1108.66 576.685 1099.46 575.914ZM1099.91 570.981C1105.77 571.472 1109.97 567.24 1110.62 559.42L1110.63 559.355C1111.29 551.534 1107.82 546.725 1101.92 546.23C1096.12 545.744 1091.83 549.936 1091.17 557.725L1091.17 557.789C1090.51 565.642 1094.01 570.487 1099.91 570.981ZM1120.58 577.038L1123.37 543.703L1128.95 544.17L1128.55 548.914L1128.68 548.925C1130.73 545.966 1134.32 543.975 1139.38 544.399C1146.69 545.012 1150.53 550.11 1149.89 557.707L1148.08 579.343L1142.5 578.875L1144.23 558.233C1144.68 552.816 1142.4 549.623 1137.27 549.193C1132.02 548.753 1128.27 552.215 1127.8 557.889L1126.15 577.505L1120.58 577.038ZM1158.58 580.675C1156.53 580.503 1155.06 578.766 1155.24 576.715C1155.41 574.663 1157.15 573.195 1159.2 573.367C1161.25 573.539 1162.72 575.276 1162.54 577.327C1162.37 579.379 1160.64 580.847 1158.58 580.675ZM1193.14 583.119L1194.81 563.214L1180.61 535.491L1187.18 536.042L1198.07 557.87L1198.26 557.886L1212.63 538.174L1219.2 538.725L1200.58 563.697L1198.91 583.602L1193.14 583.119ZM1227.42 586.637C1218.16 585.86 1212.53 578.643 1213.42 568.033L1213.42 567.969C1214.31 557.36 1221.09 551.246 1230.29 552.017C1239.49 552.787 1245.18 559.914 1244.29 570.556L1244.29 570.62C1243.4 581.262 1236.62 587.408 1227.42 586.637ZM1227.86 581.703C1233.73 582.195 1237.93 577.963 1238.58 570.142L1238.59 570.078C1239.24 562.257 1235.77 557.447 1229.87 556.953C1224.07 556.467 1219.78 560.658 1219.13 568.447L1219.13 568.511C1218.47 576.364 1221.97 581.209 1227.86 581.703ZM1259.86 589.355C1252.55 588.742 1248.71 583.644 1249.35 576.047L1251.16 554.412L1256.74 554.879L1255.01 575.521C1254.56 580.938 1256.84 584.131 1261.97 584.561C1267.23 585.002 1270.97 581.539 1271.45 575.865L1273.09 556.249L1278.67 556.716L1275.87 590.051L1270.3 589.584L1270.69 584.84L1270.56 584.829C1268.51 587.788 1264.92 589.779 1259.86 589.355ZM1306.3 593.247C1299.67 592.691 1295.55 588.311 1296.05 582.253L1296.06 582.189C1296.54 576.515 1301.26 573.328 1308.96 573.521L1318.55 573.777L1318.79 570.988C1319.13 566.917 1316.67 564.226 1312.03 563.837C1307.73 563.477 1304.87 565.303 1303.98 568.23L1303.89 568.513L1298.5 568.062L1298.56 567.712C1299.5 562.271 1304.65 558.248 1312.5 558.906C1320.39 559.567 1324.97 564.243 1324.41 570.911L1322.48 593.957L1316.9 593.489L1317.35 588.072L1317.23 588.062C1314.97 591.552 1310.76 593.62 1306.3 593.247ZM1301.76 582.731C1301.49 585.936 1303.95 588.176 1307.96 588.512C1313.21 588.952 1317.56 585.668 1317.96 580.828L1318.19 578.104L1309.23 577.902C1304.76 577.785 1302.03 579.558 1301.77 582.667L1301.76 582.731ZM1329.56 594.55L1332.36 561.215L1337.93 561.682L1337.46 567.324L1337.59 567.335C1339.03 563.582 1342.12 561.388 1345.87 561.702C1346.83 561.783 1347.65 562.013 1348.1 562.114L1347.64 567.531C1347.21 567.334 1346.03 567.074 1344.69 566.961C1340.36 566.599 1337.29 569.375 1336.86 574.44L1335.14 595.018L1329.56 594.55ZM1361.88 597.904C1352.3 597.101 1347.09 589.919 1347.97 579.437L1347.97 579.405C1348.84 569.084 1355.33 562.494 1364.43 563.257C1373.53 564.02 1378.51 571.248 1377.67 581.249L1377.5 583.3L1353.49 581.288C1353.05 588.158 1356.49 592.482 1362.42 592.979C1366.65 593.333 1369.81 591.468 1371.01 588.695L1371.13 588.415L1376.62 588.874L1376.52 589.19C1374.97 594.611 1369.16 598.514 1361.88 597.904ZM1363.98 568.191C1359.14 567.785 1355.09 570.77 1353.96 576.937L1372.19 578.465C1372.19 571.945 1368.86 568.599 1363.98 568.191ZM1401.94 600.615L1395.4 566.498L1400.95 566.963L1405.34 594.639L1405.47 594.649L1415.28 568.164L1420.66 568.615L1425.95 596.366L1426.08 596.376L1435.02 569.818L1440.53 570.28L1428.45 602.837L1422.77 602.361L1417.4 575.927L1417.27 575.916L1407.61 601.091L1401.94 600.615ZM1455.99 605.79C1446.41 604.987 1441.2 597.805 1442.08 587.323L1442.08 587.291C1442.94 576.97 1449.44 570.38 1458.54 571.143C1467.64 571.906 1472.62 579.134 1471.78 589.134L1471.61 591.186L1447.6 589.174C1447.16 596.044 1450.6 600.368 1456.53 600.865C1460.76 601.219 1463.92 599.354 1465.12 596.581L1465.24 596.301L1470.72 596.76L1470.63 597.075C1469.08 602.497 1463.27 606.4 1455.99 605.79ZM1458.09 576.077C1453.25 575.671 1449.19 578.656 1448.06 584.823L1466.3 586.351C1466.3 579.831 1462.96 576.485 1458.09 576.077ZM1476.27 606.844L1480.15 560.591L1485.72 561.059L1481.85 607.311L1476.27 606.844ZM1503.14 609.741C1493.68 608.949 1488.25 601.715 1489.14 591.106L1489.15 591.074C1490.03 580.56 1496.71 574.342 1505.98 575.118C1514.28 575.814 1518.72 581.738 1518.95 587.503L1518.96 587.762L1513.51 587.305L1513.47 587.043C1512.91 583.64 1510.47 580.466 1505.56 580.055C1499.76 579.568 1495.48 584.051 1494.85 591.616L1494.84 591.648C1494.19 599.405 1497.78 604.322 1503.55 604.805C1508.11 605.186 1511.24 602.867 1512.48 599.226L1512.56 598.975L1518.05 599.435L1517.99 599.656C1516.57 605.928 1510.67 610.372 1503.14 609.741ZM1536.03 612.497C1526.76 611.721 1521.14 604.503 1522.03 593.894L1522.03 593.83C1522.92 583.22 1529.7 577.106 1538.9 577.877C1548.1 578.648 1553.79 585.774 1552.9 596.416L1552.9 596.48C1552 607.122 1545.23 613.268 1536.03 612.497ZM1536.47 607.564C1542.34 608.055 1546.53 603.823 1547.19 596.002L1547.19 595.938C1547.85 588.117 1544.38 583.307 1538.48 582.813C1532.68 582.327 1528.39 586.519 1527.74 594.308L1527.73 594.372C1527.08 602.225 1530.57 607.069 1536.47 607.564ZM1557.14 613.621L1559.93 580.285L1565.51 580.753L1565.1 585.625L1565.23 585.635C1567.01 582.46 1570.53 580.528 1574.83 580.888C1579.38 581.269 1582.55 583.891 1583.65 588.083L1583.78 588.094C1585.97 584.243 1590.08 582.166 1594.76 582.558C1601.37 583.112 1605.27 587.796 1604.71 594.431L1602.78 617.445L1597.21 616.978L1599.03 595.246C1599.41 590.662 1597.11 587.726 1592.72 587.358C1588.29 586.987 1584.91 590.028 1584.53 594.58L1582.75 615.767L1577.17 615.299L1579.05 592.958C1579.38 588.92 1576.91 586.034 1572.78 585.687C1568.36 585.316 1564.86 588.542 1564.47 593.189L1562.72 614.088L1557.14 613.621ZM1623.56 619.832C1613.98 619.029 1608.77 611.847 1609.65 601.365L1609.65 601.333C1610.52 591.012 1617.01 584.423 1626.11 585.185C1635.22 585.948 1640.19 593.176 1639.36 603.177L1639.18 605.228L1615.18 603.216C1614.73 610.086 1618.18 614.41 1624.11 614.907C1628.34 615.261 1631.5 613.396 1632.7 610.624L1632.82 610.343L1638.3 610.802L1638.21 611.118C1636.65 616.539 1630.84 620.442 1623.56 619.832ZM1625.67 590.119C1620.83 589.713 1616.77 592.698 1615.64 598.865L1633.88 600.393C1633.87 593.873 1630.54 590.527 1625.67 590.119ZM1647.47 605.729L1649.67 574.797L1655.44 575.281L1652.47 606.148L1647.47 605.729ZM1648.66 621.612C1646.61 621.44 1645.14 619.703 1645.31 617.652C1645.48 615.569 1647.22 614.132 1649.27 614.304C1651.35 614.479 1652.79 616.181 1652.62 618.264C1652.45 620.316 1650.74 621.787 1648.66 621.612Z" fill="black"/>
</g>
</g>
<defs>
<filter id="filter0_d_717_276" x="175.894" y="364.216" width="1568.21" height="357.569" filterUnits="userSpaceOnUse" color-interpolation-filters="sRGB">
<feFlood flood-opacity="0" result="BackgroundImageFix"/>
<feColorMatrix in="SourceAlpha" type="matrix" values="0 0 0 0 0 0 0 0 0 0 0 0 0 0 0 0 0 0 127 0" result="hardAlpha"/>
<feOffset dy="3"/>
<feGaussianBlur stdDeviation="1.5"/>
<feComposite in2="hardAlpha" operator="out"/>
<feColorMatrix type="matrix" values="0 0 0 0 0 0 0 0 0 0 0 0 0 0 0 0 0 0 0.25 0"/>
<feBlend mode="normal" in2="BackgroundImageFix" result="effect1_dropShadow_717_276"/>
<feBlend mode="normal" in="SourceGraphic" in2="effect1_dropShadow_717_276" result="shape"/>
</filter>
<clipPath id="clip0_717_276">
<rect x="197.516" y="364.216" width="1549" height="223" rx="18" transform="rotate(4.79 197.516 364.216)" fill="white"/>
</clipPath>
</defs>
</svg>
