<svg width="1920" height="1080" viewBox="0 0 1920 1080" fill="none" xmlns="http://www.w3.org/2000/svg">
<rect width="1920" height="1080" fill="#DDDDDD"/>
<g filter="url(#filter0_d_717_276)">
<g clip-path="url(#clip0_717_276)">
<rect x="179.934" y="513.809" width="1545" height="223" rx="18" transform="rotate(-6.29014 179.934 513.809)" fill="white"/>
<path d="M290.355 638.232C277.247 639.677 268.05 631.403 266.436 616.76L266.429 616.696C264.819 602.085 272.024 592.003 285.101 590.562C298.145 589.124 307.341 597.398 308.952 612.009L308.959 612.073C310.573 626.716 303.432 636.79 290.355 638.232ZM289.77 632.924C299.266 631.878 304.317 623.975 303.076 612.721L303.069 612.657C301.822 601.339 295.085 594.833 285.686 595.869C276.254 596.909 271.061 604.697 272.312 616.047L272.319 616.111C273.57 627.461 280.306 633.968 289.77 632.924ZM318.246 634.381L313.161 588.245L318.724 587.632L321.762 615.192L321.889 615.178L334.851 598.896L341.597 598.152L328.76 614.097L345.71 631.354L339.252 632.065L325.201 617.919L322.428 621.235L323.809 633.768L318.246 634.381ZM348.338 640.222L349.428 624.277L355.247 623.636L352.302 639.785L348.338 640.222ZM384.754 627.697C378.647 628.37 375.339 625.952 374.638 619.589L372.414 599.415L367.554 599.951L367.047 595.347L371.906 594.811L370.916 585.827L376.671 585.193L377.661 594.177L383.992 593.479L384.499 598.083L378.169 598.781L380.389 618.923C380.78 622.472 382.456 623.29 385.43 622.963C386.101 622.889 386.73 622.722 387.206 622.637L387.703 627.145C387.01 627.319 385.841 627.577 384.754 627.697ZM393.923 626.039L388.838 579.904L394.401 579.29L396.406 597.482L396.534 597.468C397.912 593.53 401.282 590.926 406.238 590.38C413.304 589.601 418.734 594.536 419.622 602.593L421.867 622.959L416.304 623.572L414.165 604.165C413.502 598.155 410.042 594.944 404.862 595.515C399.715 596.082 396.724 600.36 397.347 606.019L399.487 625.426L393.923 626.039ZM438.723 621.748C432.104 622.478 427.22 618.971 426.554 612.928L426.547 612.864C425.923 607.205 429.944 603.17 437.536 601.88L447.004 600.287L446.697 597.505C446.249 593.445 443.324 591.275 438.688 591.786C434.404 592.259 431.944 594.601 431.632 597.645L431.6 597.939L426.229 598.532L426.222 598.176C426.099 592.656 430.377 587.719 438.21 586.856C446.075 585.989 451.467 589.698 452.2 596.348L454.734 619.336L449.171 619.949L448.575 614.546L448.447 614.56C446.899 618.42 443.167 621.258 438.723 621.748ZM432.245 612.301C432.597 615.498 435.441 617.224 439.437 616.783C444.681 616.205 448.311 612.148 447.779 607.32L447.479 604.603L438.651 606.126C434.235 606.872 431.896 609.136 432.238 612.237L432.245 612.301ZM472.677 618.006C466.57 618.679 463.262 616.26 462.56 609.898L460.337 589.724L455.477 590.259L454.969 585.655L459.829 585.12L458.839 576.136L464.594 575.501L465.584 584.485L471.915 583.788L472.422 588.392L466.092 589.089L468.312 609.232C468.703 612.781 470.379 613.599 473.352 613.271C474.024 613.197 474.653 613.031 475.129 612.946L475.626 617.454C474.933 617.627 473.764 617.886 472.677 618.006ZM501.573 614.173L488.604 581.948L494.135 581.338L503.767 607.654L503.895 607.639L508.427 579.763L513.798 579.171L524.325 605.387L524.452 605.373L528.121 577.592L533.62 576.986L528.014 611.259L522.355 611.883L512.004 586.973L511.876 586.987L507.232 613.549L501.573 614.173ZM551.008 609.371C544.39 610.101 539.505 606.594 538.839 600.552L538.832 600.488C538.208 594.829 542.229 590.793 549.821 589.503L559.289 587.91L558.982 585.128C558.535 581.068 555.61 578.898 550.974 579.409C546.69 579.882 544.229 582.224 543.918 585.268L543.886 585.563L538.514 586.155L538.507 585.799C538.384 580.279 542.662 575.342 550.495 574.479C558.36 573.612 563.752 577.321 564.485 583.971L567.019 606.959L561.456 607.572L560.861 602.169L560.733 602.183C559.184 606.043 555.452 608.882 551.008 609.371ZM544.53 599.924C544.883 603.121 547.726 604.847 551.723 604.406C556.966 603.828 560.596 599.771 560.064 594.944L559.765 592.226L550.936 593.749C546.52 594.495 544.181 596.759 544.523 599.86L544.53 599.924ZM585.953 605.519C578.12 606.383 572.948 602.908 571.621 597.035L571.557 596.751L577.12 596.138L577.22 596.45C578.257 599.702 580.934 601.38 585.474 600.88C589.982 600.383 592.46 598.201 592.129 595.195L592.125 595.163C591.861 592.766 590.466 591.56 586.591 591.049L581.175 590.351C574.743 589.539 571.385 586.965 570.856 582.169L570.852 582.137C570.222 576.414 574.794 571.8 581.987 571.007C589.277 570.204 594.382 573.945 595.41 579.462L595.488 579.875L590.181 580.46L590.124 580.239C589.321 577.059 586.623 575.189 582.498 575.643C578.47 576.087 576.191 578.313 576.515 581.254L576.519 581.286C576.769 583.556 578.444 584.957 582.22 585.447L587.636 586.144C594.53 587.035 597.252 589.421 597.774 594.152L597.777 594.184C598.419 600.003 593.371 604.702 585.953 605.519ZM627.805 600.906C621.186 601.636 616.302 598.129 615.636 592.087L615.629 592.023C615.005 586.364 619.026 582.328 626.618 581.038L636.085 579.445L635.779 576.663C635.331 572.603 632.406 570.433 627.77 570.944C623.486 571.417 621.026 573.759 620.714 576.803L620.682 577.098L615.311 577.69L615.304 577.334C615.181 571.814 619.458 566.877 627.292 566.014C635.157 565.147 640.549 568.856 641.282 575.506L643.816 598.494L638.253 599.107L637.657 593.704L637.529 593.718C635.981 597.578 632.249 600.416 627.805 600.906ZM621.327 591.459C621.679 594.656 624.523 596.382 628.519 595.941C633.763 595.363 637.393 591.306 636.861 586.479L636.561 583.761L627.733 585.284C623.317 586.03 620.978 588.294 621.32 591.395L621.327 591.459ZM676.178 595.574C668.345 596.438 663.172 592.963 661.846 587.09L661.782 586.806L667.345 586.193L667.444 586.505C668.482 589.756 671.159 591.435 675.699 590.935C680.207 590.438 682.685 588.256 682.353 585.25L682.35 585.218C682.086 582.82 680.691 581.615 676.816 581.104L671.399 580.406C664.967 579.594 661.609 577.02 661.081 572.224L661.077 572.192C660.446 566.469 665.018 561.855 672.212 561.062C679.502 560.259 684.606 564 685.635 569.517L685.713 569.929L680.406 570.514L680.349 570.294C679.545 567.114 676.847 565.244 672.723 565.698C668.695 566.142 666.416 568.367 666.74 571.309L666.743 571.341C666.994 573.611 668.669 575.012 672.444 575.502L677.861 576.199C684.755 577.09 687.477 579.475 687.999 584.207L688.002 584.239C688.644 590.058 683.595 594.757 676.178 595.574ZM695.099 592.841L690.013 546.706L695.577 546.093L697.582 564.285L697.71 564.271C699.088 560.333 702.457 557.728 707.413 557.182C714.479 556.403 719.909 561.338 720.797 569.395L723.042 589.761L717.479 590.375L715.34 570.968C714.677 564.957 711.217 561.746 706.038 562.317C700.89 562.885 697.899 567.162 698.523 572.821L700.662 592.228L695.099 592.841ZM743.958 588.103C734.719 589.122 727.811 583.12 726.645 572.537L726.638 572.473C725.471 561.89 730.944 554.588 740.12 553.577C749.296 552.565 756.257 558.464 757.427 569.079L757.434 569.143C758.604 579.758 753.134 587.092 743.958 588.103ZM743.448 583.176C749.299 582.531 752.603 577.572 751.743 569.77L751.736 569.706C750.876 561.905 746.546 557.852 740.663 558.501C734.876 559.138 731.473 564.076 732.329 571.846L732.336 571.91C733.199 579.743 737.565 583.824 743.448 583.176ZM764.893 585.148L761.228 551.897L766.791 551.284L767.412 556.911L767.54 556.897C768.236 552.937 770.845 550.19 774.586 549.778C775.545 549.672 776.394 549.74 776.849 549.755L777.444 555.158C776.979 555.048 775.779 555.018 774.436 555.166C770.12 555.642 767.637 558.957 768.194 564.009L770.457 584.535L764.893 585.148ZM797.575 582.193C791.469 582.866 788.16 580.448 787.459 574.085L785.235 553.911L780.375 554.447L779.868 549.843L784.728 549.307L783.737 540.323L789.492 539.689L790.483 548.673L796.813 547.975L797.321 552.579L790.99 553.277L793.21 573.419C793.602 576.968 795.277 577.786 798.251 577.459C798.922 577.385 799.551 577.218 800.027 577.133L800.524 581.641C799.831 581.815 798.662 582.073 797.575 582.193ZM821.119 590.277L816.22 545.836L821.783 545.223L822.403 550.85L822.531 550.836C824.183 546.738 827.627 543.931 832.391 543.406C840.896 542.469 847.27 548.627 848.426 559.113L848.429 559.145C849.585 569.632 844.638 577.005 836.293 577.925C831.593 578.443 827.464 576.504 824.963 572.896L824.835 572.91L826.682 589.664L821.119 590.277ZM834.568 573.132C840.45 572.484 843.574 567.35 842.738 559.773L842.735 559.741C841.893 552.099 837.73 547.801 831.847 548.45C826.22 549.07 822.763 554.402 823.584 561.852L823.587 561.884C824.405 569.301 828.973 573.749 834.568 573.132ZM855.885 575.118L852.22 541.868L857.783 541.254L858.404 546.882L858.532 546.867C859.228 542.907 861.837 540.16 865.578 539.748C866.537 539.642 867.386 539.711 867.841 539.725L868.436 545.128C867.971 545.018 866.771 544.988 865.428 545.136C861.112 545.612 858.629 548.928 859.186 553.979L861.449 574.505L855.885 575.118ZM888.248 572.198C878.688 573.252 872.197 567.204 871.044 556.75L871.041 556.718C869.906 546.423 875.01 538.708 884.09 537.708C893.17 536.707 899.445 542.843 900.544 552.818L900.77 554.865L876.823 557.504C877.705 564.332 881.918 567.913 887.833 567.261C892.053 566.796 894.794 564.358 895.439 561.406L895.504 561.108L900.971 560.505L900.942 560.832C900.461 566.451 895.505 571.399 888.248 572.198ZM884.601 542.635C879.773 543.167 876.363 546.876 876.439 553.145L894.631 551.14C893.376 544.742 889.46 542.099 884.601 542.635ZM919.932 568.706C912.099 569.569 906.926 566.095 905.599 560.222L905.536 559.938L911.099 559.324L911.198 559.637C912.236 562.888 914.913 564.567 919.453 564.067C923.961 563.57 926.438 561.387 926.107 558.382L926.104 558.35C925.839 555.952 924.444 554.747 920.57 554.235L915.153 553.538C908.721 552.726 905.363 550.151 904.834 545.356L904.831 545.324C904.2 539.601 908.772 534.987 915.966 534.194C923.255 533.39 928.36 537.132 929.389 542.649L929.467 543.061L924.159 543.646L924.103 543.426C923.299 540.246 920.601 538.375 916.477 538.83C912.448 539.274 910.17 541.499 910.494 544.441L910.497 544.473C910.747 546.743 912.423 548.144 916.198 548.633L921.615 549.331C928.508 550.221 931.231 552.607 931.752 557.339L931.756 557.371C932.397 563.19 927.349 567.888 919.932 568.706ZM952.319 565.136C942.76 566.19 936.268 560.142 935.116 549.687L935.112 549.655C933.977 539.36 939.081 531.646 948.162 530.645C957.242 529.644 963.516 535.781 964.616 545.756L964.841 547.802L940.894 550.442C941.776 557.27 945.99 560.85 951.904 560.198C956.125 559.733 958.866 557.295 959.511 554.344L959.575 554.046L965.042 553.443L965.014 553.77C964.533 559.389 959.577 564.336 952.319 565.136ZM948.672 535.572C943.844 536.105 940.435 539.813 940.511 546.083L958.703 544.078C957.448 537.679 953.532 535.037 948.672 535.572ZM972.135 562.305L968.47 529.054L974.033 528.441L974.555 533.172L974.683 533.158C976.131 529.86 979.27 527.216 984.322 526.659C991.611 525.856 996.353 530.122 997.188 537.7L999.567 559.281L994.004 559.894L991.735 539.304C991.139 533.901 988.285 531.206 983.17 531.77C977.927 532.348 974.918 536.466 975.542 542.125L977.698 561.691L972.135 562.305ZM1017.54 557.947C1011.44 558.62 1008.13 556.202 1007.43 549.839L1005.2 529.665L1000.34 530.201L999.835 525.597L1004.69 525.061L1003.7 516.077L1009.46 515.442L1010.45 524.427L1016.78 523.729L1017.29 528.333L1010.96 529.031L1013.18 549.173C1013.57 552.722 1015.24 553.54 1018.22 553.212C1018.89 553.138 1019.52 552.972 1019.99 552.887L1020.49 557.395C1019.8 557.569 1018.63 557.827 1017.54 557.947ZM1035.57 555.959C1028.96 556.689 1024.07 553.182 1023.41 547.139L1023.4 547.075C1022.77 541.416 1026.8 537.381 1034.39 536.091L1043.86 534.498L1043.55 531.716C1043.1 527.656 1040.18 525.486 1035.54 525.997C1031.26 526.469 1028.8 528.812 1028.48 531.856L1028.45 532.15L1023.08 532.742L1023.07 532.387C1022.95 526.867 1027.23 521.93 1035.06 521.067C1042.93 520.2 1048.32 523.909 1049.05 530.559L1051.59 553.547L1046.02 554.16L1045.43 548.757L1045.3 548.771C1043.75 552.631 1040.02 555.469 1035.57 555.959ZM1029.1 546.512C1029.45 549.709 1032.29 551.434 1036.29 550.994C1041.53 550.416 1045.16 546.359 1044.63 541.531L1044.33 538.814L1035.5 540.337C1031.09 541.083 1028.75 543.347 1029.09 546.448L1029.1 546.512ZM1069.53 552.216C1063.42 552.89 1060.11 550.471 1059.41 544.109L1057.19 523.935L1052.33 524.47L1051.82 519.866L1056.68 519.331L1055.69 510.347L1061.45 509.712L1062.44 518.696L1068.77 517.999L1069.27 522.602L1062.94 523.3L1065.16 543.443C1065.55 546.991 1067.23 547.81 1070.2 547.482C1070.88 547.408 1071.5 547.242 1071.98 547.157L1072.48 551.665C1071.78 551.838 1070.62 552.097 1069.53 552.216ZM1077.26 511.367C1075.34 511.579 1073.6 510.185 1073.39 508.266C1073.17 506.316 1074.57 504.609 1076.49 504.397C1078.44 504.182 1080.14 505.548 1080.36 507.498C1080.57 509.416 1079.21 511.152 1077.26 511.367ZM1078.76 550.552L1075.1 517.301L1080.66 516.688L1084.32 549.938L1078.76 550.552ZM1105.75 548.224C1096.51 549.242 1089.61 543.24 1088.44 532.657L1088.43 532.593C1087.27 522.011 1092.74 514.709 1101.91 513.697C1111.09 512.686 1118.05 518.585 1119.22 529.2L1119.23 529.264C1120.4 539.878 1114.93 547.212 1105.75 548.224ZM1105.24 543.296C1111.09 542.651 1114.4 537.692 1113.54 529.891L1113.53 529.827C1112.67 522.026 1108.34 517.973 1102.46 518.621C1096.67 519.259 1093.27 524.197 1094.12 531.966L1094.13 532.03C1094.99 539.863 1099.36 543.945 1105.24 543.296ZM1126.69 545.269L1123.02 512.018L1128.59 511.405L1129.11 516.137L1129.23 516.123C1130.68 512.824 1133.82 510.18 1138.87 509.624C1146.16 508.82 1150.91 513.087 1151.74 520.664L1154.12 542.245L1148.56 542.858L1146.29 522.268C1145.69 516.865 1142.84 514.17 1137.72 514.734C1132.48 515.312 1129.47 519.43 1130.09 525.089L1132.25 544.656L1126.69 545.269ZM1164.69 541.533C1162.64 541.759 1160.87 540.336 1160.64 538.29C1160.42 536.244 1161.84 534.469 1163.88 534.244C1165.93 534.018 1167.7 535.44 1167.93 537.487C1168.16 539.533 1166.73 541.308 1164.69 541.533ZM1199.07 537.29L1196.88 517.436L1177.62 492.959L1184.17 492.237L1199.05 511.566L1199.24 511.545L1209.56 489.438L1216.11 488.716L1202.64 516.801L1204.83 536.656L1199.07 537.29ZM1233.38 534.155C1224.14 535.174 1217.24 529.172 1216.07 518.589L1216.06 518.525C1214.9 507.942 1220.37 500.64 1229.55 499.629C1238.72 498.618 1245.68 504.517 1246.85 515.131L1246.86 515.195C1248.03 525.81 1242.56 533.144 1233.38 534.155ZM1232.87 529.228C1238.72 528.583 1242.03 523.624 1241.17 515.822L1241.16 515.759C1240.3 507.957 1235.97 503.904 1230.09 504.553C1224.3 505.191 1220.9 510.129 1221.75 517.898L1221.76 517.962C1222.63 525.795 1226.99 529.876 1232.87 529.228ZM1265.74 530.589C1258.45 531.392 1253.71 527.126 1252.87 519.548L1250.49 497.967L1256.06 497.354L1258.33 517.944C1258.92 523.347 1261.78 526.042 1266.89 525.478C1272.14 524.9 1275.14 520.782 1274.52 515.123L1272.36 495.557L1277.93 494.943L1281.59 528.194L1276.03 528.807L1275.51 524.076L1275.38 524.09C1273.93 527.388 1270.79 530.032 1265.74 530.589ZM1312.07 525.482C1305.45 526.212 1300.56 522.705 1299.9 516.662L1299.89 516.598C1299.27 510.939 1303.29 506.904 1310.88 505.614L1320.35 504.021L1320.04 501.239C1319.59 497.179 1316.67 495.009 1312.03 495.52C1307.75 495.992 1305.29 498.335 1304.98 501.379L1304.94 501.673L1299.57 502.265L1299.57 501.91C1299.44 496.39 1303.72 491.453 1311.55 490.59C1319.42 489.723 1324.81 493.432 1325.54 500.082L1328.08 523.07L1322.52 523.683L1321.92 518.28L1321.79 518.294C1320.24 522.154 1316.51 524.992 1312.07 525.482ZM1305.59 516.035C1305.94 519.232 1308.79 520.957 1312.78 520.517C1318.03 519.939 1321.66 515.882 1321.12 511.054L1320.82 508.337L1312 509.86C1307.58 510.606 1305.24 512.87 1305.58 515.971L1305.59 516.035ZM1335.14 522.291L1331.48 489.04L1337.04 488.427L1337.66 494.054L1337.79 494.04C1338.49 490.08 1341.1 487.333 1344.84 486.921C1345.8 486.815 1346.64 486.883 1347.1 486.898L1347.7 492.301C1347.23 492.191 1346.03 492.161 1344.69 492.309C1340.37 492.785 1337.89 496.101 1338.44 501.152L1340.71 521.678L1335.14 522.291ZM1367.51 519.371C1357.95 520.425 1351.46 514.377 1350.3 503.922L1350.3 503.89C1349.16 493.595 1354.27 485.881 1363.35 484.88C1372.43 483.88 1378.7 490.016 1379.8 499.991L1380.03 502.037L1356.08 504.677C1356.96 511.505 1361.18 515.085 1367.09 514.434C1371.31 513.968 1374.05 511.53 1374.7 508.579L1374.76 508.281L1380.23 507.678L1380.2 508.005C1379.72 513.624 1374.76 518.571 1367.51 519.371ZM1363.86 489.808C1359.03 490.34 1355.62 494.049 1355.7 500.318L1373.89 498.313C1372.63 491.915 1368.72 489.272 1363.86 489.808ZM1407.34 514.334L1394.37 482.108L1399.9 481.499L1409.53 507.814L1409.66 507.8L1414.19 479.923L1419.56 479.331L1430.09 505.548L1430.22 505.534L1433.89 477.753L1439.38 477.146L1433.78 511.419L1428.12 512.043L1417.77 487.134L1417.64 487.148L1413 513.71L1407.34 514.334ZM1461.38 509.024C1451.82 510.078 1445.32 504.03 1444.17 493.575L1444.17 493.544C1443.03 483.249 1448.14 475.534 1457.22 474.533C1466.3 473.533 1472.57 479.669 1473.67 489.644L1473.9 491.69L1449.95 494.33C1450.83 501.158 1455.05 504.739 1460.96 504.087C1465.18 503.621 1467.92 501.183 1468.57 498.232L1468.63 497.934L1474.1 497.331L1474.07 497.658C1473.59 503.277 1468.63 508.224 1461.38 509.024ZM1457.73 479.461C1452.9 479.993 1449.49 483.702 1449.57 489.971L1467.76 487.966C1466.5 481.568 1462.59 478.925 1457.73 479.461ZM1481.48 506.161L1476.39 460.026L1481.96 459.412L1487.04 505.548L1481.48 506.161ZM1508.41 503.84C1498.97 504.88 1492.26 498.825 1491.09 488.242L1491.09 488.21C1489.93 477.723 1495.3 470.336 1504.54 469.318C1512.82 468.405 1518.32 473.365 1519.65 478.978L1519.71 479.231L1514.27 479.83L1514.18 479.581C1512.98 476.348 1509.97 473.702 1505.08 474.241C1499.29 474.879 1495.95 480.101 1496.78 487.647L1496.79 487.679C1497.64 495.416 1502.11 499.551 1507.86 498.917C1512.4 498.416 1515.03 495.538 1515.55 491.727L1515.59 491.464L1521.05 490.861L1521.05 491.089C1520.85 497.518 1515.92 503.012 1508.41 503.84ZM1541.21 500.224C1531.97 501.243 1525.06 495.241 1523.9 484.658L1523.89 484.594C1522.72 474.012 1528.2 466.71 1537.37 465.698C1546.55 464.687 1553.51 470.586 1554.68 481.201L1554.69 481.265C1555.86 491.879 1550.39 499.213 1541.21 500.224ZM1540.7 495.297C1546.55 494.652 1549.85 489.693 1548.99 481.892L1548.99 481.828C1548.13 474.027 1543.8 469.974 1537.91 470.622C1532.13 471.26 1528.72 476.198 1529.58 483.967L1529.59 484.031C1530.45 491.864 1534.82 495.946 1540.7 495.297ZM1562.14 497.27L1558.48 464.019L1564.04 463.406L1564.58 468.265L1564.71 468.251C1565.85 464.793 1568.93 462.22 1573.21 461.748C1577.75 461.247 1581.37 463.211 1583.25 467.113L1583.38 467.099C1584.79 462.898 1588.43 460.07 1593.1 459.556C1599.68 458.83 1604.41 462.677 1605.14 469.295L1607.67 492.251L1602.11 492.864L1599.72 471.188C1599.22 466.616 1596.39 464.176 1592.01 464.659C1587.6 465.145 1584.86 468.78 1585.36 473.32L1587.69 494.454L1582.13 495.067L1579.67 472.783C1579.23 468.754 1576.25 466.397 1572.12 466.851C1567.71 467.338 1564.9 471.175 1565.41 475.811L1567.71 496.656L1562.14 497.27ZM1628.53 490.6C1618.97 491.654 1612.47 485.606 1611.32 475.151L1611.32 475.119C1610.18 464.824 1615.29 457.11 1624.37 456.109C1633.45 455.108 1639.72 461.245 1640.82 471.22L1641.05 473.266L1617.1 475.906C1617.98 482.734 1622.2 486.314 1628.11 485.662C1632.33 485.197 1635.07 482.759 1635.72 479.808L1635.78 479.51L1641.25 478.907L1641.22 479.234C1640.74 484.853 1635.78 489.8 1628.53 490.6ZM1624.88 461.036C1620.05 461.568 1616.64 465.277 1616.72 471.547L1634.91 469.542C1633.65 463.143 1629.74 460.501 1624.88 461.036ZM1651.81 487.839C1649.77 488.065 1647.99 486.642 1647.76 484.596C1647.54 482.55 1648.96 480.775 1651.01 480.549C1653.05 480.324 1654.83 481.746 1655.05 483.793C1655.28 485.839 1653.86 487.614 1651.81 487.839Z" fill="black"/>
</g>
</g>
<defs>
<filter id="filter0_d_717_276" x="176.934" y="344.534" width="1566.13" height="396.933" filterUnits="userSpaceOnUse" color-interpolation-filters="sRGB">
<feFlood flood-opacity="0" result="BackgroundImageFix"/>
<feColorMatrix in="SourceAlpha" type="matrix" values="0 0 0 0 0 0 0 0 0 0 0 0 0 0 0 0 0 0 127 0" result="hardAlpha"/>
<feOffset dy="3"/>
<feGaussianBlur stdDeviation="1.5"/>
<feComposite in2="hardAlpha" operator="out"/>
<feColorMatrix type="matrix" values="0 0 0 0 0 0 0 0 0 0 0 0 0 0 0 0 0 0 0.25 0"/>
<feBlend mode="normal" in2="BackgroundImageFix" result="effect1_dropShadow_717_276"/>
<feBlend mode="normal" in="SourceGraphic" in2="effect1_dropShadow_717_276" result="shape"/>
</filter>
<clipPath id="clip0_717_276">
<rect x="179.934" y="513.809" width="1545" height="223" rx="18" transform="rotate(-6.29014 179.934 513.809)" fill="white"/>
</clipPath>
</defs>
</svg>
