<svg width="1920" height="1080" viewBox="0 0 1920 1080" fill="none" xmlns="http://www.w3.org/2000/svg">
<rect width="1920" height="1080" fill="#DDDDDD"/>
<g filter="url(#filter0_d_719_321)">
<g clip-path="url(#clip0_719_321)">
<rect x="437.904" y="344.721" width="1073.16" height="302" rx="18" transform="rotate(4.79 437.904 344.721)" fill="white"/>
<path d="M515.592 486.704L517.26 466.799L503.057 439.076L509.628 439.627L520.516 461.455L520.709 461.472L535.078 441.759L541.649 442.31L523.03 467.282L521.362 487.188L515.592 486.704ZM549.868 490.222C540.604 489.446 534.979 482.228 535.868 471.618L535.874 471.554C536.763 460.945 543.537 454.831 552.736 455.602C561.936 456.372 567.633 463.499 566.741 474.141L566.736 474.205C565.844 484.847 559.067 490.993 549.868 490.222ZM550.313 485.288C556.179 485.78 560.375 481.548 561.03 473.727L561.036 473.663C561.691 465.842 558.221 461.032 552.323 460.538C546.521 460.052 542.232 464.243 541.579 472.032L541.574 472.097C540.916 479.95 544.416 484.794 550.313 485.288ZM582.306 492.94C574.997 492.328 571.164 487.229 571.8 479.633L573.614 457.997L579.191 458.464L577.461 479.106C577.007 484.523 579.29 487.716 584.418 488.146C589.675 488.587 593.419 485.124 593.894 479.45L595.538 459.834L601.115 460.301L598.322 493.636L592.745 493.169L593.142 488.425L593.014 488.415C590.958 491.373 587.37 493.364 582.306 492.94ZM632.821 497.173C623.366 496.381 617.936 489.147 618.825 478.538L618.828 478.506C619.709 467.992 626.395 461.774 635.658 462.55C643.96 463.246 648.402 469.17 648.629 474.935L648.64 475.194L643.191 474.737L643.148 474.475C642.594 471.072 640.149 467.897 635.244 467.486C629.443 467 625.162 471.483 624.528 479.048L624.525 479.08C623.875 486.837 627.465 491.753 633.235 492.237C637.787 492.618 640.918 490.298 642.159 486.658L642.245 486.407L647.726 486.866L647.675 487.088C646.246 493.359 640.354 497.804 632.821 497.173ZM661.637 499.588C655.002 499.032 650.883 494.652 651.39 488.594L651.396 488.53C651.871 482.856 656.592 479.669 664.291 479.862L673.888 480.118L674.122 477.329C674.463 473.258 672.01 470.567 667.362 470.178C663.067 469.818 660.202 471.644 659.311 474.571L659.223 474.854L653.838 474.403L653.9 474.053C654.84 468.612 659.987 464.589 667.84 465.247C675.725 465.908 680.304 470.584 679.745 477.251L677.814 500.298L672.236 499.83L672.69 494.413L672.562 494.403C670.301 497.893 666.093 499.961 661.637 499.588ZM657.096 489.072C656.827 492.277 659.286 494.517 663.293 494.852C668.55 495.293 672.892 492.009 673.297 487.169L673.526 484.445L664.569 484.243C660.092 484.126 657.362 485.898 657.101 489.008L657.096 489.072ZM684.897 500.891L687.691 467.556L693.268 468.023L692.871 472.767L692.999 472.778C695.054 469.819 698.643 467.828 703.707 468.252C711.015 468.865 714.849 473.963 714.212 481.56L712.399 503.196L706.822 502.728L708.552 482.086C709.006 476.669 706.723 473.476 701.595 473.046C696.338 472.606 692.594 476.069 692.119 481.742L690.475 501.359L684.897 500.891ZM742.668 506.378C736.033 505.822 731.913 501.442 732.421 495.384L732.426 495.32C732.902 489.646 737.623 486.459 745.321 486.652L754.919 486.908L755.153 484.119C755.494 480.048 753.04 477.357 748.392 476.968C744.097 476.608 741.233 478.434 740.342 481.361L740.254 481.644L734.869 481.193L734.93 480.843C735.87 475.402 741.017 471.379 748.87 472.037C756.755 472.698 761.334 477.374 760.775 484.041L758.844 507.088L753.267 506.62L753.721 501.203L753.593 501.193C751.331 504.683 747.123 506.751 742.668 506.378ZM738.126 495.862C737.858 499.067 740.317 501.307 744.323 501.642C749.58 502.083 753.922 498.799 754.328 493.959L754.556 491.235L745.6 491.033C741.123 490.916 738.392 492.689 738.132 495.798L738.126 495.862ZM766.216 507.705L770.092 461.453L775.67 461.92L771.794 508.173L766.216 507.705ZM791.1 510.436C783.247 509.778 778.839 505.374 778.665 499.356L778.658 499.065L784.235 499.532L784.272 499.858C784.666 503.248 786.97 505.41 791.522 505.791C796.041 506.17 798.892 504.504 799.145 501.491L799.147 501.459C799.349 499.055 798.211 497.604 794.507 496.358L789.326 494.633C783.17 492.6 780.369 489.428 780.772 484.62L780.774 484.588C781.255 478.85 786.629 475.201 793.841 475.805C801.149 476.418 805.439 481.07 805.389 486.682L805.386 487.102L800.065 486.656L800.052 486.429C799.874 483.154 797.586 480.8 793.451 480.453C789.413 480.115 786.749 481.86 786.501 484.809L786.499 484.841C786.308 487.117 787.683 488.814 791.294 490.02L796.475 491.746C803.069 493.944 805.282 496.809 804.885 501.553L804.882 501.585C804.393 507.419 798.536 511.059 791.1 510.436ZM823.666 513.165C814.403 512.389 808.778 505.171 809.667 494.562L809.672 494.498C810.561 483.888 817.336 477.774 826.535 478.545C835.734 479.316 841.431 486.443 840.54 497.084L840.534 497.148C839.642 507.79 832.865 513.936 823.666 513.165ZM824.112 508.232C829.978 508.723 834.173 504.491 834.829 496.67L834.834 496.606C835.489 488.785 832.019 483.975 826.121 483.481C820.32 482.995 816.031 487.187 815.378 494.976L815.372 495.04C814.714 502.893 818.214 507.737 824.112 508.232ZM867.932 516.874C861.297 516.318 857.177 511.938 857.685 505.88L857.69 505.816C858.165 500.143 862.887 496.956 870.585 497.149L880.183 497.404L880.416 494.616C880.758 490.545 878.304 487.854 873.656 487.464C869.361 487.105 866.497 488.93 865.606 491.858L865.518 492.141L860.133 491.689L860.194 491.34C861.134 485.899 866.281 481.876 874.134 482.534C882.019 483.194 886.598 487.871 886.039 494.538L884.108 517.584L878.531 517.117L878.985 511.7L878.857 511.689C876.595 515.18 872.387 517.248 867.932 516.874ZM863.39 506.359C863.122 509.564 865.581 511.803 869.587 512.139C874.844 512.58 879.186 509.296 879.592 504.456L879.82 501.732L870.864 501.53C866.387 501.413 863.656 503.185 863.396 506.294L863.39 506.359ZM903.671 519.869C895.145 519.155 890.073 511.887 890.954 501.373L890.957 501.341C891.838 490.828 898.11 484.543 906.476 485.244C911.187 485.639 914.867 488.336 916.628 492.357L916.757 492.367L918.306 473.873L923.884 474.34L920.008 520.593L914.43 520.125L914.903 514.484L914.775 514.473C912.367 518.177 908.447 520.269 903.671 519.869ZM905.174 515.024C910.816 515.497 915.233 510.929 915.859 503.46L915.862 503.428C916.485 495.992 912.857 490.749 907.248 490.279C901.35 489.785 897.299 494.223 896.662 501.819L896.659 501.851C896.017 509.512 899.277 514.53 905.174 515.024ZM940.019 522.915C931.493 522.201 926.421 514.933 927.302 504.419L927.305 504.387C928.186 493.874 934.458 487.589 942.824 488.29C947.536 488.684 951.216 491.381 952.977 495.402L953.105 495.413L954.655 476.918L960.232 477.386L956.356 523.639L950.779 523.171L951.252 517.53L951.123 517.519C948.715 521.223 944.795 523.315 940.019 522.915ZM941.523 518.07C947.164 518.543 951.582 513.975 952.208 506.506L952.21 506.474C952.833 499.038 949.206 493.795 943.596 493.325C937.699 492.831 933.647 497.269 933.01 504.865L933.008 504.897C932.366 512.558 935.625 517.576 941.523 518.07ZM996.55 527.781C985.075 526.82 978.732 519.316 979.575 509.251L982.092 479.218L987.862 479.701L985.377 509.35C984.781 516.466 988.983 521.789 996.996 522.461C1005.01 523.132 1009.97 518.577 1010.57 511.461L1013.06 481.812L1018.83 482.296L1016.31 512.33C1015.47 522.394 1008.03 528.743 996.55 527.781ZM1023.92 529.301L1027.8 483.048L1045.14 484.501C1054.05 485.248 1059.43 491.185 1058.73 499.519L1058.73 499.583C1058.19 505.994 1054.25 510.667 1048.32 512.01L1057.42 532.107L1050.66 531.541L1042.29 512.408L1031.23 511.482L1029.69 529.784L1023.92 529.301ZM1031.65 506.385L1042.71 507.312C1048.64 507.809 1052.28 504.885 1052.75 499.212L1052.76 499.148C1053.22 493.635 1049.87 490.062 1043.94 489.565L1033.14 488.66L1031.65 506.385ZM1063.29 532.599L1067.16 486.346L1072.93 486.83L1069.49 527.89L1091.8 529.759L1091.36 534.952L1063.29 532.599ZM1108.62 537.043C1100.77 536.385 1096.36 531.981 1096.18 525.963L1096.18 525.672L1101.75 526.139L1101.79 526.465C1102.18 529.855 1104.49 532.017 1109.04 532.398C1113.56 532.777 1116.41 531.111 1116.66 528.098L1116.67 528.066C1116.87 525.662 1115.73 524.211 1112.03 522.965L1106.84 521.24C1100.69 519.207 1097.89 516.035 1098.29 511.227L1098.29 511.195C1098.77 505.457 1104.15 501.808 1111.36 502.412C1118.67 503.025 1122.96 507.677 1122.91 513.289L1122.9 513.709L1117.58 513.263L1117.57 513.036C1117.39 509.761 1115.11 507.407 1110.97 507.06C1106.93 506.722 1104.27 508.467 1104.02 511.416L1104.02 511.448C1103.83 513.724 1105.2 515.421 1108.81 516.627L1113.99 518.353C1120.59 520.551 1122.8 523.416 1122.4 528.16L1122.4 528.192C1121.91 534.026 1116.06 537.666 1108.62 537.043ZM1147.29 500.388C1145.37 500.227 1143.93 498.525 1144.09 496.602C1144.26 494.646 1145.96 493.239 1147.88 493.4C1149.83 493.564 1151.24 495.232 1151.08 497.187C1150.92 499.11 1149.25 500.552 1147.29 500.388ZM1141.24 539.131L1144.03 505.796L1149.61 506.263L1146.82 539.598L1141.24 539.131ZM1154.41 540.235L1157.21 506.9L1162.78 507.367L1162.39 512.111L1162.51 512.122C1164.57 509.163 1168.16 507.172 1173.22 507.596C1180.53 508.209 1184.36 513.307 1183.73 520.904L1181.91 542.54L1176.34 542.072L1178.07 521.43C1178.52 516.013 1176.24 512.82 1171.11 512.39C1165.85 511.95 1162.11 515.412 1161.63 521.086L1159.99 540.702L1154.41 540.235ZM1200.8 544.768C1192.95 544.11 1188.54 539.706 1188.37 533.687L1188.36 533.396L1193.94 533.864L1193.98 534.19C1194.37 537.58 1196.67 539.742 1201.23 540.123C1205.75 540.502 1208.6 538.836 1208.85 535.823L1208.85 535.791C1209.05 533.387 1207.92 531.936 1204.21 530.69L1199.03 528.964C1192.87 526.931 1190.07 523.759 1190.48 518.951L1190.48 518.919C1190.96 513.182 1196.33 509.533 1203.54 510.137C1210.85 510.75 1215.14 515.402 1215.09 521.014L1215.09 521.434L1209.77 520.988L1209.76 520.761C1209.58 517.486 1207.29 515.131 1203.16 514.785C1199.12 514.446 1196.45 516.192 1196.21 519.141L1196.2 519.173C1196.01 521.449 1197.39 523.146 1201 524.352L1206.18 526.077C1212.77 528.276 1214.99 531.141 1214.59 535.885L1214.59 535.917C1214.1 541.75 1208.24 545.391 1200.8 544.768ZM1226.02 506.985C1224.09 506.824 1222.65 505.121 1222.82 503.198C1222.98 501.243 1224.68 499.836 1226.6 499.997C1228.56 500.161 1229.97 501.828 1229.8 503.784C1229.64 505.707 1227.97 507.149 1226.02 506.985ZM1219.96 545.728L1222.76 512.392L1228.33 512.86L1225.54 546.195L1219.96 545.728ZM1245.61 548.523C1237.09 547.809 1232.02 540.541 1232.9 530.027L1232.9 529.995C1233.78 519.482 1240.05 513.196 1248.42 513.897C1253.13 514.292 1256.81 516.989 1258.57 521.01L1258.7 521.021L1260.25 502.526L1265.83 502.994L1261.95 549.246L1256.37 548.779L1256.85 543.138L1256.72 543.127C1254.31 546.831 1250.39 548.923 1245.61 548.523ZM1247.12 543.678C1252.76 544.151 1257.18 539.582 1257.8 532.114L1257.81 532.082C1258.43 524.646 1254.8 519.403 1249.19 518.933C1243.29 518.439 1239.24 522.877 1238.61 530.473L1238.6 530.505C1237.96 538.166 1241.22 543.184 1247.12 543.678ZM1283.15 551.668C1273.56 550.865 1268.36 543.683 1269.24 533.201L1269.24 533.169C1270.1 522.848 1276.59 516.258 1285.7 517.021C1294.8 517.784 1299.78 525.012 1298.94 535.013L1298.77 537.064L1274.76 535.052C1274.31 541.922 1277.76 546.246 1283.69 546.743C1287.92 547.097 1291.08 545.232 1292.28 542.459L1292.4 542.179L1297.88 542.638L1297.79 542.953C1296.24 548.375 1290.42 552.278 1283.15 551.668ZM1285.25 521.955C1280.41 521.549 1276.35 524.534 1275.22 530.701L1293.46 532.229C1293.46 525.709 1290.12 522.363 1285.25 521.955ZM509.166 566.088C499.711 565.296 494.281 558.062 495.17 547.453L495.172 547.421C496.053 536.907 502.74 530.689 512.003 531.465C520.305 532.161 524.747 538.085 524.974 543.85L524.985 544.109L519.536 543.652L519.493 543.39C518.939 539.987 516.494 536.812 511.589 536.401C505.788 535.915 501.506 540.398 500.873 547.963L500.87 547.995C500.22 555.752 503.81 560.668 509.58 561.152C514.131 561.533 517.263 559.213 518.504 555.573L518.59 555.322L524.071 555.781L524.02 556.003C522.591 562.274 516.699 566.719 509.166 566.088ZM542.053 568.844C532.79 568.068 527.165 560.85 528.054 550.24L528.059 550.176C528.948 539.567 535.722 533.453 544.922 534.224C554.121 534.995 559.818 542.121 558.926 552.763L558.921 552.827C558.029 563.469 551.252 569.615 542.053 568.844ZM542.499 563.91C548.364 564.402 552.56 560.17 553.215 552.349L553.221 552.285C553.876 544.464 550.406 539.654 544.508 539.16C538.706 538.674 534.417 542.866 533.764 550.654L533.759 550.719C533.101 558.572 536.601 563.416 542.499 563.91ZM563.166 569.967L565.959 536.632L571.536 537.099L571.128 541.972L571.256 541.982C573.039 538.807 576.558 536.875 580.853 537.235C585.405 537.616 588.574 540.238 589.676 544.43L589.804 544.44C591.999 540.589 596.111 538.513 600.79 538.905C607.393 539.459 611.294 544.143 610.738 550.778L608.809 573.792L603.232 573.325L605.053 551.593C605.437 547.009 603.133 544.072 598.742 543.704C594.319 543.334 590.933 546.375 590.551 550.926L588.776 572.113L583.199 571.646L585.071 549.305C585.409 545.266 582.94 542.38 578.805 542.034C574.382 541.663 570.884 544.888 570.494 549.536L568.743 570.435L563.166 569.967ZM615.925 574.388L618.719 541.053L624.296 541.52L623.888 546.393L624.016 546.403C625.799 543.228 629.318 541.296 633.613 541.656C638.164 542.037 641.334 544.659 642.435 548.851L642.563 548.861C644.758 545.01 648.87 542.934 653.55 543.326C660.153 543.88 664.053 548.564 663.497 555.199L661.569 578.213L655.992 577.746L657.813 556.014C658.197 551.43 655.893 548.494 651.502 548.126C647.078 547.755 643.692 550.796 643.311 555.347L641.536 576.535L635.958 576.067L637.83 553.726C638.169 549.687 635.699 546.801 631.565 546.455C627.141 546.084 623.643 549.309 623.254 553.957L621.502 574.856L615.925 574.388ZM682.35 580.6C672.766 579.797 667.558 572.615 668.436 562.133L668.439 562.101C669.304 551.78 675.795 545.19 684.898 545.953C694.001 546.716 698.98 553.944 698.142 563.944L697.97 565.996L673.962 563.984C673.515 570.854 676.962 575.178 682.892 575.675C687.123 576.029 690.281 574.164 691.481 571.391L691.602 571.111L697.083 571.57L696.992 571.885C695.44 577.307 689.626 581.21 682.35 580.6ZM684.452 550.887C679.612 550.481 675.553 553.466 674.423 559.633L692.662 561.161C692.659 554.641 689.324 551.295 684.452 550.887ZM702.341 581.63L705.134 548.294L710.711 548.762L710.314 553.506L710.442 553.516C712.497 550.558 716.086 548.567 721.15 548.991C728.458 549.603 732.292 554.702 731.655 562.298L729.842 583.934L724.265 583.467L725.995 562.825C726.449 557.408 724.166 554.215 719.038 553.785C713.781 553.344 710.037 556.807 709.562 562.481L707.918 582.097L702.341 581.63ZM747.738 586.08C741.616 585.567 738.834 582.557 739.369 576.179L741.063 555.953L736.191 555.545L736.578 550.929L741.45 551.338L742.205 542.331L747.975 542.814L747.22 551.821L753.566 552.353L753.18 556.969L746.833 556.437L745.141 576.63C744.843 580.188 746.33 581.313 749.311 581.563C749.984 581.62 750.633 581.577 751.117 581.585L750.738 586.105C750.025 586.142 748.828 586.171 747.738 586.08ZM768.541 587.823C760.688 587.165 756.28 582.76 756.106 576.742L756.098 576.451L761.676 576.918L761.713 577.244C762.107 580.634 764.411 582.796 768.962 583.178C773.482 583.556 776.333 581.891 776.585 578.878L776.588 578.846C776.789 576.442 775.652 574.991 771.948 573.744L766.766 572.019C760.61 569.986 757.81 566.814 758.212 562.006L758.215 561.974C758.696 556.237 764.069 552.587 771.281 553.192C778.59 553.804 782.88 558.457 782.829 564.069L782.826 564.488L777.506 564.042L777.492 563.815C777.315 560.54 775.027 558.186 770.892 557.84C766.853 557.501 764.189 559.247 763.942 562.196L763.939 562.228C763.749 564.504 765.124 566.2 768.735 567.407L773.916 569.132C780.51 571.331 782.723 574.195 782.326 578.939L782.323 578.971C781.834 584.805 775.977 588.446 768.541 587.823ZM810.498 591.339C803.863 590.783 799.744 586.403 800.251 580.345L800.257 580.28C800.732 574.607 805.454 571.42 813.152 571.613L822.75 571.869L822.983 569.08C823.324 565.009 820.871 562.318 816.223 561.929C811.928 561.569 809.064 563.395 808.173 566.322L808.084 566.605L802.699 566.154L802.761 565.804C803.701 560.363 808.848 556.34 816.701 556.998C824.586 557.659 829.165 562.335 828.606 569.002L826.675 592.049L821.098 591.581L821.552 586.164L821.423 586.154C819.162 589.644 814.954 591.712 810.498 591.339ZM805.957 580.823C805.688 584.028 808.147 586.268 812.154 586.603C817.411 587.044 821.753 583.76 822.159 578.92L822.387 576.196L813.431 575.994C808.954 575.877 806.223 577.649 805.962 580.759L805.957 580.823ZM833.759 592.642L836.552 559.307L842.129 559.774L841.732 564.518L841.86 564.529C843.916 561.57 847.504 559.579 852.568 560.003C859.876 560.616 863.71 565.714 863.073 573.311L861.26 594.947L855.683 594.479L857.413 573.837C857.867 568.42 855.584 565.227 850.456 564.797C845.199 564.357 841.455 567.82 840.98 573.493L839.336 593.11L833.759 592.642ZM880.855 597.234C872.329 596.52 867.257 589.252 868.138 578.738L868.141 578.706C869.022 568.193 875.294 561.908 883.66 562.609C888.372 563.004 892.051 565.701 893.813 569.722L893.941 569.732L895.491 551.238L901.068 551.705L897.192 597.958L891.615 597.49L892.087 591.849L891.959 591.838C889.551 595.542 885.631 597.634 880.855 597.234ZM882.359 592.389C888 592.862 892.418 588.294 893.044 580.825L893.046 580.793C893.669 573.357 890.042 568.114 884.432 567.644C878.534 567.15 874.483 571.588 873.846 579.184L873.844 579.216C873.202 586.877 876.461 591.895 882.359 592.389ZM928.967 601.266C922.845 600.753 920.063 597.744 920.597 591.365L922.292 571.14L917.42 570.731L917.807 566.116L922.679 566.524L923.434 557.517L929.203 558.001L928.449 567.007L934.795 567.539L934.408 572.155L928.062 571.623L926.37 591.817C926.072 595.375 927.559 596.5 930.54 596.75C931.213 596.806 931.862 596.764 932.346 596.772L931.967 601.291C931.254 601.328 930.057 601.357 928.967 601.266ZM938.284 601.401L942.16 555.148L947.737 555.616L946.209 573.854L946.337 573.865C948.446 570.265 952.254 568.357 957.222 568.773C964.306 569.367 968.687 575.253 968.01 583.331L966.299 603.749L960.721 603.281L962.352 583.825C962.857 577.799 960.078 573.983 954.885 573.548C949.725 573.116 945.967 576.739 945.492 582.412L943.861 601.868L938.284 601.401ZM987.048 606.133C977.464 605.33 972.255 598.147 973.134 587.666L973.136 587.634C974.001 577.313 980.493 570.723 989.596 571.486C998.699 572.249 1003.68 579.477 1002.84 589.477L1002.67 591.529L978.66 589.517C978.213 596.387 981.66 600.71 987.589 601.207C991.82 601.562 994.979 599.696 996.179 596.924L996.3 596.644L1001.78 597.103L1001.69 597.418C1000.14 602.84 994.324 606.743 987.048 606.133ZM989.15 576.419C984.31 576.014 980.251 578.998 979.121 585.166L997.359 586.694C997.357 580.173 994.022 576.828 989.15 576.419ZM1008.02 618.542C1006.93 618.451 1005.76 618.223 1005.06 618.036L1005.44 613.484C1005.92 613.621 1006.55 613.771 1007.22 613.827C1010.75 614.123 1012.78 613.389 1014.44 609.72L1015.27 607.885L1005.7 573.481L1011.66 573.98L1018.53 602.509L1018.66 602.52L1030.22 575.535L1036.08 576.027L1020.1 610.355C1017.2 616.535 1014.05 619.047 1008.02 618.542ZM1039.35 579.076L1043.48 563.639L1049.31 564.127L1043.32 579.409L1039.35 579.076ZM1051.11 610.856L1054.99 564.603L1060.56 565.07L1056.69 611.323L1051.11 610.856ZM1064.51 611.978L1068.39 565.726L1073.96 566.193L1070.09 612.446L1064.51 611.978ZM1107.6 616.235C1102.82 615.834 1099.31 613.119 1097.55 609.066L1097.42 609.055L1096.95 614.697L1091.37 614.229L1095.25 567.976L1100.82 568.444L1099.27 586.938L1099.4 586.949C1101.81 583.277 1105.88 581.23 1110.6 581.625C1118.96 582.326 1124.1 589.568 1123.22 600.081L1123.22 600.113C1122.34 610.627 1116.13 616.949 1107.6 616.235ZM1106.92 611.207C1112.82 611.701 1116.87 607.296 1117.51 599.635L1117.51 599.603C1118.15 592.006 1114.89 586.956 1109 586.462C1103.39 585.992 1098.94 590.558 1098.31 597.994L1098.31 598.026C1097.69 605.495 1101.28 610.734 1106.92 611.207ZM1141.1 619.042C1131.51 618.238 1126.3 611.056 1127.18 600.574L1127.18 600.542C1128.05 590.221 1134.54 583.632 1143.64 584.394C1152.75 585.157 1157.73 592.385 1156.89 602.386L1156.72 604.437L1132.71 602.425C1132.26 609.296 1135.71 613.619 1141.64 614.116C1145.87 614.471 1149.03 612.605 1150.23 609.833L1150.35 609.552L1155.83 610.012L1155.74 610.327C1154.19 615.749 1148.37 619.651 1141.1 619.042ZM1143.2 589.328C1138.36 588.922 1134.3 591.907 1133.17 598.074L1151.41 599.603C1151.4 593.082 1148.07 589.736 1143.2 589.328ZM1188.31 622.998C1178.85 622.206 1173.42 614.972 1174.31 604.362L1174.32 604.33C1175.2 593.817 1181.88 587.599 1191.15 588.375C1199.45 589.071 1203.89 594.995 1204.12 600.759L1204.13 601.019L1198.68 600.562L1198.64 600.3C1198.08 596.897 1195.64 593.722 1190.73 593.311C1184.93 592.825 1180.65 597.308 1180.02 604.873L1180.01 604.905C1179.36 612.662 1182.95 617.578 1188.72 618.062C1193.27 618.443 1196.41 616.123 1197.65 612.483L1197.73 612.232L1203.21 612.691L1203.16 612.913C1201.73 619.184 1195.84 623.629 1188.31 622.998ZM1207.72 623.979L1211.6 577.726L1217.18 578.194L1213.3 624.447L1207.72 623.979ZM1227.24 586.364C1225.32 586.203 1223.88 584.501 1224.04 582.578C1224.2 580.622 1225.9 579.215 1227.83 579.377C1229.78 579.54 1231.19 581.208 1231.03 583.163C1230.87 585.086 1229.2 586.528 1227.24 586.364ZM1221.19 625.107L1223.98 591.772L1229.56 592.239L1226.76 625.575L1221.19 625.107ZM1248.12 628.01C1238.67 627.218 1233.24 619.984 1234.12 609.374L1234.13 609.342C1235.01 598.829 1241.69 592.611 1250.96 593.387C1259.26 594.083 1263.7 600.007 1263.93 605.771L1263.94 606.03L1258.49 605.574L1258.45 605.312C1257.89 601.909 1255.45 598.734 1250.54 598.323C1244.74 597.837 1240.46 602.32 1239.83 609.885L1239.82 609.917C1239.17 617.674 1242.76 622.59 1248.53 623.074C1253.09 623.455 1256.22 621.135 1257.46 617.495L1257.54 617.244L1263.03 617.703L1262.97 617.925C1261.55 624.196 1255.65 628.641 1248.12 628.01ZM1267.7 629.005L1271.57 582.752L1277.15 583.219L1274.83 610.849L1274.96 610.86L1290.81 597.372L1297.57 597.939L1281.91 611.119L1295.23 631.312L1288.75 630.769L1277.68 614.187L1274.33 616.907L1273.27 629.472L1267.7 629.005ZM1308.8 633.094C1302.16 632.538 1298.04 628.158 1298.55 622.1L1298.56 622.036C1299.03 616.363 1303.75 613.176 1311.45 613.369L1321.05 613.624L1321.28 610.836C1321.62 606.765 1319.17 604.074 1314.52 603.684C1310.23 603.324 1307.36 605.15 1306.47 608.077L1306.38 608.361L1301 607.909L1301.06 607.559C1302 602.119 1307.15 598.096 1315 598.754C1322.89 599.414 1327.46 604.091 1326.91 610.758L1324.97 633.804L1319.4 633.337L1319.85 627.92L1319.72 627.909C1317.46 631.399 1313.25 633.468 1308.8 633.094ZM1304.26 622.578C1303.99 625.784 1306.45 628.023 1310.45 628.359C1315.71 628.8 1320.05 625.516 1320.46 620.676L1320.69 617.951L1311.73 617.75C1307.25 617.633 1304.52 619.405 1304.26 622.514L1304.26 622.578ZM1348.58 636.428C1343.8 636.027 1340.28 633.312 1338.52 629.259L1338.4 629.248L1337.92 634.889L1332.35 634.422L1336.22 588.169L1341.8 588.637L1340.25 607.131L1340.38 607.142C1342.78 603.47 1346.86 601.423 1351.57 601.818C1359.94 602.519 1365.08 609.761 1364.2 620.274L1364.19 620.306C1363.31 630.82 1357.1 637.142 1348.58 636.428ZM1347.9 631.4C1353.8 631.894 1357.85 627.489 1358.49 619.828L1358.49 619.796C1359.13 612.199 1355.87 607.149 1349.97 606.655C1344.36 606.185 1339.91 610.751 1339.29 618.187L1339.29 618.219C1338.66 625.688 1342.26 630.927 1347.9 631.4ZM1368.69 637.468L1372.57 591.215L1378.15 591.683L1374.27 637.935L1368.69 637.468ZM1395.47 640.357C1385.89 639.554 1380.68 632.372 1381.56 621.89L1381.56 621.858C1382.42 611.537 1388.91 604.947 1398.02 605.71C1407.12 606.473 1412.1 613.701 1411.26 623.701L1411.09 625.753L1387.08 623.741C1386.63 630.611 1390.08 634.935 1396.01 635.432C1400.24 635.786 1403.4 633.921 1404.6 631.148L1404.72 630.868L1410.2 631.327L1410.11 631.642C1408.56 637.064 1402.75 640.967 1395.47 640.357ZM1397.57 610.644C1392.73 610.238 1388.67 613.223 1387.54 619.39L1405.78 620.918C1405.78 614.398 1402.44 611.052 1397.57 610.644Z" fill="black"/>
</g>
</g>
<defs>
<filter id="filter0_d_719_321" x="409.686" y="344.721" width="1100.63" height="396.558" filterUnits="userSpaceOnUse" color-interpolation-filters="sRGB">
<feFlood flood-opacity="0" result="BackgroundImageFix"/>
<feColorMatrix in="SourceAlpha" type="matrix" values="0 0 0 0 0 0 0 0 0 0 0 0 0 0 0 0 0 0 127 0" result="hardAlpha"/>
<feOffset dy="3"/>
<feGaussianBlur stdDeviation="1.5"/>
<feComposite in2="hardAlpha" operator="out"/>
<feColorMatrix type="matrix" values="0 0 0 0 0 0 0 0 0 0 0 0 0 0 0 0 0 0 0.25 0"/>
<feBlend mode="normal" in2="BackgroundImageFix" result="effect1_dropShadow_719_321"/>
<feBlend mode="normal" in="SourceGraphic" in2="effect1_dropShadow_719_321" result="shape"/>
</filter>
<clipPath id="clip0_719_321">
<rect x="437.904" y="344.721" width="1073.16" height="302" rx="18" transform="rotate(4.79 437.904 344.721)" fill="white"/>
</clipPath>
</defs>
</svg>
