<svg width="1920" height="1080" viewBox="0 0 1920 1080" fill="none" xmlns="http://www.w3.org/2000/svg">
<rect width="1920" height="1080" fill="#DDDDDD"/>
<g filter="url(#filter0_d_717_211)">
<g clip-path="url(#clip0_717_211)">
<rect x="463.894" y="414.671" width="949.817" height="381" rx="18" transform="rotate(-7.67947 463.894 414.671)" fill="white"/>
<path d="M557.752 538.237L551.549 492.239L557.287 491.465L563.489 537.463L557.752 538.237ZM573.339 536.135L569.488 507.573L564.866 508.197L564.247 503.606L568.869 502.983L568.319 498.903C567.459 492.527 570.016 489.099 576.136 488.274C577.379 488.106 578.699 488.026 579.545 488.042L580.151 492.536C579.469 492.531 578.604 492.615 577.743 492.731C574.683 493.144 573.363 494.912 573.806 498.195L574.352 502.244L581.174 501.324L581.793 505.914L575.035 506.825L578.886 535.387L573.339 536.135ZM609.462 542.624C608.378 542.77 607.182 542.802 606.463 542.769L605.853 538.242C606.344 538.274 606.994 538.283 607.664 538.193C611.17 537.72 612.995 536.565 613.826 532.623L614.242 530.652L597.463 499.127L603.392 498.328L616.263 524.7L616.391 524.683L621.849 495.839L627.682 495.053L619.49 532.022C617.986 538.684 615.455 541.816 609.462 542.624ZM649.07 526.573C639.857 527.815 632.807 521.982 631.384 511.431L631.375 511.367C629.952 500.816 635.247 493.384 644.396 492.15C653.544 490.916 660.646 496.645 662.073 507.228L662.081 507.292C663.508 517.875 658.218 525.339 649.07 526.573ZM648.44 521.659C654.273 520.873 657.456 515.835 656.407 508.057L656.399 507.993C655.35 500.215 650.923 496.268 645.058 497.059C639.288 497.837 636.005 502.856 637.049 510.602L637.058 510.666C638.111 518.476 642.574 522.45 648.44 521.659ZM681.329 522.223C674.061 523.203 669.217 519.053 668.199 511.498L665.297 489.981L670.844 489.233L673.612 509.762C674.338 515.149 677.256 517.774 682.357 517.086C687.585 516.381 690.493 512.192 689.732 506.549L687.101 487.041L692.648 486.293L697.118 519.445L691.571 520.193L690.935 515.475L690.808 515.492C689.44 518.825 686.366 521.544 681.329 522.223ZM718.029 516.625L711.827 470.627L717.374 469.879L723.576 515.877L718.029 516.625ZM744.796 513.665C735.265 514.95 728.629 509.062 727.223 498.638L727.219 498.606C725.835 488.342 730.751 480.506 739.804 479.285C748.857 478.064 755.278 484.047 756.619 493.992L756.895 496.033L733.019 499.252C734.066 506.057 738.365 509.534 744.262 508.739C748.47 508.171 751.151 505.668 751.724 502.702L751.781 502.402L757.232 501.667L757.212 501.994C756.867 507.623 752.033 512.689 744.796 513.665ZM740.434 484.198C735.62 484.847 732.301 488.638 732.53 494.904L750.668 492.458C749.258 486.092 745.279 483.545 740.434 484.198ZM774.315 509.685C767.716 510.575 762.748 507.187 761.935 501.163L761.927 501.099C761.166 495.457 765.088 491.325 772.646 489.851L782.073 488.029L781.699 485.255C781.153 481.207 778.176 479.109 773.554 479.732C769.282 480.308 766.88 482.71 766.642 485.76L766.617 486.056L761.262 486.778L761.246 486.423C760.989 480.907 765.146 475.868 772.956 474.815C780.798 473.757 786.278 477.335 787.172 483.966L790.263 506.885L784.716 507.633L783.99 502.246L783.862 502.263C782.408 506.159 778.746 509.087 774.315 509.685ZM767.61 500.397C768.039 503.585 770.924 505.241 774.909 504.704C780.137 503.999 783.667 499.855 783.018 495.042L782.653 492.332L773.864 494.069C769.468 494.921 767.184 497.242 767.601 500.334L767.61 500.397ZM806.648 504.676L789.968 473.17L795.802 472.383L808.626 498.405L808.753 498.387L814.259 469.895L820.029 469.117L812.322 503.911L806.648 504.676ZM841.32 500.65C831.789 501.935 825.153 496.046 823.747 485.622L823.743 485.591C822.359 475.326 827.274 467.49 836.327 466.27C845.38 465.049 851.802 471.031 853.143 480.977L853.418 483.017L829.542 486.237C830.59 493.041 834.888 496.519 840.786 495.723C844.994 495.156 847.674 492.652 848.248 489.686L848.305 489.387L853.756 488.652L853.735 488.979C853.391 494.608 848.556 499.674 841.32 500.65ZM836.957 471.183C832.144 471.832 828.825 475.623 829.053 481.889L847.191 479.443C845.781 473.077 841.803 470.53 836.957 471.183ZM884.227 494.864C877.628 495.754 872.66 492.367 871.848 486.342L871.839 486.278C871.078 480.636 875 476.504 882.559 475.031L891.985 473.208L891.611 470.435C891.065 466.386 888.088 464.289 883.466 464.912C879.195 465.488 876.792 467.889 876.554 470.94L876.529 471.235L871.174 471.957L871.158 471.602C870.901 466.087 875.058 461.047 882.868 459.994C890.71 458.937 896.19 462.515 897.084 469.145L900.175 492.065L894.628 492.812L893.902 487.425L893.774 487.442C892.32 491.339 888.658 494.267 884.227 494.864ZM877.522 485.577C877.952 488.765 880.836 490.42 884.821 489.883C890.049 489.178 893.579 485.034 892.93 480.221L892.565 477.511L883.776 479.248C879.38 480.101 877.096 482.421 877.513 485.513L877.522 485.577ZM934.433 488.094C925.029 489.362 918.166 483.472 916.743 472.921L916.739 472.889C915.329 462.433 920.515 454.918 929.727 453.676C937.983 452.562 943.6 457.388 945.066 462.967L945.132 463.218L939.713 463.949L939.615 463.702C938.339 460.499 935.266 457.927 930.389 458.585C924.619 459.363 921.407 464.664 922.421 472.187L922.426 472.219C923.466 479.934 928.033 483.959 933.771 483.185C938.298 482.575 940.855 479.634 941.28 475.811L941.31 475.548L946.761 474.813L946.759 475.04C946.718 481.472 941.924 487.084 934.433 488.094ZM967.139 483.684C957.926 484.926 950.876 479.094 949.453 468.542L949.444 468.479C948.022 457.927 953.316 450.495 962.465 449.261C971.614 448.028 978.715 453.756 980.142 464.339L980.151 464.403C981.578 474.986 976.288 482.451 967.139 483.684ZM966.509 478.771C972.342 477.984 975.525 472.946 974.477 465.168L974.468 465.104C973.419 457.326 968.992 453.379 963.127 454.17C957.357 454.948 954.074 459.967 955.119 467.714L955.127 467.777C956.18 475.587 960.643 479.562 966.509 478.771ZM987.996 480.223L983.526 447.071L989.073 446.323L989.726 451.168L989.853 451.151C990.909 447.665 993.928 445.019 998.199 444.443C1002.73 443.833 1006.39 445.708 1008.37 449.563L1008.49 449.546C1009.81 445.312 1013.37 442.397 1018.03 441.769C1024.59 440.884 1029.41 444.616 1030.3 451.214L1033.39 474.102L1027.84 474.85L1024.93 453.237C1024.31 448.679 1021.43 446.309 1017.06 446.898C1012.66 447.491 1010.01 451.191 1010.62 455.718L1013.47 476.788L1007.92 477.536L1004.92 455.318C1004.38 451.301 1001.35 449.017 997.235 449.571C992.836 450.164 990.117 454.069 990.74 458.691L993.543 479.475L987.996 480.223ZM1040.47 473.148L1036 439.996L1041.54 439.248L1042.2 444.093L1042.32 444.076C1043.38 440.59 1046.4 437.944 1050.67 437.368C1055.2 436.758 1058.86 438.633 1060.84 442.488L1060.96 442.471C1062.28 438.237 1065.84 435.322 1070.5 434.694C1077.06 433.809 1081.88 437.541 1082.77 444.139L1085.86 467.027L1080.31 467.775L1077.4 446.162C1076.78 441.604 1073.9 439.234 1069.53 439.823C1065.13 440.416 1062.48 444.116 1063.09 448.643L1065.94 469.713L1060.39 470.461L1057.39 448.243C1056.85 444.226 1053.82 441.942 1049.7 442.496C1045.31 443.089 1042.59 446.994 1043.21 451.616L1046.01 472.4L1040.47 473.148ZM1106.66 464.87C1097.13 466.156 1090.5 460.267 1089.09 449.843L1089.09 449.811C1087.7 439.547 1092.62 431.711 1101.67 430.491C1110.73 429.27 1117.15 435.252 1118.49 445.198L1118.76 447.238L1094.89 450.457C1095.93 457.262 1100.23 460.739 1106.13 459.944C1110.34 459.377 1113.02 456.873 1113.59 453.907L1113.65 453.607L1119.1 452.872L1119.08 453.2C1118.74 458.829 1113.9 463.895 1106.66 464.87ZM1102.3 435.404C1097.49 436.053 1094.17 439.844 1094.4 446.109L1112.54 443.664C1111.13 437.297 1107.15 434.751 1102.3 435.404ZM1126.41 461.559L1121.94 428.407L1127.48 427.659L1128.12 432.377L1128.25 432.36C1129.61 429.027 1132.69 426.308 1137.72 425.629C1144.99 424.649 1149.84 428.8 1150.86 436.354L1153.76 457.871L1148.21 458.619L1145.44 438.091C1144.72 432.703 1141.8 430.078 1136.7 430.766C1131.47 431.471 1128.56 435.66 1129.32 441.303L1131.95 460.811L1126.41 461.559ZM1171.69 456.102C1165.61 456.923 1162.24 454.586 1161.38 448.242L1158.67 428.128L1153.83 428.781L1153.21 424.191L1158.05 423.537L1156.84 414.58L1162.58 413.806L1163.79 422.764L1170.1 421.912L1170.72 426.503L1164.41 427.354L1167.12 447.436C1167.59 450.975 1169.29 451.752 1172.25 451.353C1172.92 451.262 1173.55 451.081 1174.02 450.984L1174.63 455.479C1173.94 455.669 1172.78 455.956 1171.69 456.102ZM1191.82 413.272C1189.91 413.53 1188.13 412.178 1187.88 410.266C1187.61 408.321 1188.97 406.581 1190.88 406.323C1192.83 406.06 1194.56 407.384 1194.83 409.329C1195.08 411.241 1193.76 413.01 1191.82 413.272ZM1194.27 452.408L1189.8 419.256L1195.35 418.508L1199.82 451.66L1194.27 452.408ZM1207.37 450.642L1202.9 417.49L1208.45 416.742L1209.09 421.459L1209.21 421.442C1210.58 418.109 1213.66 415.391 1218.69 414.711C1225.96 413.731 1230.8 417.882 1231.82 425.437L1234.72 446.954L1229.18 447.702L1226.41 427.173C1225.68 421.786 1222.77 419.161 1217.67 419.848C1212.44 420.553 1209.53 424.743 1210.29 430.385L1212.92 449.894L1207.37 450.642ZM1264.97 443.525C1258.37 444.415 1253.4 441.028 1252.59 435.003L1252.58 434.939C1251.82 429.297 1255.74 425.165 1263.3 423.692L1272.72 421.869L1272.35 419.096C1271.8 415.047 1268.83 412.949 1264.21 413.573C1259.93 414.149 1257.53 416.55 1257.29 419.6L1257.27 419.896L1251.91 420.618L1251.9 420.263C1251.64 414.748 1255.8 409.708 1263.61 408.655C1271.45 407.598 1276.93 411.175 1277.82 417.806L1280.91 440.725L1275.37 441.473L1274.64 436.086L1274.51 436.103C1273.06 440 1269.4 442.928 1264.97 443.525ZM1258.26 434.238C1258.69 437.425 1261.58 439.081 1265.56 438.544C1270.79 437.839 1274.32 433.695 1273.67 428.882L1273.3 426.172L1264.52 427.909C1260.12 428.762 1257.84 431.082 1258.25 434.174L1258.26 434.238ZM569.233 616.404L565.382 587.842L560.759 588.465L560.14 583.875L564.763 583.252L564.212 579.172C563.353 572.796 565.909 569.368 572.029 568.543C573.273 568.375 574.592 568.295 575.438 568.31L576.044 572.805C575.362 572.8 574.497 572.884 573.637 573C570.576 573.412 569.257 575.181 569.7 578.464L570.245 582.512L577.067 581.593L577.686 586.183L570.928 587.094L574.779 615.656L569.233 616.404ZM587.275 613.971L582.805 580.819L588.352 580.071L589.108 585.681L589.236 585.664C589.836 581.688 592.378 578.879 596.107 578.376C597.064 578.247 597.914 578.295 598.369 578.298L599.095 583.686C598.628 583.586 597.427 583.586 596.088 583.767C591.784 584.347 589.383 587.722 590.062 592.758L592.822 613.223L587.275 613.971ZM616.561 610.671C609.962 611.561 604.994 608.174 604.181 602.149L604.173 602.085C603.412 596.443 607.334 592.312 614.892 590.838L624.319 589.015L623.945 586.242C623.399 582.194 620.422 580.096 615.8 580.719C611.528 581.295 609.126 583.696 608.888 586.747L608.863 587.042L603.508 587.764L603.492 587.409C603.235 581.894 607.392 576.854 615.202 575.801C623.044 574.744 628.524 578.322 629.418 584.952L632.509 607.872L626.962 608.62L626.236 603.232L626.108 603.25C624.654 607.146 620.992 610.074 616.561 610.671ZM609.856 601.384C610.285 604.572 613.17 606.228 617.155 605.69C622.383 604.985 625.913 600.842 625.264 596.028L624.899 593.319L616.11 595.056C611.714 595.908 609.43 598.228 609.847 601.32L609.856 601.384ZM639.554 606.922L635.083 573.77L640.63 573.022L641.283 577.867L641.411 577.85C642.466 574.365 645.485 571.718 649.756 571.142C654.283 570.532 657.944 572.407 659.924 576.262L660.052 576.245C661.363 572.011 664.93 569.096 669.584 568.468C676.151 567.583 680.971 571.315 681.86 577.913L684.947 600.801L679.4 601.549L676.486 579.936C675.871 575.378 672.987 573.008 668.62 573.597C664.221 574.19 661.572 577.89 662.182 582.417L665.023 603.487L659.477 604.235L656.481 582.017C655.939 578.001 652.905 575.716 648.793 576.27C644.394 576.863 641.674 580.768 642.298 585.39L645.1 606.174L639.554 606.922ZM705.753 598.645C696.221 599.93 689.585 594.041 688.18 583.617L688.175 583.586C686.791 573.321 691.707 565.485 700.76 564.265C709.813 563.044 716.235 569.026 717.576 578.972L717.851 581.012L693.975 584.232C695.022 591.036 699.321 594.514 705.218 593.718C709.426 593.151 712.107 590.647 712.681 587.681L712.738 587.382L718.189 586.647L718.168 586.974C717.823 592.603 712.989 597.669 705.753 598.645ZM701.39 569.178C696.576 569.827 693.258 573.618 693.486 579.883L711.624 577.438C710.214 571.072 706.235 568.525 701.39 569.178ZM736.78 554.345C734.867 554.602 733.095 553.251 732.837 551.338C732.574 549.394 733.93 547.653 735.843 547.395C737.787 547.133 739.524 548.457 739.786 550.401C740.044 552.314 738.724 554.082 736.78 554.345ZM739.233 593.481L734.763 560.329L740.31 559.581L744.78 592.733L739.233 593.481ZM752.335 591.714L747.864 558.562L753.411 557.814L754.047 562.532L754.175 562.515C755.543 559.182 758.617 556.463 763.653 555.784C770.921 554.804 775.765 558.955 776.784 566.509L779.685 588.026L774.139 588.774L771.37 568.245C770.644 562.858 767.726 560.233 762.626 560.921C757.398 561.626 754.49 565.815 755.251 571.458L757.881 590.966L752.335 591.714ZM801.011 585.151L794.808 539.152L822.733 535.387L823.429 540.551L801.243 543.543L803.375 559.354L823.744 556.607L824.432 561.707L804.062 564.454L806.749 584.377L801.011 585.151ZM832.538 541.432C830.626 541.69 828.853 540.339 828.595 538.426C828.333 536.482 829.689 534.741 831.601 534.483C833.546 534.221 835.282 535.545 835.544 537.489C835.802 539.402 834.483 541.17 832.538 541.432ZM834.992 580.569L830.522 547.417L836.068 546.669L840.538 579.821L834.992 580.569ZM863.71 588.705C855.517 589.81 849.833 586.649 848.087 581.886L847.985 581.608L853.563 580.856L853.729 581.126C855.104 583.375 858.457 584.415 862.984 583.805C868.817 583.018 871.698 579.352 871.006 574.22L870.435 569.98L870.307 569.997C868.825 573.929 865.318 576.804 860.568 577.445C852.217 578.571 845.604 572.614 844.207 562.254L844.202 562.222C842.814 551.926 847.681 544.454 856.097 543.319C860.783 542.687 864.824 544.739 867.363 548.161L867.49 548.144L866.734 542.534L872.281 541.786L876.626 574.014C877.662 581.696 872.699 587.493 863.71 588.705ZM861.118 572.372C866.76 571.611 869.936 566.282 868.943 558.919L868.939 558.887C867.955 551.587 863.453 547.325 857.842 548.082C851.945 548.877 848.884 554.094 849.876 561.457L849.881 561.489C850.895 569.012 855.22 573.167 861.118 572.372ZM883.923 573.971L879.453 540.819L884.999 540.071L885.653 544.916L885.78 544.899C886.836 541.414 889.854 538.767 894.126 538.191C898.653 537.581 902.313 539.456 904.294 543.311L904.421 543.294C905.733 539.06 909.299 536.145 913.954 535.518C920.52 534.632 925.34 538.364 926.23 544.962L929.316 567.85L923.769 568.598L920.855 546.985C920.241 542.427 917.357 540.057 912.99 540.646C908.591 541.239 905.941 544.939 906.552 549.466L909.393 570.537L903.846 571.284L900.85 549.066C900.309 545.05 897.274 542.765 893.162 543.319C888.763 543.913 886.044 547.817 886.667 552.439L889.47 573.223L883.923 573.971ZM946.169 566.227C939.571 567.116 934.603 563.729 933.79 557.705L933.782 557.641C933.021 551.999 936.943 547.867 944.501 546.393L953.927 544.571L953.554 541.797C953.008 537.749 950.031 535.651 945.409 536.274C941.137 536.85 938.735 539.252 938.497 542.302L938.472 542.598L933.116 543.32L933.101 542.965C932.844 537.449 937.001 532.41 944.811 531.357C952.652 530.299 958.133 533.877 959.027 540.508L962.118 563.427L956.571 564.175L955.845 558.788L955.717 558.805C954.263 562.701 950.6 565.629 946.169 566.227ZM939.464 556.939C939.894 560.127 942.779 561.783 946.764 561.246C951.991 560.541 955.522 556.397 954.873 551.584L954.508 548.874L945.719 550.611C941.322 551.463 939.039 553.784 939.456 556.876L939.464 556.939ZM968.147 571.799L968.851 555.833L974.652 555.051L972.1 571.266L968.147 571.799ZM991.286 520.027C989.374 520.285 987.601 518.933 987.343 517.021C987.081 515.076 988.436 513.335 990.349 513.078C992.294 512.815 994.03 514.139 994.292 516.084C994.55 517.996 993.231 519.765 991.286 520.027ZM993.74 559.163L989.269 526.011L994.816 525.263L999.286 558.415L993.74 559.163ZM1017.7 556.581C1011.61 557.402 1008.25 555.065 1007.39 548.721L1004.68 528.607L999.834 529.26L999.215 524.67L1004.06 524.017L1002.85 515.059L1008.59 514.285L1009.8 523.243L1016.11 522.392L1016.73 526.982L1010.42 527.833L1013.13 547.916C1013.6 551.454 1015.3 552.232 1018.26 551.832C1018.93 551.742 1019.56 551.56 1020.03 551.464L1020.64 555.958C1019.95 556.149 1018.79 556.435 1017.7 556.581ZM1046.5 552.049L1032.75 520.148L1038.26 519.405L1048.53 545.478L1048.66 545.461L1052.51 517.483L1057.87 516.761L1069.03 542.715L1069.16 542.697L1072.15 514.835L1077.63 514.096L1072.86 548.495L1067.22 549.256L1056.26 524.605L1056.14 524.622L1052.14 551.289L1046.5 552.049ZM1084.56 507.45C1082.65 507.708 1080.87 506.356 1080.62 504.444C1080.35 502.499 1081.71 500.759 1083.62 500.501C1085.57 500.238 1087.3 501.562 1087.56 503.507C1087.82 505.419 1086.5 507.188 1084.56 507.45ZM1087.01 546.586L1082.54 513.434L1088.09 512.686L1092.56 545.838L1087.01 546.586ZM1100.4 544.781L1094.2 498.782L1099.74 498.035L1105.95 544.033L1100.4 544.781ZM1113.72 542.984L1107.52 496.986L1113.07 496.238L1119.27 542.236L1113.72 542.984ZM1149.93 538.752C1143.33 539.642 1138.36 536.254 1137.55 530.23L1137.54 530.166C1136.78 524.524 1140.7 520.392 1148.26 518.919L1157.69 517.096L1157.31 514.322C1156.77 510.274 1153.79 508.176 1149.17 508.8C1144.9 509.376 1142.49 511.777 1142.25 514.827L1142.23 515.123L1136.87 515.845L1136.86 515.49C1136.6 509.975 1140.76 504.935 1148.57 503.882C1156.41 502.825 1161.89 506.402 1162.79 513.033L1165.88 535.952L1160.33 536.7L1159.6 531.313L1159.48 531.33C1158.02 535.226 1154.36 538.154 1149.93 538.752ZM1143.22 529.465C1143.65 532.652 1146.54 534.308 1150.52 533.771C1155.75 533.066 1159.28 528.922 1158.63 524.109L1158.27 521.399L1149.48 523.136C1145.08 523.989 1142.8 526.309 1143.21 529.401L1143.22 529.465ZM1174.42 546.159L1168.45 501.85L1174 501.102L1174.75 506.713L1174.88 506.695C1176.43 502.559 1179.81 499.67 1184.56 499.029C1193.04 497.886 1199.56 503.887 1200.97 514.343L1200.97 514.375C1202.38 524.83 1197.62 532.322 1189.3 533.443C1184.61 534.075 1180.43 532.236 1177.85 528.691L1177.72 528.708L1179.97 545.411L1174.42 546.159ZM1187.45 528.693C1193.32 527.903 1196.32 522.695 1195.3 515.14L1195.29 515.108C1194.27 507.489 1190 503.293 1184.14 504.084C1178.53 504.841 1175.2 510.255 1176.2 517.683L1176.2 517.715C1177.2 525.11 1181.88 529.446 1187.45 528.693ZM1210.32 541.319L1204.34 497.01L1209.89 496.262L1210.65 501.873L1210.77 501.856C1212.33 497.719 1215.7 494.83 1220.45 494.189C1228.93 493.046 1235.45 499.047 1236.86 509.503L1236.87 509.535C1238.28 519.991 1233.51 527.482 1225.19 528.604C1220.5 529.235 1216.33 527.397 1213.74 523.851L1213.61 523.868L1215.87 540.572L1210.32 541.319ZM1223.35 523.854C1229.21 523.063 1232.21 517.855 1231.19 510.3L1231.19 510.268C1230.16 502.649 1225.89 498.454 1220.03 499.244C1214.42 500.001 1211.09 505.415 1212.09 512.843L1212.1 512.875C1213.1 520.27 1217.77 524.606 1223.35 523.854ZM1258.44 524.12C1248.91 525.406 1242.27 519.517 1240.86 509.093L1240.86 509.061C1239.48 498.797 1244.39 490.961 1253.44 489.74C1262.5 488.52 1268.92 494.502 1270.26 504.448L1270.54 506.488L1246.66 509.707C1247.71 516.512 1252.01 519.989 1257.9 519.194C1262.11 518.627 1264.79 516.123 1265.36 513.157L1265.42 512.857L1270.87 512.122L1270.85 512.45C1270.51 518.079 1265.67 523.145 1258.44 524.12ZM1254.07 494.654C1249.26 495.303 1245.94 499.093 1246.17 505.359L1264.31 502.913C1262.9 496.547 1258.92 494 1254.07 494.654ZM1287.96 520.14C1281.36 521.03 1276.39 517.643 1275.58 511.618L1275.57 511.554C1274.81 505.912 1278.73 501.78 1286.29 500.307L1295.71 498.484L1295.34 495.711C1294.79 491.662 1291.82 489.565 1287.19 490.188C1282.92 490.764 1280.52 493.165 1280.28 496.216L1280.26 496.511L1274.9 497.233L1274.89 496.878C1274.63 491.363 1278.79 486.323 1286.6 485.27C1294.44 484.213 1299.92 487.791 1300.81 494.421L1303.9 517.341L1298.36 518.088L1297.63 512.701L1297.5 512.718C1296.05 516.615 1292.39 519.543 1287.96 520.14ZM1281.25 510.853C1281.68 514.041 1284.56 515.696 1288.55 515.159C1293.78 514.454 1297.31 510.31 1296.66 505.497L1296.29 502.787L1287.5 504.524C1283.11 505.377 1280.82 507.697 1281.24 510.789L1281.25 510.853ZM1310.95 516.391L1306.48 483.238L1312.02 482.491L1312.78 488.101L1312.91 488.084C1313.51 484.108 1316.05 481.299 1319.78 480.796C1320.74 480.667 1321.59 480.714 1322.04 480.718L1322.77 486.105C1322.3 486.006 1321.1 486.006 1319.76 486.186C1315.46 486.766 1313.06 490.141 1313.74 495.178L1316.49 515.643L1310.95 516.391ZM575.902 655.752C573.989 656.01 572.217 654.659 571.959 652.746C571.696 650.802 573.052 649.061 574.965 648.803C576.909 648.541 578.646 649.865 578.908 651.809C579.166 653.722 577.846 655.49 575.902 655.752ZM578.355 694.889L573.885 661.737L579.432 660.989L583.902 694.141L578.355 694.889ZM591.457 693.122L586.986 659.97L592.533 659.222L593.169 663.94L593.297 663.923C594.665 660.59 597.739 657.871 602.775 657.192C610.043 656.212 614.887 660.362 615.906 667.917L618.807 689.434L613.261 690.182L610.492 669.653C609.766 664.266 606.848 661.641 601.748 662.329C596.52 663.034 593.612 667.223 594.373 672.866L597.003 692.374L591.457 693.122ZM650.133 685.859C644.044 686.68 640.678 684.343 639.823 677.999L637.11 657.885L632.265 658.538L631.646 653.948L636.492 653.295L635.284 644.337L641.022 643.564L642.229 652.521L648.541 651.67L649.16 656.26L642.848 657.111L645.556 677.194C646.033 680.732 647.729 681.51 650.693 681.11C651.363 681.02 651.987 680.838 652.461 680.742L653.067 685.237C652.379 685.427 651.217 685.713 650.133 685.859ZM659.259 683.98L653.057 637.981L658.603 637.233L661.049 655.371L661.177 655.354C662.459 651.384 665.764 648.698 670.705 648.032C677.75 647.082 683.299 651.884 684.382 659.917L687.12 680.223L681.573 680.971L678.964 661.621C678.156 655.629 674.619 652.503 669.455 653.199C664.322 653.891 661.436 658.24 662.197 663.882L664.806 683.232L659.259 683.98ZM707.894 678.071C698.363 679.356 691.726 673.467 690.321 663.044L690.317 663.012C688.933 652.747 693.848 644.912 702.901 643.691C711.954 642.47 718.376 648.453 719.717 658.398L719.992 660.438L696.116 663.658C697.163 670.462 701.462 673.94 707.359 673.145C711.567 672.577 714.248 670.074 714.822 667.108L714.879 666.808L720.33 666.073L720.309 666.4C719.965 672.029 715.13 677.095 707.894 678.071ZM703.531 648.604C698.718 649.253 695.399 653.044 695.627 659.31L713.765 656.864C712.355 650.498 708.376 647.951 703.531 648.604ZM752.872 672.006C745.063 673.059 739.807 669.711 738.339 663.872L738.268 663.589L743.815 662.841L743.921 663.151C745.038 666.376 747.755 667.99 752.281 667.379C756.776 666.773 759.2 664.532 758.796 661.535L758.791 661.503C758.469 659.112 757.045 657.941 753.159 657.524L747.728 656.958C741.278 656.302 737.858 653.81 737.213 649.028L737.209 648.997C736.44 643.291 740.899 638.567 748.071 637.6C755.339 636.62 760.533 640.237 761.695 645.727L761.783 646.137L756.491 646.851L756.429 646.632C755.549 643.473 752.806 641.668 748.694 642.222C744.678 642.764 742.453 645.044 742.849 647.976L742.853 648.008C743.158 650.272 744.867 651.632 748.653 652.03L754.085 652.596C760.998 653.319 763.778 655.638 764.414 660.356L764.418 660.388C765.201 666.189 760.268 671.009 752.872 672.006ZM771.721 668.815L765.519 622.817L771.066 622.069L777.268 668.067L771.721 668.815ZM782.656 627.873C780.744 628.131 778.971 626.78 778.713 624.867C778.451 622.923 779.807 621.182 781.719 620.924C783.664 620.662 785.4 621.986 785.662 623.93C785.92 625.843 784.601 627.611 782.656 627.873ZM785.11 667.01L780.64 633.858L786.186 633.11L790.656 666.262L785.11 667.01ZM810.761 664.2C802.282 665.344 795.76 659.342 794.35 648.886L794.346 648.855C792.936 638.399 797.703 630.908 806.023 629.786C810.709 629.154 814.884 630.993 817.472 634.539L817.6 634.521L815.12 616.128L820.666 615.381L826.869 661.379L821.322 662.127L820.566 656.517L820.438 656.534C818.886 660.67 815.511 663.56 810.761 664.2ZM811.183 659.145C816.793 658.388 820.12 652.974 819.119 645.547L819.115 645.515C818.117 638.119 813.443 633.784 807.865 634.536C801.999 635.327 799.002 640.535 800.02 648.089L800.025 648.121C801.052 655.74 805.318 659.936 811.183 659.145ZM848.089 659.167C838.558 660.452 831.922 654.563 830.516 644.14L830.512 644.108C829.128 633.843 834.043 626.008 843.096 624.787C852.149 623.566 858.571 629.549 859.912 639.494L860.187 641.534L836.311 644.754C837.359 651.558 841.658 655.036 847.555 654.241C851.763 653.673 854.443 651.17 855.017 648.204L855.074 647.904L860.525 647.169L860.504 647.496C860.16 653.125 855.325 658.191 848.089 659.167ZM843.726 629.7C838.913 630.349 835.594 634.14 835.822 640.406L853.961 637.96C852.55 631.594 848.572 629.047 843.726 629.7ZM871.302 655.842C869.262 656.117 867.453 654.738 867.178 652.698C866.903 650.658 868.282 648.849 870.322 648.574C872.362 648.299 874.171 649.678 874.446 651.718C874.721 653.758 873.342 655.567 871.302 655.842ZM883.606 654.183C881.566 654.458 879.757 653.079 879.482 651.039C879.207 648.999 880.586 647.19 882.626 646.915C884.666 646.64 886.475 648.019 886.75 650.059C887.025 652.099 885.646 653.908 883.606 654.183ZM895.911 652.524C893.871 652.799 892.062 651.42 891.787 649.38C891.512 647.34 892.891 645.531 894.931 645.256C896.971 644.981 898.78 646.36 899.055 648.4C899.33 650.44 897.951 652.249 895.911 652.524Z" fill="black"/>
</g>
</g>
<defs>
<filter id="filter0_d_717_211" x="460.894" y="287.746" width="998.211" height="510.508" filterUnits="userSpaceOnUse" color-interpolation-filters="sRGB">
<feFlood flood-opacity="0" result="BackgroundImageFix"/>
<feColorMatrix in="SourceAlpha" type="matrix" values="0 0 0 0 0 0 0 0 0 0 0 0 0 0 0 0 0 0 127 0" result="hardAlpha"/>
<feOffset dy="3"/>
<feGaussianBlur stdDeviation="1.5"/>
<feComposite in2="hardAlpha" operator="out"/>
<feColorMatrix type="matrix" values="0 0 0 0 0 0 0 0 0 0 0 0 0 0 0 0 0 0 0.25 0"/>
<feBlend mode="normal" in2="BackgroundImageFix" result="effect1_dropShadow_717_211"/>
<feBlend mode="normal" in="SourceGraphic" in2="effect1_dropShadow_717_211" result="shape"/>
</filter>
<clipPath id="clip0_717_211">
<rect x="463.894" y="414.671" width="949.817" height="381" rx="18" transform="rotate(-7.67947 463.894 414.671)" fill="white"/>
</clipPath>
</defs>
</svg>
