<svg width="621" height="265" viewBox="0 0 621 265" fill="none" xmlns="http://www.w3.org/2000/svg">
<g filter="url(#filter0_d_4_20)">
<g clip-path="url(#clip0_4_20)">
<rect x="30.3364" width="599.581" height="149.145" rx="12" transform="rotate(10.9516 30.3364 0)" fill="white"/>
<path d="M64.6293 89.7975C64.3872 92.4371 65.0221 94.7092 66.5258 96.6568C68.0295 98.6045 70.0371 99.7989 72.5834 100.292C75.4751 100.851 77.981 100.396 80.1444 98.9339C82.3162 97.4288 83.6819 95.2305 84.2414 92.3388C84.7759 89.5767 84.4333 87.1821 83.2485 85.2066C82.072 83.188 80.34 81.9573 78.0095 81.5064C77.4484 81.3978 77.0516 81.3658 76.776 81.402L86.4709 72.4873L86.6964 71.322L70.2961 68.1485L69.628 71.6012L80.5471 73.7141L71.8211 81.7865L72.9392 84.1072C73.7912 83.8691 74.7309 83.8718 75.7236 84.0639C79.3489 84.7654 81.3065 87.6069 80.5298 91.6206C79.7531 95.6344 76.8769 97.5404 73.2515 96.8389C69.7989 96.1708 68.181 93.8877 68.3465 90.0243L64.6293 89.7975ZM87.8247 100.241C87.524 101.795 88.4638 103.185 90.0176 103.486C91.5281 103.778 92.962 102.847 93.2627 101.293C93.555 99.7827 92.5804 98.3404 91.0698 98.0481C89.5161 97.7474 88.117 98.7304 87.8247 100.241ZM112.374 107.633L116.172 108.368L118.87 94.4278L130.048 96.5908L130.75 92.9655L119.571 90.8025L121.317 81.7823L135.085 84.4464L135.786 80.8211L118.22 77.422L112.374 107.633ZM135.683 109.099C137.199 111.676 139.494 113.239 142.644 113.849C145.795 114.458 148.507 113.864 150.832 112.03C153.2 110.205 154.667 107.713 155.26 104.648C155.853 101.584 155.413 98.7677 153.897 96.1908C152.424 93.6223 150.138 92.0158 146.987 91.4061C143.836 90.7965 141.116 91.4342 138.748 93.2595C136.423 95.0931 134.964 97.5421 134.371 100.606C133.778 103.671 134.21 106.53 135.683 109.099ZM140.93 96.0995C142.447 94.7365 144.237 94.277 146.352 94.6862C148.467 95.0954 149.957 96.1896 150.813 98.012C151.721 99.7995 151.966 101.772 151.548 103.93C151.131 106.088 150.167 107.827 148.65 109.19C147.184 110.518 145.394 110.978 143.279 110.569C141.164 110.159 139.674 109.065 138.767 107.278C137.91 105.455 137.665 103.483 138.083 101.325C138.5 99.1666 139.464 97.4277 140.93 96.0995ZM158.814 116.619L162.439 117.321L168.352 86.7644L164.726 86.0629L158.814 116.619ZM169.603 118.707L173.229 119.409L179.141 88.8523L175.516 88.1508L169.603 118.707ZM182.213 118.103C183.73 120.679 186.024 122.243 189.175 122.852C192.325 123.462 195.037 122.868 197.362 121.034C199.73 119.209 201.198 116.717 201.79 113.652C202.383 110.588 201.943 107.772 200.427 105.195C198.954 102.626 196.668 101.02 193.517 100.41C190.367 99.8003 187.646 100.438 185.278 102.263C182.954 104.097 181.495 106.546 180.902 109.61C180.309 112.674 180.74 115.534 182.213 118.103ZM187.46 105.103C188.978 103.74 190.768 103.281 192.883 103.69C194.997 104.099 196.487 105.193 197.343 107.016C198.251 108.803 198.496 110.776 198.079 112.934C197.661 115.092 196.698 116.831 195.18 118.194C193.715 119.522 191.924 119.982 189.809 119.572C187.695 119.163 186.205 118.069 185.297 116.281C184.441 114.459 184.196 112.486 184.613 110.328C185.031 108.17 185.994 106.432 187.46 105.103ZM224.448 124.081L223.407 106.552L219.782 105.85L212.277 121.726L211.064 104.163L207.266 103.429L209.66 126.458L213.113 127.126L220.584 111.423L221.658 128.78L225.111 129.448L235.923 108.974L232.125 108.239L224.448 124.081ZM253.28 115.735L251.025 127.388C250.114 132.092 252.098 135.028 255.94 135.772C257.364 136.047 258.579 136.014 259.637 135.637L259.384 132.319C258.601 132.66 257.74 132.717 256.79 132.533C254.934 132.174 254.149 130.679 254.592 128.392L256.905 116.437L262.602 117.539L263.237 114.259L257.54 113.157L259.243 104.352L255.175 105.938L253.914 112.455L250.159 111.729L249.525 115.009L253.28 115.735ZM285.347 125.433C286.223 120.901 284.326 117.982 280.312 117.205C276.989 116.562 273.815 117.694 271.907 120.146L274.396 107.284L270.771 106.583L264.858 137.139L268.483 137.841L270.27 128.605C270.822 125.756 271.912 123.594 273.592 122.084C275.272 120.573 277.001 119.967 278.685 120.293C281.188 120.777 282.155 122.487 281.579 125.465L278.798 139.837L282.424 140.538L285.347 125.433ZM309.876 133.627C310.436 130.735 310.04 128.152 308.655 125.824C307.321 123.461 305.097 122.001 302.032 121.408C298.882 120.798 296.256 121.41 294.104 123.277C292.003 125.109 290.63 127.575 290.021 130.725C289.411 133.876 289.765 136.675 291.022 139.202C292.331 141.694 294.539 143.241 297.69 143.851C302.178 144.719 305.239 143.476 308.095 139.596L305.168 137.596C303.374 140.16 301.388 141.163 298.324 140.57C294.569 139.844 292.971 136.535 293.582 132.22L309.551 135.31L309.876 133.627ZM301.398 124.688C304.721 125.331 306.332 127.882 306.387 131.295L294.433 128.982C295.766 125.792 298.161 124.062 301.398 124.688ZM325.298 148.835L328.923 149.536L333.132 127.784L329.507 127.083L325.298 148.835ZM329.77 120.865C329.478 122.376 330.417 123.766 331.971 124.067C333.525 124.368 334.916 123.428 335.208 121.917C335.509 120.364 334.577 118.93 333.023 118.629C331.47 118.328 330.071 119.311 329.77 120.865ZM355.555 138.795C356.39 134.479 354.45 131.551 350.479 130.783C347.328 130.173 344.627 131.173 342.428 133.747L343.205 129.733L339.579 129.032L335.37 150.784L338.995 151.485L340.758 142.379C341.317 139.487 342.381 137.23 343.932 135.695C345.526 134.167 347.168 133.545 348.852 133.871C351.355 134.355 352.322 136.065 351.746 139.043L348.965 153.414L352.59 154.116L355.555 138.795ZM370.011 134.562C366.17 133.819 363.131 135.873 362.463 139.325C361.661 143.469 365.019 145.551 367.659 147.181C369.468 148.248 370.864 149.592 370.588 151.017C370.146 153.304 368.763 154.201 366.433 153.75C364.232 153.324 362.824 151.574 362.21 148.5L358.82 149.59C359.429 153.156 361.698 156.236 365.798 157.03C370.243 157.89 373.507 155.835 374.342 151.519C375.621 145.14 365.285 143.946 366.08 140.07C366.414 138.344 367.737 137.525 369.247 137.817C370.585 138.076 371.738 139.06 372.8 140.744L375.669 139.105C374.542 136.603 372.644 135.072 370.011 134.562ZM383.472 140.928L381.217 152.581C380.307 157.285 382.291 160.221 386.132 160.965C387.556 161.24 388.772 161.207 389.83 160.829L389.576 157.512C388.794 157.853 387.932 157.91 386.983 157.726C385.127 157.367 384.342 155.872 384.784 153.585L387.098 141.63L392.794 142.732L393.429 139.452L387.732 138.35L389.436 129.545L385.368 131.131L384.107 137.648L380.352 136.921L379.717 140.202L383.472 140.928ZM412.487 143.453C411.751 142.863 410.8 142.455 409.634 142.229C407.217 141.762 404.181 142.876 402.462 145.05L403.18 141.339L399.555 140.637L395.346 162.389L398.971 163.091L400.566 154.847C401.209 151.524 402.314 149.052 403.882 147.43C405.45 145.808 407.057 145.134 408.698 145.451C409.604 145.626 410.382 146.001 411.127 146.548L412.487 143.453ZM414.159 159.358C413.324 163.674 415.265 166.602 419.236 167.37C422.386 167.98 425.087 166.98 427.287 164.406L426.51 168.42L430.135 169.121L434.344 147.369L430.719 146.668L428.957 155.774C428.397 158.666 427.334 160.923 425.74 162.45C424.189 163.986 422.546 164.608 420.863 164.282C418.36 163.798 417.392 162.088 417.968 159.11L420.749 144.738L417.124 144.037L414.159 159.358ZM453.289 166.393C451.606 168.843 449.362 169.797 446.557 169.254C442.543 168.477 441.02 164.78 441.922 160.119C442.824 155.458 445.616 152.595 449.63 153.372C452.436 153.915 454.162 155.637 454.809 158.538L458.211 157.853C457.218 153.497 454.581 150.927 450.265 150.092C447.114 149.482 444.445 150.085 442.293 151.952C440.192 153.784 438.82 156.25 438.21 159.4C437.601 162.551 437.954 165.351 439.212 167.878C440.52 170.37 442.772 171.925 445.922 172.534C450.238 173.369 453.643 171.969 456.19 168.297L453.289 166.393ZM466.039 156.905L463.784 168.558C462.873 173.262 464.857 176.198 468.699 176.942C470.123 177.217 471.338 177.184 472.396 176.806L472.143 173.489C471.36 173.83 470.499 173.887 469.549 173.703C467.693 173.344 466.908 171.849 467.351 169.561L469.664 157.607L475.361 158.709L475.996 155.429L470.299 154.326L472.002 145.522L467.934 147.108L466.673 153.625L462.918 152.898L462.284 156.178L466.039 156.905ZM477.871 178.358L481.496 179.06L485.705 157.308L482.08 156.606L477.871 178.358ZM482.343 150.389C482.05 151.899 482.99 153.29 484.544 153.591C486.098 153.891 487.488 152.951 487.781 151.441C488.081 149.887 487.15 148.453 485.596 148.153C484.043 147.852 482.643 148.835 482.343 150.389ZM490.647 177.786C492.163 180.363 494.457 181.926 497.608 182.536C500.758 183.145 503.47 182.551 505.795 180.717C508.163 178.892 509.631 176.4 510.224 173.335C510.816 170.271 510.376 167.455 508.86 164.878C507.387 162.309 505.101 160.703 501.95 160.093C498.8 159.483 496.08 160.121 493.711 161.946C491.387 163.78 489.928 166.229 489.335 169.293C488.742 172.358 489.173 175.217 490.647 177.786ZM495.893 164.786C497.411 163.423 499.201 162.964 501.316 163.373C503.431 163.782 504.92 164.877 505.777 166.699C506.684 168.486 506.929 170.459 506.512 172.617C506.094 174.775 505.131 176.514 503.614 177.877C502.148 179.205 500.357 179.665 498.242 179.256C496.128 178.846 494.638 177.752 493.73 175.965C492.874 174.142 492.629 172.169 493.046 170.011C493.464 167.854 494.427 166.115 495.893 164.786ZM534.301 173.383C535.137 169.067 533.196 166.139 529.225 165.371C526.075 164.761 523.374 165.761 521.174 168.335L521.951 164.321L518.325 163.62L514.116 185.372L517.742 186.073L519.504 176.967C520.063 174.075 521.127 171.818 522.678 170.283C524.272 168.755 525.915 168.133 527.598 168.459C530.101 168.943 531.069 170.653 530.492 173.631L527.711 188.003L531.337 188.704L534.301 173.383ZM548.757 169.15C544.916 168.407 541.877 170.461 541.209 173.913C540.407 178.057 543.766 180.139 546.405 181.769C548.214 182.836 549.61 184.181 549.335 185.605C548.892 187.892 547.51 188.789 545.179 188.338C542.978 187.912 541.57 186.162 540.956 183.088L537.566 184.178C538.175 187.744 540.444 190.825 544.544 191.618C548.99 192.478 552.253 190.423 553.088 186.107C554.367 179.728 544.031 178.534 544.826 174.658C545.16 172.932 546.483 172.113 547.993 172.405C549.331 172.664 550.484 173.649 551.546 175.332L554.416 173.693C553.288 171.191 551.39 169.66 548.757 169.15Z" fill="black"/>
</g>
</g>
<defs>
<filter id="filter0_d_4_20" x="0" y="0" width="621" height="264.341" filterUnits="userSpaceOnUse" color-interpolation-filters="sRGB">
<feFlood flood-opacity="0" result="BackgroundImageFix"/>
<feColorMatrix in="SourceAlpha" type="matrix" values="0 0 0 0 0 0 0 0 0 0 0 0 0 0 0 0 0 0 127 0" result="hardAlpha"/>
<feOffset dy="2"/>
<feGaussianBlur stdDeviation="1"/>
<feComposite in2="hardAlpha" operator="out"/>
<feColorMatrix type="matrix" values="0 0 0 0 0 0 0 0 0 0 0 0 0 0 0 0 0 0 0.25 0"/>
<feBlend mode="normal" in2="BackgroundImageFix" result="effect1_dropShadow_4_20"/>
<feBlend mode="normal" in="SourceGraphic" in2="effect1_dropShadow_4_20" result="shape"/>
</filter>
<clipPath id="clip0_4_20">
<rect x="30.3364" width="599.581" height="149.145" rx="12" transform="rotate(10.9516 30.3364 0)" fill="white"/>
</clipPath>
</defs>
</svg>
