<svg width="616" height="267" viewBox="0 0 616 267" fill="none" xmlns="http://www.w3.org/2000/svg">
<g filter="url(#filter0_d_4_20)">
<g clip-path="url(#clip0_4_20)">
<rect x="23.0174" width="594.203" height="202.112" rx="12" transform="rotate(5.96859 23.0174 0)" fill="white"/>
<path d="M86.94 87.1066C85.0318 91.4135 82.0455 93.3545 77.9811 92.9296C75.053 92.6234 72.8027 91.3278 71.1819 89.0819C69.6049 86.8405 68.9978 83.7728 69.3999 79.9269C69.802 76.0811 71.0304 73.2052 73.037 71.3385C75.0873 69.4764 77.5569 68.6742 80.485 68.9804C84.5493 69.4053 87.0696 71.922 88.0457 76.5305L91.8747 75.8263C91.4633 72.9999 90.2979 70.6248 88.3783 68.7011C86.4588 66.7774 83.9717 65.6337 80.8688 65.3093C77.0666 64.9118 73.6473 65.9239 70.6498 68.3939C67.6961 70.8685 65.9392 74.5727 65.4229 79.5111C64.9066 84.4496 65.8593 88.437 68.2373 91.469C70.6591 94.5056 73.7951 96.2031 77.5973 96.6006C80.7002 96.925 83.3655 96.3642 85.6414 94.8791C87.9173 93.3941 89.5534 91.2677 90.5405 88.5875L86.94 87.1066ZM97.0635 95.2781C98.7971 97.7125 101.218 99.0701 104.408 99.4037C107.598 99.7372 110.247 98.9097 112.403 96.8819C114.603 94.8586 115.848 92.2496 116.172 89.1467C116.496 86.0437 115.814 83.2773 114.08 80.8429C112.39 78.413 109.974 77.0117 106.784 76.6782C103.594 76.3446 100.94 77.2159 98.7404 79.2391C96.5844 81.2669 95.3443 83.8323 95.0199 86.9352C94.6954 90.0381 95.3736 92.8482 97.0635 95.2781ZM101.16 81.8778C102.552 80.3887 104.295 79.7757 106.437 79.9996C108.578 80.2235 110.157 81.1838 111.168 82.9241C112.227 84.6254 112.642 86.5686 112.414 88.7537C112.185 90.9388 111.377 92.7541 109.984 94.2432C108.64 95.6931 106.897 96.3061 104.755 96.0823C102.614 95.8584 101.035 94.8981 99.9761 93.1968C98.9652 91.4565 98.5499 89.5133 98.7783 87.3281C99.0068 85.143 99.8151 83.3277 101.16 81.8778ZM140.153 87.1033C140.61 82.733 138.423 79.986 134.402 79.5657C131.212 79.2321 128.609 80.4622 126.643 83.2166L127.068 79.1523L123.396 78.7685L121.094 100.795L124.765 101.179L125.729 91.9572C126.035 89.0291 126.898 86.6894 128.309 85.0255C129.764 83.3662 131.346 82.6038 133.05 82.782C135.585 83.047 136.697 84.6654 136.382 87.6809L134.86 102.234L138.531 102.618L140.153 87.1033ZM165.035 89.7046C165.492 85.3344 163.305 82.5874 159.284 82.1671C156.094 81.8335 153.491 83.0635 151.524 85.818L151.949 81.7536L148.278 81.3698L145.975 103.396L149.646 103.78L150.61 94.5586C150.917 91.6305 151.78 89.2908 153.191 87.6269C154.645 85.9676 156.227 85.2052 157.932 85.3834C160.466 85.6484 161.578 87.2668 161.263 90.2823L159.742 104.835L163.413 105.219L165.035 89.7046ZM190.201 95.9586C190.507 93.0305 189.889 90.4918 188.308 88.2941C186.774 86.0573 184.432 84.7963 181.329 84.4719C178.139 84.1383 175.577 84.975 173.596 87.0211C171.663 89.0281 170.51 91.6025 170.177 94.7929C169.843 97.9832 170.439 100.74 171.91 103.147C173.43 105.515 175.763 106.864 178.953 107.197C183.498 107.673 186.439 106.169 188.945 102.057L185.857 100.32C184.293 103.028 182.403 104.2 179.3 103.876C175.498 103.478 173.619 100.322 173.853 95.9725L190.023 97.663L190.201 95.9586ZM180.982 87.7933C184.347 88.1451 186.173 90.545 186.525 93.9395L174.419 92.6739C175.47 89.3819 177.704 87.4506 180.982 87.7933ZM210.81 103.061C209.346 105.648 207.194 106.792 204.354 106.495C200.289 106.07 198.452 102.52 198.945 97.8006C199.438 93.0807 201.971 89.9877 206.035 90.4126C208.876 90.7096 210.745 92.2746 211.641 95.1075L214.969 94.13C213.602 89.8783 210.753 87.5481 206.383 87.0912C203.192 86.7577 200.587 87.5898 198.606 89.6359C196.673 91.6428 195.52 94.2173 195.187 97.4076C194.853 100.598 195.448 103.355 196.92 105.762C198.439 108.13 200.816 109.483 204.007 109.817C208.377 110.274 211.646 108.583 213.863 104.706L210.81 103.061ZM222.682 92.5064L221.448 104.306C220.95 109.07 223.181 111.821 227.07 112.228C228.512 112.379 229.72 112.24 230.741 111.772L230.2 108.491C229.451 108.898 228.597 109.03 227.636 108.929C225.757 108.733 224.845 107.312 225.087 104.996L226.353 92.8903L232.121 93.4934L232.469 90.172L226.7 89.5688L227.632 80.6534L223.719 82.5859L223.029 89.185L219.227 88.7875L218.879 92.1089L222.682 92.5064ZM254.952 108.604L251.021 92.1116L247 91.6912L252.529 113.608L248.004 123.076L251.763 123.469L265.924 93.6697L262.078 93.2676L254.952 108.604ZM269.699 113.327C271.432 115.762 273.853 117.119 277.043 117.453C280.233 117.786 282.882 116.959 285.038 114.931C287.238 112.908 288.483 110.299 288.807 107.196C289.131 104.093 288.449 101.326 286.715 98.8919C285.025 96.462 282.609 95.0607 279.419 94.7272C276.229 94.3936 273.575 95.2649 271.375 97.2881C269.219 99.3159 267.979 101.881 267.655 104.984C267.33 108.087 268.009 110.897 269.699 113.327ZM273.795 99.9268C275.187 98.4377 276.93 97.8247 279.072 98.0486C281.213 98.2725 282.792 99.2328 283.802 100.973C284.862 102.674 285.277 104.618 285.049 106.803C284.82 108.988 284.012 110.803 282.619 112.292C281.275 113.742 279.532 114.355 277.39 114.131C275.249 113.907 273.67 112.947 272.611 111.246C271.6 109.505 271.185 107.562 271.413 105.377C271.642 103.192 272.45 101.377 273.795 99.9268ZM294.147 112.305C293.69 116.675 295.877 119.422 299.898 119.842C303.088 120.176 305.691 118.946 307.658 116.191L307.233 120.256L310.904 120.639L313.207 98.6131L309.536 98.2293L308.572 107.451C308.265 110.379 307.402 112.718 305.948 114.378C304.537 116.042 302.955 116.804 301.25 116.626C298.716 116.361 297.603 114.742 297.919 111.727L299.44 97.1738L295.769 96.79L294.147 112.305ZM333.353 101.029C332.568 100.505 331.586 100.181 330.406 100.058C327.958 99.802 325.032 101.175 323.508 103.49L323.901 99.7312L320.23 99.3474L317.927 121.374L321.598 121.758L322.471 113.41C322.823 110.045 323.709 107.487 325.129 105.736C326.549 103.984 328.092 103.174 329.753 103.347C330.67 103.443 331.478 103.749 332.267 104.229L333.353 101.029ZM358.142 102.958C351.849 102.3 347.878 106.479 347.165 113.297C346.452 120.115 349.473 125.025 355.767 125.683C358.389 125.957 361.24 124.886 362.511 123.296L362.227 126.005L365.898 126.389L369.133 95.4474L365.462 95.0636L364.256 106.601C363.936 105.861 363.13 105.114 361.932 104.326C360.733 103.538 359.454 103.095 358.142 102.958ZM356.463 122.398C352.618 121.996 350.425 118.454 350.924 113.69C351.422 108.926 354.299 105.914 358.145 106.316C362.122 106.731 364.183 110.261 363.685 115.024C363.187 119.788 360.44 122.814 356.463 122.398ZM392.882 117.149C393.188 114.221 392.57 111.682 390.988 109.484C389.455 107.248 387.113 105.987 384.01 105.662C380.82 105.329 378.258 106.165 376.277 108.211C374.344 110.218 373.191 112.793 372.858 115.983C372.524 119.173 373.119 121.931 374.591 124.338C376.11 126.706 378.444 128.054 381.634 128.388C386.179 128.863 389.12 127.359 391.626 123.247L388.538 121.51C386.974 124.219 385.084 125.391 381.981 125.066C378.179 124.669 376.3 121.512 376.534 117.163L392.704 118.853L392.882 117.149ZM383.663 108.984C387.028 109.335 388.853 111.735 389.205 115.13L377.1 113.864C378.151 110.572 380.385 108.641 383.663 108.984ZM406.198 107.982C402.309 107.575 399.461 109.884 399.095 113.38C398.657 117.576 402.181 119.358 404.951 120.752C406.845 121.657 408.352 122.875 408.202 124.317C407.959 126.634 406.661 127.646 404.301 127.4C402.072 127.167 400.518 125.546 399.64 122.539L396.359 123.919C397.274 127.416 399.802 130.287 403.953 130.721C408.455 131.192 411.526 128.862 411.983 124.492C412.703 118.028 402.307 117.737 402.762 113.808C402.944 112.06 404.19 111.13 405.72 111.29C407.075 111.431 408.308 112.311 409.512 113.895L412.227 112.014C410.887 109.621 408.864 108.261 406.198 107.982ZM416.815 131.712L420.486 132.096L422.789 110.07L419.118 109.686L416.815 131.712ZM418.839 103.472C418.68 105.001 419.736 106.305 421.309 106.469C422.883 106.634 424.186 105.577 424.346 104.047C424.511 102.474 423.459 101.127 421.885 100.963C420.312 100.798 419.004 101.898 418.839 103.472ZM429.428 117.921C429.232 119.801 429.587 121.472 430.542 122.898C428.655 123.628 427.639 124.892 427.452 126.683C427.296 128.169 427.654 129.4 428.572 130.335C427.094 131.373 426.235 132.83 426.038 134.709C425.563 139.254 428.995 142.352 434.632 142.941C440.051 143.508 444.201 141.424 444.736 136.31C445.143 132.421 442.661 129.952 438.466 129.514L433.265 128.97C431.605 128.796 430.838 128.098 430.966 126.874C431.067 125.913 431.621 125.264 432.632 124.883C433.67 125.522 434.91 125.917 436.352 126.068C438.581 126.301 440.485 125.837 442.064 124.677C443.648 123.473 444.578 121.759 444.811 119.53C444.971 118 444.759 116.652 444.135 115.438L447.28 114.088L445.935 110.899L441.768 112.717C440.613 111.933 439.334 111.49 437.892 111.34C435.663 111.107 433.754 111.614 432.171 112.818C430.587 114.022 429.661 115.692 429.428 117.921ZM437.569 132.601C440.06 132.861 441.169 134.082 440.941 136.267C440.69 138.671 438.641 140.091 434.97 139.707C431.299 139.324 429.463 137.453 429.723 134.962C429.869 133.563 430.464 132.521 431.503 131.878C432.154 131.991 432.674 132.089 433.111 132.135L437.569 132.601ZM434.516 115.316C436.249 113.951 438.959 114.235 440.372 115.929C441.081 116.754 441.365 117.844 441.228 119.155C441.091 120.466 440.588 121.474 439.723 122.135C437.999 123.412 435.29 123.129 433.867 121.522C433.158 120.697 432.875 119.607 433.012 118.296C433.149 116.985 433.652 115.977 434.516 115.316ZM469.163 121.501C469.619 117.131 467.433 114.384 463.412 113.964C460.222 113.63 457.619 114.86 455.652 117.615L456.077 113.55L452.406 113.166L450.103 135.193L453.774 135.576L454.738 126.355C455.044 123.427 455.907 121.087 457.318 119.423C458.773 117.764 460.355 117.002 462.059 117.18C464.594 117.445 465.706 119.063 465.391 122.079L463.869 136.632L467.54 137.016L469.163 121.501ZM490.156 120.471L488.2 139.176L491.871 139.56L493.827 120.855L501.387 121.645L499.432 140.35L503.103 140.734L505.406 118.708L494.174 117.533L494.252 116.79C494.585 113.6 496.551 112.127 499.566 112.442C501.445 112.638 503.017 113.244 504.328 114.221L505.444 111.157C504.19 110.054 502.361 109.376 499.957 109.125C497.553 108.874 495.426 109.358 493.658 110.631C491.891 111.905 490.85 113.828 490.576 116.45L490.503 117.149L487.356 116.82L487.009 120.142L490.156 120.471ZM510.705 141.529L514.376 141.912L517.611 110.971L513.94 110.587L510.705 141.529ZM541.19 132.655C541.496 129.726 540.878 127.188 539.297 124.99C537.763 122.753 535.421 121.492 532.318 121.168C529.128 120.834 526.566 121.671 524.585 123.717C522.652 125.724 521.499 128.298 521.166 131.489C520.832 134.679 521.428 137.436 522.899 139.843C524.419 142.211 526.752 143.56 529.942 143.893C534.487 144.368 537.428 142.865 539.934 138.753L536.846 137.016C535.282 139.724 533.392 140.896 530.289 140.572C526.487 140.174 524.608 137.018 524.842 132.668L541.012 134.359L541.19 132.655ZM531.971 124.489C535.336 124.841 537.161 127.241 537.513 130.635L525.408 129.37C526.459 126.078 528.693 124.147 531.971 124.489ZM78.7289 144.515L76.1706 127.149L72.4996 126.766L66.4047 143.226L63.6716 125.843L59.8257 125.441L64.2094 148.166L67.7057 148.531L73.7822 132.246L76.3588 149.436L79.8551 149.802L88.8445 128.475L84.9986 128.072L78.7289 144.515ZM91.5097 151.02L95.1808 151.404L97.4836 129.378L93.8126 128.994L91.5097 151.02ZM93.5345 122.78C93.3746 124.309 94.4312 125.613 96.0045 125.777C97.5778 125.942 98.8812 124.885 99.0411 123.355C99.2056 121.782 98.1535 120.435 96.5802 120.27C95.0069 120.106 93.699 121.206 93.5345 122.78ZM105.947 133.62L104.713 145.42C104.215 150.184 106.446 152.935 110.335 153.342C111.778 153.493 112.985 153.354 114.006 152.886L113.465 149.604C112.716 150.012 111.863 150.144 110.901 150.043C109.022 149.847 108.11 148.426 108.352 146.11L109.618 134.004L115.387 134.607L115.734 131.286L109.965 130.683L110.897 121.767L106.984 123.7L106.294 130.299L102.492 129.901L102.145 133.223L105.947 133.62ZM138.721 140.493C139.201 135.904 137.058 133.162 132.994 132.737C129.628 132.385 126.566 133.788 124.88 136.395L126.241 123.372L122.57 122.988L119.335 153.929L123.006 154.313L123.984 144.961C124.286 142.076 125.183 139.829 126.725 138.178C128.268 136.528 129.937 135.775 131.641 135.953C134.176 136.218 135.288 137.837 134.973 140.852L133.451 155.405L137.122 155.789L138.721 140.493ZM159.441 151.716C159.702 149.225 161.989 148.051 165.704 148.439L169.637 148.85L169.583 149.375C169.34 151.691 168.55 153.331 167.212 154.296C165.875 155.261 164.377 155.634 162.717 155.461C160.401 155.218 159.222 153.814 159.441 151.716ZM173.71 145.388C174.295 139.794 171.214 136.733 166.1 136.198C161.948 135.764 158.603 137.756 157.647 141.411L160.803 142.492C161.508 140.401 163.437 139.277 165.753 139.52C168.943 139.853 170.4 141.552 170.085 144.567L169.985 145.529L166.401 145.154C160.239 144.51 156.172 146.647 155.683 151.323C155.212 155.825 157.824 158.307 161.801 158.723C164.817 159.038 167.208 158.139 169.067 155.992L169.355 159.159L172.239 159.46L173.71 145.388ZM212.764 151.813C211.884 156.846 208.561 159.9 203.448 159.366C200.519 159.059 198.269 157.764 196.648 155.518C195.071 153.277 194.464 150.209 194.866 146.363C195.268 142.517 196.497 139.641 198.503 137.775C200.554 135.912 203.023 135.11 205.951 135.416C210.016 135.841 212.58 138.363 213.556 142.971L217.385 142.267C216.585 136.396 212.628 132.403 206.335 131.745C202.489 131.343 199.07 132.355 196.121 134.786C193.172 137.217 191.415 140.921 190.889 145.947C190.364 150.973 191.273 154.956 193.656 157.944C196.038 160.933 199.13 162.625 202.889 163.018C206.866 163.434 210.165 161.879 211.974 159.373L211.928 163.61L215.206 163.953L216.819 148.526L206.549 147.452L206.165 151.123L212.764 151.813ZM221.85 164.647L225.521 165.031L227.824 143.005L224.153 142.621L221.85 164.647ZM223.875 136.407C223.715 137.936 224.772 139.24 226.345 139.404C227.918 139.569 229.222 138.512 229.382 136.982C229.546 135.409 228.494 134.062 226.921 133.898C225.347 133.733 224.039 134.833 223.875 136.407ZM236.287 147.247L235.054 159.047C234.556 163.811 236.786 166.562 240.676 166.969C242.118 167.12 243.325 166.981 244.346 166.513L243.806 163.232C243.056 163.639 242.203 163.771 241.242 163.67C239.362 163.474 238.451 162.053 238.693 159.737L239.958 147.631L245.727 148.234L246.075 144.913L240.306 144.31L241.238 135.394L237.325 137.327L236.635 143.926L232.833 143.528L232.485 146.85L236.287 147.247ZM269.915 151.382L255.93 149.92L257.237 137.421L253.391 137.019L250.193 167.611L254.039 168.013L255.547 153.591L269.531 155.053L268.024 169.475L271.87 169.877L275.068 139.285L271.222 138.883L269.915 151.382ZM279.414 164.083C278.958 168.453 281.144 171.2 285.165 171.62C288.355 171.954 290.958 170.724 292.925 167.969L292.5 172.034L296.171 172.418L298.474 150.391L294.803 150.008L293.839 159.229C293.533 162.157 292.67 164.497 291.215 166.156C289.804 167.82 288.222 168.582 286.518 168.404C283.983 168.139 282.871 166.521 283.186 163.505L284.708 148.952L281.036 148.568L279.414 164.083ZM313.467 174.579C319.76 175.237 323.731 171.058 324.444 164.24C325.157 157.422 322.136 152.512 315.843 151.854C314.532 151.717 313.189 151.886 311.853 152.409C310.517 152.932 309.574 153.496 309.108 154.154L310.314 142.616L306.643 142.233L303.408 173.174L307.079 173.558L307.362 170.848C308.277 172.667 310.845 174.305 313.467 174.579ZM315.146 155.139C318.992 155.541 321.184 159.083 320.686 163.847C320.188 168.611 317.31 171.623 313.464 171.221C309.487 170.806 307.427 167.276 307.925 162.513C308.423 157.749 311.169 154.723 315.146 155.139ZM356.775 156.796C355.99 156.272 355.008 155.948 353.828 155.825C351.38 155.569 348.453 156.942 346.93 159.257L347.323 155.499L343.652 155.115L341.349 177.141L345.02 177.525L345.893 169.178C346.245 165.812 347.131 163.254 348.551 161.503C349.971 159.752 351.514 158.941 353.175 159.115C354.092 159.21 354.9 159.516 355.689 159.996L356.775 156.796ZM378.064 168.918C378.37 165.99 377.752 163.451 376.17 161.254C374.637 159.017 372.295 157.756 369.192 157.431C366.001 157.098 363.44 157.935 361.459 159.981C359.526 161.988 358.373 164.562 358.039 167.752C357.706 170.943 358.301 173.7 359.773 176.107C361.292 178.475 363.625 179.823 366.816 180.157C371.361 180.632 374.302 179.128 376.808 175.016L373.72 173.28C372.156 175.988 370.266 177.16 367.163 176.836C363.361 176.438 361.482 173.281 361.716 168.932L377.886 170.623L378.064 168.918ZM368.844 160.753C372.21 161.105 374.035 163.505 374.387 166.899L362.281 165.633C363.333 162.341 365.567 160.41 368.844 160.753ZM392.55 182.847C398.844 183.505 402.815 179.326 403.528 172.508C404.241 165.691 401.219 160.78 394.926 160.122C392.304 159.848 389.453 160.919 388.182 162.509L388.465 159.8L384.794 159.416L381.559 190.358L385.23 190.742L386.437 179.204C386.757 179.944 387.562 180.691 388.761 181.479C389.96 182.267 391.239 182.71 392.55 182.847ZM394.229 163.407C398.075 163.809 400.267 167.352 399.769 172.115C399.271 176.879 396.394 179.892 392.548 179.489C388.571 179.074 386.51 175.545 387.008 170.781C387.506 166.017 390.252 162.991 394.229 163.407ZM410.188 181.334C411.921 183.768 414.342 185.126 417.532 185.459C420.723 185.793 423.372 184.965 425.528 182.938C427.727 180.914 428.972 178.305 429.296 175.202C429.621 172.099 428.938 169.333 427.204 166.899C425.515 164.469 423.099 163.067 419.908 162.734C416.718 162.4 414.064 163.272 411.865 165.295C409.709 167.323 408.469 169.888 408.144 172.991C407.82 176.094 408.498 178.904 410.188 181.334ZM414.284 167.933C415.677 166.444 417.42 165.831 419.561 166.055C421.702 166.279 423.281 167.239 424.292 168.98C425.351 170.681 425.766 172.624 425.538 174.809C425.309 176.995 424.501 178.81 423.108 180.299C421.764 181.749 420.021 182.362 417.88 182.138C415.738 181.914 414.16 180.954 413.1 179.253C412.09 177.512 411.674 175.569 411.903 173.384C412.131 171.199 412.939 169.383 414.284 167.933Z" fill="black"/>
</g>
</g>
<defs>
<filter id="filter0_d_4_20" x="0" y="0" width="616" height="266.806" filterUnits="userSpaceOnUse" color-interpolation-filters="sRGB">
<feFlood flood-opacity="0" result="BackgroundImageFix"/>
<feColorMatrix in="SourceAlpha" type="matrix" values="0 0 0 0 0 0 0 0 0 0 0 0 0 0 0 0 0 0 127 0" result="hardAlpha"/>
<feOffset dy="2"/>
<feGaussianBlur stdDeviation="1"/>
<feComposite in2="hardAlpha" operator="out"/>
<feColorMatrix type="matrix" values="0 0 0 0 0 0 0 0 0 0 0 0 0 0 0 0 0 0 0.25 0"/>
<feBlend mode="normal" in2="BackgroundImageFix" result="effect1_dropShadow_4_20"/>
<feBlend mode="normal" in="SourceGraphic" in2="effect1_dropShadow_4_20" result="shape"/>
</filter>
<clipPath id="clip0_4_20">
<rect x="23.0174" width="594.203" height="202.112" rx="12" transform="rotate(5.96859 23.0174 0)" fill="white"/>
</clipPath>
</defs>
</svg>
