<svg width="1069" height="419" viewBox="0 0 1069 419" fill="none" xmlns="http://www.w3.org/2000/svg">
<g filter="url(#filter0_d_8_6)">
<g clip-path="url(#clip0_8_6)">
<rect x="2.00084" y="162.793" width="1037.83" height="255.108" rx="12" transform="rotate(-9.02465 2.00084 162.793)" fill="white"/>
<path d="M68.7206 215.96L72.9659 242.689L76.7843 242.082L72.5391 215.353L81.3041 213.961L80.7252 210.316L59.3767 213.707L59.9556 217.352L68.7206 215.96ZM105.46 221.958C104.737 217.402 101.958 215.307 97.9221 215.948C94.581 216.479 91.9859 218.626 91.0316 221.58L88.9779 208.65L85.333 209.229L90.2123 239.95L93.8571 239.371L92.3823 230.085C91.9275 227.221 92.2131 224.818 93.2757 222.825C94.3382 220.833 95.7556 219.673 97.4479 219.405C99.9646 219.005 101.457 220.28 101.933 223.274L104.228 237.724L107.873 237.145L105.46 221.958ZM131.3 221.279C130.838 218.372 129.584 216.08 127.488 214.366C125.429 212.603 122.84 211.991 119.759 212.48C116.592 212.983 114.334 214.454 112.95 216.942C111.602 219.381 111.155 222.165 111.658 225.333C112.161 228.501 113.449 231.01 115.493 232.954C117.573 234.848 120.176 235.547 123.343 235.043C127.856 234.327 130.307 232.114 131.664 227.494L128.233 226.615C127.422 229.636 125.9 231.256 122.819 231.746C119.044 232.345 116.413 229.783 115.514 225.521L131.569 222.971L131.3 221.279ZM120.283 215.778C123.624 215.247 126.008 217.093 127.226 220.28L115.207 222.189C115.371 218.738 117.029 216.295 120.283 215.778ZM161.013 229.06C167.262 228.068 170.016 223.004 168.941 216.235C167.866 209.466 163.678 205.505 157.43 206.497C154.826 206.91 152.35 208.683 151.534 210.547L151.106 207.857L147.461 208.436L152.341 239.157L155.986 238.578L154.166 227.123C154.667 227.755 155.638 228.268 157 228.719C158.362 229.17 159.712 229.267 161.013 229.06ZM157.606 209.85C161.425 209.243 164.458 212.098 165.209 216.828C165.961 221.557 163.961 225.211 160.142 225.818C156.194 226.445 153.29 223.57 152.539 218.84C151.788 214.11 153.658 210.477 157.606 209.85ZM185.783 202.661C184.89 202.358 183.857 202.3 182.686 202.486C180.256 202.872 177.784 204.955 176.912 207.584L176.319 203.853L172.674 204.432L176.147 226.301L179.792 225.722L178.476 217.434C177.945 214.093 178.139 211.393 179.058 209.334C179.977 207.276 181.257 206.094 182.906 205.832C183.817 205.687 184.676 205.773 185.562 206.033L185.783 202.661ZM209.481 208.862C209.019 205.955 207.765 203.663 205.669 201.949C203.609 200.186 201.021 199.574 197.94 200.063C194.773 200.566 192.515 202.037 191.131 204.525C189.783 206.964 189.336 209.748 189.839 212.916C190.342 216.083 191.63 218.593 193.674 220.537C195.754 222.431 198.356 223.129 201.524 222.626C206.037 221.91 208.488 219.696 209.845 215.077L206.413 214.198C205.603 217.219 204.081 218.839 201 219.329C197.225 219.928 194.594 217.366 193.695 213.104L209.749 210.554L209.481 208.862ZM198.464 203.361C201.805 202.83 204.189 204.676 205.407 207.863L193.388 209.772C193.551 206.321 195.21 203.877 198.464 203.361ZM219.97 196.564C216.109 197.177 213.955 200.144 214.506 203.615C215.168 207.781 219.033 208.59 222.07 209.22C224.132 209.605 225.903 210.391 226.131 211.823C226.496 214.123 225.504 215.437 223.161 215.809C220.948 216.16 219.028 214.997 217.401 212.32L214.589 214.501C216.378 217.642 219.562 219.761 223.684 219.107C228.154 218.397 230.517 215.352 229.828 211.013C228.851 204.584 218.735 206.992 218.158 203.08C217.883 201.344 218.845 200.124 220.364 199.882C221.709 199.669 223.128 200.2 224.701 201.418L226.836 198.899C224.923 196.934 222.617 196.144 219.97 196.564ZM253.38 201.89C252.919 198.982 251.665 196.69 249.569 194.977C247.509 193.213 244.921 192.601 241.84 193.09C238.672 193.594 236.415 195.064 235.031 197.553C233.683 199.991 233.236 202.776 233.739 205.944C234.242 209.111 235.53 211.62 237.574 213.564C239.654 215.458 242.256 216.157 245.424 215.654C249.936 214.937 252.388 212.724 253.745 208.104L250.313 207.226C249.503 210.246 247.981 211.867 244.9 212.356C241.125 212.956 238.494 210.393 237.594 206.132L253.649 203.582L253.38 201.89ZM242.364 196.388C245.705 195.858 248.089 197.703 249.307 200.891L237.288 202.8C237.451 199.348 239.109 196.905 242.364 196.388ZM276.356 194.593C275.667 190.254 272.844 188.166 268.852 188.8C265.685 189.303 263.489 191.165 262.302 194.334L261.661 190.298L258.016 190.877L261.489 212.746L265.134 212.168L263.68 203.012C263.218 200.105 263.447 197.622 264.379 195.65C265.355 193.671 266.686 192.525 268.378 192.256C270.895 191.857 272.387 193.132 272.863 196.126L275.158 210.576L278.803 209.997L276.356 194.593ZM284.324 190.08L286.185 201.795C286.936 206.525 289.802 208.606 293.664 207.992C295.096 207.765 296.226 207.318 297.091 206.603L295.72 203.573C295.101 204.161 294.312 204.508 293.357 204.66C291.491 204.956 290.243 203.82 289.878 201.52L287.969 189.501L293.696 188.591L293.173 185.293L287.445 186.203L286.039 177.351L282.759 180.23L283.8 186.782L280.025 187.382L280.549 190.679L284.324 190.08ZM303.89 199.562C303.497 197.088 305.403 195.362 309.091 194.776L312.996 194.156L313.079 194.677C313.444 196.977 313.106 198.765 312.063 200.043C311.02 201.321 309.671 202.069 308.022 202.331C305.722 202.696 304.221 201.644 303.89 199.562ZM316.035 189.759C315.153 184.205 311.384 182.045 306.307 182.851C302.185 183.506 299.47 186.295 299.491 190.073L302.82 190.301C302.959 188.099 304.531 186.514 306.831 186.149C309.999 185.646 311.845 186.91 312.321 189.904L312.473 190.858L308.914 191.423C302.796 192.395 299.421 195.511 300.158 200.154C300.868 204.624 304.033 206.345 307.982 205.718C310.976 205.243 313.053 203.756 314.293 201.201L315.39 204.186L318.254 203.731L316.035 189.759ZM323.435 183.868L325.296 195.584C326.047 200.313 328.913 202.394 332.775 201.78C334.207 201.553 335.337 201.106 336.202 200.391L334.831 197.361C334.213 197.949 333.423 198.296 332.468 198.448C330.603 198.744 329.354 197.608 328.989 195.308L327.08 183.289L332.808 182.379L332.284 179.082L326.556 179.991L325.151 171.139L321.871 174.018L322.912 180.57L319.137 181.17L319.66 184.467L323.435 183.868ZM341.875 199.979L345.52 199.4L342.046 177.531L338.401 178.11L341.875 199.979ZM336.525 172.18C336.766 173.699 338.124 174.684 339.686 174.436C341.248 174.188 342.234 172.83 341.993 171.312C341.744 169.749 340.38 168.721 338.818 168.969C337.256 169.217 336.277 170.618 336.525 172.18ZM353.68 195.079C355.984 196.982 358.673 197.667 361.84 197.164C365.008 196.661 367.352 195.176 368.91 192.66C370.511 190.137 371.039 187.295 370.549 184.215C370.06 181.134 368.685 178.638 366.381 176.736C364.12 174.826 361.424 174.097 358.257 174.601C355.089 175.104 352.752 176.632 351.15 179.155C349.593 181.671 349.058 184.469 349.548 187.55C350.037 190.631 351.419 193.169 353.68 195.079ZM354.169 181.077C355.129 179.279 356.654 178.236 358.78 177.898C360.907 177.561 362.68 178.08 364.106 179.499C365.569 180.868 366.473 182.638 366.818 184.807C367.162 186.977 366.851 188.939 365.891 190.738C364.968 192.486 363.443 193.529 361.317 193.866C359.19 194.204 357.417 193.685 355.954 192.316C354.528 190.896 353.624 189.127 353.279 186.957C352.935 184.788 353.246 182.826 354.169 181.077ZM393.182 176.038C392.493 171.699 389.67 169.611 385.678 170.245C382.511 170.748 380.315 172.61 379.128 175.779L378.487 171.743L374.842 172.322L378.316 194.191L381.96 193.613L380.506 184.457C380.045 181.55 380.273 179.067 381.205 177.095C382.181 175.116 383.512 173.97 385.204 173.702C387.721 173.302 389.213 174.577 389.689 177.571L391.984 192.021L395.629 191.442L393.182 176.038ZM415.013 188.363L418.658 187.784L415.184 165.915L411.539 166.494L415.013 188.363ZM409.663 160.564C409.905 162.082 411.262 163.068 412.824 162.82C414.386 162.572 415.372 161.214 415.131 159.695C414.883 158.133 413.518 157.104 411.956 157.352C410.394 157.601 409.415 159.002 409.663 160.564ZM428.452 163.452C424.591 164.065 422.437 167.032 422.988 170.503C423.65 174.669 427.515 175.478 430.552 176.108C432.614 176.492 434.385 177.279 434.613 178.711C434.978 181.01 433.986 182.325 431.642 182.697C429.429 183.048 427.51 181.885 425.883 179.207L423.071 181.389C424.86 184.53 428.044 186.649 432.166 185.994C436.636 185.285 438.999 182.24 438.31 177.901C437.333 171.472 427.217 173.88 426.64 169.968C426.364 168.232 427.327 167.011 428.846 166.77C430.191 166.556 431.61 167.087 433.183 168.306L435.318 165.787C433.405 163.822 431.099 163.031 428.452 163.452ZM454.9 166.814C455.196 168.68 455.972 170.202 457.264 171.332C455.629 172.526 454.975 174.009 455.258 175.788C455.492 177.263 456.155 178.359 457.284 179.025C456.125 180.41 455.672 182.039 455.969 183.905C456.685 188.417 460.801 190.522 466.398 189.633C471.779 188.778 475.248 185.691 474.442 180.615C473.828 176.753 470.793 175.011 466.628 175.672L461.464 176.492C459.815 176.754 458.894 176.278 458.701 175.063C458.55 174.108 458.917 173.338 459.796 172.709C460.963 173.057 462.263 173.118 463.695 172.891C465.908 172.539 467.627 171.599 468.852 170.07C470.07 168.497 470.525 166.601 470.174 164.388C469.933 162.869 469.379 161.623 468.462 160.612L471.151 158.494L469.026 155.762L465.473 158.595C464.154 158.137 462.804 158.04 461.372 158.268C459.159 158.619 457.447 159.603 456.229 161.175C455.011 162.748 454.549 164.601 454.9 166.814ZM466.56 178.886C469.033 178.493 470.42 179.385 470.765 181.554C471.144 183.941 469.533 185.843 465.888 186.422C462.243 187.001 459.986 185.669 459.593 183.195C459.372 181.807 459.677 180.646 460.515 179.757C461.172 179.697 461.7 179.658 462.134 179.589L466.56 178.886ZM459.14 162.982C460.461 161.215 463.152 160.788 464.955 162.058C465.853 162.672 466.409 163.651 466.616 164.953C466.823 166.255 466.597 167.358 465.933 168.22C464.599 169.9 461.909 170.327 460.119 169.143C459.221 168.53 458.665 167.55 458.458 166.249C458.251 164.947 458.477 163.843 459.14 162.982ZM495.847 163.38C495.385 160.473 494.131 158.181 492.035 156.467C489.975 154.703 487.387 154.091 484.306 154.581C481.139 155.084 478.881 156.554 477.497 159.043C476.149 161.481 475.702 164.266 476.205 167.434C476.708 170.601 477.996 173.11 480.04 175.055C482.12 176.948 484.722 177.647 487.89 177.144C492.403 176.427 494.854 174.214 496.211 169.595L492.779 168.716C491.969 171.736 490.447 173.357 487.366 173.846C483.591 174.446 480.96 171.883 480.061 167.622L496.115 165.072L495.847 163.38ZM484.83 157.878C488.171 157.348 490.555 159.193 491.773 162.381L479.754 164.29C479.917 160.838 481.576 158.395 484.83 157.878ZM518.822 156.083C518.133 151.744 515.31 149.656 511.318 150.29C508.151 150.794 505.955 152.655 504.768 155.824L504.127 151.788L500.482 152.367L503.956 174.237L507.601 173.658L506.146 164.502C505.685 161.595 505.913 159.112 506.845 157.14C507.821 155.161 509.152 154.015 510.844 153.747C513.361 153.347 514.853 154.622 515.329 157.616L517.624 172.066L521.269 171.487L518.822 156.083ZM544.747 155.613C544.285 152.706 543.031 150.414 540.935 148.701C538.875 146.937 536.287 146.325 533.206 146.814C530.039 147.317 527.781 148.788 526.397 151.277C525.049 153.715 524.602 156.5 525.105 159.667C525.608 162.835 526.896 165.344 528.94 167.288C531.02 169.182 533.622 169.881 536.79 169.378C541.303 168.661 543.754 166.448 545.111 161.828L541.679 160.949C540.869 163.97 539.347 165.591 536.266 166.08C532.491 166.679 529.86 164.117 528.961 159.856L545.015 157.306L544.747 155.613ZM533.73 150.112C537.071 149.581 539.455 151.427 540.673 154.614L528.654 156.523C528.817 153.072 530.476 150.629 533.73 150.112ZM561.813 142.938C560.92 142.635 559.888 142.576 558.716 142.762C556.286 143.148 553.814 145.231 552.942 147.861L552.349 144.13L548.704 144.708L552.178 166.578L555.823 165.999L554.506 157.711C553.976 154.37 554.17 151.67 555.088 149.611C556.007 147.552 557.287 146.37 558.936 146.108C559.847 145.964 560.706 146.05 561.593 146.309L561.813 142.938ZM570.806 157.169C570.413 154.695 572.319 152.969 576.007 152.383L579.913 151.763L579.995 152.284C580.36 154.583 580.022 156.372 578.979 157.65C577.936 158.928 576.587 159.676 574.938 159.938C572.639 160.303 571.137 159.251 570.806 157.169ZM582.951 147.366C582.069 141.812 578.3 139.652 573.224 140.458C569.101 141.113 566.386 143.902 566.408 147.68L569.736 147.908C569.875 145.706 571.448 144.121 573.747 143.756C576.915 143.253 578.762 144.517 579.237 147.511L579.389 148.465L575.831 149.03C569.712 150.002 566.337 153.118 567.075 157.761C567.784 162.231 570.949 163.952 574.898 163.325C577.892 162.85 579.969 161.363 581.209 158.808L582.306 161.793L585.17 161.338L582.951 147.366ZM590.352 141.475L592.212 153.19C592.963 157.92 595.83 160.001 599.691 159.387C601.123 159.16 602.254 158.713 603.119 157.998L601.748 154.968C601.129 155.556 600.339 155.903 599.385 156.055C597.519 156.351 596.271 155.215 595.905 152.915L593.996 140.896L599.724 139.986L599.2 136.688L593.473 137.598L592.067 128.746L588.787 131.625L589.828 138.177L586.053 138.777L586.576 142.074L590.352 141.475ZM624.707 142.914C624.245 140.006 622.992 137.714 620.895 136.001C618.836 134.237 616.247 133.625 613.167 134.114C609.999 134.617 607.741 136.088 606.357 138.577C605.01 141.015 604.562 143.8 605.065 146.967C605.568 150.135 606.857 152.644 608.9 154.588C610.981 156.482 613.583 157.181 616.75 156.678C621.263 155.961 623.714 153.748 625.071 149.128L621.64 148.25C620.829 151.27 619.307 152.891 616.227 153.38C612.452 153.98 609.82 151.417 608.921 147.156L624.976 144.606L624.707 142.914ZM613.69 137.412C617.032 136.881 619.416 138.727 620.634 141.915L608.614 143.824C608.778 140.372 610.436 137.929 613.69 137.412ZM637.825 130.198C631.576 131.19 628.822 136.254 629.897 143.024C630.972 149.793 635.16 153.754 641.408 152.762C644.012 152.348 646.488 150.576 647.304 148.711L647.732 151.401L651.376 150.822L646.497 120.101L642.852 120.68L644.672 132.136C644.171 131.503 643.2 130.99 641.838 130.539C640.476 130.088 639.126 129.991 637.825 130.198ZM641.232 149.409C637.413 150.015 634.38 147.161 633.628 142.431C632.877 137.701 634.877 134.047 638.695 133.441C642.644 132.814 645.547 135.689 646.299 140.418C647.05 145.148 645.18 148.782 641.232 149.409ZM672.123 141.077C671.731 138.604 673.636 136.877 677.324 136.292L681.23 135.671L681.312 136.192C681.678 138.492 681.339 140.28 680.296 141.558C679.254 142.836 677.904 143.584 676.255 143.846C673.956 144.211 672.454 143.16 672.123 141.077ZM684.268 131.274C683.386 125.72 679.617 123.56 674.541 124.367C670.419 125.021 667.703 127.81 667.725 131.588L671.053 131.816C671.192 129.614 672.765 128.03 675.064 127.664C678.232 127.161 680.079 128.425 680.554 131.419L680.706 132.374L677.148 132.939C671.03 133.91 667.654 137.027 668.392 141.67C669.102 146.139 672.267 147.86 676.215 147.233C679.209 146.758 681.286 145.271 682.527 142.717L683.623 145.701L686.487 145.246L684.268 131.274ZM691.87 137.763C692.559 142.102 695.382 144.189 699.374 143.555C702.541 143.052 704.737 141.191 705.924 138.022L706.565 142.057L710.21 141.478L706.737 119.609L703.092 120.188L704.546 129.343C705.008 132.251 704.779 134.734 703.803 136.713C702.871 138.685 701.54 139.83 699.848 140.099C697.331 140.499 695.839 139.223 695.363 136.229L693.068 121.78L689.423 122.359L691.87 137.763ZM716.246 121.48L718.107 133.195C718.858 137.925 721.724 140.005 725.586 139.392C727.018 139.165 728.148 138.718 729.013 138.002L727.642 134.973C727.023 135.56 726.234 135.908 725.279 136.06C723.413 136.356 722.165 135.22 721.8 132.92L719.891 120.901L725.618 119.991L725.095 116.693L719.367 117.603L717.961 108.751L714.681 111.63L715.722 118.182L711.947 118.781L712.471 122.079L716.246 121.48ZM735.091 134.501C737.396 136.404 740.085 137.089 743.252 136.586C746.42 136.083 748.764 134.599 750.322 132.082C751.923 129.559 752.45 126.717 751.961 123.637C751.472 120.556 750.097 118.061 747.793 116.158C745.532 114.248 742.836 113.52 739.668 114.023C736.501 114.526 734.163 116.054 732.562 118.577C731.004 121.093 730.47 123.891 730.96 126.972C731.449 130.053 732.831 132.592 735.091 134.501ZM735.581 120.499C736.541 118.701 738.066 117.658 740.192 117.32C742.318 116.983 744.091 117.502 745.518 118.921C746.981 120.29 747.885 122.06 748.229 124.229C748.574 126.399 748.263 128.361 747.303 130.16C746.379 131.908 744.854 132.951 742.728 133.288C740.602 133.626 738.829 133.107 737.366 131.738C735.94 130.318 735.036 128.549 734.691 126.379C734.347 124.21 734.658 122.248 735.581 120.499ZM786.704 113.536C786.022 109.241 783.409 107.075 779.461 107.703C776.337 108.199 774.191 110.097 773.068 113.389C771.912 110.592 769.481 109.288 766.487 109.763C763.406 110.253 761.384 112.086 760.37 115.228L759.729 111.192L756.084 111.771L759.558 133.64L763.203 133.062L761.776 124.08C760.804 117.961 762.715 113.743 766.012 113.219C768.356 112.847 769.755 114.093 770.209 116.957L772.532 131.58L776.177 131.001L774.75 122.019C773.778 115.901 775.689 111.683 778.986 111.159C781.33 110.787 782.729 112.033 783.183 114.896L785.506 129.519L789.151 128.94L786.704 113.536ZM797.89 121.102C797.498 118.629 799.403 116.902 803.092 116.317L806.997 115.696L807.079 116.217C807.445 118.517 807.106 120.305 806.063 121.583C805.021 122.861 803.671 123.609 802.023 123.871C799.723 124.236 798.221 123.185 797.89 121.102ZM810.035 111.299C809.153 105.745 805.385 103.585 800.308 104.392C796.186 105.046 793.47 107.835 793.492 111.613L796.82 111.841C796.96 109.639 798.532 108.055 800.832 107.689C803.999 107.186 805.846 108.45 806.321 111.444L806.473 112.399L802.915 112.964C796.797 113.935 793.421 117.052 794.159 121.695C794.869 126.164 798.034 127.885 801.982 127.258C804.976 126.783 807.053 125.296 808.294 122.741L809.39 125.726L812.254 125.271L810.035 111.299ZM817.436 105.408L819.297 117.124C820.048 121.853 822.914 123.934 826.776 123.32C828.208 123.093 829.338 122.647 830.203 121.931L828.832 118.901C828.213 119.489 827.423 119.837 826.469 119.988C824.603 120.285 823.355 119.148 822.99 116.849L821.081 104.829L826.808 103.919L826.285 100.622L820.557 101.531L819.151 92.6795L815.871 95.5582L816.912 102.11L813.137 102.71L813.661 106.008L817.436 105.408ZM835.875 121.519L839.52 120.94L836.047 99.0712L832.402 99.6501L835.875 121.519ZM830.526 93.7201C830.767 95.2388 832.125 96.2242 833.687 95.9761C835.249 95.728 836.234 94.3704 835.993 92.8517C835.745 91.2896 834.38 90.2607 832.818 90.5088C831.256 90.7569 830.278 92.158 830.526 93.7201ZM860.1 110.51C859.356 113.386 857.573 115.048 854.753 115.496C850.718 116.137 848.024 113.184 847.28 108.498C846.536 103.811 848.181 100.169 852.217 99.528C855.037 99.0801 857.247 100.108 858.846 102.612L861.807 100.808C859.387 97.0547 856.032 95.5411 851.693 96.2303C848.525 96.7334 846.224 98.211 844.84 100.7C843.493 103.138 843.045 105.923 843.548 109.09C844.051 112.258 845.34 114.767 847.383 116.711C849.464 118.605 852.109 119.297 855.277 118.794C859.616 118.105 862.336 115.626 863.474 111.308L860.1 110.51ZM871.749 109.371C871.356 106.898 873.262 105.172 876.95 104.586L880.855 103.966L880.938 104.486C881.303 106.786 880.965 108.575 879.922 109.853C878.879 111.13 877.53 111.878 875.881 112.14C873.581 112.506 872.08 111.454 871.749 109.371ZM883.894 99.5683C883.012 94.0142 879.243 91.8546 874.166 92.6609C870.044 93.3157 867.329 96.1047 867.35 99.8826L870.678 100.11C870.818 97.9082 872.39 96.3239 874.69 95.9587C877.858 95.4556 879.704 96.7193 880.18 99.7133L880.332 100.668L876.773 101.233C870.655 102.205 867.28 105.321 868.017 109.964C868.727 114.433 871.892 116.155 875.841 115.528C878.835 115.052 880.912 113.566 882.152 111.011L883.249 113.995L886.113 113.54L883.894 99.5683ZM892.696 112.495L896.341 111.916L891.462 81.1948L887.817 81.7737L892.696 112.495ZM903.544 110.772L907.189 110.193L902.31 79.4718L898.665 80.0507L903.544 110.772ZM920.481 101.854L912.419 86.9414L908.427 87.5754L919.436 107.314L917.515 117.628L921.247 117.035L927.215 84.5913L923.397 85.1978L920.481 101.854ZM93.1903 287.959L86.2275 271.849L82.5826 272.427L80.9539 289.902L73.8176 273.82L69.9991 274.426L80.1114 295.241L83.5827 294.69L85.2389 277.388L92.1742 293.325L95.6455 292.774L98.811 269.85L94.9925 270.456L93.1903 287.959ZM107.217 290.936L110.862 290.357L107.389 268.488L103.744 269.067L107.217 290.936ZM101.868 263.136C102.109 264.655 103.466 265.641 105.029 265.393C106.591 265.144 107.576 263.787 107.335 262.268C107.087 260.706 105.722 259.677 104.16 259.925C102.598 260.173 101.62 261.574 101.868 263.136ZM116.66 270.396L118.521 282.112C119.272 286.841 122.138 288.922 126 288.308C127.432 288.081 128.562 287.635 129.427 286.919L128.056 283.889C127.438 284.477 126.648 284.825 125.693 284.976C123.827 285.273 122.579 284.136 122.214 281.837L120.305 269.817L126.033 268.907L125.509 265.61L119.781 266.519L118.375 257.668L115.096 260.546L116.136 267.098L112.361 267.698L112.885 270.996L116.66 270.396ZM150.092 268.556C149.369 264 146.589 261.906 142.554 262.547C139.213 263.077 136.618 265.224 135.663 268.179L133.61 255.248L129.965 255.827L134.844 286.548L138.489 285.969L137.014 276.683C136.559 273.819 136.845 271.416 137.908 269.424C138.97 267.431 140.387 266.272 142.08 266.003C144.596 265.603 146.089 266.879 146.565 269.873L148.86 284.322L152.504 283.743L150.092 268.556ZM169.755 261.963L171.616 273.679C172.367 278.408 175.233 280.489 179.095 279.876C180.527 279.648 181.657 279.202 182.522 278.486L181.151 275.456C180.533 276.044 179.743 276.392 178.788 276.543C176.922 276.84 175.674 275.703 175.309 273.404L173.4 261.384L179.128 260.475L178.604 257.177L172.876 258.087L171.47 249.235L168.191 252.113L169.231 258.665L165.456 259.265L165.98 262.563L169.755 261.963ZM203.187 260.123C202.464 255.567 199.684 253.473 195.649 254.114C192.308 254.644 189.713 256.791 188.759 259.746L186.705 246.815L183.06 247.394L187.939 278.115L191.584 277.536L190.109 268.25C189.654 265.387 189.94 262.983 191.003 260.991C192.065 258.998 193.483 257.839 195.175 257.57C197.692 257.17 199.184 258.446 199.66 261.44L201.955 275.889L205.6 275.31L203.187 260.123ZM229.027 259.445C228.565 256.537 227.311 254.245 225.215 252.532C223.156 250.768 220.567 250.156 217.486 250.645C214.319 251.148 212.061 252.619 210.677 255.108C209.329 257.546 208.882 260.331 209.385 263.498C209.888 266.666 211.176 269.175 213.22 271.119C215.3 273.013 217.903 273.712 221.07 273.209C225.583 272.492 228.034 270.279 229.391 265.659L225.96 264.781C225.149 267.801 223.627 269.422 220.546 269.911C216.771 270.511 214.14 267.948 213.241 263.687L229.296 261.137L229.027 259.445ZM218.01 253.943C221.351 253.412 223.735 255.258 224.953 258.446L212.934 260.355C213.098 256.903 214.756 254.46 218.01 253.943ZM261.828 259.217C261.084 262.094 259.301 263.756 256.481 264.204C252.445 264.845 249.752 261.892 249.008 257.205C248.264 252.519 249.909 248.877 253.945 248.236C256.765 247.788 258.975 248.816 260.574 251.32L263.534 249.515C261.114 245.763 257.76 244.249 253.421 244.938C250.253 245.441 247.952 246.919 246.568 249.407C245.221 251.846 244.773 254.63 245.276 257.798C245.779 260.966 247.067 263.475 249.111 265.419C251.191 267.313 253.837 268.005 257.005 267.502C261.344 266.812 264.064 264.334 265.202 260.016L261.828 259.217ZM272.926 261.592C275.23 263.495 277.919 264.18 281.086 263.677C284.254 263.174 286.598 261.689 288.156 259.173C289.757 256.65 290.285 253.808 289.795 250.727C289.306 247.646 287.931 245.151 285.627 243.248C283.366 241.339 280.67 240.61 277.503 241.113C274.335 241.616 271.998 243.144 270.397 245.667C268.839 248.184 268.305 250.982 268.794 254.063C269.283 257.144 270.665 259.682 272.926 261.592ZM273.416 247.59C274.376 245.792 275.9 244.749 278.027 244.411C280.153 244.073 281.926 244.592 283.352 246.012C284.815 247.381 285.719 249.15 286.064 251.32C286.408 253.489 286.097 255.452 285.137 257.25C284.214 258.998 282.689 260.041 280.563 260.379C278.437 260.717 276.664 260.198 275.201 258.828C273.774 257.409 272.87 255.64 272.526 253.47C272.181 251.301 272.492 249.338 273.416 247.59ZM312.428 242.55C311.739 238.211 308.916 236.124 304.924 236.758C301.757 237.261 299.561 239.122 298.374 242.291L297.733 238.256L294.088 238.835L297.562 260.704L301.207 260.125L299.752 250.97C299.291 248.062 299.519 245.579 300.452 243.607C301.427 241.629 302.758 240.483 304.45 240.214C306.967 239.815 308.46 241.09 308.935 244.084L311.23 258.533L314.875 257.954L312.428 242.55ZM320.396 238.038L322.257 249.753C323.008 254.483 325.874 256.563 329.736 255.95C331.168 255.723 332.298 255.276 333.163 254.56L331.792 251.531C331.174 252.118 330.384 252.466 329.429 252.618C327.563 252.914 326.315 251.778 325.95 249.478L324.041 237.459L329.769 236.549L329.245 233.251L323.517 234.161L322.111 225.309L318.832 228.188L319.872 234.74L316.097 235.339L316.621 238.637L320.396 238.038ZM354.752 239.476C354.29 236.569 353.036 234.277 350.94 232.564C348.88 230.8 346.292 230.188 343.211 230.677C340.044 231.18 337.786 232.651 336.402 235.14C335.054 237.578 334.607 240.363 335.11 243.53C335.613 246.698 336.901 249.207 338.945 251.151C341.025 253.045 343.627 253.744 346.795 253.241C351.308 252.524 353.759 250.311 355.116 245.691L351.684 244.812C350.874 247.833 349.352 249.454 346.271 249.943C342.496 250.542 339.865 247.98 338.966 243.719L355.02 241.169L354.752 239.476ZM343.735 233.975C347.076 233.444 349.46 235.29 350.678 238.477L338.659 240.386C338.822 236.935 340.481 234.492 343.735 233.975ZM377.727 232.179C377.038 227.84 374.215 225.753 370.223 226.387C367.056 226.89 364.86 228.751 363.673 231.92L363.032 227.885L359.387 228.464L362.861 250.333L366.506 249.754L365.051 240.599C364.59 237.691 364.818 235.208 365.75 233.236C366.726 231.257 368.057 230.112 369.749 229.843C372.266 229.443 373.758 230.719 374.234 233.713L376.529 248.162L380.174 247.583L377.727 232.179ZM385.695 227.666L387.556 239.382C388.307 244.112 391.173 246.192 395.035 245.579C396.467 245.351 397.597 244.905 398.462 244.189L397.091 241.16C396.473 241.747 395.683 242.095 394.728 242.247C392.862 242.543 391.614 241.407 391.249 239.107L389.34 227.088L395.068 226.178L394.544 222.88L388.816 223.79L387.41 214.938L384.131 217.817L385.171 224.369L381.396 224.968L381.92 228.266L385.695 227.666ZM406.768 220.583C402.907 221.196 400.753 224.163 401.304 227.634C401.966 231.8 405.831 232.609 408.868 233.239C410.93 233.623 412.701 234.41 412.929 235.842C413.294 238.141 412.302 239.456 409.958 239.828C407.745 240.179 405.826 239.016 404.199 236.338L401.387 238.52C403.176 241.661 406.36 243.78 410.482 243.125C414.952 242.416 417.315 239.371 416.626 235.032C415.649 228.603 405.533 231.011 404.956 227.098C404.681 225.363 405.643 224.142 407.162 223.901C408.507 223.687 409.926 224.218 411.499 225.437L413.634 222.918C411.721 220.953 409.415 220.162 406.768 220.583ZM436.406 235.627C438.71 237.53 441.399 238.215 444.567 237.712C447.734 237.209 450.079 235.724 451.637 233.208C453.238 230.685 453.765 227.843 453.276 224.762C452.786 221.682 451.411 219.186 449.107 217.284C446.847 215.374 444.151 214.645 440.983 215.148C437.816 215.652 435.478 217.179 433.877 219.702C432.319 222.219 431.785 225.017 432.274 228.098C432.764 231.179 434.145 233.717 436.406 235.627ZM436.896 221.625C437.856 219.827 439.381 218.784 441.507 218.446C443.633 218.108 445.406 218.628 446.833 220.047C448.296 221.416 449.199 223.186 449.544 225.355C449.889 227.525 449.577 229.487 448.618 231.285C447.694 233.034 446.169 234.077 444.043 234.414C441.917 234.752 440.144 234.233 438.681 232.864C437.254 231.444 436.351 229.675 436.006 227.505C435.661 225.336 435.972 223.373 436.896 221.625ZM458.967 216.029L461.917 234.6L465.562 234.021L462.612 215.45L467.646 214.651L467.122 211.353L462.089 212.152L461.861 210.72C461.413 207.9 462.204 206.44 464.591 206.061C465.415 205.93 466.231 206.023 467.117 206.282L467.345 202.954C466.445 202.608 465.369 202.556 464.111 202.756C459.598 203.473 457.437 206.396 458.216 211.299L458.444 212.731L455.319 213.227L455.843 216.525L458.967 216.029ZM493.402 223.372L485.339 208.459L481.347 209.093L492.356 228.832L490.435 239.146L494.167 238.553L500.136 206.109L496.317 206.716L493.402 223.372ZM508.866 224.119C511.17 226.021 513.859 226.707 517.027 226.203C520.195 225.7 522.539 224.216 524.097 221.7C525.698 219.177 526.225 216.335 525.736 213.254C525.247 210.173 523.872 207.678 521.567 205.775C519.307 203.865 516.611 203.137 513.443 203.64C510.276 204.143 507.938 205.671 506.337 208.194C504.779 210.71 504.245 213.509 504.734 216.589C505.224 219.67 506.606 222.209 508.866 224.119ZM509.356 210.117C510.316 208.318 511.841 207.275 513.967 206.938C516.093 206.6 517.866 207.119 519.293 208.539C520.756 209.908 521.66 211.677 522.004 213.847C522.349 216.016 522.038 217.978 521.078 219.777C520.154 221.525 518.629 222.568 516.503 222.906C514.377 223.243 512.604 222.724 511.141 221.355C509.714 219.936 508.811 218.166 508.466 215.997C508.122 213.827 508.433 211.865 509.356 210.117ZM532.215 216.807C532.904 221.146 535.727 223.233 539.719 222.599C542.887 222.096 545.082 220.235 546.269 217.066L546.91 221.101L550.555 220.522L547.082 198.653L543.437 199.232L544.891 208.388C545.353 211.295 545.124 213.778 544.148 215.757C543.216 217.729 541.885 218.874 540.193 219.143C537.676 219.543 536.184 218.267 535.708 215.273L533.413 200.824L529.769 201.403L532.215 216.807ZM567.164 195.775C566.271 195.472 565.238 195.414 564.067 195.6C561.637 195.986 559.165 198.069 558.293 200.698L557.7 196.967L554.055 197.546L557.529 219.415L561.173 218.836L559.857 210.548C559.326 207.207 559.52 204.507 560.439 202.448C561.358 200.39 562.638 199.207 564.287 198.946C565.198 198.801 566.057 198.887 566.943 199.146L567.164 195.775ZM587.28 214.69L591.099 214.083L588.873 200.068L600.111 198.283L599.532 194.638L588.294 196.423L586.854 187.354L600.695 185.156L600.117 181.511L582.456 184.316L587.28 214.69ZM610.455 211.009L614.1 210.43L610.627 188.561L606.982 189.14L610.455 211.009ZM605.106 183.209C605.347 184.728 606.705 185.714 608.267 185.466C609.829 185.217 610.814 183.86 610.573 182.341C610.325 180.779 608.96 179.75 607.398 179.998C605.836 180.246 604.858 181.647 605.106 183.209ZM619.07 194.426C619.366 196.292 620.142 197.815 621.434 198.944C619.799 200.138 619.145 201.621 619.428 203.4C619.662 204.875 620.325 205.971 621.454 206.637C620.295 208.022 619.842 209.651 620.139 211.517C620.855 216.03 624.971 218.134 630.568 217.245C635.949 216.391 639.418 213.304 638.612 208.227C637.998 204.365 634.963 202.623 630.798 203.285L625.634 204.105C623.985 204.367 623.064 203.89 622.871 202.675C622.72 201.721 623.087 200.951 623.966 200.322C625.133 200.67 626.433 200.731 627.865 200.503C630.078 200.152 631.797 199.211 633.022 197.682C634.24 196.11 634.695 194.213 634.344 192C634.103 190.482 633.549 189.235 632.632 188.224L635.321 186.107L633.196 183.374L629.643 186.208C628.324 185.75 626.974 185.653 625.542 185.88C623.329 186.232 621.617 187.215 620.399 188.788C619.181 190.361 618.719 192.213 619.07 194.426ZM630.73 206.499C633.203 206.106 634.59 206.998 634.935 209.167C635.314 211.554 633.703 213.455 630.058 214.034C626.414 214.613 624.156 213.281 623.763 210.808C623.542 209.42 623.847 208.259 624.685 207.37C625.342 207.31 625.87 207.27 626.304 207.201L630.73 206.499ZM623.31 190.594C624.631 188.828 627.322 188.4 629.125 189.671C630.023 190.284 630.579 191.264 630.786 192.566C630.993 193.867 630.767 194.971 630.104 195.832C628.769 197.512 626.079 197.94 624.289 196.756C623.391 196.142 622.835 195.163 622.628 193.861C622.421 192.559 622.647 191.456 623.31 190.594ZM670.653 185.655C669.97 181.36 667.358 179.194 663.409 179.822C660.285 180.318 658.139 182.215 657.016 185.508C655.86 182.711 653.429 181.407 650.435 181.882C647.354 182.371 645.332 184.205 644.319 187.347L643.678 183.311L640.033 183.89L643.506 205.759L647.151 205.181L645.724 196.199C644.753 190.08 646.663 185.862 649.961 185.338C652.304 184.966 653.703 186.212 654.158 189.076L656.48 203.699L660.125 203.12L658.698 194.138C657.727 188.02 659.637 183.802 662.935 183.278C665.278 182.906 666.677 184.151 667.132 187.015L669.454 201.638L673.099 201.059L670.653 185.655ZM681.839 193.221C681.446 190.747 683.352 189.021 687.04 188.435L690.945 187.815L691.028 188.336C691.393 190.636 691.054 192.424 690.012 193.702C688.969 194.98 687.62 195.728 685.971 195.99C683.671 196.355 682.17 195.304 681.839 193.221ZM693.983 183.418C693.101 177.864 689.333 175.704 684.256 176.51C680.134 177.165 677.418 179.954 677.44 183.732L680.768 183.96C680.908 181.758 682.48 180.173 684.78 179.808C687.947 179.305 689.794 180.569 690.27 183.563L690.421 184.517L686.863 185.083C680.745 186.054 677.37 189.171 678.107 193.813C678.817 198.283 681.982 200.004 685.931 199.377C688.925 198.902 691.002 197.415 692.242 194.86L693.339 197.845L696.203 197.39L693.983 183.418ZM712.959 175.689L715.909 194.26L719.554 193.681L716.604 175.11L724.111 173.917L727.061 192.489L730.705 191.91L727.232 170.041L716.08 171.812L715.963 171.074C715.46 167.907 716.977 165.975 719.971 165.5C721.837 165.203 723.512 165.382 725.031 165.986L725.316 162.738C723.819 161.997 721.878 161.816 719.491 162.195C717.105 162.574 715.175 163.592 713.797 165.279C712.419 166.966 711.912 169.093 712.325 171.696L712.436 172.391L709.311 172.887L709.835 176.185L712.959 175.689ZM738.253 190.711L741.898 190.132L737.019 159.411L733.374 159.99L738.253 190.711ZM765.402 174.255C764.94 171.347 763.686 169.055 761.59 167.342C759.53 165.578 756.942 164.966 753.861 165.455C750.694 165.959 748.436 167.429 747.052 169.918C745.704 172.356 745.257 175.141 745.76 178.308C746.263 181.476 747.551 183.985 749.595 185.929C751.675 187.823 754.277 188.522 757.445 188.019C761.958 187.302 764.409 185.089 765.766 180.469L762.334 179.591C761.524 182.611 760.002 184.232 756.921 184.721C753.146 185.321 750.515 182.758 749.616 178.497L765.67 175.947L765.402 174.255ZM754.385 168.753C757.726 168.223 760.11 170.068 761.328 173.256L749.309 175.165C749.472 171.713 751.131 169.27 754.385 168.753ZM786.207 176.644C785.814 174.171 787.72 172.445 791.408 171.859L795.313 171.239L795.396 171.76C795.761 174.059 795.422 175.848 794.38 177.126C793.337 178.404 791.988 179.152 790.339 179.414C788.039 179.779 786.538 178.727 786.207 176.644ZM798.352 166.842C797.469 161.287 793.701 159.128 788.624 159.934C784.502 160.589 781.786 163.378 781.808 167.156L785.136 167.383C785.276 165.181 786.848 163.597 789.148 163.232C792.316 162.729 794.162 163.993 794.638 166.987L794.789 167.941L791.231 168.506C785.113 169.478 781.738 172.594 782.475 177.237C783.185 181.706 786.35 183.428 790.299 182.801C793.293 182.325 795.37 180.839 796.61 178.284L797.707 181.268L800.571 180.814L798.352 166.842ZM821.811 161.648C821.122 157.308 818.299 155.221 814.307 155.855C811.139 156.358 808.944 158.219 807.757 161.389L807.116 157.353L803.471 157.932L806.944 179.801L810.589 179.222L809.135 170.067C808.673 167.16 808.902 164.677 809.834 162.705C810.81 160.726 812.14 159.58 813.833 159.311C816.349 158.912 817.842 160.187 818.317 163.181L820.612 177.63L824.257 177.052L821.811 161.648ZM836.021 152.406C829.773 153.399 827.018 158.463 828.093 165.232C829.168 172.001 833.356 175.962 839.605 174.97C842.208 174.556 844.685 172.784 845.501 170.919L845.928 173.61L849.573 173.031L844.694 142.31L841.049 142.889L842.868 154.344C842.367 153.712 841.396 153.199 840.035 152.748C838.673 152.297 837.323 152.2 836.021 152.406ZM839.428 171.617C835.61 172.223 832.576 169.369 831.825 164.639C831.074 159.909 833.074 156.255 836.892 155.649C840.841 155.022 843.744 157.897 844.495 162.627C845.246 167.356 843.377 170.99 839.428 171.617ZM874.39 162.861L866.327 147.949L862.335 148.583L873.344 168.321L871.423 178.635L875.155 178.043L881.124 145.599L877.305 146.205L874.39 162.861ZM889.854 163.608C892.158 165.511 894.847 166.196 898.015 165.693C901.183 165.19 903.527 163.705 905.085 161.189C906.686 158.666 907.213 155.824 906.724 152.743C906.235 149.663 904.86 147.167 902.555 145.264C900.295 143.355 897.599 142.626 894.431 143.129C891.264 143.632 888.926 145.16 887.325 147.683C885.767 150.2 885.233 152.998 885.722 156.079C886.212 159.16 887.594 161.698 889.854 163.608ZM890.344 149.606C891.304 147.808 892.829 146.765 894.955 146.427C897.081 146.089 898.854 146.609 900.281 148.028C901.744 149.397 902.648 151.166 902.992 153.336C903.337 155.506 903.026 157.468 902.066 159.266C901.142 161.014 899.617 162.057 897.491 162.395C895.365 162.733 893.592 162.214 892.129 160.844C890.702 159.425 889.799 157.656 889.454 155.486C889.109 153.317 889.421 151.354 890.344 149.606ZM913.203 156.296C913.892 160.635 916.715 162.723 920.707 162.089C923.875 161.586 926.07 159.724 927.257 156.555L927.898 160.591L931.543 160.012L928.07 138.143L924.425 138.721L925.879 147.877C926.341 150.784 926.112 153.267 925.136 155.246C924.204 157.218 922.873 158.364 921.181 158.633C918.665 159.032 917.172 157.757 916.696 154.763L914.401 140.313L910.757 140.892L913.203 156.296ZM948.152 135.264C947.259 134.961 946.226 134.903 945.055 135.089C942.625 135.475 940.153 137.558 939.281 140.188L938.688 136.456L935.043 137.035L938.517 158.904L942.161 158.325L940.845 150.038C940.314 146.696 940.508 143.997 941.427 141.938C942.346 139.879 943.626 138.697 945.275 138.435C946.186 138.29 947.045 138.376 947.931 138.636L948.152 135.264ZM86.8959 325.073C83.0341 325.687 80.8806 328.654 81.4319 332.125C82.0935 336.29 85.9589 337.1 88.9951 337.73C91.0579 338.114 92.8288 338.9 93.0563 340.332C93.4215 342.632 92.4291 343.946 90.086 344.319C87.873 344.67 85.9533 343.507 84.3269 340.829L81.5149 343.011C83.3039 346.152 86.4876 348.271 90.6098 347.616C95.0791 346.906 97.4426 343.862 96.7534 339.523C95.7769 333.094 85.6606 335.501 85.0837 331.589C84.808 329.854 85.7708 328.633 87.2895 328.392C88.6346 328.178 90.0535 328.709 91.6261 329.927L93.7617 327.408C91.8482 325.444 89.5428 324.653 86.8959 325.073ZM103.073 345.281L106.718 344.702L101.839 313.981L98.1937 314.56L103.073 345.281ZM113.246 343.665L116.891 343.086L113.417 321.217L109.773 321.796L113.246 343.665ZM107.896 315.866C108.138 317.385 109.495 318.37 111.057 318.122C112.62 317.874 113.605 316.516 113.364 314.998C113.116 313.435 111.751 312.407 110.189 312.655C108.627 312.903 107.648 314.304 107.896 315.866ZM128.847 318.411C122.599 319.403 119.844 324.467 120.919 331.236C121.994 338.005 126.182 341.966 132.431 340.974C135.034 340.561 137.511 338.788 138.327 336.924L138.754 339.614L142.399 339.035L137.52 308.314L133.875 308.893L135.694 320.348C135.193 319.716 134.222 319.203 132.86 318.752C131.499 318.301 130.149 318.204 128.847 318.411ZM132.254 337.621C128.435 338.228 125.402 335.373 124.651 330.643C123.9 325.914 125.899 322.26 129.718 321.653C133.666 321.026 136.57 323.901 137.321 328.631C138.072 333.361 136.203 336.994 132.254 337.621ZM166.07 323.131C165.608 320.223 164.355 317.931 162.259 316.218C160.199 314.454 157.611 313.842 154.53 314.331C151.362 314.835 149.105 316.305 147.72 318.794C146.373 321.232 145.925 324.017 146.428 327.185C146.932 330.352 148.22 332.861 150.263 334.805C152.344 336.699 154.946 337.398 158.113 336.895C162.626 336.178 165.077 333.965 166.434 329.345L163.003 328.467C162.193 331.487 160.671 333.108 157.59 333.597C153.815 334.197 151.183 331.634 150.284 327.373L166.339 324.823L166.07 323.131ZM155.054 317.629C158.395 317.099 160.779 318.944 161.997 322.132L149.977 324.041C150.141 320.589 151.799 318.146 155.054 317.629ZM176.56 310.833C172.698 311.446 170.545 314.413 171.096 317.884C171.758 322.049 175.623 322.859 178.659 323.489C180.722 323.873 182.493 324.66 182.72 326.091C183.086 328.391 182.093 329.705 179.75 330.078C177.537 330.429 175.618 329.266 173.991 326.588L171.179 328.77C172.968 331.911 176.152 334.03 180.274 333.375C184.743 332.666 187.107 329.621 186.418 325.282C185.441 318.853 175.325 321.26 174.748 317.348C174.472 315.613 175.435 314.392 176.954 314.151C178.299 313.937 179.718 314.468 181.29 315.686L183.426 313.167C181.512 311.203 179.207 310.412 176.56 310.833ZM208.538 312.96C207.815 308.404 205.035 306.31 201 306.951C197.659 307.482 195.064 309.629 194.109 312.583L192.056 299.652L188.411 300.231L193.29 330.952L196.935 330.373L195.46 321.088C195.005 318.224 195.291 315.821 196.353 313.828C197.416 311.835 198.833 310.676 200.526 310.407C203.042 310.007 204.535 311.283 205.011 314.277L207.306 328.726L210.95 328.147L208.538 312.96ZM218.868 323.865C221.172 325.768 223.861 326.453 227.028 325.95C230.196 325.446 232.54 323.962 234.098 321.446C235.699 318.923 236.227 316.081 235.737 313C235.248 309.919 233.873 307.424 231.569 305.521C229.308 303.611 226.612 302.883 223.445 303.386C220.277 303.889 217.94 305.417 216.339 307.94C214.781 310.456 214.247 313.255 214.736 316.336C215.225 319.416 216.607 321.955 218.868 323.865ZM219.358 309.863C220.318 308.064 221.842 307.021 223.969 306.684C226.095 306.346 227.868 306.865 229.294 308.285C230.757 309.654 231.661 311.423 232.006 313.593C232.35 315.762 232.039 317.725 231.079 319.523C230.156 321.271 228.631 322.314 226.505 322.652C224.379 322.989 222.606 322.47 221.143 321.101C219.716 319.682 218.812 317.912 218.468 315.743C218.123 313.573 218.434 311.611 219.358 309.863ZM260.581 315.06L253.618 298.95L249.973 299.529L248.344 317.003L241.208 300.921L237.39 301.527L247.502 322.342L250.973 321.791L252.629 304.489L259.565 320.426L263.036 319.875L266.201 296.951L262.383 297.558L260.581 315.06ZM284.451 301.259C284.748 303.125 285.523 304.648 286.815 305.777C285.181 306.971 284.526 308.454 284.809 310.233C285.043 311.708 285.707 312.804 286.836 313.47C285.677 314.855 285.224 316.484 285.52 318.35C286.237 322.863 290.352 324.967 295.95 324.078C301.33 323.224 304.799 320.137 303.993 315.06C303.379 311.198 300.345 309.456 296.179 310.118L291.015 310.938C289.367 311.2 288.446 310.723 288.253 309.508C288.101 308.554 288.468 307.784 289.347 307.155C290.514 307.503 291.814 307.563 293.246 307.336C295.459 306.985 297.178 306.044 298.403 304.515C299.622 302.943 300.077 301.046 299.725 298.833C299.484 297.315 298.93 296.068 298.013 295.057L300.702 292.94L298.578 290.207L295.024 293.041C293.705 292.583 292.355 292.486 290.924 292.713C288.711 293.065 286.998 294.048 285.78 295.621C284.562 297.193 284.1 299.046 284.451 301.259ZM296.111 313.331C298.584 312.939 299.972 313.83 300.316 316C300.695 318.387 299.085 320.288 295.44 320.867C291.795 321.446 289.537 320.114 289.144 317.641C288.924 316.252 289.229 315.092 290.066 314.203C290.724 314.143 291.251 314.103 291.685 314.034L296.111 313.331ZM288.692 297.427C290.013 295.66 292.703 295.233 294.506 296.504C295.404 297.117 295.96 298.097 296.167 299.398C296.374 300.7 296.149 301.804 295.485 302.665C294.15 304.345 291.46 304.773 289.67 303.589C288.772 302.975 288.216 301.996 288.009 300.694C287.803 299.392 288.028 298.289 288.692 297.427ZM325.398 297.825C324.936 294.918 323.682 292.626 321.586 290.913C319.527 289.149 316.938 288.537 313.857 289.026C310.69 289.529 308.432 291 307.048 293.489C305.7 295.927 305.253 298.712 305.756 301.879C306.259 305.047 307.547 307.556 309.591 309.5C311.671 311.394 314.274 312.093 317.441 311.59C321.954 310.873 324.405 308.66 325.762 304.04L322.331 303.162C321.52 306.182 319.998 307.803 316.917 308.292C313.142 308.892 310.511 306.329 309.612 302.068L325.667 299.518L325.398 297.825ZM314.381 292.324C317.722 291.793 320.106 293.639 321.324 296.826L309.305 298.735C309.469 295.284 311.127 292.841 314.381 292.324ZM331.595 289.946L333.455 301.662C334.207 306.391 337.073 308.472 340.934 307.858C342.366 307.631 343.497 307.185 344.362 306.469L342.991 303.439C342.372 304.027 341.582 304.375 340.628 304.526C338.762 304.822 337.514 303.686 337.148 301.386L335.239 289.367L340.967 288.457L340.443 285.16L334.716 286.069L333.31 277.217L330.03 280.096L331.071 286.648L327.296 287.248L327.82 290.545L331.595 289.946ZM352.668 282.862C348.806 283.475 346.653 286.442 347.204 289.913C347.866 294.079 351.731 294.889 354.767 295.519C356.83 295.903 358.601 296.689 358.828 298.121C359.194 300.421 358.201 301.735 355.858 302.107C353.645 302.459 351.725 301.296 350.099 298.618L347.287 300.799C349.076 303.941 352.26 306.06 356.382 305.405C360.851 304.695 363.215 301.651 362.526 297.311C361.549 290.883 351.433 293.29 350.856 289.378C350.58 287.642 351.543 286.422 353.062 286.181C354.407 285.967 355.826 286.498 357.398 287.716L359.534 285.197C357.62 283.232 355.315 282.442 352.668 282.862ZM380.272 294.626C380.961 298.965 383.784 301.053 387.776 300.419C390.944 299.916 393.139 298.054 394.326 294.885L394.967 298.921L398.612 298.342L395.139 276.473L391.494 277.051L392.948 286.207C393.41 289.114 393.181 291.597 392.206 293.576C391.273 295.548 389.943 296.694 388.25 296.962C385.734 297.362 384.241 296.087 383.765 293.093L381.471 278.643L377.826 279.222L380.272 294.626ZM415.961 295.942C422.209 294.95 424.964 289.886 423.889 283.117C422.814 276.348 418.626 272.386 412.377 273.379C409.774 273.792 407.297 275.565 406.481 277.429L406.054 274.739L402.409 275.318L407.288 306.039L410.933 305.46L409.114 294.005C409.615 294.637 410.586 295.15 411.947 295.601C413.309 296.052 414.659 296.149 415.961 295.942ZM412.554 276.732C416.372 276.125 419.406 278.98 420.157 283.709C420.908 288.439 418.908 292.093 415.09 292.7C411.141 293.327 408.238 290.451 407.487 285.722C406.736 280.992 408.605 277.359 412.554 276.732ZM436.866 269.489C430.618 270.482 427.863 275.546 428.938 282.315C430.013 289.084 434.202 293.045 440.45 292.053C443.053 291.639 445.53 289.867 446.346 288.002L446.773 290.693L450.418 290.114L445.539 259.393L441.894 259.972L443.713 271.427C443.213 270.795 442.241 270.282 440.88 269.831C439.518 269.38 438.168 269.283 436.866 269.489ZM440.273 288.7C436.455 289.306 433.421 286.452 432.67 281.722C431.919 276.992 433.919 273.338 437.737 272.732C441.686 272.105 444.589 274.98 445.34 279.71C446.091 284.439 444.222 288.073 440.273 288.7ZM458.919 282.313C458.526 279.84 460.432 278.114 464.12 277.528L468.025 276.908L468.108 277.428C468.473 279.728 468.134 281.517 467.092 282.794C466.049 284.072 464.7 284.82 463.051 285.082C460.751 285.447 459.25 284.396 458.919 282.313ZM471.064 272.51C470.181 266.956 466.413 264.796 461.336 265.603C457.214 266.258 454.498 269.047 454.52 272.824L457.848 273.052C457.988 270.85 459.56 269.266 461.86 268.901C465.028 268.397 466.874 269.661 467.35 272.655L467.501 273.61L463.943 274.175C457.825 275.147 454.45 278.263 455.187 282.906C455.897 287.375 459.062 289.097 463.011 288.47C466.005 287.994 468.082 286.507 469.322 283.953L470.419 286.937L473.283 286.482L471.064 272.51ZM478.464 266.619L480.325 278.335C481.076 283.065 483.942 285.145 487.804 284.532C489.236 284.304 490.366 283.858 491.231 283.142L489.86 280.112C489.242 280.7 488.452 281.048 487.497 281.2C485.631 281.496 484.383 280.36 484.018 278.06L482.109 266.04L487.837 265.131L487.313 261.833L481.585 262.743L480.179 253.891L476.9 256.769L477.94 263.322L474.165 263.921L474.689 267.219L478.464 266.619ZM512.82 268.058C512.358 265.151 511.104 262.859 509.008 261.145C506.949 259.382 504.36 258.77 501.279 259.259C498.112 259.762 495.854 261.233 494.47 263.721C493.122 266.16 492.675 268.944 493.178 272.112C493.681 275.279 494.969 277.788 497.013 279.733C499.093 281.627 501.695 282.325 504.863 281.822C509.376 281.106 511.827 278.892 513.184 274.273L509.752 273.394C508.942 276.414 507.42 278.035 504.339 278.525C500.564 279.124 497.933 276.562 497.034 272.3L513.088 269.75L512.82 268.058ZM501.803 262.557C505.144 262.026 507.528 263.872 508.746 267.059L496.727 268.968C496.89 265.517 498.549 263.073 501.803 262.557ZM525.937 255.343C519.689 256.335 516.934 261.399 518.009 268.168C519.084 274.937 523.272 278.898 529.521 277.906C532.124 277.493 534.601 275.72 535.417 273.856L535.844 276.546L539.489 275.967L534.61 245.246L530.965 245.825L532.784 257.28C532.283 256.648 531.312 256.135 529.951 255.684C528.589 255.233 527.239 255.136 525.937 255.343ZM529.344 274.553C525.526 275.16 522.492 272.305 521.741 267.575C520.99 262.846 522.99 259.192 526.808 258.585C530.757 257.958 533.66 260.833 534.411 265.563C535.162 270.293 533.293 273.926 529.344 274.553ZM569.144 271.613C575.393 270.62 578.147 265.556 577.072 258.787C575.997 252.018 571.809 248.057 565.561 249.049C562.957 249.463 560.48 251.235 559.664 253.1L559.237 250.41L555.592 250.988L560.472 281.71L564.116 281.131L562.297 269.675C562.798 270.308 563.769 270.821 565.131 271.272C566.492 271.723 567.842 271.82 569.144 271.613ZM565.737 252.402C569.556 251.796 572.589 254.65 573.34 259.38C574.092 264.11 572.092 267.764 568.273 268.37C564.325 268.997 561.421 266.122 560.67 261.392C559.919 256.663 561.789 253.029 565.737 252.402ZM601.763 253.932C601.302 251.024 600.048 248.732 597.952 247.019C595.892 245.255 593.304 244.643 590.223 245.132C587.056 245.635 584.798 247.106 583.414 249.595C582.066 252.033 581.619 254.818 582.122 257.985C582.625 261.153 583.913 263.662 585.957 265.606C588.037 267.5 590.639 268.199 593.807 267.696C598.319 266.979 600.771 264.766 602.128 260.146L598.696 259.268C597.886 262.288 596.364 263.909 593.283 264.398C589.508 264.998 586.877 262.435 585.977 258.174L602.032 255.624L601.763 253.932ZM590.747 248.43C594.088 247.899 596.472 249.745 597.69 252.933L585.671 254.842C585.834 251.39 587.493 248.947 590.747 248.43ZM618.83 241.256C617.937 240.953 616.904 240.895 615.733 241.081C613.303 241.467 610.831 243.55 609.959 246.179L609.366 242.448L605.721 243.027L609.195 264.896L612.839 264.317L611.523 256.029C610.992 252.688 611.186 249.988 612.105 247.929C613.024 245.871 614.304 244.689 615.953 244.427C616.864 244.282 617.723 244.368 618.609 244.628L618.83 241.256ZM626.739 262.11L630.383 261.531L626.91 239.661L623.265 240.24L626.739 262.11ZM621.389 234.31C621.63 235.829 622.988 236.814 624.55 236.566C626.112 236.318 627.098 234.961 626.856 233.442C626.608 231.88 625.244 230.851 623.682 231.099C622.12 231.347 621.141 232.748 621.389 234.31ZM638.544 257.21C640.848 259.112 643.537 259.797 646.704 259.294C649.872 258.791 652.216 257.307 653.774 254.791C655.375 252.267 655.902 249.426 655.413 246.345C654.924 243.264 653.549 240.769 651.245 238.866C648.984 236.956 646.288 236.228 643.121 236.731C639.953 237.234 637.615 238.762 636.014 241.285C634.457 243.801 633.922 246.6 634.412 249.68C634.901 252.761 636.283 255.3 638.544 257.21ZM639.033 243.208C639.993 241.409 641.518 240.366 643.644 240.029C645.771 239.691 647.543 240.21 648.97 241.629C650.433 242.999 651.337 244.768 651.681 246.937C652.026 249.107 651.715 251.069 650.755 252.868C649.831 254.616 648.307 255.659 646.18 255.997C644.054 256.334 642.281 255.815 640.818 254.446C639.392 253.027 638.488 251.257 638.143 249.088C637.799 246.918 638.11 244.956 639.033 243.208ZM668.4 232.716C662.151 233.708 659.397 238.772 660.472 245.541C661.547 252.31 665.735 256.272 671.983 255.279C674.587 254.866 677.064 253.093 677.88 251.229L678.307 253.919L681.952 253.34L677.072 222.619L673.428 223.198L675.247 234.653C674.746 234.021 673.775 233.508 672.413 233.057C671.051 232.606 669.701 232.509 668.4 232.716ZM671.807 251.926C667.988 252.533 664.955 249.678 664.204 244.949C663.452 240.219 665.452 236.565 669.271 235.958C673.219 235.331 676.123 238.207 676.874 242.936C677.625 247.666 675.755 251.299 671.807 251.926ZM688.902 252.236L692.547 251.658L689.073 229.788L685.428 230.367L688.902 252.236ZM683.552 224.437C683.794 225.956 685.151 226.941 686.713 226.693C688.275 226.445 689.261 225.087 689.02 223.569C688.772 222.007 687.407 220.978 685.845 221.226C684.283 221.474 683.304 222.875 683.552 224.437ZM713.127 241.227C712.382 244.103 710.6 245.765 707.78 246.213C703.744 246.854 701.051 243.901 700.307 239.215C699.562 234.528 701.208 230.886 705.243 230.245C708.064 229.797 710.274 230.825 711.872 233.329L714.833 231.525C712.413 227.772 709.059 226.258 704.72 226.947C701.552 227.45 699.251 228.928 697.867 231.417C696.519 233.855 696.072 236.64 696.575 239.807C697.078 242.975 698.366 245.484 700.41 247.428C702.49 249.322 705.136 250.014 708.303 249.511C712.643 248.822 715.363 246.343 716.501 242.025L713.127 241.227ZM724.776 240.088C724.383 237.615 726.288 235.889 729.977 235.303L733.882 234.683L733.965 235.203C734.33 237.503 733.991 239.292 732.949 240.57C731.906 241.847 730.557 242.596 728.908 242.857C726.608 243.223 725.106 242.171 724.776 240.088ZM736.92 230.285C736.038 224.731 732.27 222.572 727.193 223.378C723.071 224.033 720.355 226.822 720.377 230.6L723.705 230.827C723.845 228.625 725.417 227.041 727.717 226.676C730.884 226.173 732.731 227.436 733.207 230.43L733.358 231.385L729.8 231.95C723.682 232.922 720.307 236.038 721.044 240.681C721.754 245.15 724.919 246.872 728.867 246.245C731.861 245.769 733.939 244.283 735.179 241.728L736.276 244.712L739.139 244.257L736.92 230.285ZM745.723 243.212L749.368 242.633L744.488 211.912L740.843 212.491L745.723 243.212ZM756.571 241.489L760.215 240.91L755.336 210.189L751.691 210.768L756.571 241.489ZM773.508 232.571L765.445 217.658L761.453 218.292L772.462 238.031L770.542 248.345L774.273 247.752L780.242 215.308L776.423 215.915L773.508 232.571Z" fill="black"/>
</g>
</g>
<defs>
<filter id="filter0_d_8_6" x="0" y="0" width="1069" height="418.745" filterUnits="userSpaceOnUse" color-interpolation-filters="sRGB">
<feFlood flood-opacity="0" result="BackgroundImageFix"/>
<feColorMatrix in="SourceAlpha" type="matrix" values="0 0 0 0 0 0 0 0 0 0 0 0 0 0 0 0 0 0 127 0" result="hardAlpha"/>
<feOffset dy="2"/>
<feGaussianBlur stdDeviation="1"/>
<feComposite in2="hardAlpha" operator="out"/>
<feColorMatrix type="matrix" values="0 0 0 0 0 0 0 0 0 0 0 0 0 0 0 0 0 0 0.25 0"/>
<feBlend mode="normal" in2="BackgroundImageFix" result="effect1_dropShadow_8_6"/>
<feBlend mode="normal" in="SourceGraphic" in2="effect1_dropShadow_8_6" result="shape"/>
</filter>
<clipPath id="clip0_8_6">
<rect x="2.00084" y="162.793" width="1037.83" height="255.108" rx="12" transform="rotate(-9.02465 2.00084 162.793)" fill="white"/>
</clipPath>
</defs>
</svg>
