<svg width="988" height="457" viewBox="0 0 988 457" fill="none" xmlns="http://www.w3.org/2000/svg">
<g filter="url(#filter0_d_8_6)">
<g clip-path="url(#clip0_8_6)">
<rect x="2.00151" y="148.579" width="947.215" height="308.233" rx="12" transform="rotate(-9.02465 2.00151 148.579)" fill="white"/>
<path d="M68.7436 201.764L72.9903 228.502L76.81 227.895L72.5634 201.157L81.3313 199.764L80.7522 196.118L59.3966 199.51L59.9756 203.156L68.7436 201.764ZM105.496 207.764C104.772 203.206 101.992 201.111 97.9549 201.752C94.6126 202.283 92.0167 204.431 91.062 207.386L89.0076 194.451L85.3615 195.03L90.2425 225.762L93.8885 225.183L92.4132 215.894C91.9582 213.029 92.2439 210.625 93.3069 208.632C94.3698 206.638 95.7876 205.479 97.4805 205.21C99.998 204.81 101.491 206.086 101.967 209.081L104.263 223.535L107.909 222.956L105.496 207.764ZM131.344 207.085C130.882 204.177 129.628 201.884 127.531 200.17C125.471 198.406 122.881 197.793 119.8 198.283C116.631 198.786 114.373 200.257 112.988 202.747C111.64 205.186 111.192 207.972 111.695 211.14C112.199 214.309 113.487 216.819 115.532 218.763C117.613 220.658 120.216 221.357 123.384 220.854C127.899 220.137 130.351 217.923 131.708 213.302L128.275 212.423C127.465 215.444 125.942 217.066 122.86 217.555C119.084 218.155 116.452 215.591 115.552 211.329L131.613 208.778L131.344 207.085ZM120.323 201.582C123.666 201.051 126.051 202.897 127.269 206.086L115.246 207.995C115.409 204.543 117.068 202.099 120.323 201.582ZM161.067 214.869C167.318 213.876 170.073 208.81 168.998 202.039C167.922 195.268 163.733 191.305 157.482 192.298C154.878 192.711 152.4 194.484 151.584 196.35L151.157 193.658L147.511 194.238L152.392 224.969L156.038 224.39L154.218 212.931C154.719 213.563 155.69 214.076 157.052 214.528C158.415 214.979 159.765 215.076 161.067 214.869ZM157.659 195.652C161.479 195.045 164.513 197.901 165.265 202.632C166.016 207.363 164.016 211.019 160.196 211.625C156.246 212.253 153.342 209.376 152.59 204.645C151.839 199.914 153.709 196.279 157.659 195.652ZM185.845 188.461C184.952 188.157 183.919 188.099 182.747 188.285C180.316 188.671 177.844 190.755 176.971 193.386L176.378 189.653L172.732 190.232L176.206 212.108L179.853 211.529L178.536 203.239C178.005 199.897 178.199 197.196 179.118 195.136C180.037 193.077 181.318 191.894 182.967 191.632C183.879 191.487 184.738 191.574 185.624 191.833L185.845 188.461ZM209.551 194.664C209.089 191.756 207.835 189.463 205.738 187.749C203.678 185.984 201.088 185.372 198.006 185.862C194.838 186.365 192.579 187.836 191.195 190.325C189.847 192.765 189.399 195.55 189.902 198.719C190.406 201.888 191.694 204.397 193.739 206.342C195.82 208.237 198.423 208.936 201.591 208.433C206.105 207.716 208.557 205.502 209.915 200.88L206.482 200.002C205.672 203.023 204.149 204.644 201.067 205.134C197.291 205.734 194.659 203.17 193.759 198.907L209.819 196.357L209.551 194.664ZM198.53 189.16C201.873 188.63 204.257 190.476 205.476 193.664L193.452 195.574C193.616 192.121 195.275 189.677 198.53 189.16ZM220.044 182.361C216.181 182.975 214.027 185.943 214.578 189.415C215.24 193.582 219.107 194.392 222.144 195.022C224.207 195.406 225.979 196.193 226.206 197.625C226.572 199.926 225.579 201.241 223.235 201.613C221.021 201.965 219.101 200.801 217.474 198.122L214.661 200.305C216.451 203.447 219.636 205.567 223.759 204.912C228.23 204.202 230.594 201.156 229.905 196.816C228.928 190.385 218.808 192.793 218.231 188.879C217.955 187.143 218.919 185.922 220.438 185.681C221.783 185.467 223.203 185.998 224.776 187.217L226.912 184.697C224.998 182.732 222.692 181.941 220.044 182.361ZM253.465 187.689C253.003 184.781 251.749 182.488 249.652 180.774C247.592 179.01 245.003 178.397 241.921 178.887C238.752 179.39 236.494 180.861 235.109 183.351C233.761 185.79 233.314 188.576 233.817 191.744C234.32 194.913 235.609 197.423 237.653 199.368C239.734 201.262 242.337 201.961 245.506 201.458C250.02 200.741 252.472 198.527 253.83 193.906L250.397 193.027C249.586 196.048 248.064 197.67 244.982 198.159C241.206 198.759 238.573 196.195 237.674 191.933L253.734 189.382L253.465 187.689ZM242.445 182.186C245.787 181.655 248.172 183.501 249.39 186.69L237.367 188.599C237.531 185.147 239.189 182.703 242.445 182.186ZM276.449 180.39C275.759 176.049 272.935 173.961 268.942 174.595C265.773 175.098 263.577 176.96 262.39 180.13L261.748 176.094L258.102 176.673L261.577 198.549L265.223 197.97L263.768 188.812C263.307 185.903 263.535 183.42 264.468 181.447C265.444 179.467 266.775 178.321 268.468 178.053C270.985 177.653 272.478 178.929 272.954 181.924L275.25 196.378L278.896 195.799L276.449 180.39ZM284.419 175.875L286.28 187.595C287.032 192.326 289.899 194.407 293.762 193.794C295.194 193.566 296.325 193.119 297.19 192.404L295.819 189.373C295.2 189.961 294.41 190.309 293.455 190.46C291.589 190.757 290.34 189.62 289.975 187.319L288.065 175.296L293.795 174.386L293.271 171.087L287.541 171.997L286.135 163.142L282.854 166.022L283.895 172.576L280.119 173.176L280.643 176.475L284.419 175.875ZM303.992 185.36C303.599 182.886 305.505 181.159 309.195 180.573L313.101 179.953L313.184 180.474C313.549 182.774 313.21 184.564 312.167 185.842C311.124 187.12 309.775 187.868 308.125 188.13C305.825 188.496 304.323 187.444 303.992 185.36ZM316.14 175.554C315.258 169.998 311.488 167.838 306.41 168.644C302.286 169.299 299.57 172.089 299.592 175.868L302.921 176.096C303.06 173.893 304.633 172.309 306.934 171.943C310.102 171.44 311.95 172.704 312.425 175.699L312.577 176.654L309.018 177.219C302.898 178.191 299.521 181.309 300.259 185.953C300.969 190.424 304.135 192.146 308.085 191.519C311.08 191.043 313.158 189.556 314.398 187L315.496 189.986L318.36 189.531L316.14 175.554ZM323.544 169.661L325.405 181.381C326.156 186.112 329.023 188.193 332.887 187.58C334.319 187.352 335.45 186.906 336.315 186.19L334.944 183.159C334.325 183.747 333.535 184.095 332.58 184.246C330.713 184.543 329.465 183.406 329.099 181.105L327.19 169.082L332.919 168.172L332.395 164.873L326.666 165.783L325.259 156.928L321.979 159.808L323.02 166.362L319.243 166.962L319.767 170.261L323.544 169.661ZM341.989 185.778L345.635 185.199L342.161 163.322L338.515 163.901L341.989 185.778ZM336.638 157.969C336.879 159.488 338.237 160.474 339.8 160.226C341.362 159.978 342.348 158.62 342.107 157.101C341.859 155.538 340.494 154.509 338.931 154.757C337.369 155.005 336.39 156.407 336.638 157.969ZM353.798 180.876C356.103 182.78 358.793 183.465 361.961 182.962C365.13 182.458 367.475 180.974 369.033 178.456C370.635 175.933 371.163 173.09 370.673 170.008C370.184 166.926 368.808 164.43 366.503 162.527C364.242 160.616 361.545 159.887 358.377 160.391C355.208 160.894 352.87 162.422 351.268 164.946C349.71 167.463 349.175 170.263 349.665 173.345C350.154 176.426 351.537 178.966 353.798 180.876ZM354.288 166.87C355.248 165.071 356.774 164.027 358.9 163.69C361.027 163.352 362.801 163.871 364.228 165.291C365.691 166.661 366.596 168.43 366.94 170.601C367.285 172.771 366.974 174.734 366.013 176.533C365.09 178.282 363.564 179.325 361.437 179.663C359.311 180.001 357.537 179.481 356.074 178.112C354.646 176.692 353.742 174.922 353.398 172.752C353.053 170.581 353.364 168.618 354.288 166.87ZM393.314 161.828C392.624 157.488 389.801 155.4 385.807 156.034C382.639 156.537 380.442 158.399 379.255 161.569L378.614 157.533L374.968 158.112L378.442 179.988L382.088 179.409L380.634 170.25C380.172 167.342 380.4 164.858 381.333 162.886C382.309 160.906 383.64 159.76 385.333 159.491C387.85 159.092 389.344 160.367 389.819 163.362L392.115 177.817L395.761 177.237L393.314 161.828ZM415.152 174.158L418.798 173.579L415.323 151.702L411.677 152.281L415.152 174.158ZM409.8 146.349C410.042 147.868 411.4 148.854 412.962 148.606C414.525 148.358 415.511 147 415.27 145.481C415.021 143.918 413.656 142.889 412.094 143.137C410.531 143.385 409.552 144.787 409.8 146.349ZM428.596 149.238C424.733 149.852 422.578 152.819 423.13 156.292C423.792 160.459 427.658 161.269 430.696 161.899C432.759 162.283 434.531 163.07 434.758 164.502C435.123 166.803 434.131 168.117 431.787 168.49C429.573 168.841 427.653 167.678 426.026 164.999L423.213 167.181C425.003 170.324 428.187 172.443 432.311 171.788C436.782 171.078 439.146 168.033 438.457 163.692C437.48 157.261 427.36 159.67 426.783 155.756C426.507 154.02 427.47 152.799 428.989 152.558C430.335 152.344 431.754 152.875 433.327 154.094L435.464 151.574C433.55 149.608 431.243 148.818 428.596 149.238ZM455.414 148.717L457.276 160.436C458.027 165.168 460.894 167.249 464.757 166.635C466.19 166.408 467.32 165.961 468.186 165.245L466.814 162.214C466.196 162.802 465.405 163.15 464.45 163.302C462.584 163.598 461.335 162.462 460.97 160.161L459.06 148.138L464.79 147.228L464.266 143.929L458.536 144.839L457.13 135.984L453.849 138.864L454.89 145.418L451.114 146.018L451.638 149.316L455.414 148.717ZM488.858 146.876C488.134 142.318 485.354 140.224 481.317 140.865C477.975 141.395 475.379 143.543 474.424 146.498L472.37 133.564L468.724 134.143L473.604 164.874L477.251 164.295L475.775 155.006C475.32 152.141 475.606 149.737 476.669 147.744C477.732 145.751 479.15 144.591 480.842 144.322C483.36 143.922 484.853 145.198 485.329 148.193L487.625 162.647L491.271 162.068L488.858 146.876ZM514.706 146.197C514.244 143.289 512.99 140.996 510.893 139.282C508.833 137.518 506.243 136.906 503.162 137.395C499.993 137.898 497.735 139.37 496.35 141.859C495.002 144.298 494.554 147.084 495.057 150.253C495.561 153.421 496.849 155.931 498.894 157.876C500.975 159.77 503.578 160.469 506.746 159.966C511.261 159.249 513.713 157.035 515.07 152.414L511.637 151.535C510.827 154.557 509.304 156.178 506.222 156.667C502.446 157.267 499.814 154.704 498.914 150.441L514.975 147.89L514.706 146.197ZM503.686 140.694C507.028 140.163 509.413 142.009 510.631 145.198L498.608 147.108C498.771 143.655 500.43 141.211 503.686 140.694ZM537.689 138.898C537 134.557 534.176 132.469 530.183 133.104C527.014 133.607 524.818 135.469 523.63 138.639L522.989 134.602L519.343 135.181L522.818 157.058L526.464 156.479L525.009 147.32C524.547 144.412 524.776 141.928 525.708 139.955C526.684 137.976 528.016 136.83 529.708 136.561C532.226 136.161 533.719 137.437 534.195 140.432L536.49 154.886L540.137 154.307L537.689 138.898ZM557.039 136.403C557.336 138.27 558.112 139.793 559.403 140.923C557.769 142.117 557.114 143.6 557.397 145.38C557.631 146.856 558.295 147.952 559.424 148.618C558.265 150.004 557.812 151.633 558.108 153.5C558.825 158.014 562.942 160.119 568.541 159.23C573.924 158.375 577.394 155.287 576.587 150.209C575.974 146.346 572.938 144.603 568.771 145.265L563.605 146.085C561.956 146.347 561.035 145.87 560.842 144.655C560.69 143.7 561.057 142.93 561.936 142.3C563.104 142.649 564.404 142.71 565.837 142.482C568.05 142.13 569.77 141.19 570.996 139.66C572.214 138.087 572.67 136.19 572.318 133.976C572.077 132.457 571.523 131.21 570.606 130.199L573.295 128.081L571.17 125.348L567.615 128.182C566.296 127.724 564.946 127.627 563.513 127.854C561.3 128.206 559.587 129.19 558.368 130.763C557.15 132.336 556.688 134.189 557.039 136.403ZM568.703 148.479C571.177 148.086 572.565 148.979 572.909 151.149C573.289 153.536 571.677 155.439 568.031 156.018C564.385 156.597 562.126 155.265 561.733 152.79C561.513 151.401 561.818 150.24 562.656 149.351C563.314 149.291 563.841 149.252 564.275 149.183L568.703 148.479ZM561.281 132.57C562.602 130.803 565.293 130.375 567.097 131.646C567.996 132.26 568.552 133.24 568.759 134.542C568.966 135.844 568.74 136.948 568.076 137.81C566.741 139.49 564.05 139.918 562.26 138.734C561.361 138.12 560.805 137.14 560.598 135.838C560.392 134.536 560.617 133.432 561.281 132.57ZM597.999 132.968C597.537 130.06 596.283 127.767 594.186 126.053C592.126 124.289 589.537 123.677 586.455 124.166C583.286 124.669 581.028 126.14 579.643 128.63C578.295 131.069 577.848 133.855 578.351 137.023C578.854 140.192 580.143 142.702 582.187 144.647C584.268 146.541 586.871 147.24 590.04 146.737C594.554 146.02 597.006 143.806 598.364 139.185L594.931 138.306C594.12 141.327 592.598 142.949 589.516 143.438C585.74 144.038 583.107 141.475 582.208 137.212L598.268 134.661L597.999 132.968ZM586.979 127.465C590.321 126.934 592.706 128.78 593.924 131.969L581.901 133.878C582.065 130.426 583.724 127.982 586.979 127.465ZM620.983 125.669C620.293 121.328 617.47 119.24 613.476 119.874C610.308 120.378 608.111 122.239 606.924 125.41L606.283 121.373L602.637 121.952L606.111 143.829L609.757 143.249L608.303 134.091C607.841 131.183 608.069 128.699 609.002 126.726C609.978 124.747 611.309 123.601 613.002 123.332C615.519 122.932 617.013 124.208 617.488 127.203L619.784 141.657L623.43 141.078L620.983 125.669ZM646.916 125.199C646.454 122.291 645.2 119.998 643.103 118.284C641.043 116.52 638.453 115.907 635.371 116.397C632.203 116.9 629.944 118.371 628.56 120.861C627.212 123.3 626.764 126.086 627.267 129.254C627.771 132.423 629.059 134.933 631.104 136.878C633.185 138.772 635.788 139.471 638.956 138.968C643.471 138.251 645.922 136.037 647.28 131.416L643.847 130.537C643.037 133.558 641.514 135.18 638.432 135.669C634.656 136.269 632.024 133.705 631.124 129.443L647.185 126.892L646.916 125.199ZM635.895 119.696C639.238 119.165 641.622 121.011 642.841 124.2L630.817 126.109C630.981 122.657 632.64 120.213 635.895 119.696ZM663.988 112.519C663.094 112.216 662.062 112.158 660.89 112.344C658.459 112.73 655.986 114.814 655.114 117.444L654.521 113.711L650.875 114.291L654.349 136.167L657.995 135.588L656.679 127.298C656.148 123.955 656.342 121.254 657.261 119.195C658.18 117.135 659.46 115.953 661.11 115.691C662.021 115.546 662.881 115.632 663.767 115.892L663.988 112.519ZM672.984 126.755C672.591 124.281 674.497 122.554 678.187 121.968L682.093 121.347L682.176 121.868C682.541 124.169 682.203 125.958 681.16 127.236C680.117 128.515 678.767 129.263 677.118 129.525C674.817 129.89 673.315 128.838 672.984 126.755ZM685.133 116.949C684.25 111.393 680.481 109.232 675.402 110.039C671.279 110.694 668.562 113.484 668.584 117.263L671.913 117.491C672.053 115.288 673.626 113.703 675.926 113.338C679.095 112.835 680.942 114.099 681.418 117.094L681.569 118.049L678.01 118.614C671.89 119.586 668.513 122.703 669.251 127.348C669.961 131.819 673.127 133.541 677.077 132.913C680.072 132.438 682.15 130.951 683.391 128.395L684.488 131.38L687.353 130.925L685.133 116.949ZM692.536 111.056L694.397 122.775C695.149 127.507 698.016 129.588 701.879 128.974C703.311 128.747 704.442 128.3 705.307 127.584L703.936 124.553C703.317 125.141 702.527 125.489 701.572 125.641C699.706 125.937 698.457 124.801 698.092 122.5L696.182 110.477L701.912 109.567L701.388 106.268L695.658 107.178L694.252 98.323L690.971 101.203L692.012 107.757L688.236 108.357L688.76 111.656L692.536 111.056ZM726.903 112.495C726.441 109.587 725.187 107.294 723.09 105.58C721.03 103.816 718.44 103.203 715.359 103.693C712.19 104.196 709.932 105.667 708.547 108.157C707.199 110.596 706.751 113.382 707.255 116.55C707.758 119.719 709.046 122.229 711.091 124.174C713.172 126.068 715.775 126.767 718.944 126.264C723.458 125.547 725.91 123.333 727.267 118.712L723.835 117.833C723.024 120.854 721.501 122.476 718.42 122.965C714.643 123.565 712.011 121.001 711.112 116.739L727.172 114.188L726.903 112.495ZM715.883 106.992C719.225 106.461 721.61 108.307 722.828 111.496L710.805 113.405C710.968 109.953 712.627 107.509 715.883 106.992ZM740.025 99.7753C733.774 100.768 731.019 105.834 732.094 112.605C733.17 119.376 737.359 123.339 743.61 122.346C746.214 121.933 748.691 120.16 749.508 118.294L749.935 120.986L753.581 120.407L748.7 89.6752L745.054 90.2543L746.874 101.713C746.373 101.081 745.402 100.568 744.04 100.117C742.677 99.6655 741.327 99.5684 740.025 99.7753ZM743.433 118.992C739.613 119.599 736.579 116.743 735.827 112.012C735.076 107.281 737.076 103.626 740.896 103.019C744.846 102.392 747.75 105.268 748.502 109.999C749.253 114.73 747.383 118.365 743.433 118.992ZM77.0551 275.108C76.6621 272.634 78.5684 270.908 82.2579 270.322L86.1644 269.701L86.2472 270.222C86.6125 272.522 86.2737 274.312 85.2307 275.59C84.1877 276.868 82.838 277.617 81.1886 277.878C78.8881 278.244 77.386 277.192 77.0551 275.108ZM89.2039 265.302C88.3214 259.746 84.5518 257.586 79.4733 258.393C75.3497 259.047 72.6333 261.837 72.655 265.617L75.9842 265.844C76.1239 263.642 77.6967 262.057 79.9972 261.691C83.1658 261.188 85.0132 262.452 85.4888 265.447L85.6405 266.402L82.0812 266.968C75.961 267.94 72.5845 271.057 73.3222 275.701C74.0323 280.172 77.1983 281.894 81.1483 281.267C84.1433 280.791 86.2211 279.304 87.4618 276.749L88.5589 279.734L91.4237 279.279L89.2039 265.302ZM96.8084 271.793C97.4978 276.134 100.321 278.222 104.315 277.588C107.483 277.084 109.68 275.222 110.867 272.052L111.508 276.089L115.155 275.51L111.68 253.633L108.034 254.212L109.489 263.371C109.95 266.279 109.722 268.763 108.746 270.743C107.813 272.715 106.482 273.861 104.789 274.13C102.272 274.53 100.778 273.254 100.303 270.259L98.0071 255.805L94.361 256.384L96.8084 271.793ZM121.192 255.505L123.054 267.224C123.805 271.955 126.672 274.037 130.535 273.423C131.968 273.196 133.098 272.749 133.964 272.033L132.592 269.002C131.974 269.59 131.183 269.938 130.228 270.09C128.362 270.386 127.113 269.249 126.748 266.949L124.838 254.926L130.568 254.015L130.044 250.717L124.314 251.627L122.908 242.772L119.627 245.651L120.668 252.206L116.892 252.806L117.416 256.104L121.192 255.505ZM140.044 268.531C142.349 270.434 145.039 271.119 148.208 270.616C151.376 270.113 153.721 268.628 155.28 266.111C156.881 263.587 157.409 260.744 156.919 257.662C156.43 254.581 155.054 252.084 152.75 250.181C150.488 248.271 147.791 247.542 144.623 248.045C141.454 248.548 139.116 250.077 137.514 252.601C135.956 255.118 135.422 257.917 135.911 260.999C136.4 264.081 137.783 266.62 140.044 268.531ZM140.534 254.524C141.494 252.725 143.02 251.682 145.147 251.344C147.274 251.006 149.047 251.526 150.474 252.945C151.938 254.315 152.842 256.085 153.187 258.255C153.531 260.426 153.22 262.389 152.26 264.188C151.336 265.936 149.811 266.98 147.684 267.317C145.557 267.655 143.783 267.136 142.32 265.766C140.893 264.346 139.989 262.576 139.644 260.406C139.299 258.236 139.61 256.273 140.534 254.524ZM191.674 247.559C190.992 243.262 188.378 241.096 184.428 241.723C181.303 242.219 179.157 244.118 178.034 247.411C176.877 244.613 174.445 243.309 171.45 243.784C168.368 244.274 166.345 246.108 165.332 249.251L164.69 245.214L161.044 245.793L164.519 267.67L168.165 267.09L166.738 258.105C165.766 251.985 167.677 247.766 170.976 247.242C173.32 246.869 174.719 248.116 175.174 250.981L177.497 265.608L181.143 265.029L179.716 256.044C178.744 249.924 180.655 245.704 183.954 245.18C186.298 244.808 187.697 246.054 188.152 248.919L190.476 263.547L194.122 262.968L191.674 247.559ZM202.864 255.127C202.471 252.653 204.378 250.926 208.067 250.34L211.974 249.719L212.056 250.24C212.422 252.541 212.083 254.33 211.04 255.608C209.997 256.886 208.647 257.635 206.998 257.897C204.697 258.262 203.195 257.21 202.864 255.127ZM215.013 245.321C214.131 239.765 210.361 237.604 205.282 238.411C201.159 239.066 198.442 241.856 198.464 245.635L201.793 245.863C201.933 243.66 203.506 242.075 205.806 241.71C208.975 241.206 210.822 242.471 211.298 245.466L211.45 246.421L207.89 246.986C201.77 247.958 198.394 251.075 199.131 255.72C199.841 260.19 203.008 261.913 206.957 261.285C209.952 260.81 212.03 259.323 213.271 256.767L214.368 259.752L217.233 259.297L215.013 245.321ZM222.416 239.428L224.278 251.147C225.029 255.878 227.896 257.96 231.759 257.346C233.192 257.119 234.322 256.672 235.187 255.956L233.816 252.925C233.197 253.513 232.407 253.861 231.452 254.013C229.586 254.309 228.337 253.173 227.972 250.872L226.062 238.849L231.792 237.939L231.268 234.64L225.538 235.55L224.132 226.695L220.851 229.575L221.892 236.129L218.116 236.729L218.64 240.027L222.416 239.428ZM240.862 255.544L244.508 254.965L241.033 233.089L237.387 233.668L240.862 255.544ZM235.51 227.736C235.752 229.255 237.11 230.241 238.672 229.993C240.235 229.744 241.221 228.386 240.98 226.867C240.731 225.305 239.366 224.275 237.804 224.523C236.241 224.772 235.262 226.173 235.51 227.736ZM265.095 244.531C264.35 247.408 262.567 249.071 259.746 249.519C255.709 250.16 253.015 247.206 252.27 242.518C251.526 237.83 253.172 234.187 257.209 233.546C260.03 233.098 262.241 234.126 263.84 236.631L266.802 234.826C264.381 231.072 261.025 229.557 256.685 230.247C253.516 230.75 251.214 232.228 249.83 234.718C248.482 237.157 248.034 239.942 248.537 243.111C249.041 246.28 250.329 248.79 252.374 250.734C254.455 252.629 257.101 253.321 260.27 252.818C264.61 252.129 267.332 249.649 268.47 245.33L265.095 244.531ZM276.748 243.392C276.355 240.918 278.261 239.191 281.95 238.605L285.857 237.985L285.94 238.506C286.305 240.806 285.966 242.596 284.923 243.874C283.88 245.152 282.53 245.9 280.881 246.162C278.581 246.528 277.078 245.476 276.748 243.392ZM288.896 233.586C288.014 228.03 284.244 225.87 279.166 226.676C275.042 227.331 272.326 230.121 272.347 233.9L275.677 234.128C275.816 231.925 277.389 230.341 279.69 229.975C282.858 229.472 284.706 230.736 285.181 233.731L285.333 234.686L281.774 235.251C275.653 236.223 272.277 239.341 273.015 243.985C273.725 248.456 276.891 250.178 280.841 249.551C283.836 249.075 285.914 247.588 287.154 245.032L288.251 248.018L291.116 247.563L288.896 233.586ZM297.702 246.517L301.348 245.938L296.467 215.206L292.821 215.785L297.702 246.517ZM308.553 244.793L312.199 244.214L307.318 213.483L303.672 214.062L308.553 244.793ZM325.496 235.872L317.431 220.955L313.438 221.589L324.45 241.334L322.529 251.652L326.262 251.059L332.232 218.604L328.413 219.211L325.496 235.872ZM369.171 229.959L362.206 213.843L358.56 214.423L356.93 231.903L349.792 215.815L345.972 216.422L356.088 237.244L359.56 236.692L361.217 219.385L368.154 235.327L371.627 234.776L374.793 211.844L370.974 212.451L369.171 229.959ZM383.202 232.937L386.849 232.358L383.374 210.481L379.728 211.061L383.202 232.937ZM377.851 205.128C378.092 206.648 379.451 207.633 381.013 207.385C382.576 207.137 383.562 205.779 383.32 204.26C383.072 202.697 381.707 201.668 380.145 201.916C378.582 202.164 377.603 203.566 377.851 205.128ZM392.649 212.39L394.51 224.11C395.261 228.841 398.128 230.922 401.992 230.309C403.424 230.081 404.555 229.635 405.42 228.919L404.049 225.888C403.43 226.476 402.64 226.824 401.685 226.976C399.818 227.272 398.57 226.135 398.204 223.835L396.295 211.811L402.024 210.901L401.5 207.602L395.771 208.512L394.364 199.658L391.084 202.537L392.125 209.092L388.348 209.691L388.872 212.99L392.649 212.39ZM426.092 210.55C425.368 205.992 422.588 203.897 418.551 204.538C415.209 205.069 412.613 207.217 411.658 210.172L409.604 197.237L405.958 197.816L410.839 228.548L414.485 227.969L413.01 218.68C412.555 215.815 412.84 213.411 413.903 211.418C414.966 209.424 416.384 208.265 418.077 207.996C420.594 207.596 422.087 208.872 422.563 211.867L424.859 226.321L428.505 225.742L426.092 210.55ZM445.761 203.955L447.623 215.674C448.374 220.406 451.241 222.487 455.104 221.873C456.537 221.646 457.667 221.199 458.533 220.483L457.161 217.452C456.543 218.04 455.752 218.388 454.798 218.54C452.931 218.836 451.683 217.7 451.317 215.399L449.408 203.376L455.137 202.466L454.613 199.167L448.884 200.077L447.477 191.222L444.197 194.102L445.237 200.656L441.461 201.256L441.985 204.555L445.761 203.955ZM479.205 202.114C478.481 197.557 475.701 195.462 471.664 196.103C468.322 196.634 465.726 198.781 464.771 201.737L462.717 188.802L459.071 189.381L463.952 220.112L467.598 219.533L466.122 210.244C465.667 207.379 465.953 204.975 467.016 202.982C468.079 200.989 469.497 199.829 471.19 199.56C473.707 199.16 475.2 200.436 475.676 203.431L477.972 217.885L481.618 217.306L479.205 202.114ZM505.053 201.435C504.591 198.527 503.337 196.234 501.24 194.52C499.18 192.756 496.59 192.144 493.509 192.633C490.34 193.136 488.082 194.608 486.697 197.097C485.349 199.536 484.901 202.322 485.405 205.491C485.908 208.659 487.196 211.169 489.241 213.114C491.322 215.008 493.925 215.708 497.094 215.204C501.608 214.487 504.06 212.273 505.417 207.652L501.985 206.773C501.174 209.795 499.651 211.416 496.57 211.905C492.793 212.505 490.161 209.942 489.262 205.679L505.322 203.128L505.053 201.435ZM494.033 195.932C497.375 195.401 499.76 197.248 500.978 200.436L488.955 202.346C489.118 198.893 490.777 196.449 494.033 195.932ZM537.865 201.208C537.12 204.085 535.337 205.748 532.516 206.196C528.479 206.837 525.785 203.883 525.041 199.195C524.296 194.508 525.942 190.864 529.979 190.223C532.8 189.775 535.011 190.803 536.61 193.308L539.572 191.503C537.151 187.749 533.796 186.235 529.455 186.924C526.287 187.427 523.985 188.905 522.6 191.395C521.252 193.834 520.804 196.62 521.308 199.788C521.811 202.957 523.1 205.467 525.144 207.412C527.225 209.306 529.871 209.998 533.04 209.495C537.381 208.806 540.102 206.326 541.24 202.007L537.865 201.208ZM548.967 203.583C551.271 205.487 553.961 206.172 557.13 205.669C560.299 205.166 562.644 203.681 564.202 201.164C565.804 198.64 566.331 195.797 565.842 192.715C565.352 189.633 563.977 187.137 561.672 185.234C559.411 183.323 556.714 182.595 553.545 183.098C550.376 183.601 548.038 185.13 546.437 187.653C544.878 190.171 544.344 192.97 544.833 196.052C545.323 199.134 546.705 201.673 548.967 203.583ZM549.457 189.577C550.417 187.778 551.942 186.735 554.069 186.397C556.196 186.059 557.969 186.578 559.396 187.998C560.86 189.368 561.764 191.138 562.109 193.308C562.454 195.478 562.142 197.441 561.182 199.24C560.258 200.989 558.733 202.032 556.606 202.37C554.479 202.708 552.706 202.189 551.242 200.819C549.815 199.399 548.911 197.629 548.566 195.459C548.222 193.289 548.533 191.326 549.457 189.577ZM588.482 184.536C587.793 180.195 584.969 178.107 580.976 178.741C577.807 179.244 575.611 181.106 574.423 184.276L573.782 180.24L570.136 180.819L573.611 202.695L577.257 202.116L575.802 192.958C575.34 190.049 575.569 187.566 576.502 185.593C577.478 183.613 578.809 182.467 580.502 182.199C583.019 181.799 584.512 183.075 584.988 186.07L587.284 200.524L590.93 199.945L588.482 184.536ZM596.453 180.021L598.314 191.741C599.066 196.472 601.933 198.553 605.796 197.94C607.228 197.712 608.359 197.266 609.224 196.55L607.853 193.519C607.234 194.107 606.444 194.455 605.489 194.606C603.622 194.903 602.374 193.766 602.008 191.465L600.099 179.442L605.828 178.532L605.304 175.233L599.575 176.143L598.169 167.288L594.888 170.168L595.929 176.722L592.152 177.322L592.676 180.621L596.453 180.021ZM630.82 181.46C630.358 178.552 629.104 176.259 627.007 174.545C624.947 172.781 622.357 172.169 619.276 172.658C616.107 173.161 613.848 174.633 612.464 177.122C611.116 179.561 610.668 182.347 611.171 185.516C611.675 188.684 612.963 191.194 615.008 193.139C617.089 195.033 619.692 195.733 622.86 195.229C627.375 194.512 629.826 192.298 631.184 187.677L627.751 186.798C626.941 189.82 625.418 191.441 622.336 191.93C618.56 192.53 615.928 189.967 615.028 185.704L631.089 183.153L630.82 181.46ZM619.799 175.957C623.142 175.426 625.526 177.273 626.745 180.461L614.721 182.371C614.885 178.918 616.544 176.474 619.799 175.957ZM653.803 174.161C653.114 169.82 650.29 167.732 646.297 168.367C643.128 168.87 640.932 170.732 639.744 173.902L639.103 169.865L635.457 170.444L638.931 192.321L642.578 191.742L641.123 182.583C640.661 179.675 640.89 177.191 641.822 175.218C642.798 173.239 644.129 172.093 645.822 171.824C648.34 171.424 649.833 172.7 650.309 175.695L652.604 190.149L656.25 189.57L653.803 174.161ZM661.773 169.647L663.635 181.366C664.386 186.097 667.253 188.179 671.117 187.565C672.549 187.337 673.68 186.891 674.545 186.175L673.173 183.144C672.555 183.732 671.765 184.08 670.81 184.232C668.943 184.528 667.695 183.391 667.329 181.091L665.42 169.067L671.149 168.157L670.625 164.859L664.896 165.769L663.489 156.914L660.209 159.793L661.25 166.348L657.473 166.947L657.997 170.246L661.773 169.647ZM682.854 162.56C678.991 163.174 676.837 166.142 677.388 169.614C678.05 173.781 681.917 174.591 684.954 175.221C687.017 175.605 688.789 176.392 689.016 177.824C689.382 180.125 688.389 181.44 686.045 181.812C683.831 182.163 681.911 181 680.284 178.321L677.471 180.504C679.261 183.646 682.445 185.766 686.569 185.111C691.04 184.401 693.404 181.355 692.715 177.015C691.738 170.584 681.618 172.992 681.041 169.078C680.765 167.342 681.728 166.121 683.248 165.88C684.593 165.666 686.013 166.197 687.586 167.416L689.722 164.896C687.808 162.931 685.502 162.14 682.854 162.56ZM712.502 177.61C714.806 179.513 717.496 180.199 720.665 179.695C723.834 179.192 726.179 177.707 727.737 175.19C729.339 172.666 729.866 169.823 729.377 166.742C728.887 163.66 727.512 161.164 725.207 159.26C722.946 157.35 720.249 156.621 717.08 157.124C713.911 157.628 711.573 159.156 709.971 161.68C708.413 164.197 707.879 166.996 708.368 170.078C708.858 173.16 710.24 175.7 712.502 177.61ZM712.992 163.603C713.952 161.804 715.477 160.761 717.604 160.423C719.731 160.085 721.504 160.605 722.931 162.025C724.395 163.394 725.299 165.164 725.644 167.334C725.989 169.505 725.677 171.468 724.717 173.267C723.793 175.016 722.268 176.059 720.141 176.397C718.014 176.734 716.241 176.215 714.777 174.845C713.35 173.426 712.446 171.656 712.101 169.485C711.757 167.315 712.068 165.352 712.992 163.603ZM735.07 158.005L738.021 176.583L741.667 176.004L738.716 157.426L743.752 156.626L743.228 153.327L738.193 154.127L737.965 152.695C737.517 149.873 738.308 148.413 740.696 148.034C741.52 147.903 742.336 147.995 743.223 148.255L743.451 144.926C742.55 144.579 741.474 144.528 740.215 144.728C735.701 145.445 733.54 148.369 734.319 153.274L734.546 154.706L731.421 155.203L731.945 158.501L735.07 158.005ZM769.516 165.35L761.451 150.433L757.458 151.067L768.47 170.812L766.549 181.13L770.282 180.537L776.252 148.082L772.433 148.689L769.516 165.35ZM784.986 166.098C787.291 168.001 789.981 168.686 793.149 168.183C796.318 167.68 798.663 166.195 800.221 163.678C801.823 161.154 802.351 158.311 801.861 155.229C801.372 152.147 799.996 149.651 797.691 147.748C795.43 145.837 792.733 145.109 789.565 145.612C786.396 146.115 784.058 147.644 782.456 150.168C780.898 152.685 780.363 155.484 780.853 158.566C781.342 161.648 782.725 164.187 784.986 166.098ZM785.476 152.091C786.436 150.292 787.962 149.249 790.088 148.911C792.215 148.573 793.989 149.092 795.416 150.512C796.879 151.882 797.784 153.652 798.128 155.822C798.473 157.992 798.162 159.955 797.201 161.754C796.278 163.503 794.752 164.546 792.625 164.884C790.499 165.222 788.725 164.703 787.262 163.333C785.834 161.913 784.93 160.143 784.586 157.973C784.241 155.803 784.552 153.84 785.476 152.091ZM808.343 158.783C809.032 163.124 811.856 165.212 815.849 164.578C819.018 164.075 821.214 162.213 822.401 159.043L823.043 163.079L826.689 162.5L823.214 140.624L819.568 141.203L821.023 150.361C821.485 153.27 821.256 155.753 820.28 157.733C819.347 159.706 818.016 160.852 816.323 161.12C813.806 161.52 812.313 160.244 811.837 157.249L809.541 142.795L805.895 143.374L808.343 158.783ZM843.303 137.744C842.41 137.441 841.377 137.383 840.205 137.569C837.774 137.955 835.302 140.039 834.429 142.669L833.836 138.937L830.19 139.516L833.665 161.392L837.311 160.813L835.994 152.523C835.463 149.18 835.657 146.479 836.576 144.42C837.495 142.361 838.776 141.178 840.425 140.916C841.337 140.771 842.196 140.857 843.083 141.117L843.303 137.744ZM84.4213 334.096L88.241 333.489L86.0143 319.469L97.2564 317.684L96.6773 314.038L85.4352 315.823L83.9943 306.751L97.8408 304.552L97.2617 300.906L79.5955 303.712L84.4213 334.096ZM107.604 330.414L111.25 329.835L107.775 307.958L104.129 308.538L107.604 330.414ZM102.253 302.605C102.494 304.125 103.852 305.111 105.415 304.862C106.977 304.614 107.963 303.256 107.722 301.737C107.473 300.174 106.108 299.145 104.546 299.393C102.983 299.641 102.004 301.043 102.253 302.605ZM116.222 313.826C116.518 315.693 117.294 317.216 118.586 318.346C116.951 319.54 116.297 321.023 116.579 322.803C116.814 324.279 117.477 325.375 118.607 326.041C117.447 327.427 116.994 329.056 117.29 330.923C118.007 335.437 122.124 337.542 127.724 336.653C133.106 335.798 136.576 332.71 135.77 327.632C135.156 323.769 132.12 322.026 127.953 322.687L122.788 323.508C121.138 323.77 120.217 323.293 120.024 322.078C119.873 321.123 120.24 320.353 121.119 319.723C122.287 320.072 123.587 320.132 125.019 319.905C127.233 319.553 128.953 318.613 130.178 317.083C131.397 315.51 131.852 313.613 131.5 311.399C131.259 309.88 130.705 308.633 129.788 307.622L132.478 305.504L130.352 302.771L126.798 305.605C125.479 305.147 124.128 305.05 122.696 305.277C120.482 305.629 118.77 306.613 117.551 308.186C116.332 309.759 115.87 311.612 116.222 313.826ZM127.885 325.902C130.359 325.509 131.747 326.401 132.092 328.572C132.471 330.959 130.86 332.862 127.214 333.441C123.567 334.02 121.309 332.687 120.916 330.213C120.695 328.824 121 327.663 121.838 326.774C122.496 326.714 123.024 326.674 123.458 326.606L127.885 325.902ZM120.463 309.993C121.785 308.225 124.476 307.798 126.28 309.069C127.178 309.683 127.734 310.663 127.941 311.965C128.148 313.267 127.923 314.371 127.259 315.233C125.924 316.913 123.232 317.341 121.442 316.156C120.544 315.543 119.988 314.563 119.781 313.261C119.574 311.959 119.799 310.855 120.463 309.993ZM167.821 305.052C167.139 300.755 164.525 298.589 160.575 299.216C157.45 299.713 155.304 301.611 154.181 304.905C153.024 302.107 150.592 300.802 147.597 301.278C144.515 301.767 142.492 303.601 141.478 306.744L140.837 302.707L137.191 303.286L140.666 325.163L144.312 324.584L142.885 315.599C141.913 309.479 143.824 305.259 147.123 304.735C149.466 304.363 150.866 305.609 151.321 308.474L153.644 323.102L157.29 322.523L155.863 313.538C154.891 307.417 156.802 303.198 160.101 302.674C162.445 302.302 163.844 303.548 164.299 306.413L166.623 321.04L170.269 320.461L167.821 305.052ZM179.011 312.62C178.618 310.146 180.525 308.419 184.214 307.833L188.121 307.213L188.203 307.734C188.569 310.034 188.23 311.823 187.187 313.102C186.144 314.38 184.794 315.128 183.145 315.39C180.844 315.756 179.342 314.704 179.011 312.62ZM191.16 302.814C190.278 297.258 186.508 295.098 181.429 295.904C177.306 296.559 174.589 299.349 174.611 303.128L177.94 303.356C178.08 301.153 179.653 299.568 181.953 299.203C185.122 298.7 186.969 299.964 187.445 302.959L187.597 303.914L184.037 304.479C177.917 305.451 174.541 308.569 175.278 313.213C175.988 317.684 179.154 319.406 183.104 318.779C186.099 318.303 188.177 316.816 189.418 314.26L190.515 317.246L193.38 316.791L191.16 302.814ZM210.142 295.082L213.093 313.66L216.739 313.081L213.788 294.503L221.298 293.31L224.248 311.888L227.894 311.309L224.42 289.432L213.264 291.204L213.147 290.466C212.644 287.298 214.162 285.365 217.157 284.89C219.023 284.593 220.698 284.772 222.218 285.376L222.503 282.127C221.006 281.386 219.063 281.205 216.676 281.584C214.289 281.963 212.359 282.982 210.981 284.669C209.602 286.357 209.094 288.484 209.508 291.089L209.618 291.783L206.493 292.28L207.017 295.578L210.142 295.082ZM235.445 310.11L239.091 309.531L234.21 278.799L230.564 279.378L235.445 310.11ZM262.602 293.648C262.14 290.739 260.886 288.447 258.789 286.733C256.729 284.968 254.14 284.356 251.058 284.846C247.889 285.349 245.631 286.82 244.246 289.309C242.898 291.749 242.45 294.534 242.954 297.703C243.457 300.871 244.746 303.381 246.79 305.326C248.871 307.221 251.474 307.92 254.643 307.417C259.157 306.7 261.609 304.486 262.966 299.864L259.534 298.986C258.723 302.007 257.201 303.628 254.119 304.118C250.342 304.717 247.71 302.154 246.811 297.891L262.871 295.341L262.602 293.648ZM251.582 288.144C254.924 287.614 257.309 289.46 258.527 292.648L246.504 294.558C246.667 291.105 248.326 288.661 251.582 288.144ZM283.414 296.038C283.021 293.564 284.928 291.837 288.617 291.251L292.524 290.631L292.606 291.152C292.972 293.452 292.633 295.242 291.59 296.52C290.547 297.798 289.197 298.546 287.548 298.808C285.247 299.174 283.745 298.122 283.414 296.038ZM295.563 286.232C294.681 280.676 290.911 278.516 285.832 279.322C281.709 279.977 278.992 282.767 279.014 286.546L282.343 286.774C282.483 284.571 284.056 282.987 286.356 282.621C289.525 282.118 291.372 283.382 291.848 286.377L292 287.332L288.44 287.897C282.32 288.869 278.944 291.987 279.681 296.631C280.391 301.102 283.557 302.824 287.507 302.197C290.502 301.721 292.58 300.234 293.821 297.679L294.918 300.664L297.783 300.209L295.563 286.232ZM319.03 281.036C318.341 276.696 315.517 274.608 311.524 275.242C308.355 275.745 306.159 277.607 304.971 280.777L304.33 276.741L300.684 277.32L304.158 299.196L307.805 298.617L306.35 289.458C305.888 286.55 306.117 284.066 307.049 282.094C308.025 280.114 309.356 278.968 311.049 278.699C313.567 278.3 315.06 279.575 315.536 282.57L317.831 297.025L321.477 296.446L319.03 281.036ZM333.245 271.792C326.995 272.785 324.239 277.851 325.315 284.622C326.39 291.393 330.58 295.356 336.83 294.363C339.434 293.949 341.912 292.176 342.728 290.311L343.156 293.002L346.802 292.423L341.921 261.692L338.275 262.271L340.095 273.73C339.594 273.098 338.622 272.585 337.26 272.133C335.898 271.682 334.547 271.585 333.245 271.792ZM336.653 291.009C332.834 291.616 329.799 288.76 329.048 284.029C328.296 279.298 330.297 275.642 334.116 275.036C338.066 274.408 340.971 277.285 341.722 282.016C342.474 286.747 340.603 290.382 336.653 291.009ZM371.627 282.25L363.561 267.333L359.568 267.967L370.581 287.712L368.659 298.03L372.392 297.437L378.363 264.982L374.543 265.589L371.627 282.25ZM387.096 282.997C389.401 284.901 392.091 285.586 395.26 285.083C398.428 284.58 400.774 283.095 402.332 280.578C403.934 278.054 404.461 275.211 403.972 272.129C403.482 269.047 402.107 266.551 399.802 264.648C397.54 262.737 394.844 262.009 391.675 262.512C388.506 263.015 386.168 264.544 384.566 267.068C383.008 269.585 382.474 272.384 382.963 275.466C383.453 278.548 384.835 281.087 387.096 282.997ZM387.586 268.991C388.547 267.192 390.072 266.149 392.199 265.811C394.326 265.473 396.099 265.992 397.526 267.412C398.99 268.782 399.894 270.552 400.239 272.722C400.583 274.892 400.272 276.855 399.312 278.654C398.388 280.403 396.863 281.446 394.736 281.784C392.609 282.122 390.835 281.603 389.372 280.233C387.945 278.813 387.041 277.043 386.696 274.873C386.351 272.703 386.663 270.74 387.586 268.991ZM410.453 275.683C411.142 280.024 413.966 282.112 417.959 281.478C421.128 280.974 423.324 279.113 424.512 275.942L425.153 279.979L428.799 279.4L425.325 257.524L421.678 258.103L423.133 267.261C423.595 270.169 423.366 272.653 422.39 274.633C421.458 276.606 420.127 277.751 418.434 278.02C415.916 278.42 414.423 277.144 413.947 274.149L411.652 259.695L408.006 260.274L410.453 275.683ZM445.414 254.644C444.52 254.341 443.487 254.283 442.315 254.469C439.885 254.855 437.412 256.939 436.539 259.569L435.946 255.837L432.3 256.416L435.775 278.292L439.421 277.713L438.104 269.423C437.573 266.08 437.767 263.379 438.686 261.32C439.605 259.26 440.886 258.078 442.535 257.816C443.447 257.671 444.306 257.757 445.193 258.017L445.414 254.644ZM468.04 250.383C464.177 250.997 462.023 253.964 462.575 257.437C463.236 261.604 467.103 262.414 470.14 263.044C472.204 263.428 473.975 264.215 474.203 265.647C474.568 267.948 473.575 269.262 471.232 269.635C469.018 269.986 467.098 268.823 465.471 266.144L462.658 268.326C464.447 271.469 467.632 273.588 471.756 272.934C476.226 272.223 478.591 269.178 477.901 264.837C476.924 258.406 466.805 260.815 466.228 256.901C465.952 255.165 466.915 253.944 468.434 253.703C469.78 253.489 471.199 254.02 472.772 255.239L474.909 252.719C472.994 250.753 470.688 249.963 468.04 250.383ZM484.223 270.597L487.869 270.018L482.988 239.287L479.342 239.866L484.223 270.597ZM494.399 268.981L498.045 268.402L494.571 246.525L490.925 247.105L494.399 268.981ZM489.048 241.173C489.289 242.692 490.647 243.678 492.21 243.429C493.773 243.181 494.758 241.823 494.517 240.304C494.269 238.741 492.904 237.712 491.341 237.96C489.779 238.208 488.8 239.61 489.048 241.173ZM510.005 243.718C503.755 244.711 500.999 249.776 502.075 256.548C503.15 263.319 507.34 267.282 513.59 266.289C516.195 265.875 518.672 264.102 519.488 262.237L519.916 264.928L523.562 264.349L518.681 233.618L515.035 234.197L516.855 245.656C516.354 245.024 515.382 244.511 514.02 244.059C512.658 243.608 511.308 243.511 510.005 243.718ZM513.414 262.935C509.594 263.542 506.559 260.686 505.808 255.955C505.056 251.224 507.057 247.568 510.877 246.962C514.827 246.334 517.731 249.211 518.482 253.942C519.234 258.673 517.364 262.308 513.414 262.935ZM547.241 248.44C546.779 245.532 545.525 243.239 543.428 241.525C541.368 239.76 538.779 239.148 535.697 239.638C532.528 240.141 530.27 241.612 528.885 244.101C527.537 246.541 527.09 249.326 527.593 252.495C528.096 255.664 529.385 258.173 531.429 260.118C533.51 262.013 536.113 262.712 539.282 262.209C543.796 261.492 546.248 259.278 547.606 254.656L544.173 253.778C543.362 256.799 541.84 258.42 538.758 258.91C534.982 259.51 532.349 256.946 531.45 252.683L547.51 250.133L547.241 248.44ZM536.221 242.936C539.563 242.406 541.948 244.252 543.166 247.44L531.143 249.35C531.307 245.897 532.965 243.453 536.221 242.936ZM557.735 236.137C553.871 236.751 551.717 239.719 552.269 243.191C552.931 247.358 556.797 248.168 559.834 248.798C561.898 249.182 563.669 249.969 563.897 251.401C564.262 253.702 563.27 255.017 560.926 255.389C558.712 255.741 556.792 254.577 555.165 251.898L552.352 254.081C554.141 257.223 557.326 259.343 561.45 258.688C565.92 257.978 568.285 254.932 567.595 250.592C566.619 244.161 556.499 246.569 555.922 242.655C555.646 240.919 556.609 239.698 558.128 239.457C559.474 239.243 560.893 239.774 562.466 240.993L564.603 238.473C562.688 236.508 560.382 235.717 557.735 236.137ZM589.724 238.266C589 233.708 586.219 231.613 582.183 232.254C578.84 232.785 576.244 234.933 575.29 237.888L573.235 224.953L569.589 225.532L574.47 256.264L578.116 255.685L576.641 246.396C576.186 243.531 576.472 241.127 577.535 239.134C578.598 237.14 580.015 235.981 581.708 235.712C584.226 235.312 585.719 236.588 586.195 239.583L588.49 254.037L592.136 253.458L589.724 238.266ZM600.056 249.174C602.361 251.077 605.051 251.763 608.22 251.26C611.388 250.756 613.734 249.271 615.292 246.754C616.894 244.23 617.421 241.387 616.932 238.306C616.442 235.224 615.067 232.728 612.762 230.824C610.5 228.914 607.804 228.185 604.635 228.688C601.466 229.192 599.128 230.72 597.526 233.244C595.968 235.761 595.434 238.561 595.923 241.642C596.413 244.724 597.795 247.264 600.056 249.174ZM600.546 235.167C601.507 233.368 603.032 232.325 605.159 231.987C607.286 231.65 609.059 232.169 610.486 233.589C611.95 234.958 612.854 236.728 613.199 238.899C613.543 241.069 613.232 243.032 612.272 244.831C611.348 246.58 609.823 247.623 607.696 247.961C605.569 248.298 603.796 247.779 602.332 246.41C600.905 244.99 600.001 243.22 599.656 241.049C599.311 238.879 599.623 236.916 600.546 235.167ZM641.783 240.366L634.818 224.251L631.172 224.83L629.543 242.31L622.404 226.222L618.584 226.829L628.7 247.651L632.173 247.099L633.829 229.792L640.767 245.734L644.239 245.183L647.406 222.251L643.586 222.858L641.783 240.366ZM665.662 226.561C665.958 228.427 666.734 229.951 668.026 231.081C666.391 232.275 665.737 233.758 666.02 235.538C666.254 237.014 666.918 238.11 668.047 238.776C666.888 240.162 666.434 241.791 666.731 243.658C667.448 248.172 671.565 250.277 677.164 249.388C682.546 248.533 686.017 245.445 685.21 240.367C684.596 236.503 681.561 234.761 677.394 235.422L672.228 236.243C670.579 236.505 669.658 236.028 669.465 234.813C669.313 233.858 669.68 233.087 670.559 232.458C671.727 232.807 673.027 232.867 674.46 232.64C676.673 232.288 678.393 231.348 679.619 229.818C680.837 228.245 681.292 226.348 680.941 224.134C680.7 222.615 680.145 221.368 679.228 220.357L681.918 218.238L679.793 215.505L676.238 218.34C674.919 217.882 673.569 217.785 672.136 218.012C669.923 218.364 668.21 219.348 666.991 220.921C665.773 222.494 665.31 224.347 665.662 226.561ZM677.326 238.637C679.8 238.244 681.188 239.136 681.532 241.307C681.911 243.694 680.3 245.596 676.654 246.176C673.008 246.755 670.749 245.422 670.356 242.948C670.136 241.559 670.441 240.398 671.278 239.509C671.936 239.449 672.464 239.409 672.898 239.34L677.326 238.637ZM669.904 222.728C671.225 220.96 673.916 220.533 675.72 221.804C676.619 222.418 677.175 223.397 677.382 224.7C677.588 226.002 677.363 227.106 676.699 227.968C675.364 229.648 672.673 230.076 670.883 228.891C669.984 228.278 669.428 227.298 669.221 225.996C669.014 224.693 669.24 223.59 669.904 222.728ZM706.622 223.126C706.16 220.218 704.906 217.925 702.809 216.211C700.749 214.447 698.16 213.834 695.078 214.324C691.909 214.827 689.651 216.298 688.266 218.788C686.918 221.227 686.471 224.013 686.974 227.181C687.477 230.35 688.766 232.86 690.81 234.805C692.891 236.699 695.494 237.398 698.663 236.895C703.177 236.178 705.629 233.964 706.986 229.343L703.554 228.464C702.743 231.485 701.221 233.107 698.139 233.596C694.363 234.196 691.73 231.632 690.831 227.37L706.891 224.819L706.622 223.126ZM695.602 217.623C698.944 217.092 701.329 218.938 702.547 222.127L690.524 224.036C690.688 220.584 692.346 218.14 695.602 217.623ZM712.821 215.244L714.682 226.963C715.434 231.695 718.301 233.776 722.164 233.162C723.596 232.935 724.727 232.488 725.592 231.772L724.221 228.742C723.602 229.329 722.812 229.677 721.857 229.829C719.991 230.125 718.742 228.989 718.377 226.688L716.467 214.665L722.197 213.755L721.673 210.456L715.943 211.366L714.537 202.511L711.256 205.391L712.297 211.945L708.521 212.545L709.045 215.844L712.821 215.244ZM733.901 208.158C730.038 208.771 727.884 211.739 728.436 215.211C729.097 219.378 732.964 220.188 736.001 220.818C738.065 221.203 739.836 221.989 740.064 223.422C740.429 225.722 739.436 227.037 737.093 227.409C734.879 227.761 732.959 226.597 731.332 223.919L728.519 226.101C730.308 229.243 733.493 231.363 737.616 230.708C742.087 229.998 744.452 226.952 743.762 222.612C742.785 216.181 732.666 218.589 732.089 214.676C731.813 212.939 732.776 211.718 734.295 211.477C735.641 211.263 737.06 211.795 738.633 213.013L740.769 210.493C738.855 208.528 736.549 207.737 733.901 208.158ZM91.2365 380.088C91.9259 384.429 94.7495 386.517 98.7429 385.882C101.912 385.379 104.108 383.517 105.295 380.347L105.937 384.384L109.583 383.805L106.108 361.928L102.462 362.507L103.917 371.666C104.378 374.574 104.15 377.058 103.174 379.037C102.241 381.01 100.91 382.156 99.2173 382.425C96.6997 382.825 95.2066 381.549 94.7309 378.554L92.4352 364.1L88.7891 364.679L91.2365 380.088ZM126.937 381.404C133.187 380.412 135.943 375.346 134.868 368.575C133.792 361.803 129.603 357.841 123.352 358.833C120.748 359.247 118.27 361.02 117.454 362.885L117.027 360.194L113.381 360.773L118.261 391.504L121.908 390.925L120.088 379.466C120.589 380.099 121.56 380.612 122.922 381.063C124.284 381.514 125.635 381.611 126.937 381.404ZM123.529 362.187C127.349 361.581 130.383 364.436 131.135 369.168C131.886 373.899 129.886 377.554 126.066 378.161C122.116 378.788 119.212 375.912 118.46 371.181C117.709 366.449 119.579 362.815 123.529 362.187ZM147.849 354.943C141.599 355.935 138.843 361.001 139.919 367.772C140.994 374.544 145.184 378.506 151.434 377.514C154.039 377.1 156.516 375.327 157.332 373.462L157.76 376.153L161.406 375.574L156.525 344.843L152.879 345.422L154.699 356.881C154.198 356.248 153.226 355.735 151.864 355.284C150.502 354.833 149.152 354.736 147.849 354.943ZM151.258 374.16C147.438 374.766 144.403 371.911 143.652 367.179C142.9 362.448 144.901 358.793 148.721 358.186C152.67 357.559 155.575 360.435 156.326 365.166C157.078 369.898 155.207 373.532 151.258 374.16ZM169.909 367.771C169.516 365.297 171.423 363.57 175.112 362.984L179.019 362.363L179.101 362.884C179.467 365.185 179.128 366.974 178.085 368.252C177.042 369.53 175.692 370.279 174.043 370.541C171.742 370.906 170.24 369.854 169.909 367.771ZM182.058 357.964C181.176 352.409 177.406 350.248 172.328 351.055C168.204 351.71 165.488 354.5 165.509 358.279L168.839 358.507C168.978 356.304 170.551 354.719 172.852 354.354C176.02 353.85 177.867 355.115 178.343 358.11L178.495 359.064L174.936 359.63C168.815 360.602 165.439 363.719 166.176 368.364C166.887 372.834 170.053 374.557 174.003 373.929C176.998 373.454 179.075 371.966 180.316 369.411L181.413 372.396L184.278 371.941L182.058 357.964ZM189.461 352.072L191.323 363.791C192.074 368.522 194.941 370.604 198.804 369.99C200.237 369.763 201.367 369.316 202.233 368.6L200.861 365.569C200.243 366.157 199.452 366.505 198.497 366.657C196.631 366.953 195.382 365.816 195.017 363.516L193.107 351.493L198.837 350.583L198.313 347.284L192.583 348.194L191.177 339.339L187.896 342.218L188.937 348.773L185.161 349.373L185.685 352.671L189.461 352.072ZM223.828 353.511C223.366 350.603 222.112 348.31 220.015 346.596C217.955 344.832 215.366 344.219 212.284 344.709C209.115 345.212 206.857 346.683 205.472 349.173C204.124 351.612 203.677 354.397 204.18 357.566C204.683 360.735 205.972 363.245 208.016 365.189C210.097 367.084 212.7 367.783 215.869 367.28C220.383 366.563 222.835 364.349 224.193 359.728L220.76 358.849C219.949 361.87 218.427 363.491 215.345 363.981C211.569 364.581 208.936 362.017 208.037 357.754L224.097 355.204L223.828 353.511ZM212.808 348.008C216.15 347.477 218.535 349.323 219.753 352.512L207.73 354.421C207.894 350.969 209.553 348.525 212.808 348.008ZM236.95 340.791C230.7 341.784 227.944 346.85 229.02 353.621C230.095 360.392 234.284 364.355 240.535 363.362C243.139 362.949 245.617 361.176 246.433 359.31L246.86 362.002L250.507 361.422L245.626 330.691L241.98 331.27L243.8 342.729C243.299 342.097 242.327 341.584 240.965 341.132C239.603 340.681 238.252 340.584 236.95 340.791ZM240.358 360.008C236.539 360.615 233.504 357.759 232.753 353.028C232.001 348.297 234.002 344.641 237.821 344.035C241.771 343.407 244.676 346.284 245.427 351.015C246.178 355.746 244.308 359.381 240.358 360.008ZM280.172 357.067C286.422 356.074 289.178 351.008 288.102 344.237C287.027 337.466 282.837 333.503 276.587 334.496C273.982 334.909 271.505 336.682 270.689 338.548L270.261 335.856L266.615 336.436L271.496 367.167L275.142 366.588L273.322 355.129C273.823 355.761 274.795 356.274 276.157 356.725C277.519 357.177 278.869 357.274 280.172 357.067ZM276.763 337.85C280.583 337.243 283.618 340.099 284.369 344.83C285.121 349.561 283.12 353.216 279.3 353.823C275.351 354.451 272.446 351.574 271.695 346.843C270.943 342.112 272.814 338.477 276.763 337.85ZM312.802 339.38C312.34 336.471 311.086 334.179 308.989 332.465C306.929 330.7 304.339 330.088 301.258 330.577C298.089 331.081 295.831 332.552 294.446 335.041C293.098 337.481 292.65 340.266 293.153 343.435C293.657 346.603 294.945 349.113 296.99 351.058C299.071 352.953 301.674 353.652 304.842 353.148C309.357 352.432 311.809 350.218 313.166 345.596L309.734 344.718C308.923 347.739 307.4 349.36 304.319 349.85C300.542 350.449 297.91 347.886 297.01 343.623L313.071 341.072L312.802 339.38ZM301.782 333.876C305.124 333.345 307.509 335.192 308.727 338.38L296.704 340.29C296.867 336.837 298.526 334.393 301.782 333.876ZM329.874 326.7C328.981 326.397 327.948 326.338 326.776 326.524C324.345 326.911 321.873 328.994 321 331.625L320.407 327.892L316.761 328.471L320.235 350.348L323.881 349.769L322.565 341.478C322.034 338.136 322.228 335.435 323.147 333.375C324.066 331.316 325.347 330.134 326.996 329.872C327.907 329.727 328.767 329.813 329.653 330.073L329.874 326.7ZM337.785 347.56L341.431 346.981L337.957 325.105L334.311 325.684L337.785 347.56ZM332.434 319.752C332.675 321.271 334.033 322.257 335.596 322.009C337.159 321.76 338.144 320.402 337.903 318.883C337.655 317.32 336.29 316.291 334.727 316.539C333.165 316.788 332.186 318.189 332.434 319.752ZM349.594 342.659C351.899 344.562 354.589 345.247 357.758 344.744C360.926 344.241 363.271 342.756 364.83 340.239C366.431 337.715 366.959 334.872 366.469 331.79C365.98 328.709 364.604 326.212 362.3 324.309C360.038 322.399 357.341 321.67 354.173 322.173C351.004 322.676 348.666 324.205 347.064 326.729C345.506 329.246 344.971 332.045 345.461 335.127C345.95 338.209 347.333 340.748 349.594 342.659ZM350.084 328.652C351.044 326.853 352.57 325.81 354.697 325.472C356.824 325.134 358.597 325.654 360.024 327.073C361.488 328.443 362.392 330.213 362.736 332.383C363.081 334.554 362.77 336.517 361.81 338.316C360.886 340.064 359.361 341.108 357.234 341.445C355.107 341.783 353.333 341.264 351.87 339.894C350.443 338.474 349.539 336.704 349.194 334.534C348.849 332.364 349.16 330.401 350.084 328.652ZM379.46 318.157C373.21 319.15 370.454 324.215 371.53 330.987C372.605 337.758 376.795 341.721 383.045 340.728C385.65 340.314 388.127 338.541 388.943 336.676L389.371 339.367L393.017 338.788L388.136 308.057L384.49 308.636L386.31 320.095C385.809 319.463 384.837 318.949 383.475 318.498C382.113 318.047 380.763 317.95 379.46 318.157ZM382.869 337.374C379.049 337.981 376.014 335.125 375.263 330.394C374.511 325.662 376.512 322.007 380.332 321.401C384.282 320.773 387.186 323.649 387.937 328.381C388.689 333.112 386.818 336.747 382.869 337.374ZM399.969 337.684L403.615 337.105L400.141 315.228L396.495 315.807L399.969 337.684ZM394.618 309.875C394.859 311.395 396.217 312.38 397.78 312.132C399.343 311.884 400.328 310.526 400.087 309.007C399.839 307.444 398.474 306.415 396.911 306.663C395.349 306.911 394.37 308.313 394.618 309.875ZM424.202 326.67C423.458 329.548 421.675 331.21 418.853 331.659C414.817 332.3 412.122 329.346 411.378 324.658C410.633 319.97 412.28 316.326 416.316 315.685C419.138 315.237 421.348 316.266 422.948 318.771L425.909 316.965C423.489 313.211 420.133 311.697 415.792 312.386C412.624 312.89 410.322 314.368 408.937 316.857C407.589 319.296 407.142 322.082 407.645 325.251C408.148 328.419 409.437 330.929 411.481 332.874C413.562 334.769 416.209 335.461 419.377 334.957C423.718 334.268 426.439 331.789 427.578 327.469L424.202 326.67ZM435.855 325.532C435.462 323.058 437.368 321.331 441.058 320.745L444.964 320.124L445.047 320.645C445.413 322.946 445.074 324.735 444.031 326.013C442.988 327.291 441.638 328.04 439.989 328.302C437.688 328.667 436.186 327.615 435.855 325.532ZM448.004 315.726C447.121 310.17 443.352 308.009 438.273 308.816C434.15 309.471 431.433 312.261 431.455 316.04L434.784 316.268C434.924 314.065 436.497 312.48 438.797 312.115C441.966 311.611 443.813 312.876 444.289 315.871L444.441 316.826L440.881 317.391C434.761 318.363 431.385 321.48 432.122 326.125C432.832 330.595 435.998 332.318 439.948 331.69C442.943 331.215 445.021 329.728 446.262 327.172L447.359 330.157L450.224 329.702L448.004 315.726ZM456.809 328.656L460.455 328.077L455.574 297.346L451.928 297.925L456.809 328.656ZM467.661 326.933L471.307 326.354L466.426 295.622L462.78 296.201L467.661 326.933ZM484.604 318.012L476.539 303.094L472.545 303.729L483.558 323.473L481.636 333.791L485.369 333.198L491.34 300.744L487.52 301.35L484.604 318.012Z" fill="black"/>
</g>
</g>
<defs>
<filter id="filter0_d_8_6" x="0" y="0" width="987.842" height="457" filterUnits="userSpaceOnUse" color-interpolation-filters="sRGB">
<feFlood flood-opacity="0" result="BackgroundImageFix"/>
<feColorMatrix in="SourceAlpha" type="matrix" values="0 0 0 0 0 0 0 0 0 0 0 0 0 0 0 0 0 0 127 0" result="hardAlpha"/>
<feOffset dy="2"/>
<feGaussianBlur stdDeviation="1"/>
<feComposite in2="hardAlpha" operator="out"/>
<feColorMatrix type="matrix" values="0 0 0 0 0 0 0 0 0 0 0 0 0 0 0 0 0 0 0.25 0"/>
<feBlend mode="normal" in2="BackgroundImageFix" result="effect1_dropShadow_8_6"/>
<feBlend mode="normal" in="SourceGraphic" in2="effect1_dropShadow_8_6" result="shape"/>
</filter>
<clipPath id="clip0_8_6">
<rect x="2.00151" y="148.579" width="947.215" height="308.233" rx="12" transform="rotate(-9.02465 2.00151 148.579)" fill="white"/>
</clipPath>
</defs>
</svg>
