<svg width="925" height="447" viewBox="0 0 925 447" fill="none" xmlns="http://www.w3.org/2000/svg">
<g filter="url(#filter0_d_8_6)">
<g clip-path="url(#clip0_8_6)">
<rect x="2.00066" y="138.602" width="883.608" height="308.101" rx="12" transform="rotate(-9.02465 2.00066 138.602)" fill="white"/>
<path d="M68.7142 191.764L72.9591 218.49L76.7772 217.884L72.5323 191.157L81.2966 189.765L80.7177 186.121L59.3712 189.511L59.95 193.156L68.7142 191.764ZM105.451 197.761C104.727 193.206 101.948 191.111 97.913 191.752C94.5722 192.283 91.9774 194.43 91.0231 197.384L88.9696 184.454L85.325 185.033L90.2039 215.751L93.8484 215.173L92.3737 205.888C91.9189 203.024 92.2045 200.621 93.267 198.629C94.3295 196.636 95.7467 195.477 97.4388 195.208C99.9553 194.809 101.448 196.084 101.923 199.078L104.218 213.526L107.863 212.947L105.451 197.761ZM131.288 197.083C130.826 194.176 129.572 191.884 127.476 190.171C125.417 188.407 122.829 187.795 119.748 188.284C116.581 188.787 114.324 190.258 112.94 192.746C111.592 195.184 111.145 197.969 111.648 201.136C112.151 204.303 113.439 206.812 115.482 208.756C117.562 210.65 120.164 211.349 123.332 210.846C127.844 210.129 130.295 207.916 131.652 203.297L128.221 202.418C127.41 205.438 125.888 207.059 122.808 207.548C119.033 208.148 116.402 205.585 115.503 201.324L131.556 198.775L131.288 197.083ZM120.272 191.582C123.613 191.051 125.997 192.897 127.215 196.084L115.196 197.993C115.36 194.542 117.018 192.099 120.272 191.582ZM160.998 204.863C167.246 203.871 170 198.807 168.925 192.039C167.85 185.271 163.663 181.31 157.415 182.302C154.812 182.715 152.335 184.488 151.519 186.352L151.092 183.662L147.448 184.241L152.326 214.959L155.971 214.38L154.152 202.926C154.653 203.558 155.624 204.071 156.985 204.522C158.347 204.973 159.697 205.07 160.998 204.863ZM157.592 185.654C161.41 185.048 164.443 187.902 165.194 192.632C165.945 197.361 163.946 201.015 160.127 201.621C156.179 202.248 153.276 199.373 152.525 194.644C151.774 189.915 153.643 186.282 157.592 185.654ZM185.766 178.466C184.873 178.163 183.84 178.105 182.669 178.291C180.239 178.677 177.768 180.76 176.895 183.389L176.303 179.658L172.658 180.237L176.131 202.104L179.776 201.525L178.459 193.238C177.929 189.897 178.123 187.198 179.041 185.139C179.96 183.08 181.24 181.898 182.889 181.637C183.8 181.492 184.659 181.578 185.545 181.837L185.766 178.466ZM209.461 184.667C208.999 181.76 207.746 179.468 205.65 177.755C203.59 175.991 201.002 175.379 197.922 175.868C194.754 176.371 192.497 177.842 191.113 180.33C189.765 182.768 189.318 185.553 189.821 188.72C190.324 191.887 191.612 194.396 193.656 196.34C195.736 198.234 198.338 198.933 201.505 198.43C206.017 197.713 208.468 195.5 209.825 190.881L206.394 190.002C205.584 193.022 204.062 194.643 200.981 195.132C197.207 195.732 194.576 193.169 193.676 188.909L209.73 186.359L209.461 184.667ZM198.445 179.166C201.786 178.635 204.17 180.481 205.388 183.668L193.37 185.577C193.533 182.126 195.191 179.683 198.445 179.166ZM219.95 172.37C216.089 172.983 213.935 175.949 214.487 179.42C215.148 183.586 219.013 184.395 222.049 185.025C224.112 185.409 225.882 186.195 226.11 187.627C226.475 189.927 225.483 191.241 223.14 191.613C220.927 191.964 219.007 190.801 217.381 188.124L214.569 190.305C216.358 193.446 219.542 195.565 223.663 194.91C228.132 194.201 230.496 191.156 229.807 186.818C228.83 180.389 218.715 182.797 218.138 178.885C217.862 177.149 218.825 175.929 220.344 175.688C221.689 175.474 223.107 176.005 224.68 177.223L226.815 174.704C224.902 172.74 222.597 171.949 219.95 172.37ZM253.357 177.695C252.895 174.788 251.641 172.496 249.546 170.783C247.486 169.019 244.898 168.407 241.818 168.897C238.65 169.4 236.393 170.87 235.009 173.359C233.661 175.797 233.214 178.581 233.717 181.748C234.22 184.916 235.508 187.425 237.552 189.369C239.632 191.262 242.234 191.961 245.401 191.458C249.913 190.741 252.364 188.528 253.721 183.909L250.29 183.031C249.48 186.051 247.958 187.671 244.877 188.161C241.102 188.76 238.471 186.198 237.572 181.937L253.626 179.387L253.357 177.695ZM242.341 172.194C245.682 171.663 248.066 173.509 249.284 176.696L237.265 178.605C237.429 175.154 239.087 172.711 242.341 172.194ZM276.33 170.399C275.641 166.06 272.819 163.973 268.827 164.607C265.66 165.11 263.464 166.971 262.277 170.14L261.637 166.105L257.992 166.684L261.465 188.551L265.11 187.972L263.656 178.817C263.194 175.91 263.422 173.427 264.355 171.456C265.33 169.477 266.661 168.331 268.353 168.063C270.869 167.663 272.362 168.938 272.837 171.932L275.132 186.38L278.777 185.801L276.33 170.399ZM284.297 165.886L286.158 177.601C286.909 182.33 289.775 184.41 293.636 183.797C295.068 183.57 296.198 183.123 297.063 182.408L295.692 179.378C295.074 179.966 294.284 180.313 293.33 180.465C291.464 180.761 290.216 179.625 289.851 177.326L287.942 165.307L293.669 164.398L293.145 161.1L287.418 162.01L286.012 153.159L282.733 156.037L283.774 162.589L279.999 163.188L280.523 166.486L284.297 165.886ZM303.862 175.367C303.469 172.894 305.374 171.168 309.062 170.582L312.967 169.962L313.05 170.483C313.415 172.782 313.076 174.571 312.034 175.849C310.991 177.126 309.642 177.874 307.993 178.136C305.694 178.501 304.192 177.45 303.862 175.367ZM316.005 165.565C315.123 160.012 311.355 157.852 306.279 158.658C302.157 159.313 299.442 162.102 299.464 165.879L302.791 166.107C302.931 163.905 304.503 162.321 306.803 161.956C309.97 161.453 311.816 162.716 312.292 165.71L312.443 166.665L308.886 167.23C302.768 168.201 299.393 171.317 300.13 175.96C300.84 180.429 304.005 182.15 307.953 181.523C310.947 181.048 313.024 179.561 314.264 177.007L315.361 179.991L318.224 179.536L316.005 165.565ZM323.405 159.675L325.266 171.389C326.017 176.119 328.883 178.199 332.744 177.586C334.176 177.358 335.306 176.912 336.171 176.196L334.8 173.167C334.182 173.754 333.392 174.102 332.437 174.254C330.572 174.55 329.324 173.414 328.959 171.114L327.05 159.096L332.777 158.186L332.253 154.889L326.526 155.799L325.12 146.948L321.841 149.826L322.882 156.377L319.107 156.977L319.631 160.274L323.405 159.675ZM341.843 175.785L345.487 175.206L342.014 153.339L338.37 153.917L341.843 175.785ZM336.494 147.988C336.735 149.507 338.093 150.492 339.655 150.244C341.216 149.996 342.202 148.638 341.961 147.12C341.713 145.558 340.348 144.529 338.786 144.777C337.224 145.025 336.246 146.426 336.494 147.988ZM353.647 170.885C355.951 172.788 358.639 173.473 361.807 172.97C364.974 172.467 367.318 170.982 368.876 168.466C370.477 165.944 371.004 163.102 370.515 160.021C370.025 156.941 368.651 154.446 366.347 152.543C364.086 150.634 361.391 149.905 358.223 150.408C355.056 150.911 352.719 152.439 351.118 154.962C349.56 157.478 349.026 160.276 349.515 163.357C350.005 166.437 351.386 168.976 353.647 170.885ZM354.136 156.885C355.096 155.086 356.621 154.043 358.747 153.706C360.873 153.368 362.646 153.887 364.072 155.307C365.535 156.676 366.439 158.445 366.783 160.614C367.128 162.783 366.817 164.746 365.857 166.544C364.934 168.292 363.409 169.335 361.283 169.672C359.157 170.01 357.384 169.491 355.921 168.122C354.495 166.703 353.591 164.933 353.247 162.764C352.902 160.595 353.213 158.633 354.136 156.885ZM393.146 151.845C392.457 147.507 389.634 145.42 385.642 146.054C382.475 146.557 380.28 148.418 379.093 151.586L378.452 147.551L374.807 148.13L378.28 169.997L381.925 169.419L380.471 160.264C380.009 157.357 380.238 154.874 381.17 152.902C382.146 150.924 383.476 149.778 385.168 149.509C387.685 149.11 389.177 150.385 389.653 153.379L391.947 167.827L395.592 167.248L393.146 151.845ZM414.974 164.17L418.619 163.591L415.146 141.724L411.501 142.302L414.974 164.17ZM409.625 136.373C409.866 137.891 411.224 138.877 412.786 138.629C414.348 138.381 415.333 137.023 415.092 135.505C414.844 133.943 413.48 132.914 411.918 133.162C410.356 133.41 409.377 134.811 409.625 136.373ZM428.412 139.261C424.551 139.874 422.398 142.84 422.949 146.311C423.611 150.476 427.476 151.286 430.511 151.916C432.574 152.3 434.345 153.086 434.572 154.518C434.937 156.818 433.945 158.132 431.602 158.504C429.389 158.855 427.47 157.692 425.844 155.015L423.032 157.196C424.821 160.337 428.004 162.456 432.126 161.801C436.595 161.092 438.958 158.047 438.269 153.709C437.293 147.28 427.177 149.688 426.6 145.776C426.325 144.04 427.287 142.82 428.806 142.579C430.151 142.365 431.57 142.896 433.142 144.114L435.278 141.595C433.364 139.631 431.059 138.84 428.412 139.261ZM455.22 138.739L457.08 150.454C457.831 155.183 460.697 157.263 464.559 156.65C465.99 156.423 467.121 155.976 467.985 155.261L466.615 152.231C465.996 152.819 465.206 153.167 464.252 153.318C462.386 153.615 461.138 152.478 460.773 150.179L458.864 138.161L464.591 137.251L464.068 133.953L458.34 134.863L456.935 126.012L453.655 128.89L454.696 135.442L450.921 136.041L451.445 139.339L455.22 138.739ZM488.649 136.9C487.925 132.344 485.146 130.25 481.111 130.891C477.77 131.421 475.175 133.568 474.221 136.522L472.168 123.593L468.523 124.172L473.402 154.89L477.047 154.311L475.572 145.026C475.117 142.162 475.403 139.76 476.465 137.767C477.528 135.775 478.945 134.615 480.637 134.347C483.153 133.947 484.646 135.222 485.121 138.216L487.416 152.664L491.061 152.085L488.649 136.9ZM514.486 136.221C514.024 133.314 512.77 131.022 510.675 129.309C508.615 127.545 506.027 126.933 502.946 127.423C499.779 127.926 497.522 129.396 496.138 131.885C494.79 134.323 494.343 137.107 494.846 140.275C495.349 143.442 496.637 145.951 498.68 147.895C500.761 149.788 503.363 150.487 506.53 149.984C511.042 149.267 513.493 147.054 514.85 142.435L511.419 141.557C510.608 144.577 509.087 146.197 506.006 146.687C502.231 147.286 499.6 144.724 498.701 140.463L514.754 137.913L514.486 136.221ZM503.47 130.72C506.811 130.19 509.195 132.035 510.413 135.222L498.394 137.131C498.558 133.68 500.216 131.237 503.47 130.72ZM537.459 128.925C536.77 124.586 533.948 122.499 529.956 123.133C526.789 123.636 524.593 125.497 523.406 128.666L522.766 124.631L519.121 125.21L522.594 147.077L526.239 146.498L524.785 137.343C524.323 134.436 524.551 131.954 525.484 129.982C526.459 128.003 527.79 126.858 529.482 126.589C531.998 126.189 533.491 127.464 533.966 130.458L536.261 144.906L539.906 144.327L537.459 128.925ZM556.801 126.431C557.097 128.297 557.873 129.819 559.164 130.949C557.53 132.142 556.876 133.625 557.159 135.404C557.393 136.879 558.056 137.975 559.185 138.641C558.026 140.026 557.573 141.655 557.869 143.52C558.586 148.033 562.701 150.137 568.298 149.248C573.678 148.393 577.147 145.307 576.341 140.231C575.727 136.369 572.693 134.627 568.528 135.289L563.364 136.109C561.716 136.371 560.795 135.894 560.602 134.679C560.45 133.725 560.817 132.955 561.696 132.326C562.863 132.674 564.163 132.735 565.595 132.507C567.808 132.156 569.526 131.216 570.752 129.687C571.97 128.114 572.425 126.218 572.073 124.005C571.832 122.487 571.278 121.24 570.362 120.23L573.05 118.112L570.926 115.38L567.372 118.213C566.054 117.755 564.704 117.658 563.273 117.886C561.06 118.237 559.348 119.221 558.13 120.793C556.911 122.366 556.45 124.218 556.801 126.431ZM568.46 138.502C570.933 138.109 572.32 139.001 572.664 141.171C573.043 143.557 571.433 145.458 567.788 146.037C564.144 146.616 561.886 145.284 561.493 142.811C561.273 141.423 561.578 140.262 562.415 139.373C563.073 139.313 563.6 139.274 564.034 139.205L568.46 138.502ZM561.041 122.599C562.362 120.833 565.052 120.406 566.855 121.676C567.753 122.29 568.309 123.269 568.516 124.571C568.722 125.872 568.497 126.975 567.833 127.837C566.499 129.517 563.809 129.944 562.019 128.76C561.121 128.147 560.565 127.168 560.359 125.866C560.152 124.564 560.377 123.461 561.041 122.599ZM597.744 122.998C597.282 120.091 596.028 117.799 593.932 116.086C591.873 114.322 589.285 113.71 586.204 114.199C583.037 114.702 580.78 116.173 579.396 118.661C578.048 121.099 577.601 123.884 578.104 127.051C578.607 130.218 579.895 132.727 581.938 134.671C584.018 136.565 586.62 137.264 589.788 136.761C594.3 136.044 596.751 133.831 598.108 129.212L594.677 128.333C593.866 131.353 592.344 132.974 589.264 133.463C585.489 134.063 582.858 131.5 581.959 127.239L598.012 124.69L597.744 122.998ZM586.728 117.497C590.069 116.966 592.453 118.812 593.671 121.999L581.652 123.908C581.816 120.456 583.474 118.013 586.728 117.497ZM620.717 115.701C620.028 111.363 617.206 109.275 613.214 109.909C610.047 110.412 607.851 112.273 606.664 115.442L606.023 111.407L602.379 111.986L605.852 133.853L609.496 133.274L608.042 124.12C607.581 121.213 607.809 118.73 608.742 116.758C609.717 114.779 611.048 113.634 612.74 113.365C615.256 112.966 616.749 114.241 617.224 117.235L619.519 131.683L623.163 131.104L620.717 115.701ZM646.639 115.232C646.177 112.325 644.924 110.033 642.828 108.32C640.768 106.556 638.18 105.944 635.1 106.433C631.933 106.936 629.675 108.407 628.291 110.895C626.944 113.333 626.496 116.118 626.999 119.285C627.502 122.452 628.79 124.961 630.834 126.905C632.914 128.799 635.516 129.498 638.683 128.995C643.195 128.278 645.646 126.065 647.003 121.446L643.572 120.567C642.762 123.587 641.24 125.208 638.159 125.697C634.385 126.297 631.754 123.734 630.855 119.474L646.908 116.924L646.639 115.232ZM635.624 109.731C638.964 109.2 641.348 111.046 642.566 114.233L630.548 116.142C630.711 112.691 632.369 110.248 635.624 109.731ZM663.704 102.557C662.811 102.255 661.779 102.196 660.607 102.382C658.177 102.768 655.706 104.851 654.834 107.48L654.241 103.749L650.596 104.328L654.069 126.195L657.714 125.616L656.398 117.329C655.867 113.989 656.061 111.289 656.98 109.23C657.898 107.172 659.178 105.99 660.827 105.728C661.738 105.583 662.597 105.669 663.483 105.929L663.704 102.557ZM672.696 116.787C672.304 114.314 674.209 112.588 677.897 112.002L681.802 111.382L681.884 111.902C682.25 114.202 681.911 115.991 680.868 117.268C679.826 118.546 678.477 119.294 676.828 119.556C674.529 119.921 673.027 118.869 672.696 116.787ZM684.84 106.985C683.958 101.431 680.19 99.2719 675.113 100.078C670.992 100.733 668.276 103.522 668.298 107.299L671.626 107.527C671.765 105.325 673.338 103.741 675.637 103.376C678.804 102.873 680.651 104.136 681.126 107.13L681.278 108.084L677.72 108.649C671.603 109.621 668.228 112.737 668.965 117.38C669.675 121.848 672.839 123.57 676.788 122.943C679.781 122.467 681.858 120.981 683.099 118.426L684.195 121.41L687.059 120.956L684.84 106.985ZM692.24 101.095L694.1 112.809C694.852 117.538 697.717 119.619 701.579 119.005C703.011 118.778 704.141 118.332 705.006 117.616L703.635 114.586C703.016 115.174 702.227 115.522 701.272 115.673C699.406 115.97 698.158 114.834 697.793 112.534L695.884 100.516L701.611 99.6061L701.088 96.3086L695.361 97.2183L693.955 88.3672L690.676 91.2456L691.716 97.7971L687.941 98.3966L688.465 101.694L692.24 101.095ZM726.592 102.533C726.13 99.6263 724.877 97.3344 722.781 95.6211C720.722 93.8575 718.133 93.2455 715.053 93.7348C711.886 94.2378 709.628 95.7084 708.244 98.1968C706.897 100.635 706.449 103.419 706.952 106.587C707.455 109.754 708.743 112.263 710.787 114.207C712.867 116.1 715.469 116.799 718.636 116.296C723.148 115.58 725.599 113.367 726.956 108.747L723.525 107.869C722.715 110.889 721.193 112.509 718.112 112.999C714.338 113.598 711.707 111.036 710.808 106.775L726.861 104.225L726.592 102.533ZM715.577 97.0322C718.917 96.5016 721.301 98.3471 722.519 101.534L710.501 103.443C710.664 99.992 712.322 97.549 715.577 97.0322ZM739.708 89.8189C733.461 90.8112 730.706 95.8747 731.781 102.643C732.856 109.412 737.044 113.373 743.292 112.38C745.895 111.967 748.371 110.195 749.187 108.33L749.614 111.02L753.259 110.441L748.38 79.7231L744.736 80.302L746.555 91.7562C746.054 91.124 745.083 90.611 743.721 90.1601C742.36 89.7091 741.01 89.6121 739.708 89.8189ZM743.115 109.028C739.297 109.634 736.264 106.78 735.513 102.051C734.761 97.3213 736.761 93.6676 740.579 93.0612C744.527 92.4341 747.431 95.3091 748.182 100.038C748.933 104.768 747.063 108.401 743.115 109.028ZM77.0221 265.077C76.6294 262.604 78.5348 260.878 82.2227 260.292L86.1276 259.672L86.2103 260.193C86.5755 262.492 86.2368 264.281 85.1943 265.558C84.1517 266.836 82.8026 267.584 81.1539 267.846C78.8544 268.211 77.3529 267.16 77.0221 265.077ZM89.1657 255.275C88.2837 249.722 84.5156 247.562 79.4393 248.368C75.3175 249.023 72.6022 251.812 72.6239 255.589L75.9517 255.817C76.0913 253.615 77.6635 252.031 79.963 251.666C83.1303 251.163 84.9768 252.426 85.4523 255.42L85.6039 256.375L82.0461 256.94C75.9285 257.911 72.5535 261.027 73.2908 265.67C74.0006 270.139 77.1653 271.86 81.1136 271.233C84.1073 270.757 86.1843 269.271 87.4244 266.717L88.5211 269.701L91.3846 269.246L89.1657 255.275ZM96.767 261.763C97.4561 266.102 100.279 268.189 104.27 267.555C107.437 267.052 109.633 265.191 110.82 262.022L111.461 266.057L115.105 265.478L111.632 243.611L107.988 244.19L109.442 253.345C109.903 256.252 109.675 258.734 108.699 260.713C107.767 262.685 106.437 263.83 104.744 264.099C102.228 264.499 100.735 263.224 100.26 260.23L97.9652 245.782L94.3207 246.361L96.767 261.763ZM121.141 245.482L123.001 257.196C123.752 261.925 126.618 264.006 130.48 263.392C131.911 263.165 133.041 262.719 133.906 262.003L132.536 258.974C131.917 259.561 131.127 259.909 130.173 260.061C128.307 260.357 127.059 259.221 126.694 256.921L124.785 244.903L130.512 243.993L129.988 240.696L124.261 241.605L122.856 232.754L119.576 235.633L120.617 242.184L116.842 242.784L117.366 246.081L121.141 245.482ZM139.984 258.502C142.288 260.405 144.977 261.09 148.144 260.587C151.312 260.084 153.656 258.599 155.213 256.083C156.814 253.561 157.342 250.719 156.852 247.638C156.363 244.558 154.988 242.063 152.684 240.16C150.424 238.251 147.728 237.522 144.561 238.025C141.394 238.528 139.056 240.056 137.455 242.579C135.898 245.095 135.364 247.893 135.853 250.974C136.342 254.054 137.724 256.593 139.984 258.502ZM140.474 244.502C141.434 242.703 142.959 241.66 145.085 241.323C147.211 240.985 148.983 241.504 150.41 242.924C151.873 244.293 152.776 246.062 153.121 248.231C153.466 250.4 153.154 252.363 152.195 254.161C151.271 255.909 149.747 256.952 147.621 257.289C145.495 257.627 143.722 257.108 142.259 255.739C140.832 254.32 139.929 252.55 139.584 250.381C139.24 248.212 139.551 246.25 140.474 244.502ZM191.592 237.539C190.91 233.244 188.298 231.079 184.349 231.706C181.226 232.202 179.08 234.1 177.958 237.392C176.802 234.595 174.37 233.291 171.377 233.766C168.296 234.256 166.274 236.089 165.261 239.23L164.62 235.195L160.975 235.774L164.449 257.641L168.093 257.063L166.667 248.081C165.695 241.964 167.605 237.746 170.902 237.222C173.245 236.85 174.644 238.096 175.099 240.959L177.421 255.581L181.066 255.002L179.639 246.021C178.668 239.903 180.578 235.686 183.875 235.162C186.218 234.79 187.617 236.035 188.072 238.899L190.394 253.521L194.039 252.942L191.592 237.539ZM202.778 245.104C202.385 242.631 204.29 240.905 207.978 240.319L211.883 239.699L211.966 240.22C212.331 242.519 211.992 244.308 210.95 245.585C209.907 246.863 208.558 247.611 206.909 247.873C204.61 248.238 203.108 247.187 202.778 245.104ZM214.921 235.302C214.039 229.748 210.271 227.589 205.195 228.395C201.073 229.05 198.358 231.839 198.379 235.616L201.707 235.844C201.847 233.642 203.419 232.058 205.718 231.693C208.886 231.19 210.732 232.453 211.208 235.447L211.359 236.401L207.802 236.966C201.684 237.938 198.309 241.054 199.046 245.697C199.756 250.165 202.921 251.887 206.869 251.26C209.863 250.784 211.94 249.298 213.18 246.743L214.276 249.727L217.14 249.273L214.921 235.302ZM222.321 229.412L224.182 241.126C224.933 245.855 227.799 247.936 231.66 247.322C233.092 247.095 234.222 246.649 235.087 245.933L233.716 242.903C233.098 243.491 232.308 243.839 231.353 243.99C229.488 244.287 228.24 243.151 227.874 240.851L225.966 228.833L231.693 227.923L231.169 224.626L225.442 225.535L224.036 216.684L220.757 219.563L221.797 226.114L218.023 226.714L218.546 230.011L222.321 229.412ZM240.759 245.521L244.403 244.943L240.93 223.075L237.286 223.654L240.759 245.521ZM235.41 217.725C235.651 219.243 237.008 220.229 238.57 219.981C240.132 219.732 241.118 218.375 240.877 216.856C240.628 215.294 239.264 214.266 237.702 214.514C236.14 214.762 235.162 216.163 235.41 217.725ZM264.981 234.513C264.237 237.389 262.455 239.051 259.635 239.499C255.6 240.14 252.907 237.187 252.162 232.501C251.418 227.815 253.064 224.173 257.099 223.532C259.919 223.084 262.128 224.112 263.727 226.616L266.688 224.812C264.268 221.059 260.914 219.546 256.575 220.235C253.408 220.738 251.107 222.215 249.723 224.704C248.375 227.142 247.928 229.926 248.431 233.093C248.934 236.261 250.222 238.77 252.266 240.714C254.346 242.607 256.991 243.299 260.158 242.796C264.497 242.107 267.217 239.629 268.355 235.311L264.981 234.513ZM276.629 233.374C276.236 230.901 278.142 229.175 281.83 228.59L285.735 227.969L285.817 228.49C286.183 230.79 285.844 232.578 284.801 233.856C283.759 235.133 282.41 235.881 280.761 236.143C278.461 236.508 276.96 235.457 276.629 233.374ZM288.773 223.572C287.891 218.019 284.123 215.859 279.046 216.666C274.925 217.32 272.209 220.109 272.231 223.887L275.559 224.114C275.698 221.912 277.271 220.328 279.57 219.963C282.737 219.46 284.584 220.724 285.059 223.717L285.211 224.672L281.653 225.237C275.536 226.209 272.161 229.325 272.898 233.967C273.608 238.436 276.772 240.157 280.721 239.53C283.714 239.055 285.791 237.568 287.031 235.014L288.128 237.998L290.992 237.543L288.773 223.572ZM297.574 236.498L301.219 235.919L296.34 205.201L292.696 205.779L297.574 236.498ZM308.421 234.775L312.066 234.196L307.187 203.478L303.542 204.057L308.421 234.775ZM325.357 225.858L317.295 210.947L313.304 211.581L324.311 231.317L322.391 241.63L326.122 241.038L332.09 208.597L328.272 209.203L325.357 225.858ZM369.013 219.947L362.051 203.838L358.406 204.417L356.778 221.89L349.642 205.809L345.824 206.416L355.935 227.228L359.406 226.677L361.062 209.378L367.997 225.313L371.468 224.761L374.633 201.84L370.815 202.446L369.013 219.947ZM383.039 222.924L386.683 222.345L383.21 200.478L379.566 201.057L383.039 222.924ZM377.69 195.127C377.931 196.646 379.288 197.631 380.85 197.383C382.412 197.135 383.398 195.777 383.156 194.259C382.908 192.697 381.544 191.668 379.982 191.916C378.42 192.164 377.442 193.565 377.69 195.127ZM392.481 202.386L394.341 214.1C395.092 218.83 397.958 220.91 401.82 220.297C403.252 220.069 404.382 219.623 405.247 218.907L403.876 215.878C403.257 216.465 402.467 216.813 401.513 216.965C399.647 217.261 398.399 216.125 398.034 213.825L396.125 201.807L401.852 200.897L401.329 197.6L395.602 198.51L394.196 189.659L390.916 192.537L391.957 199.088L388.182 199.688L388.706 202.985L392.481 202.386ZM425.91 200.546C425.186 195.99 422.407 193.896 418.372 194.537C415.031 195.068 412.437 197.215 411.482 200.169L409.429 187.239L405.784 187.818L410.663 218.536L414.308 217.957L412.833 208.673C412.378 205.809 412.664 203.406 413.726 201.414C414.789 199.421 416.206 198.262 417.898 197.993C420.414 197.593 421.907 198.869 422.382 201.862L424.677 216.31L428.322 215.732L425.91 200.546ZM445.571 193.954L447.431 205.668C448.183 210.398 451.048 212.478 454.91 211.865C456.342 211.637 457.472 211.191 458.337 210.475L456.966 207.446C456.348 208.033 455.558 208.381 454.603 208.533C452.737 208.829 451.489 207.693 451.124 205.393L449.215 193.375L454.943 192.465L454.419 189.168L448.692 190.078L447.286 181.227L444.007 184.105L445.047 190.656L441.272 191.256L441.796 194.553L445.571 193.954ZM479 192.114C478.276 187.558 475.497 185.464 471.462 186.105C468.122 186.636 465.527 188.783 464.572 191.737L462.519 178.807L458.874 179.386L463.753 210.104L467.398 209.525L465.923 200.24C465.468 197.377 465.754 194.974 466.816 192.982C467.879 190.989 469.296 189.83 470.988 189.561C473.505 189.161 474.997 190.437 475.473 193.43L477.767 207.878L481.412 207.3L479 192.114ZM504.837 191.436C504.375 188.529 503.122 186.237 501.026 184.523C498.966 182.76 496.378 182.148 493.298 182.637C490.13 183.14 487.873 184.611 486.489 187.099C485.141 189.537 484.694 192.322 485.197 195.489C485.7 198.656 486.988 201.165 489.032 203.109C491.112 205.003 493.714 205.702 496.881 205.199C501.393 204.482 503.844 202.269 505.201 197.65L501.77 196.771C500.96 199.791 499.438 201.412 496.357 201.901C492.583 202.501 489.952 199.938 489.052 195.677L505.106 193.128L504.837 191.436ZM493.821 185.935C497.162 185.404 499.546 187.249 500.764 190.437L488.746 192.345C488.909 188.894 490.567 186.451 493.821 185.935ZM537.635 191.208C536.891 194.084 535.109 195.746 532.288 196.194C528.253 196.835 525.56 193.882 524.816 189.196C524.072 184.511 525.718 180.869 529.753 180.228C532.573 179.78 534.782 180.808 536.381 183.312L539.341 181.507C536.922 177.755 533.568 176.241 529.229 176.93C526.062 177.433 523.761 178.911 522.377 181.399C521.029 183.837 520.582 186.622 521.085 189.789C521.588 192.956 522.876 195.465 524.919 197.409C527 199.303 529.645 199.995 532.812 199.492C537.151 198.803 539.871 196.324 541.009 192.007L537.635 191.208ZM548.732 193.583C551.036 195.485 553.724 196.17 556.892 195.667C560.059 195.164 562.403 193.68 563.961 191.164C565.562 188.641 566.089 185.799 565.6 182.719C565.111 179.638 563.736 177.143 561.432 175.241C559.171 173.331 556.476 172.603 553.308 173.106C550.141 173.609 547.804 175.137 546.203 177.66C544.645 180.175 544.111 182.974 544.6 186.054C545.09 189.135 546.471 191.673 548.732 193.583ZM549.222 179.582C550.182 177.784 551.706 176.741 553.832 176.403C555.958 176.066 557.731 176.585 559.157 178.004C560.62 179.373 561.524 181.142 561.869 183.312C562.213 185.481 561.902 187.443 560.942 189.241C560.019 190.989 558.494 192.032 556.368 192.37C554.242 192.708 552.469 192.188 551.006 190.819C549.58 189.4 548.676 187.631 548.332 185.462C547.987 183.292 548.298 181.33 549.222 179.582ZM588.231 174.543C587.542 170.204 584.719 168.117 580.728 168.751C577.56 169.254 575.365 171.115 574.178 174.284L573.537 170.249L569.892 170.828L573.366 192.695L577.01 192.116L575.556 182.961C575.094 180.054 575.323 177.572 576.255 175.6C577.231 173.621 578.561 172.476 580.253 172.207C582.77 171.807 584.262 173.083 584.738 176.076L587.033 190.524L590.677 189.945L588.231 174.543ZM596.198 170.03L598.058 181.745C598.809 186.474 601.675 188.555 605.537 187.941C606.969 187.714 608.099 187.267 608.964 186.552L607.593 183.522C606.974 184.11 606.184 184.458 605.23 184.609C603.364 184.906 602.116 183.769 601.751 181.47L599.842 169.452L605.569 168.542L605.046 165.245L599.319 166.154L597.913 157.303L594.633 160.182L595.674 166.733L591.899 167.333L592.423 170.63L596.198 170.03ZM630.55 171.469C630.088 168.562 628.835 166.27 626.739 164.557C624.679 162.793 622.091 162.181 619.011 162.671C615.843 163.174 613.586 164.644 612.202 167.133C610.854 169.571 610.407 172.355 610.91 175.523C611.413 178.69 612.701 181.199 614.745 183.143C616.825 185.036 619.427 185.735 622.594 185.232C627.106 184.515 629.557 182.302 630.914 177.683L627.483 176.805C626.673 179.825 625.151 181.445 622.07 181.935C618.296 182.534 615.665 179.972 614.765 175.711L630.819 173.161L630.55 171.469ZM619.534 165.968C622.875 165.438 625.259 167.283 626.477 170.47L614.459 172.379C614.622 168.928 616.28 166.485 619.534 165.968ZM653.524 164.173C652.834 159.834 650.012 157.747 646.02 158.381C642.853 158.884 640.658 160.745 639.471 163.914L638.83 159.879L635.185 160.458L638.658 182.325L642.303 181.746L640.849 172.591C640.387 169.684 640.616 167.202 641.548 165.23C642.524 163.251 643.854 162.106 645.546 161.837C648.063 161.437 649.555 162.712 650.031 165.706L652.325 180.154L655.97 179.575L653.524 164.173ZM661.491 159.66L663.351 171.375C664.102 176.104 666.968 178.184 670.83 177.571C672.261 177.344 673.391 176.897 674.256 176.182L672.886 173.152C672.267 173.74 671.477 174.088 670.523 174.239C668.657 174.535 667.409 173.399 667.044 171.1L665.135 159.081L670.862 158.172L670.339 154.874L664.611 155.784L663.206 146.933L659.926 149.811L660.967 156.363L657.192 156.962L657.716 160.26L661.491 159.66ZM682.562 152.577C678.701 153.19 676.547 156.157 677.099 159.628C677.76 163.793 681.625 164.603 684.661 165.232C686.724 165.617 688.494 166.403 688.722 167.835C689.087 170.134 688.095 171.448 685.752 171.82C683.539 172.172 681.619 171.009 679.993 168.331L677.181 170.513C678.97 173.654 682.154 175.773 686.275 175.118C690.744 174.408 693.108 171.364 692.419 167.025C691.442 160.597 681.327 163.004 680.75 159.092C680.474 157.357 681.437 156.136 682.956 155.895C684.301 155.682 685.719 156.212 687.292 157.431L689.427 154.912C687.514 152.947 685.209 152.157 682.562 152.577ZM712.197 167.62C714.501 169.523 717.19 170.208 720.357 169.705C723.524 169.202 725.868 167.717 727.426 165.202C729.027 162.679 729.554 159.837 729.065 156.757C728.576 153.676 727.201 151.181 724.897 149.278C722.636 147.369 719.941 146.64 716.774 147.143C713.606 147.647 711.269 149.174 709.668 151.697C708.11 154.213 707.576 157.011 708.065 160.092C708.555 163.172 709.936 165.711 712.197 167.62ZM712.687 153.62C713.647 151.821 715.171 150.779 717.297 150.441C719.423 150.103 721.196 150.622 722.622 152.042C724.085 153.411 724.989 155.18 725.334 157.349C725.678 159.519 725.367 161.481 724.407 163.279C723.484 165.027 721.959 166.07 719.833 166.407C717.707 166.745 715.934 166.226 714.471 164.857C713.045 163.438 712.141 161.669 711.797 159.499C711.452 157.33 711.763 155.368 712.687 153.62ZM734.756 148.024L737.705 166.594L741.35 166.015L738.401 147.445L743.434 146.646L742.91 143.348L737.877 144.148L737.65 142.716C737.202 139.896 737.993 138.435 740.379 138.056C741.203 137.926 742.019 138.018 742.905 138.278L743.133 134.95C742.233 134.604 741.157 134.552 739.899 134.752C735.386 135.469 733.226 138.392 734.005 143.295L734.232 144.726L731.108 145.223L731.632 148.52L734.756 148.024ZM769.187 155.366L761.125 140.455L757.134 141.089L768.142 160.825L766.221 171.139L769.953 170.546L775.921 138.105L772.102 138.712L769.187 155.366ZM784.65 156.113C786.954 158.015 789.643 158.7 792.81 158.197C795.978 157.694 798.322 156.21 799.879 153.694C801.48 151.171 802.008 148.33 801.518 145.249C801.029 142.169 799.654 139.674 797.35 137.771C795.09 135.861 792.394 135.133 789.227 135.636C786.06 136.139 783.722 137.667 782.121 140.19C780.564 142.706 780.03 145.504 780.519 148.584C781.008 151.665 782.39 154.203 784.65 156.113ZM785.14 142.112C786.1 140.314 787.625 139.271 789.751 138.933C791.877 138.596 793.649 139.115 795.076 140.534C796.539 141.903 797.442 143.672 797.787 145.842C798.132 148.011 797.82 149.973 796.861 151.771C795.937 153.519 794.413 154.562 792.287 154.9C790.161 155.238 788.388 154.719 786.925 153.35C785.498 151.93 784.595 150.161 784.25 147.992C783.906 145.822 784.217 143.86 785.14 142.112ZM807.997 148.802C808.686 153.14 811.509 155.228 815.5 154.594C818.667 154.091 820.863 152.23 822.05 149.061L822.691 153.096L826.335 152.517L822.862 130.65L819.218 131.229L820.672 140.383C821.133 143.29 820.905 145.773 819.929 147.752C818.997 149.724 817.666 150.869 815.974 151.138C813.458 151.537 811.965 150.262 811.49 147.268L809.195 132.82L805.551 133.399L807.997 148.802ZM842.943 127.772C842.05 127.469 841.017 127.41 839.846 127.596C837.416 127.982 834.945 130.065 834.072 132.695L833.48 128.963L829.835 129.542L833.308 151.409L836.953 150.831L835.636 142.544C835.106 139.203 835.3 136.503 836.218 134.445C837.137 132.386 838.417 131.204 840.066 130.942C840.977 130.797 841.836 130.883 842.722 131.143L842.943 127.772ZM84.3852 324.039L88.2033 323.433L85.9775 309.419L97.2148 307.634L96.636 303.99L85.3986 305.774L83.9584 296.706L97.799 294.508L97.2201 290.864L79.5615 293.668L84.3852 324.039ZM107.558 320.359L111.202 319.78L107.729 297.913L104.085 298.492L107.558 320.359ZM102.209 292.562C102.45 294.081 103.808 295.066 105.369 294.818C106.931 294.57 107.917 293.213 107.676 291.694C107.428 290.132 106.063 289.103 104.501 289.351C102.939 289.6 101.961 291 102.209 292.562ZM116.172 303.778C116.468 305.644 117.244 307.166 118.535 308.296C116.901 309.489 116.247 310.972 116.529 312.751C116.764 314.226 117.427 315.322 118.556 315.988C117.397 317.373 116.944 319.002 117.24 320.867C117.957 325.38 122.072 327.484 127.669 326.595C133.049 325.741 136.518 322.654 135.712 317.578C135.098 313.716 132.064 311.974 127.899 312.636L122.735 313.456C121.087 313.718 120.166 313.241 119.973 312.026C119.821 311.072 120.188 310.302 121.067 309.673C122.234 310.021 123.534 310.082 124.966 309.854C127.179 309.503 128.897 308.563 130.122 307.034C131.341 305.461 131.796 303.565 131.444 301.353C131.203 299.834 130.649 298.587 129.732 297.577L132.421 295.459L130.297 292.727L126.743 295.56C125.425 295.102 124.075 295.005 122.643 295.233C120.431 295.584 118.719 296.568 117.501 298.14C116.282 299.713 115.82 301.565 116.172 303.778ZM127.831 315.849C130.304 315.456 131.691 316.348 132.035 318.518C132.414 320.904 130.804 322.806 127.159 323.384C123.515 323.963 121.257 322.631 120.864 320.158C120.644 318.77 120.949 317.61 121.786 316.72C122.444 316.66 122.971 316.621 123.405 316.552L127.831 315.849ZM120.412 299.947C121.733 298.18 124.423 297.753 126.226 299.023C127.124 299.637 127.68 300.616 127.886 301.918C128.093 303.219 127.868 304.323 127.204 305.184C125.87 306.864 123.18 307.291 121.39 306.108C120.492 305.494 119.936 304.515 119.73 303.213C119.523 301.911 119.748 300.808 120.412 299.947ZM167.75 295.008C167.067 290.713 164.455 288.548 160.507 289.175C157.383 289.671 155.238 291.568 154.115 294.861C152.959 292.064 150.528 290.76 147.534 291.235C144.453 291.724 142.431 293.558 141.418 296.699L140.777 292.664L137.133 293.243L140.606 315.11L144.25 314.531L142.824 305.55C141.852 299.433 143.762 295.215 147.06 294.691C149.403 294.319 150.801 295.565 151.256 298.428L153.578 313.05L157.223 312.471L155.797 303.49C154.825 297.372 156.735 293.154 160.032 292.631C162.375 292.259 163.774 293.504 164.229 296.368L166.551 310.989L170.196 310.411L167.75 295.008ZM178.935 302.573C178.542 300.1 180.447 298.374 184.135 297.788L188.04 297.168L188.123 297.688C188.488 299.988 188.149 301.776 187.107 303.054C186.064 304.332 184.715 305.08 183.066 305.342C180.767 305.707 179.265 304.655 178.935 302.573ZM191.078 292.771C190.196 287.217 186.428 285.058 181.352 285.864C177.23 286.519 174.515 289.307 174.536 293.085L177.864 293.313C178.004 291.111 179.576 289.527 181.876 289.161C185.043 288.658 186.889 289.922 187.365 292.916L187.516 293.87L183.959 294.435C177.841 295.407 174.466 298.523 175.203 303.165C175.913 307.634 179.078 309.356 183.026 308.729C186.02 308.253 188.097 306.767 189.337 304.212L190.434 307.196L193.297 306.741L191.078 292.771ZM210.052 285.042L213.002 303.612L216.646 303.033L213.697 284.463L221.203 283.271L224.152 301.841L227.797 301.262L224.324 279.395L213.173 281.166L213.056 280.428C212.553 277.261 214.07 275.33 217.064 274.854C218.929 274.558 220.604 274.737 222.123 275.341L222.408 272.093C220.911 271.352 218.97 271.171 216.583 271.55C214.197 271.929 212.268 272.947 210.89 274.634C209.512 276.32 209.005 278.447 209.418 281.05L209.529 281.745L206.405 282.241L206.929 285.538L210.052 285.042ZM235.344 300.063L238.988 299.485L234.11 268.766L230.465 269.345L235.344 300.063ZM262.49 283.608C262.028 280.701 260.774 278.41 258.679 276.696C256.619 274.933 254.031 274.321 250.951 274.81C247.783 275.313 245.526 276.784 244.142 279.272C242.794 281.71 242.347 284.495 242.85 287.662C243.353 290.829 244.641 293.338 246.685 295.282C248.765 297.176 251.367 297.874 254.534 297.371C259.046 296.655 261.497 294.442 262.854 289.822L259.423 288.944C258.613 291.964 257.091 293.585 254.01 294.074C250.235 294.673 247.604 292.111 246.705 287.85L262.759 285.301L262.49 283.608ZM251.474 278.107C254.815 277.577 257.199 279.422 258.417 282.609L246.398 284.518C246.562 281.067 248.22 278.624 251.474 278.107ZM283.293 285.998C282.9 283.525 284.806 281.799 288.494 281.213L292.399 280.593L292.481 281.114C292.846 283.413 292.508 285.202 291.465 286.479C290.423 287.757 289.074 288.505 287.425 288.767C285.125 289.132 283.624 288.081 283.293 285.998ZM295.437 276.196C294.555 270.642 290.787 268.483 285.71 269.289C281.588 269.944 278.873 272.733 278.895 276.51L282.223 276.738C282.362 274.536 283.934 272.952 286.234 272.587C289.401 272.084 291.248 273.347 291.723 276.341L291.875 277.295L288.317 277.861C282.199 278.832 278.824 281.948 279.562 286.591C280.272 291.06 283.436 292.781 287.384 292.154C290.378 291.678 292.455 290.192 293.695 287.637L294.792 290.622L297.656 290.167L295.437 276.196ZM318.894 271.003C318.205 266.664 315.382 264.577 311.39 265.211C308.223 265.714 306.028 267.575 304.841 270.744L304.2 266.708L300.555 267.287L304.028 289.155L307.673 288.576L306.219 279.421C305.757 276.514 305.986 274.031 306.918 272.059C307.894 270.081 309.224 268.935 310.916 268.667C313.433 268.267 314.925 269.542 315.401 272.536L317.695 286.984L321.34 286.405L318.894 271.003ZM333.103 261.762C326.855 262.754 324.101 267.818 325.176 274.586C326.251 281.355 330.438 285.316 336.686 284.324C339.289 283.91 341.766 282.138 342.582 280.273L343.009 282.963L346.653 282.385L341.775 251.666L338.13 252.245L339.949 263.699C339.448 263.067 338.477 262.554 337.116 262.103C335.754 261.652 334.404 261.555 333.103 261.762ZM336.509 280.971C332.691 281.577 329.658 278.723 328.907 273.994C328.156 269.265 330.155 265.611 333.974 265.004C337.922 264.377 340.825 267.252 341.576 271.982C342.327 276.711 340.458 280.344 336.509 280.971ZM371.468 272.216L363.406 257.305L359.414 257.939L370.422 277.675L368.502 287.989L372.233 287.396L378.201 254.955L374.383 255.562L371.468 272.216ZM386.931 272.963C389.235 274.865 391.923 275.55 395.091 275.047C398.258 274.544 400.602 273.06 402.16 270.544C403.761 268.021 404.288 265.18 403.799 262.099C403.31 259.019 401.935 256.524 399.631 254.621C397.37 252.711 394.675 251.983 391.507 252.486C388.34 252.989 386.003 254.517 384.402 257.04C382.844 259.556 382.31 262.354 382.799 265.434C383.289 268.515 384.67 271.053 386.931 272.963ZM387.421 258.962C388.381 257.164 389.905 256.121 392.031 255.783C394.157 255.446 395.93 255.965 397.356 257.384C398.819 258.753 399.723 260.522 400.068 262.692C400.412 264.861 400.101 266.823 399.141 268.621C398.218 270.369 396.693 271.412 394.567 271.75C392.441 272.088 390.668 271.568 389.205 270.199C387.779 268.78 386.875 267.011 386.531 264.842C386.186 262.672 386.497 260.71 387.421 258.962ZM410.277 265.652C410.967 269.99 413.789 272.078 417.781 271.444C420.948 270.941 423.143 269.08 424.33 265.911L424.971 269.946L428.616 269.367L425.143 247.5L421.498 248.079L422.952 257.233C423.414 260.14 423.185 262.623 422.21 264.602C421.277 266.574 419.947 267.719 418.255 267.988C415.738 268.387 414.246 267.112 413.77 264.118L411.476 249.67L407.831 250.249L410.277 265.652ZM445.223 244.622C444.33 244.319 443.298 244.26 442.126 244.446C439.697 244.832 437.225 246.915 436.353 249.545L435.76 245.813L432.115 246.392L435.589 268.259L439.233 267.681L437.917 259.394C437.386 256.053 437.58 253.353 438.499 251.294C439.417 249.236 440.698 248.054 442.346 247.792C443.257 247.647 444.116 247.733 445.003 247.993L445.223 244.622ZM467.84 240.362C463.979 240.976 461.826 243.942 462.377 247.413C463.038 251.578 466.903 252.388 469.939 253.018C472.002 253.402 473.773 254.188 474 255.62C474.365 257.919 473.373 259.234 471.03 259.606C468.817 259.957 466.898 258.794 465.272 256.117L462.46 258.298C464.249 261.439 467.432 263.558 471.554 262.903C476.023 262.193 478.386 259.149 477.697 254.81C476.72 248.382 466.605 250.789 466.028 246.878C465.753 245.142 466.715 243.922 468.234 243.68C469.579 243.467 470.998 243.998 472.57 245.216L474.705 242.697C472.792 240.732 470.487 239.942 467.84 240.362ZM484.016 260.568L487.66 259.989L482.782 229.271L479.137 229.85L484.016 260.568ZM494.188 258.952L497.832 258.374L494.359 236.506L490.715 237.085L494.188 258.952ZM488.839 231.156C489.08 232.674 490.438 233.66 492 233.412C493.562 233.163 494.547 231.806 494.306 230.287C494.058 228.725 492.693 227.697 491.131 227.945C489.569 228.193 488.591 229.594 488.839 231.156ZM509.787 233.7C503.54 234.692 500.785 239.756 501.86 246.524C502.935 253.293 507.123 257.254 513.371 256.262C515.974 255.848 518.45 254.076 519.266 252.211L519.694 254.901L523.338 254.323L518.459 223.604L514.815 224.183L516.634 235.637C516.133 235.005 515.162 234.492 513.8 234.041C512.439 233.59 511.089 233.493 509.787 233.7ZM513.194 252.909C509.376 253.515 506.343 250.661 505.592 245.932C504.84 241.203 506.84 237.549 510.658 236.942C514.606 236.315 517.51 239.19 518.261 243.92C519.012 248.649 517.142 252.282 513.194 252.909ZM547.007 238.42C546.545 235.513 545.292 233.221 543.196 231.508C541.137 229.744 538.548 229.132 535.468 229.621C532.301 230.124 530.043 231.595 528.659 234.083C527.312 236.522 526.864 239.306 527.367 242.473C527.87 245.641 529.158 248.149 531.202 250.093C533.282 251.987 535.884 252.686 539.051 252.183C543.564 251.466 546.014 249.253 547.371 244.634L543.94 243.755C543.13 246.775 541.608 248.396 538.528 248.885C534.753 249.485 532.122 246.922 531.223 242.662L547.276 240.112L547.007 238.42ZM535.992 232.919C539.332 232.388 541.716 234.234 542.934 237.421L530.916 239.33C531.079 235.879 532.738 233.436 535.992 232.919ZM557.496 226.123C553.635 226.736 551.481 229.702 552.033 233.173C552.694 237.339 556.559 238.148 559.595 238.778C561.658 239.162 563.429 239.948 563.656 241.38C564.021 243.68 563.029 244.994 560.686 245.366C558.473 245.717 556.554 244.554 554.927 241.877L552.116 244.058C553.904 247.199 557.088 249.318 561.21 248.663C565.679 247.954 568.042 244.909 567.353 240.571C566.376 234.142 556.261 236.55 555.684 232.638C555.408 230.902 556.371 229.682 557.89 229.441C559.235 229.227 560.653 229.758 562.226 230.976L564.361 228.457C562.448 226.493 560.143 225.702 557.496 226.123ZM589.471 228.25C588.748 223.695 585.969 221.601 581.934 222.241C578.593 222.772 575.998 224.919 575.044 227.873L572.99 214.943L569.346 215.522L574.225 246.241L577.869 245.662L576.394 236.377C575.94 233.513 576.225 231.11 577.288 229.118C578.35 227.125 579.767 225.966 581.46 225.697C583.976 225.298 585.469 226.573 585.944 229.567L588.239 244.015L591.883 243.436L589.471 228.25ZM599.8 239.154C602.104 241.056 604.793 241.741 607.96 241.238C611.127 240.735 613.471 239.251 615.029 236.735C616.63 234.212 617.157 231.371 616.668 228.29C616.179 225.21 614.804 222.715 612.5 220.812C610.239 218.902 607.544 218.174 604.376 218.677C601.209 219.18 598.872 220.708 597.271 223.231C595.713 225.747 595.179 228.545 595.668 231.625C596.158 234.706 597.539 237.244 599.8 239.154ZM600.29 225.153C601.25 223.355 602.774 222.312 604.9 221.974C607.026 221.637 608.799 222.156 610.225 223.575C611.688 224.944 612.592 226.713 612.937 228.883C613.281 231.052 612.97 233.014 612.01 234.812C611.087 236.56 609.562 237.603 607.436 237.941C605.31 238.279 603.537 237.759 602.074 236.39C600.648 234.971 599.744 233.202 599.4 231.033C599.055 228.863 599.366 226.901 600.29 225.153ZM641.509 230.35L634.547 214.241L630.902 214.82L629.274 232.293L622.138 216.212L618.32 216.818L628.431 237.631L631.902 237.08L633.558 219.78L640.493 235.715L643.964 235.164L647.129 212.243L643.311 212.849L641.509 230.35ZM665.377 216.55C665.674 218.416 666.449 219.939 667.741 221.068C666.107 222.262 665.452 223.744 665.735 225.523C665.969 226.999 666.633 228.094 667.761 228.76C666.602 230.145 666.149 231.774 666.446 233.64C667.162 238.152 671.278 240.256 676.875 239.367C682.255 238.513 685.723 235.426 684.917 230.35C684.304 226.489 681.269 224.746 677.104 225.408L671.941 226.228C670.292 226.49 669.371 226.013 669.178 224.799C669.027 223.844 669.394 223.074 670.273 222.445C671.44 222.794 672.739 222.854 674.171 222.627C676.384 222.275 678.103 221.335 679.328 219.806C680.546 218.233 681.001 216.337 680.65 214.125C680.409 212.606 679.855 211.36 678.938 210.349L681.626 208.231L679.502 205.5L675.949 208.333C674.631 207.875 673.281 207.778 671.849 208.005C669.636 208.357 667.924 209.34 666.706 210.913C665.488 212.485 665.026 214.338 665.377 216.55ZM677.036 228.621C679.509 228.229 680.896 229.12 681.241 231.29C681.62 233.676 680.009 235.578 676.365 236.157C672.72 236.735 670.462 235.404 670.07 232.931C669.849 231.542 670.154 230.382 670.991 229.493C671.649 229.433 672.177 229.393 672.611 229.324L677.036 228.621ZM669.617 212.719C670.938 210.952 673.628 210.525 675.431 211.795C676.329 212.409 676.885 213.388 677.092 214.69C677.299 215.991 677.074 217.095 676.41 217.956C675.075 219.636 672.385 220.063 670.596 218.88C669.698 218.266 669.142 217.287 668.935 215.985C668.728 214.684 668.954 213.58 669.617 212.719ZM706.32 213.117C705.858 210.21 704.605 207.918 702.509 206.205C700.449 204.441 697.861 203.829 694.781 204.318C691.613 204.821 689.356 206.292 687.972 208.78C686.624 211.219 686.177 214.003 686.68 217.17C687.183 220.338 688.471 222.846 690.515 224.79C692.595 226.684 695.197 227.383 698.364 226.88C702.876 226.163 705.327 223.95 706.684 219.331L703.253 218.452C702.443 221.473 700.921 223.093 697.84 223.582C694.066 224.182 691.435 221.62 690.535 217.359L706.589 214.809L706.32 213.117ZM695.304 207.616C698.645 207.085 701.029 208.931 702.247 212.118L690.229 214.027C690.392 210.576 692.05 208.133 695.304 207.616ZM712.516 205.238L714.377 216.953C715.128 221.682 717.994 223.762 721.855 223.149C723.287 222.921 724.417 222.475 725.282 221.759L723.911 218.73C723.293 219.317 722.503 219.665 721.548 219.817C719.683 220.113 718.435 218.977 718.07 216.678L716.161 204.659L721.888 203.75L721.364 200.452L715.637 201.362L714.231 192.511L710.952 195.389L711.992 201.941L708.218 202.54L708.742 205.838L712.516 205.238ZM733.588 198.155C729.726 198.768 727.573 201.735 728.124 205.206C728.786 209.371 732.651 210.18 735.687 210.81C737.749 211.194 739.52 211.981 739.747 213.412C740.113 215.712 739.12 217.026 736.777 217.398C734.565 217.75 732.645 216.587 731.019 213.909L728.207 216.09C729.996 219.231 733.179 221.35 737.301 220.696C741.77 219.986 744.133 216.942 743.444 212.603C742.468 206.175 732.352 208.582 731.776 204.67C731.5 202.935 732.463 201.714 733.981 201.473C735.326 201.259 736.745 201.79 738.317 203.008L740.453 200.49C738.539 198.525 736.234 197.735 733.588 198.155ZM91.1975 370.012C91.8866 374.35 94.709 376.438 98.7007 375.804C101.868 375.301 104.063 373.44 105.25 370.271L105.891 374.306L109.536 373.727L106.063 351.86L102.418 352.439L103.872 361.593C104.334 364.5 104.105 366.983 103.13 368.962C102.197 370.934 100.867 372.079 99.1749 372.348C96.6584 372.747 95.1659 371.472 94.6904 368.478L92.3957 354.03L88.7511 354.609L91.1975 370.012ZM126.883 371.328C133.131 370.335 135.885 365.272 134.81 358.503C133.735 351.735 129.547 347.774 123.299 348.766C120.696 349.18 118.22 350.952 117.404 352.816L116.977 350.126L113.332 350.705L118.211 381.423L121.855 380.844L120.036 369.39C120.537 370.022 121.508 370.535 122.87 370.986C124.231 371.437 125.581 371.534 126.883 371.328ZM123.476 352.119C127.294 351.512 130.327 354.367 131.079 359.096C131.83 363.825 129.83 367.479 126.012 368.085C122.064 368.712 119.161 365.837 118.409 361.108C117.658 356.379 119.528 352.746 123.476 352.119ZM147.786 344.877C141.538 345.869 138.784 350.933 139.859 357.701C140.934 364.47 145.122 368.431 151.369 367.438C153.973 367.025 156.449 365.253 157.265 363.388L157.692 366.078L161.337 365.5L156.458 334.781L152.813 335.36L154.633 346.814C154.132 346.182 153.161 345.669 151.799 345.218C150.438 344.767 149.088 344.67 147.786 344.877ZM151.193 364.086C147.375 364.692 144.341 361.838 143.59 357.109C142.839 352.38 144.839 348.726 148.657 348.119C152.605 347.492 155.508 350.367 156.259 355.097C157.011 359.826 155.141 363.459 151.193 364.086ZM169.837 357.7C169.444 355.227 171.349 353.501 175.037 352.915L178.942 352.295L179.025 352.815C179.39 355.115 179.051 356.903 178.009 358.181C176.966 359.459 175.617 360.207 173.968 360.469C171.669 360.834 170.167 359.782 169.837 357.7ZM181.98 347.898C181.098 342.344 177.33 340.185 172.254 340.991C168.132 341.646 165.417 344.434 165.439 348.212L168.766 348.44C168.906 346.238 170.478 344.654 172.778 344.288C175.945 343.785 177.791 345.049 178.267 348.043L178.418 348.997L174.861 349.562C168.743 350.534 165.368 353.65 166.105 358.292C166.815 362.761 169.98 364.483 173.928 363.856C176.922 363.38 178.999 361.894 180.239 359.339L181.336 362.323L184.199 361.868L181.98 347.898ZM189.38 342.007L191.241 353.722C191.992 358.451 194.858 360.531 198.719 359.918C200.151 359.691 201.281 359.244 202.146 358.529L200.775 355.499C200.157 356.087 199.367 356.435 198.412 356.586C196.547 356.883 195.299 355.746 194.934 353.447L193.025 341.429L198.752 340.519L198.228 337.221L192.501 338.131L191.095 329.28L187.816 332.158L188.857 338.71L185.082 339.309L185.606 342.607L189.38 342.007ZM223.733 343.446C223.271 340.539 222.017 338.247 219.921 336.534C217.862 334.77 215.274 334.158 212.193 334.648C209.026 335.151 206.769 336.621 205.385 339.11C204.037 341.548 203.59 344.332 204.093 347.499C204.596 350.667 205.884 353.176 207.927 355.12C210.007 357.013 212.609 357.712 215.777 357.209C220.289 356.492 222.74 354.279 224.097 349.66L220.666 348.782C219.855 351.802 218.333 353.422 215.253 353.912C211.478 354.511 208.847 351.949 207.948 347.688L224.001 345.138L223.733 343.446ZM212.717 337.945C216.058 337.414 218.442 339.26 219.659 342.447L207.641 344.356C207.805 340.905 209.463 338.462 212.717 337.945ZM236.849 330.732C230.601 331.724 227.847 336.788 228.922 343.556C229.997 350.324 234.184 354.285 240.432 353.293C243.035 352.88 245.512 351.107 246.328 349.243L246.755 351.933L250.399 351.354L245.521 320.636L241.876 321.215L243.695 332.669C243.195 332.037 242.223 331.524 240.862 331.073C239.5 330.622 238.15 330.525 236.849 330.732ZM240.255 349.941C236.437 350.547 233.404 347.693 232.653 342.963C231.902 338.234 233.902 334.58 237.72 333.974C241.668 333.347 244.571 336.222 245.322 340.951C246.073 345.68 244.204 349.313 240.255 349.941ZM280.052 347C286.3 346.008 289.054 340.945 287.979 334.176C286.904 327.408 282.716 323.447 276.469 324.439C273.865 324.853 271.389 326.625 270.573 328.489L270.146 325.799L266.501 326.378L271.38 357.096L275.025 356.517L273.205 345.063C273.706 345.695 274.677 346.208 276.039 346.659C277.4 347.11 278.75 347.207 280.052 347ZM276.645 327.792C280.463 327.185 283.497 330.04 284.248 334.769C284.999 339.498 282.999 343.152 279.181 343.758C275.233 344.385 272.33 341.51 271.579 336.781C270.827 332.052 272.697 328.419 276.645 327.792ZM312.668 329.321C312.206 326.414 310.953 324.122 308.857 322.409C306.797 320.645 304.209 320.033 301.129 320.522C297.962 321.025 295.704 322.496 294.32 324.984C292.972 327.423 292.525 330.207 293.028 333.374C293.531 336.541 294.819 339.05 296.863 340.994C298.943 342.888 301.545 343.587 304.712 343.084C309.224 342.367 311.675 340.154 313.032 335.535L309.601 334.656C308.791 337.676 307.269 339.297 304.188 339.786C300.414 340.386 297.783 337.823 296.883 333.563L312.937 331.013L312.668 329.321ZM301.653 323.82C304.993 323.289 307.377 325.135 308.595 328.322L296.577 330.231C296.74 326.78 298.398 324.337 301.653 323.82ZM329.733 316.646C328.84 316.344 327.808 316.285 326.636 316.471C324.206 316.857 321.735 318.94 320.863 321.569L320.27 317.838L316.625 318.417L320.098 340.284L323.743 339.705L322.427 331.418C321.896 328.078 322.09 325.378 323.009 323.319C323.927 321.261 325.207 320.079 326.856 319.817C327.767 319.672 328.626 319.758 329.512 320.018L329.733 316.646ZM337.641 337.498L341.285 336.919L337.812 315.052L334.168 315.631L337.641 337.498ZM332.292 309.701C332.533 311.22 333.891 312.205 335.453 311.957C337.014 311.709 338 310.352 337.759 308.833C337.511 307.271 336.146 306.242 334.584 306.49C333.022 306.738 332.044 308.139 332.292 309.701ZM349.445 332.598C351.749 334.501 354.437 335.186 357.605 334.683C360.772 334.18 363.116 332.696 364.674 330.18C366.275 327.657 366.802 324.815 366.313 321.735C365.823 318.654 364.449 316.159 362.145 314.257C359.884 312.347 357.189 311.619 354.021 312.122C350.854 312.625 348.517 314.152 346.916 316.675C345.358 319.191 344.824 321.99 345.313 325.07C345.802 328.151 347.184 330.689 349.445 332.598ZM349.934 318.598C350.894 316.8 352.419 315.757 354.545 315.419C356.671 315.081 358.444 315.601 359.87 317.02C361.333 318.389 362.237 320.158 362.581 322.327C362.926 324.497 362.615 326.459 361.655 328.257C360.732 330.005 359.207 331.048 357.081 331.386C354.955 331.723 353.182 331.204 351.719 329.835C350.293 328.416 349.389 326.647 349.045 324.477C348.7 322.308 349.011 320.346 349.934 318.598ZM379.298 308.107C373.05 309.099 370.296 314.163 371.371 320.931C372.446 327.7 376.634 331.661 382.881 330.668C385.485 330.255 387.961 328.483 388.777 326.618L389.204 329.308L392.849 328.73L387.97 298.011L384.325 298.59L386.145 310.044C385.644 309.412 384.673 308.899 383.311 308.448C381.95 307.997 380.6 307.9 379.298 308.107ZM382.705 327.316C378.887 327.922 375.853 325.068 375.102 320.339C374.351 315.61 376.351 311.956 380.169 311.349C384.117 310.722 387.02 313.597 387.771 318.327C388.523 323.056 386.653 326.689 382.705 327.316ZM399.798 327.626L403.443 327.047L399.97 305.18L396.325 305.759L399.798 327.626ZM394.449 299.829C394.69 301.348 396.048 302.333 397.61 302.085C399.172 301.837 400.157 300.479 399.916 298.961C399.668 297.399 398.304 296.37 396.742 296.618C395.18 296.866 394.201 298.267 394.449 299.829ZM424.021 316.617C423.277 319.493 421.494 321.155 418.674 321.603C414.639 322.244 411.946 319.291 411.202 314.605C410.458 309.919 412.103 306.277 416.138 305.637C418.959 305.189 421.168 306.217 422.767 308.721L425.727 306.916C423.308 303.163 419.953 301.65 415.615 302.339C412.447 302.842 410.147 304.32 408.763 306.808C407.415 309.246 406.968 312.031 407.471 315.198C407.974 318.365 409.262 320.874 411.305 322.818C413.385 324.712 416.031 325.404 419.198 324.9C423.537 324.211 426.257 321.733 427.395 317.416L424.021 316.617ZM435.669 315.479C435.276 313.006 437.181 311.28 440.869 310.694L444.774 310.074L444.857 310.594C445.222 312.894 444.883 314.683 443.841 315.96C442.798 317.238 441.449 317.986 439.801 318.248C437.501 318.613 436 317.561 435.669 315.479ZM447.812 305.677C446.93 300.123 443.162 297.964 438.086 298.77C433.964 299.425 431.249 302.214 431.271 305.991L434.598 306.219C434.738 304.017 436.31 302.433 438.61 302.068C441.777 301.564 443.623 302.828 444.099 305.822L444.251 306.776L440.693 307.341C434.575 308.313 431.2 311.429 431.937 316.071C432.647 320.54 435.812 322.262 439.76 321.635C442.754 321.159 444.831 319.673 446.071 317.118L447.168 320.102L450.031 319.648L447.812 305.677ZM456.614 318.602L460.258 318.023L455.38 287.305L451.735 287.884L456.614 318.602ZM467.461 316.879L471.105 316.3L466.226 285.582L462.582 286.161L467.461 316.879ZM484.397 307.962L476.335 293.051L472.343 293.685L483.351 313.421L481.431 323.735L485.162 323.142L491.13 290.701L487.312 291.308L484.397 307.962ZM496.671 309.616C496.919 311.177 498.277 312.163 499.839 311.915C501.357 311.674 502.386 310.309 502.138 308.747C501.897 307.229 500.489 306.207 498.97 306.448C497.408 306.696 496.43 308.097 496.671 309.616Z" fill="black"/>
</g>
</g>
<defs>
<filter id="filter0_d_8_6" x="0" y="0" width="925" height="446.891" filterUnits="userSpaceOnUse" color-interpolation-filters="sRGB">
<feFlood flood-opacity="0" result="BackgroundImageFix"/>
<feColorMatrix in="SourceAlpha" type="matrix" values="0 0 0 0 0 0 0 0 0 0 0 0 0 0 0 0 0 0 127 0" result="hardAlpha"/>
<feOffset dy="2"/>
<feGaussianBlur stdDeviation="1"/>
<feComposite in2="hardAlpha" operator="out"/>
<feColorMatrix type="matrix" values="0 0 0 0 0 0 0 0 0 0 0 0 0 0 0 0 0 0 0.25 0"/>
<feBlend mode="normal" in2="BackgroundImageFix" result="effect1_dropShadow_8_6"/>
<feBlend mode="normal" in="SourceGraphic" in2="effect1_dropShadow_8_6" result="shape"/>
</filter>
<clipPath id="clip0_8_6">
<rect x="2.00066" y="138.602" width="883.608" height="308.101" rx="12" transform="rotate(-9.02465 2.00066 138.602)" fill="white"/>
</clipPath>
</defs>
</svg>
